%TF.GenerationSoftware,KiCad,Pcbnew,(5.1.6)-1*%
%TF.CreationDate,2021-02-17T18:40:24-08:00*%
%TF.ProjectId,kg-cable-asl,6b672d63-6162-46c6-952d-61736c2e6b69,rev?*%
%TF.SameCoordinates,Original*%
%TF.FileFunction,Copper,L2,Inr*%
%TF.FilePolarity,Positive*%
%FSLAX46Y46*%
G04 Gerber Fmt 4.6, Leading zero omitted, Abs format (unit mm)*
G04 Created by KiCad (PCBNEW (5.1.6)-1) date 2021-02-17 18:40:24*
%MOMM*%
%LPD*%
G01*
G04 APERTURE LIST*
%TA.AperFunction,ViaPad*%
%ADD10O,1.350000X1.350000*%
%TD*%
%TA.AperFunction,ViaPad*%
%ADD11R,1.350000X1.350000*%
%TD*%
%TA.AperFunction,ViaPad*%
%ADD12C,0.600000*%
%TD*%
%TA.AperFunction,Conductor*%
%ADD13C,0.254000*%
%TD*%
G04 APERTURE END LIST*
D10*
%TO.N,+12V*%
%TO.C,J1*%
X140772900Y-115030000D03*
%TO.N,/GPIO8*%
X140772900Y-113030000D03*
%TO.N,/GPIO7*%
X142772900Y-115030000D03*
%TO.N,/MIC*%
X142772900Y-113030000D03*
%TO.N,/GPIO6*%
X144772900Y-115030000D03*
%TO.N,/AUDIO_OUT*%
X144772900Y-113030000D03*
%TO.N,/GPIO5*%
X146772900Y-115030000D03*
%TO.N,/COR_DET*%
X146772900Y-113030000D03*
%TO.N,GND*%
X148772900Y-115030000D03*
%TO.N,/LEFT_OUT*%
X148772900Y-113030000D03*
%TO.N,/GPIO4*%
X150772900Y-115030000D03*
%TO.N,/CTCSS_DET*%
X150772900Y-113030000D03*
%TO.N,/GPIO1*%
X152772900Y-115030000D03*
%TO.N,+5V*%
X152772900Y-113030000D03*
%TO.N,/GPIO2*%
X154772900Y-115030000D03*
D11*
%TO.N,/PTT*%
X154772900Y-113030000D03*
%TD*%
D12*
%TO.N,GND*%
X130302000Y-105156000D03*
X130302000Y-106172000D03*
X131318000Y-106172000D03*
X131318000Y-105156000D03*
X148500000Y-106700000D03*
%TO.N,+5V*%
X153718961Y-110368794D03*
%TO.N,GND*%
X162000000Y-108500000D03*
X136000000Y-110250000D03*
X158200000Y-106900000D03*
X150900000Y-108400000D03*
X152100000Y-107600000D03*
%TO.N,+5V*%
X163068000Y-106934000D03*
X150622000Y-106680000D03*
X142752667Y-104652538D03*
X133197900Y-104648000D03*
X146050000Y-106045000D03*
X149700000Y-107700000D03*
X145500000Y-107500000D03*
X163200000Y-108400000D03*
X163200000Y-109400000D03*
X150900000Y-110900000D03*
%TO.N,/AIN_6DB*%
X135643264Y-104434558D03*
%TO.N,/RIGHT_OUT*%
X138100000Y-104500000D03*
X134250000Y-108262000D03*
X138000000Y-107999998D03*
%TO.N,/LEFT_OUT*%
X144300000Y-111300000D03*
%TO.N,/MIC_AC*%
X143764000Y-104648000D03*
%TO.N,/EEP_DO*%
X153300000Y-107300000D03*
%TO.N,/EEP_DI*%
X154564810Y-109509871D03*
%TO.N,/EEP_CK*%
X156201091Y-110124228D03*
%TO.N,/EEP_CS*%
X160500000Y-104700000D03*
%TO.N,/GPIO8*%
X136652000Y-104394000D03*
%TO.N,/GPIO7*%
X139446000Y-104394000D03*
%TO.N,/COR_DET*%
X146750000Y-111250000D03*
%TO.N,/GPIO6*%
X150368000Y-104394000D03*
%TO.N,/GPIO5*%
X153416000Y-104394000D03*
%TO.N,/GPIO4*%
X156210000Y-104394000D03*
%TO.N,/GPIO2*%
X159766000Y-105410000D03*
%TO.N,/GPIO1*%
X161544000Y-104394000D03*
%TO.N,/AUDIO_OUT*%
X142600000Y-111600000D03*
%TD*%
D13*
%TO.N,+5V*%
G36*
X166195604Y-109890952D02*
G01*
X166163585Y-110216978D01*
X166074924Y-110510472D01*
X165930942Y-110781159D01*
X165723927Y-111034904D01*
X160501203Y-116257529D01*
X160248214Y-116465337D01*
X159978010Y-116610220D01*
X159684812Y-116699859D01*
X159359545Y-116732899D01*
X136192750Y-116729403D01*
X135866735Y-116697388D01*
X135573233Y-116608726D01*
X135302552Y-116464749D01*
X135049317Y-116258153D01*
X131720827Y-112931312D01*
X139770900Y-112931312D01*
X139770900Y-113128688D01*
X139809407Y-113322273D01*
X139884939Y-113504625D01*
X139994596Y-113668738D01*
X140134162Y-113808304D01*
X140298275Y-113917961D01*
X140480627Y-113993493D01*
X140664157Y-114030000D01*
X140480627Y-114066507D01*
X140298275Y-114142039D01*
X140134162Y-114251696D01*
X139994596Y-114391262D01*
X139884939Y-114555375D01*
X139809407Y-114737727D01*
X139770900Y-114931312D01*
X139770900Y-115128688D01*
X139809407Y-115322273D01*
X139884939Y-115504625D01*
X139994596Y-115668738D01*
X140134162Y-115808304D01*
X140298275Y-115917961D01*
X140480627Y-115993493D01*
X140674212Y-116032000D01*
X140871588Y-116032000D01*
X141065173Y-115993493D01*
X141247525Y-115917961D01*
X141411638Y-115808304D01*
X141551204Y-115668738D01*
X141660861Y-115504625D01*
X141736393Y-115322273D01*
X141772900Y-115138743D01*
X141809407Y-115322273D01*
X141884939Y-115504625D01*
X141994596Y-115668738D01*
X142134162Y-115808304D01*
X142298275Y-115917961D01*
X142480627Y-115993493D01*
X142674212Y-116032000D01*
X142871588Y-116032000D01*
X143065173Y-115993493D01*
X143247525Y-115917961D01*
X143411638Y-115808304D01*
X143551204Y-115668738D01*
X143660861Y-115504625D01*
X143736393Y-115322273D01*
X143772900Y-115138743D01*
X143809407Y-115322273D01*
X143884939Y-115504625D01*
X143994596Y-115668738D01*
X144134162Y-115808304D01*
X144298275Y-115917961D01*
X144480627Y-115993493D01*
X144674212Y-116032000D01*
X144871588Y-116032000D01*
X145065173Y-115993493D01*
X145247525Y-115917961D01*
X145411638Y-115808304D01*
X145551204Y-115668738D01*
X145660861Y-115504625D01*
X145736393Y-115322273D01*
X145772900Y-115138743D01*
X145809407Y-115322273D01*
X145884939Y-115504625D01*
X145994596Y-115668738D01*
X146134162Y-115808304D01*
X146298275Y-115917961D01*
X146480627Y-115993493D01*
X146674212Y-116032000D01*
X146871588Y-116032000D01*
X147065173Y-115993493D01*
X147247525Y-115917961D01*
X147411638Y-115808304D01*
X147551204Y-115668738D01*
X147660861Y-115504625D01*
X147736393Y-115322273D01*
X147772900Y-115138743D01*
X147809407Y-115322273D01*
X147884939Y-115504625D01*
X147994596Y-115668738D01*
X148134162Y-115808304D01*
X148298275Y-115917961D01*
X148480627Y-115993493D01*
X148674212Y-116032000D01*
X148871588Y-116032000D01*
X149065173Y-115993493D01*
X149247525Y-115917961D01*
X149411638Y-115808304D01*
X149551204Y-115668738D01*
X149660861Y-115504625D01*
X149736393Y-115322273D01*
X149772900Y-115138743D01*
X149809407Y-115322273D01*
X149884939Y-115504625D01*
X149994596Y-115668738D01*
X150134162Y-115808304D01*
X150298275Y-115917961D01*
X150480627Y-115993493D01*
X150674212Y-116032000D01*
X150871588Y-116032000D01*
X151065173Y-115993493D01*
X151247525Y-115917961D01*
X151411638Y-115808304D01*
X151551204Y-115668738D01*
X151660861Y-115504625D01*
X151736393Y-115322273D01*
X151772900Y-115138743D01*
X151809407Y-115322273D01*
X151884939Y-115504625D01*
X151994596Y-115668738D01*
X152134162Y-115808304D01*
X152298275Y-115917961D01*
X152480627Y-115993493D01*
X152674212Y-116032000D01*
X152871588Y-116032000D01*
X153065173Y-115993493D01*
X153247525Y-115917961D01*
X153411638Y-115808304D01*
X153551204Y-115668738D01*
X153660861Y-115504625D01*
X153736393Y-115322273D01*
X153772900Y-115138743D01*
X153809407Y-115322273D01*
X153884939Y-115504625D01*
X153994596Y-115668738D01*
X154134162Y-115808304D01*
X154298275Y-115917961D01*
X154480627Y-115993493D01*
X154674212Y-116032000D01*
X154871588Y-116032000D01*
X155065173Y-115993493D01*
X155247525Y-115917961D01*
X155411638Y-115808304D01*
X155551204Y-115668738D01*
X155660861Y-115504625D01*
X155736393Y-115322273D01*
X155774900Y-115128688D01*
X155774900Y-114931312D01*
X155736393Y-114737727D01*
X155660861Y-114555375D01*
X155551204Y-114391262D01*
X155411638Y-114251696D01*
X155247525Y-114142039D01*
X155065173Y-114066507D01*
X154899650Y-114033582D01*
X155447900Y-114033582D01*
X155512003Y-114027268D01*
X155573643Y-114008570D01*
X155630450Y-113978206D01*
X155680243Y-113937343D01*
X155721106Y-113887550D01*
X155751470Y-113830743D01*
X155770168Y-113769103D01*
X155776482Y-113705000D01*
X155776482Y-112355000D01*
X155770168Y-112290897D01*
X155751470Y-112229257D01*
X155721106Y-112172450D01*
X155680243Y-112122657D01*
X155630450Y-112081794D01*
X155573643Y-112051430D01*
X155512003Y-112032732D01*
X155447900Y-112026418D01*
X154097900Y-112026418D01*
X154033797Y-112032732D01*
X153972157Y-112051430D01*
X153915350Y-112081794D01*
X153865557Y-112122657D01*
X153824694Y-112172450D01*
X153799311Y-112219938D01*
X153644127Y-112051697D01*
X153436529Y-111900527D01*
X153203428Y-111792762D01*
X153102300Y-111762090D01*
X152899900Y-111885776D01*
X152899900Y-112903000D01*
X152919900Y-112903000D01*
X152919900Y-113157000D01*
X152899900Y-113157000D01*
X152899900Y-113177000D01*
X152645900Y-113177000D01*
X152645900Y-113157000D01*
X152625900Y-113157000D01*
X152625900Y-112903000D01*
X152645900Y-112903000D01*
X152645900Y-111885776D01*
X152443500Y-111762090D01*
X152342372Y-111792762D01*
X152109271Y-111900527D01*
X151901673Y-112051697D01*
X151727556Y-112240463D01*
X151595157Y-112457042D01*
X151551204Y-112391262D01*
X151411638Y-112251696D01*
X151247525Y-112142039D01*
X151065173Y-112066507D01*
X150871588Y-112028000D01*
X150674212Y-112028000D01*
X150480627Y-112066507D01*
X150298275Y-112142039D01*
X150134162Y-112251696D01*
X149994596Y-112391262D01*
X149884939Y-112555375D01*
X149809407Y-112737727D01*
X149772900Y-112921257D01*
X149736393Y-112737727D01*
X149660861Y-112555375D01*
X149551204Y-112391262D01*
X149411638Y-112251696D01*
X149247525Y-112142039D01*
X149065173Y-112066507D01*
X148871588Y-112028000D01*
X148674212Y-112028000D01*
X148480627Y-112066507D01*
X148298275Y-112142039D01*
X148134162Y-112251696D01*
X147994596Y-112391262D01*
X147884939Y-112555375D01*
X147809407Y-112737727D01*
X147772900Y-112921257D01*
X147736393Y-112737727D01*
X147660861Y-112555375D01*
X147551204Y-112391262D01*
X147411638Y-112251696D01*
X147247525Y-112142039D01*
X147065173Y-112066507D01*
X146871588Y-112028000D01*
X146674212Y-112028000D01*
X146480627Y-112066507D01*
X146298275Y-112142039D01*
X146134162Y-112251696D01*
X145994596Y-112391262D01*
X145884939Y-112555375D01*
X145809407Y-112737727D01*
X145772900Y-112921257D01*
X145736393Y-112737727D01*
X145660861Y-112555375D01*
X145551204Y-112391262D01*
X145411638Y-112251696D01*
X145247525Y-112142039D01*
X145065173Y-112066507D01*
X144871588Y-112028000D01*
X144674212Y-112028000D01*
X144480627Y-112066507D01*
X144298275Y-112142039D01*
X144134162Y-112251696D01*
X143994596Y-112391262D01*
X143884939Y-112555375D01*
X143809407Y-112737727D01*
X143772900Y-112921257D01*
X143736393Y-112737727D01*
X143660861Y-112555375D01*
X143551204Y-112391262D01*
X143411638Y-112251696D01*
X143247525Y-112142039D01*
X143065173Y-112066507D01*
X143027666Y-112059046D01*
X143087023Y-111999689D01*
X143155640Y-111896996D01*
X143202905Y-111782889D01*
X143227000Y-111661754D01*
X143227000Y-111538246D01*
X143202905Y-111417111D01*
X143155640Y-111303004D01*
X143112371Y-111238246D01*
X143673000Y-111238246D01*
X143673000Y-111361754D01*
X143697095Y-111482889D01*
X143744360Y-111596996D01*
X143812977Y-111699689D01*
X143900311Y-111787023D01*
X144003004Y-111855640D01*
X144117111Y-111902905D01*
X144238246Y-111927000D01*
X144361754Y-111927000D01*
X144482889Y-111902905D01*
X144596996Y-111855640D01*
X144699689Y-111787023D01*
X144787023Y-111699689D01*
X144855640Y-111596996D01*
X144902905Y-111482889D01*
X144927000Y-111361754D01*
X144927000Y-111238246D01*
X144917055Y-111188246D01*
X146123000Y-111188246D01*
X146123000Y-111311754D01*
X146147095Y-111432889D01*
X146194360Y-111546996D01*
X146262977Y-111649689D01*
X146350311Y-111737023D01*
X146453004Y-111805640D01*
X146567111Y-111852905D01*
X146688246Y-111877000D01*
X146811754Y-111877000D01*
X146932889Y-111852905D01*
X147046996Y-111805640D01*
X147149689Y-111737023D01*
X147237023Y-111649689D01*
X147305640Y-111546996D01*
X147352905Y-111432889D01*
X147377000Y-111311754D01*
X147377000Y-111188246D01*
X147352905Y-111067111D01*
X147305640Y-110953004D01*
X147237023Y-110850311D01*
X147149689Y-110762977D01*
X147046996Y-110694360D01*
X146932889Y-110647095D01*
X146811754Y-110623000D01*
X146688246Y-110623000D01*
X146567111Y-110647095D01*
X146453004Y-110694360D01*
X146350311Y-110762977D01*
X146262977Y-110850311D01*
X146194360Y-110953004D01*
X146147095Y-111067111D01*
X146123000Y-111188246D01*
X144917055Y-111188246D01*
X144902905Y-111117111D01*
X144855640Y-111003004D01*
X144787023Y-110900311D01*
X144699689Y-110812977D01*
X144596996Y-110744360D01*
X144482889Y-110697095D01*
X144361754Y-110673000D01*
X144238246Y-110673000D01*
X144117111Y-110697095D01*
X144003004Y-110744360D01*
X143900311Y-110812977D01*
X143812977Y-110900311D01*
X143744360Y-111003004D01*
X143697095Y-111117111D01*
X143673000Y-111238246D01*
X143112371Y-111238246D01*
X143087023Y-111200311D01*
X142999689Y-111112977D01*
X142896996Y-111044360D01*
X142782889Y-110997095D01*
X142661754Y-110973000D01*
X142538246Y-110973000D01*
X142417111Y-110997095D01*
X142303004Y-111044360D01*
X142200311Y-111112977D01*
X142112977Y-111200311D01*
X142044360Y-111303004D01*
X141997095Y-111417111D01*
X141973000Y-111538246D01*
X141973000Y-111661754D01*
X141997095Y-111782889D01*
X142044360Y-111896996D01*
X142112977Y-111999689D01*
X142200311Y-112087023D01*
X142290462Y-112147260D01*
X142134162Y-112251696D01*
X141994596Y-112391262D01*
X141884939Y-112555375D01*
X141809407Y-112737727D01*
X141772900Y-112921257D01*
X141736393Y-112737727D01*
X141660861Y-112555375D01*
X141551204Y-112391262D01*
X141411638Y-112251696D01*
X141247525Y-112142039D01*
X141065173Y-112066507D01*
X140871588Y-112028000D01*
X140674212Y-112028000D01*
X140480627Y-112066507D01*
X140298275Y-112142039D01*
X140134162Y-112251696D01*
X139994596Y-112391262D01*
X139884939Y-112555375D01*
X139809407Y-112737727D01*
X139770900Y-112931312D01*
X131720827Y-112931312D01*
X129828507Y-111039931D01*
X129620174Y-110786427D01*
X129475227Y-110516259D01*
X129385517Y-110223083D01*
X129381970Y-110188246D01*
X135373000Y-110188246D01*
X135373000Y-110311754D01*
X135397095Y-110432889D01*
X135444360Y-110546996D01*
X135512977Y-110649689D01*
X135600311Y-110737023D01*
X135703004Y-110805640D01*
X135817111Y-110852905D01*
X135938246Y-110877000D01*
X136061754Y-110877000D01*
X136182889Y-110852905D01*
X136296996Y-110805640D01*
X136399689Y-110737023D01*
X136487023Y-110649689D01*
X136555640Y-110546996D01*
X136602905Y-110432889D01*
X136627000Y-110311754D01*
X136627000Y-110188246D01*
X136602905Y-110067111D01*
X136555640Y-109953004D01*
X136487023Y-109850311D01*
X136399689Y-109762977D01*
X136296996Y-109694360D01*
X136182889Y-109647095D01*
X136061754Y-109623000D01*
X135938246Y-109623000D01*
X135817111Y-109647095D01*
X135703004Y-109694360D01*
X135600311Y-109762977D01*
X135512977Y-109850311D01*
X135444360Y-109953004D01*
X135397095Y-110067111D01*
X135373000Y-110188246D01*
X129381970Y-110188246D01*
X129352401Y-109897844D01*
X129352469Y-109448117D01*
X153937810Y-109448117D01*
X153937810Y-109571625D01*
X153961905Y-109692760D01*
X154009170Y-109806867D01*
X154077787Y-109909560D01*
X154165121Y-109996894D01*
X154267814Y-110065511D01*
X154381921Y-110112776D01*
X154503056Y-110136871D01*
X154626564Y-110136871D01*
X154747699Y-110112776D01*
X154861806Y-110065511D01*
X154866351Y-110062474D01*
X155574091Y-110062474D01*
X155574091Y-110185982D01*
X155598186Y-110307117D01*
X155645451Y-110421224D01*
X155714068Y-110523917D01*
X155801402Y-110611251D01*
X155904095Y-110679868D01*
X156018202Y-110727133D01*
X156139337Y-110751228D01*
X156262845Y-110751228D01*
X156383980Y-110727133D01*
X156498087Y-110679868D01*
X156600780Y-110611251D01*
X156688114Y-110523917D01*
X156756731Y-110421224D01*
X156803996Y-110307117D01*
X156828091Y-110185982D01*
X156828091Y-110062474D01*
X156803996Y-109941339D01*
X156756731Y-109827232D01*
X156688114Y-109724539D01*
X156600780Y-109637205D01*
X156498087Y-109568588D01*
X156383980Y-109521323D01*
X156262845Y-109497228D01*
X156139337Y-109497228D01*
X156018202Y-109521323D01*
X155904095Y-109568588D01*
X155801402Y-109637205D01*
X155714068Y-109724539D01*
X155645451Y-109827232D01*
X155598186Y-109941339D01*
X155574091Y-110062474D01*
X154866351Y-110062474D01*
X154964499Y-109996894D01*
X155051833Y-109909560D01*
X155120450Y-109806867D01*
X155167715Y-109692760D01*
X155191810Y-109571625D01*
X155191810Y-109448117D01*
X155167715Y-109326982D01*
X155120450Y-109212875D01*
X155051833Y-109110182D01*
X154964499Y-109022848D01*
X154861806Y-108954231D01*
X154747699Y-108906966D01*
X154626564Y-108882871D01*
X154503056Y-108882871D01*
X154381921Y-108906966D01*
X154267814Y-108954231D01*
X154165121Y-109022848D01*
X154077787Y-109110182D01*
X154009170Y-109212875D01*
X153961905Y-109326982D01*
X153937810Y-109448117D01*
X129352469Y-109448117D01*
X129352660Y-108200246D01*
X133623000Y-108200246D01*
X133623000Y-108323754D01*
X133647095Y-108444889D01*
X133694360Y-108558996D01*
X133762977Y-108661689D01*
X133850311Y-108749023D01*
X133953004Y-108817640D01*
X134067111Y-108864905D01*
X134188246Y-108889000D01*
X134311754Y-108889000D01*
X134432889Y-108864905D01*
X134546996Y-108817640D01*
X134649689Y-108749023D01*
X134737023Y-108661689D01*
X134805640Y-108558996D01*
X134852905Y-108444889D01*
X134877000Y-108323754D01*
X134877000Y-108200246D01*
X134852905Y-108079111D01*
X134805640Y-107965004D01*
X134787760Y-107938244D01*
X137373000Y-107938244D01*
X137373000Y-108061752D01*
X137397095Y-108182887D01*
X137444360Y-108296994D01*
X137512977Y-108399687D01*
X137600311Y-108487021D01*
X137703004Y-108555638D01*
X137817111Y-108602903D01*
X137938246Y-108626998D01*
X138061754Y-108626998D01*
X138182889Y-108602903D01*
X138296996Y-108555638D01*
X138399689Y-108487021D01*
X138487023Y-108399687D01*
X138528076Y-108338246D01*
X150273000Y-108338246D01*
X150273000Y-108461754D01*
X150297095Y-108582889D01*
X150344360Y-108696996D01*
X150412977Y-108799689D01*
X150500311Y-108887023D01*
X150603004Y-108955640D01*
X150717111Y-109002905D01*
X150838246Y-109027000D01*
X150961754Y-109027000D01*
X151082889Y-109002905D01*
X151196996Y-108955640D01*
X151299689Y-108887023D01*
X151387023Y-108799689D01*
X151455640Y-108696996D01*
X151502905Y-108582889D01*
X151527000Y-108461754D01*
X151527000Y-108438246D01*
X161373000Y-108438246D01*
X161373000Y-108561754D01*
X161397095Y-108682889D01*
X161444360Y-108796996D01*
X161512977Y-108899689D01*
X161600311Y-108987023D01*
X161703004Y-109055640D01*
X161817111Y-109102905D01*
X161938246Y-109127000D01*
X162061754Y-109127000D01*
X162182889Y-109102905D01*
X162296996Y-109055640D01*
X162399689Y-108987023D01*
X162487023Y-108899689D01*
X162555640Y-108796996D01*
X162602905Y-108682889D01*
X162627000Y-108561754D01*
X162627000Y-108438246D01*
X162602905Y-108317111D01*
X162555640Y-108203004D01*
X162487023Y-108100311D01*
X162399689Y-108012977D01*
X162296996Y-107944360D01*
X162182889Y-107897095D01*
X162061754Y-107873000D01*
X161938246Y-107873000D01*
X161817111Y-107897095D01*
X161703004Y-107944360D01*
X161600311Y-108012977D01*
X161512977Y-108100311D01*
X161444360Y-108203004D01*
X161397095Y-108317111D01*
X161373000Y-108438246D01*
X151527000Y-108438246D01*
X151527000Y-108338246D01*
X151502905Y-108217111D01*
X151455640Y-108103004D01*
X151387023Y-108000311D01*
X151299689Y-107912977D01*
X151196996Y-107844360D01*
X151082889Y-107797095D01*
X150961754Y-107773000D01*
X150838246Y-107773000D01*
X150717111Y-107797095D01*
X150603004Y-107844360D01*
X150500311Y-107912977D01*
X150412977Y-108000311D01*
X150344360Y-108103004D01*
X150297095Y-108217111D01*
X150273000Y-108338246D01*
X138528076Y-108338246D01*
X138555640Y-108296994D01*
X138602905Y-108182887D01*
X138627000Y-108061752D01*
X138627000Y-107938244D01*
X138602905Y-107817109D01*
X138555640Y-107703002D01*
X138487023Y-107600309D01*
X138424960Y-107538246D01*
X151473000Y-107538246D01*
X151473000Y-107661754D01*
X151497095Y-107782889D01*
X151544360Y-107896996D01*
X151612977Y-107999689D01*
X151700311Y-108087023D01*
X151803004Y-108155640D01*
X151917111Y-108202905D01*
X152038246Y-108227000D01*
X152161754Y-108227000D01*
X152282889Y-108202905D01*
X152396996Y-108155640D01*
X152499689Y-108087023D01*
X152587023Y-107999689D01*
X152655640Y-107896996D01*
X152702905Y-107782889D01*
X152727000Y-107661754D01*
X152727000Y-107555086D01*
X152744360Y-107596996D01*
X152812977Y-107699689D01*
X152900311Y-107787023D01*
X153003004Y-107855640D01*
X153117111Y-107902905D01*
X153238246Y-107927000D01*
X153361754Y-107927000D01*
X153482889Y-107902905D01*
X153596996Y-107855640D01*
X153699689Y-107787023D01*
X153787023Y-107699689D01*
X153855640Y-107596996D01*
X153902905Y-107482889D01*
X153927000Y-107361754D01*
X153927000Y-107238246D01*
X153902905Y-107117111D01*
X153855640Y-107003004D01*
X153787023Y-106900311D01*
X153724958Y-106838246D01*
X157573000Y-106838246D01*
X157573000Y-106961754D01*
X157597095Y-107082889D01*
X157644360Y-107196996D01*
X157712977Y-107299689D01*
X157800311Y-107387023D01*
X157903004Y-107455640D01*
X158017111Y-107502905D01*
X158138246Y-107527000D01*
X158261754Y-107527000D01*
X158382889Y-107502905D01*
X158496996Y-107455640D01*
X158599689Y-107387023D01*
X158687023Y-107299689D01*
X158755640Y-107196996D01*
X158802905Y-107082889D01*
X158827000Y-106961754D01*
X158827000Y-106838246D01*
X158802905Y-106717111D01*
X158755640Y-106603004D01*
X158687023Y-106500311D01*
X158599689Y-106412977D01*
X158496996Y-106344360D01*
X158382889Y-106297095D01*
X158261754Y-106273000D01*
X158138246Y-106273000D01*
X158017111Y-106297095D01*
X157903004Y-106344360D01*
X157800311Y-106412977D01*
X157712977Y-106500311D01*
X157644360Y-106603004D01*
X157597095Y-106717111D01*
X157573000Y-106838246D01*
X153724958Y-106838246D01*
X153699689Y-106812977D01*
X153596996Y-106744360D01*
X153482889Y-106697095D01*
X153361754Y-106673000D01*
X153238246Y-106673000D01*
X153117111Y-106697095D01*
X153003004Y-106744360D01*
X152900311Y-106812977D01*
X152812977Y-106900311D01*
X152744360Y-107003004D01*
X152697095Y-107117111D01*
X152673000Y-107238246D01*
X152673000Y-107344914D01*
X152655640Y-107303004D01*
X152587023Y-107200311D01*
X152499689Y-107112977D01*
X152396996Y-107044360D01*
X152282889Y-106997095D01*
X152161754Y-106973000D01*
X152038246Y-106973000D01*
X151917111Y-106997095D01*
X151803004Y-107044360D01*
X151700311Y-107112977D01*
X151612977Y-107200311D01*
X151544360Y-107303004D01*
X151497095Y-107417111D01*
X151473000Y-107538246D01*
X138424960Y-107538246D01*
X138399689Y-107512975D01*
X138296996Y-107444358D01*
X138182889Y-107397093D01*
X138061754Y-107372998D01*
X137938246Y-107372998D01*
X137817111Y-107397093D01*
X137703004Y-107444358D01*
X137600311Y-107512975D01*
X137512977Y-107600309D01*
X137444360Y-107703002D01*
X137397095Y-107817109D01*
X137373000Y-107938244D01*
X134787760Y-107938244D01*
X134737023Y-107862311D01*
X134649689Y-107774977D01*
X134546996Y-107706360D01*
X134432889Y-107659095D01*
X134311754Y-107635000D01*
X134188246Y-107635000D01*
X134067111Y-107659095D01*
X133953004Y-107706360D01*
X133850311Y-107774977D01*
X133762977Y-107862311D01*
X133694360Y-107965004D01*
X133647095Y-108079111D01*
X133623000Y-108200246D01*
X129352660Y-108200246D01*
X129353134Y-105094246D01*
X129675000Y-105094246D01*
X129675000Y-105217754D01*
X129699095Y-105338889D01*
X129746360Y-105452996D01*
X129814977Y-105555689D01*
X129902311Y-105643023D01*
X129933705Y-105664000D01*
X129902311Y-105684977D01*
X129814977Y-105772311D01*
X129746360Y-105875004D01*
X129699095Y-105989111D01*
X129675000Y-106110246D01*
X129675000Y-106233754D01*
X129699095Y-106354889D01*
X129746360Y-106468996D01*
X129814977Y-106571689D01*
X129902311Y-106659023D01*
X130005004Y-106727640D01*
X130119111Y-106774905D01*
X130240246Y-106799000D01*
X130363754Y-106799000D01*
X130484889Y-106774905D01*
X130598996Y-106727640D01*
X130701689Y-106659023D01*
X130789023Y-106571689D01*
X130810000Y-106540295D01*
X130830977Y-106571689D01*
X130918311Y-106659023D01*
X131021004Y-106727640D01*
X131135111Y-106774905D01*
X131256246Y-106799000D01*
X131379754Y-106799000D01*
X131500889Y-106774905D01*
X131614996Y-106727640D01*
X131717689Y-106659023D01*
X131738466Y-106638246D01*
X147873000Y-106638246D01*
X147873000Y-106761754D01*
X147897095Y-106882889D01*
X147944360Y-106996996D01*
X148012977Y-107099689D01*
X148100311Y-107187023D01*
X148203004Y-107255640D01*
X148317111Y-107302905D01*
X148438246Y-107327000D01*
X148561754Y-107327000D01*
X148682889Y-107302905D01*
X148796996Y-107255640D01*
X148899689Y-107187023D01*
X148987023Y-107099689D01*
X149055640Y-106996996D01*
X149102905Y-106882889D01*
X149127000Y-106761754D01*
X149127000Y-106638246D01*
X149102905Y-106517111D01*
X149055640Y-106403004D01*
X148987023Y-106300311D01*
X148899689Y-106212977D01*
X148796996Y-106144360D01*
X148682889Y-106097095D01*
X148561754Y-106073000D01*
X148438246Y-106073000D01*
X148317111Y-106097095D01*
X148203004Y-106144360D01*
X148100311Y-106212977D01*
X148012977Y-106300311D01*
X147944360Y-106403004D01*
X147897095Y-106517111D01*
X147873000Y-106638246D01*
X131738466Y-106638246D01*
X131805023Y-106571689D01*
X131873640Y-106468996D01*
X131920905Y-106354889D01*
X131945000Y-106233754D01*
X131945000Y-106110246D01*
X131920905Y-105989111D01*
X131873640Y-105875004D01*
X131805023Y-105772311D01*
X131717689Y-105684977D01*
X131686295Y-105664000D01*
X131717689Y-105643023D01*
X131805023Y-105555689D01*
X131873640Y-105452996D01*
X131917029Y-105348246D01*
X159139000Y-105348246D01*
X159139000Y-105471754D01*
X159163095Y-105592889D01*
X159210360Y-105706996D01*
X159278977Y-105809689D01*
X159366311Y-105897023D01*
X159469004Y-105965640D01*
X159583111Y-106012905D01*
X159704246Y-106037000D01*
X159827754Y-106037000D01*
X159948889Y-106012905D01*
X160062996Y-105965640D01*
X160165689Y-105897023D01*
X160253023Y-105809689D01*
X160321640Y-105706996D01*
X160368905Y-105592889D01*
X160393000Y-105471754D01*
X160393000Y-105348246D01*
X160386736Y-105316754D01*
X160438246Y-105327000D01*
X160561754Y-105327000D01*
X160682889Y-105302905D01*
X160796996Y-105255640D01*
X160899689Y-105187023D01*
X160987023Y-105099689D01*
X161055640Y-104996996D01*
X161102905Y-104882889D01*
X161110084Y-104846796D01*
X161144311Y-104881023D01*
X161247004Y-104949640D01*
X161361111Y-104996905D01*
X161482246Y-105021000D01*
X161605754Y-105021000D01*
X161726889Y-104996905D01*
X161840996Y-104949640D01*
X161943689Y-104881023D01*
X162031023Y-104793689D01*
X162099640Y-104690996D01*
X162146905Y-104576889D01*
X162171000Y-104455754D01*
X162171000Y-104332246D01*
X162146905Y-104211111D01*
X162099640Y-104097004D01*
X162031023Y-103994311D01*
X161943689Y-103906977D01*
X161840996Y-103838360D01*
X161726889Y-103791095D01*
X161605754Y-103767000D01*
X161482246Y-103767000D01*
X161361111Y-103791095D01*
X161247004Y-103838360D01*
X161144311Y-103906977D01*
X161056977Y-103994311D01*
X160988360Y-104097004D01*
X160941095Y-104211111D01*
X160933916Y-104247204D01*
X160899689Y-104212977D01*
X160796996Y-104144360D01*
X160682889Y-104097095D01*
X160561754Y-104073000D01*
X160438246Y-104073000D01*
X160317111Y-104097095D01*
X160203004Y-104144360D01*
X160100311Y-104212977D01*
X160012977Y-104300311D01*
X159944360Y-104403004D01*
X159897095Y-104517111D01*
X159873000Y-104638246D01*
X159873000Y-104761754D01*
X159879264Y-104793246D01*
X159827754Y-104783000D01*
X159704246Y-104783000D01*
X159583111Y-104807095D01*
X159469004Y-104854360D01*
X159366311Y-104922977D01*
X159278977Y-105010311D01*
X159210360Y-105113004D01*
X159163095Y-105227111D01*
X159139000Y-105348246D01*
X131917029Y-105348246D01*
X131920905Y-105338889D01*
X131945000Y-105217754D01*
X131945000Y-105094246D01*
X131920905Y-104973111D01*
X131873640Y-104859004D01*
X131805023Y-104756311D01*
X131717689Y-104668977D01*
X131614996Y-104600360D01*
X131500889Y-104553095D01*
X131379754Y-104529000D01*
X131256246Y-104529000D01*
X131135111Y-104553095D01*
X131021004Y-104600360D01*
X130918311Y-104668977D01*
X130830977Y-104756311D01*
X130810000Y-104787705D01*
X130789023Y-104756311D01*
X130701689Y-104668977D01*
X130598996Y-104600360D01*
X130484889Y-104553095D01*
X130363754Y-104529000D01*
X130240246Y-104529000D01*
X130119111Y-104553095D01*
X130005004Y-104600360D01*
X129902311Y-104668977D01*
X129814977Y-104756311D01*
X129746360Y-104859004D01*
X129699095Y-104973111D01*
X129675000Y-105094246D01*
X129353134Y-105094246D01*
X129353244Y-104372804D01*
X135016264Y-104372804D01*
X135016264Y-104496312D01*
X135040359Y-104617447D01*
X135087624Y-104731554D01*
X135156241Y-104834247D01*
X135243575Y-104921581D01*
X135346268Y-104990198D01*
X135460375Y-105037463D01*
X135581510Y-105061558D01*
X135705018Y-105061558D01*
X135826153Y-105037463D01*
X135940260Y-104990198D01*
X136042953Y-104921581D01*
X136130287Y-104834247D01*
X136161182Y-104788009D01*
X136164977Y-104793689D01*
X136252311Y-104881023D01*
X136355004Y-104949640D01*
X136469111Y-104996905D01*
X136590246Y-105021000D01*
X136713754Y-105021000D01*
X136834889Y-104996905D01*
X136948996Y-104949640D01*
X137051689Y-104881023D01*
X137139023Y-104793689D01*
X137207640Y-104690996D01*
X137254905Y-104576889D01*
X137279000Y-104455754D01*
X137279000Y-104438246D01*
X137473000Y-104438246D01*
X137473000Y-104561754D01*
X137497095Y-104682889D01*
X137544360Y-104796996D01*
X137612977Y-104899689D01*
X137700311Y-104987023D01*
X137803004Y-105055640D01*
X137917111Y-105102905D01*
X138038246Y-105127000D01*
X138161754Y-105127000D01*
X138282889Y-105102905D01*
X138396996Y-105055640D01*
X138499689Y-104987023D01*
X138587023Y-104899689D01*
X138655640Y-104796996D01*
X138702905Y-104682889D01*
X138727000Y-104561754D01*
X138727000Y-104438246D01*
X138705916Y-104332246D01*
X138819000Y-104332246D01*
X138819000Y-104455754D01*
X138843095Y-104576889D01*
X138890360Y-104690996D01*
X138958977Y-104793689D01*
X139046311Y-104881023D01*
X139149004Y-104949640D01*
X139263111Y-104996905D01*
X139384246Y-105021000D01*
X139507754Y-105021000D01*
X139628889Y-104996905D01*
X139742996Y-104949640D01*
X139845689Y-104881023D01*
X139933023Y-104793689D01*
X140001640Y-104690996D01*
X140045029Y-104586246D01*
X143137000Y-104586246D01*
X143137000Y-104709754D01*
X143161095Y-104830889D01*
X143208360Y-104944996D01*
X143276977Y-105047689D01*
X143364311Y-105135023D01*
X143467004Y-105203640D01*
X143581111Y-105250905D01*
X143702246Y-105275000D01*
X143825754Y-105275000D01*
X143946889Y-105250905D01*
X144060996Y-105203640D01*
X144163689Y-105135023D01*
X144251023Y-105047689D01*
X144319640Y-104944996D01*
X144366905Y-104830889D01*
X144391000Y-104709754D01*
X144391000Y-104586246D01*
X144366905Y-104465111D01*
X144319640Y-104351004D01*
X144307107Y-104332246D01*
X149741000Y-104332246D01*
X149741000Y-104455754D01*
X149765095Y-104576889D01*
X149812360Y-104690996D01*
X149880977Y-104793689D01*
X149968311Y-104881023D01*
X150071004Y-104949640D01*
X150185111Y-104996905D01*
X150306246Y-105021000D01*
X150429754Y-105021000D01*
X150550889Y-104996905D01*
X150664996Y-104949640D01*
X150767689Y-104881023D01*
X150855023Y-104793689D01*
X150923640Y-104690996D01*
X150970905Y-104576889D01*
X150995000Y-104455754D01*
X150995000Y-104332246D01*
X152789000Y-104332246D01*
X152789000Y-104455754D01*
X152813095Y-104576889D01*
X152860360Y-104690996D01*
X152928977Y-104793689D01*
X153016311Y-104881023D01*
X153119004Y-104949640D01*
X153233111Y-104996905D01*
X153354246Y-105021000D01*
X153477754Y-105021000D01*
X153598889Y-104996905D01*
X153712996Y-104949640D01*
X153815689Y-104881023D01*
X153903023Y-104793689D01*
X153971640Y-104690996D01*
X154018905Y-104576889D01*
X154043000Y-104455754D01*
X154043000Y-104332246D01*
X155583000Y-104332246D01*
X155583000Y-104455754D01*
X155607095Y-104576889D01*
X155654360Y-104690996D01*
X155722977Y-104793689D01*
X155810311Y-104881023D01*
X155913004Y-104949640D01*
X156027111Y-104996905D01*
X156148246Y-105021000D01*
X156271754Y-105021000D01*
X156392889Y-104996905D01*
X156506996Y-104949640D01*
X156609689Y-104881023D01*
X156697023Y-104793689D01*
X156765640Y-104690996D01*
X156812905Y-104576889D01*
X156837000Y-104455754D01*
X156837000Y-104332246D01*
X156812905Y-104211111D01*
X156765640Y-104097004D01*
X156697023Y-103994311D01*
X156609689Y-103906977D01*
X156506996Y-103838360D01*
X156392889Y-103791095D01*
X156271754Y-103767000D01*
X156148246Y-103767000D01*
X156027111Y-103791095D01*
X155913004Y-103838360D01*
X155810311Y-103906977D01*
X155722977Y-103994311D01*
X155654360Y-104097004D01*
X155607095Y-104211111D01*
X155583000Y-104332246D01*
X154043000Y-104332246D01*
X154018905Y-104211111D01*
X153971640Y-104097004D01*
X153903023Y-103994311D01*
X153815689Y-103906977D01*
X153712996Y-103838360D01*
X153598889Y-103791095D01*
X153477754Y-103767000D01*
X153354246Y-103767000D01*
X153233111Y-103791095D01*
X153119004Y-103838360D01*
X153016311Y-103906977D01*
X152928977Y-103994311D01*
X152860360Y-104097004D01*
X152813095Y-104211111D01*
X152789000Y-104332246D01*
X150995000Y-104332246D01*
X150970905Y-104211111D01*
X150923640Y-104097004D01*
X150855023Y-103994311D01*
X150767689Y-103906977D01*
X150664996Y-103838360D01*
X150550889Y-103791095D01*
X150429754Y-103767000D01*
X150306246Y-103767000D01*
X150185111Y-103791095D01*
X150071004Y-103838360D01*
X149968311Y-103906977D01*
X149880977Y-103994311D01*
X149812360Y-104097004D01*
X149765095Y-104211111D01*
X149741000Y-104332246D01*
X144307107Y-104332246D01*
X144251023Y-104248311D01*
X144163689Y-104160977D01*
X144060996Y-104092360D01*
X143946889Y-104045095D01*
X143825754Y-104021000D01*
X143702246Y-104021000D01*
X143581111Y-104045095D01*
X143467004Y-104092360D01*
X143364311Y-104160977D01*
X143276977Y-104248311D01*
X143208360Y-104351004D01*
X143161095Y-104465111D01*
X143137000Y-104586246D01*
X140045029Y-104586246D01*
X140048905Y-104576889D01*
X140073000Y-104455754D01*
X140073000Y-104332246D01*
X140048905Y-104211111D01*
X140001640Y-104097004D01*
X139933023Y-103994311D01*
X139845689Y-103906977D01*
X139742996Y-103838360D01*
X139628889Y-103791095D01*
X139507754Y-103767000D01*
X139384246Y-103767000D01*
X139263111Y-103791095D01*
X139149004Y-103838360D01*
X139046311Y-103906977D01*
X138958977Y-103994311D01*
X138890360Y-104097004D01*
X138843095Y-104211111D01*
X138819000Y-104332246D01*
X138705916Y-104332246D01*
X138702905Y-104317111D01*
X138655640Y-104203004D01*
X138587023Y-104100311D01*
X138499689Y-104012977D01*
X138396996Y-103944360D01*
X138282889Y-103897095D01*
X138161754Y-103873000D01*
X138038246Y-103873000D01*
X137917111Y-103897095D01*
X137803004Y-103944360D01*
X137700311Y-104012977D01*
X137612977Y-104100311D01*
X137544360Y-104203004D01*
X137497095Y-104317111D01*
X137473000Y-104438246D01*
X137279000Y-104438246D01*
X137279000Y-104332246D01*
X137254905Y-104211111D01*
X137207640Y-104097004D01*
X137139023Y-103994311D01*
X137051689Y-103906977D01*
X136948996Y-103838360D01*
X136834889Y-103791095D01*
X136713754Y-103767000D01*
X136590246Y-103767000D01*
X136469111Y-103791095D01*
X136355004Y-103838360D01*
X136252311Y-103906977D01*
X136164977Y-103994311D01*
X136134082Y-104040549D01*
X136130287Y-104034869D01*
X136042953Y-103947535D01*
X135940260Y-103878918D01*
X135826153Y-103831653D01*
X135705018Y-103807558D01*
X135581510Y-103807558D01*
X135460375Y-103831653D01*
X135346268Y-103878918D01*
X135243575Y-103947535D01*
X135156241Y-104034869D01*
X135087624Y-104137562D01*
X135040359Y-104251669D01*
X135016264Y-104372804D01*
X129353244Y-104372804D01*
X129353835Y-100503000D01*
X166196939Y-100503000D01*
X166195604Y-109890952D01*
G37*
X166195604Y-109890952D02*
X166163585Y-110216978D01*
X166074924Y-110510472D01*
X165930942Y-110781159D01*
X165723927Y-111034904D01*
X160501203Y-116257529D01*
X160248214Y-116465337D01*
X159978010Y-116610220D01*
X159684812Y-116699859D01*
X159359545Y-116732899D01*
X136192750Y-116729403D01*
X135866735Y-116697388D01*
X135573233Y-116608726D01*
X135302552Y-116464749D01*
X135049317Y-116258153D01*
X131720827Y-112931312D01*
X139770900Y-112931312D01*
X139770900Y-113128688D01*
X139809407Y-113322273D01*
X139884939Y-113504625D01*
X139994596Y-113668738D01*
X140134162Y-113808304D01*
X140298275Y-113917961D01*
X140480627Y-113993493D01*
X140664157Y-114030000D01*
X140480627Y-114066507D01*
X140298275Y-114142039D01*
X140134162Y-114251696D01*
X139994596Y-114391262D01*
X139884939Y-114555375D01*
X139809407Y-114737727D01*
X139770900Y-114931312D01*
X139770900Y-115128688D01*
X139809407Y-115322273D01*
X139884939Y-115504625D01*
X139994596Y-115668738D01*
X140134162Y-115808304D01*
X140298275Y-115917961D01*
X140480627Y-115993493D01*
X140674212Y-116032000D01*
X140871588Y-116032000D01*
X141065173Y-115993493D01*
X141247525Y-115917961D01*
X141411638Y-115808304D01*
X141551204Y-115668738D01*
X141660861Y-115504625D01*
X141736393Y-115322273D01*
X141772900Y-115138743D01*
X141809407Y-115322273D01*
X141884939Y-115504625D01*
X141994596Y-115668738D01*
X142134162Y-115808304D01*
X142298275Y-115917961D01*
X142480627Y-115993493D01*
X142674212Y-116032000D01*
X142871588Y-116032000D01*
X143065173Y-115993493D01*
X143247525Y-115917961D01*
X143411638Y-115808304D01*
X143551204Y-115668738D01*
X143660861Y-115504625D01*
X143736393Y-115322273D01*
X143772900Y-115138743D01*
X143809407Y-115322273D01*
X143884939Y-115504625D01*
X143994596Y-115668738D01*
X144134162Y-115808304D01*
X144298275Y-115917961D01*
X144480627Y-115993493D01*
X144674212Y-116032000D01*
X144871588Y-116032000D01*
X145065173Y-115993493D01*
X145247525Y-115917961D01*
X145411638Y-115808304D01*
X145551204Y-115668738D01*
X145660861Y-115504625D01*
X145736393Y-115322273D01*
X145772900Y-115138743D01*
X145809407Y-115322273D01*
X145884939Y-115504625D01*
X145994596Y-115668738D01*
X146134162Y-115808304D01*
X146298275Y-115917961D01*
X146480627Y-115993493D01*
X146674212Y-116032000D01*
X146871588Y-116032000D01*
X147065173Y-115993493D01*
X147247525Y-115917961D01*
X147411638Y-115808304D01*
X147551204Y-115668738D01*
X147660861Y-115504625D01*
X147736393Y-115322273D01*
X147772900Y-115138743D01*
X147809407Y-115322273D01*
X147884939Y-115504625D01*
X147994596Y-115668738D01*
X148134162Y-115808304D01*
X148298275Y-115917961D01*
X148480627Y-115993493D01*
X148674212Y-116032000D01*
X148871588Y-116032000D01*
X149065173Y-115993493D01*
X149247525Y-115917961D01*
X149411638Y-115808304D01*
X149551204Y-115668738D01*
X149660861Y-115504625D01*
X149736393Y-115322273D01*
X149772900Y-115138743D01*
X149809407Y-115322273D01*
X149884939Y-115504625D01*
X149994596Y-115668738D01*
X150134162Y-115808304D01*
X150298275Y-115917961D01*
X150480627Y-115993493D01*
X150674212Y-116032000D01*
X150871588Y-116032000D01*
X151065173Y-115993493D01*
X151247525Y-115917961D01*
X151411638Y-115808304D01*
X151551204Y-115668738D01*
X151660861Y-115504625D01*
X151736393Y-115322273D01*
X151772900Y-115138743D01*
X151809407Y-115322273D01*
X151884939Y-115504625D01*
X151994596Y-115668738D01*
X152134162Y-115808304D01*
X152298275Y-115917961D01*
X152480627Y-115993493D01*
X152674212Y-116032000D01*
X152871588Y-116032000D01*
X153065173Y-115993493D01*
X153247525Y-115917961D01*
X153411638Y-115808304D01*
X153551204Y-115668738D01*
X153660861Y-115504625D01*
X153736393Y-115322273D01*
X153772900Y-115138743D01*
X153809407Y-115322273D01*
X153884939Y-115504625D01*
X153994596Y-115668738D01*
X154134162Y-115808304D01*
X154298275Y-115917961D01*
X154480627Y-115993493D01*
X154674212Y-116032000D01*
X154871588Y-116032000D01*
X155065173Y-115993493D01*
X155247525Y-115917961D01*
X155411638Y-115808304D01*
X155551204Y-115668738D01*
X155660861Y-115504625D01*
X155736393Y-115322273D01*
X155774900Y-115128688D01*
X155774900Y-114931312D01*
X155736393Y-114737727D01*
X155660861Y-114555375D01*
X155551204Y-114391262D01*
X155411638Y-114251696D01*
X155247525Y-114142039D01*
X155065173Y-114066507D01*
X154899650Y-114033582D01*
X155447900Y-114033582D01*
X155512003Y-114027268D01*
X155573643Y-114008570D01*
X155630450Y-113978206D01*
X155680243Y-113937343D01*
X155721106Y-113887550D01*
X155751470Y-113830743D01*
X155770168Y-113769103D01*
X155776482Y-113705000D01*
X155776482Y-112355000D01*
X155770168Y-112290897D01*
X155751470Y-112229257D01*
X155721106Y-112172450D01*
X155680243Y-112122657D01*
X155630450Y-112081794D01*
X155573643Y-112051430D01*
X155512003Y-112032732D01*
X155447900Y-112026418D01*
X154097900Y-112026418D01*
X154033797Y-112032732D01*
X153972157Y-112051430D01*
X153915350Y-112081794D01*
X153865557Y-112122657D01*
X153824694Y-112172450D01*
X153799311Y-112219938D01*
X153644127Y-112051697D01*
X153436529Y-111900527D01*
X153203428Y-111792762D01*
X153102300Y-111762090D01*
X152899900Y-111885776D01*
X152899900Y-112903000D01*
X152919900Y-112903000D01*
X152919900Y-113157000D01*
X152899900Y-113157000D01*
X152899900Y-113177000D01*
X152645900Y-113177000D01*
X152645900Y-113157000D01*
X152625900Y-113157000D01*
X152625900Y-112903000D01*
X152645900Y-112903000D01*
X152645900Y-111885776D01*
X152443500Y-111762090D01*
X152342372Y-111792762D01*
X152109271Y-111900527D01*
X151901673Y-112051697D01*
X151727556Y-112240463D01*
X151595157Y-112457042D01*
X151551204Y-112391262D01*
X151411638Y-112251696D01*
X151247525Y-112142039D01*
X151065173Y-112066507D01*
X150871588Y-112028000D01*
X150674212Y-112028000D01*
X150480627Y-112066507D01*
X150298275Y-112142039D01*
X150134162Y-112251696D01*
X149994596Y-112391262D01*
X149884939Y-112555375D01*
X149809407Y-112737727D01*
X149772900Y-112921257D01*
X149736393Y-112737727D01*
X149660861Y-112555375D01*
X149551204Y-112391262D01*
X149411638Y-112251696D01*
X149247525Y-112142039D01*
X149065173Y-112066507D01*
X148871588Y-112028000D01*
X148674212Y-112028000D01*
X148480627Y-112066507D01*
X148298275Y-112142039D01*
X148134162Y-112251696D01*
X147994596Y-112391262D01*
X147884939Y-112555375D01*
X147809407Y-112737727D01*
X147772900Y-112921257D01*
X147736393Y-112737727D01*
X147660861Y-112555375D01*
X147551204Y-112391262D01*
X147411638Y-112251696D01*
X147247525Y-112142039D01*
X147065173Y-112066507D01*
X146871588Y-112028000D01*
X146674212Y-112028000D01*
X146480627Y-112066507D01*
X146298275Y-112142039D01*
X146134162Y-112251696D01*
X145994596Y-112391262D01*
X145884939Y-112555375D01*
X145809407Y-112737727D01*
X145772900Y-112921257D01*
X145736393Y-112737727D01*
X145660861Y-112555375D01*
X145551204Y-112391262D01*
X145411638Y-112251696D01*
X145247525Y-112142039D01*
X145065173Y-112066507D01*
X144871588Y-112028000D01*
X144674212Y-112028000D01*
X144480627Y-112066507D01*
X144298275Y-112142039D01*
X144134162Y-112251696D01*
X143994596Y-112391262D01*
X143884939Y-112555375D01*
X143809407Y-112737727D01*
X143772900Y-112921257D01*
X143736393Y-112737727D01*
X143660861Y-112555375D01*
X143551204Y-112391262D01*
X143411638Y-112251696D01*
X143247525Y-112142039D01*
X143065173Y-112066507D01*
X143027666Y-112059046D01*
X143087023Y-111999689D01*
X143155640Y-111896996D01*
X143202905Y-111782889D01*
X143227000Y-111661754D01*
X143227000Y-111538246D01*
X143202905Y-111417111D01*
X143155640Y-111303004D01*
X143112371Y-111238246D01*
X143673000Y-111238246D01*
X143673000Y-111361754D01*
X143697095Y-111482889D01*
X143744360Y-111596996D01*
X143812977Y-111699689D01*
X143900311Y-111787023D01*
X144003004Y-111855640D01*
X144117111Y-111902905D01*
X144238246Y-111927000D01*
X144361754Y-111927000D01*
X144482889Y-111902905D01*
X144596996Y-111855640D01*
X144699689Y-111787023D01*
X144787023Y-111699689D01*
X144855640Y-111596996D01*
X144902905Y-111482889D01*
X144927000Y-111361754D01*
X144927000Y-111238246D01*
X144917055Y-111188246D01*
X146123000Y-111188246D01*
X146123000Y-111311754D01*
X146147095Y-111432889D01*
X146194360Y-111546996D01*
X146262977Y-111649689D01*
X146350311Y-111737023D01*
X146453004Y-111805640D01*
X146567111Y-111852905D01*
X146688246Y-111877000D01*
X146811754Y-111877000D01*
X146932889Y-111852905D01*
X147046996Y-111805640D01*
X147149689Y-111737023D01*
X147237023Y-111649689D01*
X147305640Y-111546996D01*
X147352905Y-111432889D01*
X147377000Y-111311754D01*
X147377000Y-111188246D01*
X147352905Y-111067111D01*
X147305640Y-110953004D01*
X147237023Y-110850311D01*
X147149689Y-110762977D01*
X147046996Y-110694360D01*
X146932889Y-110647095D01*
X146811754Y-110623000D01*
X146688246Y-110623000D01*
X146567111Y-110647095D01*
X146453004Y-110694360D01*
X146350311Y-110762977D01*
X146262977Y-110850311D01*
X146194360Y-110953004D01*
X146147095Y-111067111D01*
X146123000Y-111188246D01*
X144917055Y-111188246D01*
X144902905Y-111117111D01*
X144855640Y-111003004D01*
X144787023Y-110900311D01*
X144699689Y-110812977D01*
X144596996Y-110744360D01*
X144482889Y-110697095D01*
X144361754Y-110673000D01*
X144238246Y-110673000D01*
X144117111Y-110697095D01*
X144003004Y-110744360D01*
X143900311Y-110812977D01*
X143812977Y-110900311D01*
X143744360Y-111003004D01*
X143697095Y-111117111D01*
X143673000Y-111238246D01*
X143112371Y-111238246D01*
X143087023Y-111200311D01*
X142999689Y-111112977D01*
X142896996Y-111044360D01*
X142782889Y-110997095D01*
X142661754Y-110973000D01*
X142538246Y-110973000D01*
X142417111Y-110997095D01*
X142303004Y-111044360D01*
X142200311Y-111112977D01*
X142112977Y-111200311D01*
X142044360Y-111303004D01*
X141997095Y-111417111D01*
X141973000Y-111538246D01*
X141973000Y-111661754D01*
X141997095Y-111782889D01*
X142044360Y-111896996D01*
X142112977Y-111999689D01*
X142200311Y-112087023D01*
X142290462Y-112147260D01*
X142134162Y-112251696D01*
X141994596Y-112391262D01*
X141884939Y-112555375D01*
X141809407Y-112737727D01*
X141772900Y-112921257D01*
X141736393Y-112737727D01*
X141660861Y-112555375D01*
X141551204Y-112391262D01*
X141411638Y-112251696D01*
X141247525Y-112142039D01*
X141065173Y-112066507D01*
X140871588Y-112028000D01*
X140674212Y-112028000D01*
X140480627Y-112066507D01*
X140298275Y-112142039D01*
X140134162Y-112251696D01*
X139994596Y-112391262D01*
X139884939Y-112555375D01*
X139809407Y-112737727D01*
X139770900Y-112931312D01*
X131720827Y-112931312D01*
X129828507Y-111039931D01*
X129620174Y-110786427D01*
X129475227Y-110516259D01*
X129385517Y-110223083D01*
X129381970Y-110188246D01*
X135373000Y-110188246D01*
X135373000Y-110311754D01*
X135397095Y-110432889D01*
X135444360Y-110546996D01*
X135512977Y-110649689D01*
X135600311Y-110737023D01*
X135703004Y-110805640D01*
X135817111Y-110852905D01*
X135938246Y-110877000D01*
X136061754Y-110877000D01*
X136182889Y-110852905D01*
X136296996Y-110805640D01*
X136399689Y-110737023D01*
X136487023Y-110649689D01*
X136555640Y-110546996D01*
X136602905Y-110432889D01*
X136627000Y-110311754D01*
X136627000Y-110188246D01*
X136602905Y-110067111D01*
X136555640Y-109953004D01*
X136487023Y-109850311D01*
X136399689Y-109762977D01*
X136296996Y-109694360D01*
X136182889Y-109647095D01*
X136061754Y-109623000D01*
X135938246Y-109623000D01*
X135817111Y-109647095D01*
X135703004Y-109694360D01*
X135600311Y-109762977D01*
X135512977Y-109850311D01*
X135444360Y-109953004D01*
X135397095Y-110067111D01*
X135373000Y-110188246D01*
X129381970Y-110188246D01*
X129352401Y-109897844D01*
X129352469Y-109448117D01*
X153937810Y-109448117D01*
X153937810Y-109571625D01*
X153961905Y-109692760D01*
X154009170Y-109806867D01*
X154077787Y-109909560D01*
X154165121Y-109996894D01*
X154267814Y-110065511D01*
X154381921Y-110112776D01*
X154503056Y-110136871D01*
X154626564Y-110136871D01*
X154747699Y-110112776D01*
X154861806Y-110065511D01*
X154866351Y-110062474D01*
X155574091Y-110062474D01*
X155574091Y-110185982D01*
X155598186Y-110307117D01*
X155645451Y-110421224D01*
X155714068Y-110523917D01*
X155801402Y-110611251D01*
X155904095Y-110679868D01*
X156018202Y-110727133D01*
X156139337Y-110751228D01*
X156262845Y-110751228D01*
X156383980Y-110727133D01*
X156498087Y-110679868D01*
X156600780Y-110611251D01*
X156688114Y-110523917D01*
X156756731Y-110421224D01*
X156803996Y-110307117D01*
X156828091Y-110185982D01*
X156828091Y-110062474D01*
X156803996Y-109941339D01*
X156756731Y-109827232D01*
X156688114Y-109724539D01*
X156600780Y-109637205D01*
X156498087Y-109568588D01*
X156383980Y-109521323D01*
X156262845Y-109497228D01*
X156139337Y-109497228D01*
X156018202Y-109521323D01*
X155904095Y-109568588D01*
X155801402Y-109637205D01*
X155714068Y-109724539D01*
X155645451Y-109827232D01*
X155598186Y-109941339D01*
X155574091Y-110062474D01*
X154866351Y-110062474D01*
X154964499Y-109996894D01*
X155051833Y-109909560D01*
X155120450Y-109806867D01*
X155167715Y-109692760D01*
X155191810Y-109571625D01*
X155191810Y-109448117D01*
X155167715Y-109326982D01*
X155120450Y-109212875D01*
X155051833Y-109110182D01*
X154964499Y-109022848D01*
X154861806Y-108954231D01*
X154747699Y-108906966D01*
X154626564Y-108882871D01*
X154503056Y-108882871D01*
X154381921Y-108906966D01*
X154267814Y-108954231D01*
X154165121Y-109022848D01*
X154077787Y-109110182D01*
X154009170Y-109212875D01*
X153961905Y-109326982D01*
X153937810Y-109448117D01*
X129352469Y-109448117D01*
X129352660Y-108200246D01*
X133623000Y-108200246D01*
X133623000Y-108323754D01*
X133647095Y-108444889D01*
X133694360Y-108558996D01*
X133762977Y-108661689D01*
X133850311Y-108749023D01*
X133953004Y-108817640D01*
X134067111Y-108864905D01*
X134188246Y-108889000D01*
X134311754Y-108889000D01*
X134432889Y-108864905D01*
X134546996Y-108817640D01*
X134649689Y-108749023D01*
X134737023Y-108661689D01*
X134805640Y-108558996D01*
X134852905Y-108444889D01*
X134877000Y-108323754D01*
X134877000Y-108200246D01*
X134852905Y-108079111D01*
X134805640Y-107965004D01*
X134787760Y-107938244D01*
X137373000Y-107938244D01*
X137373000Y-108061752D01*
X137397095Y-108182887D01*
X137444360Y-108296994D01*
X137512977Y-108399687D01*
X137600311Y-108487021D01*
X137703004Y-108555638D01*
X137817111Y-108602903D01*
X137938246Y-108626998D01*
X138061754Y-108626998D01*
X138182889Y-108602903D01*
X138296996Y-108555638D01*
X138399689Y-108487021D01*
X138487023Y-108399687D01*
X138528076Y-108338246D01*
X150273000Y-108338246D01*
X150273000Y-108461754D01*
X150297095Y-108582889D01*
X150344360Y-108696996D01*
X150412977Y-108799689D01*
X150500311Y-108887023D01*
X150603004Y-108955640D01*
X150717111Y-109002905D01*
X150838246Y-109027000D01*
X150961754Y-109027000D01*
X151082889Y-109002905D01*
X151196996Y-108955640D01*
X151299689Y-108887023D01*
X151387023Y-108799689D01*
X151455640Y-108696996D01*
X151502905Y-108582889D01*
X151527000Y-108461754D01*
X151527000Y-108438246D01*
X161373000Y-108438246D01*
X161373000Y-108561754D01*
X161397095Y-108682889D01*
X161444360Y-108796996D01*
X161512977Y-108899689D01*
X161600311Y-108987023D01*
X161703004Y-109055640D01*
X161817111Y-109102905D01*
X161938246Y-109127000D01*
X162061754Y-109127000D01*
X162182889Y-109102905D01*
X162296996Y-109055640D01*
X162399689Y-108987023D01*
X162487023Y-108899689D01*
X162555640Y-108796996D01*
X162602905Y-108682889D01*
X162627000Y-108561754D01*
X162627000Y-108438246D01*
X162602905Y-108317111D01*
X162555640Y-108203004D01*
X162487023Y-108100311D01*
X162399689Y-108012977D01*
X162296996Y-107944360D01*
X162182889Y-107897095D01*
X162061754Y-107873000D01*
X161938246Y-107873000D01*
X161817111Y-107897095D01*
X161703004Y-107944360D01*
X161600311Y-108012977D01*
X161512977Y-108100311D01*
X161444360Y-108203004D01*
X161397095Y-108317111D01*
X161373000Y-108438246D01*
X151527000Y-108438246D01*
X151527000Y-108338246D01*
X151502905Y-108217111D01*
X151455640Y-108103004D01*
X151387023Y-108000311D01*
X151299689Y-107912977D01*
X151196996Y-107844360D01*
X151082889Y-107797095D01*
X150961754Y-107773000D01*
X150838246Y-107773000D01*
X150717111Y-107797095D01*
X150603004Y-107844360D01*
X150500311Y-107912977D01*
X150412977Y-108000311D01*
X150344360Y-108103004D01*
X150297095Y-108217111D01*
X150273000Y-108338246D01*
X138528076Y-108338246D01*
X138555640Y-108296994D01*
X138602905Y-108182887D01*
X138627000Y-108061752D01*
X138627000Y-107938244D01*
X138602905Y-107817109D01*
X138555640Y-107703002D01*
X138487023Y-107600309D01*
X138424960Y-107538246D01*
X151473000Y-107538246D01*
X151473000Y-107661754D01*
X151497095Y-107782889D01*
X151544360Y-107896996D01*
X151612977Y-107999689D01*
X151700311Y-108087023D01*
X151803004Y-108155640D01*
X151917111Y-108202905D01*
X152038246Y-108227000D01*
X152161754Y-108227000D01*
X152282889Y-108202905D01*
X152396996Y-108155640D01*
X152499689Y-108087023D01*
X152587023Y-107999689D01*
X152655640Y-107896996D01*
X152702905Y-107782889D01*
X152727000Y-107661754D01*
X152727000Y-107555086D01*
X152744360Y-107596996D01*
X152812977Y-107699689D01*
X152900311Y-107787023D01*
X153003004Y-107855640D01*
X153117111Y-107902905D01*
X153238246Y-107927000D01*
X153361754Y-107927000D01*
X153482889Y-107902905D01*
X153596996Y-107855640D01*
X153699689Y-107787023D01*
X153787023Y-107699689D01*
X153855640Y-107596996D01*
X153902905Y-107482889D01*
X153927000Y-107361754D01*
X153927000Y-107238246D01*
X153902905Y-107117111D01*
X153855640Y-107003004D01*
X153787023Y-106900311D01*
X153724958Y-106838246D01*
X157573000Y-106838246D01*
X157573000Y-106961754D01*
X157597095Y-107082889D01*
X157644360Y-107196996D01*
X157712977Y-107299689D01*
X157800311Y-107387023D01*
X157903004Y-107455640D01*
X158017111Y-107502905D01*
X158138246Y-107527000D01*
X158261754Y-107527000D01*
X158382889Y-107502905D01*
X158496996Y-107455640D01*
X158599689Y-107387023D01*
X158687023Y-107299689D01*
X158755640Y-107196996D01*
X158802905Y-107082889D01*
X158827000Y-106961754D01*
X158827000Y-106838246D01*
X158802905Y-106717111D01*
X158755640Y-106603004D01*
X158687023Y-106500311D01*
X158599689Y-106412977D01*
X158496996Y-106344360D01*
X158382889Y-106297095D01*
X158261754Y-106273000D01*
X158138246Y-106273000D01*
X158017111Y-106297095D01*
X157903004Y-106344360D01*
X157800311Y-106412977D01*
X157712977Y-106500311D01*
X157644360Y-106603004D01*
X157597095Y-106717111D01*
X157573000Y-106838246D01*
X153724958Y-106838246D01*
X153699689Y-106812977D01*
X153596996Y-106744360D01*
X153482889Y-106697095D01*
X153361754Y-106673000D01*
X153238246Y-106673000D01*
X153117111Y-106697095D01*
X153003004Y-106744360D01*
X152900311Y-106812977D01*
X152812977Y-106900311D01*
X152744360Y-107003004D01*
X152697095Y-107117111D01*
X152673000Y-107238246D01*
X152673000Y-107344914D01*
X152655640Y-107303004D01*
X152587023Y-107200311D01*
X152499689Y-107112977D01*
X152396996Y-107044360D01*
X152282889Y-106997095D01*
X152161754Y-106973000D01*
X152038246Y-106973000D01*
X151917111Y-106997095D01*
X151803004Y-107044360D01*
X151700311Y-107112977D01*
X151612977Y-107200311D01*
X151544360Y-107303004D01*
X151497095Y-107417111D01*
X151473000Y-107538246D01*
X138424960Y-107538246D01*
X138399689Y-107512975D01*
X138296996Y-107444358D01*
X138182889Y-107397093D01*
X138061754Y-107372998D01*
X137938246Y-107372998D01*
X137817111Y-107397093D01*
X137703004Y-107444358D01*
X137600311Y-107512975D01*
X137512977Y-107600309D01*
X137444360Y-107703002D01*
X137397095Y-107817109D01*
X137373000Y-107938244D01*
X134787760Y-107938244D01*
X134737023Y-107862311D01*
X134649689Y-107774977D01*
X134546996Y-107706360D01*
X134432889Y-107659095D01*
X134311754Y-107635000D01*
X134188246Y-107635000D01*
X134067111Y-107659095D01*
X133953004Y-107706360D01*
X133850311Y-107774977D01*
X133762977Y-107862311D01*
X133694360Y-107965004D01*
X133647095Y-108079111D01*
X133623000Y-108200246D01*
X129352660Y-108200246D01*
X129353134Y-105094246D01*
X129675000Y-105094246D01*
X129675000Y-105217754D01*
X129699095Y-105338889D01*
X129746360Y-105452996D01*
X129814977Y-105555689D01*
X129902311Y-105643023D01*
X129933705Y-105664000D01*
X129902311Y-105684977D01*
X129814977Y-105772311D01*
X129746360Y-105875004D01*
X129699095Y-105989111D01*
X129675000Y-106110246D01*
X129675000Y-106233754D01*
X129699095Y-106354889D01*
X129746360Y-106468996D01*
X129814977Y-106571689D01*
X129902311Y-106659023D01*
X130005004Y-106727640D01*
X130119111Y-106774905D01*
X130240246Y-106799000D01*
X130363754Y-106799000D01*
X130484889Y-106774905D01*
X130598996Y-106727640D01*
X130701689Y-106659023D01*
X130789023Y-106571689D01*
X130810000Y-106540295D01*
X130830977Y-106571689D01*
X130918311Y-106659023D01*
X131021004Y-106727640D01*
X131135111Y-106774905D01*
X131256246Y-106799000D01*
X131379754Y-106799000D01*
X131500889Y-106774905D01*
X131614996Y-106727640D01*
X131717689Y-106659023D01*
X131738466Y-106638246D01*
X147873000Y-106638246D01*
X147873000Y-106761754D01*
X147897095Y-106882889D01*
X147944360Y-106996996D01*
X148012977Y-107099689D01*
X148100311Y-107187023D01*
X148203004Y-107255640D01*
X148317111Y-107302905D01*
X148438246Y-107327000D01*
X148561754Y-107327000D01*
X148682889Y-107302905D01*
X148796996Y-107255640D01*
X148899689Y-107187023D01*
X148987023Y-107099689D01*
X149055640Y-106996996D01*
X149102905Y-106882889D01*
X149127000Y-106761754D01*
X149127000Y-106638246D01*
X149102905Y-106517111D01*
X149055640Y-106403004D01*
X148987023Y-106300311D01*
X148899689Y-106212977D01*
X148796996Y-106144360D01*
X148682889Y-106097095D01*
X148561754Y-106073000D01*
X148438246Y-106073000D01*
X148317111Y-106097095D01*
X148203004Y-106144360D01*
X148100311Y-106212977D01*
X148012977Y-106300311D01*
X147944360Y-106403004D01*
X147897095Y-106517111D01*
X147873000Y-106638246D01*
X131738466Y-106638246D01*
X131805023Y-106571689D01*
X131873640Y-106468996D01*
X131920905Y-106354889D01*
X131945000Y-106233754D01*
X131945000Y-106110246D01*
X131920905Y-105989111D01*
X131873640Y-105875004D01*
X131805023Y-105772311D01*
X131717689Y-105684977D01*
X131686295Y-105664000D01*
X131717689Y-105643023D01*
X131805023Y-105555689D01*
X131873640Y-105452996D01*
X131917029Y-105348246D01*
X159139000Y-105348246D01*
X159139000Y-105471754D01*
X159163095Y-105592889D01*
X159210360Y-105706996D01*
X159278977Y-105809689D01*
X159366311Y-105897023D01*
X159469004Y-105965640D01*
X159583111Y-106012905D01*
X159704246Y-106037000D01*
X159827754Y-106037000D01*
X159948889Y-106012905D01*
X160062996Y-105965640D01*
X160165689Y-105897023D01*
X160253023Y-105809689D01*
X160321640Y-105706996D01*
X160368905Y-105592889D01*
X160393000Y-105471754D01*
X160393000Y-105348246D01*
X160386736Y-105316754D01*
X160438246Y-105327000D01*
X160561754Y-105327000D01*
X160682889Y-105302905D01*
X160796996Y-105255640D01*
X160899689Y-105187023D01*
X160987023Y-105099689D01*
X161055640Y-104996996D01*
X161102905Y-104882889D01*
X161110084Y-104846796D01*
X161144311Y-104881023D01*
X161247004Y-104949640D01*
X161361111Y-104996905D01*
X161482246Y-105021000D01*
X161605754Y-105021000D01*
X161726889Y-104996905D01*
X161840996Y-104949640D01*
X161943689Y-104881023D01*
X162031023Y-104793689D01*
X162099640Y-104690996D01*
X162146905Y-104576889D01*
X162171000Y-104455754D01*
X162171000Y-104332246D01*
X162146905Y-104211111D01*
X162099640Y-104097004D01*
X162031023Y-103994311D01*
X161943689Y-103906977D01*
X161840996Y-103838360D01*
X161726889Y-103791095D01*
X161605754Y-103767000D01*
X161482246Y-103767000D01*
X161361111Y-103791095D01*
X161247004Y-103838360D01*
X161144311Y-103906977D01*
X161056977Y-103994311D01*
X160988360Y-104097004D01*
X160941095Y-104211111D01*
X160933916Y-104247204D01*
X160899689Y-104212977D01*
X160796996Y-104144360D01*
X160682889Y-104097095D01*
X160561754Y-104073000D01*
X160438246Y-104073000D01*
X160317111Y-104097095D01*
X160203004Y-104144360D01*
X160100311Y-104212977D01*
X160012977Y-104300311D01*
X159944360Y-104403004D01*
X159897095Y-104517111D01*
X159873000Y-104638246D01*
X159873000Y-104761754D01*
X159879264Y-104793246D01*
X159827754Y-104783000D01*
X159704246Y-104783000D01*
X159583111Y-104807095D01*
X159469004Y-104854360D01*
X159366311Y-104922977D01*
X159278977Y-105010311D01*
X159210360Y-105113004D01*
X159163095Y-105227111D01*
X159139000Y-105348246D01*
X131917029Y-105348246D01*
X131920905Y-105338889D01*
X131945000Y-105217754D01*
X131945000Y-105094246D01*
X131920905Y-104973111D01*
X131873640Y-104859004D01*
X131805023Y-104756311D01*
X131717689Y-104668977D01*
X131614996Y-104600360D01*
X131500889Y-104553095D01*
X131379754Y-104529000D01*
X131256246Y-104529000D01*
X131135111Y-104553095D01*
X131021004Y-104600360D01*
X130918311Y-104668977D01*
X130830977Y-104756311D01*
X130810000Y-104787705D01*
X130789023Y-104756311D01*
X130701689Y-104668977D01*
X130598996Y-104600360D01*
X130484889Y-104553095D01*
X130363754Y-104529000D01*
X130240246Y-104529000D01*
X130119111Y-104553095D01*
X130005004Y-104600360D01*
X129902311Y-104668977D01*
X129814977Y-104756311D01*
X129746360Y-104859004D01*
X129699095Y-104973111D01*
X129675000Y-105094246D01*
X129353134Y-105094246D01*
X129353244Y-104372804D01*
X135016264Y-104372804D01*
X135016264Y-104496312D01*
X135040359Y-104617447D01*
X135087624Y-104731554D01*
X135156241Y-104834247D01*
X135243575Y-104921581D01*
X135346268Y-104990198D01*
X135460375Y-105037463D01*
X135581510Y-105061558D01*
X135705018Y-105061558D01*
X135826153Y-105037463D01*
X135940260Y-104990198D01*
X136042953Y-104921581D01*
X136130287Y-104834247D01*
X136161182Y-104788009D01*
X136164977Y-104793689D01*
X136252311Y-104881023D01*
X136355004Y-104949640D01*
X136469111Y-104996905D01*
X136590246Y-105021000D01*
X136713754Y-105021000D01*
X136834889Y-104996905D01*
X136948996Y-104949640D01*
X137051689Y-104881023D01*
X137139023Y-104793689D01*
X137207640Y-104690996D01*
X137254905Y-104576889D01*
X137279000Y-104455754D01*
X137279000Y-104438246D01*
X137473000Y-104438246D01*
X137473000Y-104561754D01*
X137497095Y-104682889D01*
X137544360Y-104796996D01*
X137612977Y-104899689D01*
X137700311Y-104987023D01*
X137803004Y-105055640D01*
X137917111Y-105102905D01*
X138038246Y-105127000D01*
X138161754Y-105127000D01*
X138282889Y-105102905D01*
X138396996Y-105055640D01*
X138499689Y-104987023D01*
X138587023Y-104899689D01*
X138655640Y-104796996D01*
X138702905Y-104682889D01*
X138727000Y-104561754D01*
X138727000Y-104438246D01*
X138705916Y-104332246D01*
X138819000Y-104332246D01*
X138819000Y-104455754D01*
X138843095Y-104576889D01*
X138890360Y-104690996D01*
X138958977Y-104793689D01*
X139046311Y-104881023D01*
X139149004Y-104949640D01*
X139263111Y-104996905D01*
X139384246Y-105021000D01*
X139507754Y-105021000D01*
X139628889Y-104996905D01*
X139742996Y-104949640D01*
X139845689Y-104881023D01*
X139933023Y-104793689D01*
X140001640Y-104690996D01*
X140045029Y-104586246D01*
X143137000Y-104586246D01*
X143137000Y-104709754D01*
X143161095Y-104830889D01*
X143208360Y-104944996D01*
X143276977Y-105047689D01*
X143364311Y-105135023D01*
X143467004Y-105203640D01*
X143581111Y-105250905D01*
X143702246Y-105275000D01*
X143825754Y-105275000D01*
X143946889Y-105250905D01*
X144060996Y-105203640D01*
X144163689Y-105135023D01*
X144251023Y-105047689D01*
X144319640Y-104944996D01*
X144366905Y-104830889D01*
X144391000Y-104709754D01*
X144391000Y-104586246D01*
X144366905Y-104465111D01*
X144319640Y-104351004D01*
X144307107Y-104332246D01*
X149741000Y-104332246D01*
X149741000Y-104455754D01*
X149765095Y-104576889D01*
X149812360Y-104690996D01*
X149880977Y-104793689D01*
X149968311Y-104881023D01*
X150071004Y-104949640D01*
X150185111Y-104996905D01*
X150306246Y-105021000D01*
X150429754Y-105021000D01*
X150550889Y-104996905D01*
X150664996Y-104949640D01*
X150767689Y-104881023D01*
X150855023Y-104793689D01*
X150923640Y-104690996D01*
X150970905Y-104576889D01*
X150995000Y-104455754D01*
X150995000Y-104332246D01*
X152789000Y-104332246D01*
X152789000Y-104455754D01*
X152813095Y-104576889D01*
X152860360Y-104690996D01*
X152928977Y-104793689D01*
X153016311Y-104881023D01*
X153119004Y-104949640D01*
X153233111Y-104996905D01*
X153354246Y-105021000D01*
X153477754Y-105021000D01*
X153598889Y-104996905D01*
X153712996Y-104949640D01*
X153815689Y-104881023D01*
X153903023Y-104793689D01*
X153971640Y-104690996D01*
X154018905Y-104576889D01*
X154043000Y-104455754D01*
X154043000Y-104332246D01*
X155583000Y-104332246D01*
X155583000Y-104455754D01*
X155607095Y-104576889D01*
X155654360Y-104690996D01*
X155722977Y-104793689D01*
X155810311Y-104881023D01*
X155913004Y-104949640D01*
X156027111Y-104996905D01*
X156148246Y-105021000D01*
X156271754Y-105021000D01*
X156392889Y-104996905D01*
X156506996Y-104949640D01*
X156609689Y-104881023D01*
X156697023Y-104793689D01*
X156765640Y-104690996D01*
X156812905Y-104576889D01*
X156837000Y-104455754D01*
X156837000Y-104332246D01*
X156812905Y-104211111D01*
X156765640Y-104097004D01*
X156697023Y-103994311D01*
X156609689Y-103906977D01*
X156506996Y-103838360D01*
X156392889Y-103791095D01*
X156271754Y-103767000D01*
X156148246Y-103767000D01*
X156027111Y-103791095D01*
X155913004Y-103838360D01*
X155810311Y-103906977D01*
X155722977Y-103994311D01*
X155654360Y-104097004D01*
X155607095Y-104211111D01*
X155583000Y-104332246D01*
X154043000Y-104332246D01*
X154018905Y-104211111D01*
X153971640Y-104097004D01*
X153903023Y-103994311D01*
X153815689Y-103906977D01*
X153712996Y-103838360D01*
X153598889Y-103791095D01*
X153477754Y-103767000D01*
X153354246Y-103767000D01*
X153233111Y-103791095D01*
X153119004Y-103838360D01*
X153016311Y-103906977D01*
X152928977Y-103994311D01*
X152860360Y-104097004D01*
X152813095Y-104211111D01*
X152789000Y-104332246D01*
X150995000Y-104332246D01*
X150970905Y-104211111D01*
X150923640Y-104097004D01*
X150855023Y-103994311D01*
X150767689Y-103906977D01*
X150664996Y-103838360D01*
X150550889Y-103791095D01*
X150429754Y-103767000D01*
X150306246Y-103767000D01*
X150185111Y-103791095D01*
X150071004Y-103838360D01*
X149968311Y-103906977D01*
X149880977Y-103994311D01*
X149812360Y-104097004D01*
X149765095Y-104211111D01*
X149741000Y-104332246D01*
X144307107Y-104332246D01*
X144251023Y-104248311D01*
X144163689Y-104160977D01*
X144060996Y-104092360D01*
X143946889Y-104045095D01*
X143825754Y-104021000D01*
X143702246Y-104021000D01*
X143581111Y-104045095D01*
X143467004Y-104092360D01*
X143364311Y-104160977D01*
X143276977Y-104248311D01*
X143208360Y-104351004D01*
X143161095Y-104465111D01*
X143137000Y-104586246D01*
X140045029Y-104586246D01*
X140048905Y-104576889D01*
X140073000Y-104455754D01*
X140073000Y-104332246D01*
X140048905Y-104211111D01*
X140001640Y-104097004D01*
X139933023Y-103994311D01*
X139845689Y-103906977D01*
X139742996Y-103838360D01*
X139628889Y-103791095D01*
X139507754Y-103767000D01*
X139384246Y-103767000D01*
X139263111Y-103791095D01*
X139149004Y-103838360D01*
X139046311Y-103906977D01*
X138958977Y-103994311D01*
X138890360Y-104097004D01*
X138843095Y-104211111D01*
X138819000Y-104332246D01*
X138705916Y-104332246D01*
X138702905Y-104317111D01*
X138655640Y-104203004D01*
X138587023Y-104100311D01*
X138499689Y-104012977D01*
X138396996Y-103944360D01*
X138282889Y-103897095D01*
X138161754Y-103873000D01*
X138038246Y-103873000D01*
X137917111Y-103897095D01*
X137803004Y-103944360D01*
X137700311Y-104012977D01*
X137612977Y-104100311D01*
X137544360Y-104203004D01*
X137497095Y-104317111D01*
X137473000Y-104438246D01*
X137279000Y-104438246D01*
X137279000Y-104332246D01*
X137254905Y-104211111D01*
X137207640Y-104097004D01*
X137139023Y-103994311D01*
X137051689Y-103906977D01*
X136948996Y-103838360D01*
X136834889Y-103791095D01*
X136713754Y-103767000D01*
X136590246Y-103767000D01*
X136469111Y-103791095D01*
X136355004Y-103838360D01*
X136252311Y-103906977D01*
X136164977Y-103994311D01*
X136134082Y-104040549D01*
X136130287Y-104034869D01*
X136042953Y-103947535D01*
X135940260Y-103878918D01*
X135826153Y-103831653D01*
X135705018Y-103807558D01*
X135581510Y-103807558D01*
X135460375Y-103831653D01*
X135346268Y-103878918D01*
X135243575Y-103947535D01*
X135156241Y-104034869D01*
X135087624Y-104137562D01*
X135040359Y-104251669D01*
X135016264Y-104372804D01*
X129353244Y-104372804D01*
X129353835Y-100503000D01*
X166196939Y-100503000D01*
X166195604Y-109890952D01*
%TD*%
M02*
