%TF.GenerationSoftware,KiCad,Pcbnew,(5.1.6)-1*%
%TF.CreationDate,2021-02-17T18:40:24-08:00*%
%TF.ProjectId,kg-cable-asl,6b672d63-6162-46c6-952d-61736c2e6b69,rev?*%
%TF.SameCoordinates,Original*%
%TF.FileFunction,Copper,L3,Inr*%
%TF.FilePolarity,Positive*%
%FSLAX46Y46*%
G04 Gerber Fmt 4.6, Leading zero omitted, Abs format (unit mm)*
G04 Created by KiCad (PCBNEW (5.1.6)-1) date 2021-02-17 18:40:24*
%MOMM*%
%LPD*%
G01*
G04 APERTURE LIST*
%TA.AperFunction,ViaPad*%
%ADD10O,1.350000X1.350000*%
%TD*%
%TA.AperFunction,ViaPad*%
%ADD11R,1.350000X1.350000*%
%TD*%
%TA.AperFunction,ViaPad*%
%ADD12C,0.600000*%
%TD*%
%TA.AperFunction,Conductor*%
%ADD13C,0.254000*%
%TD*%
G04 APERTURE END LIST*
D10*
%TO.N,+12V*%
%TO.C,J1*%
X140772900Y-115030000D03*
%TO.N,/GPIO8*%
X140772900Y-113030000D03*
%TO.N,/GPIO7*%
X142772900Y-115030000D03*
%TO.N,/MIC*%
X142772900Y-113030000D03*
%TO.N,/GPIO6*%
X144772900Y-115030000D03*
%TO.N,/AUDIO_OUT*%
X144772900Y-113030000D03*
%TO.N,/GPIO5*%
X146772900Y-115030000D03*
%TO.N,/COR_DET*%
X146772900Y-113030000D03*
%TO.N,GND*%
X148772900Y-115030000D03*
%TO.N,/LEFT_OUT*%
X148772900Y-113030000D03*
%TO.N,/GPIO4*%
X150772900Y-115030000D03*
%TO.N,/CTCSS_DET*%
X150772900Y-113030000D03*
%TO.N,/GPIO1*%
X152772900Y-115030000D03*
%TO.N,+5V*%
X152772900Y-113030000D03*
%TO.N,/GPIO2*%
X154772900Y-115030000D03*
D11*
%TO.N,/PTT*%
X154772900Y-113030000D03*
%TD*%
D12*
%TO.N,GND*%
X130302000Y-105156000D03*
X130302000Y-106172000D03*
X131318000Y-106172000D03*
X131318000Y-105156000D03*
X148500000Y-106700000D03*
%TO.N,+5V*%
X153718961Y-110368794D03*
%TO.N,GND*%
X162000000Y-108500000D03*
X136000000Y-110250000D03*
X158200000Y-106900000D03*
X150900000Y-108400000D03*
X152100000Y-107600000D03*
%TO.N,+5V*%
X163068000Y-106934000D03*
X150622000Y-106680000D03*
X142752667Y-104652538D03*
X133197900Y-104648000D03*
X146050000Y-106045000D03*
X149700000Y-107700000D03*
X145500000Y-107500000D03*
X163200000Y-108400000D03*
X163200000Y-109400000D03*
X150900000Y-110900000D03*
%TO.N,/AIN_6DB*%
X135643264Y-104434558D03*
%TO.N,/RIGHT_OUT*%
X138100000Y-104500000D03*
X134250000Y-108262000D03*
X138000000Y-107999998D03*
%TO.N,/LEFT_OUT*%
X144300000Y-111300000D03*
%TO.N,/MIC_AC*%
X143764000Y-104648000D03*
%TO.N,/EEP_DO*%
X153300000Y-107300000D03*
%TO.N,/EEP_DI*%
X154564810Y-109509871D03*
%TO.N,/EEP_CK*%
X156201091Y-110124228D03*
%TO.N,/EEP_CS*%
X160500000Y-104700000D03*
%TO.N,/GPIO8*%
X136652000Y-104394000D03*
%TO.N,/GPIO7*%
X139446000Y-104394000D03*
%TO.N,/COR_DET*%
X146750000Y-111250000D03*
%TO.N,/GPIO6*%
X150368000Y-104394000D03*
%TO.N,/GPIO5*%
X153416000Y-104394000D03*
%TO.N,/GPIO4*%
X156210000Y-104394000D03*
%TO.N,/GPIO2*%
X159766000Y-105410000D03*
%TO.N,/GPIO1*%
X161544000Y-104394000D03*
%TO.N,/AUDIO_OUT*%
X142600000Y-111600000D03*
%TD*%
D13*
%TO.N,GND*%
G36*
X166195604Y-109890952D02*
G01*
X166163585Y-110216978D01*
X166074924Y-110510472D01*
X165930942Y-110781159D01*
X165723927Y-111034904D01*
X160501203Y-116257529D01*
X160248214Y-116465337D01*
X159978010Y-116610220D01*
X159684812Y-116699859D01*
X159359545Y-116732899D01*
X136192750Y-116729403D01*
X135866735Y-116697388D01*
X135573233Y-116608726D01*
X135302552Y-116464749D01*
X135049317Y-116258153D01*
X131720827Y-112931312D01*
X139770900Y-112931312D01*
X139770900Y-113128688D01*
X139809407Y-113322273D01*
X139884939Y-113504625D01*
X139994596Y-113668738D01*
X140134162Y-113808304D01*
X140298275Y-113917961D01*
X140480627Y-113993493D01*
X140664157Y-114030000D01*
X140480627Y-114066507D01*
X140298275Y-114142039D01*
X140134162Y-114251696D01*
X139994596Y-114391262D01*
X139884939Y-114555375D01*
X139809407Y-114737727D01*
X139770900Y-114931312D01*
X139770900Y-115128688D01*
X139809407Y-115322273D01*
X139884939Y-115504625D01*
X139994596Y-115668738D01*
X140134162Y-115808304D01*
X140298275Y-115917961D01*
X140480627Y-115993493D01*
X140674212Y-116032000D01*
X140871588Y-116032000D01*
X141065173Y-115993493D01*
X141247525Y-115917961D01*
X141411638Y-115808304D01*
X141551204Y-115668738D01*
X141660861Y-115504625D01*
X141736393Y-115322273D01*
X141772900Y-115138743D01*
X141809407Y-115322273D01*
X141884939Y-115504625D01*
X141994596Y-115668738D01*
X142134162Y-115808304D01*
X142298275Y-115917961D01*
X142480627Y-115993493D01*
X142674212Y-116032000D01*
X142871588Y-116032000D01*
X143065173Y-115993493D01*
X143247525Y-115917961D01*
X143411638Y-115808304D01*
X143551204Y-115668738D01*
X143660861Y-115504625D01*
X143736393Y-115322273D01*
X143772900Y-115138743D01*
X143809407Y-115322273D01*
X143884939Y-115504625D01*
X143994596Y-115668738D01*
X144134162Y-115808304D01*
X144298275Y-115917961D01*
X144480627Y-115993493D01*
X144674212Y-116032000D01*
X144871588Y-116032000D01*
X145065173Y-115993493D01*
X145247525Y-115917961D01*
X145411638Y-115808304D01*
X145551204Y-115668738D01*
X145660861Y-115504625D01*
X145736393Y-115322273D01*
X145772900Y-115138743D01*
X145809407Y-115322273D01*
X145884939Y-115504625D01*
X145994596Y-115668738D01*
X146134162Y-115808304D01*
X146298275Y-115917961D01*
X146480627Y-115993493D01*
X146674212Y-116032000D01*
X146871588Y-116032000D01*
X147065173Y-115993493D01*
X147247525Y-115917961D01*
X147411638Y-115808304D01*
X147551204Y-115668738D01*
X147595157Y-115602958D01*
X147727556Y-115819537D01*
X147901673Y-116008303D01*
X148109271Y-116159473D01*
X148342372Y-116267238D01*
X148443500Y-116297910D01*
X148645900Y-116174224D01*
X148645900Y-115157000D01*
X148625900Y-115157000D01*
X148625900Y-114903000D01*
X148645900Y-114903000D01*
X148645900Y-114883000D01*
X148899900Y-114883000D01*
X148899900Y-114903000D01*
X148919900Y-114903000D01*
X148919900Y-115157000D01*
X148899900Y-115157000D01*
X148899900Y-116174224D01*
X149102300Y-116297910D01*
X149203428Y-116267238D01*
X149436529Y-116159473D01*
X149644127Y-116008303D01*
X149818244Y-115819537D01*
X149950643Y-115602958D01*
X149994596Y-115668738D01*
X150134162Y-115808304D01*
X150298275Y-115917961D01*
X150480627Y-115993493D01*
X150674212Y-116032000D01*
X150871588Y-116032000D01*
X151065173Y-115993493D01*
X151247525Y-115917961D01*
X151411638Y-115808304D01*
X151551204Y-115668738D01*
X151660861Y-115504625D01*
X151736393Y-115322273D01*
X151772900Y-115138743D01*
X151809407Y-115322273D01*
X151884939Y-115504625D01*
X151994596Y-115668738D01*
X152134162Y-115808304D01*
X152298275Y-115917961D01*
X152480627Y-115993493D01*
X152674212Y-116032000D01*
X152871588Y-116032000D01*
X153065173Y-115993493D01*
X153247525Y-115917961D01*
X153411638Y-115808304D01*
X153551204Y-115668738D01*
X153660861Y-115504625D01*
X153736393Y-115322273D01*
X153772900Y-115138743D01*
X153809407Y-115322273D01*
X153884939Y-115504625D01*
X153994596Y-115668738D01*
X154134162Y-115808304D01*
X154298275Y-115917961D01*
X154480627Y-115993493D01*
X154674212Y-116032000D01*
X154871588Y-116032000D01*
X155065173Y-115993493D01*
X155247525Y-115917961D01*
X155411638Y-115808304D01*
X155551204Y-115668738D01*
X155660861Y-115504625D01*
X155736393Y-115322273D01*
X155774900Y-115128688D01*
X155774900Y-114931312D01*
X155736393Y-114737727D01*
X155660861Y-114555375D01*
X155551204Y-114391262D01*
X155411638Y-114251696D01*
X155247525Y-114142039D01*
X155065173Y-114066507D01*
X154899650Y-114033582D01*
X155447900Y-114033582D01*
X155512003Y-114027268D01*
X155573643Y-114008570D01*
X155630450Y-113978206D01*
X155680243Y-113937343D01*
X155721106Y-113887550D01*
X155751470Y-113830743D01*
X155770168Y-113769103D01*
X155776482Y-113705000D01*
X155776482Y-112355000D01*
X155770168Y-112290897D01*
X155751470Y-112229257D01*
X155721106Y-112172450D01*
X155680243Y-112122657D01*
X155630450Y-112081794D01*
X155573643Y-112051430D01*
X155512003Y-112032732D01*
X155447900Y-112026418D01*
X154097900Y-112026418D01*
X154033797Y-112032732D01*
X153972157Y-112051430D01*
X153915350Y-112081794D01*
X153865557Y-112122657D01*
X153824694Y-112172450D01*
X153794330Y-112229257D01*
X153775632Y-112290897D01*
X153769318Y-112355000D01*
X153769318Y-112903250D01*
X153736393Y-112737727D01*
X153660861Y-112555375D01*
X153551204Y-112391262D01*
X153411638Y-112251696D01*
X153247525Y-112142039D01*
X153065173Y-112066507D01*
X152871588Y-112028000D01*
X152674212Y-112028000D01*
X152480627Y-112066507D01*
X152298275Y-112142039D01*
X152134162Y-112251696D01*
X151994596Y-112391262D01*
X151884939Y-112555375D01*
X151809407Y-112737727D01*
X151772900Y-112921257D01*
X151736393Y-112737727D01*
X151660861Y-112555375D01*
X151551204Y-112391262D01*
X151411638Y-112251696D01*
X151247525Y-112142039D01*
X151065173Y-112066507D01*
X150871588Y-112028000D01*
X150674212Y-112028000D01*
X150480627Y-112066507D01*
X150298275Y-112142039D01*
X150134162Y-112251696D01*
X149994596Y-112391262D01*
X149884939Y-112555375D01*
X149809407Y-112737727D01*
X149772900Y-112921257D01*
X149736393Y-112737727D01*
X149660861Y-112555375D01*
X149551204Y-112391262D01*
X149411638Y-112251696D01*
X149247525Y-112142039D01*
X149065173Y-112066507D01*
X148871588Y-112028000D01*
X148674212Y-112028000D01*
X148480627Y-112066507D01*
X148298275Y-112142039D01*
X148134162Y-112251696D01*
X147994596Y-112391262D01*
X147884939Y-112555375D01*
X147809407Y-112737727D01*
X147772900Y-112921257D01*
X147736393Y-112737727D01*
X147660861Y-112555375D01*
X147551204Y-112391262D01*
X147411638Y-112251696D01*
X147247525Y-112142039D01*
X147065173Y-112066507D01*
X146871588Y-112028000D01*
X146674212Y-112028000D01*
X146480627Y-112066507D01*
X146298275Y-112142039D01*
X146134162Y-112251696D01*
X145994596Y-112391262D01*
X145884939Y-112555375D01*
X145809407Y-112737727D01*
X145772900Y-112921257D01*
X145736393Y-112737727D01*
X145660861Y-112555375D01*
X145551204Y-112391262D01*
X145411638Y-112251696D01*
X145247525Y-112142039D01*
X145065173Y-112066507D01*
X144871588Y-112028000D01*
X144674212Y-112028000D01*
X144480627Y-112066507D01*
X144298275Y-112142039D01*
X144134162Y-112251696D01*
X143994596Y-112391262D01*
X143884939Y-112555375D01*
X143809407Y-112737727D01*
X143772900Y-112921257D01*
X143736393Y-112737727D01*
X143660861Y-112555375D01*
X143551204Y-112391262D01*
X143411638Y-112251696D01*
X143247525Y-112142039D01*
X143065173Y-112066507D01*
X143027666Y-112059046D01*
X143087023Y-111999689D01*
X143155640Y-111896996D01*
X143202905Y-111782889D01*
X143227000Y-111661754D01*
X143227000Y-111538246D01*
X143202905Y-111417111D01*
X143155640Y-111303004D01*
X143112371Y-111238246D01*
X143673000Y-111238246D01*
X143673000Y-111361754D01*
X143697095Y-111482889D01*
X143744360Y-111596996D01*
X143812977Y-111699689D01*
X143900311Y-111787023D01*
X144003004Y-111855640D01*
X144117111Y-111902905D01*
X144238246Y-111927000D01*
X144361754Y-111927000D01*
X144482889Y-111902905D01*
X144596996Y-111855640D01*
X144699689Y-111787023D01*
X144787023Y-111699689D01*
X144855640Y-111596996D01*
X144902905Y-111482889D01*
X144927000Y-111361754D01*
X144927000Y-111238246D01*
X144917055Y-111188246D01*
X146123000Y-111188246D01*
X146123000Y-111311754D01*
X146147095Y-111432889D01*
X146194360Y-111546996D01*
X146262977Y-111649689D01*
X146350311Y-111737023D01*
X146453004Y-111805640D01*
X146567111Y-111852905D01*
X146688246Y-111877000D01*
X146811754Y-111877000D01*
X146932889Y-111852905D01*
X147046996Y-111805640D01*
X147149689Y-111737023D01*
X147237023Y-111649689D01*
X147305640Y-111546996D01*
X147352905Y-111432889D01*
X147377000Y-111311754D01*
X147377000Y-111188246D01*
X147352905Y-111067111D01*
X147305640Y-110953004D01*
X147237023Y-110850311D01*
X147224958Y-110838246D01*
X150273000Y-110838246D01*
X150273000Y-110961754D01*
X150297095Y-111082889D01*
X150344360Y-111196996D01*
X150412977Y-111299689D01*
X150500311Y-111387023D01*
X150603004Y-111455640D01*
X150717111Y-111502905D01*
X150838246Y-111527000D01*
X150961754Y-111527000D01*
X151082889Y-111502905D01*
X151196996Y-111455640D01*
X151299689Y-111387023D01*
X151387023Y-111299689D01*
X151455640Y-111196996D01*
X151502905Y-111082889D01*
X151527000Y-110961754D01*
X151527000Y-110838246D01*
X151502905Y-110717111D01*
X151455640Y-110603004D01*
X151387023Y-110500311D01*
X151299689Y-110412977D01*
X151196996Y-110344360D01*
X151106899Y-110307040D01*
X153091961Y-110307040D01*
X153091961Y-110430548D01*
X153116056Y-110551683D01*
X153163321Y-110665790D01*
X153231938Y-110768483D01*
X153319272Y-110855817D01*
X153421965Y-110924434D01*
X153536072Y-110971699D01*
X153657207Y-110995794D01*
X153780715Y-110995794D01*
X153901850Y-110971699D01*
X154015957Y-110924434D01*
X154118650Y-110855817D01*
X154205984Y-110768483D01*
X154274601Y-110665790D01*
X154321866Y-110551683D01*
X154345961Y-110430548D01*
X154345961Y-110307040D01*
X154321866Y-110185905D01*
X154274601Y-110071798D01*
X154271390Y-110066992D01*
X154381921Y-110112776D01*
X154503056Y-110136871D01*
X154626564Y-110136871D01*
X154747699Y-110112776D01*
X154861806Y-110065511D01*
X154866351Y-110062474D01*
X155574091Y-110062474D01*
X155574091Y-110185982D01*
X155598186Y-110307117D01*
X155645451Y-110421224D01*
X155714068Y-110523917D01*
X155801402Y-110611251D01*
X155904095Y-110679868D01*
X156018202Y-110727133D01*
X156139337Y-110751228D01*
X156262845Y-110751228D01*
X156383980Y-110727133D01*
X156498087Y-110679868D01*
X156600780Y-110611251D01*
X156688114Y-110523917D01*
X156756731Y-110421224D01*
X156803996Y-110307117D01*
X156828091Y-110185982D01*
X156828091Y-110062474D01*
X156803996Y-109941339D01*
X156756731Y-109827232D01*
X156688114Y-109724539D01*
X156600780Y-109637205D01*
X156498087Y-109568588D01*
X156383980Y-109521323D01*
X156262845Y-109497228D01*
X156139337Y-109497228D01*
X156018202Y-109521323D01*
X155904095Y-109568588D01*
X155801402Y-109637205D01*
X155714068Y-109724539D01*
X155645451Y-109827232D01*
X155598186Y-109941339D01*
X155574091Y-110062474D01*
X154866351Y-110062474D01*
X154964499Y-109996894D01*
X155051833Y-109909560D01*
X155120450Y-109806867D01*
X155167715Y-109692760D01*
X155191810Y-109571625D01*
X155191810Y-109448117D01*
X155167715Y-109326982D01*
X155120450Y-109212875D01*
X155051833Y-109110182D01*
X154964499Y-109022848D01*
X154861806Y-108954231D01*
X154747699Y-108906966D01*
X154626564Y-108882871D01*
X154503056Y-108882871D01*
X154381921Y-108906966D01*
X154267814Y-108954231D01*
X154165121Y-109022848D01*
X154077787Y-109110182D01*
X154009170Y-109212875D01*
X153961905Y-109326982D01*
X153937810Y-109448117D01*
X153937810Y-109571625D01*
X153961905Y-109692760D01*
X154009170Y-109806867D01*
X154012381Y-109811673D01*
X153901850Y-109765889D01*
X153780715Y-109741794D01*
X153657207Y-109741794D01*
X153536072Y-109765889D01*
X153421965Y-109813154D01*
X153319272Y-109881771D01*
X153231938Y-109969105D01*
X153163321Y-110071798D01*
X153116056Y-110185905D01*
X153091961Y-110307040D01*
X151106899Y-110307040D01*
X151082889Y-110297095D01*
X150961754Y-110273000D01*
X150838246Y-110273000D01*
X150717111Y-110297095D01*
X150603004Y-110344360D01*
X150500311Y-110412977D01*
X150412977Y-110500311D01*
X150344360Y-110603004D01*
X150297095Y-110717111D01*
X150273000Y-110838246D01*
X147224958Y-110838246D01*
X147149689Y-110762977D01*
X147046996Y-110694360D01*
X146932889Y-110647095D01*
X146811754Y-110623000D01*
X146688246Y-110623000D01*
X146567111Y-110647095D01*
X146453004Y-110694360D01*
X146350311Y-110762977D01*
X146262977Y-110850311D01*
X146194360Y-110953004D01*
X146147095Y-111067111D01*
X146123000Y-111188246D01*
X144917055Y-111188246D01*
X144902905Y-111117111D01*
X144855640Y-111003004D01*
X144787023Y-110900311D01*
X144699689Y-110812977D01*
X144596996Y-110744360D01*
X144482889Y-110697095D01*
X144361754Y-110673000D01*
X144238246Y-110673000D01*
X144117111Y-110697095D01*
X144003004Y-110744360D01*
X143900311Y-110812977D01*
X143812977Y-110900311D01*
X143744360Y-111003004D01*
X143697095Y-111117111D01*
X143673000Y-111238246D01*
X143112371Y-111238246D01*
X143087023Y-111200311D01*
X142999689Y-111112977D01*
X142896996Y-111044360D01*
X142782889Y-110997095D01*
X142661754Y-110973000D01*
X142538246Y-110973000D01*
X142417111Y-110997095D01*
X142303004Y-111044360D01*
X142200311Y-111112977D01*
X142112977Y-111200311D01*
X142044360Y-111303004D01*
X141997095Y-111417111D01*
X141973000Y-111538246D01*
X141973000Y-111661754D01*
X141997095Y-111782889D01*
X142044360Y-111896996D01*
X142112977Y-111999689D01*
X142200311Y-112087023D01*
X142290462Y-112147260D01*
X142134162Y-112251696D01*
X141994596Y-112391262D01*
X141884939Y-112555375D01*
X141809407Y-112737727D01*
X141772900Y-112921257D01*
X141736393Y-112737727D01*
X141660861Y-112555375D01*
X141551204Y-112391262D01*
X141411638Y-112251696D01*
X141247525Y-112142039D01*
X141065173Y-112066507D01*
X140871588Y-112028000D01*
X140674212Y-112028000D01*
X140480627Y-112066507D01*
X140298275Y-112142039D01*
X140134162Y-112251696D01*
X139994596Y-112391262D01*
X139884939Y-112555375D01*
X139809407Y-112737727D01*
X139770900Y-112931312D01*
X131720827Y-112931312D01*
X129828507Y-111039931D01*
X129620174Y-110786427D01*
X129475227Y-110516259D01*
X129385517Y-110223083D01*
X129352401Y-109897844D01*
X129352659Y-108200246D01*
X133623000Y-108200246D01*
X133623000Y-108323754D01*
X133647095Y-108444889D01*
X133694360Y-108558996D01*
X133762977Y-108661689D01*
X133850311Y-108749023D01*
X133953004Y-108817640D01*
X134067111Y-108864905D01*
X134188246Y-108889000D01*
X134311754Y-108889000D01*
X134432889Y-108864905D01*
X134546996Y-108817640D01*
X134649689Y-108749023D01*
X134737023Y-108661689D01*
X134805640Y-108558996D01*
X134852905Y-108444889D01*
X134877000Y-108323754D01*
X134877000Y-108200246D01*
X134852905Y-108079111D01*
X134805640Y-107965004D01*
X134787760Y-107938244D01*
X137373000Y-107938244D01*
X137373000Y-108061752D01*
X137397095Y-108182887D01*
X137444360Y-108296994D01*
X137512977Y-108399687D01*
X137600311Y-108487021D01*
X137703004Y-108555638D01*
X137817111Y-108602903D01*
X137938246Y-108626998D01*
X138061754Y-108626998D01*
X138182889Y-108602903D01*
X138296996Y-108555638D01*
X138399689Y-108487021D01*
X138487023Y-108399687D01*
X138528076Y-108338246D01*
X162573000Y-108338246D01*
X162573000Y-108461754D01*
X162597095Y-108582889D01*
X162644360Y-108696996D01*
X162712977Y-108799689D01*
X162800311Y-108887023D01*
X162819733Y-108900000D01*
X162800311Y-108912977D01*
X162712977Y-109000311D01*
X162644360Y-109103004D01*
X162597095Y-109217111D01*
X162573000Y-109338246D01*
X162573000Y-109461754D01*
X162597095Y-109582889D01*
X162644360Y-109696996D01*
X162712977Y-109799689D01*
X162800311Y-109887023D01*
X162903004Y-109955640D01*
X163017111Y-110002905D01*
X163138246Y-110027000D01*
X163261754Y-110027000D01*
X163382889Y-110002905D01*
X163496996Y-109955640D01*
X163599689Y-109887023D01*
X163687023Y-109799689D01*
X163755640Y-109696996D01*
X163802905Y-109582889D01*
X163827000Y-109461754D01*
X163827000Y-109338246D01*
X163802905Y-109217111D01*
X163755640Y-109103004D01*
X163687023Y-109000311D01*
X163599689Y-108912977D01*
X163580267Y-108900000D01*
X163599689Y-108887023D01*
X163687023Y-108799689D01*
X163755640Y-108696996D01*
X163802905Y-108582889D01*
X163827000Y-108461754D01*
X163827000Y-108338246D01*
X163802905Y-108217111D01*
X163755640Y-108103004D01*
X163687023Y-108000311D01*
X163599689Y-107912977D01*
X163496996Y-107844360D01*
X163382889Y-107797095D01*
X163261754Y-107773000D01*
X163138246Y-107773000D01*
X163017111Y-107797095D01*
X162903004Y-107844360D01*
X162800311Y-107912977D01*
X162712977Y-108000311D01*
X162644360Y-108103004D01*
X162597095Y-108217111D01*
X162573000Y-108338246D01*
X138528076Y-108338246D01*
X138555640Y-108296994D01*
X138602905Y-108182887D01*
X138627000Y-108061752D01*
X138627000Y-107938244D01*
X138602905Y-107817109D01*
X138555640Y-107703002D01*
X138487023Y-107600309D01*
X138399689Y-107512975D01*
X138296996Y-107444358D01*
X138282241Y-107438246D01*
X144873000Y-107438246D01*
X144873000Y-107561754D01*
X144897095Y-107682889D01*
X144944360Y-107796996D01*
X145012977Y-107899689D01*
X145100311Y-107987023D01*
X145203004Y-108055640D01*
X145317111Y-108102905D01*
X145438246Y-108127000D01*
X145561754Y-108127000D01*
X145682889Y-108102905D01*
X145796996Y-108055640D01*
X145899689Y-107987023D01*
X145987023Y-107899689D01*
X146055640Y-107796996D01*
X146102905Y-107682889D01*
X146111784Y-107638246D01*
X149073000Y-107638246D01*
X149073000Y-107761754D01*
X149097095Y-107882889D01*
X149144360Y-107996996D01*
X149212977Y-108099689D01*
X149300311Y-108187023D01*
X149403004Y-108255640D01*
X149517111Y-108302905D01*
X149638246Y-108327000D01*
X149761754Y-108327000D01*
X149882889Y-108302905D01*
X149996996Y-108255640D01*
X150099689Y-108187023D01*
X150187023Y-108099689D01*
X150255640Y-107996996D01*
X150302905Y-107882889D01*
X150327000Y-107761754D01*
X150327000Y-107638246D01*
X150302905Y-107517111D01*
X150255640Y-107403004D01*
X150187023Y-107300311D01*
X150099689Y-107212977D01*
X149996996Y-107144360D01*
X149882889Y-107097095D01*
X149761754Y-107073000D01*
X149638246Y-107073000D01*
X149517111Y-107097095D01*
X149403004Y-107144360D01*
X149300311Y-107212977D01*
X149212977Y-107300311D01*
X149144360Y-107403004D01*
X149097095Y-107517111D01*
X149073000Y-107638246D01*
X146111784Y-107638246D01*
X146127000Y-107561754D01*
X146127000Y-107438246D01*
X146102905Y-107317111D01*
X146055640Y-107203004D01*
X145987023Y-107100311D01*
X145899689Y-107012977D01*
X145796996Y-106944360D01*
X145682889Y-106897095D01*
X145561754Y-106873000D01*
X145438246Y-106873000D01*
X145317111Y-106897095D01*
X145203004Y-106944360D01*
X145100311Y-107012977D01*
X145012977Y-107100311D01*
X144944360Y-107203004D01*
X144897095Y-107317111D01*
X144873000Y-107438246D01*
X138282241Y-107438246D01*
X138182889Y-107397093D01*
X138061754Y-107372998D01*
X137938246Y-107372998D01*
X137817111Y-107397093D01*
X137703004Y-107444358D01*
X137600311Y-107512975D01*
X137512977Y-107600309D01*
X137444360Y-107703002D01*
X137397095Y-107817109D01*
X137373000Y-107938244D01*
X134787760Y-107938244D01*
X134737023Y-107862311D01*
X134649689Y-107774977D01*
X134546996Y-107706360D01*
X134432889Y-107659095D01*
X134311754Y-107635000D01*
X134188246Y-107635000D01*
X134067111Y-107659095D01*
X133953004Y-107706360D01*
X133850311Y-107774977D01*
X133762977Y-107862311D01*
X133694360Y-107965004D01*
X133647095Y-108079111D01*
X133623000Y-108200246D01*
X129352659Y-108200246D01*
X129352997Y-105983246D01*
X145423000Y-105983246D01*
X145423000Y-106106754D01*
X145447095Y-106227889D01*
X145494360Y-106341996D01*
X145562977Y-106444689D01*
X145650311Y-106532023D01*
X145753004Y-106600640D01*
X145867111Y-106647905D01*
X145988246Y-106672000D01*
X146111754Y-106672000D01*
X146232889Y-106647905D01*
X146304491Y-106618246D01*
X149995000Y-106618246D01*
X149995000Y-106741754D01*
X150019095Y-106862889D01*
X150066360Y-106976996D01*
X150134977Y-107079689D01*
X150222311Y-107167023D01*
X150325004Y-107235640D01*
X150439111Y-107282905D01*
X150560246Y-107307000D01*
X150683754Y-107307000D01*
X150804889Y-107282905D01*
X150912704Y-107238246D01*
X152673000Y-107238246D01*
X152673000Y-107361754D01*
X152697095Y-107482889D01*
X152744360Y-107596996D01*
X152812977Y-107699689D01*
X152900311Y-107787023D01*
X153003004Y-107855640D01*
X153117111Y-107902905D01*
X153238246Y-107927000D01*
X153361754Y-107927000D01*
X153482889Y-107902905D01*
X153596996Y-107855640D01*
X153699689Y-107787023D01*
X153787023Y-107699689D01*
X153855640Y-107596996D01*
X153902905Y-107482889D01*
X153927000Y-107361754D01*
X153927000Y-107238246D01*
X153902905Y-107117111D01*
X153855640Y-107003004D01*
X153787023Y-106900311D01*
X153758958Y-106872246D01*
X162441000Y-106872246D01*
X162441000Y-106995754D01*
X162465095Y-107116889D01*
X162512360Y-107230996D01*
X162580977Y-107333689D01*
X162668311Y-107421023D01*
X162771004Y-107489640D01*
X162885111Y-107536905D01*
X163006246Y-107561000D01*
X163129754Y-107561000D01*
X163250889Y-107536905D01*
X163364996Y-107489640D01*
X163467689Y-107421023D01*
X163555023Y-107333689D01*
X163623640Y-107230996D01*
X163670905Y-107116889D01*
X163695000Y-106995754D01*
X163695000Y-106872246D01*
X163670905Y-106751111D01*
X163623640Y-106637004D01*
X163555023Y-106534311D01*
X163467689Y-106446977D01*
X163364996Y-106378360D01*
X163250889Y-106331095D01*
X163129754Y-106307000D01*
X163006246Y-106307000D01*
X162885111Y-106331095D01*
X162771004Y-106378360D01*
X162668311Y-106446977D01*
X162580977Y-106534311D01*
X162512360Y-106637004D01*
X162465095Y-106751111D01*
X162441000Y-106872246D01*
X153758958Y-106872246D01*
X153699689Y-106812977D01*
X153596996Y-106744360D01*
X153482889Y-106697095D01*
X153361754Y-106673000D01*
X153238246Y-106673000D01*
X153117111Y-106697095D01*
X153003004Y-106744360D01*
X152900311Y-106812977D01*
X152812977Y-106900311D01*
X152744360Y-107003004D01*
X152697095Y-107117111D01*
X152673000Y-107238246D01*
X150912704Y-107238246D01*
X150918996Y-107235640D01*
X151021689Y-107167023D01*
X151109023Y-107079689D01*
X151177640Y-106976996D01*
X151224905Y-106862889D01*
X151249000Y-106741754D01*
X151249000Y-106618246D01*
X151224905Y-106497111D01*
X151177640Y-106383004D01*
X151109023Y-106280311D01*
X151021689Y-106192977D01*
X150918996Y-106124360D01*
X150804889Y-106077095D01*
X150683754Y-106053000D01*
X150560246Y-106053000D01*
X150439111Y-106077095D01*
X150325004Y-106124360D01*
X150222311Y-106192977D01*
X150134977Y-106280311D01*
X150066360Y-106383004D01*
X150019095Y-106497111D01*
X149995000Y-106618246D01*
X146304491Y-106618246D01*
X146346996Y-106600640D01*
X146449689Y-106532023D01*
X146537023Y-106444689D01*
X146605640Y-106341996D01*
X146652905Y-106227889D01*
X146677000Y-106106754D01*
X146677000Y-105983246D01*
X146652905Y-105862111D01*
X146605640Y-105748004D01*
X146537023Y-105645311D01*
X146449689Y-105557977D01*
X146346996Y-105489360D01*
X146232889Y-105442095D01*
X146111754Y-105418000D01*
X145988246Y-105418000D01*
X145867111Y-105442095D01*
X145753004Y-105489360D01*
X145650311Y-105557977D01*
X145562977Y-105645311D01*
X145494360Y-105748004D01*
X145447095Y-105862111D01*
X145423000Y-105983246D01*
X129352997Y-105983246D01*
X129353094Y-105348246D01*
X159139000Y-105348246D01*
X159139000Y-105471754D01*
X159163095Y-105592889D01*
X159210360Y-105706996D01*
X159278977Y-105809689D01*
X159366311Y-105897023D01*
X159469004Y-105965640D01*
X159583111Y-106012905D01*
X159704246Y-106037000D01*
X159827754Y-106037000D01*
X159948889Y-106012905D01*
X160062996Y-105965640D01*
X160165689Y-105897023D01*
X160253023Y-105809689D01*
X160321640Y-105706996D01*
X160368905Y-105592889D01*
X160393000Y-105471754D01*
X160393000Y-105348246D01*
X160386736Y-105316754D01*
X160438246Y-105327000D01*
X160561754Y-105327000D01*
X160682889Y-105302905D01*
X160796996Y-105255640D01*
X160899689Y-105187023D01*
X160987023Y-105099689D01*
X161055640Y-104996996D01*
X161102905Y-104882889D01*
X161110084Y-104846796D01*
X161144311Y-104881023D01*
X161247004Y-104949640D01*
X161361111Y-104996905D01*
X161482246Y-105021000D01*
X161605754Y-105021000D01*
X161726889Y-104996905D01*
X161840996Y-104949640D01*
X161943689Y-104881023D01*
X162031023Y-104793689D01*
X162099640Y-104690996D01*
X162146905Y-104576889D01*
X162171000Y-104455754D01*
X162171000Y-104332246D01*
X162146905Y-104211111D01*
X162099640Y-104097004D01*
X162031023Y-103994311D01*
X161943689Y-103906977D01*
X161840996Y-103838360D01*
X161726889Y-103791095D01*
X161605754Y-103767000D01*
X161482246Y-103767000D01*
X161361111Y-103791095D01*
X161247004Y-103838360D01*
X161144311Y-103906977D01*
X161056977Y-103994311D01*
X160988360Y-104097004D01*
X160941095Y-104211111D01*
X160933916Y-104247204D01*
X160899689Y-104212977D01*
X160796996Y-104144360D01*
X160682889Y-104097095D01*
X160561754Y-104073000D01*
X160438246Y-104073000D01*
X160317111Y-104097095D01*
X160203004Y-104144360D01*
X160100311Y-104212977D01*
X160012977Y-104300311D01*
X159944360Y-104403004D01*
X159897095Y-104517111D01*
X159873000Y-104638246D01*
X159873000Y-104761754D01*
X159879264Y-104793246D01*
X159827754Y-104783000D01*
X159704246Y-104783000D01*
X159583111Y-104807095D01*
X159469004Y-104854360D01*
X159366311Y-104922977D01*
X159278977Y-105010311D01*
X159210360Y-105113004D01*
X159163095Y-105227111D01*
X159139000Y-105348246D01*
X129353094Y-105348246D01*
X129353211Y-104586246D01*
X132570900Y-104586246D01*
X132570900Y-104709754D01*
X132594995Y-104830889D01*
X132642260Y-104944996D01*
X132710877Y-105047689D01*
X132798211Y-105135023D01*
X132900904Y-105203640D01*
X133015011Y-105250905D01*
X133136146Y-105275000D01*
X133259654Y-105275000D01*
X133380789Y-105250905D01*
X133494896Y-105203640D01*
X133597589Y-105135023D01*
X133684923Y-105047689D01*
X133753540Y-104944996D01*
X133800805Y-104830889D01*
X133824900Y-104709754D01*
X133824900Y-104586246D01*
X133800805Y-104465111D01*
X133762570Y-104372804D01*
X135016264Y-104372804D01*
X135016264Y-104496312D01*
X135040359Y-104617447D01*
X135087624Y-104731554D01*
X135156241Y-104834247D01*
X135243575Y-104921581D01*
X135346268Y-104990198D01*
X135460375Y-105037463D01*
X135581510Y-105061558D01*
X135705018Y-105061558D01*
X135826153Y-105037463D01*
X135940260Y-104990198D01*
X136042953Y-104921581D01*
X136130287Y-104834247D01*
X136161182Y-104788009D01*
X136164977Y-104793689D01*
X136252311Y-104881023D01*
X136355004Y-104949640D01*
X136469111Y-104996905D01*
X136590246Y-105021000D01*
X136713754Y-105021000D01*
X136834889Y-104996905D01*
X136948996Y-104949640D01*
X137051689Y-104881023D01*
X137139023Y-104793689D01*
X137207640Y-104690996D01*
X137254905Y-104576889D01*
X137279000Y-104455754D01*
X137279000Y-104438246D01*
X137473000Y-104438246D01*
X137473000Y-104561754D01*
X137497095Y-104682889D01*
X137544360Y-104796996D01*
X137612977Y-104899689D01*
X137700311Y-104987023D01*
X137803004Y-105055640D01*
X137917111Y-105102905D01*
X138038246Y-105127000D01*
X138161754Y-105127000D01*
X138282889Y-105102905D01*
X138396996Y-105055640D01*
X138499689Y-104987023D01*
X138587023Y-104899689D01*
X138655640Y-104796996D01*
X138702905Y-104682889D01*
X138727000Y-104561754D01*
X138727000Y-104438246D01*
X138705916Y-104332246D01*
X138819000Y-104332246D01*
X138819000Y-104455754D01*
X138843095Y-104576889D01*
X138890360Y-104690996D01*
X138958977Y-104793689D01*
X139046311Y-104881023D01*
X139149004Y-104949640D01*
X139263111Y-104996905D01*
X139384246Y-105021000D01*
X139507754Y-105021000D01*
X139628889Y-104996905D01*
X139742996Y-104949640D01*
X139845689Y-104881023D01*
X139933023Y-104793689D01*
X140001640Y-104690996D01*
X140043149Y-104590784D01*
X142125667Y-104590784D01*
X142125667Y-104714292D01*
X142149762Y-104835427D01*
X142197027Y-104949534D01*
X142265644Y-105052227D01*
X142352978Y-105139561D01*
X142455671Y-105208178D01*
X142569778Y-105255443D01*
X142690913Y-105279538D01*
X142814421Y-105279538D01*
X142935556Y-105255443D01*
X143049663Y-105208178D01*
X143152356Y-105139561D01*
X143239690Y-105052227D01*
X143259850Y-105022056D01*
X143276977Y-105047689D01*
X143364311Y-105135023D01*
X143467004Y-105203640D01*
X143581111Y-105250905D01*
X143702246Y-105275000D01*
X143825754Y-105275000D01*
X143946889Y-105250905D01*
X144060996Y-105203640D01*
X144163689Y-105135023D01*
X144251023Y-105047689D01*
X144319640Y-104944996D01*
X144366905Y-104830889D01*
X144391000Y-104709754D01*
X144391000Y-104586246D01*
X144366905Y-104465111D01*
X144319640Y-104351004D01*
X144307107Y-104332246D01*
X149741000Y-104332246D01*
X149741000Y-104455754D01*
X149765095Y-104576889D01*
X149812360Y-104690996D01*
X149880977Y-104793689D01*
X149968311Y-104881023D01*
X150071004Y-104949640D01*
X150185111Y-104996905D01*
X150306246Y-105021000D01*
X150429754Y-105021000D01*
X150550889Y-104996905D01*
X150664996Y-104949640D01*
X150767689Y-104881023D01*
X150855023Y-104793689D01*
X150923640Y-104690996D01*
X150970905Y-104576889D01*
X150995000Y-104455754D01*
X150995000Y-104332246D01*
X152789000Y-104332246D01*
X152789000Y-104455754D01*
X152813095Y-104576889D01*
X152860360Y-104690996D01*
X152928977Y-104793689D01*
X153016311Y-104881023D01*
X153119004Y-104949640D01*
X153233111Y-104996905D01*
X153354246Y-105021000D01*
X153477754Y-105021000D01*
X153598889Y-104996905D01*
X153712996Y-104949640D01*
X153815689Y-104881023D01*
X153903023Y-104793689D01*
X153971640Y-104690996D01*
X154018905Y-104576889D01*
X154043000Y-104455754D01*
X154043000Y-104332246D01*
X155583000Y-104332246D01*
X155583000Y-104455754D01*
X155607095Y-104576889D01*
X155654360Y-104690996D01*
X155722977Y-104793689D01*
X155810311Y-104881023D01*
X155913004Y-104949640D01*
X156027111Y-104996905D01*
X156148246Y-105021000D01*
X156271754Y-105021000D01*
X156392889Y-104996905D01*
X156506996Y-104949640D01*
X156609689Y-104881023D01*
X156697023Y-104793689D01*
X156765640Y-104690996D01*
X156812905Y-104576889D01*
X156837000Y-104455754D01*
X156837000Y-104332246D01*
X156812905Y-104211111D01*
X156765640Y-104097004D01*
X156697023Y-103994311D01*
X156609689Y-103906977D01*
X156506996Y-103838360D01*
X156392889Y-103791095D01*
X156271754Y-103767000D01*
X156148246Y-103767000D01*
X156027111Y-103791095D01*
X155913004Y-103838360D01*
X155810311Y-103906977D01*
X155722977Y-103994311D01*
X155654360Y-104097004D01*
X155607095Y-104211111D01*
X155583000Y-104332246D01*
X154043000Y-104332246D01*
X154018905Y-104211111D01*
X153971640Y-104097004D01*
X153903023Y-103994311D01*
X153815689Y-103906977D01*
X153712996Y-103838360D01*
X153598889Y-103791095D01*
X153477754Y-103767000D01*
X153354246Y-103767000D01*
X153233111Y-103791095D01*
X153119004Y-103838360D01*
X153016311Y-103906977D01*
X152928977Y-103994311D01*
X152860360Y-104097004D01*
X152813095Y-104211111D01*
X152789000Y-104332246D01*
X150995000Y-104332246D01*
X150970905Y-104211111D01*
X150923640Y-104097004D01*
X150855023Y-103994311D01*
X150767689Y-103906977D01*
X150664996Y-103838360D01*
X150550889Y-103791095D01*
X150429754Y-103767000D01*
X150306246Y-103767000D01*
X150185111Y-103791095D01*
X150071004Y-103838360D01*
X149968311Y-103906977D01*
X149880977Y-103994311D01*
X149812360Y-104097004D01*
X149765095Y-104211111D01*
X149741000Y-104332246D01*
X144307107Y-104332246D01*
X144251023Y-104248311D01*
X144163689Y-104160977D01*
X144060996Y-104092360D01*
X143946889Y-104045095D01*
X143825754Y-104021000D01*
X143702246Y-104021000D01*
X143581111Y-104045095D01*
X143467004Y-104092360D01*
X143364311Y-104160977D01*
X143276977Y-104248311D01*
X143256817Y-104278482D01*
X143239690Y-104252849D01*
X143152356Y-104165515D01*
X143049663Y-104096898D01*
X142935556Y-104049633D01*
X142814421Y-104025538D01*
X142690913Y-104025538D01*
X142569778Y-104049633D01*
X142455671Y-104096898D01*
X142352978Y-104165515D01*
X142265644Y-104252849D01*
X142197027Y-104355542D01*
X142149762Y-104469649D01*
X142125667Y-104590784D01*
X140043149Y-104590784D01*
X140048905Y-104576889D01*
X140073000Y-104455754D01*
X140073000Y-104332246D01*
X140048905Y-104211111D01*
X140001640Y-104097004D01*
X139933023Y-103994311D01*
X139845689Y-103906977D01*
X139742996Y-103838360D01*
X139628889Y-103791095D01*
X139507754Y-103767000D01*
X139384246Y-103767000D01*
X139263111Y-103791095D01*
X139149004Y-103838360D01*
X139046311Y-103906977D01*
X138958977Y-103994311D01*
X138890360Y-104097004D01*
X138843095Y-104211111D01*
X138819000Y-104332246D01*
X138705916Y-104332246D01*
X138702905Y-104317111D01*
X138655640Y-104203004D01*
X138587023Y-104100311D01*
X138499689Y-104012977D01*
X138396996Y-103944360D01*
X138282889Y-103897095D01*
X138161754Y-103873000D01*
X138038246Y-103873000D01*
X137917111Y-103897095D01*
X137803004Y-103944360D01*
X137700311Y-104012977D01*
X137612977Y-104100311D01*
X137544360Y-104203004D01*
X137497095Y-104317111D01*
X137473000Y-104438246D01*
X137279000Y-104438246D01*
X137279000Y-104332246D01*
X137254905Y-104211111D01*
X137207640Y-104097004D01*
X137139023Y-103994311D01*
X137051689Y-103906977D01*
X136948996Y-103838360D01*
X136834889Y-103791095D01*
X136713754Y-103767000D01*
X136590246Y-103767000D01*
X136469111Y-103791095D01*
X136355004Y-103838360D01*
X136252311Y-103906977D01*
X136164977Y-103994311D01*
X136134082Y-104040549D01*
X136130287Y-104034869D01*
X136042953Y-103947535D01*
X135940260Y-103878918D01*
X135826153Y-103831653D01*
X135705018Y-103807558D01*
X135581510Y-103807558D01*
X135460375Y-103831653D01*
X135346268Y-103878918D01*
X135243575Y-103947535D01*
X135156241Y-104034869D01*
X135087624Y-104137562D01*
X135040359Y-104251669D01*
X135016264Y-104372804D01*
X133762570Y-104372804D01*
X133753540Y-104351004D01*
X133684923Y-104248311D01*
X133597589Y-104160977D01*
X133494896Y-104092360D01*
X133380789Y-104045095D01*
X133259654Y-104021000D01*
X133136146Y-104021000D01*
X133015011Y-104045095D01*
X132900904Y-104092360D01*
X132798211Y-104160977D01*
X132710877Y-104248311D01*
X132642260Y-104351004D01*
X132594995Y-104465111D01*
X132570900Y-104586246D01*
X129353211Y-104586246D01*
X129353835Y-100503000D01*
X166196939Y-100503000D01*
X166195604Y-109890952D01*
G37*
X166195604Y-109890952D02*
X166163585Y-110216978D01*
X166074924Y-110510472D01*
X165930942Y-110781159D01*
X165723927Y-111034904D01*
X160501203Y-116257529D01*
X160248214Y-116465337D01*
X159978010Y-116610220D01*
X159684812Y-116699859D01*
X159359545Y-116732899D01*
X136192750Y-116729403D01*
X135866735Y-116697388D01*
X135573233Y-116608726D01*
X135302552Y-116464749D01*
X135049317Y-116258153D01*
X131720827Y-112931312D01*
X139770900Y-112931312D01*
X139770900Y-113128688D01*
X139809407Y-113322273D01*
X139884939Y-113504625D01*
X139994596Y-113668738D01*
X140134162Y-113808304D01*
X140298275Y-113917961D01*
X140480627Y-113993493D01*
X140664157Y-114030000D01*
X140480627Y-114066507D01*
X140298275Y-114142039D01*
X140134162Y-114251696D01*
X139994596Y-114391262D01*
X139884939Y-114555375D01*
X139809407Y-114737727D01*
X139770900Y-114931312D01*
X139770900Y-115128688D01*
X139809407Y-115322273D01*
X139884939Y-115504625D01*
X139994596Y-115668738D01*
X140134162Y-115808304D01*
X140298275Y-115917961D01*
X140480627Y-115993493D01*
X140674212Y-116032000D01*
X140871588Y-116032000D01*
X141065173Y-115993493D01*
X141247525Y-115917961D01*
X141411638Y-115808304D01*
X141551204Y-115668738D01*
X141660861Y-115504625D01*
X141736393Y-115322273D01*
X141772900Y-115138743D01*
X141809407Y-115322273D01*
X141884939Y-115504625D01*
X141994596Y-115668738D01*
X142134162Y-115808304D01*
X142298275Y-115917961D01*
X142480627Y-115993493D01*
X142674212Y-116032000D01*
X142871588Y-116032000D01*
X143065173Y-115993493D01*
X143247525Y-115917961D01*
X143411638Y-115808304D01*
X143551204Y-115668738D01*
X143660861Y-115504625D01*
X143736393Y-115322273D01*
X143772900Y-115138743D01*
X143809407Y-115322273D01*
X143884939Y-115504625D01*
X143994596Y-115668738D01*
X144134162Y-115808304D01*
X144298275Y-115917961D01*
X144480627Y-115993493D01*
X144674212Y-116032000D01*
X144871588Y-116032000D01*
X145065173Y-115993493D01*
X145247525Y-115917961D01*
X145411638Y-115808304D01*
X145551204Y-115668738D01*
X145660861Y-115504625D01*
X145736393Y-115322273D01*
X145772900Y-115138743D01*
X145809407Y-115322273D01*
X145884939Y-115504625D01*
X145994596Y-115668738D01*
X146134162Y-115808304D01*
X146298275Y-115917961D01*
X146480627Y-115993493D01*
X146674212Y-116032000D01*
X146871588Y-116032000D01*
X147065173Y-115993493D01*
X147247525Y-115917961D01*
X147411638Y-115808304D01*
X147551204Y-115668738D01*
X147595157Y-115602958D01*
X147727556Y-115819537D01*
X147901673Y-116008303D01*
X148109271Y-116159473D01*
X148342372Y-116267238D01*
X148443500Y-116297910D01*
X148645900Y-116174224D01*
X148645900Y-115157000D01*
X148625900Y-115157000D01*
X148625900Y-114903000D01*
X148645900Y-114903000D01*
X148645900Y-114883000D01*
X148899900Y-114883000D01*
X148899900Y-114903000D01*
X148919900Y-114903000D01*
X148919900Y-115157000D01*
X148899900Y-115157000D01*
X148899900Y-116174224D01*
X149102300Y-116297910D01*
X149203428Y-116267238D01*
X149436529Y-116159473D01*
X149644127Y-116008303D01*
X149818244Y-115819537D01*
X149950643Y-115602958D01*
X149994596Y-115668738D01*
X150134162Y-115808304D01*
X150298275Y-115917961D01*
X150480627Y-115993493D01*
X150674212Y-116032000D01*
X150871588Y-116032000D01*
X151065173Y-115993493D01*
X151247525Y-115917961D01*
X151411638Y-115808304D01*
X151551204Y-115668738D01*
X151660861Y-115504625D01*
X151736393Y-115322273D01*
X151772900Y-115138743D01*
X151809407Y-115322273D01*
X151884939Y-115504625D01*
X151994596Y-115668738D01*
X152134162Y-115808304D01*
X152298275Y-115917961D01*
X152480627Y-115993493D01*
X152674212Y-116032000D01*
X152871588Y-116032000D01*
X153065173Y-115993493D01*
X153247525Y-115917961D01*
X153411638Y-115808304D01*
X153551204Y-115668738D01*
X153660861Y-115504625D01*
X153736393Y-115322273D01*
X153772900Y-115138743D01*
X153809407Y-115322273D01*
X153884939Y-115504625D01*
X153994596Y-115668738D01*
X154134162Y-115808304D01*
X154298275Y-115917961D01*
X154480627Y-115993493D01*
X154674212Y-116032000D01*
X154871588Y-116032000D01*
X155065173Y-115993493D01*
X155247525Y-115917961D01*
X155411638Y-115808304D01*
X155551204Y-115668738D01*
X155660861Y-115504625D01*
X155736393Y-115322273D01*
X155774900Y-115128688D01*
X155774900Y-114931312D01*
X155736393Y-114737727D01*
X155660861Y-114555375D01*
X155551204Y-114391262D01*
X155411638Y-114251696D01*
X155247525Y-114142039D01*
X155065173Y-114066507D01*
X154899650Y-114033582D01*
X155447900Y-114033582D01*
X155512003Y-114027268D01*
X155573643Y-114008570D01*
X155630450Y-113978206D01*
X155680243Y-113937343D01*
X155721106Y-113887550D01*
X155751470Y-113830743D01*
X155770168Y-113769103D01*
X155776482Y-113705000D01*
X155776482Y-112355000D01*
X155770168Y-112290897D01*
X155751470Y-112229257D01*
X155721106Y-112172450D01*
X155680243Y-112122657D01*
X155630450Y-112081794D01*
X155573643Y-112051430D01*
X155512003Y-112032732D01*
X155447900Y-112026418D01*
X154097900Y-112026418D01*
X154033797Y-112032732D01*
X153972157Y-112051430D01*
X153915350Y-112081794D01*
X153865557Y-112122657D01*
X153824694Y-112172450D01*
X153794330Y-112229257D01*
X153775632Y-112290897D01*
X153769318Y-112355000D01*
X153769318Y-112903250D01*
X153736393Y-112737727D01*
X153660861Y-112555375D01*
X153551204Y-112391262D01*
X153411638Y-112251696D01*
X153247525Y-112142039D01*
X153065173Y-112066507D01*
X152871588Y-112028000D01*
X152674212Y-112028000D01*
X152480627Y-112066507D01*
X152298275Y-112142039D01*
X152134162Y-112251696D01*
X151994596Y-112391262D01*
X151884939Y-112555375D01*
X151809407Y-112737727D01*
X151772900Y-112921257D01*
X151736393Y-112737727D01*
X151660861Y-112555375D01*
X151551204Y-112391262D01*
X151411638Y-112251696D01*
X151247525Y-112142039D01*
X151065173Y-112066507D01*
X150871588Y-112028000D01*
X150674212Y-112028000D01*
X150480627Y-112066507D01*
X150298275Y-112142039D01*
X150134162Y-112251696D01*
X149994596Y-112391262D01*
X149884939Y-112555375D01*
X149809407Y-112737727D01*
X149772900Y-112921257D01*
X149736393Y-112737727D01*
X149660861Y-112555375D01*
X149551204Y-112391262D01*
X149411638Y-112251696D01*
X149247525Y-112142039D01*
X149065173Y-112066507D01*
X148871588Y-112028000D01*
X148674212Y-112028000D01*
X148480627Y-112066507D01*
X148298275Y-112142039D01*
X148134162Y-112251696D01*
X147994596Y-112391262D01*
X147884939Y-112555375D01*
X147809407Y-112737727D01*
X147772900Y-112921257D01*
X147736393Y-112737727D01*
X147660861Y-112555375D01*
X147551204Y-112391262D01*
X147411638Y-112251696D01*
X147247525Y-112142039D01*
X147065173Y-112066507D01*
X146871588Y-112028000D01*
X146674212Y-112028000D01*
X146480627Y-112066507D01*
X146298275Y-112142039D01*
X146134162Y-112251696D01*
X145994596Y-112391262D01*
X145884939Y-112555375D01*
X145809407Y-112737727D01*
X145772900Y-112921257D01*
X145736393Y-112737727D01*
X145660861Y-112555375D01*
X145551204Y-112391262D01*
X145411638Y-112251696D01*
X145247525Y-112142039D01*
X145065173Y-112066507D01*
X144871588Y-112028000D01*
X144674212Y-112028000D01*
X144480627Y-112066507D01*
X144298275Y-112142039D01*
X144134162Y-112251696D01*
X143994596Y-112391262D01*
X143884939Y-112555375D01*
X143809407Y-112737727D01*
X143772900Y-112921257D01*
X143736393Y-112737727D01*
X143660861Y-112555375D01*
X143551204Y-112391262D01*
X143411638Y-112251696D01*
X143247525Y-112142039D01*
X143065173Y-112066507D01*
X143027666Y-112059046D01*
X143087023Y-111999689D01*
X143155640Y-111896996D01*
X143202905Y-111782889D01*
X143227000Y-111661754D01*
X143227000Y-111538246D01*
X143202905Y-111417111D01*
X143155640Y-111303004D01*
X143112371Y-111238246D01*
X143673000Y-111238246D01*
X143673000Y-111361754D01*
X143697095Y-111482889D01*
X143744360Y-111596996D01*
X143812977Y-111699689D01*
X143900311Y-111787023D01*
X144003004Y-111855640D01*
X144117111Y-111902905D01*
X144238246Y-111927000D01*
X144361754Y-111927000D01*
X144482889Y-111902905D01*
X144596996Y-111855640D01*
X144699689Y-111787023D01*
X144787023Y-111699689D01*
X144855640Y-111596996D01*
X144902905Y-111482889D01*
X144927000Y-111361754D01*
X144927000Y-111238246D01*
X144917055Y-111188246D01*
X146123000Y-111188246D01*
X146123000Y-111311754D01*
X146147095Y-111432889D01*
X146194360Y-111546996D01*
X146262977Y-111649689D01*
X146350311Y-111737023D01*
X146453004Y-111805640D01*
X146567111Y-111852905D01*
X146688246Y-111877000D01*
X146811754Y-111877000D01*
X146932889Y-111852905D01*
X147046996Y-111805640D01*
X147149689Y-111737023D01*
X147237023Y-111649689D01*
X147305640Y-111546996D01*
X147352905Y-111432889D01*
X147377000Y-111311754D01*
X147377000Y-111188246D01*
X147352905Y-111067111D01*
X147305640Y-110953004D01*
X147237023Y-110850311D01*
X147224958Y-110838246D01*
X150273000Y-110838246D01*
X150273000Y-110961754D01*
X150297095Y-111082889D01*
X150344360Y-111196996D01*
X150412977Y-111299689D01*
X150500311Y-111387023D01*
X150603004Y-111455640D01*
X150717111Y-111502905D01*
X150838246Y-111527000D01*
X150961754Y-111527000D01*
X151082889Y-111502905D01*
X151196996Y-111455640D01*
X151299689Y-111387023D01*
X151387023Y-111299689D01*
X151455640Y-111196996D01*
X151502905Y-111082889D01*
X151527000Y-110961754D01*
X151527000Y-110838246D01*
X151502905Y-110717111D01*
X151455640Y-110603004D01*
X151387023Y-110500311D01*
X151299689Y-110412977D01*
X151196996Y-110344360D01*
X151106899Y-110307040D01*
X153091961Y-110307040D01*
X153091961Y-110430548D01*
X153116056Y-110551683D01*
X153163321Y-110665790D01*
X153231938Y-110768483D01*
X153319272Y-110855817D01*
X153421965Y-110924434D01*
X153536072Y-110971699D01*
X153657207Y-110995794D01*
X153780715Y-110995794D01*
X153901850Y-110971699D01*
X154015957Y-110924434D01*
X154118650Y-110855817D01*
X154205984Y-110768483D01*
X154274601Y-110665790D01*
X154321866Y-110551683D01*
X154345961Y-110430548D01*
X154345961Y-110307040D01*
X154321866Y-110185905D01*
X154274601Y-110071798D01*
X154271390Y-110066992D01*
X154381921Y-110112776D01*
X154503056Y-110136871D01*
X154626564Y-110136871D01*
X154747699Y-110112776D01*
X154861806Y-110065511D01*
X154866351Y-110062474D01*
X155574091Y-110062474D01*
X155574091Y-110185982D01*
X155598186Y-110307117D01*
X155645451Y-110421224D01*
X155714068Y-110523917D01*
X155801402Y-110611251D01*
X155904095Y-110679868D01*
X156018202Y-110727133D01*
X156139337Y-110751228D01*
X156262845Y-110751228D01*
X156383980Y-110727133D01*
X156498087Y-110679868D01*
X156600780Y-110611251D01*
X156688114Y-110523917D01*
X156756731Y-110421224D01*
X156803996Y-110307117D01*
X156828091Y-110185982D01*
X156828091Y-110062474D01*
X156803996Y-109941339D01*
X156756731Y-109827232D01*
X156688114Y-109724539D01*
X156600780Y-109637205D01*
X156498087Y-109568588D01*
X156383980Y-109521323D01*
X156262845Y-109497228D01*
X156139337Y-109497228D01*
X156018202Y-109521323D01*
X155904095Y-109568588D01*
X155801402Y-109637205D01*
X155714068Y-109724539D01*
X155645451Y-109827232D01*
X155598186Y-109941339D01*
X155574091Y-110062474D01*
X154866351Y-110062474D01*
X154964499Y-109996894D01*
X155051833Y-109909560D01*
X155120450Y-109806867D01*
X155167715Y-109692760D01*
X155191810Y-109571625D01*
X155191810Y-109448117D01*
X155167715Y-109326982D01*
X155120450Y-109212875D01*
X155051833Y-109110182D01*
X154964499Y-109022848D01*
X154861806Y-108954231D01*
X154747699Y-108906966D01*
X154626564Y-108882871D01*
X154503056Y-108882871D01*
X154381921Y-108906966D01*
X154267814Y-108954231D01*
X154165121Y-109022848D01*
X154077787Y-109110182D01*
X154009170Y-109212875D01*
X153961905Y-109326982D01*
X153937810Y-109448117D01*
X153937810Y-109571625D01*
X153961905Y-109692760D01*
X154009170Y-109806867D01*
X154012381Y-109811673D01*
X153901850Y-109765889D01*
X153780715Y-109741794D01*
X153657207Y-109741794D01*
X153536072Y-109765889D01*
X153421965Y-109813154D01*
X153319272Y-109881771D01*
X153231938Y-109969105D01*
X153163321Y-110071798D01*
X153116056Y-110185905D01*
X153091961Y-110307040D01*
X151106899Y-110307040D01*
X151082889Y-110297095D01*
X150961754Y-110273000D01*
X150838246Y-110273000D01*
X150717111Y-110297095D01*
X150603004Y-110344360D01*
X150500311Y-110412977D01*
X150412977Y-110500311D01*
X150344360Y-110603004D01*
X150297095Y-110717111D01*
X150273000Y-110838246D01*
X147224958Y-110838246D01*
X147149689Y-110762977D01*
X147046996Y-110694360D01*
X146932889Y-110647095D01*
X146811754Y-110623000D01*
X146688246Y-110623000D01*
X146567111Y-110647095D01*
X146453004Y-110694360D01*
X146350311Y-110762977D01*
X146262977Y-110850311D01*
X146194360Y-110953004D01*
X146147095Y-111067111D01*
X146123000Y-111188246D01*
X144917055Y-111188246D01*
X144902905Y-111117111D01*
X144855640Y-111003004D01*
X144787023Y-110900311D01*
X144699689Y-110812977D01*
X144596996Y-110744360D01*
X144482889Y-110697095D01*
X144361754Y-110673000D01*
X144238246Y-110673000D01*
X144117111Y-110697095D01*
X144003004Y-110744360D01*
X143900311Y-110812977D01*
X143812977Y-110900311D01*
X143744360Y-111003004D01*
X143697095Y-111117111D01*
X143673000Y-111238246D01*
X143112371Y-111238246D01*
X143087023Y-111200311D01*
X142999689Y-111112977D01*
X142896996Y-111044360D01*
X142782889Y-110997095D01*
X142661754Y-110973000D01*
X142538246Y-110973000D01*
X142417111Y-110997095D01*
X142303004Y-111044360D01*
X142200311Y-111112977D01*
X142112977Y-111200311D01*
X142044360Y-111303004D01*
X141997095Y-111417111D01*
X141973000Y-111538246D01*
X141973000Y-111661754D01*
X141997095Y-111782889D01*
X142044360Y-111896996D01*
X142112977Y-111999689D01*
X142200311Y-112087023D01*
X142290462Y-112147260D01*
X142134162Y-112251696D01*
X141994596Y-112391262D01*
X141884939Y-112555375D01*
X141809407Y-112737727D01*
X141772900Y-112921257D01*
X141736393Y-112737727D01*
X141660861Y-112555375D01*
X141551204Y-112391262D01*
X141411638Y-112251696D01*
X141247525Y-112142039D01*
X141065173Y-112066507D01*
X140871588Y-112028000D01*
X140674212Y-112028000D01*
X140480627Y-112066507D01*
X140298275Y-112142039D01*
X140134162Y-112251696D01*
X139994596Y-112391262D01*
X139884939Y-112555375D01*
X139809407Y-112737727D01*
X139770900Y-112931312D01*
X131720827Y-112931312D01*
X129828507Y-111039931D01*
X129620174Y-110786427D01*
X129475227Y-110516259D01*
X129385517Y-110223083D01*
X129352401Y-109897844D01*
X129352659Y-108200246D01*
X133623000Y-108200246D01*
X133623000Y-108323754D01*
X133647095Y-108444889D01*
X133694360Y-108558996D01*
X133762977Y-108661689D01*
X133850311Y-108749023D01*
X133953004Y-108817640D01*
X134067111Y-108864905D01*
X134188246Y-108889000D01*
X134311754Y-108889000D01*
X134432889Y-108864905D01*
X134546996Y-108817640D01*
X134649689Y-108749023D01*
X134737023Y-108661689D01*
X134805640Y-108558996D01*
X134852905Y-108444889D01*
X134877000Y-108323754D01*
X134877000Y-108200246D01*
X134852905Y-108079111D01*
X134805640Y-107965004D01*
X134787760Y-107938244D01*
X137373000Y-107938244D01*
X137373000Y-108061752D01*
X137397095Y-108182887D01*
X137444360Y-108296994D01*
X137512977Y-108399687D01*
X137600311Y-108487021D01*
X137703004Y-108555638D01*
X137817111Y-108602903D01*
X137938246Y-108626998D01*
X138061754Y-108626998D01*
X138182889Y-108602903D01*
X138296996Y-108555638D01*
X138399689Y-108487021D01*
X138487023Y-108399687D01*
X138528076Y-108338246D01*
X162573000Y-108338246D01*
X162573000Y-108461754D01*
X162597095Y-108582889D01*
X162644360Y-108696996D01*
X162712977Y-108799689D01*
X162800311Y-108887023D01*
X162819733Y-108900000D01*
X162800311Y-108912977D01*
X162712977Y-109000311D01*
X162644360Y-109103004D01*
X162597095Y-109217111D01*
X162573000Y-109338246D01*
X162573000Y-109461754D01*
X162597095Y-109582889D01*
X162644360Y-109696996D01*
X162712977Y-109799689D01*
X162800311Y-109887023D01*
X162903004Y-109955640D01*
X163017111Y-110002905D01*
X163138246Y-110027000D01*
X163261754Y-110027000D01*
X163382889Y-110002905D01*
X163496996Y-109955640D01*
X163599689Y-109887023D01*
X163687023Y-109799689D01*
X163755640Y-109696996D01*
X163802905Y-109582889D01*
X163827000Y-109461754D01*
X163827000Y-109338246D01*
X163802905Y-109217111D01*
X163755640Y-109103004D01*
X163687023Y-109000311D01*
X163599689Y-108912977D01*
X163580267Y-108900000D01*
X163599689Y-108887023D01*
X163687023Y-108799689D01*
X163755640Y-108696996D01*
X163802905Y-108582889D01*
X163827000Y-108461754D01*
X163827000Y-108338246D01*
X163802905Y-108217111D01*
X163755640Y-108103004D01*
X163687023Y-108000311D01*
X163599689Y-107912977D01*
X163496996Y-107844360D01*
X163382889Y-107797095D01*
X163261754Y-107773000D01*
X163138246Y-107773000D01*
X163017111Y-107797095D01*
X162903004Y-107844360D01*
X162800311Y-107912977D01*
X162712977Y-108000311D01*
X162644360Y-108103004D01*
X162597095Y-108217111D01*
X162573000Y-108338246D01*
X138528076Y-108338246D01*
X138555640Y-108296994D01*
X138602905Y-108182887D01*
X138627000Y-108061752D01*
X138627000Y-107938244D01*
X138602905Y-107817109D01*
X138555640Y-107703002D01*
X138487023Y-107600309D01*
X138399689Y-107512975D01*
X138296996Y-107444358D01*
X138282241Y-107438246D01*
X144873000Y-107438246D01*
X144873000Y-107561754D01*
X144897095Y-107682889D01*
X144944360Y-107796996D01*
X145012977Y-107899689D01*
X145100311Y-107987023D01*
X145203004Y-108055640D01*
X145317111Y-108102905D01*
X145438246Y-108127000D01*
X145561754Y-108127000D01*
X145682889Y-108102905D01*
X145796996Y-108055640D01*
X145899689Y-107987023D01*
X145987023Y-107899689D01*
X146055640Y-107796996D01*
X146102905Y-107682889D01*
X146111784Y-107638246D01*
X149073000Y-107638246D01*
X149073000Y-107761754D01*
X149097095Y-107882889D01*
X149144360Y-107996996D01*
X149212977Y-108099689D01*
X149300311Y-108187023D01*
X149403004Y-108255640D01*
X149517111Y-108302905D01*
X149638246Y-108327000D01*
X149761754Y-108327000D01*
X149882889Y-108302905D01*
X149996996Y-108255640D01*
X150099689Y-108187023D01*
X150187023Y-108099689D01*
X150255640Y-107996996D01*
X150302905Y-107882889D01*
X150327000Y-107761754D01*
X150327000Y-107638246D01*
X150302905Y-107517111D01*
X150255640Y-107403004D01*
X150187023Y-107300311D01*
X150099689Y-107212977D01*
X149996996Y-107144360D01*
X149882889Y-107097095D01*
X149761754Y-107073000D01*
X149638246Y-107073000D01*
X149517111Y-107097095D01*
X149403004Y-107144360D01*
X149300311Y-107212977D01*
X149212977Y-107300311D01*
X149144360Y-107403004D01*
X149097095Y-107517111D01*
X149073000Y-107638246D01*
X146111784Y-107638246D01*
X146127000Y-107561754D01*
X146127000Y-107438246D01*
X146102905Y-107317111D01*
X146055640Y-107203004D01*
X145987023Y-107100311D01*
X145899689Y-107012977D01*
X145796996Y-106944360D01*
X145682889Y-106897095D01*
X145561754Y-106873000D01*
X145438246Y-106873000D01*
X145317111Y-106897095D01*
X145203004Y-106944360D01*
X145100311Y-107012977D01*
X145012977Y-107100311D01*
X144944360Y-107203004D01*
X144897095Y-107317111D01*
X144873000Y-107438246D01*
X138282241Y-107438246D01*
X138182889Y-107397093D01*
X138061754Y-107372998D01*
X137938246Y-107372998D01*
X137817111Y-107397093D01*
X137703004Y-107444358D01*
X137600311Y-107512975D01*
X137512977Y-107600309D01*
X137444360Y-107703002D01*
X137397095Y-107817109D01*
X137373000Y-107938244D01*
X134787760Y-107938244D01*
X134737023Y-107862311D01*
X134649689Y-107774977D01*
X134546996Y-107706360D01*
X134432889Y-107659095D01*
X134311754Y-107635000D01*
X134188246Y-107635000D01*
X134067111Y-107659095D01*
X133953004Y-107706360D01*
X133850311Y-107774977D01*
X133762977Y-107862311D01*
X133694360Y-107965004D01*
X133647095Y-108079111D01*
X133623000Y-108200246D01*
X129352659Y-108200246D01*
X129352997Y-105983246D01*
X145423000Y-105983246D01*
X145423000Y-106106754D01*
X145447095Y-106227889D01*
X145494360Y-106341996D01*
X145562977Y-106444689D01*
X145650311Y-106532023D01*
X145753004Y-106600640D01*
X145867111Y-106647905D01*
X145988246Y-106672000D01*
X146111754Y-106672000D01*
X146232889Y-106647905D01*
X146304491Y-106618246D01*
X149995000Y-106618246D01*
X149995000Y-106741754D01*
X150019095Y-106862889D01*
X150066360Y-106976996D01*
X150134977Y-107079689D01*
X150222311Y-107167023D01*
X150325004Y-107235640D01*
X150439111Y-107282905D01*
X150560246Y-107307000D01*
X150683754Y-107307000D01*
X150804889Y-107282905D01*
X150912704Y-107238246D01*
X152673000Y-107238246D01*
X152673000Y-107361754D01*
X152697095Y-107482889D01*
X152744360Y-107596996D01*
X152812977Y-107699689D01*
X152900311Y-107787023D01*
X153003004Y-107855640D01*
X153117111Y-107902905D01*
X153238246Y-107927000D01*
X153361754Y-107927000D01*
X153482889Y-107902905D01*
X153596996Y-107855640D01*
X153699689Y-107787023D01*
X153787023Y-107699689D01*
X153855640Y-107596996D01*
X153902905Y-107482889D01*
X153927000Y-107361754D01*
X153927000Y-107238246D01*
X153902905Y-107117111D01*
X153855640Y-107003004D01*
X153787023Y-106900311D01*
X153758958Y-106872246D01*
X162441000Y-106872246D01*
X162441000Y-106995754D01*
X162465095Y-107116889D01*
X162512360Y-107230996D01*
X162580977Y-107333689D01*
X162668311Y-107421023D01*
X162771004Y-107489640D01*
X162885111Y-107536905D01*
X163006246Y-107561000D01*
X163129754Y-107561000D01*
X163250889Y-107536905D01*
X163364996Y-107489640D01*
X163467689Y-107421023D01*
X163555023Y-107333689D01*
X163623640Y-107230996D01*
X163670905Y-107116889D01*
X163695000Y-106995754D01*
X163695000Y-106872246D01*
X163670905Y-106751111D01*
X163623640Y-106637004D01*
X163555023Y-106534311D01*
X163467689Y-106446977D01*
X163364996Y-106378360D01*
X163250889Y-106331095D01*
X163129754Y-106307000D01*
X163006246Y-106307000D01*
X162885111Y-106331095D01*
X162771004Y-106378360D01*
X162668311Y-106446977D01*
X162580977Y-106534311D01*
X162512360Y-106637004D01*
X162465095Y-106751111D01*
X162441000Y-106872246D01*
X153758958Y-106872246D01*
X153699689Y-106812977D01*
X153596996Y-106744360D01*
X153482889Y-106697095D01*
X153361754Y-106673000D01*
X153238246Y-106673000D01*
X153117111Y-106697095D01*
X153003004Y-106744360D01*
X152900311Y-106812977D01*
X152812977Y-106900311D01*
X152744360Y-107003004D01*
X152697095Y-107117111D01*
X152673000Y-107238246D01*
X150912704Y-107238246D01*
X150918996Y-107235640D01*
X151021689Y-107167023D01*
X151109023Y-107079689D01*
X151177640Y-106976996D01*
X151224905Y-106862889D01*
X151249000Y-106741754D01*
X151249000Y-106618246D01*
X151224905Y-106497111D01*
X151177640Y-106383004D01*
X151109023Y-106280311D01*
X151021689Y-106192977D01*
X150918996Y-106124360D01*
X150804889Y-106077095D01*
X150683754Y-106053000D01*
X150560246Y-106053000D01*
X150439111Y-106077095D01*
X150325004Y-106124360D01*
X150222311Y-106192977D01*
X150134977Y-106280311D01*
X150066360Y-106383004D01*
X150019095Y-106497111D01*
X149995000Y-106618246D01*
X146304491Y-106618246D01*
X146346996Y-106600640D01*
X146449689Y-106532023D01*
X146537023Y-106444689D01*
X146605640Y-106341996D01*
X146652905Y-106227889D01*
X146677000Y-106106754D01*
X146677000Y-105983246D01*
X146652905Y-105862111D01*
X146605640Y-105748004D01*
X146537023Y-105645311D01*
X146449689Y-105557977D01*
X146346996Y-105489360D01*
X146232889Y-105442095D01*
X146111754Y-105418000D01*
X145988246Y-105418000D01*
X145867111Y-105442095D01*
X145753004Y-105489360D01*
X145650311Y-105557977D01*
X145562977Y-105645311D01*
X145494360Y-105748004D01*
X145447095Y-105862111D01*
X145423000Y-105983246D01*
X129352997Y-105983246D01*
X129353094Y-105348246D01*
X159139000Y-105348246D01*
X159139000Y-105471754D01*
X159163095Y-105592889D01*
X159210360Y-105706996D01*
X159278977Y-105809689D01*
X159366311Y-105897023D01*
X159469004Y-105965640D01*
X159583111Y-106012905D01*
X159704246Y-106037000D01*
X159827754Y-106037000D01*
X159948889Y-106012905D01*
X160062996Y-105965640D01*
X160165689Y-105897023D01*
X160253023Y-105809689D01*
X160321640Y-105706996D01*
X160368905Y-105592889D01*
X160393000Y-105471754D01*
X160393000Y-105348246D01*
X160386736Y-105316754D01*
X160438246Y-105327000D01*
X160561754Y-105327000D01*
X160682889Y-105302905D01*
X160796996Y-105255640D01*
X160899689Y-105187023D01*
X160987023Y-105099689D01*
X161055640Y-104996996D01*
X161102905Y-104882889D01*
X161110084Y-104846796D01*
X161144311Y-104881023D01*
X161247004Y-104949640D01*
X161361111Y-104996905D01*
X161482246Y-105021000D01*
X161605754Y-105021000D01*
X161726889Y-104996905D01*
X161840996Y-104949640D01*
X161943689Y-104881023D01*
X162031023Y-104793689D01*
X162099640Y-104690996D01*
X162146905Y-104576889D01*
X162171000Y-104455754D01*
X162171000Y-104332246D01*
X162146905Y-104211111D01*
X162099640Y-104097004D01*
X162031023Y-103994311D01*
X161943689Y-103906977D01*
X161840996Y-103838360D01*
X161726889Y-103791095D01*
X161605754Y-103767000D01*
X161482246Y-103767000D01*
X161361111Y-103791095D01*
X161247004Y-103838360D01*
X161144311Y-103906977D01*
X161056977Y-103994311D01*
X160988360Y-104097004D01*
X160941095Y-104211111D01*
X160933916Y-104247204D01*
X160899689Y-104212977D01*
X160796996Y-104144360D01*
X160682889Y-104097095D01*
X160561754Y-104073000D01*
X160438246Y-104073000D01*
X160317111Y-104097095D01*
X160203004Y-104144360D01*
X160100311Y-104212977D01*
X160012977Y-104300311D01*
X159944360Y-104403004D01*
X159897095Y-104517111D01*
X159873000Y-104638246D01*
X159873000Y-104761754D01*
X159879264Y-104793246D01*
X159827754Y-104783000D01*
X159704246Y-104783000D01*
X159583111Y-104807095D01*
X159469004Y-104854360D01*
X159366311Y-104922977D01*
X159278977Y-105010311D01*
X159210360Y-105113004D01*
X159163095Y-105227111D01*
X159139000Y-105348246D01*
X129353094Y-105348246D01*
X129353211Y-104586246D01*
X132570900Y-104586246D01*
X132570900Y-104709754D01*
X132594995Y-104830889D01*
X132642260Y-104944996D01*
X132710877Y-105047689D01*
X132798211Y-105135023D01*
X132900904Y-105203640D01*
X133015011Y-105250905D01*
X133136146Y-105275000D01*
X133259654Y-105275000D01*
X133380789Y-105250905D01*
X133494896Y-105203640D01*
X133597589Y-105135023D01*
X133684923Y-105047689D01*
X133753540Y-104944996D01*
X133800805Y-104830889D01*
X133824900Y-104709754D01*
X133824900Y-104586246D01*
X133800805Y-104465111D01*
X133762570Y-104372804D01*
X135016264Y-104372804D01*
X135016264Y-104496312D01*
X135040359Y-104617447D01*
X135087624Y-104731554D01*
X135156241Y-104834247D01*
X135243575Y-104921581D01*
X135346268Y-104990198D01*
X135460375Y-105037463D01*
X135581510Y-105061558D01*
X135705018Y-105061558D01*
X135826153Y-105037463D01*
X135940260Y-104990198D01*
X136042953Y-104921581D01*
X136130287Y-104834247D01*
X136161182Y-104788009D01*
X136164977Y-104793689D01*
X136252311Y-104881023D01*
X136355004Y-104949640D01*
X136469111Y-104996905D01*
X136590246Y-105021000D01*
X136713754Y-105021000D01*
X136834889Y-104996905D01*
X136948996Y-104949640D01*
X137051689Y-104881023D01*
X137139023Y-104793689D01*
X137207640Y-104690996D01*
X137254905Y-104576889D01*
X137279000Y-104455754D01*
X137279000Y-104438246D01*
X137473000Y-104438246D01*
X137473000Y-104561754D01*
X137497095Y-104682889D01*
X137544360Y-104796996D01*
X137612977Y-104899689D01*
X137700311Y-104987023D01*
X137803004Y-105055640D01*
X137917111Y-105102905D01*
X138038246Y-105127000D01*
X138161754Y-105127000D01*
X138282889Y-105102905D01*
X138396996Y-105055640D01*
X138499689Y-104987023D01*
X138587023Y-104899689D01*
X138655640Y-104796996D01*
X138702905Y-104682889D01*
X138727000Y-104561754D01*
X138727000Y-104438246D01*
X138705916Y-104332246D01*
X138819000Y-104332246D01*
X138819000Y-104455754D01*
X138843095Y-104576889D01*
X138890360Y-104690996D01*
X138958977Y-104793689D01*
X139046311Y-104881023D01*
X139149004Y-104949640D01*
X139263111Y-104996905D01*
X139384246Y-105021000D01*
X139507754Y-105021000D01*
X139628889Y-104996905D01*
X139742996Y-104949640D01*
X139845689Y-104881023D01*
X139933023Y-104793689D01*
X140001640Y-104690996D01*
X140043149Y-104590784D01*
X142125667Y-104590784D01*
X142125667Y-104714292D01*
X142149762Y-104835427D01*
X142197027Y-104949534D01*
X142265644Y-105052227D01*
X142352978Y-105139561D01*
X142455671Y-105208178D01*
X142569778Y-105255443D01*
X142690913Y-105279538D01*
X142814421Y-105279538D01*
X142935556Y-105255443D01*
X143049663Y-105208178D01*
X143152356Y-105139561D01*
X143239690Y-105052227D01*
X143259850Y-105022056D01*
X143276977Y-105047689D01*
X143364311Y-105135023D01*
X143467004Y-105203640D01*
X143581111Y-105250905D01*
X143702246Y-105275000D01*
X143825754Y-105275000D01*
X143946889Y-105250905D01*
X144060996Y-105203640D01*
X144163689Y-105135023D01*
X144251023Y-105047689D01*
X144319640Y-104944996D01*
X144366905Y-104830889D01*
X144391000Y-104709754D01*
X144391000Y-104586246D01*
X144366905Y-104465111D01*
X144319640Y-104351004D01*
X144307107Y-104332246D01*
X149741000Y-104332246D01*
X149741000Y-104455754D01*
X149765095Y-104576889D01*
X149812360Y-104690996D01*
X149880977Y-104793689D01*
X149968311Y-104881023D01*
X150071004Y-104949640D01*
X150185111Y-104996905D01*
X150306246Y-105021000D01*
X150429754Y-105021000D01*
X150550889Y-104996905D01*
X150664996Y-104949640D01*
X150767689Y-104881023D01*
X150855023Y-104793689D01*
X150923640Y-104690996D01*
X150970905Y-104576889D01*
X150995000Y-104455754D01*
X150995000Y-104332246D01*
X152789000Y-104332246D01*
X152789000Y-104455754D01*
X152813095Y-104576889D01*
X152860360Y-104690996D01*
X152928977Y-104793689D01*
X153016311Y-104881023D01*
X153119004Y-104949640D01*
X153233111Y-104996905D01*
X153354246Y-105021000D01*
X153477754Y-105021000D01*
X153598889Y-104996905D01*
X153712996Y-104949640D01*
X153815689Y-104881023D01*
X153903023Y-104793689D01*
X153971640Y-104690996D01*
X154018905Y-104576889D01*
X154043000Y-104455754D01*
X154043000Y-104332246D01*
X155583000Y-104332246D01*
X155583000Y-104455754D01*
X155607095Y-104576889D01*
X155654360Y-104690996D01*
X155722977Y-104793689D01*
X155810311Y-104881023D01*
X155913004Y-104949640D01*
X156027111Y-104996905D01*
X156148246Y-105021000D01*
X156271754Y-105021000D01*
X156392889Y-104996905D01*
X156506996Y-104949640D01*
X156609689Y-104881023D01*
X156697023Y-104793689D01*
X156765640Y-104690996D01*
X156812905Y-104576889D01*
X156837000Y-104455754D01*
X156837000Y-104332246D01*
X156812905Y-104211111D01*
X156765640Y-104097004D01*
X156697023Y-103994311D01*
X156609689Y-103906977D01*
X156506996Y-103838360D01*
X156392889Y-103791095D01*
X156271754Y-103767000D01*
X156148246Y-103767000D01*
X156027111Y-103791095D01*
X155913004Y-103838360D01*
X155810311Y-103906977D01*
X155722977Y-103994311D01*
X155654360Y-104097004D01*
X155607095Y-104211111D01*
X155583000Y-104332246D01*
X154043000Y-104332246D01*
X154018905Y-104211111D01*
X153971640Y-104097004D01*
X153903023Y-103994311D01*
X153815689Y-103906977D01*
X153712996Y-103838360D01*
X153598889Y-103791095D01*
X153477754Y-103767000D01*
X153354246Y-103767000D01*
X153233111Y-103791095D01*
X153119004Y-103838360D01*
X153016311Y-103906977D01*
X152928977Y-103994311D01*
X152860360Y-104097004D01*
X152813095Y-104211111D01*
X152789000Y-104332246D01*
X150995000Y-104332246D01*
X150970905Y-104211111D01*
X150923640Y-104097004D01*
X150855023Y-103994311D01*
X150767689Y-103906977D01*
X150664996Y-103838360D01*
X150550889Y-103791095D01*
X150429754Y-103767000D01*
X150306246Y-103767000D01*
X150185111Y-103791095D01*
X150071004Y-103838360D01*
X149968311Y-103906977D01*
X149880977Y-103994311D01*
X149812360Y-104097004D01*
X149765095Y-104211111D01*
X149741000Y-104332246D01*
X144307107Y-104332246D01*
X144251023Y-104248311D01*
X144163689Y-104160977D01*
X144060996Y-104092360D01*
X143946889Y-104045095D01*
X143825754Y-104021000D01*
X143702246Y-104021000D01*
X143581111Y-104045095D01*
X143467004Y-104092360D01*
X143364311Y-104160977D01*
X143276977Y-104248311D01*
X143256817Y-104278482D01*
X143239690Y-104252849D01*
X143152356Y-104165515D01*
X143049663Y-104096898D01*
X142935556Y-104049633D01*
X142814421Y-104025538D01*
X142690913Y-104025538D01*
X142569778Y-104049633D01*
X142455671Y-104096898D01*
X142352978Y-104165515D01*
X142265644Y-104252849D01*
X142197027Y-104355542D01*
X142149762Y-104469649D01*
X142125667Y-104590784D01*
X140043149Y-104590784D01*
X140048905Y-104576889D01*
X140073000Y-104455754D01*
X140073000Y-104332246D01*
X140048905Y-104211111D01*
X140001640Y-104097004D01*
X139933023Y-103994311D01*
X139845689Y-103906977D01*
X139742996Y-103838360D01*
X139628889Y-103791095D01*
X139507754Y-103767000D01*
X139384246Y-103767000D01*
X139263111Y-103791095D01*
X139149004Y-103838360D01*
X139046311Y-103906977D01*
X138958977Y-103994311D01*
X138890360Y-104097004D01*
X138843095Y-104211111D01*
X138819000Y-104332246D01*
X138705916Y-104332246D01*
X138702905Y-104317111D01*
X138655640Y-104203004D01*
X138587023Y-104100311D01*
X138499689Y-104012977D01*
X138396996Y-103944360D01*
X138282889Y-103897095D01*
X138161754Y-103873000D01*
X138038246Y-103873000D01*
X137917111Y-103897095D01*
X137803004Y-103944360D01*
X137700311Y-104012977D01*
X137612977Y-104100311D01*
X137544360Y-104203004D01*
X137497095Y-104317111D01*
X137473000Y-104438246D01*
X137279000Y-104438246D01*
X137279000Y-104332246D01*
X137254905Y-104211111D01*
X137207640Y-104097004D01*
X137139023Y-103994311D01*
X137051689Y-103906977D01*
X136948996Y-103838360D01*
X136834889Y-103791095D01*
X136713754Y-103767000D01*
X136590246Y-103767000D01*
X136469111Y-103791095D01*
X136355004Y-103838360D01*
X136252311Y-103906977D01*
X136164977Y-103994311D01*
X136134082Y-104040549D01*
X136130287Y-104034869D01*
X136042953Y-103947535D01*
X135940260Y-103878918D01*
X135826153Y-103831653D01*
X135705018Y-103807558D01*
X135581510Y-103807558D01*
X135460375Y-103831653D01*
X135346268Y-103878918D01*
X135243575Y-103947535D01*
X135156241Y-104034869D01*
X135087624Y-104137562D01*
X135040359Y-104251669D01*
X135016264Y-104372804D01*
X133762570Y-104372804D01*
X133753540Y-104351004D01*
X133684923Y-104248311D01*
X133597589Y-104160977D01*
X133494896Y-104092360D01*
X133380789Y-104045095D01*
X133259654Y-104021000D01*
X133136146Y-104021000D01*
X133015011Y-104045095D01*
X132900904Y-104092360D01*
X132798211Y-104160977D01*
X132710877Y-104248311D01*
X132642260Y-104351004D01*
X132594995Y-104465111D01*
X132570900Y-104586246D01*
X129353211Y-104586246D01*
X129353835Y-100503000D01*
X166196939Y-100503000D01*
X166195604Y-109890952D01*
%TD*%
M02*
