%TF.GenerationSoftware,KiCad,Pcbnew,(5.1.6)-1*%
%TF.CreationDate,2021-02-17T18:40:25-08:00*%
%TF.ProjectId,kg-cable-asl,6b672d63-6162-46c6-952d-61736c2e6b69,rev?*%
%TF.SameCoordinates,Original*%
%TF.FileFunction,Legend,Bot*%
%TF.FilePolarity,Positive*%
%FSLAX46Y46*%
G04 Gerber Fmt 4.6, Leading zero omitted, Abs format (unit mm)*
G04 Created by KiCad (PCBNEW (5.1.6)-1) date 2021-02-17 18:40:25*
%MOMM*%
%LPD*%
G01*
G04 APERTURE LIST*
%ADD10C,0.120000*%
%ADD11C,0.100000*%
G04 APERTURE END LIST*
D10*
%TO.C,R7*%
X152026648Y-106210000D02*
X152549152Y-106210000D01*
X152026648Y-104790000D02*
X152549152Y-104790000D01*
%TO.C,R6*%
X156846648Y-106210000D02*
X157369152Y-106210000D01*
X156846648Y-104790000D02*
X157369152Y-104790000D01*
%TO.C,R5*%
X147988748Y-106210000D02*
X148511252Y-106210000D01*
X147988748Y-104790000D02*
X148511252Y-104790000D01*
%TO.C,R4*%
X160529748Y-107960000D02*
X161052252Y-107960000D01*
X160529748Y-106540000D02*
X161052252Y-106540000D01*
%TO.C,R3*%
X140761252Y-104790000D02*
X140238748Y-104790000D01*
X140761252Y-106210000D02*
X140238748Y-106210000D01*
%TO.C,R2*%
X162386648Y-106210000D02*
X162909152Y-106210000D01*
X162386648Y-104790000D02*
X162909152Y-104790000D01*
%TO.C,R1*%
X135406648Y-106120000D02*
X135929152Y-106120000D01*
X135406648Y-104700000D02*
X135929152Y-104700000D01*
%TO.C,JP7*%
X138400000Y-114730000D02*
G75*
G03*
X137700000Y-114030000I-700000J0D01*
G01*
X137700000Y-116030000D02*
G75*
G03*
X138400000Y-115330000I0J700000D01*
G01*
X135600000Y-115330000D02*
G75*
G03*
X136300000Y-116030000I700000J0D01*
G01*
X136300000Y-114030000D02*
G75*
G03*
X135600000Y-114730000I0J-700000D01*
G01*
X138400000Y-115330000D02*
X138400000Y-114730000D01*
X136300000Y-116030000D02*
X137700000Y-116030000D01*
X135600000Y-114730000D02*
X135600000Y-115330000D01*
X137700000Y-114030000D02*
X136300000Y-114030000D01*
%TO.C,R7*%
D11*
X152404566Y-107466666D02*
X152637900Y-107133333D01*
X152804566Y-107466666D02*
X152804566Y-106766666D01*
X152537900Y-106766666D01*
X152471233Y-106800000D01*
X152437900Y-106833333D01*
X152404566Y-106900000D01*
X152404566Y-107000000D01*
X152437900Y-107066666D01*
X152471233Y-107100000D01*
X152537900Y-107133333D01*
X152804566Y-107133333D01*
X152171233Y-106766666D02*
X151704566Y-106766666D01*
X152004566Y-107466666D01*
%TO.C,R6*%
X157224566Y-107466666D02*
X157457900Y-107133333D01*
X157624566Y-107466666D02*
X157624566Y-106766666D01*
X157357900Y-106766666D01*
X157291233Y-106800000D01*
X157257900Y-106833333D01*
X157224566Y-106900000D01*
X157224566Y-107000000D01*
X157257900Y-107066666D01*
X157291233Y-107100000D01*
X157357900Y-107133333D01*
X157624566Y-107133333D01*
X156624566Y-106766666D02*
X156757900Y-106766666D01*
X156824566Y-106800000D01*
X156857900Y-106833333D01*
X156924566Y-106933333D01*
X156957900Y-107066666D01*
X156957900Y-107333333D01*
X156924566Y-107400000D01*
X156891233Y-107433333D01*
X156824566Y-107466666D01*
X156691233Y-107466666D01*
X156624566Y-107433333D01*
X156591233Y-107400000D01*
X156557900Y-107333333D01*
X156557900Y-107166666D01*
X156591233Y-107100000D01*
X156624566Y-107066666D01*
X156691233Y-107033333D01*
X156824566Y-107033333D01*
X156891233Y-107066666D01*
X156924566Y-107100000D01*
X156957900Y-107166666D01*
%TO.C,R5*%
X148366666Y-107466666D02*
X148600000Y-107133333D01*
X148766666Y-107466666D02*
X148766666Y-106766666D01*
X148500000Y-106766666D01*
X148433333Y-106800000D01*
X148400000Y-106833333D01*
X148366666Y-106900000D01*
X148366666Y-107000000D01*
X148400000Y-107066666D01*
X148433333Y-107100000D01*
X148500000Y-107133333D01*
X148766666Y-107133333D01*
X147733333Y-106766666D02*
X148066666Y-106766666D01*
X148100000Y-107100000D01*
X148066666Y-107066666D01*
X148000000Y-107033333D01*
X147833333Y-107033333D01*
X147766666Y-107066666D01*
X147733333Y-107100000D01*
X147700000Y-107166666D01*
X147700000Y-107333333D01*
X147733333Y-107400000D01*
X147766666Y-107433333D01*
X147833333Y-107466666D01*
X148000000Y-107466666D01*
X148066666Y-107433333D01*
X148100000Y-107400000D01*
%TO.C,R4*%
X160907666Y-109216666D02*
X161141000Y-108883333D01*
X161307666Y-109216666D02*
X161307666Y-108516666D01*
X161041000Y-108516666D01*
X160974333Y-108550000D01*
X160941000Y-108583333D01*
X160907666Y-108650000D01*
X160907666Y-108750000D01*
X160941000Y-108816666D01*
X160974333Y-108850000D01*
X161041000Y-108883333D01*
X161307666Y-108883333D01*
X160307666Y-108750000D02*
X160307666Y-109216666D01*
X160474333Y-108483333D02*
X160641000Y-108983333D01*
X160207666Y-108983333D01*
%TO.C,R3*%
X140516666Y-107416666D02*
X140750000Y-107083333D01*
X140916666Y-107416666D02*
X140916666Y-106716666D01*
X140650000Y-106716666D01*
X140583333Y-106750000D01*
X140550000Y-106783333D01*
X140516666Y-106850000D01*
X140516666Y-106950000D01*
X140550000Y-107016666D01*
X140583333Y-107050000D01*
X140650000Y-107083333D01*
X140916666Y-107083333D01*
X140283333Y-106716666D02*
X139850000Y-106716666D01*
X140083333Y-106983333D01*
X139983333Y-106983333D01*
X139916666Y-107016666D01*
X139883333Y-107050000D01*
X139850000Y-107116666D01*
X139850000Y-107283333D01*
X139883333Y-107350000D01*
X139916666Y-107383333D01*
X139983333Y-107416666D01*
X140183333Y-107416666D01*
X140250000Y-107383333D01*
X140283333Y-107350000D01*
%TO.C,R2*%
X163916666Y-107316666D02*
X164150000Y-106983333D01*
X164316666Y-107316666D02*
X164316666Y-106616666D01*
X164050000Y-106616666D01*
X163983333Y-106650000D01*
X163950000Y-106683333D01*
X163916666Y-106750000D01*
X163916666Y-106850000D01*
X163950000Y-106916666D01*
X163983333Y-106950000D01*
X164050000Y-106983333D01*
X164316666Y-106983333D01*
X163650000Y-106683333D02*
X163616666Y-106650000D01*
X163550000Y-106616666D01*
X163383333Y-106616666D01*
X163316666Y-106650000D01*
X163283333Y-106683333D01*
X163250000Y-106750000D01*
X163250000Y-106816666D01*
X163283333Y-106916666D01*
X163683333Y-107316666D01*
X163250000Y-107316666D01*
%TO.C,R1*%
X135784566Y-107376666D02*
X136017900Y-107043333D01*
X136184566Y-107376666D02*
X136184566Y-106676666D01*
X135917900Y-106676666D01*
X135851233Y-106710000D01*
X135817900Y-106743333D01*
X135784566Y-106810000D01*
X135784566Y-106910000D01*
X135817900Y-106976666D01*
X135851233Y-107010000D01*
X135917900Y-107043333D01*
X136184566Y-107043333D01*
X135117900Y-107376666D02*
X135517900Y-107376666D01*
X135317900Y-107376666D02*
X135317900Y-106676666D01*
X135384566Y-106776666D01*
X135451233Y-106843333D01*
X135517900Y-106876666D01*
%TO.C,JP7*%
X137583333Y-113016666D02*
X137583333Y-113516666D01*
X137616666Y-113616666D01*
X137683333Y-113683333D01*
X137783333Y-113716666D01*
X137850000Y-113716666D01*
X137250000Y-113716666D02*
X137250000Y-113016666D01*
X136983333Y-113016666D01*
X136916666Y-113050000D01*
X136883333Y-113083333D01*
X136850000Y-113150000D01*
X136850000Y-113250000D01*
X136883333Y-113316666D01*
X136916666Y-113350000D01*
X136983333Y-113383333D01*
X137250000Y-113383333D01*
X136616666Y-113016666D02*
X136150000Y-113016666D01*
X136450000Y-113716666D01*
%TD*%
M02*
