M48
; DRILL file {KiCad (5.1.6)-1} date 02/17/21 18:40:31
; FORMAT={-:-/ absolute / inch / decimal}
; #@! TF.CreationDate,2021-02-17T18:40:31-08:00
; #@! TF.GenerationSoftware,Kicad,Pcbnew,(5.1.6)-1
; #@! TF.FileFunction,Plated,1,4,PTH
FMAT,2
INCH
T1C0.0118
T2C0.0315
%
G90
G05
T1
X5.13Y-4.14
X5.13Y-4.18
X5.17Y-4.14
X5.17Y-4.18
X5.244Y-4.12
X5.2854Y-4.2623
X5.3403Y-4.1116
X5.3543Y-4.3406
X5.38Y-4.11
X5.4331Y-4.252
X5.437Y-4.1142
X5.49Y-4.11
X5.6142Y-4.3937
X5.6202Y-4.1202
X5.66Y-4.12
X5.6811Y-4.3819
X5.7283Y-4.2323
X5.75Y-4.175
X5.7776Y-4.3799
X5.8465Y-4.2008
X5.8937Y-4.2402
X5.92Y-4.11
X5.93Y-4.2
X5.9409Y-4.2677
X5.9409Y-4.3661
X5.9882Y-4.2362
X6.0354Y-4.2244
X6.04Y-4.11
X6.0519Y-4.3452
X6.0852Y-4.3114
X6.1496Y-4.3356
X6.15Y-4.11
X6.2283Y-4.2087
X6.29Y-4.15
X6.3189Y-4.122
X6.36Y-4.11
X6.378Y-4.2717
X6.42Y-4.21
X6.4252Y-4.2677
X6.4252Y-4.3071
T2
X5.5422Y-4.45
X5.5422Y-4.5287
X5.621Y-4.45
X5.621Y-4.5287
X5.6997Y-4.45
X5.6997Y-4.5287
X5.7785Y-4.45
X5.7785Y-4.5287
X5.8572Y-4.45
X5.8572Y-4.5287
X5.9359Y-4.45
X5.9359Y-4.5287
X6.0147Y-4.45
X6.0147Y-4.5287
X6.0934Y-4.45
X6.0934Y-4.5287
T0
M30
