%TF.GenerationSoftware,KiCad,Pcbnew,(5.1.6)-1*%
%TF.CreationDate,2021-02-17T18:40:25-08:00*%
%TF.ProjectId,kg-cable-asl,6b672d63-6162-46c6-952d-61736c2e6b69,rev?*%
%TF.SameCoordinates,Original*%
%TF.FileFunction,Paste,Bot*%
%TF.FilePolarity,Positive*%
%FSLAX46Y46*%
G04 Gerber Fmt 4.6, Leading zero omitted, Abs format (unit mm)*
G04 Created by KiCad (PCBNEW (5.1.6)-1) date 2021-02-17 18:40:25*
%MOMM*%
%LPD*%
G01*
G04 APERTURE LIST*
%ADD10R,1.846667X3.480000*%
G04 APERTURE END LIST*
%TO.C,R7*%
G36*
G01*
X152737900Y-105950001D02*
X152737900Y-105049999D01*
G75*
G02*
X152987899Y-104800000I249999J0D01*
G01*
X153637901Y-104800000D01*
G75*
G02*
X153887900Y-105049999I0J-249999D01*
G01*
X153887900Y-105950001D01*
G75*
G02*
X153637901Y-106200000I-249999J0D01*
G01*
X152987899Y-106200000D01*
G75*
G02*
X152737900Y-105950001I0J249999D01*
G01*
G37*
G36*
G01*
X150687900Y-105950001D02*
X150687900Y-105049999D01*
G75*
G02*
X150937899Y-104800000I249999J0D01*
G01*
X151587901Y-104800000D01*
G75*
G02*
X151837900Y-105049999I0J-249999D01*
G01*
X151837900Y-105950001D01*
G75*
G02*
X151587901Y-106200000I-249999J0D01*
G01*
X150937899Y-106200000D01*
G75*
G02*
X150687900Y-105950001I0J249999D01*
G01*
G37*
%TD*%
%TO.C,R6*%
G36*
G01*
X157557900Y-105950001D02*
X157557900Y-105049999D01*
G75*
G02*
X157807899Y-104800000I249999J0D01*
G01*
X158457901Y-104800000D01*
G75*
G02*
X158707900Y-105049999I0J-249999D01*
G01*
X158707900Y-105950001D01*
G75*
G02*
X158457901Y-106200000I-249999J0D01*
G01*
X157807899Y-106200000D01*
G75*
G02*
X157557900Y-105950001I0J249999D01*
G01*
G37*
G36*
G01*
X155507900Y-105950001D02*
X155507900Y-105049999D01*
G75*
G02*
X155757899Y-104800000I249999J0D01*
G01*
X156407901Y-104800000D01*
G75*
G02*
X156657900Y-105049999I0J-249999D01*
G01*
X156657900Y-105950001D01*
G75*
G02*
X156407901Y-106200000I-249999J0D01*
G01*
X155757899Y-106200000D01*
G75*
G02*
X155507900Y-105950001I0J249999D01*
G01*
G37*
%TD*%
%TO.C,R5*%
G36*
G01*
X148700000Y-105950001D02*
X148700000Y-105049999D01*
G75*
G02*
X148949999Y-104800000I249999J0D01*
G01*
X149600001Y-104800000D01*
G75*
G02*
X149850000Y-105049999I0J-249999D01*
G01*
X149850000Y-105950001D01*
G75*
G02*
X149600001Y-106200000I-249999J0D01*
G01*
X148949999Y-106200000D01*
G75*
G02*
X148700000Y-105950001I0J249999D01*
G01*
G37*
G36*
G01*
X146650000Y-105950001D02*
X146650000Y-105049999D01*
G75*
G02*
X146899999Y-104800000I249999J0D01*
G01*
X147550001Y-104800000D01*
G75*
G02*
X147800000Y-105049999I0J-249999D01*
G01*
X147800000Y-105950001D01*
G75*
G02*
X147550001Y-106200000I-249999J0D01*
G01*
X146899999Y-106200000D01*
G75*
G02*
X146650000Y-105950001I0J249999D01*
G01*
G37*
%TD*%
%TO.C,R4*%
G36*
G01*
X161241000Y-107700001D02*
X161241000Y-106799999D01*
G75*
G02*
X161490999Y-106550000I249999J0D01*
G01*
X162141001Y-106550000D01*
G75*
G02*
X162391000Y-106799999I0J-249999D01*
G01*
X162391000Y-107700001D01*
G75*
G02*
X162141001Y-107950000I-249999J0D01*
G01*
X161490999Y-107950000D01*
G75*
G02*
X161241000Y-107700001I0J249999D01*
G01*
G37*
G36*
G01*
X159191000Y-107700001D02*
X159191000Y-106799999D01*
G75*
G02*
X159440999Y-106550000I249999J0D01*
G01*
X160091001Y-106550000D01*
G75*
G02*
X160341000Y-106799999I0J-249999D01*
G01*
X160341000Y-107700001D01*
G75*
G02*
X160091001Y-107950000I-249999J0D01*
G01*
X159440999Y-107950000D01*
G75*
G02*
X159191000Y-107700001I0J249999D01*
G01*
G37*
%TD*%
%TO.C,R3*%
G36*
G01*
X140050000Y-105049999D02*
X140050000Y-105950001D01*
G75*
G02*
X139800001Y-106200000I-249999J0D01*
G01*
X139149999Y-106200000D01*
G75*
G02*
X138900000Y-105950001I0J249999D01*
G01*
X138900000Y-105049999D01*
G75*
G02*
X139149999Y-104800000I249999J0D01*
G01*
X139800001Y-104800000D01*
G75*
G02*
X140050000Y-105049999I0J-249999D01*
G01*
G37*
G36*
G01*
X142100000Y-105049999D02*
X142100000Y-105950001D01*
G75*
G02*
X141850001Y-106200000I-249999J0D01*
G01*
X141199999Y-106200000D01*
G75*
G02*
X140950000Y-105950001I0J249999D01*
G01*
X140950000Y-105049999D01*
G75*
G02*
X141199999Y-104800000I249999J0D01*
G01*
X141850001Y-104800000D01*
G75*
G02*
X142100000Y-105049999I0J-249999D01*
G01*
G37*
%TD*%
%TO.C,R2*%
G36*
G01*
X163097900Y-105950001D02*
X163097900Y-105049999D01*
G75*
G02*
X163347899Y-104800000I249999J0D01*
G01*
X163997901Y-104800000D01*
G75*
G02*
X164247900Y-105049999I0J-249999D01*
G01*
X164247900Y-105950001D01*
G75*
G02*
X163997901Y-106200000I-249999J0D01*
G01*
X163347899Y-106200000D01*
G75*
G02*
X163097900Y-105950001I0J249999D01*
G01*
G37*
G36*
G01*
X161047900Y-105950001D02*
X161047900Y-105049999D01*
G75*
G02*
X161297899Y-104800000I249999J0D01*
G01*
X161947901Y-104800000D01*
G75*
G02*
X162197900Y-105049999I0J-249999D01*
G01*
X162197900Y-105950001D01*
G75*
G02*
X161947901Y-106200000I-249999J0D01*
G01*
X161297899Y-106200000D01*
G75*
G02*
X161047900Y-105950001I0J249999D01*
G01*
G37*
%TD*%
%TO.C,R1*%
G36*
G01*
X136117900Y-105860001D02*
X136117900Y-104959999D01*
G75*
G02*
X136367899Y-104710000I249999J0D01*
G01*
X137017901Y-104710000D01*
G75*
G02*
X137267900Y-104959999I0J-249999D01*
G01*
X137267900Y-105860001D01*
G75*
G02*
X137017901Y-106110000I-249999J0D01*
G01*
X136367899Y-106110000D01*
G75*
G02*
X136117900Y-105860001I0J249999D01*
G01*
G37*
G36*
G01*
X134067900Y-105860001D02*
X134067900Y-104959999D01*
G75*
G02*
X134317899Y-104710000I249999J0D01*
G01*
X134967901Y-104710000D01*
G75*
G02*
X135217900Y-104959999I0J-249999D01*
G01*
X135217900Y-105860001D01*
G75*
G02*
X134967901Y-106110000I-249999J0D01*
G01*
X134317899Y-106110000D01*
G75*
G02*
X134067900Y-105860001I0J249999D01*
G01*
G37*
%TD*%
D10*
%TO.C,J2*%
X132537900Y-102108000D03*
X135307900Y-102108000D03*
X138077900Y-102108000D03*
X140847900Y-102108000D03*
X143617900Y-102108000D03*
X146387900Y-102108000D03*
X149157900Y-102108000D03*
X151927900Y-102108000D03*
X154697900Y-102108000D03*
X157467900Y-102108000D03*
X160237900Y-102108000D03*
X163007900Y-102108000D03*
%TD*%
M02*
