%TF.GenerationSoftware,KiCad,Pcbnew,(5.1.6)-1*%
%TF.CreationDate,2021-02-17T18:40:25-08:00*%
%TF.ProjectId,kg-cable-asl,6b672d63-6162-46c6-952d-61736c2e6b69,rev?*%
%TF.SameCoordinates,Original*%
%TF.FileFunction,Paste,Top*%
%TF.FilePolarity,Positive*%
%FSLAX46Y46*%
G04 Gerber Fmt 4.6, Leading zero omitted, Abs format (unit mm)*
G04 Created by KiCad (PCBNEW (5.1.6)-1) date 2021-02-17 18:40:25*
%MOMM*%
%LPD*%
G01*
G04 APERTURE LIST*
%ADD10R,1.846667X3.480000*%
G04 APERTURE END LIST*
%TO.C,R12*%
G36*
G01*
X139050000Y-110850001D02*
X139050000Y-109949999D01*
G75*
G02*
X139299999Y-109700000I249999J0D01*
G01*
X139950001Y-109700000D01*
G75*
G02*
X140200000Y-109949999I0J-249999D01*
G01*
X140200000Y-110850001D01*
G75*
G02*
X139950001Y-111100000I-249999J0D01*
G01*
X139299999Y-111100000D01*
G75*
G02*
X139050000Y-110850001I0J249999D01*
G01*
G37*
G36*
G01*
X137000000Y-110850001D02*
X137000000Y-109949999D01*
G75*
G02*
X137249999Y-109700000I249999J0D01*
G01*
X137900001Y-109700000D01*
G75*
G02*
X138150000Y-109949999I0J-249999D01*
G01*
X138150000Y-110850001D01*
G75*
G02*
X137900001Y-111100000I-249999J0D01*
G01*
X137249999Y-111100000D01*
G75*
G02*
X137000000Y-110850001I0J249999D01*
G01*
G37*
%TD*%
%TO.C,R11*%
G36*
G01*
X142700000Y-110850001D02*
X142700000Y-109949999D01*
G75*
G02*
X142949999Y-109700000I249999J0D01*
G01*
X143600001Y-109700000D01*
G75*
G02*
X143850000Y-109949999I0J-249999D01*
G01*
X143850000Y-110850001D01*
G75*
G02*
X143600001Y-111100000I-249999J0D01*
G01*
X142949999Y-111100000D01*
G75*
G02*
X142700000Y-110850001I0J249999D01*
G01*
G37*
G36*
G01*
X140650000Y-110850001D02*
X140650000Y-109949999D01*
G75*
G02*
X140899999Y-109700000I249999J0D01*
G01*
X141550001Y-109700000D01*
G75*
G02*
X141800000Y-109949999I0J-249999D01*
G01*
X141800000Y-110850001D01*
G75*
G02*
X141550001Y-111100000I-249999J0D01*
G01*
X140899999Y-111100000D01*
G75*
G02*
X140650000Y-110850001I0J249999D01*
G01*
G37*
%TD*%
%TO.C,C2*%
G36*
G01*
X141800000Y-108299999D02*
X141800000Y-109200001D01*
G75*
G02*
X141550001Y-109450000I-249999J0D01*
G01*
X140899999Y-109450000D01*
G75*
G02*
X140650000Y-109200001I0J249999D01*
G01*
X140650000Y-108299999D01*
G75*
G02*
X140899999Y-108050000I249999J0D01*
G01*
X141550001Y-108050000D01*
G75*
G02*
X141800000Y-108299999I0J-249999D01*
G01*
G37*
G36*
G01*
X143850000Y-108299999D02*
X143850000Y-109200001D01*
G75*
G02*
X143600001Y-109450000I-249999J0D01*
G01*
X142949999Y-109450000D01*
G75*
G02*
X142700000Y-109200001I0J249999D01*
G01*
X142700000Y-108299999D01*
G75*
G02*
X142949999Y-108050000I249999J0D01*
G01*
X143600001Y-108050000D01*
G75*
G02*
X143850000Y-108299999I0J-249999D01*
G01*
G37*
%TD*%
%TO.C,R10*%
G36*
G01*
X144964999Y-110305000D02*
X145865001Y-110305000D01*
G75*
G02*
X146115000Y-110554999I0J-249999D01*
G01*
X146115000Y-111205001D01*
G75*
G02*
X145865001Y-111455000I-249999J0D01*
G01*
X144964999Y-111455000D01*
G75*
G02*
X144715000Y-111205001I0J249999D01*
G01*
X144715000Y-110554999D01*
G75*
G02*
X144964999Y-110305000I249999J0D01*
G01*
G37*
G36*
G01*
X144964999Y-108255000D02*
X145865001Y-108255000D01*
G75*
G02*
X146115000Y-108504999I0J-249999D01*
G01*
X146115000Y-109155001D01*
G75*
G02*
X145865001Y-109405000I-249999J0D01*
G01*
X144964999Y-109405000D01*
G75*
G02*
X144715000Y-109155001I0J249999D01*
G01*
X144715000Y-108504999D01*
G75*
G02*
X144964999Y-108255000I249999J0D01*
G01*
G37*
%TD*%
%TO.C,R9*%
G36*
G01*
X148774999Y-110305000D02*
X149675001Y-110305000D01*
G75*
G02*
X149925000Y-110554999I0J-249999D01*
G01*
X149925000Y-111205001D01*
G75*
G02*
X149675001Y-111455000I-249999J0D01*
G01*
X148774999Y-111455000D01*
G75*
G02*
X148525000Y-111205001I0J249999D01*
G01*
X148525000Y-110554999D01*
G75*
G02*
X148774999Y-110305000I249999J0D01*
G01*
G37*
G36*
G01*
X148774999Y-108255000D02*
X149675001Y-108255000D01*
G75*
G02*
X149925000Y-108504999I0J-249999D01*
G01*
X149925000Y-109155001D01*
G75*
G02*
X149675001Y-109405000I-249999J0D01*
G01*
X148774999Y-109405000D01*
G75*
G02*
X148525000Y-109155001I0J249999D01*
G01*
X148525000Y-108504999D01*
G75*
G02*
X148774999Y-108255000I249999J0D01*
G01*
G37*
%TD*%
%TO.C,R8*%
G36*
G01*
X164842901Y-105976000D02*
X163942899Y-105976000D01*
G75*
G02*
X163692900Y-105726001I0J249999D01*
G01*
X163692900Y-105075999D01*
G75*
G02*
X163942899Y-104826000I249999J0D01*
G01*
X164842901Y-104826000D01*
G75*
G02*
X165092900Y-105075999I0J-249999D01*
G01*
X165092900Y-105726001D01*
G75*
G02*
X164842901Y-105976000I-249999J0D01*
G01*
G37*
G36*
G01*
X164842901Y-108026000D02*
X163942899Y-108026000D01*
G75*
G02*
X163692900Y-107776001I0J249999D01*
G01*
X163692900Y-107125999D01*
G75*
G02*
X163942899Y-106876000I249999J0D01*
G01*
X164842901Y-106876000D01*
G75*
G02*
X165092900Y-107125999I0J-249999D01*
G01*
X165092900Y-107776001D01*
G75*
G02*
X164842901Y-108026000I-249999J0D01*
G01*
G37*
%TD*%
%TO.C,C1*%
G36*
G01*
X150727500Y-109890000D02*
X151072500Y-109890000D01*
G75*
G02*
X151220000Y-110037500I0J-147500D01*
G01*
X151220000Y-110332500D01*
G75*
G02*
X151072500Y-110480000I-147500J0D01*
G01*
X150727500Y-110480000D01*
G75*
G02*
X150580000Y-110332500I0J147500D01*
G01*
X150580000Y-110037500D01*
G75*
G02*
X150727500Y-109890000I147500J0D01*
G01*
G37*
G36*
G01*
X150727500Y-108920000D02*
X151072500Y-108920000D01*
G75*
G02*
X151220000Y-109067500I0J-147500D01*
G01*
X151220000Y-109362500D01*
G75*
G02*
X151072500Y-109510000I-147500J0D01*
G01*
X150727500Y-109510000D01*
G75*
G02*
X150580000Y-109362500I0J147500D01*
G01*
X150580000Y-109067500D01*
G75*
G02*
X150727500Y-108920000I147500J0D01*
G01*
G37*
%TD*%
%TO.C,U1*%
G36*
G01*
X153275000Y-110275000D02*
X153275000Y-110475000D01*
G75*
G02*
X153175000Y-110575000I-100000J0D01*
G01*
X151900000Y-110575000D01*
G75*
G02*
X151800000Y-110475000I0J100000D01*
G01*
X151800000Y-110275000D01*
G75*
G02*
X151900000Y-110175000I100000J0D01*
G01*
X153175000Y-110175000D01*
G75*
G02*
X153275000Y-110275000I0J-100000D01*
G01*
G37*
G36*
G01*
X153275000Y-109625000D02*
X153275000Y-109825000D01*
G75*
G02*
X153175000Y-109925000I-100000J0D01*
G01*
X151900000Y-109925000D01*
G75*
G02*
X151800000Y-109825000I0J100000D01*
G01*
X151800000Y-109625000D01*
G75*
G02*
X151900000Y-109525000I100000J0D01*
G01*
X153175000Y-109525000D01*
G75*
G02*
X153275000Y-109625000I0J-100000D01*
G01*
G37*
G36*
G01*
X153275000Y-108975000D02*
X153275000Y-109175000D01*
G75*
G02*
X153175000Y-109275000I-100000J0D01*
G01*
X151900000Y-109275000D01*
G75*
G02*
X151800000Y-109175000I0J100000D01*
G01*
X151800000Y-108975000D01*
G75*
G02*
X151900000Y-108875000I100000J0D01*
G01*
X153175000Y-108875000D01*
G75*
G02*
X153275000Y-108975000I0J-100000D01*
G01*
G37*
G36*
G01*
X153275000Y-108325000D02*
X153275000Y-108525000D01*
G75*
G02*
X153175000Y-108625000I-100000J0D01*
G01*
X151900000Y-108625000D01*
G75*
G02*
X151800000Y-108525000I0J100000D01*
G01*
X151800000Y-108325000D01*
G75*
G02*
X151900000Y-108225000I100000J0D01*
G01*
X153175000Y-108225000D01*
G75*
G02*
X153275000Y-108325000I0J-100000D01*
G01*
G37*
G36*
G01*
X159000000Y-108325000D02*
X159000000Y-108525000D01*
G75*
G02*
X158900000Y-108625000I-100000J0D01*
G01*
X157625000Y-108625000D01*
G75*
G02*
X157525000Y-108525000I0J100000D01*
G01*
X157525000Y-108325000D01*
G75*
G02*
X157625000Y-108225000I100000J0D01*
G01*
X158900000Y-108225000D01*
G75*
G02*
X159000000Y-108325000I0J-100000D01*
G01*
G37*
G36*
G01*
X159000000Y-108975000D02*
X159000000Y-109175000D01*
G75*
G02*
X158900000Y-109275000I-100000J0D01*
G01*
X157625000Y-109275000D01*
G75*
G02*
X157525000Y-109175000I0J100000D01*
G01*
X157525000Y-108975000D01*
G75*
G02*
X157625000Y-108875000I100000J0D01*
G01*
X158900000Y-108875000D01*
G75*
G02*
X159000000Y-108975000I0J-100000D01*
G01*
G37*
G36*
G01*
X159000000Y-109625000D02*
X159000000Y-109825000D01*
G75*
G02*
X158900000Y-109925000I-100000J0D01*
G01*
X157625000Y-109925000D01*
G75*
G02*
X157525000Y-109825000I0J100000D01*
G01*
X157525000Y-109625000D01*
G75*
G02*
X157625000Y-109525000I100000J0D01*
G01*
X158900000Y-109525000D01*
G75*
G02*
X159000000Y-109625000I0J-100000D01*
G01*
G37*
G36*
G01*
X159000000Y-110275000D02*
X159000000Y-110475000D01*
G75*
G02*
X158900000Y-110575000I-100000J0D01*
G01*
X157625000Y-110575000D01*
G75*
G02*
X157525000Y-110475000I0J100000D01*
G01*
X157525000Y-110275000D01*
G75*
G02*
X157625000Y-110175000I100000J0D01*
G01*
X158900000Y-110175000D01*
G75*
G02*
X159000000Y-110275000I0J-100000D01*
G01*
G37*
%TD*%
D10*
%TO.C,J2*%
X131152900Y-102108000D03*
X133922900Y-102108000D03*
X136692900Y-102108000D03*
X139462900Y-102108000D03*
X142232900Y-102108000D03*
X145002900Y-102108000D03*
X147772900Y-102108000D03*
X150542900Y-102108000D03*
X153312900Y-102108000D03*
X156082900Y-102108000D03*
X158852900Y-102108000D03*
X161622900Y-102108000D03*
X164392900Y-102108000D03*
%TD*%
M02*
