%TF.GenerationSoftware,KiCad,Pcbnew,(5.1.6)-1*%
%TF.CreationDate,2021-02-17T18:40:24-08:00*%
%TF.ProjectId,kg-cable-asl,6b672d63-6162-46c6-952d-61736c2e6b69,rev?*%
%TF.SameCoordinates,Original*%
%TF.FileFunction,Copper,L1,Top*%
%TF.FilePolarity,Positive*%
%FSLAX46Y46*%
G04 Gerber Fmt 4.6, Leading zero omitted, Abs format (unit mm)*
G04 Created by KiCad (PCBNEW (5.1.6)-1) date 2021-02-17 18:40:24*
%MOMM*%
%LPD*%
G01*
G04 APERTURE LIST*
%TA.AperFunction,EtchedComponent*%
%ADD10C,0.100000*%
%TD*%
%TA.AperFunction,ComponentPad*%
%ADD11O,1.350000X1.350000*%
%TD*%
%TA.AperFunction,ComponentPad*%
%ADD12R,1.350000X1.350000*%
%TD*%
%TA.AperFunction,SMDPad,CuDef*%
%ADD13C,0.100000*%
%TD*%
%TA.AperFunction,SMDPad,CuDef*%
%ADD14R,1.846667X3.480000*%
%TD*%
%TA.AperFunction,ViaPad*%
%ADD15C,0.600000*%
%TD*%
%TA.AperFunction,Conductor*%
%ADD16C,0.250000*%
%TD*%
%TA.AperFunction,Conductor*%
%ADD17C,0.254000*%
%TD*%
G04 APERTURE END LIST*
D10*
%TO.C,JP3*%
G36*
X143373000Y-106176000D02*
G01*
X143373000Y-106676000D01*
X143973000Y-106676000D01*
X143973000Y-106176000D01*
X143373000Y-106176000D01*
G37*
%TO.C,JP2*%
G36*
X131250000Y-109012000D02*
G01*
X131750000Y-109012000D01*
X131750000Y-108412000D01*
X131250000Y-108412000D01*
X131250000Y-109012000D01*
G37*
%TO.C,JP1*%
G36*
X133950000Y-109750000D02*
G01*
X133950000Y-110250000D01*
X134550000Y-110250000D01*
X134550000Y-109750000D01*
X133950000Y-109750000D01*
G37*
%TD*%
%TO.P,R12,2*%
%TO.N,Net-(C2-Pad2)*%
%TA.AperFunction,SMDPad,CuDef*%
G36*
G01*
X139050000Y-110850001D02*
X139050000Y-109949999D01*
G75*
G02*
X139299999Y-109700000I249999J0D01*
G01*
X139950001Y-109700000D01*
G75*
G02*
X140200000Y-109949999I0J-249999D01*
G01*
X140200000Y-110850001D01*
G75*
G02*
X139950001Y-111100000I-249999J0D01*
G01*
X139299999Y-111100000D01*
G75*
G02*
X139050000Y-110850001I0J249999D01*
G01*
G37*
%TD.AperFunction*%
%TO.P,R12,1*%
%TO.N,GND*%
%TA.AperFunction,SMDPad,CuDef*%
G36*
G01*
X137000000Y-110850001D02*
X137000000Y-109949999D01*
G75*
G02*
X137249999Y-109700000I249999J0D01*
G01*
X137900001Y-109700000D01*
G75*
G02*
X138150000Y-109949999I0J-249999D01*
G01*
X138150000Y-110850001D01*
G75*
G02*
X137900001Y-111100000I-249999J0D01*
G01*
X137249999Y-111100000D01*
G75*
G02*
X137000000Y-110850001I0J249999D01*
G01*
G37*
%TD.AperFunction*%
%TD*%
%TO.P,R11,2*%
%TO.N,/MIC*%
%TA.AperFunction,SMDPad,CuDef*%
G36*
G01*
X142700000Y-110850001D02*
X142700000Y-109949999D01*
G75*
G02*
X142949999Y-109700000I249999J0D01*
G01*
X143600001Y-109700000D01*
G75*
G02*
X143850000Y-109949999I0J-249999D01*
G01*
X143850000Y-110850001D01*
G75*
G02*
X143600001Y-111100000I-249999J0D01*
G01*
X142949999Y-111100000D01*
G75*
G02*
X142700000Y-110850001I0J249999D01*
G01*
G37*
%TD.AperFunction*%
%TO.P,R11,1*%
%TO.N,Net-(C2-Pad2)*%
%TA.AperFunction,SMDPad,CuDef*%
G36*
G01*
X140650000Y-110850001D02*
X140650000Y-109949999D01*
G75*
G02*
X140899999Y-109700000I249999J0D01*
G01*
X141550001Y-109700000D01*
G75*
G02*
X141800000Y-109949999I0J-249999D01*
G01*
X141800000Y-110850001D01*
G75*
G02*
X141550001Y-111100000I-249999J0D01*
G01*
X140899999Y-111100000D01*
G75*
G02*
X140650000Y-110850001I0J249999D01*
G01*
G37*
%TD.AperFunction*%
%TD*%
%TO.P,C2,2*%
%TO.N,Net-(C2-Pad2)*%
%TA.AperFunction,SMDPad,CuDef*%
G36*
G01*
X141800000Y-108299999D02*
X141800000Y-109200001D01*
G75*
G02*
X141550001Y-109450000I-249999J0D01*
G01*
X140899999Y-109450000D01*
G75*
G02*
X140650000Y-109200001I0J249999D01*
G01*
X140650000Y-108299999D01*
G75*
G02*
X140899999Y-108050000I249999J0D01*
G01*
X141550001Y-108050000D01*
G75*
G02*
X141800000Y-108299999I0J-249999D01*
G01*
G37*
%TD.AperFunction*%
%TO.P,C2,1*%
%TO.N,Net-(C2-Pad1)*%
%TA.AperFunction,SMDPad,CuDef*%
G36*
G01*
X143850000Y-108299999D02*
X143850000Y-109200001D01*
G75*
G02*
X143600001Y-109450000I-249999J0D01*
G01*
X142949999Y-109450000D01*
G75*
G02*
X142700000Y-109200001I0J249999D01*
G01*
X142700000Y-108299999D01*
G75*
G02*
X142949999Y-108050000I249999J0D01*
G01*
X143600001Y-108050000D01*
G75*
G02*
X143850000Y-108299999I0J-249999D01*
G01*
G37*
%TD.AperFunction*%
%TD*%
D11*
%TO.P,J1,16*%
%TO.N,+12V*%
X140772900Y-115030000D03*
%TO.P,J1,15*%
%TO.N,/GPIO8*%
X140772900Y-113030000D03*
%TO.P,J1,14*%
%TO.N,/GPIO7*%
X142772900Y-115030000D03*
%TO.P,J1,13*%
%TO.N,/MIC*%
X142772900Y-113030000D03*
%TO.P,J1,12*%
%TO.N,/GPIO6*%
X144772900Y-115030000D03*
%TO.P,J1,11*%
%TO.N,/AUDIO_OUT*%
X144772900Y-113030000D03*
%TO.P,J1,10*%
%TO.N,/GPIO5*%
X146772900Y-115030000D03*
%TO.P,J1,9*%
%TO.N,/COR_DET*%
X146772900Y-113030000D03*
%TO.P,J1,8*%
%TO.N,GND*%
X148772900Y-115030000D03*
%TO.P,J1,7*%
%TO.N,/LEFT_OUT*%
X148772900Y-113030000D03*
%TO.P,J1,6*%
%TO.N,/GPIO4*%
X150772900Y-115030000D03*
%TO.P,J1,5*%
%TO.N,/CTCSS_DET*%
X150772900Y-113030000D03*
%TO.P,J1,4*%
%TO.N,/GPIO1*%
X152772900Y-115030000D03*
%TO.P,J1,3*%
%TO.N,+5V*%
X152772900Y-113030000D03*
%TO.P,J1,2*%
%TO.N,/GPIO2*%
X154772900Y-115030000D03*
D12*
%TO.P,J1,1*%
%TO.N,/PTT*%
X154772900Y-113030000D03*
%TD*%
%TO.P,R10,2*%
%TO.N,/COR_DET*%
%TA.AperFunction,SMDPad,CuDef*%
G36*
G01*
X144964999Y-110305000D02*
X145865001Y-110305000D01*
G75*
G02*
X146115000Y-110554999I0J-249999D01*
G01*
X146115000Y-111205001D01*
G75*
G02*
X145865001Y-111455000I-249999J0D01*
G01*
X144964999Y-111455000D01*
G75*
G02*
X144715000Y-111205001I0J249999D01*
G01*
X144715000Y-110554999D01*
G75*
G02*
X144964999Y-110305000I249999J0D01*
G01*
G37*
%TD.AperFunction*%
%TO.P,R10,1*%
%TO.N,+5V*%
%TA.AperFunction,SMDPad,CuDef*%
G36*
G01*
X144964999Y-108255000D02*
X145865001Y-108255000D01*
G75*
G02*
X146115000Y-108504999I0J-249999D01*
G01*
X146115000Y-109155001D01*
G75*
G02*
X145865001Y-109405000I-249999J0D01*
G01*
X144964999Y-109405000D01*
G75*
G02*
X144715000Y-109155001I0J249999D01*
G01*
X144715000Y-108504999D01*
G75*
G02*
X144964999Y-108255000I249999J0D01*
G01*
G37*
%TD.AperFunction*%
%TD*%
%TO.P,R9,2*%
%TO.N,/CTCSS_DET*%
%TA.AperFunction,SMDPad,CuDef*%
G36*
G01*
X148774999Y-110305000D02*
X149675001Y-110305000D01*
G75*
G02*
X149925000Y-110554999I0J-249999D01*
G01*
X149925000Y-111205001D01*
G75*
G02*
X149675001Y-111455000I-249999J0D01*
G01*
X148774999Y-111455000D01*
G75*
G02*
X148525000Y-111205001I0J249999D01*
G01*
X148525000Y-110554999D01*
G75*
G02*
X148774999Y-110305000I249999J0D01*
G01*
G37*
%TD.AperFunction*%
%TO.P,R9,1*%
%TO.N,+5V*%
%TA.AperFunction,SMDPad,CuDef*%
G36*
G01*
X148774999Y-108255000D02*
X149675001Y-108255000D01*
G75*
G02*
X149925000Y-108504999I0J-249999D01*
G01*
X149925000Y-109155001D01*
G75*
G02*
X149675001Y-109405000I-249999J0D01*
G01*
X148774999Y-109405000D01*
G75*
G02*
X148525000Y-109155001I0J249999D01*
G01*
X148525000Y-108504999D01*
G75*
G02*
X148774999Y-108255000I249999J0D01*
G01*
G37*
%TD.AperFunction*%
%TD*%
%TO.P,R8,2*%
%TO.N,/PTT*%
%TA.AperFunction,SMDPad,CuDef*%
G36*
G01*
X164842901Y-105976000D02*
X163942899Y-105976000D01*
G75*
G02*
X163692900Y-105726001I0J249999D01*
G01*
X163692900Y-105075999D01*
G75*
G02*
X163942899Y-104826000I249999J0D01*
G01*
X164842901Y-104826000D01*
G75*
G02*
X165092900Y-105075999I0J-249999D01*
G01*
X165092900Y-105726001D01*
G75*
G02*
X164842901Y-105976000I-249999J0D01*
G01*
G37*
%TD.AperFunction*%
%TO.P,R8,1*%
%TO.N,+5V*%
%TA.AperFunction,SMDPad,CuDef*%
G36*
G01*
X164842901Y-108026000D02*
X163942899Y-108026000D01*
G75*
G02*
X163692900Y-107776001I0J249999D01*
G01*
X163692900Y-107125999D01*
G75*
G02*
X163942899Y-106876000I249999J0D01*
G01*
X164842901Y-106876000D01*
G75*
G02*
X165092900Y-107125999I0J-249999D01*
G01*
X165092900Y-107776001D01*
G75*
G02*
X164842901Y-108026000I-249999J0D01*
G01*
G37*
%TD.AperFunction*%
%TD*%
%TO.P,C1,2*%
%TO.N,+5V*%
%TA.AperFunction,SMDPad,CuDef*%
G36*
G01*
X150727500Y-109890000D02*
X151072500Y-109890000D01*
G75*
G02*
X151220000Y-110037500I0J-147500D01*
G01*
X151220000Y-110332500D01*
G75*
G02*
X151072500Y-110480000I-147500J0D01*
G01*
X150727500Y-110480000D01*
G75*
G02*
X150580000Y-110332500I0J147500D01*
G01*
X150580000Y-110037500D01*
G75*
G02*
X150727500Y-109890000I147500J0D01*
G01*
G37*
%TD.AperFunction*%
%TO.P,C1,1*%
%TO.N,GND*%
%TA.AperFunction,SMDPad,CuDef*%
G36*
G01*
X150727500Y-108920000D02*
X151072500Y-108920000D01*
G75*
G02*
X151220000Y-109067500I0J-147500D01*
G01*
X151220000Y-109362500D01*
G75*
G02*
X151072500Y-109510000I-147500J0D01*
G01*
X150727500Y-109510000D01*
G75*
G02*
X150580000Y-109362500I0J147500D01*
G01*
X150580000Y-109067500D01*
G75*
G02*
X150727500Y-108920000I147500J0D01*
G01*
G37*
%TD.AperFunction*%
%TD*%
%TO.P,U1,8*%
%TO.N,+5V*%
%TA.AperFunction,SMDPad,CuDef*%
G36*
G01*
X153275000Y-110275000D02*
X153275000Y-110475000D01*
G75*
G02*
X153175000Y-110575000I-100000J0D01*
G01*
X151900000Y-110575000D01*
G75*
G02*
X151800000Y-110475000I0J100000D01*
G01*
X151800000Y-110275000D01*
G75*
G02*
X151900000Y-110175000I100000J0D01*
G01*
X153175000Y-110175000D01*
G75*
G02*
X153275000Y-110275000I0J-100000D01*
G01*
G37*
%TD.AperFunction*%
%TO.P,U1,7*%
%TO.N,N/C*%
%TA.AperFunction,SMDPad,CuDef*%
G36*
G01*
X153275000Y-109625000D02*
X153275000Y-109825000D01*
G75*
G02*
X153175000Y-109925000I-100000J0D01*
G01*
X151900000Y-109925000D01*
G75*
G02*
X151800000Y-109825000I0J100000D01*
G01*
X151800000Y-109625000D01*
G75*
G02*
X151900000Y-109525000I100000J0D01*
G01*
X153175000Y-109525000D01*
G75*
G02*
X153275000Y-109625000I0J-100000D01*
G01*
G37*
%TD.AperFunction*%
%TO.P,U1,6*%
%TO.N,+5V*%
%TA.AperFunction,SMDPad,CuDef*%
G36*
G01*
X153275000Y-108975000D02*
X153275000Y-109175000D01*
G75*
G02*
X153175000Y-109275000I-100000J0D01*
G01*
X151900000Y-109275000D01*
G75*
G02*
X151800000Y-109175000I0J100000D01*
G01*
X151800000Y-108975000D01*
G75*
G02*
X151900000Y-108875000I100000J0D01*
G01*
X153175000Y-108875000D01*
G75*
G02*
X153275000Y-108975000I0J-100000D01*
G01*
G37*
%TD.AperFunction*%
%TO.P,U1,5*%
%TO.N,GND*%
%TA.AperFunction,SMDPad,CuDef*%
G36*
G01*
X153275000Y-108325000D02*
X153275000Y-108525000D01*
G75*
G02*
X153175000Y-108625000I-100000J0D01*
G01*
X151900000Y-108625000D01*
G75*
G02*
X151800000Y-108525000I0J100000D01*
G01*
X151800000Y-108325000D01*
G75*
G02*
X151900000Y-108225000I100000J0D01*
G01*
X153175000Y-108225000D01*
G75*
G02*
X153275000Y-108325000I0J-100000D01*
G01*
G37*
%TD.AperFunction*%
%TO.P,U1,4*%
%TO.N,/EEP_DO*%
%TA.AperFunction,SMDPad,CuDef*%
G36*
G01*
X159000000Y-108325000D02*
X159000000Y-108525000D01*
G75*
G02*
X158900000Y-108625000I-100000J0D01*
G01*
X157625000Y-108625000D01*
G75*
G02*
X157525000Y-108525000I0J100000D01*
G01*
X157525000Y-108325000D01*
G75*
G02*
X157625000Y-108225000I100000J0D01*
G01*
X158900000Y-108225000D01*
G75*
G02*
X159000000Y-108325000I0J-100000D01*
G01*
G37*
%TD.AperFunction*%
%TO.P,U1,3*%
%TO.N,/EEP_DI*%
%TA.AperFunction,SMDPad,CuDef*%
G36*
G01*
X159000000Y-108975000D02*
X159000000Y-109175000D01*
G75*
G02*
X158900000Y-109275000I-100000J0D01*
G01*
X157625000Y-109275000D01*
G75*
G02*
X157525000Y-109175000I0J100000D01*
G01*
X157525000Y-108975000D01*
G75*
G02*
X157625000Y-108875000I100000J0D01*
G01*
X158900000Y-108875000D01*
G75*
G02*
X159000000Y-108975000I0J-100000D01*
G01*
G37*
%TD.AperFunction*%
%TO.P,U1,2*%
%TO.N,/EEP_CK*%
%TA.AperFunction,SMDPad,CuDef*%
G36*
G01*
X159000000Y-109625000D02*
X159000000Y-109825000D01*
G75*
G02*
X158900000Y-109925000I-100000J0D01*
G01*
X157625000Y-109925000D01*
G75*
G02*
X157525000Y-109825000I0J100000D01*
G01*
X157525000Y-109625000D01*
G75*
G02*
X157625000Y-109525000I100000J0D01*
G01*
X158900000Y-109525000D01*
G75*
G02*
X159000000Y-109625000I0J-100000D01*
G01*
G37*
%TD.AperFunction*%
%TO.P,U1,1*%
%TO.N,/EEP_CS*%
%TA.AperFunction,SMDPad,CuDef*%
G36*
G01*
X159000000Y-110275000D02*
X159000000Y-110475000D01*
G75*
G02*
X158900000Y-110575000I-100000J0D01*
G01*
X157625000Y-110575000D01*
G75*
G02*
X157525000Y-110475000I0J100000D01*
G01*
X157525000Y-110275000D01*
G75*
G02*
X157625000Y-110175000I100000J0D01*
G01*
X158900000Y-110175000D01*
G75*
G02*
X159000000Y-110275000I0J-100000D01*
G01*
G37*
%TD.AperFunction*%
%TD*%
%TA.AperFunction,SMDPad,CuDef*%
D13*
%TO.P,JP6,2*%
%TO.N,/MIC_IN*%
G36*
X140474602Y-105776000D02*
G01*
X140474602Y-105751466D01*
X140479412Y-105702635D01*
X140488984Y-105654510D01*
X140503228Y-105607555D01*
X140522005Y-105562222D01*
X140545136Y-105518949D01*
X140572396Y-105478150D01*
X140603524Y-105440221D01*
X140638221Y-105405524D01*
X140676150Y-105374396D01*
X140716949Y-105347136D01*
X140760222Y-105324005D01*
X140805555Y-105305228D01*
X140852510Y-105290984D01*
X140900635Y-105281412D01*
X140949466Y-105276602D01*
X140974000Y-105276602D01*
X140974000Y-105276000D01*
X141474000Y-105276000D01*
X141474000Y-105276602D01*
X141498534Y-105276602D01*
X141547365Y-105281412D01*
X141595490Y-105290984D01*
X141642445Y-105305228D01*
X141687778Y-105324005D01*
X141731051Y-105347136D01*
X141771850Y-105374396D01*
X141809779Y-105405524D01*
X141844476Y-105440221D01*
X141875604Y-105478150D01*
X141902864Y-105518949D01*
X141925995Y-105562222D01*
X141944772Y-105607555D01*
X141959016Y-105654510D01*
X141968588Y-105702635D01*
X141973398Y-105751466D01*
X141973398Y-105776000D01*
X141974000Y-105776000D01*
X141974000Y-106276000D01*
X140474000Y-106276000D01*
X140474000Y-105776000D01*
X140474602Y-105776000D01*
G37*
%TD.AperFunction*%
%TA.AperFunction,SMDPad,CuDef*%
%TO.P,JP6,1*%
%TO.N,Net-(C2-Pad1)*%
G36*
X141974000Y-106576000D02*
G01*
X141974000Y-107076000D01*
X141973398Y-107076000D01*
X141973398Y-107100534D01*
X141968588Y-107149365D01*
X141959016Y-107197490D01*
X141944772Y-107244445D01*
X141925995Y-107289778D01*
X141902864Y-107333051D01*
X141875604Y-107373850D01*
X141844476Y-107411779D01*
X141809779Y-107446476D01*
X141771850Y-107477604D01*
X141731051Y-107504864D01*
X141687778Y-107527995D01*
X141642445Y-107546772D01*
X141595490Y-107561016D01*
X141547365Y-107570588D01*
X141498534Y-107575398D01*
X141474000Y-107575398D01*
X141474000Y-107576000D01*
X140974000Y-107576000D01*
X140974000Y-107575398D01*
X140949466Y-107575398D01*
X140900635Y-107570588D01*
X140852510Y-107561016D01*
X140805555Y-107546772D01*
X140760222Y-107527995D01*
X140716949Y-107504864D01*
X140676150Y-107477604D01*
X140638221Y-107446476D01*
X140603524Y-107411779D01*
X140572396Y-107373850D01*
X140545136Y-107333051D01*
X140522005Y-107289778D01*
X140503228Y-107244445D01*
X140488984Y-107197490D01*
X140479412Y-107149365D01*
X140474602Y-107100534D01*
X140474602Y-107076000D01*
X140474000Y-107076000D01*
X140474000Y-106576000D01*
X141974000Y-106576000D01*
G37*
%TD.AperFunction*%
%TD*%
%TA.AperFunction,SMDPad,CuDef*%
%TO.P,JP5,2*%
%TO.N,/AIN_6DB*%
G36*
X136777900Y-106794398D02*
G01*
X136753366Y-106794398D01*
X136704535Y-106789588D01*
X136656410Y-106780016D01*
X136609455Y-106765772D01*
X136564122Y-106746995D01*
X136520849Y-106723864D01*
X136480050Y-106696604D01*
X136442121Y-106665476D01*
X136407424Y-106630779D01*
X136376296Y-106592850D01*
X136349036Y-106552051D01*
X136325905Y-106508778D01*
X136307128Y-106463445D01*
X136292884Y-106416490D01*
X136283312Y-106368365D01*
X136278502Y-106319534D01*
X136278502Y-106295000D01*
X136277900Y-106295000D01*
X136277900Y-105795000D01*
X136278502Y-105795000D01*
X136278502Y-105770466D01*
X136283312Y-105721635D01*
X136292884Y-105673510D01*
X136307128Y-105626555D01*
X136325905Y-105581222D01*
X136349036Y-105537949D01*
X136376296Y-105497150D01*
X136407424Y-105459221D01*
X136442121Y-105424524D01*
X136480050Y-105393396D01*
X136520849Y-105366136D01*
X136564122Y-105343005D01*
X136609455Y-105324228D01*
X136656410Y-105309984D01*
X136704535Y-105300412D01*
X136753366Y-105295602D01*
X136777900Y-105295602D01*
X136777900Y-105295000D01*
X137277900Y-105295000D01*
X137277900Y-106795000D01*
X136777900Y-106795000D01*
X136777900Y-106794398D01*
G37*
%TD.AperFunction*%
%TA.AperFunction,SMDPad,CuDef*%
%TO.P,JP5,1*%
%TO.N,/RIGHT_OUT*%
G36*
X137577900Y-105295000D02*
G01*
X138077900Y-105295000D01*
X138077900Y-105295602D01*
X138102434Y-105295602D01*
X138151265Y-105300412D01*
X138199390Y-105309984D01*
X138246345Y-105324228D01*
X138291678Y-105343005D01*
X138334951Y-105366136D01*
X138375750Y-105393396D01*
X138413679Y-105424524D01*
X138448376Y-105459221D01*
X138479504Y-105497150D01*
X138506764Y-105537949D01*
X138529895Y-105581222D01*
X138548672Y-105626555D01*
X138562916Y-105673510D01*
X138572488Y-105721635D01*
X138577298Y-105770466D01*
X138577298Y-105795000D01*
X138577900Y-105795000D01*
X138577900Y-106295000D01*
X138577298Y-106295000D01*
X138577298Y-106319534D01*
X138572488Y-106368365D01*
X138562916Y-106416490D01*
X138548672Y-106463445D01*
X138529895Y-106508778D01*
X138506764Y-106552051D01*
X138479504Y-106592850D01*
X138448376Y-106630779D01*
X138413679Y-106665476D01*
X138375750Y-106696604D01*
X138334951Y-106723864D01*
X138291678Y-106746995D01*
X138246345Y-106765772D01*
X138199390Y-106780016D01*
X138151265Y-106789588D01*
X138102434Y-106794398D01*
X138077900Y-106794398D01*
X138077900Y-106795000D01*
X137577900Y-106795000D01*
X137577900Y-105295000D01*
G37*
%TD.AperFunction*%
%TD*%
%TA.AperFunction,SMDPad,CuDef*%
%TO.P,JP4,2*%
%TO.N,/AOUT_6DB*%
G36*
X133922900Y-105295602D02*
G01*
X133947434Y-105295602D01*
X133996265Y-105300412D01*
X134044390Y-105309984D01*
X134091345Y-105324228D01*
X134136678Y-105343005D01*
X134179951Y-105366136D01*
X134220750Y-105393396D01*
X134258679Y-105424524D01*
X134293376Y-105459221D01*
X134324504Y-105497150D01*
X134351764Y-105537949D01*
X134374895Y-105581222D01*
X134393672Y-105626555D01*
X134407916Y-105673510D01*
X134417488Y-105721635D01*
X134422298Y-105770466D01*
X134422298Y-105795000D01*
X134422900Y-105795000D01*
X134422900Y-106295000D01*
X134422298Y-106295000D01*
X134422298Y-106319534D01*
X134417488Y-106368365D01*
X134407916Y-106416490D01*
X134393672Y-106463445D01*
X134374895Y-106508778D01*
X134351764Y-106552051D01*
X134324504Y-106592850D01*
X134293376Y-106630779D01*
X134258679Y-106665476D01*
X134220750Y-106696604D01*
X134179951Y-106723864D01*
X134136678Y-106746995D01*
X134091345Y-106765772D01*
X134044390Y-106780016D01*
X133996265Y-106789588D01*
X133947434Y-106794398D01*
X133922900Y-106794398D01*
X133922900Y-106795000D01*
X133422900Y-106795000D01*
X133422900Y-105295000D01*
X133922900Y-105295000D01*
X133922900Y-105295602D01*
G37*
%TD.AperFunction*%
%TA.AperFunction,SMDPad,CuDef*%
%TO.P,JP4,1*%
%TO.N,Net-(C2-Pad1)*%
G36*
X133122900Y-106795000D02*
G01*
X132622900Y-106795000D01*
X132622900Y-106794398D01*
X132598366Y-106794398D01*
X132549535Y-106789588D01*
X132501410Y-106780016D01*
X132454455Y-106765772D01*
X132409122Y-106746995D01*
X132365849Y-106723864D01*
X132325050Y-106696604D01*
X132287121Y-106665476D01*
X132252424Y-106630779D01*
X132221296Y-106592850D01*
X132194036Y-106552051D01*
X132170905Y-106508778D01*
X132152128Y-106463445D01*
X132137884Y-106416490D01*
X132128312Y-106368365D01*
X132123502Y-106319534D01*
X132123502Y-106295000D01*
X132122900Y-106295000D01*
X132122900Y-105795000D01*
X132123502Y-105795000D01*
X132123502Y-105770466D01*
X132128312Y-105721635D01*
X132137884Y-105673510D01*
X132152128Y-105626555D01*
X132170905Y-105581222D01*
X132194036Y-105537949D01*
X132221296Y-105497150D01*
X132252424Y-105459221D01*
X132287121Y-105424524D01*
X132325050Y-105393396D01*
X132365849Y-105366136D01*
X132409122Y-105343005D01*
X132454455Y-105324228D01*
X132501410Y-105309984D01*
X132549535Y-105300412D01*
X132598366Y-105295602D01*
X132622900Y-105295602D01*
X132622900Y-105295000D01*
X133122900Y-105295000D01*
X133122900Y-106795000D01*
G37*
%TD.AperFunction*%
%TD*%
%TA.AperFunction,SMDPad,CuDef*%
%TO.P,JP3,1*%
%TO.N,Net-(C2-Pad1)*%
G36*
X144423000Y-106576000D02*
G01*
X144423000Y-107076000D01*
X144422398Y-107076000D01*
X144422398Y-107100534D01*
X144417588Y-107149365D01*
X144408016Y-107197490D01*
X144393772Y-107244445D01*
X144374995Y-107289778D01*
X144351864Y-107333051D01*
X144324604Y-107373850D01*
X144293476Y-107411779D01*
X144258779Y-107446476D01*
X144220850Y-107477604D01*
X144180051Y-107504864D01*
X144136778Y-107527995D01*
X144091445Y-107546772D01*
X144044490Y-107561016D01*
X143996365Y-107570588D01*
X143947534Y-107575398D01*
X143923000Y-107575398D01*
X143923000Y-107576000D01*
X143423000Y-107576000D01*
X143423000Y-107575398D01*
X143398466Y-107575398D01*
X143349635Y-107570588D01*
X143301510Y-107561016D01*
X143254555Y-107546772D01*
X143209222Y-107527995D01*
X143165949Y-107504864D01*
X143125150Y-107477604D01*
X143087221Y-107446476D01*
X143052524Y-107411779D01*
X143021396Y-107373850D01*
X142994136Y-107333051D01*
X142971005Y-107289778D01*
X142952228Y-107244445D01*
X142937984Y-107197490D01*
X142928412Y-107149365D01*
X142923602Y-107100534D01*
X142923602Y-107076000D01*
X142923000Y-107076000D01*
X142923000Y-106576000D01*
X144423000Y-106576000D01*
G37*
%TD.AperFunction*%
%TA.AperFunction,SMDPad,CuDef*%
%TO.P,JP3,2*%
%TO.N,/MIC_AC*%
G36*
X142923602Y-105776000D02*
G01*
X142923602Y-105751466D01*
X142928412Y-105702635D01*
X142937984Y-105654510D01*
X142952228Y-105607555D01*
X142971005Y-105562222D01*
X142994136Y-105518949D01*
X143021396Y-105478150D01*
X143052524Y-105440221D01*
X143087221Y-105405524D01*
X143125150Y-105374396D01*
X143165949Y-105347136D01*
X143209222Y-105324005D01*
X143254555Y-105305228D01*
X143301510Y-105290984D01*
X143349635Y-105281412D01*
X143398466Y-105276602D01*
X143423000Y-105276602D01*
X143423000Y-105276000D01*
X143923000Y-105276000D01*
X143923000Y-105276602D01*
X143947534Y-105276602D01*
X143996365Y-105281412D01*
X144044490Y-105290984D01*
X144091445Y-105305228D01*
X144136778Y-105324005D01*
X144180051Y-105347136D01*
X144220850Y-105374396D01*
X144258779Y-105405524D01*
X144293476Y-105440221D01*
X144324604Y-105478150D01*
X144351864Y-105518949D01*
X144374995Y-105562222D01*
X144393772Y-105607555D01*
X144408016Y-105654510D01*
X144417588Y-105702635D01*
X144422398Y-105751466D01*
X144422398Y-105776000D01*
X144423000Y-105776000D01*
X144423000Y-106276000D01*
X142923000Y-106276000D01*
X142923000Y-105776000D01*
X142923602Y-105776000D01*
G37*
%TD.AperFunction*%
%TD*%
%TA.AperFunction,SMDPad,CuDef*%
%TO.P,JP2,1*%
%TO.N,/MIC*%
G36*
X131650000Y-107962000D02*
G01*
X132150000Y-107962000D01*
X132150000Y-107962602D01*
X132174534Y-107962602D01*
X132223365Y-107967412D01*
X132271490Y-107976984D01*
X132318445Y-107991228D01*
X132363778Y-108010005D01*
X132407051Y-108033136D01*
X132447850Y-108060396D01*
X132485779Y-108091524D01*
X132520476Y-108126221D01*
X132551604Y-108164150D01*
X132578864Y-108204949D01*
X132601995Y-108248222D01*
X132620772Y-108293555D01*
X132635016Y-108340510D01*
X132644588Y-108388635D01*
X132649398Y-108437466D01*
X132649398Y-108462000D01*
X132650000Y-108462000D01*
X132650000Y-108962000D01*
X132649398Y-108962000D01*
X132649398Y-108986534D01*
X132644588Y-109035365D01*
X132635016Y-109083490D01*
X132620772Y-109130445D01*
X132601995Y-109175778D01*
X132578864Y-109219051D01*
X132551604Y-109259850D01*
X132520476Y-109297779D01*
X132485779Y-109332476D01*
X132447850Y-109363604D01*
X132407051Y-109390864D01*
X132363778Y-109413995D01*
X132318445Y-109432772D01*
X132271490Y-109447016D01*
X132223365Y-109456588D01*
X132174534Y-109461398D01*
X132150000Y-109461398D01*
X132150000Y-109462000D01*
X131650000Y-109462000D01*
X131650000Y-107962000D01*
G37*
%TD.AperFunction*%
%TA.AperFunction,SMDPad,CuDef*%
%TO.P,JP2,2*%
%TO.N,Net-(C2-Pad1)*%
G36*
X130850000Y-109461398D02*
G01*
X130825466Y-109461398D01*
X130776635Y-109456588D01*
X130728510Y-109447016D01*
X130681555Y-109432772D01*
X130636222Y-109413995D01*
X130592949Y-109390864D01*
X130552150Y-109363604D01*
X130514221Y-109332476D01*
X130479524Y-109297779D01*
X130448396Y-109259850D01*
X130421136Y-109219051D01*
X130398005Y-109175778D01*
X130379228Y-109130445D01*
X130364984Y-109083490D01*
X130355412Y-109035365D01*
X130350602Y-108986534D01*
X130350602Y-108962000D01*
X130350000Y-108962000D01*
X130350000Y-108462000D01*
X130350602Y-108462000D01*
X130350602Y-108437466D01*
X130355412Y-108388635D01*
X130364984Y-108340510D01*
X130379228Y-108293555D01*
X130398005Y-108248222D01*
X130421136Y-108204949D01*
X130448396Y-108164150D01*
X130479524Y-108126221D01*
X130514221Y-108091524D01*
X130552150Y-108060396D01*
X130592949Y-108033136D01*
X130636222Y-108010005D01*
X130681555Y-107991228D01*
X130728510Y-107976984D01*
X130776635Y-107967412D01*
X130825466Y-107962602D01*
X130850000Y-107962602D01*
X130850000Y-107962000D01*
X131350000Y-107962000D01*
X131350000Y-109462000D01*
X130850000Y-109462000D01*
X130850000Y-109461398D01*
G37*
%TD.AperFunction*%
%TD*%
%TA.AperFunction,SMDPad,CuDef*%
%TO.P,JP1,1*%
%TO.N,/AUDIO_OUT*%
G36*
X135000000Y-110150000D02*
G01*
X135000000Y-110650000D01*
X134999398Y-110650000D01*
X134999398Y-110674534D01*
X134994588Y-110723365D01*
X134985016Y-110771490D01*
X134970772Y-110818445D01*
X134951995Y-110863778D01*
X134928864Y-110907051D01*
X134901604Y-110947850D01*
X134870476Y-110985779D01*
X134835779Y-111020476D01*
X134797850Y-111051604D01*
X134757051Y-111078864D01*
X134713778Y-111101995D01*
X134668445Y-111120772D01*
X134621490Y-111135016D01*
X134573365Y-111144588D01*
X134524534Y-111149398D01*
X134500000Y-111149398D01*
X134500000Y-111150000D01*
X134000000Y-111150000D01*
X134000000Y-111149398D01*
X133975466Y-111149398D01*
X133926635Y-111144588D01*
X133878510Y-111135016D01*
X133831555Y-111120772D01*
X133786222Y-111101995D01*
X133742949Y-111078864D01*
X133702150Y-111051604D01*
X133664221Y-111020476D01*
X133629524Y-110985779D01*
X133598396Y-110947850D01*
X133571136Y-110907051D01*
X133548005Y-110863778D01*
X133529228Y-110818445D01*
X133514984Y-110771490D01*
X133505412Y-110723365D01*
X133500602Y-110674534D01*
X133500602Y-110650000D01*
X133500000Y-110650000D01*
X133500000Y-110150000D01*
X135000000Y-110150000D01*
G37*
%TD.AperFunction*%
%TA.AperFunction,SMDPad,CuDef*%
%TO.P,JP1,2*%
%TO.N,/RIGHT_OUT*%
G36*
X133500602Y-109350000D02*
G01*
X133500602Y-109325466D01*
X133505412Y-109276635D01*
X133514984Y-109228510D01*
X133529228Y-109181555D01*
X133548005Y-109136222D01*
X133571136Y-109092949D01*
X133598396Y-109052150D01*
X133629524Y-109014221D01*
X133664221Y-108979524D01*
X133702150Y-108948396D01*
X133742949Y-108921136D01*
X133786222Y-108898005D01*
X133831555Y-108879228D01*
X133878510Y-108864984D01*
X133926635Y-108855412D01*
X133975466Y-108850602D01*
X134000000Y-108850602D01*
X134000000Y-108850000D01*
X134500000Y-108850000D01*
X134500000Y-108850602D01*
X134524534Y-108850602D01*
X134573365Y-108855412D01*
X134621490Y-108864984D01*
X134668445Y-108879228D01*
X134713778Y-108898005D01*
X134757051Y-108921136D01*
X134797850Y-108948396D01*
X134835779Y-108979524D01*
X134870476Y-109014221D01*
X134901604Y-109052150D01*
X134928864Y-109092949D01*
X134951995Y-109136222D01*
X134970772Y-109181555D01*
X134985016Y-109228510D01*
X134994588Y-109276635D01*
X134999398Y-109325466D01*
X134999398Y-109350000D01*
X135000000Y-109350000D01*
X135000000Y-109850000D01*
X133500000Y-109850000D01*
X133500000Y-109350000D01*
X133500602Y-109350000D01*
G37*
%TD.AperFunction*%
%TD*%
D14*
%TO.P,J2,13*%
%TO.N,GND*%
X131152900Y-102108000D03*
%TO.P,J2,12*%
%TO.N,/AOUT_6DB*%
X133922900Y-102108000D03*
%TO.P,J2,11*%
%TO.N,/GPIO8*%
X136692900Y-102108000D03*
%TO.P,J2,10*%
%TO.N,/GPIO7*%
X139462900Y-102108000D03*
%TO.P,J2,9*%
%TO.N,/MIC_IN*%
X142232900Y-102108000D03*
%TO.P,J2,8*%
%TO.N,/COR_DET*%
X145002900Y-102108000D03*
%TO.P,J2,7*%
%TO.N,/CTCSS_DET*%
X147772900Y-102108000D03*
%TO.P,J2,6*%
%TO.N,/GPIO6*%
X150542900Y-102108000D03*
%TO.P,J2,5*%
%TO.N,/GPIO5*%
X153312900Y-102108000D03*
%TO.P,J2,4*%
%TO.N,/GPIO4*%
X156082900Y-102108000D03*
%TO.P,J2,3*%
%TO.N,/GPIO2*%
X158852900Y-102108000D03*
%TO.P,J2,2*%
%TO.N,/GPIO1*%
X161622900Y-102108000D03*
%TO.P,J2,1*%
%TO.N,/PTT*%
X164392900Y-102108000D03*
%TD*%
D15*
%TO.N,GND*%
X130302000Y-105156000D03*
X130302000Y-106172000D03*
X131318000Y-106172000D03*
X131318000Y-105156000D03*
X148500000Y-106700000D03*
%TO.N,+5V*%
X153718961Y-110368794D03*
%TO.N,GND*%
X162000000Y-108500000D03*
X136000000Y-110250000D03*
X158200000Y-106900000D03*
X150900000Y-108400000D03*
X152100000Y-107600000D03*
%TO.N,+5V*%
X163068000Y-106934000D03*
X150622000Y-106680000D03*
X142752667Y-104652538D03*
X133197900Y-104648000D03*
X146050000Y-106045000D03*
X149700000Y-107700000D03*
X145500000Y-107500000D03*
X163200000Y-108400000D03*
X163200000Y-109400000D03*
X150900000Y-110900000D03*
%TO.N,/AIN_6DB*%
X135643264Y-104434558D03*
%TO.N,/RIGHT_OUT*%
X138100000Y-104500000D03*
X134250000Y-108262000D03*
X138000000Y-107999998D03*
%TO.N,/LEFT_OUT*%
X144300000Y-111300000D03*
%TO.N,/MIC_AC*%
X143764000Y-104648000D03*
%TO.N,/EEP_DO*%
X153300000Y-107300000D03*
%TO.N,/EEP_DI*%
X154564810Y-109509871D03*
%TO.N,/EEP_CK*%
X156201091Y-110124228D03*
%TO.N,/EEP_CS*%
X160500000Y-104700000D03*
%TO.N,/GPIO8*%
X136652000Y-104394000D03*
%TO.N,/GPIO7*%
X139446000Y-104394000D03*
%TO.N,/COR_DET*%
X146750000Y-111250000D03*
%TO.N,/GPIO6*%
X150368000Y-104394000D03*
%TO.N,/GPIO5*%
X153416000Y-104394000D03*
%TO.N,/GPIO4*%
X156210000Y-104394000D03*
%TO.N,/GPIO2*%
X159766000Y-105410000D03*
%TO.N,/GPIO1*%
X161544000Y-104394000D03*
%TO.N,/AUDIO_OUT*%
X142600000Y-111600000D03*
%TD*%
D16*
%TO.N,GND*%
X131152900Y-102108000D02*
X131152900Y-103797100D01*
X131152900Y-103797100D02*
X130302000Y-104648000D01*
X130302000Y-104648000D02*
X130302000Y-105156000D01*
X130302000Y-106172000D02*
X131318000Y-106172000D01*
%TO.N,+5V*%
X153712755Y-110375000D02*
X153718961Y-110368794D01*
X152537500Y-110375000D02*
X153712755Y-110375000D01*
%TO.N,GND*%
X137575000Y-110400000D02*
X136150000Y-110400000D01*
X136150000Y-110400000D02*
X136000000Y-110250000D01*
X150900000Y-109215000D02*
X150900000Y-108400000D01*
X152537500Y-108425000D02*
X152537500Y-108037500D01*
X152537500Y-108037500D02*
X152100000Y-107600000D01*
%TO.N,+5V*%
X152941000Y-113482000D02*
X153035000Y-113388000D01*
%TO.N,/PTT*%
X154473000Y-113352500D02*
X155123000Y-113352500D01*
%TO.N,+5V*%
X163875900Y-106934000D02*
X163068000Y-106934000D01*
X164392900Y-107451000D02*
X163875900Y-106934000D01*
X149225000Y-108830000D02*
X149225000Y-108175000D01*
X149225000Y-108175000D02*
X149700000Y-107700000D01*
X145415000Y-108830000D02*
X145415000Y-107585000D01*
X145415000Y-107585000D02*
X145500000Y-107500000D01*
X150900000Y-110185000D02*
X150900000Y-110900000D01*
X153718961Y-109518961D02*
X153718961Y-110368794D01*
X153275000Y-109075000D02*
X153718961Y-109518961D01*
X152537500Y-109075000D02*
X153275000Y-109075000D01*
%TO.N,/AIN_6DB*%
X136777900Y-106045000D02*
X135763000Y-106045000D01*
X135763000Y-106045000D02*
X135643264Y-105925264D01*
X135643264Y-105925264D02*
X135643264Y-104434558D01*
%TO.N,/RIGHT_OUT*%
X138100000Y-106022900D02*
X138077900Y-106045000D01*
X138100000Y-104500000D02*
X138100000Y-106022900D01*
X134250000Y-109350000D02*
X134250000Y-108262000D01*
X134250000Y-108262000D02*
X134250000Y-108250000D01*
X134250000Y-108250000D02*
X134500002Y-107999998D01*
X134500002Y-107999998D02*
X138000000Y-107999998D01*
%TO.N,/LEFT_OUT*%
X144533220Y-111957484D02*
X144300000Y-111724264D01*
X147700384Y-111957484D02*
X144533220Y-111957484D01*
X144300000Y-111724264D02*
X144300000Y-111300000D01*
X148772900Y-113030000D02*
X147700384Y-111957484D01*
%TO.N,/MIC_AC*%
X143673000Y-105776000D02*
X143673000Y-104739000D01*
X143673000Y-104739000D02*
X143764000Y-104648000D01*
%TO.N,/EEP_DO*%
X154425000Y-108425000D02*
X158262500Y-108425000D01*
X153300000Y-107300000D02*
X154425000Y-108425000D01*
%TO.N,/EEP_DI*%
X154999681Y-109075000D02*
X154564810Y-109509871D01*
X158262500Y-109075000D02*
X154999681Y-109075000D01*
%TO.N,/EEP_CK*%
X156600319Y-109725000D02*
X156201091Y-110124228D01*
X158262500Y-109725000D02*
X156600319Y-109725000D01*
%TO.N,/EEP_CS*%
X160500000Y-108875000D02*
X160500000Y-104700000D01*
X158262500Y-110375000D02*
X159000000Y-110375000D01*
X159000000Y-110375000D02*
X160500000Y-108875000D01*
%TO.N,/AOUT_6DB*%
X133922900Y-106045000D02*
X133922900Y-102108000D01*
%TO.N,/GPIO8*%
X136692900Y-102108000D02*
X136692900Y-104353100D01*
X136692900Y-104353100D02*
X136652000Y-104394000D01*
%TO.N,/GPIO7*%
X139446000Y-102124900D02*
X139462900Y-102108000D01*
X139446000Y-104394000D02*
X139446000Y-102124900D01*
%TO.N,/MIC_IN*%
X141224000Y-105776000D02*
X141224000Y-105276000D01*
X142232900Y-104267100D02*
X142232900Y-102108000D01*
X141224000Y-105276000D02*
X142232900Y-104267100D01*
%TO.N,/COR_DET*%
X146050000Y-105179000D02*
X145311000Y-105179000D01*
X145002900Y-104870900D02*
X145002900Y-102108000D01*
X145311000Y-105179000D02*
X145002900Y-104870900D01*
X146050000Y-105179000D02*
X146454000Y-105179000D01*
X146775001Y-105500001D02*
X146775001Y-110399999D01*
X146454000Y-105179000D02*
X146775001Y-105500001D01*
X146295000Y-110880000D02*
X145415000Y-110880000D01*
X146775001Y-110399999D02*
X146295000Y-110880000D01*
X146295000Y-110880000D02*
X146380000Y-110880000D01*
X146380000Y-110880000D02*
X146750000Y-111250000D01*
%TO.N,/CTCSS_DET*%
X148345000Y-110880000D02*
X149225000Y-110880000D01*
X147772900Y-102108000D02*
X147772900Y-110307900D01*
X147772900Y-110307900D02*
X148345000Y-110880000D01*
X149225000Y-111482100D02*
X150772900Y-113030000D01*
X149225000Y-110880000D02*
X149225000Y-111482100D01*
%TO.N,/GPIO6*%
X150542900Y-102108000D02*
X150542900Y-104219100D01*
X150542900Y-104219100D02*
X150368000Y-104394000D01*
%TO.N,/GPIO5*%
X153416000Y-102211100D02*
X153312900Y-102108000D01*
X153416000Y-104394000D02*
X153416000Y-102211100D01*
%TO.N,/GPIO4*%
X156082900Y-102108000D02*
X156082900Y-104266900D01*
X156082900Y-104266900D02*
X156210000Y-104394000D01*
%TO.N,/GPIO2*%
X158852900Y-102108000D02*
X158852900Y-103988900D01*
X158852900Y-103988900D02*
X159766000Y-104902000D01*
X159766000Y-104902000D02*
X159766000Y-105410000D01*
%TO.N,/GPIO1*%
X161622900Y-102108000D02*
X161622900Y-104315100D01*
X161622900Y-104315100D02*
X161544000Y-104394000D01*
%TO.N,/PTT*%
X164392900Y-105401000D02*
X164392900Y-102108000D01*
X164392900Y-106226900D02*
X164392900Y-105401000D01*
X164592000Y-106426000D02*
X164392900Y-106226900D01*
X165862000Y-106680000D02*
X165608000Y-106426000D01*
X165862000Y-108458000D02*
X165862000Y-106680000D01*
X165608000Y-106426000D02*
X164592000Y-106426000D01*
%TO.N,/GPIO5*%
X146772900Y-114713998D02*
X146772900Y-114824000D01*
%TO.N,/PTT*%
X154772900Y-113030000D02*
X161290000Y-113030000D01*
X161290000Y-113030000D02*
X161510000Y-112810000D01*
X161510000Y-112810000D02*
X165862000Y-108458000D01*
%TO.N,/AUDIO_OUT*%
X142600000Y-111600000D02*
X141879989Y-111579989D01*
X141879989Y-111579989D02*
X135179989Y-111579989D01*
X135179989Y-111579989D02*
X134250000Y-110650000D01*
%TO.N,Net-(C2-Pad1)*%
X141224000Y-107076000D02*
X143673000Y-107076000D01*
X132622900Y-106045000D02*
X132622900Y-106968900D01*
%TO.N,Net-(C2-Pad2)*%
X141225000Y-110400000D02*
X141686810Y-110400000D01*
%TO.N,/MIC*%
X132150000Y-111400000D02*
X132150000Y-108712000D01*
X143275000Y-112527900D02*
X142772900Y-113030000D01*
X143275000Y-110400000D02*
X143275000Y-112527900D01*
X132779999Y-112029999D02*
X132750000Y-112000000D01*
X132750000Y-112000000D02*
X132150000Y-111400000D01*
X141341838Y-112029999D02*
X132779999Y-112029999D01*
X142772900Y-113030000D02*
X142341839Y-113030000D01*
X142341839Y-113030000D02*
X141341838Y-112029999D01*
%TO.N,Net-(C2-Pad2)*%
X141225000Y-108750000D02*
X141225000Y-110400000D01*
X141225000Y-110400000D02*
X139625000Y-110400000D01*
%TO.N,Net-(C2-Pad1)*%
X130850000Y-107650000D02*
X130850000Y-108712000D01*
X140925002Y-107374998D02*
X140925002Y-107374998D01*
X143275000Y-108750000D02*
X143275000Y-108125000D01*
X143673000Y-107727000D02*
X143673000Y-107076000D01*
X143275000Y-108125000D02*
X143673000Y-107727000D01*
X131125002Y-107374998D02*
X130850000Y-107650000D01*
X132622900Y-107127100D02*
X132375002Y-107374998D01*
X132622900Y-106968900D02*
X132622900Y-107127100D01*
X132375002Y-107374998D02*
X131125002Y-107374998D01*
X132870798Y-107374998D02*
X132622900Y-107127100D01*
X141224000Y-107076000D02*
X140173996Y-107076000D01*
X140173996Y-107076000D02*
X139874998Y-107374998D01*
X139874998Y-107374998D02*
X132870798Y-107374998D01*
%TD*%
D17*
%TO.N,GND*%
G36*
X129594567Y-101822250D02*
G01*
X129753317Y-101981000D01*
X131025900Y-101981000D01*
X131025900Y-101961000D01*
X131279900Y-101961000D01*
X131279900Y-101981000D01*
X131299900Y-101981000D01*
X131299900Y-102235000D01*
X131279900Y-102235000D01*
X131279900Y-104324250D01*
X131438650Y-104483000D01*
X132076233Y-104486072D01*
X132200715Y-104473812D01*
X132320413Y-104437502D01*
X132430727Y-104378537D01*
X132527418Y-104299185D01*
X132606770Y-104202494D01*
X132665735Y-104092180D01*
X132699611Y-103980505D01*
X132726361Y-104030550D01*
X132767224Y-104080343D01*
X132817017Y-104121206D01*
X132839637Y-104133297D01*
X132798211Y-104160977D01*
X132710877Y-104248311D01*
X132642260Y-104351004D01*
X132594995Y-104465111D01*
X132570900Y-104586246D01*
X132570900Y-104709754D01*
X132594995Y-104830889D01*
X132642260Y-104944996D01*
X132656574Y-104966418D01*
X132622900Y-104966418D01*
X132598453Y-104968826D01*
X132573891Y-104968826D01*
X132509788Y-104975140D01*
X132413655Y-104994262D01*
X132352017Y-105012959D01*
X132261461Y-105050468D01*
X132204651Y-105080833D01*
X132123152Y-105135289D01*
X132073360Y-105176152D01*
X132004052Y-105245460D01*
X131963189Y-105295252D01*
X131908733Y-105376751D01*
X131878368Y-105433561D01*
X131840859Y-105524117D01*
X131822162Y-105585755D01*
X131803040Y-105681888D01*
X131796726Y-105745991D01*
X131796726Y-105770553D01*
X131794318Y-105795000D01*
X131794318Y-106295000D01*
X131796726Y-106319447D01*
X131796726Y-106344009D01*
X131803040Y-106408112D01*
X131822162Y-106504245D01*
X131840859Y-106565883D01*
X131878368Y-106656439D01*
X131908733Y-106713249D01*
X131963189Y-106794748D01*
X132004052Y-106844540D01*
X132073360Y-106913848D01*
X132084509Y-106922998D01*
X131147207Y-106922998D01*
X131125002Y-106920811D01*
X131036394Y-106929538D01*
X130970187Y-106949622D01*
X130951192Y-106955384D01*
X130872669Y-106997355D01*
X130803843Y-107053839D01*
X130789679Y-107071098D01*
X130546100Y-107314677D01*
X130528841Y-107328841D01*
X130472357Y-107397668D01*
X130454536Y-107431010D01*
X130430386Y-107476191D01*
X130404540Y-107561393D01*
X130395813Y-107650000D01*
X130398000Y-107672205D01*
X130398000Y-107770385D01*
X130350252Y-107802289D01*
X130300460Y-107843152D01*
X130231152Y-107912460D01*
X130190289Y-107962252D01*
X130135833Y-108043751D01*
X130105468Y-108100561D01*
X130067959Y-108191117D01*
X130049262Y-108252755D01*
X130030140Y-108348888D01*
X130023826Y-108412991D01*
X130023826Y-108437553D01*
X130021418Y-108462000D01*
X130021418Y-108962000D01*
X130023826Y-108986447D01*
X130023826Y-109011009D01*
X130030140Y-109075112D01*
X130049262Y-109171245D01*
X130067959Y-109232883D01*
X130105468Y-109323439D01*
X130135833Y-109380249D01*
X130190289Y-109461748D01*
X130231152Y-109511540D01*
X130300460Y-109580848D01*
X130350252Y-109621711D01*
X130431751Y-109676167D01*
X130488561Y-109706532D01*
X130579117Y-109744041D01*
X130640755Y-109762738D01*
X130736888Y-109781860D01*
X130800991Y-109788174D01*
X130825553Y-109788174D01*
X130850000Y-109790582D01*
X131350000Y-109790582D01*
X131414103Y-109784268D01*
X131475743Y-109765570D01*
X131500000Y-109752604D01*
X131524257Y-109765570D01*
X131585897Y-109784268D01*
X131650000Y-109790582D01*
X131698001Y-109790582D01*
X131698000Y-111377795D01*
X131695813Y-111400000D01*
X131704540Y-111488607D01*
X131722252Y-111546996D01*
X131730386Y-111573809D01*
X131772357Y-111652332D01*
X131828841Y-111721159D01*
X131846100Y-111735323D01*
X132444684Y-112333909D01*
X132458840Y-112351158D01*
X132527666Y-112407642D01*
X132606189Y-112449613D01*
X132688847Y-112474687D01*
X132691392Y-112475459D01*
X132779999Y-112484186D01*
X132802204Y-112481999D01*
X139933967Y-112481999D01*
X139884939Y-112555375D01*
X139809407Y-112737727D01*
X139770900Y-112931312D01*
X139770900Y-113128688D01*
X139809407Y-113322273D01*
X139884939Y-113504625D01*
X139994596Y-113668738D01*
X140134162Y-113808304D01*
X140298275Y-113917961D01*
X140480627Y-113993493D01*
X140664157Y-114030000D01*
X140480627Y-114066507D01*
X140298275Y-114142039D01*
X140134162Y-114251696D01*
X139994596Y-114391262D01*
X139884939Y-114555375D01*
X139809407Y-114737727D01*
X139770900Y-114931312D01*
X139770900Y-115128688D01*
X139809407Y-115322273D01*
X139884939Y-115504625D01*
X139994596Y-115668738D01*
X140134162Y-115808304D01*
X140298275Y-115917961D01*
X140480627Y-115993493D01*
X140674212Y-116032000D01*
X140871588Y-116032000D01*
X141065173Y-115993493D01*
X141247525Y-115917961D01*
X141411638Y-115808304D01*
X141551204Y-115668738D01*
X141660861Y-115504625D01*
X141736393Y-115322273D01*
X141772900Y-115138743D01*
X141809407Y-115322273D01*
X141884939Y-115504625D01*
X141994596Y-115668738D01*
X142134162Y-115808304D01*
X142298275Y-115917961D01*
X142480627Y-115993493D01*
X142674212Y-116032000D01*
X142871588Y-116032000D01*
X143065173Y-115993493D01*
X143247525Y-115917961D01*
X143411638Y-115808304D01*
X143551204Y-115668738D01*
X143660861Y-115504625D01*
X143736393Y-115322273D01*
X143772900Y-115138743D01*
X143809407Y-115322273D01*
X143884939Y-115504625D01*
X143994596Y-115668738D01*
X144134162Y-115808304D01*
X144298275Y-115917961D01*
X144480627Y-115993493D01*
X144674212Y-116032000D01*
X144871588Y-116032000D01*
X145065173Y-115993493D01*
X145247525Y-115917961D01*
X145411638Y-115808304D01*
X145551204Y-115668738D01*
X145660861Y-115504625D01*
X145736393Y-115322273D01*
X145772900Y-115138743D01*
X145809407Y-115322273D01*
X145884939Y-115504625D01*
X145994596Y-115668738D01*
X146134162Y-115808304D01*
X146298275Y-115917961D01*
X146480627Y-115993493D01*
X146674212Y-116032000D01*
X146871588Y-116032000D01*
X147065173Y-115993493D01*
X147247525Y-115917961D01*
X147411638Y-115808304D01*
X147551204Y-115668738D01*
X147595157Y-115602958D01*
X147727556Y-115819537D01*
X147901673Y-116008303D01*
X148109271Y-116159473D01*
X148342372Y-116267238D01*
X148443500Y-116297910D01*
X148645900Y-116174224D01*
X148645900Y-115157000D01*
X148625900Y-115157000D01*
X148625900Y-114903000D01*
X148645900Y-114903000D01*
X148645900Y-114883000D01*
X148899900Y-114883000D01*
X148899900Y-114903000D01*
X148919900Y-114903000D01*
X148919900Y-115157000D01*
X148899900Y-115157000D01*
X148899900Y-116174224D01*
X149102300Y-116297910D01*
X149203428Y-116267238D01*
X149436529Y-116159473D01*
X149644127Y-116008303D01*
X149818244Y-115819537D01*
X149950643Y-115602958D01*
X149994596Y-115668738D01*
X150134162Y-115808304D01*
X150298275Y-115917961D01*
X150480627Y-115993493D01*
X150674212Y-116032000D01*
X150871588Y-116032000D01*
X151065173Y-115993493D01*
X151247525Y-115917961D01*
X151411638Y-115808304D01*
X151551204Y-115668738D01*
X151660861Y-115504625D01*
X151736393Y-115322273D01*
X151772900Y-115138743D01*
X151809407Y-115322273D01*
X151884939Y-115504625D01*
X151994596Y-115668738D01*
X152134162Y-115808304D01*
X152298275Y-115917961D01*
X152480627Y-115993493D01*
X152674212Y-116032000D01*
X152871588Y-116032000D01*
X153065173Y-115993493D01*
X153247525Y-115917961D01*
X153411638Y-115808304D01*
X153551204Y-115668738D01*
X153660861Y-115504625D01*
X153736393Y-115322273D01*
X153772900Y-115138743D01*
X153809407Y-115322273D01*
X153884939Y-115504625D01*
X153994596Y-115668738D01*
X154134162Y-115808304D01*
X154298275Y-115917961D01*
X154480627Y-115993493D01*
X154674212Y-116032000D01*
X154871588Y-116032000D01*
X155065173Y-115993493D01*
X155247525Y-115917961D01*
X155411638Y-115808304D01*
X155551204Y-115668738D01*
X155660861Y-115504625D01*
X155736393Y-115322273D01*
X155774900Y-115128688D01*
X155774900Y-114931312D01*
X155736393Y-114737727D01*
X155660861Y-114555375D01*
X155551204Y-114391262D01*
X155411638Y-114251696D01*
X155247525Y-114142039D01*
X155065173Y-114066507D01*
X154899650Y-114033582D01*
X155447900Y-114033582D01*
X155512003Y-114027268D01*
X155573643Y-114008570D01*
X155630450Y-113978206D01*
X155680243Y-113937343D01*
X155721106Y-113887550D01*
X155751470Y-113830743D01*
X155770168Y-113769103D01*
X155776482Y-113705000D01*
X155776482Y-113482000D01*
X161267795Y-113482000D01*
X161290000Y-113484187D01*
X161312205Y-113482000D01*
X161378607Y-113475460D01*
X161463810Y-113449614D01*
X161542333Y-113407643D01*
X161611159Y-113351159D01*
X161625323Y-113333900D01*
X161845313Y-113113910D01*
X166165912Y-108793313D01*
X166183159Y-108779159D01*
X166195764Y-108763799D01*
X166195604Y-109890952D01*
X166163585Y-110216978D01*
X166074924Y-110510472D01*
X165930942Y-110781159D01*
X165723927Y-111034904D01*
X160501203Y-116257529D01*
X160248214Y-116465337D01*
X159978010Y-116610220D01*
X159684812Y-116699859D01*
X159359545Y-116732899D01*
X136192750Y-116729403D01*
X135866735Y-116697388D01*
X135573233Y-116608726D01*
X135302552Y-116464749D01*
X135049317Y-116258153D01*
X129828507Y-111039931D01*
X129620174Y-110786427D01*
X129475227Y-110516259D01*
X129385517Y-110223083D01*
X129352401Y-109897844D01*
X129353324Y-103848000D01*
X129591495Y-103848000D01*
X129603755Y-103972482D01*
X129640065Y-104092180D01*
X129699030Y-104202494D01*
X129778382Y-104299185D01*
X129875073Y-104378537D01*
X129985387Y-104437502D01*
X130105085Y-104473812D01*
X130229567Y-104486072D01*
X130867150Y-104483000D01*
X131025900Y-104324250D01*
X131025900Y-102235000D01*
X129753317Y-102235000D01*
X129594567Y-102393750D01*
X129591495Y-103848000D01*
X129353324Y-103848000D01*
X129353835Y-100503000D01*
X129591780Y-100503000D01*
X129594567Y-101822250D01*
G37*
X129594567Y-101822250D02*
X129753317Y-101981000D01*
X131025900Y-101981000D01*
X131025900Y-101961000D01*
X131279900Y-101961000D01*
X131279900Y-101981000D01*
X131299900Y-101981000D01*
X131299900Y-102235000D01*
X131279900Y-102235000D01*
X131279900Y-104324250D01*
X131438650Y-104483000D01*
X132076233Y-104486072D01*
X132200715Y-104473812D01*
X132320413Y-104437502D01*
X132430727Y-104378537D01*
X132527418Y-104299185D01*
X132606770Y-104202494D01*
X132665735Y-104092180D01*
X132699611Y-103980505D01*
X132726361Y-104030550D01*
X132767224Y-104080343D01*
X132817017Y-104121206D01*
X132839637Y-104133297D01*
X132798211Y-104160977D01*
X132710877Y-104248311D01*
X132642260Y-104351004D01*
X132594995Y-104465111D01*
X132570900Y-104586246D01*
X132570900Y-104709754D01*
X132594995Y-104830889D01*
X132642260Y-104944996D01*
X132656574Y-104966418D01*
X132622900Y-104966418D01*
X132598453Y-104968826D01*
X132573891Y-104968826D01*
X132509788Y-104975140D01*
X132413655Y-104994262D01*
X132352017Y-105012959D01*
X132261461Y-105050468D01*
X132204651Y-105080833D01*
X132123152Y-105135289D01*
X132073360Y-105176152D01*
X132004052Y-105245460D01*
X131963189Y-105295252D01*
X131908733Y-105376751D01*
X131878368Y-105433561D01*
X131840859Y-105524117D01*
X131822162Y-105585755D01*
X131803040Y-105681888D01*
X131796726Y-105745991D01*
X131796726Y-105770553D01*
X131794318Y-105795000D01*
X131794318Y-106295000D01*
X131796726Y-106319447D01*
X131796726Y-106344009D01*
X131803040Y-106408112D01*
X131822162Y-106504245D01*
X131840859Y-106565883D01*
X131878368Y-106656439D01*
X131908733Y-106713249D01*
X131963189Y-106794748D01*
X132004052Y-106844540D01*
X132073360Y-106913848D01*
X132084509Y-106922998D01*
X131147207Y-106922998D01*
X131125002Y-106920811D01*
X131036394Y-106929538D01*
X130970187Y-106949622D01*
X130951192Y-106955384D01*
X130872669Y-106997355D01*
X130803843Y-107053839D01*
X130789679Y-107071098D01*
X130546100Y-107314677D01*
X130528841Y-107328841D01*
X130472357Y-107397668D01*
X130454536Y-107431010D01*
X130430386Y-107476191D01*
X130404540Y-107561393D01*
X130395813Y-107650000D01*
X130398000Y-107672205D01*
X130398000Y-107770385D01*
X130350252Y-107802289D01*
X130300460Y-107843152D01*
X130231152Y-107912460D01*
X130190289Y-107962252D01*
X130135833Y-108043751D01*
X130105468Y-108100561D01*
X130067959Y-108191117D01*
X130049262Y-108252755D01*
X130030140Y-108348888D01*
X130023826Y-108412991D01*
X130023826Y-108437553D01*
X130021418Y-108462000D01*
X130021418Y-108962000D01*
X130023826Y-108986447D01*
X130023826Y-109011009D01*
X130030140Y-109075112D01*
X130049262Y-109171245D01*
X130067959Y-109232883D01*
X130105468Y-109323439D01*
X130135833Y-109380249D01*
X130190289Y-109461748D01*
X130231152Y-109511540D01*
X130300460Y-109580848D01*
X130350252Y-109621711D01*
X130431751Y-109676167D01*
X130488561Y-109706532D01*
X130579117Y-109744041D01*
X130640755Y-109762738D01*
X130736888Y-109781860D01*
X130800991Y-109788174D01*
X130825553Y-109788174D01*
X130850000Y-109790582D01*
X131350000Y-109790582D01*
X131414103Y-109784268D01*
X131475743Y-109765570D01*
X131500000Y-109752604D01*
X131524257Y-109765570D01*
X131585897Y-109784268D01*
X131650000Y-109790582D01*
X131698001Y-109790582D01*
X131698000Y-111377795D01*
X131695813Y-111400000D01*
X131704540Y-111488607D01*
X131722252Y-111546996D01*
X131730386Y-111573809D01*
X131772357Y-111652332D01*
X131828841Y-111721159D01*
X131846100Y-111735323D01*
X132444684Y-112333909D01*
X132458840Y-112351158D01*
X132527666Y-112407642D01*
X132606189Y-112449613D01*
X132688847Y-112474687D01*
X132691392Y-112475459D01*
X132779999Y-112484186D01*
X132802204Y-112481999D01*
X139933967Y-112481999D01*
X139884939Y-112555375D01*
X139809407Y-112737727D01*
X139770900Y-112931312D01*
X139770900Y-113128688D01*
X139809407Y-113322273D01*
X139884939Y-113504625D01*
X139994596Y-113668738D01*
X140134162Y-113808304D01*
X140298275Y-113917961D01*
X140480627Y-113993493D01*
X140664157Y-114030000D01*
X140480627Y-114066507D01*
X140298275Y-114142039D01*
X140134162Y-114251696D01*
X139994596Y-114391262D01*
X139884939Y-114555375D01*
X139809407Y-114737727D01*
X139770900Y-114931312D01*
X139770900Y-115128688D01*
X139809407Y-115322273D01*
X139884939Y-115504625D01*
X139994596Y-115668738D01*
X140134162Y-115808304D01*
X140298275Y-115917961D01*
X140480627Y-115993493D01*
X140674212Y-116032000D01*
X140871588Y-116032000D01*
X141065173Y-115993493D01*
X141247525Y-115917961D01*
X141411638Y-115808304D01*
X141551204Y-115668738D01*
X141660861Y-115504625D01*
X141736393Y-115322273D01*
X141772900Y-115138743D01*
X141809407Y-115322273D01*
X141884939Y-115504625D01*
X141994596Y-115668738D01*
X142134162Y-115808304D01*
X142298275Y-115917961D01*
X142480627Y-115993493D01*
X142674212Y-116032000D01*
X142871588Y-116032000D01*
X143065173Y-115993493D01*
X143247525Y-115917961D01*
X143411638Y-115808304D01*
X143551204Y-115668738D01*
X143660861Y-115504625D01*
X143736393Y-115322273D01*
X143772900Y-115138743D01*
X143809407Y-115322273D01*
X143884939Y-115504625D01*
X143994596Y-115668738D01*
X144134162Y-115808304D01*
X144298275Y-115917961D01*
X144480627Y-115993493D01*
X144674212Y-116032000D01*
X144871588Y-116032000D01*
X145065173Y-115993493D01*
X145247525Y-115917961D01*
X145411638Y-115808304D01*
X145551204Y-115668738D01*
X145660861Y-115504625D01*
X145736393Y-115322273D01*
X145772900Y-115138743D01*
X145809407Y-115322273D01*
X145884939Y-115504625D01*
X145994596Y-115668738D01*
X146134162Y-115808304D01*
X146298275Y-115917961D01*
X146480627Y-115993493D01*
X146674212Y-116032000D01*
X146871588Y-116032000D01*
X147065173Y-115993493D01*
X147247525Y-115917961D01*
X147411638Y-115808304D01*
X147551204Y-115668738D01*
X147595157Y-115602958D01*
X147727556Y-115819537D01*
X147901673Y-116008303D01*
X148109271Y-116159473D01*
X148342372Y-116267238D01*
X148443500Y-116297910D01*
X148645900Y-116174224D01*
X148645900Y-115157000D01*
X148625900Y-115157000D01*
X148625900Y-114903000D01*
X148645900Y-114903000D01*
X148645900Y-114883000D01*
X148899900Y-114883000D01*
X148899900Y-114903000D01*
X148919900Y-114903000D01*
X148919900Y-115157000D01*
X148899900Y-115157000D01*
X148899900Y-116174224D01*
X149102300Y-116297910D01*
X149203428Y-116267238D01*
X149436529Y-116159473D01*
X149644127Y-116008303D01*
X149818244Y-115819537D01*
X149950643Y-115602958D01*
X149994596Y-115668738D01*
X150134162Y-115808304D01*
X150298275Y-115917961D01*
X150480627Y-115993493D01*
X150674212Y-116032000D01*
X150871588Y-116032000D01*
X151065173Y-115993493D01*
X151247525Y-115917961D01*
X151411638Y-115808304D01*
X151551204Y-115668738D01*
X151660861Y-115504625D01*
X151736393Y-115322273D01*
X151772900Y-115138743D01*
X151809407Y-115322273D01*
X151884939Y-115504625D01*
X151994596Y-115668738D01*
X152134162Y-115808304D01*
X152298275Y-115917961D01*
X152480627Y-115993493D01*
X152674212Y-116032000D01*
X152871588Y-116032000D01*
X153065173Y-115993493D01*
X153247525Y-115917961D01*
X153411638Y-115808304D01*
X153551204Y-115668738D01*
X153660861Y-115504625D01*
X153736393Y-115322273D01*
X153772900Y-115138743D01*
X153809407Y-115322273D01*
X153884939Y-115504625D01*
X153994596Y-115668738D01*
X154134162Y-115808304D01*
X154298275Y-115917961D01*
X154480627Y-115993493D01*
X154674212Y-116032000D01*
X154871588Y-116032000D01*
X155065173Y-115993493D01*
X155247525Y-115917961D01*
X155411638Y-115808304D01*
X155551204Y-115668738D01*
X155660861Y-115504625D01*
X155736393Y-115322273D01*
X155774900Y-115128688D01*
X155774900Y-114931312D01*
X155736393Y-114737727D01*
X155660861Y-114555375D01*
X155551204Y-114391262D01*
X155411638Y-114251696D01*
X155247525Y-114142039D01*
X155065173Y-114066507D01*
X154899650Y-114033582D01*
X155447900Y-114033582D01*
X155512003Y-114027268D01*
X155573643Y-114008570D01*
X155630450Y-113978206D01*
X155680243Y-113937343D01*
X155721106Y-113887550D01*
X155751470Y-113830743D01*
X155770168Y-113769103D01*
X155776482Y-113705000D01*
X155776482Y-113482000D01*
X161267795Y-113482000D01*
X161290000Y-113484187D01*
X161312205Y-113482000D01*
X161378607Y-113475460D01*
X161463810Y-113449614D01*
X161542333Y-113407643D01*
X161611159Y-113351159D01*
X161625323Y-113333900D01*
X161845313Y-113113910D01*
X166165912Y-108793313D01*
X166183159Y-108779159D01*
X166195764Y-108763799D01*
X166195604Y-109890952D01*
X166163585Y-110216978D01*
X166074924Y-110510472D01*
X165930942Y-110781159D01*
X165723927Y-111034904D01*
X160501203Y-116257529D01*
X160248214Y-116465337D01*
X159978010Y-116610220D01*
X159684812Y-116699859D01*
X159359545Y-116732899D01*
X136192750Y-116729403D01*
X135866735Y-116697388D01*
X135573233Y-116608726D01*
X135302552Y-116464749D01*
X135049317Y-116258153D01*
X129828507Y-111039931D01*
X129620174Y-110786427D01*
X129475227Y-110516259D01*
X129385517Y-110223083D01*
X129352401Y-109897844D01*
X129353324Y-103848000D01*
X129591495Y-103848000D01*
X129603755Y-103972482D01*
X129640065Y-104092180D01*
X129699030Y-104202494D01*
X129778382Y-104299185D01*
X129875073Y-104378537D01*
X129985387Y-104437502D01*
X130105085Y-104473812D01*
X130229567Y-104486072D01*
X130867150Y-104483000D01*
X131025900Y-104324250D01*
X131025900Y-102235000D01*
X129753317Y-102235000D01*
X129594567Y-102393750D01*
X129591495Y-103848000D01*
X129353324Y-103848000D01*
X129353835Y-100503000D01*
X129591780Y-100503000D01*
X129594567Y-101822250D01*
G36*
X163140985Y-103848000D02*
G01*
X163147299Y-103912103D01*
X163165997Y-103973743D01*
X163196361Y-104030550D01*
X163237224Y-104080343D01*
X163287017Y-104121206D01*
X163343824Y-104151570D01*
X163405464Y-104170268D01*
X163469567Y-104176582D01*
X163940900Y-104176582D01*
X163940900Y-104497615D01*
X163830023Y-104508535D01*
X163721486Y-104541460D01*
X163621457Y-104594926D01*
X163533780Y-104666880D01*
X163461826Y-104754557D01*
X163408360Y-104854586D01*
X163375435Y-104963123D01*
X163364318Y-105075999D01*
X163364318Y-105726001D01*
X163375435Y-105838877D01*
X163408360Y-105947414D01*
X163461826Y-106047443D01*
X163533780Y-106135120D01*
X163621457Y-106207074D01*
X163721486Y-106260540D01*
X163830023Y-106293465D01*
X163942899Y-106304582D01*
X163946364Y-106304582D01*
X163947440Y-106315507D01*
X163966837Y-106379451D01*
X163973286Y-106400709D01*
X164015257Y-106479232D01*
X164042249Y-106512123D01*
X163964507Y-106488540D01*
X163898105Y-106482000D01*
X163875900Y-106479813D01*
X163853695Y-106482000D01*
X163502712Y-106482000D01*
X163467689Y-106446977D01*
X163364996Y-106378360D01*
X163250889Y-106331095D01*
X163129754Y-106307000D01*
X163006246Y-106307000D01*
X162885111Y-106331095D01*
X162771004Y-106378360D01*
X162668311Y-106446977D01*
X162580977Y-106534311D01*
X162512360Y-106637004D01*
X162465095Y-106751111D01*
X162441000Y-106872246D01*
X162441000Y-106995754D01*
X162465095Y-107116889D01*
X162512360Y-107230996D01*
X162580977Y-107333689D01*
X162668311Y-107421023D01*
X162771004Y-107489640D01*
X162885111Y-107536905D01*
X163006246Y-107561000D01*
X163129754Y-107561000D01*
X163250889Y-107536905D01*
X163364318Y-107489921D01*
X163364318Y-107776001D01*
X163366066Y-107793749D01*
X163261754Y-107773000D01*
X163138246Y-107773000D01*
X163017111Y-107797095D01*
X162903004Y-107844360D01*
X162800311Y-107912977D01*
X162712977Y-108000311D01*
X162644360Y-108103004D01*
X162597095Y-108217111D01*
X162573000Y-108338246D01*
X162573000Y-108461754D01*
X162597095Y-108582889D01*
X162644360Y-108696996D01*
X162712977Y-108799689D01*
X162800311Y-108887023D01*
X162819733Y-108900000D01*
X162800311Y-108912977D01*
X162712977Y-109000311D01*
X162644360Y-109103004D01*
X162597095Y-109217111D01*
X162573000Y-109338246D01*
X162573000Y-109461754D01*
X162597095Y-109582889D01*
X162644360Y-109696996D01*
X162712977Y-109799689D01*
X162800311Y-109887023D01*
X162903004Y-109955640D01*
X163017111Y-110002905D01*
X163138246Y-110027000D01*
X163261754Y-110027000D01*
X163382889Y-110002905D01*
X163496996Y-109955640D01*
X163599689Y-109887023D01*
X163687023Y-109799689D01*
X163755640Y-109696996D01*
X163802905Y-109582889D01*
X163827000Y-109461754D01*
X163827000Y-109338246D01*
X163802905Y-109217111D01*
X163755640Y-109103004D01*
X163687023Y-109000311D01*
X163599689Y-108912977D01*
X163580267Y-108900000D01*
X163599689Y-108887023D01*
X163687023Y-108799689D01*
X163755640Y-108696996D01*
X163802905Y-108582889D01*
X163827000Y-108461754D01*
X163827000Y-108342548D01*
X163830023Y-108343465D01*
X163942899Y-108354582D01*
X164842901Y-108354582D01*
X164955777Y-108343465D01*
X165064314Y-108310540D01*
X165164343Y-108257074D01*
X165252020Y-108185120D01*
X165323974Y-108097443D01*
X165377440Y-107997414D01*
X165410000Y-107890079D01*
X165410000Y-108270775D01*
X161206090Y-112474687D01*
X161102777Y-112578000D01*
X155776482Y-112578000D01*
X155776482Y-112355000D01*
X155770168Y-112290897D01*
X155751470Y-112229257D01*
X155721106Y-112172450D01*
X155680243Y-112122657D01*
X155630450Y-112081794D01*
X155573643Y-112051430D01*
X155512003Y-112032732D01*
X155447900Y-112026418D01*
X154097900Y-112026418D01*
X154033797Y-112032732D01*
X153972157Y-112051430D01*
X153915350Y-112081794D01*
X153865557Y-112122657D01*
X153824694Y-112172450D01*
X153794330Y-112229257D01*
X153775632Y-112290897D01*
X153769318Y-112355000D01*
X153769318Y-112903250D01*
X153736393Y-112737727D01*
X153660861Y-112555375D01*
X153551204Y-112391262D01*
X153411638Y-112251696D01*
X153247525Y-112142039D01*
X153065173Y-112066507D01*
X152871588Y-112028000D01*
X152674212Y-112028000D01*
X152480627Y-112066507D01*
X152298275Y-112142039D01*
X152134162Y-112251696D01*
X151994596Y-112391262D01*
X151884939Y-112555375D01*
X151809407Y-112737727D01*
X151772900Y-112921257D01*
X151736393Y-112737727D01*
X151660861Y-112555375D01*
X151551204Y-112391262D01*
X151411638Y-112251696D01*
X151247525Y-112142039D01*
X151065173Y-112066507D01*
X150871588Y-112028000D01*
X150674212Y-112028000D01*
X150480627Y-112066507D01*
X150458002Y-112075878D01*
X150035854Y-111653730D01*
X150084120Y-111614120D01*
X150156074Y-111526443D01*
X150209540Y-111426414D01*
X150242465Y-111317877D01*
X150253582Y-111205001D01*
X150253582Y-110554999D01*
X150242465Y-110442123D01*
X150209540Y-110333586D01*
X150156074Y-110233557D01*
X150084120Y-110145880D01*
X149996443Y-110073926D01*
X149896414Y-110020460D01*
X149787877Y-109987535D01*
X149675001Y-109976418D01*
X148774999Y-109976418D01*
X148662123Y-109987535D01*
X148553586Y-110020460D01*
X148453557Y-110073926D01*
X148365880Y-110145880D01*
X148313693Y-110209470D01*
X148224900Y-110120677D01*
X148224900Y-109325121D01*
X148240460Y-109376414D01*
X148293926Y-109476443D01*
X148365880Y-109564120D01*
X148453557Y-109636074D01*
X148553586Y-109689540D01*
X148662123Y-109722465D01*
X148774999Y-109733582D01*
X149675001Y-109733582D01*
X149787877Y-109722465D01*
X149896414Y-109689540D01*
X149960499Y-109655286D01*
X149990498Y-109754180D01*
X150049463Y-109864494D01*
X150128815Y-109961185D01*
X150225506Y-110040537D01*
X150251418Y-110054387D01*
X150251418Y-110332500D01*
X150260566Y-110425379D01*
X150287658Y-110514689D01*
X150331652Y-110596997D01*
X150341751Y-110609303D01*
X150297095Y-110717111D01*
X150273000Y-110838246D01*
X150273000Y-110961754D01*
X150297095Y-111082889D01*
X150344360Y-111196996D01*
X150412977Y-111299689D01*
X150500311Y-111387023D01*
X150603004Y-111455640D01*
X150717111Y-111502905D01*
X150838246Y-111527000D01*
X150961754Y-111527000D01*
X151082889Y-111502905D01*
X151196996Y-111455640D01*
X151299689Y-111387023D01*
X151387023Y-111299689D01*
X151455640Y-111196996D01*
X151502905Y-111082889D01*
X151527000Y-110961754D01*
X151527000Y-110838246D01*
X151502905Y-110717111D01*
X151458249Y-110609303D01*
X151468348Y-110596997D01*
X151482988Y-110569607D01*
X151504042Y-110639011D01*
X151543647Y-110713107D01*
X151596947Y-110778053D01*
X151661893Y-110831353D01*
X151735989Y-110870958D01*
X151816388Y-110895347D01*
X151900000Y-110903582D01*
X153175000Y-110903582D01*
X153258612Y-110895347D01*
X153339011Y-110870958D01*
X153340634Y-110870091D01*
X153421965Y-110924434D01*
X153536072Y-110971699D01*
X153657207Y-110995794D01*
X153780715Y-110995794D01*
X153901850Y-110971699D01*
X154015957Y-110924434D01*
X154118650Y-110855817D01*
X154205984Y-110768483D01*
X154274601Y-110665790D01*
X154321866Y-110551683D01*
X154345961Y-110430548D01*
X154345961Y-110307040D01*
X154321866Y-110185905D01*
X154274601Y-110071798D01*
X154271390Y-110066992D01*
X154381921Y-110112776D01*
X154503056Y-110136871D01*
X154626564Y-110136871D01*
X154747699Y-110112776D01*
X154861806Y-110065511D01*
X154964499Y-109996894D01*
X155051833Y-109909560D01*
X155120450Y-109806867D01*
X155167715Y-109692760D01*
X155191810Y-109571625D01*
X155191810Y-109527000D01*
X156004497Y-109527000D01*
X155904095Y-109568588D01*
X155801402Y-109637205D01*
X155714068Y-109724539D01*
X155645451Y-109827232D01*
X155598186Y-109941339D01*
X155574091Y-110062474D01*
X155574091Y-110185982D01*
X155598186Y-110307117D01*
X155645451Y-110421224D01*
X155714068Y-110523917D01*
X155801402Y-110611251D01*
X155904095Y-110679868D01*
X156018202Y-110727133D01*
X156139337Y-110751228D01*
X156262845Y-110751228D01*
X156383980Y-110727133D01*
X156498087Y-110679868D01*
X156600780Y-110611251D01*
X156688114Y-110523917D01*
X156756731Y-110421224D01*
X156803996Y-110307117D01*
X156828091Y-110185982D01*
X156828091Y-110177000D01*
X157209018Y-110177000D01*
X157204653Y-110191388D01*
X157196418Y-110275000D01*
X157196418Y-110475000D01*
X157204653Y-110558612D01*
X157229042Y-110639011D01*
X157268647Y-110713107D01*
X157321947Y-110778053D01*
X157386893Y-110831353D01*
X157460989Y-110870958D01*
X157541388Y-110895347D01*
X157625000Y-110903582D01*
X158900000Y-110903582D01*
X158983612Y-110895347D01*
X159064011Y-110870958D01*
X159138107Y-110831353D01*
X159199802Y-110780721D01*
X159252333Y-110752643D01*
X159321159Y-110696159D01*
X159335323Y-110678900D01*
X160803912Y-109210313D01*
X160821159Y-109196159D01*
X160877643Y-109127333D01*
X160919614Y-109048810D01*
X160945460Y-108963607D01*
X160946245Y-108955640D01*
X160954187Y-108875001D01*
X160952000Y-108852796D01*
X160952000Y-105134712D01*
X160987023Y-105099689D01*
X161055640Y-104996996D01*
X161102905Y-104882889D01*
X161110084Y-104846796D01*
X161144311Y-104881023D01*
X161247004Y-104949640D01*
X161361111Y-104996905D01*
X161482246Y-105021000D01*
X161605754Y-105021000D01*
X161726889Y-104996905D01*
X161840996Y-104949640D01*
X161943689Y-104881023D01*
X162031023Y-104793689D01*
X162099640Y-104690996D01*
X162146905Y-104576889D01*
X162171000Y-104455754D01*
X162171000Y-104332246D01*
X162146905Y-104211111D01*
X162132603Y-104176582D01*
X162546233Y-104176582D01*
X162610336Y-104170268D01*
X162671976Y-104151570D01*
X162728783Y-104121206D01*
X162778576Y-104080343D01*
X162819439Y-104030550D01*
X162849803Y-103973743D01*
X162868501Y-103912103D01*
X162874815Y-103848000D01*
X162874815Y-100503000D01*
X163140985Y-100503000D01*
X163140985Y-103848000D01*
G37*
X163140985Y-103848000D02*
X163147299Y-103912103D01*
X163165997Y-103973743D01*
X163196361Y-104030550D01*
X163237224Y-104080343D01*
X163287017Y-104121206D01*
X163343824Y-104151570D01*
X163405464Y-104170268D01*
X163469567Y-104176582D01*
X163940900Y-104176582D01*
X163940900Y-104497615D01*
X163830023Y-104508535D01*
X163721486Y-104541460D01*
X163621457Y-104594926D01*
X163533780Y-104666880D01*
X163461826Y-104754557D01*
X163408360Y-104854586D01*
X163375435Y-104963123D01*
X163364318Y-105075999D01*
X163364318Y-105726001D01*
X163375435Y-105838877D01*
X163408360Y-105947414D01*
X163461826Y-106047443D01*
X163533780Y-106135120D01*
X163621457Y-106207074D01*
X163721486Y-106260540D01*
X163830023Y-106293465D01*
X163942899Y-106304582D01*
X163946364Y-106304582D01*
X163947440Y-106315507D01*
X163966837Y-106379451D01*
X163973286Y-106400709D01*
X164015257Y-106479232D01*
X164042249Y-106512123D01*
X163964507Y-106488540D01*
X163898105Y-106482000D01*
X163875900Y-106479813D01*
X163853695Y-106482000D01*
X163502712Y-106482000D01*
X163467689Y-106446977D01*
X163364996Y-106378360D01*
X163250889Y-106331095D01*
X163129754Y-106307000D01*
X163006246Y-106307000D01*
X162885111Y-106331095D01*
X162771004Y-106378360D01*
X162668311Y-106446977D01*
X162580977Y-106534311D01*
X162512360Y-106637004D01*
X162465095Y-106751111D01*
X162441000Y-106872246D01*
X162441000Y-106995754D01*
X162465095Y-107116889D01*
X162512360Y-107230996D01*
X162580977Y-107333689D01*
X162668311Y-107421023D01*
X162771004Y-107489640D01*
X162885111Y-107536905D01*
X163006246Y-107561000D01*
X163129754Y-107561000D01*
X163250889Y-107536905D01*
X163364318Y-107489921D01*
X163364318Y-107776001D01*
X163366066Y-107793749D01*
X163261754Y-107773000D01*
X163138246Y-107773000D01*
X163017111Y-107797095D01*
X162903004Y-107844360D01*
X162800311Y-107912977D01*
X162712977Y-108000311D01*
X162644360Y-108103004D01*
X162597095Y-108217111D01*
X162573000Y-108338246D01*
X162573000Y-108461754D01*
X162597095Y-108582889D01*
X162644360Y-108696996D01*
X162712977Y-108799689D01*
X162800311Y-108887023D01*
X162819733Y-108900000D01*
X162800311Y-108912977D01*
X162712977Y-109000311D01*
X162644360Y-109103004D01*
X162597095Y-109217111D01*
X162573000Y-109338246D01*
X162573000Y-109461754D01*
X162597095Y-109582889D01*
X162644360Y-109696996D01*
X162712977Y-109799689D01*
X162800311Y-109887023D01*
X162903004Y-109955640D01*
X163017111Y-110002905D01*
X163138246Y-110027000D01*
X163261754Y-110027000D01*
X163382889Y-110002905D01*
X163496996Y-109955640D01*
X163599689Y-109887023D01*
X163687023Y-109799689D01*
X163755640Y-109696996D01*
X163802905Y-109582889D01*
X163827000Y-109461754D01*
X163827000Y-109338246D01*
X163802905Y-109217111D01*
X163755640Y-109103004D01*
X163687023Y-109000311D01*
X163599689Y-108912977D01*
X163580267Y-108900000D01*
X163599689Y-108887023D01*
X163687023Y-108799689D01*
X163755640Y-108696996D01*
X163802905Y-108582889D01*
X163827000Y-108461754D01*
X163827000Y-108342548D01*
X163830023Y-108343465D01*
X163942899Y-108354582D01*
X164842901Y-108354582D01*
X164955777Y-108343465D01*
X165064314Y-108310540D01*
X165164343Y-108257074D01*
X165252020Y-108185120D01*
X165323974Y-108097443D01*
X165377440Y-107997414D01*
X165410000Y-107890079D01*
X165410000Y-108270775D01*
X161206090Y-112474687D01*
X161102777Y-112578000D01*
X155776482Y-112578000D01*
X155776482Y-112355000D01*
X155770168Y-112290897D01*
X155751470Y-112229257D01*
X155721106Y-112172450D01*
X155680243Y-112122657D01*
X155630450Y-112081794D01*
X155573643Y-112051430D01*
X155512003Y-112032732D01*
X155447900Y-112026418D01*
X154097900Y-112026418D01*
X154033797Y-112032732D01*
X153972157Y-112051430D01*
X153915350Y-112081794D01*
X153865557Y-112122657D01*
X153824694Y-112172450D01*
X153794330Y-112229257D01*
X153775632Y-112290897D01*
X153769318Y-112355000D01*
X153769318Y-112903250D01*
X153736393Y-112737727D01*
X153660861Y-112555375D01*
X153551204Y-112391262D01*
X153411638Y-112251696D01*
X153247525Y-112142039D01*
X153065173Y-112066507D01*
X152871588Y-112028000D01*
X152674212Y-112028000D01*
X152480627Y-112066507D01*
X152298275Y-112142039D01*
X152134162Y-112251696D01*
X151994596Y-112391262D01*
X151884939Y-112555375D01*
X151809407Y-112737727D01*
X151772900Y-112921257D01*
X151736393Y-112737727D01*
X151660861Y-112555375D01*
X151551204Y-112391262D01*
X151411638Y-112251696D01*
X151247525Y-112142039D01*
X151065173Y-112066507D01*
X150871588Y-112028000D01*
X150674212Y-112028000D01*
X150480627Y-112066507D01*
X150458002Y-112075878D01*
X150035854Y-111653730D01*
X150084120Y-111614120D01*
X150156074Y-111526443D01*
X150209540Y-111426414D01*
X150242465Y-111317877D01*
X150253582Y-111205001D01*
X150253582Y-110554999D01*
X150242465Y-110442123D01*
X150209540Y-110333586D01*
X150156074Y-110233557D01*
X150084120Y-110145880D01*
X149996443Y-110073926D01*
X149896414Y-110020460D01*
X149787877Y-109987535D01*
X149675001Y-109976418D01*
X148774999Y-109976418D01*
X148662123Y-109987535D01*
X148553586Y-110020460D01*
X148453557Y-110073926D01*
X148365880Y-110145880D01*
X148313693Y-110209470D01*
X148224900Y-110120677D01*
X148224900Y-109325121D01*
X148240460Y-109376414D01*
X148293926Y-109476443D01*
X148365880Y-109564120D01*
X148453557Y-109636074D01*
X148553586Y-109689540D01*
X148662123Y-109722465D01*
X148774999Y-109733582D01*
X149675001Y-109733582D01*
X149787877Y-109722465D01*
X149896414Y-109689540D01*
X149960499Y-109655286D01*
X149990498Y-109754180D01*
X150049463Y-109864494D01*
X150128815Y-109961185D01*
X150225506Y-110040537D01*
X150251418Y-110054387D01*
X150251418Y-110332500D01*
X150260566Y-110425379D01*
X150287658Y-110514689D01*
X150331652Y-110596997D01*
X150341751Y-110609303D01*
X150297095Y-110717111D01*
X150273000Y-110838246D01*
X150273000Y-110961754D01*
X150297095Y-111082889D01*
X150344360Y-111196996D01*
X150412977Y-111299689D01*
X150500311Y-111387023D01*
X150603004Y-111455640D01*
X150717111Y-111502905D01*
X150838246Y-111527000D01*
X150961754Y-111527000D01*
X151082889Y-111502905D01*
X151196996Y-111455640D01*
X151299689Y-111387023D01*
X151387023Y-111299689D01*
X151455640Y-111196996D01*
X151502905Y-111082889D01*
X151527000Y-110961754D01*
X151527000Y-110838246D01*
X151502905Y-110717111D01*
X151458249Y-110609303D01*
X151468348Y-110596997D01*
X151482988Y-110569607D01*
X151504042Y-110639011D01*
X151543647Y-110713107D01*
X151596947Y-110778053D01*
X151661893Y-110831353D01*
X151735989Y-110870958D01*
X151816388Y-110895347D01*
X151900000Y-110903582D01*
X153175000Y-110903582D01*
X153258612Y-110895347D01*
X153339011Y-110870958D01*
X153340634Y-110870091D01*
X153421965Y-110924434D01*
X153536072Y-110971699D01*
X153657207Y-110995794D01*
X153780715Y-110995794D01*
X153901850Y-110971699D01*
X154015957Y-110924434D01*
X154118650Y-110855817D01*
X154205984Y-110768483D01*
X154274601Y-110665790D01*
X154321866Y-110551683D01*
X154345961Y-110430548D01*
X154345961Y-110307040D01*
X154321866Y-110185905D01*
X154274601Y-110071798D01*
X154271390Y-110066992D01*
X154381921Y-110112776D01*
X154503056Y-110136871D01*
X154626564Y-110136871D01*
X154747699Y-110112776D01*
X154861806Y-110065511D01*
X154964499Y-109996894D01*
X155051833Y-109909560D01*
X155120450Y-109806867D01*
X155167715Y-109692760D01*
X155191810Y-109571625D01*
X155191810Y-109527000D01*
X156004497Y-109527000D01*
X155904095Y-109568588D01*
X155801402Y-109637205D01*
X155714068Y-109724539D01*
X155645451Y-109827232D01*
X155598186Y-109941339D01*
X155574091Y-110062474D01*
X155574091Y-110185982D01*
X155598186Y-110307117D01*
X155645451Y-110421224D01*
X155714068Y-110523917D01*
X155801402Y-110611251D01*
X155904095Y-110679868D01*
X156018202Y-110727133D01*
X156139337Y-110751228D01*
X156262845Y-110751228D01*
X156383980Y-110727133D01*
X156498087Y-110679868D01*
X156600780Y-110611251D01*
X156688114Y-110523917D01*
X156756731Y-110421224D01*
X156803996Y-110307117D01*
X156828091Y-110185982D01*
X156828091Y-110177000D01*
X157209018Y-110177000D01*
X157204653Y-110191388D01*
X157196418Y-110275000D01*
X157196418Y-110475000D01*
X157204653Y-110558612D01*
X157229042Y-110639011D01*
X157268647Y-110713107D01*
X157321947Y-110778053D01*
X157386893Y-110831353D01*
X157460989Y-110870958D01*
X157541388Y-110895347D01*
X157625000Y-110903582D01*
X158900000Y-110903582D01*
X158983612Y-110895347D01*
X159064011Y-110870958D01*
X159138107Y-110831353D01*
X159199802Y-110780721D01*
X159252333Y-110752643D01*
X159321159Y-110696159D01*
X159335323Y-110678900D01*
X160803912Y-109210313D01*
X160821159Y-109196159D01*
X160877643Y-109127333D01*
X160919614Y-109048810D01*
X160945460Y-108963607D01*
X160946245Y-108955640D01*
X160954187Y-108875001D01*
X160952000Y-108852796D01*
X160952000Y-105134712D01*
X160987023Y-105099689D01*
X161055640Y-104996996D01*
X161102905Y-104882889D01*
X161110084Y-104846796D01*
X161144311Y-104881023D01*
X161247004Y-104949640D01*
X161361111Y-104996905D01*
X161482246Y-105021000D01*
X161605754Y-105021000D01*
X161726889Y-104996905D01*
X161840996Y-104949640D01*
X161943689Y-104881023D01*
X162031023Y-104793689D01*
X162099640Y-104690996D01*
X162146905Y-104576889D01*
X162171000Y-104455754D01*
X162171000Y-104332246D01*
X162146905Y-104211111D01*
X162132603Y-104176582D01*
X162546233Y-104176582D01*
X162610336Y-104170268D01*
X162671976Y-104151570D01*
X162728783Y-104121206D01*
X162778576Y-104080343D01*
X162819439Y-104030550D01*
X162849803Y-103973743D01*
X162868501Y-103912103D01*
X162874815Y-103848000D01*
X162874815Y-100503000D01*
X163140985Y-100503000D01*
X163140985Y-103848000D01*
G36*
X140314289Y-107575748D02*
G01*
X140355152Y-107625540D01*
X140424460Y-107694848D01*
X140474252Y-107735711D01*
X140555751Y-107790167D01*
X140594057Y-107810641D01*
X140578557Y-107818926D01*
X140490880Y-107890880D01*
X140418926Y-107978557D01*
X140365460Y-108078586D01*
X140332535Y-108187123D01*
X140321418Y-108299999D01*
X140321418Y-109200001D01*
X140332535Y-109312877D01*
X140365460Y-109421414D01*
X140418926Y-109521443D01*
X140462879Y-109575000D01*
X140425000Y-109621156D01*
X140359120Y-109540880D01*
X140271443Y-109468926D01*
X140171414Y-109415460D01*
X140062877Y-109382535D01*
X139950001Y-109371418D01*
X139299999Y-109371418D01*
X139187123Y-109382535D01*
X139078586Y-109415460D01*
X138978557Y-109468926D01*
X138890880Y-109540880D01*
X138818926Y-109628557D01*
X138786931Y-109688416D01*
X138775812Y-109575518D01*
X138739502Y-109455820D01*
X138680537Y-109345506D01*
X138601185Y-109248815D01*
X138504494Y-109169463D01*
X138394180Y-109110498D01*
X138274482Y-109074188D01*
X138150000Y-109061928D01*
X137860750Y-109065000D01*
X137702000Y-109223750D01*
X137702000Y-110273000D01*
X137722000Y-110273000D01*
X137722000Y-110527000D01*
X137702000Y-110527000D01*
X137702000Y-110547000D01*
X137448000Y-110547000D01*
X137448000Y-110527000D01*
X136523750Y-110527000D01*
X136365000Y-110685750D01*
X136361928Y-111100000D01*
X136364685Y-111127989D01*
X135367213Y-111127989D01*
X135246328Y-111007104D01*
X135282041Y-110920883D01*
X135300738Y-110859245D01*
X135319860Y-110763112D01*
X135326174Y-110699009D01*
X135326174Y-110674447D01*
X135328582Y-110650000D01*
X135328582Y-110150000D01*
X135322268Y-110085897D01*
X135303570Y-110024257D01*
X135290604Y-110000000D01*
X135303570Y-109975743D01*
X135322268Y-109914103D01*
X135328582Y-109850000D01*
X135328582Y-109700000D01*
X136361928Y-109700000D01*
X136365000Y-110114250D01*
X136523750Y-110273000D01*
X137448000Y-110273000D01*
X137448000Y-109223750D01*
X137289250Y-109065000D01*
X137000000Y-109061928D01*
X136875518Y-109074188D01*
X136755820Y-109110498D01*
X136645506Y-109169463D01*
X136548815Y-109248815D01*
X136469463Y-109345506D01*
X136410498Y-109455820D01*
X136374188Y-109575518D01*
X136361928Y-109700000D01*
X135328582Y-109700000D01*
X135328582Y-109350000D01*
X135326174Y-109325553D01*
X135326174Y-109300991D01*
X135319860Y-109236888D01*
X135300738Y-109140755D01*
X135282041Y-109079117D01*
X135244532Y-108988561D01*
X135214167Y-108931751D01*
X135159711Y-108850252D01*
X135118848Y-108800460D01*
X135049540Y-108731152D01*
X134999748Y-108690289D01*
X134918249Y-108635833D01*
X134861439Y-108605468D01*
X134793415Y-108577292D01*
X134805640Y-108558996D01*
X134849960Y-108451998D01*
X137565288Y-108451998D01*
X137600311Y-108487021D01*
X137703004Y-108555638D01*
X137817111Y-108602903D01*
X137938246Y-108626998D01*
X138061754Y-108626998D01*
X138182889Y-108602903D01*
X138296996Y-108555638D01*
X138399689Y-108487021D01*
X138487023Y-108399687D01*
X138555640Y-108296994D01*
X138602905Y-108182887D01*
X138627000Y-108061752D01*
X138627000Y-107938244D01*
X138604872Y-107826998D01*
X139852793Y-107826998D01*
X139874998Y-107829185D01*
X139897203Y-107826998D01*
X139963605Y-107820458D01*
X140048808Y-107794612D01*
X140127331Y-107752641D01*
X140196157Y-107696157D01*
X140210321Y-107678898D01*
X140313961Y-107575258D01*
X140314289Y-107575748D01*
G37*
X140314289Y-107575748D02*
X140355152Y-107625540D01*
X140424460Y-107694848D01*
X140474252Y-107735711D01*
X140555751Y-107790167D01*
X140594057Y-107810641D01*
X140578557Y-107818926D01*
X140490880Y-107890880D01*
X140418926Y-107978557D01*
X140365460Y-108078586D01*
X140332535Y-108187123D01*
X140321418Y-108299999D01*
X140321418Y-109200001D01*
X140332535Y-109312877D01*
X140365460Y-109421414D01*
X140418926Y-109521443D01*
X140462879Y-109575000D01*
X140425000Y-109621156D01*
X140359120Y-109540880D01*
X140271443Y-109468926D01*
X140171414Y-109415460D01*
X140062877Y-109382535D01*
X139950001Y-109371418D01*
X139299999Y-109371418D01*
X139187123Y-109382535D01*
X139078586Y-109415460D01*
X138978557Y-109468926D01*
X138890880Y-109540880D01*
X138818926Y-109628557D01*
X138786931Y-109688416D01*
X138775812Y-109575518D01*
X138739502Y-109455820D01*
X138680537Y-109345506D01*
X138601185Y-109248815D01*
X138504494Y-109169463D01*
X138394180Y-109110498D01*
X138274482Y-109074188D01*
X138150000Y-109061928D01*
X137860750Y-109065000D01*
X137702000Y-109223750D01*
X137702000Y-110273000D01*
X137722000Y-110273000D01*
X137722000Y-110527000D01*
X137702000Y-110527000D01*
X137702000Y-110547000D01*
X137448000Y-110547000D01*
X137448000Y-110527000D01*
X136523750Y-110527000D01*
X136365000Y-110685750D01*
X136361928Y-111100000D01*
X136364685Y-111127989D01*
X135367213Y-111127989D01*
X135246328Y-111007104D01*
X135282041Y-110920883D01*
X135300738Y-110859245D01*
X135319860Y-110763112D01*
X135326174Y-110699009D01*
X135326174Y-110674447D01*
X135328582Y-110650000D01*
X135328582Y-110150000D01*
X135322268Y-110085897D01*
X135303570Y-110024257D01*
X135290604Y-110000000D01*
X135303570Y-109975743D01*
X135322268Y-109914103D01*
X135328582Y-109850000D01*
X135328582Y-109700000D01*
X136361928Y-109700000D01*
X136365000Y-110114250D01*
X136523750Y-110273000D01*
X137448000Y-110273000D01*
X137448000Y-109223750D01*
X137289250Y-109065000D01*
X137000000Y-109061928D01*
X136875518Y-109074188D01*
X136755820Y-109110498D01*
X136645506Y-109169463D01*
X136548815Y-109248815D01*
X136469463Y-109345506D01*
X136410498Y-109455820D01*
X136374188Y-109575518D01*
X136361928Y-109700000D01*
X135328582Y-109700000D01*
X135328582Y-109350000D01*
X135326174Y-109325553D01*
X135326174Y-109300991D01*
X135319860Y-109236888D01*
X135300738Y-109140755D01*
X135282041Y-109079117D01*
X135244532Y-108988561D01*
X135214167Y-108931751D01*
X135159711Y-108850252D01*
X135118848Y-108800460D01*
X135049540Y-108731152D01*
X134999748Y-108690289D01*
X134918249Y-108635833D01*
X134861439Y-108605468D01*
X134793415Y-108577292D01*
X134805640Y-108558996D01*
X134849960Y-108451998D01*
X137565288Y-108451998D01*
X137600311Y-108487021D01*
X137703004Y-108555638D01*
X137817111Y-108602903D01*
X137938246Y-108626998D01*
X138061754Y-108626998D01*
X138182889Y-108602903D01*
X138296996Y-108555638D01*
X138399689Y-108487021D01*
X138487023Y-108399687D01*
X138555640Y-108296994D01*
X138602905Y-108182887D01*
X138627000Y-108061752D01*
X138627000Y-107938244D01*
X138604872Y-107826998D01*
X139852793Y-107826998D01*
X139874998Y-107829185D01*
X139897203Y-107826998D01*
X139963605Y-107820458D01*
X140048808Y-107794612D01*
X140127331Y-107752641D01*
X140196157Y-107696157D01*
X140210321Y-107678898D01*
X140313961Y-107575258D01*
X140314289Y-107575748D01*
G36*
X149290985Y-103848000D02*
G01*
X149297299Y-103912103D01*
X149315997Y-103973743D01*
X149346361Y-104030550D01*
X149387224Y-104080343D01*
X149437017Y-104121206D01*
X149493824Y-104151570D01*
X149555464Y-104170268D01*
X149619567Y-104176582D01*
X149779397Y-104176582D01*
X149765095Y-104211111D01*
X149741000Y-104332246D01*
X149741000Y-104455754D01*
X149765095Y-104576889D01*
X149812360Y-104690996D01*
X149880977Y-104793689D01*
X149968311Y-104881023D01*
X150071004Y-104949640D01*
X150185111Y-104996905D01*
X150306246Y-105021000D01*
X150429754Y-105021000D01*
X150550889Y-104996905D01*
X150664996Y-104949640D01*
X150767689Y-104881023D01*
X150855023Y-104793689D01*
X150923640Y-104690996D01*
X150970905Y-104576889D01*
X150995000Y-104455754D01*
X150995000Y-104332246D01*
X150988943Y-104301793D01*
X150997087Y-104219100D01*
X150994900Y-104196895D01*
X150994900Y-104176582D01*
X151466233Y-104176582D01*
X151530336Y-104170268D01*
X151591976Y-104151570D01*
X151648783Y-104121206D01*
X151698576Y-104080343D01*
X151739439Y-104030550D01*
X151769803Y-103973743D01*
X151788501Y-103912103D01*
X151794815Y-103848000D01*
X151794815Y-100503000D01*
X152060985Y-100503000D01*
X152060985Y-103848000D01*
X152067299Y-103912103D01*
X152085997Y-103973743D01*
X152116361Y-104030550D01*
X152157224Y-104080343D01*
X152207017Y-104121206D01*
X152263824Y-104151570D01*
X152325464Y-104170268D01*
X152389567Y-104176582D01*
X152827397Y-104176582D01*
X152813095Y-104211111D01*
X152789000Y-104332246D01*
X152789000Y-104455754D01*
X152813095Y-104576889D01*
X152860360Y-104690996D01*
X152928977Y-104793689D01*
X153016311Y-104881023D01*
X153119004Y-104949640D01*
X153233111Y-104996905D01*
X153354246Y-105021000D01*
X153477754Y-105021000D01*
X153598889Y-104996905D01*
X153712996Y-104949640D01*
X153815689Y-104881023D01*
X153903023Y-104793689D01*
X153971640Y-104690996D01*
X154018905Y-104576889D01*
X154043000Y-104455754D01*
X154043000Y-104332246D01*
X154018905Y-104211111D01*
X154004603Y-104176582D01*
X154236233Y-104176582D01*
X154300336Y-104170268D01*
X154361976Y-104151570D01*
X154418783Y-104121206D01*
X154468576Y-104080343D01*
X154509439Y-104030550D01*
X154539803Y-103973743D01*
X154558501Y-103912103D01*
X154564815Y-103848000D01*
X154564815Y-100503000D01*
X154830985Y-100503000D01*
X154830985Y-103848000D01*
X154837299Y-103912103D01*
X154855997Y-103973743D01*
X154886361Y-104030550D01*
X154927224Y-104080343D01*
X154977017Y-104121206D01*
X155033824Y-104151570D01*
X155095464Y-104170268D01*
X155159567Y-104176582D01*
X155621397Y-104176582D01*
X155607095Y-104211111D01*
X155583000Y-104332246D01*
X155583000Y-104455754D01*
X155607095Y-104576889D01*
X155654360Y-104690996D01*
X155722977Y-104793689D01*
X155810311Y-104881023D01*
X155913004Y-104949640D01*
X156027111Y-104996905D01*
X156148246Y-105021000D01*
X156271754Y-105021000D01*
X156392889Y-104996905D01*
X156506996Y-104949640D01*
X156609689Y-104881023D01*
X156697023Y-104793689D01*
X156765640Y-104690996D01*
X156812905Y-104576889D01*
X156837000Y-104455754D01*
X156837000Y-104332246D01*
X156812905Y-104211111D01*
X156798603Y-104176582D01*
X157006233Y-104176582D01*
X157070336Y-104170268D01*
X157131976Y-104151570D01*
X157188783Y-104121206D01*
X157238576Y-104080343D01*
X157279439Y-104030550D01*
X157309803Y-103973743D01*
X157328501Y-103912103D01*
X157334815Y-103848000D01*
X157334815Y-100503000D01*
X157600985Y-100503000D01*
X157600985Y-103848000D01*
X157607299Y-103912103D01*
X157625997Y-103973743D01*
X157656361Y-104030550D01*
X157697224Y-104080343D01*
X157747017Y-104121206D01*
X157803824Y-104151570D01*
X157865464Y-104170268D01*
X157929567Y-104176582D01*
X158440701Y-104176582D01*
X158460155Y-104212977D01*
X158475258Y-104241233D01*
X158531742Y-104310059D01*
X158548996Y-104324219D01*
X159261397Y-105036622D01*
X159210360Y-105113004D01*
X159163095Y-105227111D01*
X159139000Y-105348246D01*
X159139000Y-105471754D01*
X159163095Y-105592889D01*
X159210360Y-105706996D01*
X159278977Y-105809689D01*
X159366311Y-105897023D01*
X159469004Y-105965640D01*
X159583111Y-106012905D01*
X159704246Y-106037000D01*
X159827754Y-106037000D01*
X159948889Y-106012905D01*
X160048001Y-105971851D01*
X160048000Y-108687775D01*
X159288584Y-109447193D01*
X159263359Y-109400000D01*
X159295958Y-109339011D01*
X159320347Y-109258612D01*
X159328582Y-109175000D01*
X159328582Y-108975000D01*
X159320347Y-108891388D01*
X159295958Y-108810989D01*
X159263359Y-108750000D01*
X159295958Y-108689011D01*
X159320347Y-108608612D01*
X159328582Y-108525000D01*
X159328582Y-108325000D01*
X159320347Y-108241388D01*
X159295958Y-108160989D01*
X159256353Y-108086893D01*
X159203053Y-108021947D01*
X159138107Y-107968647D01*
X159064011Y-107929042D01*
X158983612Y-107904653D01*
X158900000Y-107896418D01*
X157625000Y-107896418D01*
X157541388Y-107904653D01*
X157460989Y-107929042D01*
X157386893Y-107968647D01*
X157381589Y-107973000D01*
X154612225Y-107973000D01*
X153927000Y-107287776D01*
X153927000Y-107238246D01*
X153902905Y-107117111D01*
X153855640Y-107003004D01*
X153787023Y-106900311D01*
X153699689Y-106812977D01*
X153596996Y-106744360D01*
X153482889Y-106697095D01*
X153361754Y-106673000D01*
X153238246Y-106673000D01*
X153117111Y-106697095D01*
X153003004Y-106744360D01*
X152900311Y-106812977D01*
X152812977Y-106900311D01*
X152744360Y-107003004D01*
X152697095Y-107117111D01*
X152673000Y-107238246D01*
X152673000Y-107361754D01*
X152697095Y-107482889D01*
X152744360Y-107596996D01*
X152773157Y-107640093D01*
X152664500Y-107748750D01*
X152664500Y-108352000D01*
X152684500Y-108352000D01*
X152684500Y-108498000D01*
X152664500Y-108498000D01*
X152664500Y-108546418D01*
X152410500Y-108546418D01*
X152410500Y-108498000D01*
X152390500Y-108498000D01*
X152390500Y-108352000D01*
X152410500Y-108352000D01*
X152410500Y-107748750D01*
X152251750Y-107590000D01*
X151809600Y-107587000D01*
X151684948Y-107597386D01*
X151564718Y-107631891D01*
X151453529Y-107689189D01*
X151355654Y-107767078D01*
X151274856Y-107862564D01*
X151214239Y-107971979D01*
X151176132Y-108091117D01*
X151165000Y-108193250D01*
X151257357Y-108285607D01*
X151220000Y-108281928D01*
X151185750Y-108285000D01*
X151172752Y-108297998D01*
X151165000Y-108297998D01*
X151165000Y-108305750D01*
X151027000Y-108443750D01*
X151027000Y-109088000D01*
X151047000Y-109088000D01*
X151047000Y-109342000D01*
X151027000Y-109342000D01*
X151027000Y-109362000D01*
X150773000Y-109362000D01*
X150773000Y-109342000D01*
X150753000Y-109342000D01*
X150753000Y-109088000D01*
X150773000Y-109088000D01*
X150773000Y-108443750D01*
X150614250Y-108285000D01*
X150580000Y-108281928D01*
X150455518Y-108294188D01*
X150335820Y-108330498D01*
X150239404Y-108382034D01*
X150209540Y-108283586D01*
X150156074Y-108183557D01*
X150132221Y-108154491D01*
X150187023Y-108099689D01*
X150255640Y-107996996D01*
X150302905Y-107882889D01*
X150327000Y-107761754D01*
X150327000Y-107638246D01*
X150302905Y-107517111D01*
X150255640Y-107403004D01*
X150187023Y-107300311D01*
X150099689Y-107212977D01*
X149996996Y-107144360D01*
X149882889Y-107097095D01*
X149761754Y-107073000D01*
X149638246Y-107073000D01*
X149517111Y-107097095D01*
X149403004Y-107144360D01*
X149300311Y-107212977D01*
X149212977Y-107300311D01*
X149144360Y-107403004D01*
X149097095Y-107517111D01*
X149073000Y-107638246D01*
X149073000Y-107687776D01*
X148921095Y-107839682D01*
X148903842Y-107853841D01*
X148849290Y-107920313D01*
X148847358Y-107922667D01*
X148845353Y-107926418D01*
X148774999Y-107926418D01*
X148662123Y-107937535D01*
X148553586Y-107970460D01*
X148453557Y-108023926D01*
X148365880Y-108095880D01*
X148293926Y-108183557D01*
X148240460Y-108283586D01*
X148224900Y-108334879D01*
X148224900Y-106618246D01*
X149995000Y-106618246D01*
X149995000Y-106741754D01*
X150019095Y-106862889D01*
X150066360Y-106976996D01*
X150134977Y-107079689D01*
X150222311Y-107167023D01*
X150325004Y-107235640D01*
X150439111Y-107282905D01*
X150560246Y-107307000D01*
X150683754Y-107307000D01*
X150804889Y-107282905D01*
X150918996Y-107235640D01*
X151021689Y-107167023D01*
X151109023Y-107079689D01*
X151177640Y-106976996D01*
X151224905Y-106862889D01*
X151249000Y-106741754D01*
X151249000Y-106618246D01*
X151224905Y-106497111D01*
X151177640Y-106383004D01*
X151109023Y-106280311D01*
X151021689Y-106192977D01*
X150918996Y-106124360D01*
X150804889Y-106077095D01*
X150683754Y-106053000D01*
X150560246Y-106053000D01*
X150439111Y-106077095D01*
X150325004Y-106124360D01*
X150222311Y-106192977D01*
X150134977Y-106280311D01*
X150066360Y-106383004D01*
X150019095Y-106497111D01*
X149995000Y-106618246D01*
X148224900Y-106618246D01*
X148224900Y-104176582D01*
X148696233Y-104176582D01*
X148760336Y-104170268D01*
X148821976Y-104151570D01*
X148878783Y-104121206D01*
X148928576Y-104080343D01*
X148969439Y-104030550D01*
X148999803Y-103973743D01*
X149018501Y-103912103D01*
X149024815Y-103848000D01*
X149024815Y-100503000D01*
X149290985Y-100503000D01*
X149290985Y-103848000D01*
G37*
X149290985Y-103848000D02*
X149297299Y-103912103D01*
X149315997Y-103973743D01*
X149346361Y-104030550D01*
X149387224Y-104080343D01*
X149437017Y-104121206D01*
X149493824Y-104151570D01*
X149555464Y-104170268D01*
X149619567Y-104176582D01*
X149779397Y-104176582D01*
X149765095Y-104211111D01*
X149741000Y-104332246D01*
X149741000Y-104455754D01*
X149765095Y-104576889D01*
X149812360Y-104690996D01*
X149880977Y-104793689D01*
X149968311Y-104881023D01*
X150071004Y-104949640D01*
X150185111Y-104996905D01*
X150306246Y-105021000D01*
X150429754Y-105021000D01*
X150550889Y-104996905D01*
X150664996Y-104949640D01*
X150767689Y-104881023D01*
X150855023Y-104793689D01*
X150923640Y-104690996D01*
X150970905Y-104576889D01*
X150995000Y-104455754D01*
X150995000Y-104332246D01*
X150988943Y-104301793D01*
X150997087Y-104219100D01*
X150994900Y-104196895D01*
X150994900Y-104176582D01*
X151466233Y-104176582D01*
X151530336Y-104170268D01*
X151591976Y-104151570D01*
X151648783Y-104121206D01*
X151698576Y-104080343D01*
X151739439Y-104030550D01*
X151769803Y-103973743D01*
X151788501Y-103912103D01*
X151794815Y-103848000D01*
X151794815Y-100503000D01*
X152060985Y-100503000D01*
X152060985Y-103848000D01*
X152067299Y-103912103D01*
X152085997Y-103973743D01*
X152116361Y-104030550D01*
X152157224Y-104080343D01*
X152207017Y-104121206D01*
X152263824Y-104151570D01*
X152325464Y-104170268D01*
X152389567Y-104176582D01*
X152827397Y-104176582D01*
X152813095Y-104211111D01*
X152789000Y-104332246D01*
X152789000Y-104455754D01*
X152813095Y-104576889D01*
X152860360Y-104690996D01*
X152928977Y-104793689D01*
X153016311Y-104881023D01*
X153119004Y-104949640D01*
X153233111Y-104996905D01*
X153354246Y-105021000D01*
X153477754Y-105021000D01*
X153598889Y-104996905D01*
X153712996Y-104949640D01*
X153815689Y-104881023D01*
X153903023Y-104793689D01*
X153971640Y-104690996D01*
X154018905Y-104576889D01*
X154043000Y-104455754D01*
X154043000Y-104332246D01*
X154018905Y-104211111D01*
X154004603Y-104176582D01*
X154236233Y-104176582D01*
X154300336Y-104170268D01*
X154361976Y-104151570D01*
X154418783Y-104121206D01*
X154468576Y-104080343D01*
X154509439Y-104030550D01*
X154539803Y-103973743D01*
X154558501Y-103912103D01*
X154564815Y-103848000D01*
X154564815Y-100503000D01*
X154830985Y-100503000D01*
X154830985Y-103848000D01*
X154837299Y-103912103D01*
X154855997Y-103973743D01*
X154886361Y-104030550D01*
X154927224Y-104080343D01*
X154977017Y-104121206D01*
X155033824Y-104151570D01*
X155095464Y-104170268D01*
X155159567Y-104176582D01*
X155621397Y-104176582D01*
X155607095Y-104211111D01*
X155583000Y-104332246D01*
X155583000Y-104455754D01*
X155607095Y-104576889D01*
X155654360Y-104690996D01*
X155722977Y-104793689D01*
X155810311Y-104881023D01*
X155913004Y-104949640D01*
X156027111Y-104996905D01*
X156148246Y-105021000D01*
X156271754Y-105021000D01*
X156392889Y-104996905D01*
X156506996Y-104949640D01*
X156609689Y-104881023D01*
X156697023Y-104793689D01*
X156765640Y-104690996D01*
X156812905Y-104576889D01*
X156837000Y-104455754D01*
X156837000Y-104332246D01*
X156812905Y-104211111D01*
X156798603Y-104176582D01*
X157006233Y-104176582D01*
X157070336Y-104170268D01*
X157131976Y-104151570D01*
X157188783Y-104121206D01*
X157238576Y-104080343D01*
X157279439Y-104030550D01*
X157309803Y-103973743D01*
X157328501Y-103912103D01*
X157334815Y-103848000D01*
X157334815Y-100503000D01*
X157600985Y-100503000D01*
X157600985Y-103848000D01*
X157607299Y-103912103D01*
X157625997Y-103973743D01*
X157656361Y-104030550D01*
X157697224Y-104080343D01*
X157747017Y-104121206D01*
X157803824Y-104151570D01*
X157865464Y-104170268D01*
X157929567Y-104176582D01*
X158440701Y-104176582D01*
X158460155Y-104212977D01*
X158475258Y-104241233D01*
X158531742Y-104310059D01*
X158548996Y-104324219D01*
X159261397Y-105036622D01*
X159210360Y-105113004D01*
X159163095Y-105227111D01*
X159139000Y-105348246D01*
X159139000Y-105471754D01*
X159163095Y-105592889D01*
X159210360Y-105706996D01*
X159278977Y-105809689D01*
X159366311Y-105897023D01*
X159469004Y-105965640D01*
X159583111Y-106012905D01*
X159704246Y-106037000D01*
X159827754Y-106037000D01*
X159948889Y-106012905D01*
X160048001Y-105971851D01*
X160048000Y-108687775D01*
X159288584Y-109447193D01*
X159263359Y-109400000D01*
X159295958Y-109339011D01*
X159320347Y-109258612D01*
X159328582Y-109175000D01*
X159328582Y-108975000D01*
X159320347Y-108891388D01*
X159295958Y-108810989D01*
X159263359Y-108750000D01*
X159295958Y-108689011D01*
X159320347Y-108608612D01*
X159328582Y-108525000D01*
X159328582Y-108325000D01*
X159320347Y-108241388D01*
X159295958Y-108160989D01*
X159256353Y-108086893D01*
X159203053Y-108021947D01*
X159138107Y-107968647D01*
X159064011Y-107929042D01*
X158983612Y-107904653D01*
X158900000Y-107896418D01*
X157625000Y-107896418D01*
X157541388Y-107904653D01*
X157460989Y-107929042D01*
X157386893Y-107968647D01*
X157381589Y-107973000D01*
X154612225Y-107973000D01*
X153927000Y-107287776D01*
X153927000Y-107238246D01*
X153902905Y-107117111D01*
X153855640Y-107003004D01*
X153787023Y-106900311D01*
X153699689Y-106812977D01*
X153596996Y-106744360D01*
X153482889Y-106697095D01*
X153361754Y-106673000D01*
X153238246Y-106673000D01*
X153117111Y-106697095D01*
X153003004Y-106744360D01*
X152900311Y-106812977D01*
X152812977Y-106900311D01*
X152744360Y-107003004D01*
X152697095Y-107117111D01*
X152673000Y-107238246D01*
X152673000Y-107361754D01*
X152697095Y-107482889D01*
X152744360Y-107596996D01*
X152773157Y-107640093D01*
X152664500Y-107748750D01*
X152664500Y-108352000D01*
X152684500Y-108352000D01*
X152684500Y-108498000D01*
X152664500Y-108498000D01*
X152664500Y-108546418D01*
X152410500Y-108546418D01*
X152410500Y-108498000D01*
X152390500Y-108498000D01*
X152390500Y-108352000D01*
X152410500Y-108352000D01*
X152410500Y-107748750D01*
X152251750Y-107590000D01*
X151809600Y-107587000D01*
X151684948Y-107597386D01*
X151564718Y-107631891D01*
X151453529Y-107689189D01*
X151355654Y-107767078D01*
X151274856Y-107862564D01*
X151214239Y-107971979D01*
X151176132Y-108091117D01*
X151165000Y-108193250D01*
X151257357Y-108285607D01*
X151220000Y-108281928D01*
X151185750Y-108285000D01*
X151172752Y-108297998D01*
X151165000Y-108297998D01*
X151165000Y-108305750D01*
X151027000Y-108443750D01*
X151027000Y-109088000D01*
X151047000Y-109088000D01*
X151047000Y-109342000D01*
X151027000Y-109342000D01*
X151027000Y-109362000D01*
X150773000Y-109362000D01*
X150773000Y-109342000D01*
X150753000Y-109342000D01*
X150753000Y-109088000D01*
X150773000Y-109088000D01*
X150773000Y-108443750D01*
X150614250Y-108285000D01*
X150580000Y-108281928D01*
X150455518Y-108294188D01*
X150335820Y-108330498D01*
X150239404Y-108382034D01*
X150209540Y-108283586D01*
X150156074Y-108183557D01*
X150132221Y-108154491D01*
X150187023Y-108099689D01*
X150255640Y-107996996D01*
X150302905Y-107882889D01*
X150327000Y-107761754D01*
X150327000Y-107638246D01*
X150302905Y-107517111D01*
X150255640Y-107403004D01*
X150187023Y-107300311D01*
X150099689Y-107212977D01*
X149996996Y-107144360D01*
X149882889Y-107097095D01*
X149761754Y-107073000D01*
X149638246Y-107073000D01*
X149517111Y-107097095D01*
X149403004Y-107144360D01*
X149300311Y-107212977D01*
X149212977Y-107300311D01*
X149144360Y-107403004D01*
X149097095Y-107517111D01*
X149073000Y-107638246D01*
X149073000Y-107687776D01*
X148921095Y-107839682D01*
X148903842Y-107853841D01*
X148849290Y-107920313D01*
X148847358Y-107922667D01*
X148845353Y-107926418D01*
X148774999Y-107926418D01*
X148662123Y-107937535D01*
X148553586Y-107970460D01*
X148453557Y-108023926D01*
X148365880Y-108095880D01*
X148293926Y-108183557D01*
X148240460Y-108283586D01*
X148224900Y-108334879D01*
X148224900Y-106618246D01*
X149995000Y-106618246D01*
X149995000Y-106741754D01*
X150019095Y-106862889D01*
X150066360Y-106976996D01*
X150134977Y-107079689D01*
X150222311Y-107167023D01*
X150325004Y-107235640D01*
X150439111Y-107282905D01*
X150560246Y-107307000D01*
X150683754Y-107307000D01*
X150804889Y-107282905D01*
X150918996Y-107235640D01*
X151021689Y-107167023D01*
X151109023Y-107079689D01*
X151177640Y-106976996D01*
X151224905Y-106862889D01*
X151249000Y-106741754D01*
X151249000Y-106618246D01*
X151224905Y-106497111D01*
X151177640Y-106383004D01*
X151109023Y-106280311D01*
X151021689Y-106192977D01*
X150918996Y-106124360D01*
X150804889Y-106077095D01*
X150683754Y-106053000D01*
X150560246Y-106053000D01*
X150439111Y-106077095D01*
X150325004Y-106124360D01*
X150222311Y-106192977D01*
X150134977Y-106280311D01*
X150066360Y-106383004D01*
X150019095Y-106497111D01*
X149995000Y-106618246D01*
X148224900Y-106618246D01*
X148224900Y-104176582D01*
X148696233Y-104176582D01*
X148760336Y-104170268D01*
X148821976Y-104151570D01*
X148878783Y-104121206D01*
X148928576Y-104080343D01*
X148969439Y-104030550D01*
X148999803Y-103973743D01*
X149018501Y-103912103D01*
X149024815Y-103848000D01*
X149024815Y-100503000D01*
X149290985Y-100503000D01*
X149290985Y-103848000D01*
%TD*%
M02*
