G04 #@! TF.GenerationSoftware,KiCad,Pcbnew,5.1.5+dfsg1-2build2*
G04 #@! TF.CreationDate,2021-02-18T19:40:11-08:00*
G04 #@! TF.ProjectId,panel,70616e65-6c2e-46b6-9963-61645f706362,rev?*
G04 #@! TF.SameCoordinates,Original*
G04 #@! TF.FileFunction,Paste,Bot*
G04 #@! TF.FilePolarity,Positive*
%FSLAX46Y46*%
G04 Gerber Fmt 4.6, Leading zero omitted, Abs format (unit mm)*
G04 Created by KiCad (PCBNEW 5.1.5+dfsg1-2build2) date 2021-02-18 19:40:11*
%MOMM*%
%LPD*%
G04 APERTURE LIST*
G04 #@! TA.AperFunction,Profile*
%ADD10C,0.100000*%
G04 #@! TD*
%ADD11C,0.350000*%
%ADD12R,1.846667X3.480000*%
G04 APERTURE END LIST*
D10*
X46999000Y-75634600D02*
X46999000Y-61533200D01*
X47003800Y-75731900D02*
X46999000Y-75634600D01*
X47018000Y-75828000D02*
X47003800Y-75731900D01*
X47041600Y-75922200D02*
X47018000Y-75828000D01*
X47074400Y-76013700D02*
X47041600Y-75922200D01*
X47115900Y-76101500D02*
X47074400Y-76013700D01*
X47165900Y-76184900D02*
X47115900Y-76101500D01*
X47223700Y-76262900D02*
X47165900Y-76184900D01*
X47289000Y-76334900D02*
X47223700Y-76262900D01*
X47361000Y-76400100D02*
X47289000Y-76334900D01*
X47439000Y-76458000D02*
X47361000Y-76400100D01*
X47522300Y-76508000D02*
X47439000Y-76458000D01*
X47610100Y-76549500D02*
X47522300Y-76508000D01*
X47701600Y-76582200D02*
X47610100Y-76549500D01*
X47795900Y-76605800D02*
X47701600Y-76582200D01*
X47892000Y-76620100D02*
X47795900Y-76605800D01*
X47989200Y-76624900D02*
X47892000Y-76620100D01*
X49009400Y-76624900D02*
X47989200Y-76624900D01*
X49106700Y-76620100D02*
X49009400Y-76624900D01*
X49202800Y-76605800D02*
X49106700Y-76620100D01*
X49297000Y-76582200D02*
X49202800Y-76605800D01*
X49388500Y-76549500D02*
X49297000Y-76582200D01*
X49476300Y-76508000D02*
X49388500Y-76549500D01*
X49559600Y-76458000D02*
X49476300Y-76508000D01*
X49637600Y-76400200D02*
X49559600Y-76458000D01*
X49709600Y-76334900D02*
X49637600Y-76400200D01*
X49774900Y-76263000D02*
X49709600Y-76334900D01*
X49832700Y-76185000D02*
X49774900Y-76263000D01*
X49882700Y-76101600D02*
X49832700Y-76185000D01*
X49924200Y-76013800D02*
X49882700Y-76101600D01*
X49957000Y-75922400D02*
X49924200Y-76013800D01*
X49980600Y-75828100D02*
X49957000Y-75922400D01*
X49994900Y-75732000D02*
X49980600Y-75828100D01*
X49999700Y-75634800D02*
X49994900Y-75732000D01*
X50000500Y-70096500D02*
X49999700Y-75634800D01*
X50002000Y-70088500D02*
X50000500Y-70096500D01*
X50007000Y-70084000D02*
X50002000Y-70088500D01*
X50014100Y-70082900D02*
X50007000Y-70084000D01*
X65860500Y-70082900D02*
X50014100Y-70082900D01*
X65957800Y-70078100D02*
X65860500Y-70082900D01*
X66053900Y-70063900D02*
X65957800Y-70078100D01*
X66148100Y-70040300D02*
X66053900Y-70063900D01*
X66239600Y-70007500D02*
X66148100Y-70040300D01*
X66327400Y-69966000D02*
X66239600Y-70007500D01*
X66410800Y-69916000D02*
X66327400Y-69966000D01*
X66488800Y-69858200D02*
X66410800Y-69916000D01*
X66560800Y-69792900D02*
X66488800Y-69858200D01*
X66626000Y-69720900D02*
X66560800Y-69792900D01*
X66683900Y-69642900D02*
X66626000Y-69720900D01*
X66733900Y-69559600D02*
X66683900Y-69642900D01*
X66775400Y-69471800D02*
X66733900Y-69559600D01*
X66808100Y-69380300D02*
X66775400Y-69471800D01*
X66831700Y-69286000D02*
X66808100Y-69380300D01*
X66846000Y-69189900D02*
X66831700Y-69286000D01*
X66850800Y-69092700D02*
X66846000Y-69189900D01*
X66850800Y-68072900D02*
X66850800Y-69092700D01*
X66846000Y-67975700D02*
X66850800Y-68072900D01*
X66831700Y-67879600D02*
X66846000Y-67975700D01*
X66808100Y-67785300D02*
X66831700Y-67879600D01*
X66775400Y-67693900D02*
X66808100Y-67785300D01*
X66733900Y-67606100D02*
X66775400Y-67693900D01*
X66683900Y-67522700D02*
X66733900Y-67606100D01*
X66626100Y-67444700D02*
X66683900Y-67522700D01*
X66560800Y-67372700D02*
X66626100Y-67444700D01*
X66488900Y-67307500D02*
X66560800Y-67372700D01*
X66410800Y-67249600D02*
X66488900Y-67307500D01*
X66327500Y-67199600D02*
X66410800Y-67249600D01*
X66239700Y-67158100D02*
X66327500Y-67199600D01*
X66148300Y-67125400D02*
X66239700Y-67158100D01*
X66054000Y-67101700D02*
X66148300Y-67125400D01*
X65957900Y-67087500D02*
X66054000Y-67101700D01*
X65860700Y-67082700D02*
X65957900Y-67087500D01*
X57246500Y-67081300D02*
X65860700Y-67082700D01*
X57036500Y-67069600D02*
X57246500Y-67081300D01*
X57008600Y-67066400D02*
X57036500Y-67069600D01*
X56801700Y-67030900D02*
X57008600Y-67066400D01*
X56599400Y-66973000D02*
X56801700Y-67030900D01*
X56572800Y-66963700D02*
X56599400Y-66973000D01*
X56379000Y-66883000D02*
X56572800Y-66963700D01*
X56182700Y-66774600D02*
X56379000Y-66883000D01*
X55999800Y-66644900D02*
X56182700Y-66774600D01*
X55832100Y-66495400D02*
X55999800Y-66644900D01*
X50589700Y-61255700D02*
X55832100Y-66495400D01*
X50453800Y-61105900D02*
X50589700Y-61255700D01*
X50333400Y-60943900D02*
X50453800Y-61105900D01*
X50274900Y-60872100D02*
X50333400Y-60943900D01*
X50210100Y-60806300D02*
X50274900Y-60872100D01*
X50139500Y-60746800D02*
X50210100Y-60806300D01*
X50063600Y-60694200D02*
X50139500Y-60746800D01*
X49983100Y-60648800D02*
X50063600Y-60694200D01*
X49898800Y-60611100D02*
X49983100Y-60648800D01*
X49811300Y-60581500D02*
X49898800Y-60611100D01*
X49721500Y-60560200D02*
X49811300Y-60581500D01*
X49630000Y-60547300D02*
X49721500Y-60560200D01*
X49537500Y-60543000D02*
X49630000Y-60547300D01*
X47989200Y-60543000D02*
X49537500Y-60543000D01*
X47892000Y-60547700D02*
X47989200Y-60543000D01*
X47795900Y-60562000D02*
X47892000Y-60547700D01*
X47701600Y-60585600D02*
X47795900Y-60562000D01*
X47610100Y-60618300D02*
X47701600Y-60585600D01*
X47522300Y-60659900D02*
X47610100Y-60618300D01*
X47439000Y-60709800D02*
X47522300Y-60659900D01*
X47361000Y-60767700D02*
X47439000Y-60709800D01*
X47289000Y-60832900D02*
X47361000Y-60767700D01*
X47223700Y-60904900D02*
X47289000Y-60832900D01*
X47165900Y-60982900D02*
X47223700Y-60904900D01*
X47115900Y-61066300D02*
X47165900Y-60982900D01*
X47074400Y-61154100D02*
X47115900Y-61066300D01*
X47041600Y-61245600D02*
X47074400Y-61154100D01*
X47018000Y-61339800D02*
X47041600Y-61245600D01*
X47003800Y-61435900D02*
X47018000Y-61339800D01*
X46999000Y-61533200D02*
X47003800Y-61435900D01*
X87255200Y-61092200D02*
X87359300Y-60950100D01*
X87107800Y-61254900D02*
X87255200Y-61092200D01*
X81868200Y-66494500D02*
X87107800Y-61254900D01*
X81727400Y-66622400D02*
X81868200Y-66494500D01*
X81708400Y-66638100D02*
X81727400Y-66622400D01*
X81560100Y-66747600D02*
X81708400Y-66638100D01*
X81391700Y-66848500D02*
X81560100Y-66747600D01*
X81214100Y-66932500D02*
X81391700Y-66848500D01*
X81041200Y-66994600D02*
X81214100Y-66932500D01*
X81017600Y-67001800D02*
X81041200Y-66994600D01*
X80839200Y-67046200D02*
X81017600Y-67001800D01*
X80657000Y-67073500D02*
X80839200Y-67046200D01*
X80632500Y-67075900D02*
X80657000Y-67073500D01*
X80448700Y-67084800D02*
X80632500Y-67075900D01*
X71843200Y-67083600D02*
X80448700Y-67084800D01*
X71745900Y-67088400D02*
X71843200Y-67083600D01*
X71649800Y-67102600D02*
X71745900Y-67088400D01*
X71555500Y-67126200D02*
X71649800Y-67102600D01*
X71464000Y-67158900D02*
X71555500Y-67126200D01*
X71376200Y-67200500D02*
X71464000Y-67158900D01*
X71292800Y-67250400D02*
X71376200Y-67200500D01*
X71214800Y-67308300D02*
X71292800Y-67250400D01*
X71142800Y-67373500D02*
X71214800Y-67308300D01*
X71077500Y-67445500D02*
X71142800Y-67373500D01*
X71019600Y-67523500D02*
X71077500Y-67445500D01*
X70969700Y-67606900D02*
X71019600Y-67523500D01*
X70928100Y-67694700D02*
X70969700Y-67606900D01*
X70895400Y-67786200D02*
X70928100Y-67694700D01*
X70871800Y-67880400D02*
X70895400Y-67786200D01*
X70857500Y-67976600D02*
X70871800Y-67880400D01*
X70852800Y-68073800D02*
X70857500Y-67976600D01*
X70852800Y-69092700D02*
X70852800Y-68073800D01*
X70857500Y-69189900D02*
X70852800Y-69092700D01*
X70871800Y-69286000D02*
X70857500Y-69189900D01*
X70895400Y-69380300D02*
X70871800Y-69286000D01*
X70928100Y-69471800D02*
X70895400Y-69380300D01*
X70969700Y-69559600D02*
X70928100Y-69471800D01*
X71019600Y-69642900D02*
X70969700Y-69559600D01*
X71077500Y-69720900D02*
X71019600Y-69642900D01*
X71142700Y-69792900D02*
X71077500Y-69720900D01*
X71214700Y-69858200D02*
X71142700Y-69792900D01*
X71292800Y-69916000D02*
X71214700Y-69858200D01*
X71376100Y-69966000D02*
X71292800Y-69916000D01*
X71463900Y-70007500D02*
X71376100Y-69966000D01*
X71555400Y-70040300D02*
X71463900Y-70007500D01*
X71649600Y-70063900D02*
X71555400Y-70040300D01*
X71745700Y-70078100D02*
X71649600Y-70063900D01*
X71843000Y-70082900D02*
X71745700Y-70078100D01*
X87686000Y-70082900D02*
X71843000Y-70082900D01*
X87693100Y-70084000D02*
X87686000Y-70082900D01*
X87698100Y-70088500D02*
X87693100Y-70084000D01*
X87699600Y-70096500D02*
X87698100Y-70088500D01*
X87702400Y-75635100D02*
X87699600Y-70096500D01*
X87707200Y-75732400D02*
X87702400Y-75635100D01*
X87721500Y-75828400D02*
X87707200Y-75732400D01*
X87745100Y-75922600D02*
X87721500Y-75828400D01*
X87777900Y-76014100D02*
X87745100Y-75922600D01*
X87819400Y-76101800D02*
X87777900Y-76014100D01*
X87869400Y-76185100D02*
X87819400Y-76101800D01*
X87927300Y-76263100D02*
X87869400Y-76185100D01*
X87992500Y-76335100D02*
X87927300Y-76263100D01*
X88064500Y-76400300D02*
X87992500Y-76335100D01*
X88142500Y-76458100D02*
X88064500Y-76400300D01*
X88225800Y-76508000D02*
X88142500Y-76458100D01*
X88313600Y-76549500D02*
X88225800Y-76508000D01*
X88405100Y-76582300D02*
X88313600Y-76549500D01*
X88499300Y-76605800D02*
X88405100Y-76582300D01*
X88595300Y-76620100D02*
X88499300Y-76605800D01*
X88692600Y-76624900D02*
X88595300Y-76620100D01*
X89712900Y-76624900D02*
X88692600Y-76624900D01*
X89810200Y-76620100D02*
X89712900Y-76624900D01*
X89906300Y-76605800D02*
X89810200Y-76620100D01*
X90000500Y-76582200D02*
X89906300Y-76605800D01*
X90092000Y-76549500D02*
X90000500Y-76582200D01*
X90179800Y-76508000D02*
X90092000Y-76549500D01*
X90263100Y-76458000D02*
X90179800Y-76508000D01*
X90341100Y-76400200D02*
X90263100Y-76458000D01*
X90413100Y-76334900D02*
X90341100Y-76400200D01*
X90478400Y-76263000D02*
X90413100Y-76334900D01*
X90536200Y-76185000D02*
X90478400Y-76263000D01*
X90586200Y-76101600D02*
X90536200Y-76185000D01*
X90627700Y-76013800D02*
X90586200Y-76101600D01*
X90660500Y-75922400D02*
X90627700Y-76013800D01*
X90684100Y-75828100D02*
X90660500Y-75922400D01*
X90698400Y-75732000D02*
X90684100Y-75828100D01*
X90703200Y-75634800D02*
X90698400Y-75732000D01*
X90704000Y-70096500D02*
X90703200Y-75634800D01*
X90705500Y-70088500D02*
X90704000Y-70096500D01*
X90710500Y-70084000D02*
X90705500Y-70088500D01*
X90717600Y-70082900D02*
X90710500Y-70084000D01*
X106564000Y-70082900D02*
X90717600Y-70082900D01*
X106661300Y-70078100D02*
X106564000Y-70082900D01*
X106757400Y-70063900D02*
X106661300Y-70078100D01*
X106851700Y-70040300D02*
X106757400Y-70063900D01*
X106943100Y-70007500D02*
X106851700Y-70040300D01*
X107031000Y-69966000D02*
X106943100Y-70007500D01*
X107114300Y-69916000D02*
X107031000Y-69966000D01*
X107192300Y-69858200D02*
X107114300Y-69916000D01*
X107264300Y-69792900D02*
X107192300Y-69858200D01*
X107329600Y-69720900D02*
X107264300Y-69792900D01*
X107387400Y-69642900D02*
X107329600Y-69720900D01*
X107437400Y-69559600D02*
X107387400Y-69642900D01*
X107478900Y-69471800D02*
X107437400Y-69559600D01*
X107511600Y-69380300D02*
X107478900Y-69471800D01*
X107535200Y-69286000D02*
X107511600Y-69380300D01*
X107549500Y-69189900D02*
X107535200Y-69286000D01*
X107554300Y-69092700D02*
X107549500Y-69189900D01*
X107554300Y-68072900D02*
X107554300Y-69092700D01*
X107549500Y-67975700D02*
X107554300Y-68072900D01*
X107535300Y-67879600D02*
X107549500Y-67975700D01*
X107511600Y-67785300D02*
X107535300Y-67879600D01*
X107478900Y-67693900D02*
X107511600Y-67785300D01*
X107437400Y-67606100D02*
X107478900Y-67693900D01*
X107387500Y-67522700D02*
X107437400Y-67606100D01*
X107329600Y-67444700D02*
X107387500Y-67522700D01*
X107264400Y-67372700D02*
X107329600Y-67444700D01*
X107192400Y-67307500D02*
X107264400Y-67372700D01*
X107114400Y-67249600D02*
X107192400Y-67307500D01*
X107031000Y-67199600D02*
X107114400Y-67249600D01*
X106943200Y-67158100D02*
X107031000Y-67199600D01*
X106851800Y-67125400D02*
X106943200Y-67158100D01*
X106757500Y-67101700D02*
X106851800Y-67125400D01*
X106661500Y-67087500D02*
X106757500Y-67101700D01*
X106564200Y-67082700D02*
X106661500Y-67087500D01*
X97950000Y-67081300D02*
X106564200Y-67082700D01*
X97740100Y-67069600D02*
X97950000Y-67081300D01*
X97712100Y-67066400D02*
X97740100Y-67069600D01*
X97504700Y-67030700D02*
X97712100Y-67066400D01*
X97302600Y-66972900D02*
X97504700Y-67030700D01*
X97276300Y-66963700D02*
X97302600Y-66972900D01*
X97082500Y-66883000D02*
X97276300Y-66963700D01*
X96886200Y-66774600D02*
X97082500Y-66883000D01*
X96703300Y-66644900D02*
X96886200Y-66774600D01*
X96535600Y-66495400D02*
X96703300Y-66644900D01*
X91293200Y-61255700D02*
X96535600Y-66495400D01*
X91157400Y-61105900D02*
X91293200Y-61255700D01*
X91036900Y-60943900D02*
X91157400Y-61105900D01*
X90978400Y-60872100D02*
X91036900Y-60943900D01*
X90913600Y-60806300D02*
X90978400Y-60872100D01*
X90843000Y-60746800D02*
X90913600Y-60806300D01*
X90767100Y-60694200D02*
X90843000Y-60746800D01*
X90686600Y-60648800D02*
X90767100Y-60694200D01*
X90602300Y-60611100D02*
X90686600Y-60648800D01*
X90514800Y-60581500D02*
X90602300Y-60611100D01*
X90425000Y-60560200D02*
X90514800Y-60581500D01*
X90333500Y-60547300D02*
X90425000Y-60560200D01*
X90241000Y-60543000D02*
X90333500Y-60547300D01*
X88159700Y-60543000D02*
X90241000Y-60543000D01*
X88066500Y-60547300D02*
X88159700Y-60543000D01*
X87974300Y-60560400D02*
X88066500Y-60547300D01*
X87883700Y-60582200D02*
X87974300Y-60560400D01*
X87795600Y-60612300D02*
X87883700Y-60582200D01*
X87710700Y-60650500D02*
X87795600Y-60612300D01*
X87629800Y-60696600D02*
X87710700Y-60650500D01*
X87553500Y-60750100D02*
X87629800Y-60696600D01*
X87482600Y-60810500D02*
X87553500Y-60750100D01*
X87417800Y-60877300D02*
X87482600Y-60810500D01*
X87359300Y-60950100D02*
X87417800Y-60877300D01*
X127958800Y-61092200D02*
X128062800Y-60950100D01*
X127811300Y-61254900D02*
X127958800Y-61092200D01*
X122571700Y-66494500D02*
X127811300Y-61254900D01*
X122431000Y-66622400D02*
X122571700Y-66494500D01*
X122411900Y-66638100D02*
X122431000Y-66622400D01*
X122263700Y-66747600D02*
X122411900Y-66638100D01*
X122095200Y-66848500D02*
X122263700Y-66747600D01*
X121917700Y-66932500D02*
X122095200Y-66848500D01*
X121744700Y-66994600D02*
X121917700Y-66932500D01*
X121721100Y-67001800D02*
X121744700Y-66994600D01*
X121542700Y-67046200D02*
X121721100Y-67001800D01*
X121360500Y-67073500D02*
X121542700Y-67046200D01*
X121336000Y-67075900D02*
X121360500Y-67073500D01*
X121152200Y-67084800D02*
X121336000Y-67075900D01*
X112546700Y-67083600D02*
X121152200Y-67084800D01*
X112449400Y-67088400D02*
X112546700Y-67083600D01*
X112353300Y-67102600D02*
X112449400Y-67088400D01*
X112259000Y-67126200D02*
X112353300Y-67102600D01*
X112167500Y-67158900D02*
X112259000Y-67126200D01*
X112079700Y-67200500D02*
X112167500Y-67158900D01*
X111996400Y-67250400D02*
X112079700Y-67200500D01*
X111918300Y-67308300D02*
X111996400Y-67250400D01*
X111846300Y-67373500D02*
X111918300Y-67308300D01*
X111781100Y-67445500D02*
X111846300Y-67373500D01*
X111723200Y-67523500D02*
X111781100Y-67445500D01*
X111673200Y-67606900D02*
X111723200Y-67523500D01*
X111631700Y-67694700D02*
X111673200Y-67606900D01*
X111598900Y-67786200D02*
X111631700Y-67694700D01*
X111575300Y-67880400D02*
X111598900Y-67786200D01*
X111561100Y-67976600D02*
X111575300Y-67880400D01*
X111556300Y-68073800D02*
X111561100Y-67976600D01*
X111556300Y-69092700D02*
X111556300Y-68073800D01*
X111561100Y-69189900D02*
X111556300Y-69092700D01*
X111575300Y-69286000D02*
X111561100Y-69189900D01*
X111598900Y-69380300D02*
X111575300Y-69286000D01*
X111631700Y-69471800D02*
X111598900Y-69380300D01*
X111673200Y-69559600D02*
X111631700Y-69471800D01*
X111723100Y-69642900D02*
X111673200Y-69559600D01*
X111781000Y-69720900D02*
X111723100Y-69642900D01*
X111846300Y-69792900D02*
X111781000Y-69720900D01*
X111918200Y-69858200D02*
X111846300Y-69792900D01*
X111996300Y-69916000D02*
X111918200Y-69858200D01*
X112079600Y-69966000D02*
X111996300Y-69916000D01*
X112167400Y-70007500D02*
X112079600Y-69966000D01*
X112258900Y-70040300D02*
X112167400Y-70007500D01*
X112353100Y-70063900D02*
X112258900Y-70040300D01*
X112449200Y-70078100D02*
X112353100Y-70063900D01*
X112546500Y-70082900D02*
X112449200Y-70078100D01*
X128389500Y-70082900D02*
X112546500Y-70082900D01*
X128396600Y-70084000D02*
X128389500Y-70082900D01*
X128401600Y-70088500D02*
X128396600Y-70084000D01*
X128403100Y-70096500D02*
X128401600Y-70088500D01*
X128405900Y-75635100D02*
X128403100Y-70096500D01*
X128410700Y-75732400D02*
X128405900Y-75635100D01*
X128425000Y-75828400D02*
X128410700Y-75732400D01*
X128448600Y-75922600D02*
X128425000Y-75828400D01*
X128481400Y-76014100D02*
X128448600Y-75922600D01*
X128522900Y-76101800D02*
X128481400Y-76014100D01*
X128572900Y-76185100D02*
X128522900Y-76101800D01*
X128630800Y-76263100D02*
X128572900Y-76185100D01*
X128696000Y-76335100D02*
X128630800Y-76263100D01*
X128768000Y-76400300D02*
X128696000Y-76335100D01*
X128846000Y-76458100D02*
X128768000Y-76400300D01*
X128929300Y-76508000D02*
X128846000Y-76458100D01*
X129017100Y-76549500D02*
X128929300Y-76508000D01*
X129108600Y-76582300D02*
X129017100Y-76549500D01*
X129202800Y-76605800D02*
X129108600Y-76582300D01*
X129298900Y-76620100D02*
X129202800Y-76605800D01*
X129396100Y-76624900D02*
X129298900Y-76620100D01*
X130416800Y-76624900D02*
X129396100Y-76624900D01*
X130514100Y-76620100D02*
X130416800Y-76624900D01*
X130610200Y-76605800D02*
X130514100Y-76620100D01*
X130704400Y-76582200D02*
X130610200Y-76605800D01*
X130795900Y-76549500D02*
X130704400Y-76582200D01*
X130883700Y-76508000D02*
X130795900Y-76549500D01*
X130967000Y-76458000D02*
X130883700Y-76508000D01*
X131045100Y-76400100D02*
X130967000Y-76458000D01*
X131117100Y-76334900D02*
X131045100Y-76400100D01*
X131182300Y-76262900D02*
X131117100Y-76334900D01*
X131240200Y-76184900D02*
X131182300Y-76262900D01*
X131290100Y-76101500D02*
X131240200Y-76184900D01*
X131331700Y-76013700D02*
X131290100Y-76101500D01*
X131364400Y-75922200D02*
X131331700Y-76013700D01*
X131388000Y-75828000D02*
X131364400Y-75922200D01*
X131402300Y-75731900D02*
X131388000Y-75828000D01*
X131407000Y-75634600D02*
X131402300Y-75731900D01*
X131407000Y-61533200D02*
X131407000Y-75634600D01*
X131402300Y-61435900D02*
X131407000Y-61533200D01*
X131388000Y-61339800D02*
X131402300Y-61435900D01*
X131364400Y-61245600D02*
X131388000Y-61339800D01*
X131331700Y-61154100D02*
X131364400Y-61245600D01*
X131290100Y-61066300D02*
X131331700Y-61154100D01*
X131240200Y-60982900D02*
X131290100Y-61066300D01*
X131182300Y-60904900D02*
X131240200Y-60982900D01*
X131117100Y-60832900D02*
X131182300Y-60904900D01*
X131045100Y-60767700D02*
X131117100Y-60832900D01*
X130967000Y-60709800D02*
X131045100Y-60767700D01*
X130883700Y-60659900D02*
X130967000Y-60709800D01*
X130795900Y-60618300D02*
X130883700Y-60659900D01*
X130704400Y-60585600D02*
X130795900Y-60618300D01*
X130610200Y-60562000D02*
X130704400Y-60585600D01*
X130514100Y-60547700D02*
X130610200Y-60562000D01*
X130416800Y-60543000D02*
X130514100Y-60547700D01*
X128863200Y-60543000D02*
X130416800Y-60543000D01*
X128770000Y-60547300D02*
X128863200Y-60543000D01*
X128677800Y-60560400D02*
X128770000Y-60547300D01*
X128587200Y-60582200D02*
X128677800Y-60560400D01*
X128499100Y-60612300D02*
X128587200Y-60582200D01*
X128414200Y-60650500D02*
X128499100Y-60612300D01*
X128333300Y-60696600D02*
X128414200Y-60650500D01*
X128257000Y-60750100D02*
X128333300Y-60696600D01*
X128186200Y-60810500D02*
X128257000Y-60750100D01*
X128121300Y-60877300D02*
X128186200Y-60810500D01*
X128062800Y-60950100D02*
X128121300Y-60877300D01*
X46974500Y-49999000D02*
X42010200Y-49999700D01*
X46989800Y-49999800D02*
X46974500Y-49999000D01*
X46995700Y-50003000D02*
X46989800Y-49999800D01*
X46998200Y-50008200D02*
X46995700Y-50003000D01*
X46999000Y-50023500D02*
X46998200Y-50008200D01*
X46999000Y-55550700D02*
X46999000Y-50023500D01*
X47003800Y-55648000D02*
X46999000Y-55550700D01*
X47018000Y-55744100D02*
X47003800Y-55648000D01*
X47041600Y-55838300D02*
X47018000Y-55744100D01*
X47074400Y-55929800D02*
X47041600Y-55838300D01*
X47115900Y-56017600D02*
X47074400Y-55929800D01*
X47165900Y-56101000D02*
X47115900Y-56017600D01*
X47223700Y-56179000D02*
X47165900Y-56101000D01*
X47289000Y-56251000D02*
X47223700Y-56179000D01*
X47361000Y-56316200D02*
X47289000Y-56251000D01*
X47439000Y-56374100D02*
X47361000Y-56316200D01*
X47522300Y-56424000D02*
X47439000Y-56374100D01*
X47610100Y-56465600D02*
X47522300Y-56424000D01*
X47701600Y-56498300D02*
X47610100Y-56465600D01*
X47795900Y-56521900D02*
X47701600Y-56498300D01*
X47892000Y-56536200D02*
X47795900Y-56521900D01*
X47989200Y-56541000D02*
X47892000Y-56536200D01*
X49009400Y-56541000D02*
X47989200Y-56541000D01*
X49106700Y-56536200D02*
X49009400Y-56541000D01*
X49202800Y-56521900D02*
X49106700Y-56536200D01*
X49297000Y-56498300D02*
X49202800Y-56521900D01*
X49388500Y-56465600D02*
X49297000Y-56498300D01*
X49476300Y-56424100D02*
X49388500Y-56465600D01*
X49559600Y-56374100D02*
X49476300Y-56424100D01*
X49637600Y-56316300D02*
X49559600Y-56374100D01*
X49709600Y-56251000D02*
X49637600Y-56316300D01*
X49774900Y-56179100D02*
X49709600Y-56251000D01*
X49832700Y-56101000D02*
X49774900Y-56179100D01*
X49882700Y-56017700D02*
X49832700Y-56101000D01*
X49924200Y-55929900D02*
X49882700Y-56017700D01*
X49957000Y-55838500D02*
X49924200Y-55929900D01*
X49980600Y-55744200D02*
X49957000Y-55838500D01*
X49994900Y-55648100D02*
X49980600Y-55744200D01*
X49999700Y-55550900D02*
X49994900Y-55648100D01*
X50000500Y-50012600D02*
X49999700Y-55550900D01*
X50001300Y-50006400D02*
X50000500Y-50012600D01*
X50003800Y-50002300D02*
X50001300Y-50006400D01*
X50007900Y-49999800D02*
X50003800Y-50002300D01*
X50013200Y-49999000D02*
X50007900Y-49999800D01*
X87691200Y-49999500D02*
X50013200Y-49999000D01*
X87697600Y-50003800D02*
X87691200Y-49999500D01*
X87699600Y-50012600D02*
X87697600Y-50003800D01*
X87702400Y-55551200D02*
X87699600Y-50012600D01*
X87707200Y-55648400D02*
X87702400Y-55551200D01*
X87721500Y-55744500D02*
X87707200Y-55648400D01*
X87745100Y-55838700D02*
X87721500Y-55744500D01*
X87777900Y-55930100D02*
X87745100Y-55838700D01*
X87819400Y-56017900D02*
X87777900Y-55930100D01*
X87869400Y-56101200D02*
X87819400Y-56017900D01*
X87927300Y-56179200D02*
X87869400Y-56101200D01*
X87992500Y-56251200D02*
X87927300Y-56179200D01*
X88064500Y-56316400D02*
X87992500Y-56251200D01*
X88142500Y-56374200D02*
X88064500Y-56316400D01*
X88225800Y-56424100D02*
X88142500Y-56374200D01*
X88313600Y-56465600D02*
X88225800Y-56424100D01*
X88405100Y-56498300D02*
X88313600Y-56465600D01*
X88499300Y-56521900D02*
X88405100Y-56498300D01*
X88595300Y-56536200D02*
X88499300Y-56521900D01*
X88692600Y-56541000D02*
X88595300Y-56536200D01*
X89712900Y-56541000D02*
X88692600Y-56541000D01*
X89810200Y-56536200D02*
X89712900Y-56541000D01*
X89906300Y-56521900D02*
X89810200Y-56536200D01*
X90000500Y-56498300D02*
X89906300Y-56521900D01*
X90092000Y-56465600D02*
X90000500Y-56498300D01*
X90179800Y-56424100D02*
X90092000Y-56465600D01*
X90263100Y-56374100D02*
X90179800Y-56424100D01*
X90341100Y-56316300D02*
X90263100Y-56374100D01*
X90413100Y-56251000D02*
X90341100Y-56316300D01*
X90478400Y-56179100D02*
X90413100Y-56251000D01*
X90536200Y-56101000D02*
X90478400Y-56179100D01*
X90586200Y-56017700D02*
X90536200Y-56101000D01*
X90627700Y-55929900D02*
X90586200Y-56017700D01*
X90660500Y-55838500D02*
X90627700Y-55929900D01*
X90684100Y-55744200D02*
X90660500Y-55838500D01*
X90698400Y-55648100D02*
X90684100Y-55744200D01*
X90703200Y-55550900D02*
X90698400Y-55648100D01*
X90704000Y-50012600D02*
X90703200Y-55550900D01*
X90706000Y-50003800D02*
X90704000Y-50012600D01*
X90713300Y-49999400D02*
X90706000Y-50003800D01*
X128394700Y-49999500D02*
X90713300Y-49999400D01*
X128401100Y-50003800D02*
X128394700Y-49999500D01*
X128403100Y-50012600D02*
X128401100Y-50003800D01*
X128405900Y-55551200D02*
X128403100Y-50012600D01*
X128410700Y-55648500D02*
X128405900Y-55551200D01*
X128425000Y-55744500D02*
X128410700Y-55648500D01*
X128448600Y-55838700D02*
X128425000Y-55744500D01*
X128481400Y-55930100D02*
X128448600Y-55838700D01*
X128522900Y-56017900D02*
X128481400Y-55930100D01*
X128572900Y-56101200D02*
X128522900Y-56017900D01*
X128630800Y-56179200D02*
X128572900Y-56101200D01*
X128696000Y-56251200D02*
X128630800Y-56179200D01*
X128768000Y-56316400D02*
X128696000Y-56251200D01*
X128846000Y-56374200D02*
X128768000Y-56316400D01*
X128929300Y-56424100D02*
X128846000Y-56374200D01*
X129017100Y-56465600D02*
X128929300Y-56424100D01*
X129108600Y-56498300D02*
X129017100Y-56465600D01*
X129202800Y-56521900D02*
X129108600Y-56498300D01*
X129298900Y-56536200D02*
X129202800Y-56521900D01*
X129396100Y-56541000D02*
X129298900Y-56536200D01*
X130416800Y-56541000D02*
X129396100Y-56541000D01*
X130514100Y-56536200D02*
X130416800Y-56541000D01*
X130610200Y-56521900D02*
X130514100Y-56536200D01*
X130704400Y-56498300D02*
X130610200Y-56521900D01*
X130795900Y-56465600D02*
X130704400Y-56498300D01*
X130883700Y-56424000D02*
X130795900Y-56465600D01*
X130967000Y-56374100D02*
X130883700Y-56424000D01*
X131045100Y-56316200D02*
X130967000Y-56374100D01*
X131117100Y-56251000D02*
X131045100Y-56316200D01*
X131182300Y-56179000D02*
X131117100Y-56251000D01*
X131240200Y-56101000D02*
X131182300Y-56179000D01*
X131290100Y-56017600D02*
X131240200Y-56101000D01*
X131331700Y-55929800D02*
X131290100Y-56017600D01*
X131364400Y-55838300D02*
X131331700Y-55929800D01*
X131388000Y-55744100D02*
X131364400Y-55838300D01*
X131402300Y-55648000D02*
X131388000Y-55744100D01*
X131407000Y-55550700D02*
X131402300Y-55648000D01*
X131407000Y-50023500D02*
X131407000Y-55550700D01*
X131407800Y-50008200D02*
X131407000Y-50023500D01*
X131411000Y-50002300D02*
X131407800Y-50008200D01*
X131416300Y-49999800D02*
X131411000Y-50002300D01*
X131431600Y-49999000D02*
X131416300Y-49999800D01*
X136383500Y-49999000D02*
X131431600Y-49999000D01*
X136400700Y-50000300D02*
X136383500Y-49999000D01*
X136406800Y-50006300D02*
X136400700Y-50000300D01*
X136408000Y-50023500D02*
X136406800Y-50006300D01*
X136408000Y-87144300D02*
X136408000Y-50023500D01*
X136406800Y-87161500D02*
X136408000Y-87144300D01*
X136400700Y-87167500D02*
X136406800Y-87161500D01*
X136383500Y-87168800D02*
X136400700Y-87167500D01*
X131431600Y-87168800D02*
X136383500Y-87168800D01*
X131416300Y-87168000D02*
X131431600Y-87168800D01*
X131410300Y-87164800D02*
X131416300Y-87168000D01*
X131407800Y-87159600D02*
X131410300Y-87164800D01*
X131407000Y-87144300D02*
X131407800Y-87159600D01*
X131407000Y-81617100D02*
X131407000Y-87144300D01*
X131402300Y-81519800D02*
X131407000Y-81617100D01*
X131388000Y-81423700D02*
X131402300Y-81519800D01*
X131364400Y-81329500D02*
X131388000Y-81423700D01*
X131331700Y-81238000D02*
X131364400Y-81329500D01*
X131290100Y-81150200D02*
X131331700Y-81238000D01*
X131240200Y-81066900D02*
X131290100Y-81150200D01*
X131182300Y-80988800D02*
X131240200Y-81066900D01*
X131117100Y-80916800D02*
X131182300Y-80988800D01*
X131045100Y-80851600D02*
X131117100Y-80916800D01*
X130967000Y-80793700D02*
X131045100Y-80851600D01*
X130883700Y-80743800D02*
X130967000Y-80793700D01*
X130795900Y-80702200D02*
X130883700Y-80743800D01*
X130704400Y-80669500D02*
X130795900Y-80702200D01*
X130610200Y-80645900D02*
X130704400Y-80669500D01*
X130514100Y-80631600D02*
X130610200Y-80645900D01*
X130416800Y-80626900D02*
X130514100Y-80631600D01*
X128863200Y-80626900D02*
X130416800Y-80626900D01*
X128770000Y-80631300D02*
X128863200Y-80626900D01*
X128677800Y-80644400D02*
X128770000Y-80631300D01*
X128587200Y-80666100D02*
X128677800Y-80644400D01*
X128499100Y-80696200D02*
X128587200Y-80666100D01*
X128414200Y-80734400D02*
X128499100Y-80696200D01*
X128333300Y-80780500D02*
X128414200Y-80734400D01*
X128257000Y-80834000D02*
X128333300Y-80780500D01*
X128186200Y-80894400D02*
X128257000Y-80834000D01*
X128121300Y-80961200D02*
X128186200Y-80894400D01*
X128062800Y-81034000D02*
X128121300Y-80961200D01*
X127958800Y-81176100D02*
X128062800Y-81034000D01*
X127811300Y-81338800D02*
X127958800Y-81176100D01*
X122571700Y-86578400D02*
X127811300Y-81338800D01*
X122431000Y-86706300D02*
X122571700Y-86578400D01*
X122411900Y-86722000D02*
X122431000Y-86706300D01*
X122274000Y-86824300D02*
X122411900Y-86722000D01*
X122253500Y-86838000D02*
X122274000Y-86824300D01*
X122095200Y-86932400D02*
X122253500Y-86838000D01*
X121929200Y-87011300D02*
X122095200Y-86932400D01*
X121906400Y-87020700D02*
X121929200Y-87011300D01*
X121732800Y-87082500D02*
X121906400Y-87020700D01*
X121542300Y-87130200D02*
X121732800Y-87082500D01*
X121348000Y-87158900D02*
X121542300Y-87130200D01*
X121146000Y-87168800D02*
X121348000Y-87158900D01*
X97956900Y-87165300D02*
X121146000Y-87168800D01*
X97726300Y-87152300D02*
X97956900Y-87165300D01*
X97518500Y-87117400D02*
X97726300Y-87152300D01*
X97491300Y-87111200D02*
X97518500Y-87117400D01*
X97289200Y-87052500D02*
X97491300Y-87111200D01*
X97095200Y-86972600D02*
X97289200Y-87052500D01*
X97069800Y-86960400D02*
X97095200Y-86972600D01*
X96886200Y-86858500D02*
X97069800Y-86960400D01*
X96714400Y-86737100D02*
X96886200Y-86858500D01*
X96692400Y-86719600D02*
X96714400Y-86737100D01*
X96535800Y-86579500D02*
X96692400Y-86719600D01*
X91293200Y-81339600D02*
X96535800Y-86579500D01*
X91157400Y-81189800D02*
X91293200Y-81339600D01*
X91036900Y-81027800D02*
X91157400Y-81189800D01*
X90978400Y-80956000D02*
X91036900Y-81027800D01*
X90913600Y-80890200D02*
X90978400Y-80956000D01*
X90843000Y-80830700D02*
X90913600Y-80890200D01*
X90767100Y-80778100D02*
X90843000Y-80830700D01*
X90686600Y-80732700D02*
X90767100Y-80778100D01*
X90602300Y-80695100D02*
X90686600Y-80732700D01*
X90514800Y-80665400D02*
X90602300Y-80695100D01*
X90425000Y-80644100D02*
X90514800Y-80665400D01*
X90333500Y-80631200D02*
X90425000Y-80644100D01*
X90241000Y-80626900D02*
X90333500Y-80631200D01*
X88159700Y-80626900D02*
X90241000Y-80626900D01*
X88066500Y-80631300D02*
X88159700Y-80626900D01*
X87974300Y-80644400D02*
X88066500Y-80631300D01*
X87883700Y-80666100D02*
X87974300Y-80644400D01*
X87795600Y-80696200D02*
X87883700Y-80666100D01*
X87710700Y-80734400D02*
X87795600Y-80696200D01*
X87629800Y-80780500D02*
X87710700Y-80734400D01*
X87553500Y-80834000D02*
X87629800Y-80780500D01*
X87482600Y-80894400D02*
X87553500Y-80834000D01*
X87417800Y-80961200D02*
X87482600Y-80894400D01*
X87359300Y-81034000D02*
X87417800Y-80961200D01*
X87255200Y-81176100D02*
X87359300Y-81034000D01*
X87107800Y-81338800D02*
X87255200Y-81176100D01*
X81868200Y-86578400D02*
X87107800Y-81338800D01*
X81718300Y-86714300D02*
X81868200Y-86578400D01*
X81560500Y-86831200D02*
X81718300Y-86714300D01*
X81392100Y-86932200D02*
X81560500Y-86831200D01*
X81214600Y-87016200D02*
X81392100Y-86932200D01*
X81041200Y-87078500D02*
X81214600Y-87016200D01*
X81017600Y-87085700D02*
X81041200Y-87078500D01*
X80851000Y-87127400D02*
X81017600Y-87085700D01*
X80826900Y-87132200D02*
X80851000Y-87127400D01*
X80644500Y-87158900D02*
X80826900Y-87132200D01*
X80442500Y-87168800D02*
X80644500Y-87158900D01*
X57253400Y-87165300D02*
X80442500Y-87168800D01*
X57022800Y-87152300D02*
X57253400Y-87165300D01*
X56801700Y-87114800D02*
X57022800Y-87152300D01*
X56585700Y-87052500D02*
X56801700Y-87114800D01*
X56391600Y-86972600D02*
X56585700Y-87052500D01*
X56366300Y-86960400D02*
X56391600Y-86972600D01*
X56182700Y-86858500D02*
X56366300Y-86960400D01*
X56010900Y-86737100D02*
X56182700Y-86858500D01*
X55988900Y-86719600D02*
X56010900Y-86737100D01*
X55832300Y-86579500D02*
X55988900Y-86719600D01*
X50589800Y-81339700D02*
X55832300Y-86579500D01*
X50453500Y-81189400D02*
X50589800Y-81339700D01*
X50338400Y-81034800D02*
X50453500Y-81189400D01*
X50288900Y-80972000D02*
X50338400Y-81034800D01*
X50223800Y-80903100D02*
X50288900Y-80972000D01*
X50152500Y-80840800D02*
X50223800Y-80903100D01*
X50075500Y-80785700D02*
X50152500Y-80840800D01*
X49993600Y-80738100D02*
X50075500Y-80785700D01*
X49907500Y-80698500D02*
X49993600Y-80738100D01*
X49818100Y-80667400D02*
X49907500Y-80698500D01*
X49726100Y-80645000D02*
X49818100Y-80667400D01*
X49632400Y-80631400D02*
X49726100Y-80645000D01*
X49537500Y-80626900D02*
X49632400Y-80631400D01*
X47989200Y-80626900D02*
X49537500Y-80626900D01*
X47892000Y-80631600D02*
X47989200Y-80626900D01*
X47795900Y-80645900D02*
X47892000Y-80631600D01*
X47701600Y-80669500D02*
X47795900Y-80645900D01*
X47610100Y-80702200D02*
X47701600Y-80669500D01*
X47522300Y-80743800D02*
X47610100Y-80702200D01*
X47439000Y-80793700D02*
X47522300Y-80743800D01*
X47361000Y-80851600D02*
X47439000Y-80793700D01*
X47289000Y-80916800D02*
X47361000Y-80851600D01*
X47223700Y-80988800D02*
X47289000Y-80916800D01*
X47165900Y-81066900D02*
X47223700Y-80988800D01*
X47115900Y-81150200D02*
X47165900Y-81066900D01*
X47074400Y-81238000D02*
X47115900Y-81150200D01*
X47041600Y-81329500D02*
X47074400Y-81238000D01*
X47018000Y-81423700D02*
X47041600Y-81329500D01*
X47003800Y-81519800D02*
X47018000Y-81423700D01*
X46999000Y-81617100D02*
X47003800Y-81519800D01*
X46999000Y-87144300D02*
X46999000Y-81617100D01*
X46998200Y-87159600D02*
X46999000Y-87144300D01*
X46995700Y-87164800D02*
X46998200Y-87159600D01*
X46989800Y-87168000D02*
X46995700Y-87164800D01*
X46974500Y-87168800D02*
X46989800Y-87168000D01*
X42024500Y-87168800D02*
X46974500Y-87168800D01*
X42007300Y-87167500D02*
X42024500Y-87168800D01*
X42001300Y-87161500D02*
X42007300Y-87167500D01*
X42000000Y-87144300D02*
X42001300Y-87161500D01*
X42000000Y-50023500D02*
X42000000Y-87144300D01*
X42001600Y-50005400D02*
X42000000Y-50023500D01*
X42004700Y-50001600D02*
X42001600Y-50005400D01*
X42010200Y-49999700D02*
X42004700Y-50001600D01*
D11*
G04 #@! TO.C,R1*
G36*
X96770527Y-74719115D02*
G01*
X96794795Y-74722715D01*
X96818594Y-74728676D01*
X96841693Y-74736941D01*
X96863872Y-74747431D01*
X96884915Y-74760043D01*
X96904621Y-74774658D01*
X96922799Y-74791134D01*
X96939275Y-74809312D01*
X96953890Y-74829018D01*
X96966502Y-74850061D01*
X96976992Y-74872240D01*
X96985257Y-74895339D01*
X96991218Y-74919138D01*
X96994818Y-74943406D01*
X96996022Y-74967910D01*
X96996022Y-75867912D01*
X96994818Y-75892416D01*
X96991218Y-75916684D01*
X96985257Y-75940483D01*
X96976992Y-75963582D01*
X96966502Y-75985761D01*
X96953890Y-76006804D01*
X96939275Y-76026510D01*
X96922799Y-76044688D01*
X96904621Y-76061164D01*
X96884915Y-76075779D01*
X96863872Y-76088391D01*
X96841693Y-76098881D01*
X96818594Y-76107146D01*
X96794795Y-76113107D01*
X96770527Y-76116707D01*
X96746023Y-76117911D01*
X96096021Y-76117911D01*
X96071517Y-76116707D01*
X96047249Y-76113107D01*
X96023450Y-76107146D01*
X96000351Y-76098881D01*
X95978172Y-76088391D01*
X95957129Y-76075779D01*
X95937423Y-76061164D01*
X95919245Y-76044688D01*
X95902769Y-76026510D01*
X95888154Y-76006804D01*
X95875542Y-75985761D01*
X95865052Y-75963582D01*
X95856787Y-75940483D01*
X95850826Y-75916684D01*
X95847226Y-75892416D01*
X95846022Y-75867912D01*
X95846022Y-74967910D01*
X95847226Y-74943406D01*
X95850826Y-74919138D01*
X95856787Y-74895339D01*
X95865052Y-74872240D01*
X95875542Y-74850061D01*
X95888154Y-74829018D01*
X95902769Y-74809312D01*
X95919245Y-74791134D01*
X95937423Y-74774658D01*
X95957129Y-74760043D01*
X95978172Y-74747431D01*
X96000351Y-74736941D01*
X96023450Y-74728676D01*
X96047249Y-74722715D01*
X96071517Y-74719115D01*
X96096021Y-74717911D01*
X96746023Y-74717911D01*
X96770527Y-74719115D01*
G37*
G36*
X98820527Y-74719115D02*
G01*
X98844795Y-74722715D01*
X98868594Y-74728676D01*
X98891693Y-74736941D01*
X98913872Y-74747431D01*
X98934915Y-74760043D01*
X98954621Y-74774658D01*
X98972799Y-74791134D01*
X98989275Y-74809312D01*
X99003890Y-74829018D01*
X99016502Y-74850061D01*
X99026992Y-74872240D01*
X99035257Y-74895339D01*
X99041218Y-74919138D01*
X99044818Y-74943406D01*
X99046022Y-74967910D01*
X99046022Y-75867912D01*
X99044818Y-75892416D01*
X99041218Y-75916684D01*
X99035257Y-75940483D01*
X99026992Y-75963582D01*
X99016502Y-75985761D01*
X99003890Y-76006804D01*
X98989275Y-76026510D01*
X98972799Y-76044688D01*
X98954621Y-76061164D01*
X98934915Y-76075779D01*
X98913872Y-76088391D01*
X98891693Y-76098881D01*
X98868594Y-76107146D01*
X98844795Y-76113107D01*
X98820527Y-76116707D01*
X98796023Y-76117911D01*
X98146021Y-76117911D01*
X98121517Y-76116707D01*
X98097249Y-76113107D01*
X98073450Y-76107146D01*
X98050351Y-76098881D01*
X98028172Y-76088391D01*
X98007129Y-76075779D01*
X97987423Y-76061164D01*
X97969245Y-76044688D01*
X97952769Y-76026510D01*
X97938154Y-76006804D01*
X97925542Y-75985761D01*
X97915052Y-75963582D01*
X97906787Y-75940483D01*
X97900826Y-75916684D01*
X97897226Y-75892416D01*
X97896022Y-75867912D01*
X97896022Y-74967910D01*
X97897226Y-74943406D01*
X97900826Y-74919138D01*
X97906787Y-74895339D01*
X97915052Y-74872240D01*
X97925542Y-74850061D01*
X97938154Y-74829018D01*
X97952769Y-74809312D01*
X97969245Y-74791134D01*
X97987423Y-74774658D01*
X98007129Y-74760043D01*
X98028172Y-74747431D01*
X98050351Y-74736941D01*
X98073450Y-74728676D01*
X98097249Y-74722715D01*
X98121517Y-74719115D01*
X98146021Y-74717911D01*
X98796023Y-74717911D01*
X98820527Y-74719115D01*
G37*
G04 #@! TD*
G04 #@! TO.C,R2*
G36*
X123750527Y-74809115D02*
G01*
X123774795Y-74812715D01*
X123798594Y-74818676D01*
X123821693Y-74826941D01*
X123843872Y-74837431D01*
X123864915Y-74850043D01*
X123884621Y-74864658D01*
X123902799Y-74881134D01*
X123919275Y-74899312D01*
X123933890Y-74919018D01*
X123946502Y-74940061D01*
X123956992Y-74962240D01*
X123965257Y-74985339D01*
X123971218Y-75009138D01*
X123974818Y-75033406D01*
X123976022Y-75057910D01*
X123976022Y-75957912D01*
X123974818Y-75982416D01*
X123971218Y-76006684D01*
X123965257Y-76030483D01*
X123956992Y-76053582D01*
X123946502Y-76075761D01*
X123933890Y-76096804D01*
X123919275Y-76116510D01*
X123902799Y-76134688D01*
X123884621Y-76151164D01*
X123864915Y-76165779D01*
X123843872Y-76178391D01*
X123821693Y-76188881D01*
X123798594Y-76197146D01*
X123774795Y-76203107D01*
X123750527Y-76206707D01*
X123726023Y-76207911D01*
X123076021Y-76207911D01*
X123051517Y-76206707D01*
X123027249Y-76203107D01*
X123003450Y-76197146D01*
X122980351Y-76188881D01*
X122958172Y-76178391D01*
X122937129Y-76165779D01*
X122917423Y-76151164D01*
X122899245Y-76134688D01*
X122882769Y-76116510D01*
X122868154Y-76096804D01*
X122855542Y-76075761D01*
X122845052Y-76053582D01*
X122836787Y-76030483D01*
X122830826Y-76006684D01*
X122827226Y-75982416D01*
X122826022Y-75957912D01*
X122826022Y-75057910D01*
X122827226Y-75033406D01*
X122830826Y-75009138D01*
X122836787Y-74985339D01*
X122845052Y-74962240D01*
X122855542Y-74940061D01*
X122868154Y-74919018D01*
X122882769Y-74899312D01*
X122899245Y-74881134D01*
X122917423Y-74864658D01*
X122937129Y-74850043D01*
X122958172Y-74837431D01*
X122980351Y-74826941D01*
X123003450Y-74818676D01*
X123027249Y-74812715D01*
X123051517Y-74809115D01*
X123076021Y-74807911D01*
X123726023Y-74807911D01*
X123750527Y-74809115D01*
G37*
G36*
X125800527Y-74809115D02*
G01*
X125824795Y-74812715D01*
X125848594Y-74818676D01*
X125871693Y-74826941D01*
X125893872Y-74837431D01*
X125914915Y-74850043D01*
X125934621Y-74864658D01*
X125952799Y-74881134D01*
X125969275Y-74899312D01*
X125983890Y-74919018D01*
X125996502Y-74940061D01*
X126006992Y-74962240D01*
X126015257Y-74985339D01*
X126021218Y-75009138D01*
X126024818Y-75033406D01*
X126026022Y-75057910D01*
X126026022Y-75957912D01*
X126024818Y-75982416D01*
X126021218Y-76006684D01*
X126015257Y-76030483D01*
X126006992Y-76053582D01*
X125996502Y-76075761D01*
X125983890Y-76096804D01*
X125969275Y-76116510D01*
X125952799Y-76134688D01*
X125934621Y-76151164D01*
X125914915Y-76165779D01*
X125893872Y-76178391D01*
X125871693Y-76188881D01*
X125848594Y-76197146D01*
X125824795Y-76203107D01*
X125800527Y-76206707D01*
X125776023Y-76207911D01*
X125126021Y-76207911D01*
X125101517Y-76206707D01*
X125077249Y-76203107D01*
X125053450Y-76197146D01*
X125030351Y-76188881D01*
X125008172Y-76178391D01*
X124987129Y-76165779D01*
X124967423Y-76151164D01*
X124949245Y-76134688D01*
X124932769Y-76116510D01*
X124918154Y-76096804D01*
X124905542Y-76075761D01*
X124895052Y-76053582D01*
X124886787Y-76030483D01*
X124880826Y-76006684D01*
X124877226Y-75982416D01*
X124876022Y-75957912D01*
X124876022Y-75057910D01*
X124877226Y-75033406D01*
X124880826Y-75009138D01*
X124886787Y-74985339D01*
X124895052Y-74962240D01*
X124905542Y-74940061D01*
X124918154Y-74919018D01*
X124932769Y-74899312D01*
X124949245Y-74881134D01*
X124967423Y-74864658D01*
X124987129Y-74850043D01*
X125008172Y-74837431D01*
X125030351Y-74826941D01*
X125053450Y-74818676D01*
X125077249Y-74812715D01*
X125101517Y-74809115D01*
X125126021Y-74807911D01*
X125776023Y-74807911D01*
X125800527Y-74809115D01*
G37*
G04 #@! TD*
G04 #@! TO.C,R3*
G36*
X103652627Y-74809115D02*
G01*
X103676895Y-74812715D01*
X103700694Y-74818676D01*
X103723793Y-74826941D01*
X103745972Y-74837431D01*
X103767015Y-74850043D01*
X103786721Y-74864658D01*
X103804899Y-74881134D01*
X103821375Y-74899312D01*
X103835990Y-74919018D01*
X103848602Y-74940061D01*
X103859092Y-74962240D01*
X103867357Y-74985339D01*
X103873318Y-75009138D01*
X103876918Y-75033406D01*
X103878122Y-75057910D01*
X103878122Y-75957912D01*
X103876918Y-75982416D01*
X103873318Y-76006684D01*
X103867357Y-76030483D01*
X103859092Y-76053582D01*
X103848602Y-76075761D01*
X103835990Y-76096804D01*
X103821375Y-76116510D01*
X103804899Y-76134688D01*
X103786721Y-76151164D01*
X103767015Y-76165779D01*
X103745972Y-76178391D01*
X103723793Y-76188881D01*
X103700694Y-76197146D01*
X103676895Y-76203107D01*
X103652627Y-76206707D01*
X103628123Y-76207911D01*
X102978121Y-76207911D01*
X102953617Y-76206707D01*
X102929349Y-76203107D01*
X102905550Y-76197146D01*
X102882451Y-76188881D01*
X102860272Y-76178391D01*
X102839229Y-76165779D01*
X102819523Y-76151164D01*
X102801345Y-76134688D01*
X102784869Y-76116510D01*
X102770254Y-76096804D01*
X102757642Y-76075761D01*
X102747152Y-76053582D01*
X102738887Y-76030483D01*
X102732926Y-76006684D01*
X102729326Y-75982416D01*
X102728122Y-75957912D01*
X102728122Y-75057910D01*
X102729326Y-75033406D01*
X102732926Y-75009138D01*
X102738887Y-74985339D01*
X102747152Y-74962240D01*
X102757642Y-74940061D01*
X102770254Y-74919018D01*
X102784869Y-74899312D01*
X102801345Y-74881134D01*
X102819523Y-74864658D01*
X102839229Y-74850043D01*
X102860272Y-74837431D01*
X102882451Y-74826941D01*
X102905550Y-74818676D01*
X102929349Y-74812715D01*
X102953617Y-74809115D01*
X102978121Y-74807911D01*
X103628123Y-74807911D01*
X103652627Y-74809115D01*
G37*
G36*
X101602627Y-74809115D02*
G01*
X101626895Y-74812715D01*
X101650694Y-74818676D01*
X101673793Y-74826941D01*
X101695972Y-74837431D01*
X101717015Y-74850043D01*
X101736721Y-74864658D01*
X101754899Y-74881134D01*
X101771375Y-74899312D01*
X101785990Y-74919018D01*
X101798602Y-74940061D01*
X101809092Y-74962240D01*
X101817357Y-74985339D01*
X101823318Y-75009138D01*
X101826918Y-75033406D01*
X101828122Y-75057910D01*
X101828122Y-75957912D01*
X101826918Y-75982416D01*
X101823318Y-76006684D01*
X101817357Y-76030483D01*
X101809092Y-76053582D01*
X101798602Y-76075761D01*
X101785990Y-76096804D01*
X101771375Y-76116510D01*
X101754899Y-76134688D01*
X101736721Y-76151164D01*
X101717015Y-76165779D01*
X101695972Y-76178391D01*
X101673793Y-76188881D01*
X101650694Y-76197146D01*
X101626895Y-76203107D01*
X101602627Y-76206707D01*
X101578123Y-76207911D01*
X100928121Y-76207911D01*
X100903617Y-76206707D01*
X100879349Y-76203107D01*
X100855550Y-76197146D01*
X100832451Y-76188881D01*
X100810272Y-76178391D01*
X100789229Y-76165779D01*
X100769523Y-76151164D01*
X100751345Y-76134688D01*
X100734869Y-76116510D01*
X100720254Y-76096804D01*
X100707642Y-76075761D01*
X100697152Y-76053582D01*
X100688887Y-76030483D01*
X100682926Y-76006684D01*
X100679326Y-75982416D01*
X100678122Y-75957912D01*
X100678122Y-75057910D01*
X100679326Y-75033406D01*
X100682926Y-75009138D01*
X100688887Y-74985339D01*
X100697152Y-74962240D01*
X100707642Y-74940061D01*
X100720254Y-74919018D01*
X100734869Y-74899312D01*
X100751345Y-74881134D01*
X100769523Y-74864658D01*
X100789229Y-74850043D01*
X100810272Y-74837431D01*
X100832451Y-74826941D01*
X100855550Y-74818676D01*
X100879349Y-74812715D01*
X100903617Y-74809115D01*
X100928121Y-74807911D01*
X101578123Y-74807911D01*
X101602627Y-74809115D01*
G37*
G04 #@! TD*
G04 #@! TO.C,R4*
G36*
X121893627Y-76559115D02*
G01*
X121917895Y-76562715D01*
X121941694Y-76568676D01*
X121964793Y-76576941D01*
X121986972Y-76587431D01*
X122008015Y-76600043D01*
X122027721Y-76614658D01*
X122045899Y-76631134D01*
X122062375Y-76649312D01*
X122076990Y-76669018D01*
X122089602Y-76690061D01*
X122100092Y-76712240D01*
X122108357Y-76735339D01*
X122114318Y-76759138D01*
X122117918Y-76783406D01*
X122119122Y-76807910D01*
X122119122Y-77707912D01*
X122117918Y-77732416D01*
X122114318Y-77756684D01*
X122108357Y-77780483D01*
X122100092Y-77803582D01*
X122089602Y-77825761D01*
X122076990Y-77846804D01*
X122062375Y-77866510D01*
X122045899Y-77884688D01*
X122027721Y-77901164D01*
X122008015Y-77915779D01*
X121986972Y-77928391D01*
X121964793Y-77938881D01*
X121941694Y-77947146D01*
X121917895Y-77953107D01*
X121893627Y-77956707D01*
X121869123Y-77957911D01*
X121219121Y-77957911D01*
X121194617Y-77956707D01*
X121170349Y-77953107D01*
X121146550Y-77947146D01*
X121123451Y-77938881D01*
X121101272Y-77928391D01*
X121080229Y-77915779D01*
X121060523Y-77901164D01*
X121042345Y-77884688D01*
X121025869Y-77866510D01*
X121011254Y-77846804D01*
X120998642Y-77825761D01*
X120988152Y-77803582D01*
X120979887Y-77780483D01*
X120973926Y-77756684D01*
X120970326Y-77732416D01*
X120969122Y-77707912D01*
X120969122Y-76807910D01*
X120970326Y-76783406D01*
X120973926Y-76759138D01*
X120979887Y-76735339D01*
X120988152Y-76712240D01*
X120998642Y-76690061D01*
X121011254Y-76669018D01*
X121025869Y-76649312D01*
X121042345Y-76631134D01*
X121060523Y-76614658D01*
X121080229Y-76600043D01*
X121101272Y-76587431D01*
X121123451Y-76576941D01*
X121146550Y-76568676D01*
X121170349Y-76562715D01*
X121194617Y-76559115D01*
X121219121Y-76557911D01*
X121869123Y-76557911D01*
X121893627Y-76559115D01*
G37*
G36*
X123943627Y-76559115D02*
G01*
X123967895Y-76562715D01*
X123991694Y-76568676D01*
X124014793Y-76576941D01*
X124036972Y-76587431D01*
X124058015Y-76600043D01*
X124077721Y-76614658D01*
X124095899Y-76631134D01*
X124112375Y-76649312D01*
X124126990Y-76669018D01*
X124139602Y-76690061D01*
X124150092Y-76712240D01*
X124158357Y-76735339D01*
X124164318Y-76759138D01*
X124167918Y-76783406D01*
X124169122Y-76807910D01*
X124169122Y-77707912D01*
X124167918Y-77732416D01*
X124164318Y-77756684D01*
X124158357Y-77780483D01*
X124150092Y-77803582D01*
X124139602Y-77825761D01*
X124126990Y-77846804D01*
X124112375Y-77866510D01*
X124095899Y-77884688D01*
X124077721Y-77901164D01*
X124058015Y-77915779D01*
X124036972Y-77928391D01*
X124014793Y-77938881D01*
X123991694Y-77947146D01*
X123967895Y-77953107D01*
X123943627Y-77956707D01*
X123919123Y-77957911D01*
X123269121Y-77957911D01*
X123244617Y-77956707D01*
X123220349Y-77953107D01*
X123196550Y-77947146D01*
X123173451Y-77938881D01*
X123151272Y-77928391D01*
X123130229Y-77915779D01*
X123110523Y-77901164D01*
X123092345Y-77884688D01*
X123075869Y-77866510D01*
X123061254Y-77846804D01*
X123048642Y-77825761D01*
X123038152Y-77803582D01*
X123029887Y-77780483D01*
X123023926Y-77756684D01*
X123020326Y-77732416D01*
X123019122Y-77707912D01*
X123019122Y-76807910D01*
X123020326Y-76783406D01*
X123023926Y-76759138D01*
X123029887Y-76735339D01*
X123038152Y-76712240D01*
X123048642Y-76690061D01*
X123061254Y-76669018D01*
X123075869Y-76649312D01*
X123092345Y-76631134D01*
X123110523Y-76614658D01*
X123130229Y-76600043D01*
X123151272Y-76587431D01*
X123173451Y-76576941D01*
X123196550Y-76568676D01*
X123220349Y-76562715D01*
X123244617Y-76559115D01*
X123269121Y-76557911D01*
X123919123Y-76557911D01*
X123943627Y-76559115D01*
G37*
G04 #@! TD*
G04 #@! TO.C,R5*
G36*
X109352627Y-74809115D02*
G01*
X109376895Y-74812715D01*
X109400694Y-74818676D01*
X109423793Y-74826941D01*
X109445972Y-74837431D01*
X109467015Y-74850043D01*
X109486721Y-74864658D01*
X109504899Y-74881134D01*
X109521375Y-74899312D01*
X109535990Y-74919018D01*
X109548602Y-74940061D01*
X109559092Y-74962240D01*
X109567357Y-74985339D01*
X109573318Y-75009138D01*
X109576918Y-75033406D01*
X109578122Y-75057910D01*
X109578122Y-75957912D01*
X109576918Y-75982416D01*
X109573318Y-76006684D01*
X109567357Y-76030483D01*
X109559092Y-76053582D01*
X109548602Y-76075761D01*
X109535990Y-76096804D01*
X109521375Y-76116510D01*
X109504899Y-76134688D01*
X109486721Y-76151164D01*
X109467015Y-76165779D01*
X109445972Y-76178391D01*
X109423793Y-76188881D01*
X109400694Y-76197146D01*
X109376895Y-76203107D01*
X109352627Y-76206707D01*
X109328123Y-76207911D01*
X108678121Y-76207911D01*
X108653617Y-76206707D01*
X108629349Y-76203107D01*
X108605550Y-76197146D01*
X108582451Y-76188881D01*
X108560272Y-76178391D01*
X108539229Y-76165779D01*
X108519523Y-76151164D01*
X108501345Y-76134688D01*
X108484869Y-76116510D01*
X108470254Y-76096804D01*
X108457642Y-76075761D01*
X108447152Y-76053582D01*
X108438887Y-76030483D01*
X108432926Y-76006684D01*
X108429326Y-75982416D01*
X108428122Y-75957912D01*
X108428122Y-75057910D01*
X108429326Y-75033406D01*
X108432926Y-75009138D01*
X108438887Y-74985339D01*
X108447152Y-74962240D01*
X108457642Y-74940061D01*
X108470254Y-74919018D01*
X108484869Y-74899312D01*
X108501345Y-74881134D01*
X108519523Y-74864658D01*
X108539229Y-74850043D01*
X108560272Y-74837431D01*
X108582451Y-74826941D01*
X108605550Y-74818676D01*
X108629349Y-74812715D01*
X108653617Y-74809115D01*
X108678121Y-74807911D01*
X109328123Y-74807911D01*
X109352627Y-74809115D01*
G37*
G36*
X111402627Y-74809115D02*
G01*
X111426895Y-74812715D01*
X111450694Y-74818676D01*
X111473793Y-74826941D01*
X111495972Y-74837431D01*
X111517015Y-74850043D01*
X111536721Y-74864658D01*
X111554899Y-74881134D01*
X111571375Y-74899312D01*
X111585990Y-74919018D01*
X111598602Y-74940061D01*
X111609092Y-74962240D01*
X111617357Y-74985339D01*
X111623318Y-75009138D01*
X111626918Y-75033406D01*
X111628122Y-75057910D01*
X111628122Y-75957912D01*
X111626918Y-75982416D01*
X111623318Y-76006684D01*
X111617357Y-76030483D01*
X111609092Y-76053582D01*
X111598602Y-76075761D01*
X111585990Y-76096804D01*
X111571375Y-76116510D01*
X111554899Y-76134688D01*
X111536721Y-76151164D01*
X111517015Y-76165779D01*
X111495972Y-76178391D01*
X111473793Y-76188881D01*
X111450694Y-76197146D01*
X111426895Y-76203107D01*
X111402627Y-76206707D01*
X111378123Y-76207911D01*
X110728121Y-76207911D01*
X110703617Y-76206707D01*
X110679349Y-76203107D01*
X110655550Y-76197146D01*
X110632451Y-76188881D01*
X110610272Y-76178391D01*
X110589229Y-76165779D01*
X110569523Y-76151164D01*
X110551345Y-76134688D01*
X110534869Y-76116510D01*
X110520254Y-76096804D01*
X110507642Y-76075761D01*
X110497152Y-76053582D01*
X110488887Y-76030483D01*
X110482926Y-76006684D01*
X110479326Y-75982416D01*
X110478122Y-75957912D01*
X110478122Y-75057910D01*
X110479326Y-75033406D01*
X110482926Y-75009138D01*
X110488887Y-74985339D01*
X110497152Y-74962240D01*
X110507642Y-74940061D01*
X110520254Y-74919018D01*
X110534869Y-74899312D01*
X110551345Y-74881134D01*
X110569523Y-74864658D01*
X110589229Y-74850043D01*
X110610272Y-74837431D01*
X110632451Y-74826941D01*
X110655550Y-74818676D01*
X110679349Y-74812715D01*
X110703617Y-74809115D01*
X110728121Y-74807911D01*
X111378123Y-74807911D01*
X111402627Y-74809115D01*
G37*
G04 #@! TD*
G04 #@! TO.C,R6*
G36*
X118210527Y-74809115D02*
G01*
X118234795Y-74812715D01*
X118258594Y-74818676D01*
X118281693Y-74826941D01*
X118303872Y-74837431D01*
X118324915Y-74850043D01*
X118344621Y-74864658D01*
X118362799Y-74881134D01*
X118379275Y-74899312D01*
X118393890Y-74919018D01*
X118406502Y-74940061D01*
X118416992Y-74962240D01*
X118425257Y-74985339D01*
X118431218Y-75009138D01*
X118434818Y-75033406D01*
X118436022Y-75057910D01*
X118436022Y-75957912D01*
X118434818Y-75982416D01*
X118431218Y-76006684D01*
X118425257Y-76030483D01*
X118416992Y-76053582D01*
X118406502Y-76075761D01*
X118393890Y-76096804D01*
X118379275Y-76116510D01*
X118362799Y-76134688D01*
X118344621Y-76151164D01*
X118324915Y-76165779D01*
X118303872Y-76178391D01*
X118281693Y-76188881D01*
X118258594Y-76197146D01*
X118234795Y-76203107D01*
X118210527Y-76206707D01*
X118186023Y-76207911D01*
X117536021Y-76207911D01*
X117511517Y-76206707D01*
X117487249Y-76203107D01*
X117463450Y-76197146D01*
X117440351Y-76188881D01*
X117418172Y-76178391D01*
X117397129Y-76165779D01*
X117377423Y-76151164D01*
X117359245Y-76134688D01*
X117342769Y-76116510D01*
X117328154Y-76096804D01*
X117315542Y-76075761D01*
X117305052Y-76053582D01*
X117296787Y-76030483D01*
X117290826Y-76006684D01*
X117287226Y-75982416D01*
X117286022Y-75957912D01*
X117286022Y-75057910D01*
X117287226Y-75033406D01*
X117290826Y-75009138D01*
X117296787Y-74985339D01*
X117305052Y-74962240D01*
X117315542Y-74940061D01*
X117328154Y-74919018D01*
X117342769Y-74899312D01*
X117359245Y-74881134D01*
X117377423Y-74864658D01*
X117397129Y-74850043D01*
X117418172Y-74837431D01*
X117440351Y-74826941D01*
X117463450Y-74818676D01*
X117487249Y-74812715D01*
X117511517Y-74809115D01*
X117536021Y-74807911D01*
X118186023Y-74807911D01*
X118210527Y-74809115D01*
G37*
G36*
X120260527Y-74809115D02*
G01*
X120284795Y-74812715D01*
X120308594Y-74818676D01*
X120331693Y-74826941D01*
X120353872Y-74837431D01*
X120374915Y-74850043D01*
X120394621Y-74864658D01*
X120412799Y-74881134D01*
X120429275Y-74899312D01*
X120443890Y-74919018D01*
X120456502Y-74940061D01*
X120466992Y-74962240D01*
X120475257Y-74985339D01*
X120481218Y-75009138D01*
X120484818Y-75033406D01*
X120486022Y-75057910D01*
X120486022Y-75957912D01*
X120484818Y-75982416D01*
X120481218Y-76006684D01*
X120475257Y-76030483D01*
X120466992Y-76053582D01*
X120456502Y-76075761D01*
X120443890Y-76096804D01*
X120429275Y-76116510D01*
X120412799Y-76134688D01*
X120394621Y-76151164D01*
X120374915Y-76165779D01*
X120353872Y-76178391D01*
X120331693Y-76188881D01*
X120308594Y-76197146D01*
X120284795Y-76203107D01*
X120260527Y-76206707D01*
X120236023Y-76207911D01*
X119586021Y-76207911D01*
X119561517Y-76206707D01*
X119537249Y-76203107D01*
X119513450Y-76197146D01*
X119490351Y-76188881D01*
X119468172Y-76178391D01*
X119447129Y-76165779D01*
X119427423Y-76151164D01*
X119409245Y-76134688D01*
X119392769Y-76116510D01*
X119378154Y-76096804D01*
X119365542Y-76075761D01*
X119355052Y-76053582D01*
X119346787Y-76030483D01*
X119340826Y-76006684D01*
X119337226Y-75982416D01*
X119336022Y-75957912D01*
X119336022Y-75057910D01*
X119337226Y-75033406D01*
X119340826Y-75009138D01*
X119346787Y-74985339D01*
X119355052Y-74962240D01*
X119365542Y-74940061D01*
X119378154Y-74919018D01*
X119392769Y-74899312D01*
X119409245Y-74881134D01*
X119427423Y-74864658D01*
X119447129Y-74850043D01*
X119468172Y-74837431D01*
X119490351Y-74826941D01*
X119513450Y-74818676D01*
X119537249Y-74812715D01*
X119561517Y-74809115D01*
X119586021Y-74807911D01*
X120236023Y-74807911D01*
X120260527Y-74809115D01*
G37*
G04 #@! TD*
G04 #@! TO.C,R7*
G36*
X113390527Y-74809115D02*
G01*
X113414795Y-74812715D01*
X113438594Y-74818676D01*
X113461693Y-74826941D01*
X113483872Y-74837431D01*
X113504915Y-74850043D01*
X113524621Y-74864658D01*
X113542799Y-74881134D01*
X113559275Y-74899312D01*
X113573890Y-74919018D01*
X113586502Y-74940061D01*
X113596992Y-74962240D01*
X113605257Y-74985339D01*
X113611218Y-75009138D01*
X113614818Y-75033406D01*
X113616022Y-75057910D01*
X113616022Y-75957912D01*
X113614818Y-75982416D01*
X113611218Y-76006684D01*
X113605257Y-76030483D01*
X113596992Y-76053582D01*
X113586502Y-76075761D01*
X113573890Y-76096804D01*
X113559275Y-76116510D01*
X113542799Y-76134688D01*
X113524621Y-76151164D01*
X113504915Y-76165779D01*
X113483872Y-76178391D01*
X113461693Y-76188881D01*
X113438594Y-76197146D01*
X113414795Y-76203107D01*
X113390527Y-76206707D01*
X113366023Y-76207911D01*
X112716021Y-76207911D01*
X112691517Y-76206707D01*
X112667249Y-76203107D01*
X112643450Y-76197146D01*
X112620351Y-76188881D01*
X112598172Y-76178391D01*
X112577129Y-76165779D01*
X112557423Y-76151164D01*
X112539245Y-76134688D01*
X112522769Y-76116510D01*
X112508154Y-76096804D01*
X112495542Y-76075761D01*
X112485052Y-76053582D01*
X112476787Y-76030483D01*
X112470826Y-76006684D01*
X112467226Y-75982416D01*
X112466022Y-75957912D01*
X112466022Y-75057910D01*
X112467226Y-75033406D01*
X112470826Y-75009138D01*
X112476787Y-74985339D01*
X112485052Y-74962240D01*
X112495542Y-74940061D01*
X112508154Y-74919018D01*
X112522769Y-74899312D01*
X112539245Y-74881134D01*
X112557423Y-74864658D01*
X112577129Y-74850043D01*
X112598172Y-74837431D01*
X112620351Y-74826941D01*
X112643450Y-74818676D01*
X112667249Y-74812715D01*
X112691517Y-74809115D01*
X112716021Y-74807911D01*
X113366023Y-74807911D01*
X113390527Y-74809115D01*
G37*
G36*
X115440527Y-74809115D02*
G01*
X115464795Y-74812715D01*
X115488594Y-74818676D01*
X115511693Y-74826941D01*
X115533872Y-74837431D01*
X115554915Y-74850043D01*
X115574621Y-74864658D01*
X115592799Y-74881134D01*
X115609275Y-74899312D01*
X115623890Y-74919018D01*
X115636502Y-74940061D01*
X115646992Y-74962240D01*
X115655257Y-74985339D01*
X115661218Y-75009138D01*
X115664818Y-75033406D01*
X115666022Y-75057910D01*
X115666022Y-75957912D01*
X115664818Y-75982416D01*
X115661218Y-76006684D01*
X115655257Y-76030483D01*
X115646992Y-76053582D01*
X115636502Y-76075761D01*
X115623890Y-76096804D01*
X115609275Y-76116510D01*
X115592799Y-76134688D01*
X115574621Y-76151164D01*
X115554915Y-76165779D01*
X115533872Y-76178391D01*
X115511693Y-76188881D01*
X115488594Y-76197146D01*
X115464795Y-76203107D01*
X115440527Y-76206707D01*
X115416023Y-76207911D01*
X114766021Y-76207911D01*
X114741517Y-76206707D01*
X114717249Y-76203107D01*
X114693450Y-76197146D01*
X114670351Y-76188881D01*
X114648172Y-76178391D01*
X114627129Y-76165779D01*
X114607423Y-76151164D01*
X114589245Y-76134688D01*
X114572769Y-76116510D01*
X114558154Y-76096804D01*
X114545542Y-76075761D01*
X114535052Y-76053582D01*
X114526787Y-76030483D01*
X114520826Y-76006684D01*
X114517226Y-75982416D01*
X114516022Y-75957912D01*
X114516022Y-75057910D01*
X114517226Y-75033406D01*
X114520826Y-75009138D01*
X114526787Y-74985339D01*
X114535052Y-74962240D01*
X114545542Y-74940061D01*
X114558154Y-74919018D01*
X114572769Y-74899312D01*
X114589245Y-74881134D01*
X114607423Y-74864658D01*
X114627129Y-74850043D01*
X114648172Y-74837431D01*
X114670351Y-74826941D01*
X114693450Y-74818676D01*
X114717249Y-74812715D01*
X114741517Y-74809115D01*
X114766021Y-74807911D01*
X115416023Y-74807911D01*
X115440527Y-74809115D01*
G37*
G04 #@! TD*
D12*
G04 #@! TO.C,J2*
X124786022Y-72115911D03*
X122016022Y-72115911D03*
X119246022Y-72115911D03*
X116476022Y-72115911D03*
X113706022Y-72115911D03*
X110936022Y-72115911D03*
X108166022Y-72115911D03*
X105396022Y-72115911D03*
X102626022Y-72115911D03*
X99856022Y-72115911D03*
X97086022Y-72115911D03*
X94316022Y-72115911D03*
G04 #@! TD*
D11*
G04 #@! TO.C,R1*
G36*
X56067006Y-74719115D02*
G01*
X56091274Y-74722715D01*
X56115073Y-74728676D01*
X56138172Y-74736941D01*
X56160351Y-74747431D01*
X56181394Y-74760043D01*
X56201100Y-74774658D01*
X56219278Y-74791134D01*
X56235754Y-74809312D01*
X56250369Y-74829018D01*
X56262981Y-74850061D01*
X56273471Y-74872240D01*
X56281736Y-74895339D01*
X56287697Y-74919138D01*
X56291297Y-74943406D01*
X56292501Y-74967910D01*
X56292501Y-75867912D01*
X56291297Y-75892416D01*
X56287697Y-75916684D01*
X56281736Y-75940483D01*
X56273471Y-75963582D01*
X56262981Y-75985761D01*
X56250369Y-76006804D01*
X56235754Y-76026510D01*
X56219278Y-76044688D01*
X56201100Y-76061164D01*
X56181394Y-76075779D01*
X56160351Y-76088391D01*
X56138172Y-76098881D01*
X56115073Y-76107146D01*
X56091274Y-76113107D01*
X56067006Y-76116707D01*
X56042502Y-76117911D01*
X55392500Y-76117911D01*
X55367996Y-76116707D01*
X55343728Y-76113107D01*
X55319929Y-76107146D01*
X55296830Y-76098881D01*
X55274651Y-76088391D01*
X55253608Y-76075779D01*
X55233902Y-76061164D01*
X55215724Y-76044688D01*
X55199248Y-76026510D01*
X55184633Y-76006804D01*
X55172021Y-75985761D01*
X55161531Y-75963582D01*
X55153266Y-75940483D01*
X55147305Y-75916684D01*
X55143705Y-75892416D01*
X55142501Y-75867912D01*
X55142501Y-74967910D01*
X55143705Y-74943406D01*
X55147305Y-74919138D01*
X55153266Y-74895339D01*
X55161531Y-74872240D01*
X55172021Y-74850061D01*
X55184633Y-74829018D01*
X55199248Y-74809312D01*
X55215724Y-74791134D01*
X55233902Y-74774658D01*
X55253608Y-74760043D01*
X55274651Y-74747431D01*
X55296830Y-74736941D01*
X55319929Y-74728676D01*
X55343728Y-74722715D01*
X55367996Y-74719115D01*
X55392500Y-74717911D01*
X56042502Y-74717911D01*
X56067006Y-74719115D01*
G37*
G36*
X58117006Y-74719115D02*
G01*
X58141274Y-74722715D01*
X58165073Y-74728676D01*
X58188172Y-74736941D01*
X58210351Y-74747431D01*
X58231394Y-74760043D01*
X58251100Y-74774658D01*
X58269278Y-74791134D01*
X58285754Y-74809312D01*
X58300369Y-74829018D01*
X58312981Y-74850061D01*
X58323471Y-74872240D01*
X58331736Y-74895339D01*
X58337697Y-74919138D01*
X58341297Y-74943406D01*
X58342501Y-74967910D01*
X58342501Y-75867912D01*
X58341297Y-75892416D01*
X58337697Y-75916684D01*
X58331736Y-75940483D01*
X58323471Y-75963582D01*
X58312981Y-75985761D01*
X58300369Y-76006804D01*
X58285754Y-76026510D01*
X58269278Y-76044688D01*
X58251100Y-76061164D01*
X58231394Y-76075779D01*
X58210351Y-76088391D01*
X58188172Y-76098881D01*
X58165073Y-76107146D01*
X58141274Y-76113107D01*
X58117006Y-76116707D01*
X58092502Y-76117911D01*
X57442500Y-76117911D01*
X57417996Y-76116707D01*
X57393728Y-76113107D01*
X57369929Y-76107146D01*
X57346830Y-76098881D01*
X57324651Y-76088391D01*
X57303608Y-76075779D01*
X57283902Y-76061164D01*
X57265724Y-76044688D01*
X57249248Y-76026510D01*
X57234633Y-76006804D01*
X57222021Y-75985761D01*
X57211531Y-75963582D01*
X57203266Y-75940483D01*
X57197305Y-75916684D01*
X57193705Y-75892416D01*
X57192501Y-75867912D01*
X57192501Y-74967910D01*
X57193705Y-74943406D01*
X57197305Y-74919138D01*
X57203266Y-74895339D01*
X57211531Y-74872240D01*
X57222021Y-74850061D01*
X57234633Y-74829018D01*
X57249248Y-74809312D01*
X57265724Y-74791134D01*
X57283902Y-74774658D01*
X57303608Y-74760043D01*
X57324651Y-74747431D01*
X57346830Y-74736941D01*
X57369929Y-74728676D01*
X57393728Y-74722715D01*
X57417996Y-74719115D01*
X57442500Y-74717911D01*
X58092502Y-74717911D01*
X58117006Y-74719115D01*
G37*
G04 #@! TD*
G04 #@! TO.C,R2*
G36*
X83047006Y-74809115D02*
G01*
X83071274Y-74812715D01*
X83095073Y-74818676D01*
X83118172Y-74826941D01*
X83140351Y-74837431D01*
X83161394Y-74850043D01*
X83181100Y-74864658D01*
X83199278Y-74881134D01*
X83215754Y-74899312D01*
X83230369Y-74919018D01*
X83242981Y-74940061D01*
X83253471Y-74962240D01*
X83261736Y-74985339D01*
X83267697Y-75009138D01*
X83271297Y-75033406D01*
X83272501Y-75057910D01*
X83272501Y-75957912D01*
X83271297Y-75982416D01*
X83267697Y-76006684D01*
X83261736Y-76030483D01*
X83253471Y-76053582D01*
X83242981Y-76075761D01*
X83230369Y-76096804D01*
X83215754Y-76116510D01*
X83199278Y-76134688D01*
X83181100Y-76151164D01*
X83161394Y-76165779D01*
X83140351Y-76178391D01*
X83118172Y-76188881D01*
X83095073Y-76197146D01*
X83071274Y-76203107D01*
X83047006Y-76206707D01*
X83022502Y-76207911D01*
X82372500Y-76207911D01*
X82347996Y-76206707D01*
X82323728Y-76203107D01*
X82299929Y-76197146D01*
X82276830Y-76188881D01*
X82254651Y-76178391D01*
X82233608Y-76165779D01*
X82213902Y-76151164D01*
X82195724Y-76134688D01*
X82179248Y-76116510D01*
X82164633Y-76096804D01*
X82152021Y-76075761D01*
X82141531Y-76053582D01*
X82133266Y-76030483D01*
X82127305Y-76006684D01*
X82123705Y-75982416D01*
X82122501Y-75957912D01*
X82122501Y-75057910D01*
X82123705Y-75033406D01*
X82127305Y-75009138D01*
X82133266Y-74985339D01*
X82141531Y-74962240D01*
X82152021Y-74940061D01*
X82164633Y-74919018D01*
X82179248Y-74899312D01*
X82195724Y-74881134D01*
X82213902Y-74864658D01*
X82233608Y-74850043D01*
X82254651Y-74837431D01*
X82276830Y-74826941D01*
X82299929Y-74818676D01*
X82323728Y-74812715D01*
X82347996Y-74809115D01*
X82372500Y-74807911D01*
X83022502Y-74807911D01*
X83047006Y-74809115D01*
G37*
G36*
X85097006Y-74809115D02*
G01*
X85121274Y-74812715D01*
X85145073Y-74818676D01*
X85168172Y-74826941D01*
X85190351Y-74837431D01*
X85211394Y-74850043D01*
X85231100Y-74864658D01*
X85249278Y-74881134D01*
X85265754Y-74899312D01*
X85280369Y-74919018D01*
X85292981Y-74940061D01*
X85303471Y-74962240D01*
X85311736Y-74985339D01*
X85317697Y-75009138D01*
X85321297Y-75033406D01*
X85322501Y-75057910D01*
X85322501Y-75957912D01*
X85321297Y-75982416D01*
X85317697Y-76006684D01*
X85311736Y-76030483D01*
X85303471Y-76053582D01*
X85292981Y-76075761D01*
X85280369Y-76096804D01*
X85265754Y-76116510D01*
X85249278Y-76134688D01*
X85231100Y-76151164D01*
X85211394Y-76165779D01*
X85190351Y-76178391D01*
X85168172Y-76188881D01*
X85145073Y-76197146D01*
X85121274Y-76203107D01*
X85097006Y-76206707D01*
X85072502Y-76207911D01*
X84422500Y-76207911D01*
X84397996Y-76206707D01*
X84373728Y-76203107D01*
X84349929Y-76197146D01*
X84326830Y-76188881D01*
X84304651Y-76178391D01*
X84283608Y-76165779D01*
X84263902Y-76151164D01*
X84245724Y-76134688D01*
X84229248Y-76116510D01*
X84214633Y-76096804D01*
X84202021Y-76075761D01*
X84191531Y-76053582D01*
X84183266Y-76030483D01*
X84177305Y-76006684D01*
X84173705Y-75982416D01*
X84172501Y-75957912D01*
X84172501Y-75057910D01*
X84173705Y-75033406D01*
X84177305Y-75009138D01*
X84183266Y-74985339D01*
X84191531Y-74962240D01*
X84202021Y-74940061D01*
X84214633Y-74919018D01*
X84229248Y-74899312D01*
X84245724Y-74881134D01*
X84263902Y-74864658D01*
X84283608Y-74850043D01*
X84304651Y-74837431D01*
X84326830Y-74826941D01*
X84349929Y-74818676D01*
X84373728Y-74812715D01*
X84397996Y-74809115D01*
X84422500Y-74807911D01*
X85072502Y-74807911D01*
X85097006Y-74809115D01*
G37*
G04 #@! TD*
G04 #@! TO.C,R3*
G36*
X62949106Y-74809115D02*
G01*
X62973374Y-74812715D01*
X62997173Y-74818676D01*
X63020272Y-74826941D01*
X63042451Y-74837431D01*
X63063494Y-74850043D01*
X63083200Y-74864658D01*
X63101378Y-74881134D01*
X63117854Y-74899312D01*
X63132469Y-74919018D01*
X63145081Y-74940061D01*
X63155571Y-74962240D01*
X63163836Y-74985339D01*
X63169797Y-75009138D01*
X63173397Y-75033406D01*
X63174601Y-75057910D01*
X63174601Y-75957912D01*
X63173397Y-75982416D01*
X63169797Y-76006684D01*
X63163836Y-76030483D01*
X63155571Y-76053582D01*
X63145081Y-76075761D01*
X63132469Y-76096804D01*
X63117854Y-76116510D01*
X63101378Y-76134688D01*
X63083200Y-76151164D01*
X63063494Y-76165779D01*
X63042451Y-76178391D01*
X63020272Y-76188881D01*
X62997173Y-76197146D01*
X62973374Y-76203107D01*
X62949106Y-76206707D01*
X62924602Y-76207911D01*
X62274600Y-76207911D01*
X62250096Y-76206707D01*
X62225828Y-76203107D01*
X62202029Y-76197146D01*
X62178930Y-76188881D01*
X62156751Y-76178391D01*
X62135708Y-76165779D01*
X62116002Y-76151164D01*
X62097824Y-76134688D01*
X62081348Y-76116510D01*
X62066733Y-76096804D01*
X62054121Y-76075761D01*
X62043631Y-76053582D01*
X62035366Y-76030483D01*
X62029405Y-76006684D01*
X62025805Y-75982416D01*
X62024601Y-75957912D01*
X62024601Y-75057910D01*
X62025805Y-75033406D01*
X62029405Y-75009138D01*
X62035366Y-74985339D01*
X62043631Y-74962240D01*
X62054121Y-74940061D01*
X62066733Y-74919018D01*
X62081348Y-74899312D01*
X62097824Y-74881134D01*
X62116002Y-74864658D01*
X62135708Y-74850043D01*
X62156751Y-74837431D01*
X62178930Y-74826941D01*
X62202029Y-74818676D01*
X62225828Y-74812715D01*
X62250096Y-74809115D01*
X62274600Y-74807911D01*
X62924602Y-74807911D01*
X62949106Y-74809115D01*
G37*
G36*
X60899106Y-74809115D02*
G01*
X60923374Y-74812715D01*
X60947173Y-74818676D01*
X60970272Y-74826941D01*
X60992451Y-74837431D01*
X61013494Y-74850043D01*
X61033200Y-74864658D01*
X61051378Y-74881134D01*
X61067854Y-74899312D01*
X61082469Y-74919018D01*
X61095081Y-74940061D01*
X61105571Y-74962240D01*
X61113836Y-74985339D01*
X61119797Y-75009138D01*
X61123397Y-75033406D01*
X61124601Y-75057910D01*
X61124601Y-75957912D01*
X61123397Y-75982416D01*
X61119797Y-76006684D01*
X61113836Y-76030483D01*
X61105571Y-76053582D01*
X61095081Y-76075761D01*
X61082469Y-76096804D01*
X61067854Y-76116510D01*
X61051378Y-76134688D01*
X61033200Y-76151164D01*
X61013494Y-76165779D01*
X60992451Y-76178391D01*
X60970272Y-76188881D01*
X60947173Y-76197146D01*
X60923374Y-76203107D01*
X60899106Y-76206707D01*
X60874602Y-76207911D01*
X60224600Y-76207911D01*
X60200096Y-76206707D01*
X60175828Y-76203107D01*
X60152029Y-76197146D01*
X60128930Y-76188881D01*
X60106751Y-76178391D01*
X60085708Y-76165779D01*
X60066002Y-76151164D01*
X60047824Y-76134688D01*
X60031348Y-76116510D01*
X60016733Y-76096804D01*
X60004121Y-76075761D01*
X59993631Y-76053582D01*
X59985366Y-76030483D01*
X59979405Y-76006684D01*
X59975805Y-75982416D01*
X59974601Y-75957912D01*
X59974601Y-75057910D01*
X59975805Y-75033406D01*
X59979405Y-75009138D01*
X59985366Y-74985339D01*
X59993631Y-74962240D01*
X60004121Y-74940061D01*
X60016733Y-74919018D01*
X60031348Y-74899312D01*
X60047824Y-74881134D01*
X60066002Y-74864658D01*
X60085708Y-74850043D01*
X60106751Y-74837431D01*
X60128930Y-74826941D01*
X60152029Y-74818676D01*
X60175828Y-74812715D01*
X60200096Y-74809115D01*
X60224600Y-74807911D01*
X60874602Y-74807911D01*
X60899106Y-74809115D01*
G37*
G04 #@! TD*
G04 #@! TO.C,R4*
G36*
X81190106Y-76559115D02*
G01*
X81214374Y-76562715D01*
X81238173Y-76568676D01*
X81261272Y-76576941D01*
X81283451Y-76587431D01*
X81304494Y-76600043D01*
X81324200Y-76614658D01*
X81342378Y-76631134D01*
X81358854Y-76649312D01*
X81373469Y-76669018D01*
X81386081Y-76690061D01*
X81396571Y-76712240D01*
X81404836Y-76735339D01*
X81410797Y-76759138D01*
X81414397Y-76783406D01*
X81415601Y-76807910D01*
X81415601Y-77707912D01*
X81414397Y-77732416D01*
X81410797Y-77756684D01*
X81404836Y-77780483D01*
X81396571Y-77803582D01*
X81386081Y-77825761D01*
X81373469Y-77846804D01*
X81358854Y-77866510D01*
X81342378Y-77884688D01*
X81324200Y-77901164D01*
X81304494Y-77915779D01*
X81283451Y-77928391D01*
X81261272Y-77938881D01*
X81238173Y-77947146D01*
X81214374Y-77953107D01*
X81190106Y-77956707D01*
X81165602Y-77957911D01*
X80515600Y-77957911D01*
X80491096Y-77956707D01*
X80466828Y-77953107D01*
X80443029Y-77947146D01*
X80419930Y-77938881D01*
X80397751Y-77928391D01*
X80376708Y-77915779D01*
X80357002Y-77901164D01*
X80338824Y-77884688D01*
X80322348Y-77866510D01*
X80307733Y-77846804D01*
X80295121Y-77825761D01*
X80284631Y-77803582D01*
X80276366Y-77780483D01*
X80270405Y-77756684D01*
X80266805Y-77732416D01*
X80265601Y-77707912D01*
X80265601Y-76807910D01*
X80266805Y-76783406D01*
X80270405Y-76759138D01*
X80276366Y-76735339D01*
X80284631Y-76712240D01*
X80295121Y-76690061D01*
X80307733Y-76669018D01*
X80322348Y-76649312D01*
X80338824Y-76631134D01*
X80357002Y-76614658D01*
X80376708Y-76600043D01*
X80397751Y-76587431D01*
X80419930Y-76576941D01*
X80443029Y-76568676D01*
X80466828Y-76562715D01*
X80491096Y-76559115D01*
X80515600Y-76557911D01*
X81165602Y-76557911D01*
X81190106Y-76559115D01*
G37*
G36*
X83240106Y-76559115D02*
G01*
X83264374Y-76562715D01*
X83288173Y-76568676D01*
X83311272Y-76576941D01*
X83333451Y-76587431D01*
X83354494Y-76600043D01*
X83374200Y-76614658D01*
X83392378Y-76631134D01*
X83408854Y-76649312D01*
X83423469Y-76669018D01*
X83436081Y-76690061D01*
X83446571Y-76712240D01*
X83454836Y-76735339D01*
X83460797Y-76759138D01*
X83464397Y-76783406D01*
X83465601Y-76807910D01*
X83465601Y-77707912D01*
X83464397Y-77732416D01*
X83460797Y-77756684D01*
X83454836Y-77780483D01*
X83446571Y-77803582D01*
X83436081Y-77825761D01*
X83423469Y-77846804D01*
X83408854Y-77866510D01*
X83392378Y-77884688D01*
X83374200Y-77901164D01*
X83354494Y-77915779D01*
X83333451Y-77928391D01*
X83311272Y-77938881D01*
X83288173Y-77947146D01*
X83264374Y-77953107D01*
X83240106Y-77956707D01*
X83215602Y-77957911D01*
X82565600Y-77957911D01*
X82541096Y-77956707D01*
X82516828Y-77953107D01*
X82493029Y-77947146D01*
X82469930Y-77938881D01*
X82447751Y-77928391D01*
X82426708Y-77915779D01*
X82407002Y-77901164D01*
X82388824Y-77884688D01*
X82372348Y-77866510D01*
X82357733Y-77846804D01*
X82345121Y-77825761D01*
X82334631Y-77803582D01*
X82326366Y-77780483D01*
X82320405Y-77756684D01*
X82316805Y-77732416D01*
X82315601Y-77707912D01*
X82315601Y-76807910D01*
X82316805Y-76783406D01*
X82320405Y-76759138D01*
X82326366Y-76735339D01*
X82334631Y-76712240D01*
X82345121Y-76690061D01*
X82357733Y-76669018D01*
X82372348Y-76649312D01*
X82388824Y-76631134D01*
X82407002Y-76614658D01*
X82426708Y-76600043D01*
X82447751Y-76587431D01*
X82469930Y-76576941D01*
X82493029Y-76568676D01*
X82516828Y-76562715D01*
X82541096Y-76559115D01*
X82565600Y-76557911D01*
X83215602Y-76557911D01*
X83240106Y-76559115D01*
G37*
G04 #@! TD*
G04 #@! TO.C,R5*
G36*
X68649106Y-74809115D02*
G01*
X68673374Y-74812715D01*
X68697173Y-74818676D01*
X68720272Y-74826941D01*
X68742451Y-74837431D01*
X68763494Y-74850043D01*
X68783200Y-74864658D01*
X68801378Y-74881134D01*
X68817854Y-74899312D01*
X68832469Y-74919018D01*
X68845081Y-74940061D01*
X68855571Y-74962240D01*
X68863836Y-74985339D01*
X68869797Y-75009138D01*
X68873397Y-75033406D01*
X68874601Y-75057910D01*
X68874601Y-75957912D01*
X68873397Y-75982416D01*
X68869797Y-76006684D01*
X68863836Y-76030483D01*
X68855571Y-76053582D01*
X68845081Y-76075761D01*
X68832469Y-76096804D01*
X68817854Y-76116510D01*
X68801378Y-76134688D01*
X68783200Y-76151164D01*
X68763494Y-76165779D01*
X68742451Y-76178391D01*
X68720272Y-76188881D01*
X68697173Y-76197146D01*
X68673374Y-76203107D01*
X68649106Y-76206707D01*
X68624602Y-76207911D01*
X67974600Y-76207911D01*
X67950096Y-76206707D01*
X67925828Y-76203107D01*
X67902029Y-76197146D01*
X67878930Y-76188881D01*
X67856751Y-76178391D01*
X67835708Y-76165779D01*
X67816002Y-76151164D01*
X67797824Y-76134688D01*
X67781348Y-76116510D01*
X67766733Y-76096804D01*
X67754121Y-76075761D01*
X67743631Y-76053582D01*
X67735366Y-76030483D01*
X67729405Y-76006684D01*
X67725805Y-75982416D01*
X67724601Y-75957912D01*
X67724601Y-75057910D01*
X67725805Y-75033406D01*
X67729405Y-75009138D01*
X67735366Y-74985339D01*
X67743631Y-74962240D01*
X67754121Y-74940061D01*
X67766733Y-74919018D01*
X67781348Y-74899312D01*
X67797824Y-74881134D01*
X67816002Y-74864658D01*
X67835708Y-74850043D01*
X67856751Y-74837431D01*
X67878930Y-74826941D01*
X67902029Y-74818676D01*
X67925828Y-74812715D01*
X67950096Y-74809115D01*
X67974600Y-74807911D01*
X68624602Y-74807911D01*
X68649106Y-74809115D01*
G37*
G36*
X70699106Y-74809115D02*
G01*
X70723374Y-74812715D01*
X70747173Y-74818676D01*
X70770272Y-74826941D01*
X70792451Y-74837431D01*
X70813494Y-74850043D01*
X70833200Y-74864658D01*
X70851378Y-74881134D01*
X70867854Y-74899312D01*
X70882469Y-74919018D01*
X70895081Y-74940061D01*
X70905571Y-74962240D01*
X70913836Y-74985339D01*
X70919797Y-75009138D01*
X70923397Y-75033406D01*
X70924601Y-75057910D01*
X70924601Y-75957912D01*
X70923397Y-75982416D01*
X70919797Y-76006684D01*
X70913836Y-76030483D01*
X70905571Y-76053582D01*
X70895081Y-76075761D01*
X70882469Y-76096804D01*
X70867854Y-76116510D01*
X70851378Y-76134688D01*
X70833200Y-76151164D01*
X70813494Y-76165779D01*
X70792451Y-76178391D01*
X70770272Y-76188881D01*
X70747173Y-76197146D01*
X70723374Y-76203107D01*
X70699106Y-76206707D01*
X70674602Y-76207911D01*
X70024600Y-76207911D01*
X70000096Y-76206707D01*
X69975828Y-76203107D01*
X69952029Y-76197146D01*
X69928930Y-76188881D01*
X69906751Y-76178391D01*
X69885708Y-76165779D01*
X69866002Y-76151164D01*
X69847824Y-76134688D01*
X69831348Y-76116510D01*
X69816733Y-76096804D01*
X69804121Y-76075761D01*
X69793631Y-76053582D01*
X69785366Y-76030483D01*
X69779405Y-76006684D01*
X69775805Y-75982416D01*
X69774601Y-75957912D01*
X69774601Y-75057910D01*
X69775805Y-75033406D01*
X69779405Y-75009138D01*
X69785366Y-74985339D01*
X69793631Y-74962240D01*
X69804121Y-74940061D01*
X69816733Y-74919018D01*
X69831348Y-74899312D01*
X69847824Y-74881134D01*
X69866002Y-74864658D01*
X69885708Y-74850043D01*
X69906751Y-74837431D01*
X69928930Y-74826941D01*
X69952029Y-74818676D01*
X69975828Y-74812715D01*
X70000096Y-74809115D01*
X70024600Y-74807911D01*
X70674602Y-74807911D01*
X70699106Y-74809115D01*
G37*
G04 #@! TD*
G04 #@! TO.C,R6*
G36*
X77507006Y-74809115D02*
G01*
X77531274Y-74812715D01*
X77555073Y-74818676D01*
X77578172Y-74826941D01*
X77600351Y-74837431D01*
X77621394Y-74850043D01*
X77641100Y-74864658D01*
X77659278Y-74881134D01*
X77675754Y-74899312D01*
X77690369Y-74919018D01*
X77702981Y-74940061D01*
X77713471Y-74962240D01*
X77721736Y-74985339D01*
X77727697Y-75009138D01*
X77731297Y-75033406D01*
X77732501Y-75057910D01*
X77732501Y-75957912D01*
X77731297Y-75982416D01*
X77727697Y-76006684D01*
X77721736Y-76030483D01*
X77713471Y-76053582D01*
X77702981Y-76075761D01*
X77690369Y-76096804D01*
X77675754Y-76116510D01*
X77659278Y-76134688D01*
X77641100Y-76151164D01*
X77621394Y-76165779D01*
X77600351Y-76178391D01*
X77578172Y-76188881D01*
X77555073Y-76197146D01*
X77531274Y-76203107D01*
X77507006Y-76206707D01*
X77482502Y-76207911D01*
X76832500Y-76207911D01*
X76807996Y-76206707D01*
X76783728Y-76203107D01*
X76759929Y-76197146D01*
X76736830Y-76188881D01*
X76714651Y-76178391D01*
X76693608Y-76165779D01*
X76673902Y-76151164D01*
X76655724Y-76134688D01*
X76639248Y-76116510D01*
X76624633Y-76096804D01*
X76612021Y-76075761D01*
X76601531Y-76053582D01*
X76593266Y-76030483D01*
X76587305Y-76006684D01*
X76583705Y-75982416D01*
X76582501Y-75957912D01*
X76582501Y-75057910D01*
X76583705Y-75033406D01*
X76587305Y-75009138D01*
X76593266Y-74985339D01*
X76601531Y-74962240D01*
X76612021Y-74940061D01*
X76624633Y-74919018D01*
X76639248Y-74899312D01*
X76655724Y-74881134D01*
X76673902Y-74864658D01*
X76693608Y-74850043D01*
X76714651Y-74837431D01*
X76736830Y-74826941D01*
X76759929Y-74818676D01*
X76783728Y-74812715D01*
X76807996Y-74809115D01*
X76832500Y-74807911D01*
X77482502Y-74807911D01*
X77507006Y-74809115D01*
G37*
G36*
X79557006Y-74809115D02*
G01*
X79581274Y-74812715D01*
X79605073Y-74818676D01*
X79628172Y-74826941D01*
X79650351Y-74837431D01*
X79671394Y-74850043D01*
X79691100Y-74864658D01*
X79709278Y-74881134D01*
X79725754Y-74899312D01*
X79740369Y-74919018D01*
X79752981Y-74940061D01*
X79763471Y-74962240D01*
X79771736Y-74985339D01*
X79777697Y-75009138D01*
X79781297Y-75033406D01*
X79782501Y-75057910D01*
X79782501Y-75957912D01*
X79781297Y-75982416D01*
X79777697Y-76006684D01*
X79771736Y-76030483D01*
X79763471Y-76053582D01*
X79752981Y-76075761D01*
X79740369Y-76096804D01*
X79725754Y-76116510D01*
X79709278Y-76134688D01*
X79691100Y-76151164D01*
X79671394Y-76165779D01*
X79650351Y-76178391D01*
X79628172Y-76188881D01*
X79605073Y-76197146D01*
X79581274Y-76203107D01*
X79557006Y-76206707D01*
X79532502Y-76207911D01*
X78882500Y-76207911D01*
X78857996Y-76206707D01*
X78833728Y-76203107D01*
X78809929Y-76197146D01*
X78786830Y-76188881D01*
X78764651Y-76178391D01*
X78743608Y-76165779D01*
X78723902Y-76151164D01*
X78705724Y-76134688D01*
X78689248Y-76116510D01*
X78674633Y-76096804D01*
X78662021Y-76075761D01*
X78651531Y-76053582D01*
X78643266Y-76030483D01*
X78637305Y-76006684D01*
X78633705Y-75982416D01*
X78632501Y-75957912D01*
X78632501Y-75057910D01*
X78633705Y-75033406D01*
X78637305Y-75009138D01*
X78643266Y-74985339D01*
X78651531Y-74962240D01*
X78662021Y-74940061D01*
X78674633Y-74919018D01*
X78689248Y-74899312D01*
X78705724Y-74881134D01*
X78723902Y-74864658D01*
X78743608Y-74850043D01*
X78764651Y-74837431D01*
X78786830Y-74826941D01*
X78809929Y-74818676D01*
X78833728Y-74812715D01*
X78857996Y-74809115D01*
X78882500Y-74807911D01*
X79532502Y-74807911D01*
X79557006Y-74809115D01*
G37*
G04 #@! TD*
G04 #@! TO.C,R7*
G36*
X72687006Y-74809115D02*
G01*
X72711274Y-74812715D01*
X72735073Y-74818676D01*
X72758172Y-74826941D01*
X72780351Y-74837431D01*
X72801394Y-74850043D01*
X72821100Y-74864658D01*
X72839278Y-74881134D01*
X72855754Y-74899312D01*
X72870369Y-74919018D01*
X72882981Y-74940061D01*
X72893471Y-74962240D01*
X72901736Y-74985339D01*
X72907697Y-75009138D01*
X72911297Y-75033406D01*
X72912501Y-75057910D01*
X72912501Y-75957912D01*
X72911297Y-75982416D01*
X72907697Y-76006684D01*
X72901736Y-76030483D01*
X72893471Y-76053582D01*
X72882981Y-76075761D01*
X72870369Y-76096804D01*
X72855754Y-76116510D01*
X72839278Y-76134688D01*
X72821100Y-76151164D01*
X72801394Y-76165779D01*
X72780351Y-76178391D01*
X72758172Y-76188881D01*
X72735073Y-76197146D01*
X72711274Y-76203107D01*
X72687006Y-76206707D01*
X72662502Y-76207911D01*
X72012500Y-76207911D01*
X71987996Y-76206707D01*
X71963728Y-76203107D01*
X71939929Y-76197146D01*
X71916830Y-76188881D01*
X71894651Y-76178391D01*
X71873608Y-76165779D01*
X71853902Y-76151164D01*
X71835724Y-76134688D01*
X71819248Y-76116510D01*
X71804633Y-76096804D01*
X71792021Y-76075761D01*
X71781531Y-76053582D01*
X71773266Y-76030483D01*
X71767305Y-76006684D01*
X71763705Y-75982416D01*
X71762501Y-75957912D01*
X71762501Y-75057910D01*
X71763705Y-75033406D01*
X71767305Y-75009138D01*
X71773266Y-74985339D01*
X71781531Y-74962240D01*
X71792021Y-74940061D01*
X71804633Y-74919018D01*
X71819248Y-74899312D01*
X71835724Y-74881134D01*
X71853902Y-74864658D01*
X71873608Y-74850043D01*
X71894651Y-74837431D01*
X71916830Y-74826941D01*
X71939929Y-74818676D01*
X71963728Y-74812715D01*
X71987996Y-74809115D01*
X72012500Y-74807911D01*
X72662502Y-74807911D01*
X72687006Y-74809115D01*
G37*
G36*
X74737006Y-74809115D02*
G01*
X74761274Y-74812715D01*
X74785073Y-74818676D01*
X74808172Y-74826941D01*
X74830351Y-74837431D01*
X74851394Y-74850043D01*
X74871100Y-74864658D01*
X74889278Y-74881134D01*
X74905754Y-74899312D01*
X74920369Y-74919018D01*
X74932981Y-74940061D01*
X74943471Y-74962240D01*
X74951736Y-74985339D01*
X74957697Y-75009138D01*
X74961297Y-75033406D01*
X74962501Y-75057910D01*
X74962501Y-75957912D01*
X74961297Y-75982416D01*
X74957697Y-76006684D01*
X74951736Y-76030483D01*
X74943471Y-76053582D01*
X74932981Y-76075761D01*
X74920369Y-76096804D01*
X74905754Y-76116510D01*
X74889278Y-76134688D01*
X74871100Y-76151164D01*
X74851394Y-76165779D01*
X74830351Y-76178391D01*
X74808172Y-76188881D01*
X74785073Y-76197146D01*
X74761274Y-76203107D01*
X74737006Y-76206707D01*
X74712502Y-76207911D01*
X74062500Y-76207911D01*
X74037996Y-76206707D01*
X74013728Y-76203107D01*
X73989929Y-76197146D01*
X73966830Y-76188881D01*
X73944651Y-76178391D01*
X73923608Y-76165779D01*
X73903902Y-76151164D01*
X73885724Y-76134688D01*
X73869248Y-76116510D01*
X73854633Y-76096804D01*
X73842021Y-76075761D01*
X73831531Y-76053582D01*
X73823266Y-76030483D01*
X73817305Y-76006684D01*
X73813705Y-75982416D01*
X73812501Y-75957912D01*
X73812501Y-75057910D01*
X73813705Y-75033406D01*
X73817305Y-75009138D01*
X73823266Y-74985339D01*
X73831531Y-74962240D01*
X73842021Y-74940061D01*
X73854633Y-74919018D01*
X73869248Y-74899312D01*
X73885724Y-74881134D01*
X73903902Y-74864658D01*
X73923608Y-74850043D01*
X73944651Y-74837431D01*
X73966830Y-74826941D01*
X73989929Y-74818676D01*
X74013728Y-74812715D01*
X74037996Y-74809115D01*
X74062500Y-74807911D01*
X74712502Y-74807911D01*
X74737006Y-74809115D01*
G37*
G04 #@! TD*
D12*
G04 #@! TO.C,J2*
X84082501Y-72115911D03*
X81312501Y-72115911D03*
X78542501Y-72115911D03*
X75772501Y-72115911D03*
X73002501Y-72115911D03*
X70232501Y-72115911D03*
X67462501Y-72115911D03*
X64692501Y-72115911D03*
X61922501Y-72115911D03*
X59152501Y-72115911D03*
X56382501Y-72115911D03*
X53612501Y-72115911D03*
G04 #@! TD*
D11*
G04 #@! TO.C,R1*
G36*
X96770527Y-54635205D02*
G01*
X96794795Y-54638805D01*
X96818594Y-54644766D01*
X96841693Y-54653031D01*
X96863872Y-54663521D01*
X96884915Y-54676133D01*
X96904621Y-54690748D01*
X96922799Y-54707224D01*
X96939275Y-54725402D01*
X96953890Y-54745108D01*
X96966502Y-54766151D01*
X96976992Y-54788330D01*
X96985257Y-54811429D01*
X96991218Y-54835228D01*
X96994818Y-54859496D01*
X96996022Y-54884000D01*
X96996022Y-55784002D01*
X96994818Y-55808506D01*
X96991218Y-55832774D01*
X96985257Y-55856573D01*
X96976992Y-55879672D01*
X96966502Y-55901851D01*
X96953890Y-55922894D01*
X96939275Y-55942600D01*
X96922799Y-55960778D01*
X96904621Y-55977254D01*
X96884915Y-55991869D01*
X96863872Y-56004481D01*
X96841693Y-56014971D01*
X96818594Y-56023236D01*
X96794795Y-56029197D01*
X96770527Y-56032797D01*
X96746023Y-56034001D01*
X96096021Y-56034001D01*
X96071517Y-56032797D01*
X96047249Y-56029197D01*
X96023450Y-56023236D01*
X96000351Y-56014971D01*
X95978172Y-56004481D01*
X95957129Y-55991869D01*
X95937423Y-55977254D01*
X95919245Y-55960778D01*
X95902769Y-55942600D01*
X95888154Y-55922894D01*
X95875542Y-55901851D01*
X95865052Y-55879672D01*
X95856787Y-55856573D01*
X95850826Y-55832774D01*
X95847226Y-55808506D01*
X95846022Y-55784002D01*
X95846022Y-54884000D01*
X95847226Y-54859496D01*
X95850826Y-54835228D01*
X95856787Y-54811429D01*
X95865052Y-54788330D01*
X95875542Y-54766151D01*
X95888154Y-54745108D01*
X95902769Y-54725402D01*
X95919245Y-54707224D01*
X95937423Y-54690748D01*
X95957129Y-54676133D01*
X95978172Y-54663521D01*
X96000351Y-54653031D01*
X96023450Y-54644766D01*
X96047249Y-54638805D01*
X96071517Y-54635205D01*
X96096021Y-54634001D01*
X96746023Y-54634001D01*
X96770527Y-54635205D01*
G37*
G36*
X98820527Y-54635205D02*
G01*
X98844795Y-54638805D01*
X98868594Y-54644766D01*
X98891693Y-54653031D01*
X98913872Y-54663521D01*
X98934915Y-54676133D01*
X98954621Y-54690748D01*
X98972799Y-54707224D01*
X98989275Y-54725402D01*
X99003890Y-54745108D01*
X99016502Y-54766151D01*
X99026992Y-54788330D01*
X99035257Y-54811429D01*
X99041218Y-54835228D01*
X99044818Y-54859496D01*
X99046022Y-54884000D01*
X99046022Y-55784002D01*
X99044818Y-55808506D01*
X99041218Y-55832774D01*
X99035257Y-55856573D01*
X99026992Y-55879672D01*
X99016502Y-55901851D01*
X99003890Y-55922894D01*
X98989275Y-55942600D01*
X98972799Y-55960778D01*
X98954621Y-55977254D01*
X98934915Y-55991869D01*
X98913872Y-56004481D01*
X98891693Y-56014971D01*
X98868594Y-56023236D01*
X98844795Y-56029197D01*
X98820527Y-56032797D01*
X98796023Y-56034001D01*
X98146021Y-56034001D01*
X98121517Y-56032797D01*
X98097249Y-56029197D01*
X98073450Y-56023236D01*
X98050351Y-56014971D01*
X98028172Y-56004481D01*
X98007129Y-55991869D01*
X97987423Y-55977254D01*
X97969245Y-55960778D01*
X97952769Y-55942600D01*
X97938154Y-55922894D01*
X97925542Y-55901851D01*
X97915052Y-55879672D01*
X97906787Y-55856573D01*
X97900826Y-55832774D01*
X97897226Y-55808506D01*
X97896022Y-55784002D01*
X97896022Y-54884000D01*
X97897226Y-54859496D01*
X97900826Y-54835228D01*
X97906787Y-54811429D01*
X97915052Y-54788330D01*
X97925542Y-54766151D01*
X97938154Y-54745108D01*
X97952769Y-54725402D01*
X97969245Y-54707224D01*
X97987423Y-54690748D01*
X98007129Y-54676133D01*
X98028172Y-54663521D01*
X98050351Y-54653031D01*
X98073450Y-54644766D01*
X98097249Y-54638805D01*
X98121517Y-54635205D01*
X98146021Y-54634001D01*
X98796023Y-54634001D01*
X98820527Y-54635205D01*
G37*
G04 #@! TD*
G04 #@! TO.C,R2*
G36*
X123750527Y-54725205D02*
G01*
X123774795Y-54728805D01*
X123798594Y-54734766D01*
X123821693Y-54743031D01*
X123843872Y-54753521D01*
X123864915Y-54766133D01*
X123884621Y-54780748D01*
X123902799Y-54797224D01*
X123919275Y-54815402D01*
X123933890Y-54835108D01*
X123946502Y-54856151D01*
X123956992Y-54878330D01*
X123965257Y-54901429D01*
X123971218Y-54925228D01*
X123974818Y-54949496D01*
X123976022Y-54974000D01*
X123976022Y-55874002D01*
X123974818Y-55898506D01*
X123971218Y-55922774D01*
X123965257Y-55946573D01*
X123956992Y-55969672D01*
X123946502Y-55991851D01*
X123933890Y-56012894D01*
X123919275Y-56032600D01*
X123902799Y-56050778D01*
X123884621Y-56067254D01*
X123864915Y-56081869D01*
X123843872Y-56094481D01*
X123821693Y-56104971D01*
X123798594Y-56113236D01*
X123774795Y-56119197D01*
X123750527Y-56122797D01*
X123726023Y-56124001D01*
X123076021Y-56124001D01*
X123051517Y-56122797D01*
X123027249Y-56119197D01*
X123003450Y-56113236D01*
X122980351Y-56104971D01*
X122958172Y-56094481D01*
X122937129Y-56081869D01*
X122917423Y-56067254D01*
X122899245Y-56050778D01*
X122882769Y-56032600D01*
X122868154Y-56012894D01*
X122855542Y-55991851D01*
X122845052Y-55969672D01*
X122836787Y-55946573D01*
X122830826Y-55922774D01*
X122827226Y-55898506D01*
X122826022Y-55874002D01*
X122826022Y-54974000D01*
X122827226Y-54949496D01*
X122830826Y-54925228D01*
X122836787Y-54901429D01*
X122845052Y-54878330D01*
X122855542Y-54856151D01*
X122868154Y-54835108D01*
X122882769Y-54815402D01*
X122899245Y-54797224D01*
X122917423Y-54780748D01*
X122937129Y-54766133D01*
X122958172Y-54753521D01*
X122980351Y-54743031D01*
X123003450Y-54734766D01*
X123027249Y-54728805D01*
X123051517Y-54725205D01*
X123076021Y-54724001D01*
X123726023Y-54724001D01*
X123750527Y-54725205D01*
G37*
G36*
X125800527Y-54725205D02*
G01*
X125824795Y-54728805D01*
X125848594Y-54734766D01*
X125871693Y-54743031D01*
X125893872Y-54753521D01*
X125914915Y-54766133D01*
X125934621Y-54780748D01*
X125952799Y-54797224D01*
X125969275Y-54815402D01*
X125983890Y-54835108D01*
X125996502Y-54856151D01*
X126006992Y-54878330D01*
X126015257Y-54901429D01*
X126021218Y-54925228D01*
X126024818Y-54949496D01*
X126026022Y-54974000D01*
X126026022Y-55874002D01*
X126024818Y-55898506D01*
X126021218Y-55922774D01*
X126015257Y-55946573D01*
X126006992Y-55969672D01*
X125996502Y-55991851D01*
X125983890Y-56012894D01*
X125969275Y-56032600D01*
X125952799Y-56050778D01*
X125934621Y-56067254D01*
X125914915Y-56081869D01*
X125893872Y-56094481D01*
X125871693Y-56104971D01*
X125848594Y-56113236D01*
X125824795Y-56119197D01*
X125800527Y-56122797D01*
X125776023Y-56124001D01*
X125126021Y-56124001D01*
X125101517Y-56122797D01*
X125077249Y-56119197D01*
X125053450Y-56113236D01*
X125030351Y-56104971D01*
X125008172Y-56094481D01*
X124987129Y-56081869D01*
X124967423Y-56067254D01*
X124949245Y-56050778D01*
X124932769Y-56032600D01*
X124918154Y-56012894D01*
X124905542Y-55991851D01*
X124895052Y-55969672D01*
X124886787Y-55946573D01*
X124880826Y-55922774D01*
X124877226Y-55898506D01*
X124876022Y-55874002D01*
X124876022Y-54974000D01*
X124877226Y-54949496D01*
X124880826Y-54925228D01*
X124886787Y-54901429D01*
X124895052Y-54878330D01*
X124905542Y-54856151D01*
X124918154Y-54835108D01*
X124932769Y-54815402D01*
X124949245Y-54797224D01*
X124967423Y-54780748D01*
X124987129Y-54766133D01*
X125008172Y-54753521D01*
X125030351Y-54743031D01*
X125053450Y-54734766D01*
X125077249Y-54728805D01*
X125101517Y-54725205D01*
X125126021Y-54724001D01*
X125776023Y-54724001D01*
X125800527Y-54725205D01*
G37*
G04 #@! TD*
G04 #@! TO.C,R3*
G36*
X103652627Y-54725205D02*
G01*
X103676895Y-54728805D01*
X103700694Y-54734766D01*
X103723793Y-54743031D01*
X103745972Y-54753521D01*
X103767015Y-54766133D01*
X103786721Y-54780748D01*
X103804899Y-54797224D01*
X103821375Y-54815402D01*
X103835990Y-54835108D01*
X103848602Y-54856151D01*
X103859092Y-54878330D01*
X103867357Y-54901429D01*
X103873318Y-54925228D01*
X103876918Y-54949496D01*
X103878122Y-54974000D01*
X103878122Y-55874002D01*
X103876918Y-55898506D01*
X103873318Y-55922774D01*
X103867357Y-55946573D01*
X103859092Y-55969672D01*
X103848602Y-55991851D01*
X103835990Y-56012894D01*
X103821375Y-56032600D01*
X103804899Y-56050778D01*
X103786721Y-56067254D01*
X103767015Y-56081869D01*
X103745972Y-56094481D01*
X103723793Y-56104971D01*
X103700694Y-56113236D01*
X103676895Y-56119197D01*
X103652627Y-56122797D01*
X103628123Y-56124001D01*
X102978121Y-56124001D01*
X102953617Y-56122797D01*
X102929349Y-56119197D01*
X102905550Y-56113236D01*
X102882451Y-56104971D01*
X102860272Y-56094481D01*
X102839229Y-56081869D01*
X102819523Y-56067254D01*
X102801345Y-56050778D01*
X102784869Y-56032600D01*
X102770254Y-56012894D01*
X102757642Y-55991851D01*
X102747152Y-55969672D01*
X102738887Y-55946573D01*
X102732926Y-55922774D01*
X102729326Y-55898506D01*
X102728122Y-55874002D01*
X102728122Y-54974000D01*
X102729326Y-54949496D01*
X102732926Y-54925228D01*
X102738887Y-54901429D01*
X102747152Y-54878330D01*
X102757642Y-54856151D01*
X102770254Y-54835108D01*
X102784869Y-54815402D01*
X102801345Y-54797224D01*
X102819523Y-54780748D01*
X102839229Y-54766133D01*
X102860272Y-54753521D01*
X102882451Y-54743031D01*
X102905550Y-54734766D01*
X102929349Y-54728805D01*
X102953617Y-54725205D01*
X102978121Y-54724001D01*
X103628123Y-54724001D01*
X103652627Y-54725205D01*
G37*
G36*
X101602627Y-54725205D02*
G01*
X101626895Y-54728805D01*
X101650694Y-54734766D01*
X101673793Y-54743031D01*
X101695972Y-54753521D01*
X101717015Y-54766133D01*
X101736721Y-54780748D01*
X101754899Y-54797224D01*
X101771375Y-54815402D01*
X101785990Y-54835108D01*
X101798602Y-54856151D01*
X101809092Y-54878330D01*
X101817357Y-54901429D01*
X101823318Y-54925228D01*
X101826918Y-54949496D01*
X101828122Y-54974000D01*
X101828122Y-55874002D01*
X101826918Y-55898506D01*
X101823318Y-55922774D01*
X101817357Y-55946573D01*
X101809092Y-55969672D01*
X101798602Y-55991851D01*
X101785990Y-56012894D01*
X101771375Y-56032600D01*
X101754899Y-56050778D01*
X101736721Y-56067254D01*
X101717015Y-56081869D01*
X101695972Y-56094481D01*
X101673793Y-56104971D01*
X101650694Y-56113236D01*
X101626895Y-56119197D01*
X101602627Y-56122797D01*
X101578123Y-56124001D01*
X100928121Y-56124001D01*
X100903617Y-56122797D01*
X100879349Y-56119197D01*
X100855550Y-56113236D01*
X100832451Y-56104971D01*
X100810272Y-56094481D01*
X100789229Y-56081869D01*
X100769523Y-56067254D01*
X100751345Y-56050778D01*
X100734869Y-56032600D01*
X100720254Y-56012894D01*
X100707642Y-55991851D01*
X100697152Y-55969672D01*
X100688887Y-55946573D01*
X100682926Y-55922774D01*
X100679326Y-55898506D01*
X100678122Y-55874002D01*
X100678122Y-54974000D01*
X100679326Y-54949496D01*
X100682926Y-54925228D01*
X100688887Y-54901429D01*
X100697152Y-54878330D01*
X100707642Y-54856151D01*
X100720254Y-54835108D01*
X100734869Y-54815402D01*
X100751345Y-54797224D01*
X100769523Y-54780748D01*
X100789229Y-54766133D01*
X100810272Y-54753521D01*
X100832451Y-54743031D01*
X100855550Y-54734766D01*
X100879349Y-54728805D01*
X100903617Y-54725205D01*
X100928121Y-54724001D01*
X101578123Y-54724001D01*
X101602627Y-54725205D01*
G37*
G04 #@! TD*
G04 #@! TO.C,R4*
G36*
X121893627Y-56475205D02*
G01*
X121917895Y-56478805D01*
X121941694Y-56484766D01*
X121964793Y-56493031D01*
X121986972Y-56503521D01*
X122008015Y-56516133D01*
X122027721Y-56530748D01*
X122045899Y-56547224D01*
X122062375Y-56565402D01*
X122076990Y-56585108D01*
X122089602Y-56606151D01*
X122100092Y-56628330D01*
X122108357Y-56651429D01*
X122114318Y-56675228D01*
X122117918Y-56699496D01*
X122119122Y-56724000D01*
X122119122Y-57624002D01*
X122117918Y-57648506D01*
X122114318Y-57672774D01*
X122108357Y-57696573D01*
X122100092Y-57719672D01*
X122089602Y-57741851D01*
X122076990Y-57762894D01*
X122062375Y-57782600D01*
X122045899Y-57800778D01*
X122027721Y-57817254D01*
X122008015Y-57831869D01*
X121986972Y-57844481D01*
X121964793Y-57854971D01*
X121941694Y-57863236D01*
X121917895Y-57869197D01*
X121893627Y-57872797D01*
X121869123Y-57874001D01*
X121219121Y-57874001D01*
X121194617Y-57872797D01*
X121170349Y-57869197D01*
X121146550Y-57863236D01*
X121123451Y-57854971D01*
X121101272Y-57844481D01*
X121080229Y-57831869D01*
X121060523Y-57817254D01*
X121042345Y-57800778D01*
X121025869Y-57782600D01*
X121011254Y-57762894D01*
X120998642Y-57741851D01*
X120988152Y-57719672D01*
X120979887Y-57696573D01*
X120973926Y-57672774D01*
X120970326Y-57648506D01*
X120969122Y-57624002D01*
X120969122Y-56724000D01*
X120970326Y-56699496D01*
X120973926Y-56675228D01*
X120979887Y-56651429D01*
X120988152Y-56628330D01*
X120998642Y-56606151D01*
X121011254Y-56585108D01*
X121025869Y-56565402D01*
X121042345Y-56547224D01*
X121060523Y-56530748D01*
X121080229Y-56516133D01*
X121101272Y-56503521D01*
X121123451Y-56493031D01*
X121146550Y-56484766D01*
X121170349Y-56478805D01*
X121194617Y-56475205D01*
X121219121Y-56474001D01*
X121869123Y-56474001D01*
X121893627Y-56475205D01*
G37*
G36*
X123943627Y-56475205D02*
G01*
X123967895Y-56478805D01*
X123991694Y-56484766D01*
X124014793Y-56493031D01*
X124036972Y-56503521D01*
X124058015Y-56516133D01*
X124077721Y-56530748D01*
X124095899Y-56547224D01*
X124112375Y-56565402D01*
X124126990Y-56585108D01*
X124139602Y-56606151D01*
X124150092Y-56628330D01*
X124158357Y-56651429D01*
X124164318Y-56675228D01*
X124167918Y-56699496D01*
X124169122Y-56724000D01*
X124169122Y-57624002D01*
X124167918Y-57648506D01*
X124164318Y-57672774D01*
X124158357Y-57696573D01*
X124150092Y-57719672D01*
X124139602Y-57741851D01*
X124126990Y-57762894D01*
X124112375Y-57782600D01*
X124095899Y-57800778D01*
X124077721Y-57817254D01*
X124058015Y-57831869D01*
X124036972Y-57844481D01*
X124014793Y-57854971D01*
X123991694Y-57863236D01*
X123967895Y-57869197D01*
X123943627Y-57872797D01*
X123919123Y-57874001D01*
X123269121Y-57874001D01*
X123244617Y-57872797D01*
X123220349Y-57869197D01*
X123196550Y-57863236D01*
X123173451Y-57854971D01*
X123151272Y-57844481D01*
X123130229Y-57831869D01*
X123110523Y-57817254D01*
X123092345Y-57800778D01*
X123075869Y-57782600D01*
X123061254Y-57762894D01*
X123048642Y-57741851D01*
X123038152Y-57719672D01*
X123029887Y-57696573D01*
X123023926Y-57672774D01*
X123020326Y-57648506D01*
X123019122Y-57624002D01*
X123019122Y-56724000D01*
X123020326Y-56699496D01*
X123023926Y-56675228D01*
X123029887Y-56651429D01*
X123038152Y-56628330D01*
X123048642Y-56606151D01*
X123061254Y-56585108D01*
X123075869Y-56565402D01*
X123092345Y-56547224D01*
X123110523Y-56530748D01*
X123130229Y-56516133D01*
X123151272Y-56503521D01*
X123173451Y-56493031D01*
X123196550Y-56484766D01*
X123220349Y-56478805D01*
X123244617Y-56475205D01*
X123269121Y-56474001D01*
X123919123Y-56474001D01*
X123943627Y-56475205D01*
G37*
G04 #@! TD*
G04 #@! TO.C,R5*
G36*
X109352627Y-54725205D02*
G01*
X109376895Y-54728805D01*
X109400694Y-54734766D01*
X109423793Y-54743031D01*
X109445972Y-54753521D01*
X109467015Y-54766133D01*
X109486721Y-54780748D01*
X109504899Y-54797224D01*
X109521375Y-54815402D01*
X109535990Y-54835108D01*
X109548602Y-54856151D01*
X109559092Y-54878330D01*
X109567357Y-54901429D01*
X109573318Y-54925228D01*
X109576918Y-54949496D01*
X109578122Y-54974000D01*
X109578122Y-55874002D01*
X109576918Y-55898506D01*
X109573318Y-55922774D01*
X109567357Y-55946573D01*
X109559092Y-55969672D01*
X109548602Y-55991851D01*
X109535990Y-56012894D01*
X109521375Y-56032600D01*
X109504899Y-56050778D01*
X109486721Y-56067254D01*
X109467015Y-56081869D01*
X109445972Y-56094481D01*
X109423793Y-56104971D01*
X109400694Y-56113236D01*
X109376895Y-56119197D01*
X109352627Y-56122797D01*
X109328123Y-56124001D01*
X108678121Y-56124001D01*
X108653617Y-56122797D01*
X108629349Y-56119197D01*
X108605550Y-56113236D01*
X108582451Y-56104971D01*
X108560272Y-56094481D01*
X108539229Y-56081869D01*
X108519523Y-56067254D01*
X108501345Y-56050778D01*
X108484869Y-56032600D01*
X108470254Y-56012894D01*
X108457642Y-55991851D01*
X108447152Y-55969672D01*
X108438887Y-55946573D01*
X108432926Y-55922774D01*
X108429326Y-55898506D01*
X108428122Y-55874002D01*
X108428122Y-54974000D01*
X108429326Y-54949496D01*
X108432926Y-54925228D01*
X108438887Y-54901429D01*
X108447152Y-54878330D01*
X108457642Y-54856151D01*
X108470254Y-54835108D01*
X108484869Y-54815402D01*
X108501345Y-54797224D01*
X108519523Y-54780748D01*
X108539229Y-54766133D01*
X108560272Y-54753521D01*
X108582451Y-54743031D01*
X108605550Y-54734766D01*
X108629349Y-54728805D01*
X108653617Y-54725205D01*
X108678121Y-54724001D01*
X109328123Y-54724001D01*
X109352627Y-54725205D01*
G37*
G36*
X111402627Y-54725205D02*
G01*
X111426895Y-54728805D01*
X111450694Y-54734766D01*
X111473793Y-54743031D01*
X111495972Y-54753521D01*
X111517015Y-54766133D01*
X111536721Y-54780748D01*
X111554899Y-54797224D01*
X111571375Y-54815402D01*
X111585990Y-54835108D01*
X111598602Y-54856151D01*
X111609092Y-54878330D01*
X111617357Y-54901429D01*
X111623318Y-54925228D01*
X111626918Y-54949496D01*
X111628122Y-54974000D01*
X111628122Y-55874002D01*
X111626918Y-55898506D01*
X111623318Y-55922774D01*
X111617357Y-55946573D01*
X111609092Y-55969672D01*
X111598602Y-55991851D01*
X111585990Y-56012894D01*
X111571375Y-56032600D01*
X111554899Y-56050778D01*
X111536721Y-56067254D01*
X111517015Y-56081869D01*
X111495972Y-56094481D01*
X111473793Y-56104971D01*
X111450694Y-56113236D01*
X111426895Y-56119197D01*
X111402627Y-56122797D01*
X111378123Y-56124001D01*
X110728121Y-56124001D01*
X110703617Y-56122797D01*
X110679349Y-56119197D01*
X110655550Y-56113236D01*
X110632451Y-56104971D01*
X110610272Y-56094481D01*
X110589229Y-56081869D01*
X110569523Y-56067254D01*
X110551345Y-56050778D01*
X110534869Y-56032600D01*
X110520254Y-56012894D01*
X110507642Y-55991851D01*
X110497152Y-55969672D01*
X110488887Y-55946573D01*
X110482926Y-55922774D01*
X110479326Y-55898506D01*
X110478122Y-55874002D01*
X110478122Y-54974000D01*
X110479326Y-54949496D01*
X110482926Y-54925228D01*
X110488887Y-54901429D01*
X110497152Y-54878330D01*
X110507642Y-54856151D01*
X110520254Y-54835108D01*
X110534869Y-54815402D01*
X110551345Y-54797224D01*
X110569523Y-54780748D01*
X110589229Y-54766133D01*
X110610272Y-54753521D01*
X110632451Y-54743031D01*
X110655550Y-54734766D01*
X110679349Y-54728805D01*
X110703617Y-54725205D01*
X110728121Y-54724001D01*
X111378123Y-54724001D01*
X111402627Y-54725205D01*
G37*
G04 #@! TD*
G04 #@! TO.C,R6*
G36*
X118210527Y-54725205D02*
G01*
X118234795Y-54728805D01*
X118258594Y-54734766D01*
X118281693Y-54743031D01*
X118303872Y-54753521D01*
X118324915Y-54766133D01*
X118344621Y-54780748D01*
X118362799Y-54797224D01*
X118379275Y-54815402D01*
X118393890Y-54835108D01*
X118406502Y-54856151D01*
X118416992Y-54878330D01*
X118425257Y-54901429D01*
X118431218Y-54925228D01*
X118434818Y-54949496D01*
X118436022Y-54974000D01*
X118436022Y-55874002D01*
X118434818Y-55898506D01*
X118431218Y-55922774D01*
X118425257Y-55946573D01*
X118416992Y-55969672D01*
X118406502Y-55991851D01*
X118393890Y-56012894D01*
X118379275Y-56032600D01*
X118362799Y-56050778D01*
X118344621Y-56067254D01*
X118324915Y-56081869D01*
X118303872Y-56094481D01*
X118281693Y-56104971D01*
X118258594Y-56113236D01*
X118234795Y-56119197D01*
X118210527Y-56122797D01*
X118186023Y-56124001D01*
X117536021Y-56124001D01*
X117511517Y-56122797D01*
X117487249Y-56119197D01*
X117463450Y-56113236D01*
X117440351Y-56104971D01*
X117418172Y-56094481D01*
X117397129Y-56081869D01*
X117377423Y-56067254D01*
X117359245Y-56050778D01*
X117342769Y-56032600D01*
X117328154Y-56012894D01*
X117315542Y-55991851D01*
X117305052Y-55969672D01*
X117296787Y-55946573D01*
X117290826Y-55922774D01*
X117287226Y-55898506D01*
X117286022Y-55874002D01*
X117286022Y-54974000D01*
X117287226Y-54949496D01*
X117290826Y-54925228D01*
X117296787Y-54901429D01*
X117305052Y-54878330D01*
X117315542Y-54856151D01*
X117328154Y-54835108D01*
X117342769Y-54815402D01*
X117359245Y-54797224D01*
X117377423Y-54780748D01*
X117397129Y-54766133D01*
X117418172Y-54753521D01*
X117440351Y-54743031D01*
X117463450Y-54734766D01*
X117487249Y-54728805D01*
X117511517Y-54725205D01*
X117536021Y-54724001D01*
X118186023Y-54724001D01*
X118210527Y-54725205D01*
G37*
G36*
X120260527Y-54725205D02*
G01*
X120284795Y-54728805D01*
X120308594Y-54734766D01*
X120331693Y-54743031D01*
X120353872Y-54753521D01*
X120374915Y-54766133D01*
X120394621Y-54780748D01*
X120412799Y-54797224D01*
X120429275Y-54815402D01*
X120443890Y-54835108D01*
X120456502Y-54856151D01*
X120466992Y-54878330D01*
X120475257Y-54901429D01*
X120481218Y-54925228D01*
X120484818Y-54949496D01*
X120486022Y-54974000D01*
X120486022Y-55874002D01*
X120484818Y-55898506D01*
X120481218Y-55922774D01*
X120475257Y-55946573D01*
X120466992Y-55969672D01*
X120456502Y-55991851D01*
X120443890Y-56012894D01*
X120429275Y-56032600D01*
X120412799Y-56050778D01*
X120394621Y-56067254D01*
X120374915Y-56081869D01*
X120353872Y-56094481D01*
X120331693Y-56104971D01*
X120308594Y-56113236D01*
X120284795Y-56119197D01*
X120260527Y-56122797D01*
X120236023Y-56124001D01*
X119586021Y-56124001D01*
X119561517Y-56122797D01*
X119537249Y-56119197D01*
X119513450Y-56113236D01*
X119490351Y-56104971D01*
X119468172Y-56094481D01*
X119447129Y-56081869D01*
X119427423Y-56067254D01*
X119409245Y-56050778D01*
X119392769Y-56032600D01*
X119378154Y-56012894D01*
X119365542Y-55991851D01*
X119355052Y-55969672D01*
X119346787Y-55946573D01*
X119340826Y-55922774D01*
X119337226Y-55898506D01*
X119336022Y-55874002D01*
X119336022Y-54974000D01*
X119337226Y-54949496D01*
X119340826Y-54925228D01*
X119346787Y-54901429D01*
X119355052Y-54878330D01*
X119365542Y-54856151D01*
X119378154Y-54835108D01*
X119392769Y-54815402D01*
X119409245Y-54797224D01*
X119427423Y-54780748D01*
X119447129Y-54766133D01*
X119468172Y-54753521D01*
X119490351Y-54743031D01*
X119513450Y-54734766D01*
X119537249Y-54728805D01*
X119561517Y-54725205D01*
X119586021Y-54724001D01*
X120236023Y-54724001D01*
X120260527Y-54725205D01*
G37*
G04 #@! TD*
G04 #@! TO.C,R7*
G36*
X113390527Y-54725205D02*
G01*
X113414795Y-54728805D01*
X113438594Y-54734766D01*
X113461693Y-54743031D01*
X113483872Y-54753521D01*
X113504915Y-54766133D01*
X113524621Y-54780748D01*
X113542799Y-54797224D01*
X113559275Y-54815402D01*
X113573890Y-54835108D01*
X113586502Y-54856151D01*
X113596992Y-54878330D01*
X113605257Y-54901429D01*
X113611218Y-54925228D01*
X113614818Y-54949496D01*
X113616022Y-54974000D01*
X113616022Y-55874002D01*
X113614818Y-55898506D01*
X113611218Y-55922774D01*
X113605257Y-55946573D01*
X113596992Y-55969672D01*
X113586502Y-55991851D01*
X113573890Y-56012894D01*
X113559275Y-56032600D01*
X113542799Y-56050778D01*
X113524621Y-56067254D01*
X113504915Y-56081869D01*
X113483872Y-56094481D01*
X113461693Y-56104971D01*
X113438594Y-56113236D01*
X113414795Y-56119197D01*
X113390527Y-56122797D01*
X113366023Y-56124001D01*
X112716021Y-56124001D01*
X112691517Y-56122797D01*
X112667249Y-56119197D01*
X112643450Y-56113236D01*
X112620351Y-56104971D01*
X112598172Y-56094481D01*
X112577129Y-56081869D01*
X112557423Y-56067254D01*
X112539245Y-56050778D01*
X112522769Y-56032600D01*
X112508154Y-56012894D01*
X112495542Y-55991851D01*
X112485052Y-55969672D01*
X112476787Y-55946573D01*
X112470826Y-55922774D01*
X112467226Y-55898506D01*
X112466022Y-55874002D01*
X112466022Y-54974000D01*
X112467226Y-54949496D01*
X112470826Y-54925228D01*
X112476787Y-54901429D01*
X112485052Y-54878330D01*
X112495542Y-54856151D01*
X112508154Y-54835108D01*
X112522769Y-54815402D01*
X112539245Y-54797224D01*
X112557423Y-54780748D01*
X112577129Y-54766133D01*
X112598172Y-54753521D01*
X112620351Y-54743031D01*
X112643450Y-54734766D01*
X112667249Y-54728805D01*
X112691517Y-54725205D01*
X112716021Y-54724001D01*
X113366023Y-54724001D01*
X113390527Y-54725205D01*
G37*
G36*
X115440527Y-54725205D02*
G01*
X115464795Y-54728805D01*
X115488594Y-54734766D01*
X115511693Y-54743031D01*
X115533872Y-54753521D01*
X115554915Y-54766133D01*
X115574621Y-54780748D01*
X115592799Y-54797224D01*
X115609275Y-54815402D01*
X115623890Y-54835108D01*
X115636502Y-54856151D01*
X115646992Y-54878330D01*
X115655257Y-54901429D01*
X115661218Y-54925228D01*
X115664818Y-54949496D01*
X115666022Y-54974000D01*
X115666022Y-55874002D01*
X115664818Y-55898506D01*
X115661218Y-55922774D01*
X115655257Y-55946573D01*
X115646992Y-55969672D01*
X115636502Y-55991851D01*
X115623890Y-56012894D01*
X115609275Y-56032600D01*
X115592799Y-56050778D01*
X115574621Y-56067254D01*
X115554915Y-56081869D01*
X115533872Y-56094481D01*
X115511693Y-56104971D01*
X115488594Y-56113236D01*
X115464795Y-56119197D01*
X115440527Y-56122797D01*
X115416023Y-56124001D01*
X114766021Y-56124001D01*
X114741517Y-56122797D01*
X114717249Y-56119197D01*
X114693450Y-56113236D01*
X114670351Y-56104971D01*
X114648172Y-56094481D01*
X114627129Y-56081869D01*
X114607423Y-56067254D01*
X114589245Y-56050778D01*
X114572769Y-56032600D01*
X114558154Y-56012894D01*
X114545542Y-55991851D01*
X114535052Y-55969672D01*
X114526787Y-55946573D01*
X114520826Y-55922774D01*
X114517226Y-55898506D01*
X114516022Y-55874002D01*
X114516022Y-54974000D01*
X114517226Y-54949496D01*
X114520826Y-54925228D01*
X114526787Y-54901429D01*
X114535052Y-54878330D01*
X114545542Y-54856151D01*
X114558154Y-54835108D01*
X114572769Y-54815402D01*
X114589245Y-54797224D01*
X114607423Y-54780748D01*
X114627129Y-54766133D01*
X114648172Y-54753521D01*
X114670351Y-54743031D01*
X114693450Y-54734766D01*
X114717249Y-54728805D01*
X114741517Y-54725205D01*
X114766021Y-54724001D01*
X115416023Y-54724001D01*
X115440527Y-54725205D01*
G37*
G04 #@! TD*
D12*
G04 #@! TO.C,J2*
X124786022Y-52032001D03*
X122016022Y-52032001D03*
X119246022Y-52032001D03*
X116476022Y-52032001D03*
X113706022Y-52032001D03*
X110936022Y-52032001D03*
X108166022Y-52032001D03*
X105396022Y-52032001D03*
X102626022Y-52032001D03*
X99856022Y-52032001D03*
X97086022Y-52032001D03*
X94316022Y-52032001D03*
G04 #@! TD*
D11*
G04 #@! TO.C,R1*
G36*
X56067006Y-54635205D02*
G01*
X56091274Y-54638805D01*
X56115073Y-54644766D01*
X56138172Y-54653031D01*
X56160351Y-54663521D01*
X56181394Y-54676133D01*
X56201100Y-54690748D01*
X56219278Y-54707224D01*
X56235754Y-54725402D01*
X56250369Y-54745108D01*
X56262981Y-54766151D01*
X56273471Y-54788330D01*
X56281736Y-54811429D01*
X56287697Y-54835228D01*
X56291297Y-54859496D01*
X56292501Y-54884000D01*
X56292501Y-55784002D01*
X56291297Y-55808506D01*
X56287697Y-55832774D01*
X56281736Y-55856573D01*
X56273471Y-55879672D01*
X56262981Y-55901851D01*
X56250369Y-55922894D01*
X56235754Y-55942600D01*
X56219278Y-55960778D01*
X56201100Y-55977254D01*
X56181394Y-55991869D01*
X56160351Y-56004481D01*
X56138172Y-56014971D01*
X56115073Y-56023236D01*
X56091274Y-56029197D01*
X56067006Y-56032797D01*
X56042502Y-56034001D01*
X55392500Y-56034001D01*
X55367996Y-56032797D01*
X55343728Y-56029197D01*
X55319929Y-56023236D01*
X55296830Y-56014971D01*
X55274651Y-56004481D01*
X55253608Y-55991869D01*
X55233902Y-55977254D01*
X55215724Y-55960778D01*
X55199248Y-55942600D01*
X55184633Y-55922894D01*
X55172021Y-55901851D01*
X55161531Y-55879672D01*
X55153266Y-55856573D01*
X55147305Y-55832774D01*
X55143705Y-55808506D01*
X55142501Y-55784002D01*
X55142501Y-54884000D01*
X55143705Y-54859496D01*
X55147305Y-54835228D01*
X55153266Y-54811429D01*
X55161531Y-54788330D01*
X55172021Y-54766151D01*
X55184633Y-54745108D01*
X55199248Y-54725402D01*
X55215724Y-54707224D01*
X55233902Y-54690748D01*
X55253608Y-54676133D01*
X55274651Y-54663521D01*
X55296830Y-54653031D01*
X55319929Y-54644766D01*
X55343728Y-54638805D01*
X55367996Y-54635205D01*
X55392500Y-54634001D01*
X56042502Y-54634001D01*
X56067006Y-54635205D01*
G37*
G36*
X58117006Y-54635205D02*
G01*
X58141274Y-54638805D01*
X58165073Y-54644766D01*
X58188172Y-54653031D01*
X58210351Y-54663521D01*
X58231394Y-54676133D01*
X58251100Y-54690748D01*
X58269278Y-54707224D01*
X58285754Y-54725402D01*
X58300369Y-54745108D01*
X58312981Y-54766151D01*
X58323471Y-54788330D01*
X58331736Y-54811429D01*
X58337697Y-54835228D01*
X58341297Y-54859496D01*
X58342501Y-54884000D01*
X58342501Y-55784002D01*
X58341297Y-55808506D01*
X58337697Y-55832774D01*
X58331736Y-55856573D01*
X58323471Y-55879672D01*
X58312981Y-55901851D01*
X58300369Y-55922894D01*
X58285754Y-55942600D01*
X58269278Y-55960778D01*
X58251100Y-55977254D01*
X58231394Y-55991869D01*
X58210351Y-56004481D01*
X58188172Y-56014971D01*
X58165073Y-56023236D01*
X58141274Y-56029197D01*
X58117006Y-56032797D01*
X58092502Y-56034001D01*
X57442500Y-56034001D01*
X57417996Y-56032797D01*
X57393728Y-56029197D01*
X57369929Y-56023236D01*
X57346830Y-56014971D01*
X57324651Y-56004481D01*
X57303608Y-55991869D01*
X57283902Y-55977254D01*
X57265724Y-55960778D01*
X57249248Y-55942600D01*
X57234633Y-55922894D01*
X57222021Y-55901851D01*
X57211531Y-55879672D01*
X57203266Y-55856573D01*
X57197305Y-55832774D01*
X57193705Y-55808506D01*
X57192501Y-55784002D01*
X57192501Y-54884000D01*
X57193705Y-54859496D01*
X57197305Y-54835228D01*
X57203266Y-54811429D01*
X57211531Y-54788330D01*
X57222021Y-54766151D01*
X57234633Y-54745108D01*
X57249248Y-54725402D01*
X57265724Y-54707224D01*
X57283902Y-54690748D01*
X57303608Y-54676133D01*
X57324651Y-54663521D01*
X57346830Y-54653031D01*
X57369929Y-54644766D01*
X57393728Y-54638805D01*
X57417996Y-54635205D01*
X57442500Y-54634001D01*
X58092502Y-54634001D01*
X58117006Y-54635205D01*
G37*
G04 #@! TD*
G04 #@! TO.C,R2*
G36*
X83047006Y-54725205D02*
G01*
X83071274Y-54728805D01*
X83095073Y-54734766D01*
X83118172Y-54743031D01*
X83140351Y-54753521D01*
X83161394Y-54766133D01*
X83181100Y-54780748D01*
X83199278Y-54797224D01*
X83215754Y-54815402D01*
X83230369Y-54835108D01*
X83242981Y-54856151D01*
X83253471Y-54878330D01*
X83261736Y-54901429D01*
X83267697Y-54925228D01*
X83271297Y-54949496D01*
X83272501Y-54974000D01*
X83272501Y-55874002D01*
X83271297Y-55898506D01*
X83267697Y-55922774D01*
X83261736Y-55946573D01*
X83253471Y-55969672D01*
X83242981Y-55991851D01*
X83230369Y-56012894D01*
X83215754Y-56032600D01*
X83199278Y-56050778D01*
X83181100Y-56067254D01*
X83161394Y-56081869D01*
X83140351Y-56094481D01*
X83118172Y-56104971D01*
X83095073Y-56113236D01*
X83071274Y-56119197D01*
X83047006Y-56122797D01*
X83022502Y-56124001D01*
X82372500Y-56124001D01*
X82347996Y-56122797D01*
X82323728Y-56119197D01*
X82299929Y-56113236D01*
X82276830Y-56104971D01*
X82254651Y-56094481D01*
X82233608Y-56081869D01*
X82213902Y-56067254D01*
X82195724Y-56050778D01*
X82179248Y-56032600D01*
X82164633Y-56012894D01*
X82152021Y-55991851D01*
X82141531Y-55969672D01*
X82133266Y-55946573D01*
X82127305Y-55922774D01*
X82123705Y-55898506D01*
X82122501Y-55874002D01*
X82122501Y-54974000D01*
X82123705Y-54949496D01*
X82127305Y-54925228D01*
X82133266Y-54901429D01*
X82141531Y-54878330D01*
X82152021Y-54856151D01*
X82164633Y-54835108D01*
X82179248Y-54815402D01*
X82195724Y-54797224D01*
X82213902Y-54780748D01*
X82233608Y-54766133D01*
X82254651Y-54753521D01*
X82276830Y-54743031D01*
X82299929Y-54734766D01*
X82323728Y-54728805D01*
X82347996Y-54725205D01*
X82372500Y-54724001D01*
X83022502Y-54724001D01*
X83047006Y-54725205D01*
G37*
G36*
X85097006Y-54725205D02*
G01*
X85121274Y-54728805D01*
X85145073Y-54734766D01*
X85168172Y-54743031D01*
X85190351Y-54753521D01*
X85211394Y-54766133D01*
X85231100Y-54780748D01*
X85249278Y-54797224D01*
X85265754Y-54815402D01*
X85280369Y-54835108D01*
X85292981Y-54856151D01*
X85303471Y-54878330D01*
X85311736Y-54901429D01*
X85317697Y-54925228D01*
X85321297Y-54949496D01*
X85322501Y-54974000D01*
X85322501Y-55874002D01*
X85321297Y-55898506D01*
X85317697Y-55922774D01*
X85311736Y-55946573D01*
X85303471Y-55969672D01*
X85292981Y-55991851D01*
X85280369Y-56012894D01*
X85265754Y-56032600D01*
X85249278Y-56050778D01*
X85231100Y-56067254D01*
X85211394Y-56081869D01*
X85190351Y-56094481D01*
X85168172Y-56104971D01*
X85145073Y-56113236D01*
X85121274Y-56119197D01*
X85097006Y-56122797D01*
X85072502Y-56124001D01*
X84422500Y-56124001D01*
X84397996Y-56122797D01*
X84373728Y-56119197D01*
X84349929Y-56113236D01*
X84326830Y-56104971D01*
X84304651Y-56094481D01*
X84283608Y-56081869D01*
X84263902Y-56067254D01*
X84245724Y-56050778D01*
X84229248Y-56032600D01*
X84214633Y-56012894D01*
X84202021Y-55991851D01*
X84191531Y-55969672D01*
X84183266Y-55946573D01*
X84177305Y-55922774D01*
X84173705Y-55898506D01*
X84172501Y-55874002D01*
X84172501Y-54974000D01*
X84173705Y-54949496D01*
X84177305Y-54925228D01*
X84183266Y-54901429D01*
X84191531Y-54878330D01*
X84202021Y-54856151D01*
X84214633Y-54835108D01*
X84229248Y-54815402D01*
X84245724Y-54797224D01*
X84263902Y-54780748D01*
X84283608Y-54766133D01*
X84304651Y-54753521D01*
X84326830Y-54743031D01*
X84349929Y-54734766D01*
X84373728Y-54728805D01*
X84397996Y-54725205D01*
X84422500Y-54724001D01*
X85072502Y-54724001D01*
X85097006Y-54725205D01*
G37*
G04 #@! TD*
G04 #@! TO.C,R3*
G36*
X62949106Y-54725205D02*
G01*
X62973374Y-54728805D01*
X62997173Y-54734766D01*
X63020272Y-54743031D01*
X63042451Y-54753521D01*
X63063494Y-54766133D01*
X63083200Y-54780748D01*
X63101378Y-54797224D01*
X63117854Y-54815402D01*
X63132469Y-54835108D01*
X63145081Y-54856151D01*
X63155571Y-54878330D01*
X63163836Y-54901429D01*
X63169797Y-54925228D01*
X63173397Y-54949496D01*
X63174601Y-54974000D01*
X63174601Y-55874002D01*
X63173397Y-55898506D01*
X63169797Y-55922774D01*
X63163836Y-55946573D01*
X63155571Y-55969672D01*
X63145081Y-55991851D01*
X63132469Y-56012894D01*
X63117854Y-56032600D01*
X63101378Y-56050778D01*
X63083200Y-56067254D01*
X63063494Y-56081869D01*
X63042451Y-56094481D01*
X63020272Y-56104971D01*
X62997173Y-56113236D01*
X62973374Y-56119197D01*
X62949106Y-56122797D01*
X62924602Y-56124001D01*
X62274600Y-56124001D01*
X62250096Y-56122797D01*
X62225828Y-56119197D01*
X62202029Y-56113236D01*
X62178930Y-56104971D01*
X62156751Y-56094481D01*
X62135708Y-56081869D01*
X62116002Y-56067254D01*
X62097824Y-56050778D01*
X62081348Y-56032600D01*
X62066733Y-56012894D01*
X62054121Y-55991851D01*
X62043631Y-55969672D01*
X62035366Y-55946573D01*
X62029405Y-55922774D01*
X62025805Y-55898506D01*
X62024601Y-55874002D01*
X62024601Y-54974000D01*
X62025805Y-54949496D01*
X62029405Y-54925228D01*
X62035366Y-54901429D01*
X62043631Y-54878330D01*
X62054121Y-54856151D01*
X62066733Y-54835108D01*
X62081348Y-54815402D01*
X62097824Y-54797224D01*
X62116002Y-54780748D01*
X62135708Y-54766133D01*
X62156751Y-54753521D01*
X62178930Y-54743031D01*
X62202029Y-54734766D01*
X62225828Y-54728805D01*
X62250096Y-54725205D01*
X62274600Y-54724001D01*
X62924602Y-54724001D01*
X62949106Y-54725205D01*
G37*
G36*
X60899106Y-54725205D02*
G01*
X60923374Y-54728805D01*
X60947173Y-54734766D01*
X60970272Y-54743031D01*
X60992451Y-54753521D01*
X61013494Y-54766133D01*
X61033200Y-54780748D01*
X61051378Y-54797224D01*
X61067854Y-54815402D01*
X61082469Y-54835108D01*
X61095081Y-54856151D01*
X61105571Y-54878330D01*
X61113836Y-54901429D01*
X61119797Y-54925228D01*
X61123397Y-54949496D01*
X61124601Y-54974000D01*
X61124601Y-55874002D01*
X61123397Y-55898506D01*
X61119797Y-55922774D01*
X61113836Y-55946573D01*
X61105571Y-55969672D01*
X61095081Y-55991851D01*
X61082469Y-56012894D01*
X61067854Y-56032600D01*
X61051378Y-56050778D01*
X61033200Y-56067254D01*
X61013494Y-56081869D01*
X60992451Y-56094481D01*
X60970272Y-56104971D01*
X60947173Y-56113236D01*
X60923374Y-56119197D01*
X60899106Y-56122797D01*
X60874602Y-56124001D01*
X60224600Y-56124001D01*
X60200096Y-56122797D01*
X60175828Y-56119197D01*
X60152029Y-56113236D01*
X60128930Y-56104971D01*
X60106751Y-56094481D01*
X60085708Y-56081869D01*
X60066002Y-56067254D01*
X60047824Y-56050778D01*
X60031348Y-56032600D01*
X60016733Y-56012894D01*
X60004121Y-55991851D01*
X59993631Y-55969672D01*
X59985366Y-55946573D01*
X59979405Y-55922774D01*
X59975805Y-55898506D01*
X59974601Y-55874002D01*
X59974601Y-54974000D01*
X59975805Y-54949496D01*
X59979405Y-54925228D01*
X59985366Y-54901429D01*
X59993631Y-54878330D01*
X60004121Y-54856151D01*
X60016733Y-54835108D01*
X60031348Y-54815402D01*
X60047824Y-54797224D01*
X60066002Y-54780748D01*
X60085708Y-54766133D01*
X60106751Y-54753521D01*
X60128930Y-54743031D01*
X60152029Y-54734766D01*
X60175828Y-54728805D01*
X60200096Y-54725205D01*
X60224600Y-54724001D01*
X60874602Y-54724001D01*
X60899106Y-54725205D01*
G37*
G04 #@! TD*
G04 #@! TO.C,R4*
G36*
X81190106Y-56475205D02*
G01*
X81214374Y-56478805D01*
X81238173Y-56484766D01*
X81261272Y-56493031D01*
X81283451Y-56503521D01*
X81304494Y-56516133D01*
X81324200Y-56530748D01*
X81342378Y-56547224D01*
X81358854Y-56565402D01*
X81373469Y-56585108D01*
X81386081Y-56606151D01*
X81396571Y-56628330D01*
X81404836Y-56651429D01*
X81410797Y-56675228D01*
X81414397Y-56699496D01*
X81415601Y-56724000D01*
X81415601Y-57624002D01*
X81414397Y-57648506D01*
X81410797Y-57672774D01*
X81404836Y-57696573D01*
X81396571Y-57719672D01*
X81386081Y-57741851D01*
X81373469Y-57762894D01*
X81358854Y-57782600D01*
X81342378Y-57800778D01*
X81324200Y-57817254D01*
X81304494Y-57831869D01*
X81283451Y-57844481D01*
X81261272Y-57854971D01*
X81238173Y-57863236D01*
X81214374Y-57869197D01*
X81190106Y-57872797D01*
X81165602Y-57874001D01*
X80515600Y-57874001D01*
X80491096Y-57872797D01*
X80466828Y-57869197D01*
X80443029Y-57863236D01*
X80419930Y-57854971D01*
X80397751Y-57844481D01*
X80376708Y-57831869D01*
X80357002Y-57817254D01*
X80338824Y-57800778D01*
X80322348Y-57782600D01*
X80307733Y-57762894D01*
X80295121Y-57741851D01*
X80284631Y-57719672D01*
X80276366Y-57696573D01*
X80270405Y-57672774D01*
X80266805Y-57648506D01*
X80265601Y-57624002D01*
X80265601Y-56724000D01*
X80266805Y-56699496D01*
X80270405Y-56675228D01*
X80276366Y-56651429D01*
X80284631Y-56628330D01*
X80295121Y-56606151D01*
X80307733Y-56585108D01*
X80322348Y-56565402D01*
X80338824Y-56547224D01*
X80357002Y-56530748D01*
X80376708Y-56516133D01*
X80397751Y-56503521D01*
X80419930Y-56493031D01*
X80443029Y-56484766D01*
X80466828Y-56478805D01*
X80491096Y-56475205D01*
X80515600Y-56474001D01*
X81165602Y-56474001D01*
X81190106Y-56475205D01*
G37*
G36*
X83240106Y-56475205D02*
G01*
X83264374Y-56478805D01*
X83288173Y-56484766D01*
X83311272Y-56493031D01*
X83333451Y-56503521D01*
X83354494Y-56516133D01*
X83374200Y-56530748D01*
X83392378Y-56547224D01*
X83408854Y-56565402D01*
X83423469Y-56585108D01*
X83436081Y-56606151D01*
X83446571Y-56628330D01*
X83454836Y-56651429D01*
X83460797Y-56675228D01*
X83464397Y-56699496D01*
X83465601Y-56724000D01*
X83465601Y-57624002D01*
X83464397Y-57648506D01*
X83460797Y-57672774D01*
X83454836Y-57696573D01*
X83446571Y-57719672D01*
X83436081Y-57741851D01*
X83423469Y-57762894D01*
X83408854Y-57782600D01*
X83392378Y-57800778D01*
X83374200Y-57817254D01*
X83354494Y-57831869D01*
X83333451Y-57844481D01*
X83311272Y-57854971D01*
X83288173Y-57863236D01*
X83264374Y-57869197D01*
X83240106Y-57872797D01*
X83215602Y-57874001D01*
X82565600Y-57874001D01*
X82541096Y-57872797D01*
X82516828Y-57869197D01*
X82493029Y-57863236D01*
X82469930Y-57854971D01*
X82447751Y-57844481D01*
X82426708Y-57831869D01*
X82407002Y-57817254D01*
X82388824Y-57800778D01*
X82372348Y-57782600D01*
X82357733Y-57762894D01*
X82345121Y-57741851D01*
X82334631Y-57719672D01*
X82326366Y-57696573D01*
X82320405Y-57672774D01*
X82316805Y-57648506D01*
X82315601Y-57624002D01*
X82315601Y-56724000D01*
X82316805Y-56699496D01*
X82320405Y-56675228D01*
X82326366Y-56651429D01*
X82334631Y-56628330D01*
X82345121Y-56606151D01*
X82357733Y-56585108D01*
X82372348Y-56565402D01*
X82388824Y-56547224D01*
X82407002Y-56530748D01*
X82426708Y-56516133D01*
X82447751Y-56503521D01*
X82469930Y-56493031D01*
X82493029Y-56484766D01*
X82516828Y-56478805D01*
X82541096Y-56475205D01*
X82565600Y-56474001D01*
X83215602Y-56474001D01*
X83240106Y-56475205D01*
G37*
G04 #@! TD*
G04 #@! TO.C,R5*
G36*
X68649106Y-54725205D02*
G01*
X68673374Y-54728805D01*
X68697173Y-54734766D01*
X68720272Y-54743031D01*
X68742451Y-54753521D01*
X68763494Y-54766133D01*
X68783200Y-54780748D01*
X68801378Y-54797224D01*
X68817854Y-54815402D01*
X68832469Y-54835108D01*
X68845081Y-54856151D01*
X68855571Y-54878330D01*
X68863836Y-54901429D01*
X68869797Y-54925228D01*
X68873397Y-54949496D01*
X68874601Y-54974000D01*
X68874601Y-55874002D01*
X68873397Y-55898506D01*
X68869797Y-55922774D01*
X68863836Y-55946573D01*
X68855571Y-55969672D01*
X68845081Y-55991851D01*
X68832469Y-56012894D01*
X68817854Y-56032600D01*
X68801378Y-56050778D01*
X68783200Y-56067254D01*
X68763494Y-56081869D01*
X68742451Y-56094481D01*
X68720272Y-56104971D01*
X68697173Y-56113236D01*
X68673374Y-56119197D01*
X68649106Y-56122797D01*
X68624602Y-56124001D01*
X67974600Y-56124001D01*
X67950096Y-56122797D01*
X67925828Y-56119197D01*
X67902029Y-56113236D01*
X67878930Y-56104971D01*
X67856751Y-56094481D01*
X67835708Y-56081869D01*
X67816002Y-56067254D01*
X67797824Y-56050778D01*
X67781348Y-56032600D01*
X67766733Y-56012894D01*
X67754121Y-55991851D01*
X67743631Y-55969672D01*
X67735366Y-55946573D01*
X67729405Y-55922774D01*
X67725805Y-55898506D01*
X67724601Y-55874002D01*
X67724601Y-54974000D01*
X67725805Y-54949496D01*
X67729405Y-54925228D01*
X67735366Y-54901429D01*
X67743631Y-54878330D01*
X67754121Y-54856151D01*
X67766733Y-54835108D01*
X67781348Y-54815402D01*
X67797824Y-54797224D01*
X67816002Y-54780748D01*
X67835708Y-54766133D01*
X67856751Y-54753521D01*
X67878930Y-54743031D01*
X67902029Y-54734766D01*
X67925828Y-54728805D01*
X67950096Y-54725205D01*
X67974600Y-54724001D01*
X68624602Y-54724001D01*
X68649106Y-54725205D01*
G37*
G36*
X70699106Y-54725205D02*
G01*
X70723374Y-54728805D01*
X70747173Y-54734766D01*
X70770272Y-54743031D01*
X70792451Y-54753521D01*
X70813494Y-54766133D01*
X70833200Y-54780748D01*
X70851378Y-54797224D01*
X70867854Y-54815402D01*
X70882469Y-54835108D01*
X70895081Y-54856151D01*
X70905571Y-54878330D01*
X70913836Y-54901429D01*
X70919797Y-54925228D01*
X70923397Y-54949496D01*
X70924601Y-54974000D01*
X70924601Y-55874002D01*
X70923397Y-55898506D01*
X70919797Y-55922774D01*
X70913836Y-55946573D01*
X70905571Y-55969672D01*
X70895081Y-55991851D01*
X70882469Y-56012894D01*
X70867854Y-56032600D01*
X70851378Y-56050778D01*
X70833200Y-56067254D01*
X70813494Y-56081869D01*
X70792451Y-56094481D01*
X70770272Y-56104971D01*
X70747173Y-56113236D01*
X70723374Y-56119197D01*
X70699106Y-56122797D01*
X70674602Y-56124001D01*
X70024600Y-56124001D01*
X70000096Y-56122797D01*
X69975828Y-56119197D01*
X69952029Y-56113236D01*
X69928930Y-56104971D01*
X69906751Y-56094481D01*
X69885708Y-56081869D01*
X69866002Y-56067254D01*
X69847824Y-56050778D01*
X69831348Y-56032600D01*
X69816733Y-56012894D01*
X69804121Y-55991851D01*
X69793631Y-55969672D01*
X69785366Y-55946573D01*
X69779405Y-55922774D01*
X69775805Y-55898506D01*
X69774601Y-55874002D01*
X69774601Y-54974000D01*
X69775805Y-54949496D01*
X69779405Y-54925228D01*
X69785366Y-54901429D01*
X69793631Y-54878330D01*
X69804121Y-54856151D01*
X69816733Y-54835108D01*
X69831348Y-54815402D01*
X69847824Y-54797224D01*
X69866002Y-54780748D01*
X69885708Y-54766133D01*
X69906751Y-54753521D01*
X69928930Y-54743031D01*
X69952029Y-54734766D01*
X69975828Y-54728805D01*
X70000096Y-54725205D01*
X70024600Y-54724001D01*
X70674602Y-54724001D01*
X70699106Y-54725205D01*
G37*
G04 #@! TD*
G04 #@! TO.C,R6*
G36*
X77507006Y-54725205D02*
G01*
X77531274Y-54728805D01*
X77555073Y-54734766D01*
X77578172Y-54743031D01*
X77600351Y-54753521D01*
X77621394Y-54766133D01*
X77641100Y-54780748D01*
X77659278Y-54797224D01*
X77675754Y-54815402D01*
X77690369Y-54835108D01*
X77702981Y-54856151D01*
X77713471Y-54878330D01*
X77721736Y-54901429D01*
X77727697Y-54925228D01*
X77731297Y-54949496D01*
X77732501Y-54974000D01*
X77732501Y-55874002D01*
X77731297Y-55898506D01*
X77727697Y-55922774D01*
X77721736Y-55946573D01*
X77713471Y-55969672D01*
X77702981Y-55991851D01*
X77690369Y-56012894D01*
X77675754Y-56032600D01*
X77659278Y-56050778D01*
X77641100Y-56067254D01*
X77621394Y-56081869D01*
X77600351Y-56094481D01*
X77578172Y-56104971D01*
X77555073Y-56113236D01*
X77531274Y-56119197D01*
X77507006Y-56122797D01*
X77482502Y-56124001D01*
X76832500Y-56124001D01*
X76807996Y-56122797D01*
X76783728Y-56119197D01*
X76759929Y-56113236D01*
X76736830Y-56104971D01*
X76714651Y-56094481D01*
X76693608Y-56081869D01*
X76673902Y-56067254D01*
X76655724Y-56050778D01*
X76639248Y-56032600D01*
X76624633Y-56012894D01*
X76612021Y-55991851D01*
X76601531Y-55969672D01*
X76593266Y-55946573D01*
X76587305Y-55922774D01*
X76583705Y-55898506D01*
X76582501Y-55874002D01*
X76582501Y-54974000D01*
X76583705Y-54949496D01*
X76587305Y-54925228D01*
X76593266Y-54901429D01*
X76601531Y-54878330D01*
X76612021Y-54856151D01*
X76624633Y-54835108D01*
X76639248Y-54815402D01*
X76655724Y-54797224D01*
X76673902Y-54780748D01*
X76693608Y-54766133D01*
X76714651Y-54753521D01*
X76736830Y-54743031D01*
X76759929Y-54734766D01*
X76783728Y-54728805D01*
X76807996Y-54725205D01*
X76832500Y-54724001D01*
X77482502Y-54724001D01*
X77507006Y-54725205D01*
G37*
G36*
X79557006Y-54725205D02*
G01*
X79581274Y-54728805D01*
X79605073Y-54734766D01*
X79628172Y-54743031D01*
X79650351Y-54753521D01*
X79671394Y-54766133D01*
X79691100Y-54780748D01*
X79709278Y-54797224D01*
X79725754Y-54815402D01*
X79740369Y-54835108D01*
X79752981Y-54856151D01*
X79763471Y-54878330D01*
X79771736Y-54901429D01*
X79777697Y-54925228D01*
X79781297Y-54949496D01*
X79782501Y-54974000D01*
X79782501Y-55874002D01*
X79781297Y-55898506D01*
X79777697Y-55922774D01*
X79771736Y-55946573D01*
X79763471Y-55969672D01*
X79752981Y-55991851D01*
X79740369Y-56012894D01*
X79725754Y-56032600D01*
X79709278Y-56050778D01*
X79691100Y-56067254D01*
X79671394Y-56081869D01*
X79650351Y-56094481D01*
X79628172Y-56104971D01*
X79605073Y-56113236D01*
X79581274Y-56119197D01*
X79557006Y-56122797D01*
X79532502Y-56124001D01*
X78882500Y-56124001D01*
X78857996Y-56122797D01*
X78833728Y-56119197D01*
X78809929Y-56113236D01*
X78786830Y-56104971D01*
X78764651Y-56094481D01*
X78743608Y-56081869D01*
X78723902Y-56067254D01*
X78705724Y-56050778D01*
X78689248Y-56032600D01*
X78674633Y-56012894D01*
X78662021Y-55991851D01*
X78651531Y-55969672D01*
X78643266Y-55946573D01*
X78637305Y-55922774D01*
X78633705Y-55898506D01*
X78632501Y-55874002D01*
X78632501Y-54974000D01*
X78633705Y-54949496D01*
X78637305Y-54925228D01*
X78643266Y-54901429D01*
X78651531Y-54878330D01*
X78662021Y-54856151D01*
X78674633Y-54835108D01*
X78689248Y-54815402D01*
X78705724Y-54797224D01*
X78723902Y-54780748D01*
X78743608Y-54766133D01*
X78764651Y-54753521D01*
X78786830Y-54743031D01*
X78809929Y-54734766D01*
X78833728Y-54728805D01*
X78857996Y-54725205D01*
X78882500Y-54724001D01*
X79532502Y-54724001D01*
X79557006Y-54725205D01*
G37*
G04 #@! TD*
G04 #@! TO.C,R7*
G36*
X72687006Y-54725205D02*
G01*
X72711274Y-54728805D01*
X72735073Y-54734766D01*
X72758172Y-54743031D01*
X72780351Y-54753521D01*
X72801394Y-54766133D01*
X72821100Y-54780748D01*
X72839278Y-54797224D01*
X72855754Y-54815402D01*
X72870369Y-54835108D01*
X72882981Y-54856151D01*
X72893471Y-54878330D01*
X72901736Y-54901429D01*
X72907697Y-54925228D01*
X72911297Y-54949496D01*
X72912501Y-54974000D01*
X72912501Y-55874002D01*
X72911297Y-55898506D01*
X72907697Y-55922774D01*
X72901736Y-55946573D01*
X72893471Y-55969672D01*
X72882981Y-55991851D01*
X72870369Y-56012894D01*
X72855754Y-56032600D01*
X72839278Y-56050778D01*
X72821100Y-56067254D01*
X72801394Y-56081869D01*
X72780351Y-56094481D01*
X72758172Y-56104971D01*
X72735073Y-56113236D01*
X72711274Y-56119197D01*
X72687006Y-56122797D01*
X72662502Y-56124001D01*
X72012500Y-56124001D01*
X71987996Y-56122797D01*
X71963728Y-56119197D01*
X71939929Y-56113236D01*
X71916830Y-56104971D01*
X71894651Y-56094481D01*
X71873608Y-56081869D01*
X71853902Y-56067254D01*
X71835724Y-56050778D01*
X71819248Y-56032600D01*
X71804633Y-56012894D01*
X71792021Y-55991851D01*
X71781531Y-55969672D01*
X71773266Y-55946573D01*
X71767305Y-55922774D01*
X71763705Y-55898506D01*
X71762501Y-55874002D01*
X71762501Y-54974000D01*
X71763705Y-54949496D01*
X71767305Y-54925228D01*
X71773266Y-54901429D01*
X71781531Y-54878330D01*
X71792021Y-54856151D01*
X71804633Y-54835108D01*
X71819248Y-54815402D01*
X71835724Y-54797224D01*
X71853902Y-54780748D01*
X71873608Y-54766133D01*
X71894651Y-54753521D01*
X71916830Y-54743031D01*
X71939929Y-54734766D01*
X71963728Y-54728805D01*
X71987996Y-54725205D01*
X72012500Y-54724001D01*
X72662502Y-54724001D01*
X72687006Y-54725205D01*
G37*
G36*
X74737006Y-54725205D02*
G01*
X74761274Y-54728805D01*
X74785073Y-54734766D01*
X74808172Y-54743031D01*
X74830351Y-54753521D01*
X74851394Y-54766133D01*
X74871100Y-54780748D01*
X74889278Y-54797224D01*
X74905754Y-54815402D01*
X74920369Y-54835108D01*
X74932981Y-54856151D01*
X74943471Y-54878330D01*
X74951736Y-54901429D01*
X74957697Y-54925228D01*
X74961297Y-54949496D01*
X74962501Y-54974000D01*
X74962501Y-55874002D01*
X74961297Y-55898506D01*
X74957697Y-55922774D01*
X74951736Y-55946573D01*
X74943471Y-55969672D01*
X74932981Y-55991851D01*
X74920369Y-56012894D01*
X74905754Y-56032600D01*
X74889278Y-56050778D01*
X74871100Y-56067254D01*
X74851394Y-56081869D01*
X74830351Y-56094481D01*
X74808172Y-56104971D01*
X74785073Y-56113236D01*
X74761274Y-56119197D01*
X74737006Y-56122797D01*
X74712502Y-56124001D01*
X74062500Y-56124001D01*
X74037996Y-56122797D01*
X74013728Y-56119197D01*
X73989929Y-56113236D01*
X73966830Y-56104971D01*
X73944651Y-56094481D01*
X73923608Y-56081869D01*
X73903902Y-56067254D01*
X73885724Y-56050778D01*
X73869248Y-56032600D01*
X73854633Y-56012894D01*
X73842021Y-55991851D01*
X73831531Y-55969672D01*
X73823266Y-55946573D01*
X73817305Y-55922774D01*
X73813705Y-55898506D01*
X73812501Y-55874002D01*
X73812501Y-54974000D01*
X73813705Y-54949496D01*
X73817305Y-54925228D01*
X73823266Y-54901429D01*
X73831531Y-54878330D01*
X73842021Y-54856151D01*
X73854633Y-54835108D01*
X73869248Y-54815402D01*
X73885724Y-54797224D01*
X73903902Y-54780748D01*
X73923608Y-54766133D01*
X73944651Y-54753521D01*
X73966830Y-54743031D01*
X73989929Y-54734766D01*
X74013728Y-54728805D01*
X74037996Y-54725205D01*
X74062500Y-54724001D01*
X74712502Y-54724001D01*
X74737006Y-54725205D01*
G37*
G04 #@! TD*
D12*
G04 #@! TO.C,J2*
X84082501Y-52032001D03*
X81312501Y-52032001D03*
X78542501Y-52032001D03*
X75772501Y-52032001D03*
X73002501Y-52032001D03*
X70232501Y-52032001D03*
X67462501Y-52032001D03*
X64692501Y-52032001D03*
X61922501Y-52032001D03*
X59152501Y-52032001D03*
X56382501Y-52032001D03*
X53612501Y-52032001D03*
G04 #@! TD*
M02*
