G04 #@! TF.GenerationSoftware,KiCad,Pcbnew,5.1.5+dfsg1-2build2*
G04 #@! TF.CreationDate,2021-02-18T19:40:11-08:00*
G04 #@! TF.ProjectId,panel,70616e65-6c2e-46b6-9963-61645f706362,rev?*
G04 #@! TF.SameCoordinates,Original*
G04 #@! TF.FileFunction,Soldermask,Bot*
G04 #@! TF.FilePolarity,Negative*
%FSLAX46Y46*%
G04 Gerber Fmt 4.6, Leading zero omitted, Abs format (unit mm)*
G04 Created by KiCad (PCBNEW 5.1.5+dfsg1-2build2) date 2021-02-18 19:40:11*
%MOMM*%
%LPD*%
G04 APERTURE LIST*
G04 #@! TA.AperFunction,Profile*
%ADD10C,0.100000*%
G04 #@! TD*
%ADD11C,0.350000*%
%ADD12R,1.450000X1.450000*%
%ADD13O,1.450000X1.450000*%
%ADD14R,1.946667X3.580000*%
G04 APERTURE END LIST*
D10*
X46999000Y-75634600D02*
X46999000Y-61533200D01*
X47003800Y-75731900D02*
X46999000Y-75634600D01*
X47018000Y-75828000D02*
X47003800Y-75731900D01*
X47041600Y-75922200D02*
X47018000Y-75828000D01*
X47074400Y-76013700D02*
X47041600Y-75922200D01*
X47115900Y-76101500D02*
X47074400Y-76013700D01*
X47165900Y-76184900D02*
X47115900Y-76101500D01*
X47223700Y-76262900D02*
X47165900Y-76184900D01*
X47289000Y-76334900D02*
X47223700Y-76262900D01*
X47361000Y-76400100D02*
X47289000Y-76334900D01*
X47439000Y-76458000D02*
X47361000Y-76400100D01*
X47522300Y-76508000D02*
X47439000Y-76458000D01*
X47610100Y-76549500D02*
X47522300Y-76508000D01*
X47701600Y-76582200D02*
X47610100Y-76549500D01*
X47795900Y-76605800D02*
X47701600Y-76582200D01*
X47892000Y-76620100D02*
X47795900Y-76605800D01*
X47989200Y-76624900D02*
X47892000Y-76620100D01*
X49009400Y-76624900D02*
X47989200Y-76624900D01*
X49106700Y-76620100D02*
X49009400Y-76624900D01*
X49202800Y-76605800D02*
X49106700Y-76620100D01*
X49297000Y-76582200D02*
X49202800Y-76605800D01*
X49388500Y-76549500D02*
X49297000Y-76582200D01*
X49476300Y-76508000D02*
X49388500Y-76549500D01*
X49559600Y-76458000D02*
X49476300Y-76508000D01*
X49637600Y-76400200D02*
X49559600Y-76458000D01*
X49709600Y-76334900D02*
X49637600Y-76400200D01*
X49774900Y-76263000D02*
X49709600Y-76334900D01*
X49832700Y-76185000D02*
X49774900Y-76263000D01*
X49882700Y-76101600D02*
X49832700Y-76185000D01*
X49924200Y-76013800D02*
X49882700Y-76101600D01*
X49957000Y-75922400D02*
X49924200Y-76013800D01*
X49980600Y-75828100D02*
X49957000Y-75922400D01*
X49994900Y-75732000D02*
X49980600Y-75828100D01*
X49999700Y-75634800D02*
X49994900Y-75732000D01*
X50000500Y-70096500D02*
X49999700Y-75634800D01*
X50002000Y-70088500D02*
X50000500Y-70096500D01*
X50007000Y-70084000D02*
X50002000Y-70088500D01*
X50014100Y-70082900D02*
X50007000Y-70084000D01*
X65860500Y-70082900D02*
X50014100Y-70082900D01*
X65957800Y-70078100D02*
X65860500Y-70082900D01*
X66053900Y-70063900D02*
X65957800Y-70078100D01*
X66148100Y-70040300D02*
X66053900Y-70063900D01*
X66239600Y-70007500D02*
X66148100Y-70040300D01*
X66327400Y-69966000D02*
X66239600Y-70007500D01*
X66410800Y-69916000D02*
X66327400Y-69966000D01*
X66488800Y-69858200D02*
X66410800Y-69916000D01*
X66560800Y-69792900D02*
X66488800Y-69858200D01*
X66626000Y-69720900D02*
X66560800Y-69792900D01*
X66683900Y-69642900D02*
X66626000Y-69720900D01*
X66733900Y-69559600D02*
X66683900Y-69642900D01*
X66775400Y-69471800D02*
X66733900Y-69559600D01*
X66808100Y-69380300D02*
X66775400Y-69471800D01*
X66831700Y-69286000D02*
X66808100Y-69380300D01*
X66846000Y-69189900D02*
X66831700Y-69286000D01*
X66850800Y-69092700D02*
X66846000Y-69189900D01*
X66850800Y-68072900D02*
X66850800Y-69092700D01*
X66846000Y-67975700D02*
X66850800Y-68072900D01*
X66831700Y-67879600D02*
X66846000Y-67975700D01*
X66808100Y-67785300D02*
X66831700Y-67879600D01*
X66775400Y-67693900D02*
X66808100Y-67785300D01*
X66733900Y-67606100D02*
X66775400Y-67693900D01*
X66683900Y-67522700D02*
X66733900Y-67606100D01*
X66626100Y-67444700D02*
X66683900Y-67522700D01*
X66560800Y-67372700D02*
X66626100Y-67444700D01*
X66488900Y-67307500D02*
X66560800Y-67372700D01*
X66410800Y-67249600D02*
X66488900Y-67307500D01*
X66327500Y-67199600D02*
X66410800Y-67249600D01*
X66239700Y-67158100D02*
X66327500Y-67199600D01*
X66148300Y-67125400D02*
X66239700Y-67158100D01*
X66054000Y-67101700D02*
X66148300Y-67125400D01*
X65957900Y-67087500D02*
X66054000Y-67101700D01*
X65860700Y-67082700D02*
X65957900Y-67087500D01*
X57246500Y-67081300D02*
X65860700Y-67082700D01*
X57036500Y-67069600D02*
X57246500Y-67081300D01*
X57008600Y-67066400D02*
X57036500Y-67069600D01*
X56801700Y-67030900D02*
X57008600Y-67066400D01*
X56599400Y-66973000D02*
X56801700Y-67030900D01*
X56572800Y-66963700D02*
X56599400Y-66973000D01*
X56379000Y-66883000D02*
X56572800Y-66963700D01*
X56182700Y-66774600D02*
X56379000Y-66883000D01*
X55999800Y-66644900D02*
X56182700Y-66774600D01*
X55832100Y-66495400D02*
X55999800Y-66644900D01*
X50589700Y-61255700D02*
X55832100Y-66495400D01*
X50453800Y-61105900D02*
X50589700Y-61255700D01*
X50333400Y-60943900D02*
X50453800Y-61105900D01*
X50274900Y-60872100D02*
X50333400Y-60943900D01*
X50210100Y-60806300D02*
X50274900Y-60872100D01*
X50139500Y-60746800D02*
X50210100Y-60806300D01*
X50063600Y-60694200D02*
X50139500Y-60746800D01*
X49983100Y-60648800D02*
X50063600Y-60694200D01*
X49898800Y-60611100D02*
X49983100Y-60648800D01*
X49811300Y-60581500D02*
X49898800Y-60611100D01*
X49721500Y-60560200D02*
X49811300Y-60581500D01*
X49630000Y-60547300D02*
X49721500Y-60560200D01*
X49537500Y-60543000D02*
X49630000Y-60547300D01*
X47989200Y-60543000D02*
X49537500Y-60543000D01*
X47892000Y-60547700D02*
X47989200Y-60543000D01*
X47795900Y-60562000D02*
X47892000Y-60547700D01*
X47701600Y-60585600D02*
X47795900Y-60562000D01*
X47610100Y-60618300D02*
X47701600Y-60585600D01*
X47522300Y-60659900D02*
X47610100Y-60618300D01*
X47439000Y-60709800D02*
X47522300Y-60659900D01*
X47361000Y-60767700D02*
X47439000Y-60709800D01*
X47289000Y-60832900D02*
X47361000Y-60767700D01*
X47223700Y-60904900D02*
X47289000Y-60832900D01*
X47165900Y-60982900D02*
X47223700Y-60904900D01*
X47115900Y-61066300D02*
X47165900Y-60982900D01*
X47074400Y-61154100D02*
X47115900Y-61066300D01*
X47041600Y-61245600D02*
X47074400Y-61154100D01*
X47018000Y-61339800D02*
X47041600Y-61245600D01*
X47003800Y-61435900D02*
X47018000Y-61339800D01*
X46999000Y-61533200D02*
X47003800Y-61435900D01*
X87255200Y-61092200D02*
X87359300Y-60950100D01*
X87107800Y-61254900D02*
X87255200Y-61092200D01*
X81868200Y-66494500D02*
X87107800Y-61254900D01*
X81727400Y-66622400D02*
X81868200Y-66494500D01*
X81708400Y-66638100D02*
X81727400Y-66622400D01*
X81560100Y-66747600D02*
X81708400Y-66638100D01*
X81391700Y-66848500D02*
X81560100Y-66747600D01*
X81214100Y-66932500D02*
X81391700Y-66848500D01*
X81041200Y-66994600D02*
X81214100Y-66932500D01*
X81017600Y-67001800D02*
X81041200Y-66994600D01*
X80839200Y-67046200D02*
X81017600Y-67001800D01*
X80657000Y-67073500D02*
X80839200Y-67046200D01*
X80632500Y-67075900D02*
X80657000Y-67073500D01*
X80448700Y-67084800D02*
X80632500Y-67075900D01*
X71843200Y-67083600D02*
X80448700Y-67084800D01*
X71745900Y-67088400D02*
X71843200Y-67083600D01*
X71649800Y-67102600D02*
X71745900Y-67088400D01*
X71555500Y-67126200D02*
X71649800Y-67102600D01*
X71464000Y-67158900D02*
X71555500Y-67126200D01*
X71376200Y-67200500D02*
X71464000Y-67158900D01*
X71292800Y-67250400D02*
X71376200Y-67200500D01*
X71214800Y-67308300D02*
X71292800Y-67250400D01*
X71142800Y-67373500D02*
X71214800Y-67308300D01*
X71077500Y-67445500D02*
X71142800Y-67373500D01*
X71019600Y-67523500D02*
X71077500Y-67445500D01*
X70969700Y-67606900D02*
X71019600Y-67523500D01*
X70928100Y-67694700D02*
X70969700Y-67606900D01*
X70895400Y-67786200D02*
X70928100Y-67694700D01*
X70871800Y-67880400D02*
X70895400Y-67786200D01*
X70857500Y-67976600D02*
X70871800Y-67880400D01*
X70852800Y-68073800D02*
X70857500Y-67976600D01*
X70852800Y-69092700D02*
X70852800Y-68073800D01*
X70857500Y-69189900D02*
X70852800Y-69092700D01*
X70871800Y-69286000D02*
X70857500Y-69189900D01*
X70895400Y-69380300D02*
X70871800Y-69286000D01*
X70928100Y-69471800D02*
X70895400Y-69380300D01*
X70969700Y-69559600D02*
X70928100Y-69471800D01*
X71019600Y-69642900D02*
X70969700Y-69559600D01*
X71077500Y-69720900D02*
X71019600Y-69642900D01*
X71142700Y-69792900D02*
X71077500Y-69720900D01*
X71214700Y-69858200D02*
X71142700Y-69792900D01*
X71292800Y-69916000D02*
X71214700Y-69858200D01*
X71376100Y-69966000D02*
X71292800Y-69916000D01*
X71463900Y-70007500D02*
X71376100Y-69966000D01*
X71555400Y-70040300D02*
X71463900Y-70007500D01*
X71649600Y-70063900D02*
X71555400Y-70040300D01*
X71745700Y-70078100D02*
X71649600Y-70063900D01*
X71843000Y-70082900D02*
X71745700Y-70078100D01*
X87686000Y-70082900D02*
X71843000Y-70082900D01*
X87693100Y-70084000D02*
X87686000Y-70082900D01*
X87698100Y-70088500D02*
X87693100Y-70084000D01*
X87699600Y-70096500D02*
X87698100Y-70088500D01*
X87702400Y-75635100D02*
X87699600Y-70096500D01*
X87707200Y-75732400D02*
X87702400Y-75635100D01*
X87721500Y-75828400D02*
X87707200Y-75732400D01*
X87745100Y-75922600D02*
X87721500Y-75828400D01*
X87777900Y-76014100D02*
X87745100Y-75922600D01*
X87819400Y-76101800D02*
X87777900Y-76014100D01*
X87869400Y-76185100D02*
X87819400Y-76101800D01*
X87927300Y-76263100D02*
X87869400Y-76185100D01*
X87992500Y-76335100D02*
X87927300Y-76263100D01*
X88064500Y-76400300D02*
X87992500Y-76335100D01*
X88142500Y-76458100D02*
X88064500Y-76400300D01*
X88225800Y-76508000D02*
X88142500Y-76458100D01*
X88313600Y-76549500D02*
X88225800Y-76508000D01*
X88405100Y-76582300D02*
X88313600Y-76549500D01*
X88499300Y-76605800D02*
X88405100Y-76582300D01*
X88595300Y-76620100D02*
X88499300Y-76605800D01*
X88692600Y-76624900D02*
X88595300Y-76620100D01*
X89712900Y-76624900D02*
X88692600Y-76624900D01*
X89810200Y-76620100D02*
X89712900Y-76624900D01*
X89906300Y-76605800D02*
X89810200Y-76620100D01*
X90000500Y-76582200D02*
X89906300Y-76605800D01*
X90092000Y-76549500D02*
X90000500Y-76582200D01*
X90179800Y-76508000D02*
X90092000Y-76549500D01*
X90263100Y-76458000D02*
X90179800Y-76508000D01*
X90341100Y-76400200D02*
X90263100Y-76458000D01*
X90413100Y-76334900D02*
X90341100Y-76400200D01*
X90478400Y-76263000D02*
X90413100Y-76334900D01*
X90536200Y-76185000D02*
X90478400Y-76263000D01*
X90586200Y-76101600D02*
X90536200Y-76185000D01*
X90627700Y-76013800D02*
X90586200Y-76101600D01*
X90660500Y-75922400D02*
X90627700Y-76013800D01*
X90684100Y-75828100D02*
X90660500Y-75922400D01*
X90698400Y-75732000D02*
X90684100Y-75828100D01*
X90703200Y-75634800D02*
X90698400Y-75732000D01*
X90704000Y-70096500D02*
X90703200Y-75634800D01*
X90705500Y-70088500D02*
X90704000Y-70096500D01*
X90710500Y-70084000D02*
X90705500Y-70088500D01*
X90717600Y-70082900D02*
X90710500Y-70084000D01*
X106564000Y-70082900D02*
X90717600Y-70082900D01*
X106661300Y-70078100D02*
X106564000Y-70082900D01*
X106757400Y-70063900D02*
X106661300Y-70078100D01*
X106851700Y-70040300D02*
X106757400Y-70063900D01*
X106943100Y-70007500D02*
X106851700Y-70040300D01*
X107031000Y-69966000D02*
X106943100Y-70007500D01*
X107114300Y-69916000D02*
X107031000Y-69966000D01*
X107192300Y-69858200D02*
X107114300Y-69916000D01*
X107264300Y-69792900D02*
X107192300Y-69858200D01*
X107329600Y-69720900D02*
X107264300Y-69792900D01*
X107387400Y-69642900D02*
X107329600Y-69720900D01*
X107437400Y-69559600D02*
X107387400Y-69642900D01*
X107478900Y-69471800D02*
X107437400Y-69559600D01*
X107511600Y-69380300D02*
X107478900Y-69471800D01*
X107535200Y-69286000D02*
X107511600Y-69380300D01*
X107549500Y-69189900D02*
X107535200Y-69286000D01*
X107554300Y-69092700D02*
X107549500Y-69189900D01*
X107554300Y-68072900D02*
X107554300Y-69092700D01*
X107549500Y-67975700D02*
X107554300Y-68072900D01*
X107535300Y-67879600D02*
X107549500Y-67975700D01*
X107511600Y-67785300D02*
X107535300Y-67879600D01*
X107478900Y-67693900D02*
X107511600Y-67785300D01*
X107437400Y-67606100D02*
X107478900Y-67693900D01*
X107387500Y-67522700D02*
X107437400Y-67606100D01*
X107329600Y-67444700D02*
X107387500Y-67522700D01*
X107264400Y-67372700D02*
X107329600Y-67444700D01*
X107192400Y-67307500D02*
X107264400Y-67372700D01*
X107114400Y-67249600D02*
X107192400Y-67307500D01*
X107031000Y-67199600D02*
X107114400Y-67249600D01*
X106943200Y-67158100D02*
X107031000Y-67199600D01*
X106851800Y-67125400D02*
X106943200Y-67158100D01*
X106757500Y-67101700D02*
X106851800Y-67125400D01*
X106661500Y-67087500D02*
X106757500Y-67101700D01*
X106564200Y-67082700D02*
X106661500Y-67087500D01*
X97950000Y-67081300D02*
X106564200Y-67082700D01*
X97740100Y-67069600D02*
X97950000Y-67081300D01*
X97712100Y-67066400D02*
X97740100Y-67069600D01*
X97504700Y-67030700D02*
X97712100Y-67066400D01*
X97302600Y-66972900D02*
X97504700Y-67030700D01*
X97276300Y-66963700D02*
X97302600Y-66972900D01*
X97082500Y-66883000D02*
X97276300Y-66963700D01*
X96886200Y-66774600D02*
X97082500Y-66883000D01*
X96703300Y-66644900D02*
X96886200Y-66774600D01*
X96535600Y-66495400D02*
X96703300Y-66644900D01*
X91293200Y-61255700D02*
X96535600Y-66495400D01*
X91157400Y-61105900D02*
X91293200Y-61255700D01*
X91036900Y-60943900D02*
X91157400Y-61105900D01*
X90978400Y-60872100D02*
X91036900Y-60943900D01*
X90913600Y-60806300D02*
X90978400Y-60872100D01*
X90843000Y-60746800D02*
X90913600Y-60806300D01*
X90767100Y-60694200D02*
X90843000Y-60746800D01*
X90686600Y-60648800D02*
X90767100Y-60694200D01*
X90602300Y-60611100D02*
X90686600Y-60648800D01*
X90514800Y-60581500D02*
X90602300Y-60611100D01*
X90425000Y-60560200D02*
X90514800Y-60581500D01*
X90333500Y-60547300D02*
X90425000Y-60560200D01*
X90241000Y-60543000D02*
X90333500Y-60547300D01*
X88159700Y-60543000D02*
X90241000Y-60543000D01*
X88066500Y-60547300D02*
X88159700Y-60543000D01*
X87974300Y-60560400D02*
X88066500Y-60547300D01*
X87883700Y-60582200D02*
X87974300Y-60560400D01*
X87795600Y-60612300D02*
X87883700Y-60582200D01*
X87710700Y-60650500D02*
X87795600Y-60612300D01*
X87629800Y-60696600D02*
X87710700Y-60650500D01*
X87553500Y-60750100D02*
X87629800Y-60696600D01*
X87482600Y-60810500D02*
X87553500Y-60750100D01*
X87417800Y-60877300D02*
X87482600Y-60810500D01*
X87359300Y-60950100D02*
X87417800Y-60877300D01*
X127958800Y-61092200D02*
X128062800Y-60950100D01*
X127811300Y-61254900D02*
X127958800Y-61092200D01*
X122571700Y-66494500D02*
X127811300Y-61254900D01*
X122431000Y-66622400D02*
X122571700Y-66494500D01*
X122411900Y-66638100D02*
X122431000Y-66622400D01*
X122263700Y-66747600D02*
X122411900Y-66638100D01*
X122095200Y-66848500D02*
X122263700Y-66747600D01*
X121917700Y-66932500D02*
X122095200Y-66848500D01*
X121744700Y-66994600D02*
X121917700Y-66932500D01*
X121721100Y-67001800D02*
X121744700Y-66994600D01*
X121542700Y-67046200D02*
X121721100Y-67001800D01*
X121360500Y-67073500D02*
X121542700Y-67046200D01*
X121336000Y-67075900D02*
X121360500Y-67073500D01*
X121152200Y-67084800D02*
X121336000Y-67075900D01*
X112546700Y-67083600D02*
X121152200Y-67084800D01*
X112449400Y-67088400D02*
X112546700Y-67083600D01*
X112353300Y-67102600D02*
X112449400Y-67088400D01*
X112259000Y-67126200D02*
X112353300Y-67102600D01*
X112167500Y-67158900D02*
X112259000Y-67126200D01*
X112079700Y-67200500D02*
X112167500Y-67158900D01*
X111996400Y-67250400D02*
X112079700Y-67200500D01*
X111918300Y-67308300D02*
X111996400Y-67250400D01*
X111846300Y-67373500D02*
X111918300Y-67308300D01*
X111781100Y-67445500D02*
X111846300Y-67373500D01*
X111723200Y-67523500D02*
X111781100Y-67445500D01*
X111673200Y-67606900D02*
X111723200Y-67523500D01*
X111631700Y-67694700D02*
X111673200Y-67606900D01*
X111598900Y-67786200D02*
X111631700Y-67694700D01*
X111575300Y-67880400D02*
X111598900Y-67786200D01*
X111561100Y-67976600D02*
X111575300Y-67880400D01*
X111556300Y-68073800D02*
X111561100Y-67976600D01*
X111556300Y-69092700D02*
X111556300Y-68073800D01*
X111561100Y-69189900D02*
X111556300Y-69092700D01*
X111575300Y-69286000D02*
X111561100Y-69189900D01*
X111598900Y-69380300D02*
X111575300Y-69286000D01*
X111631700Y-69471800D02*
X111598900Y-69380300D01*
X111673200Y-69559600D02*
X111631700Y-69471800D01*
X111723100Y-69642900D02*
X111673200Y-69559600D01*
X111781000Y-69720900D02*
X111723100Y-69642900D01*
X111846300Y-69792900D02*
X111781000Y-69720900D01*
X111918200Y-69858200D02*
X111846300Y-69792900D01*
X111996300Y-69916000D02*
X111918200Y-69858200D01*
X112079600Y-69966000D02*
X111996300Y-69916000D01*
X112167400Y-70007500D02*
X112079600Y-69966000D01*
X112258900Y-70040300D02*
X112167400Y-70007500D01*
X112353100Y-70063900D02*
X112258900Y-70040300D01*
X112449200Y-70078100D02*
X112353100Y-70063900D01*
X112546500Y-70082900D02*
X112449200Y-70078100D01*
X128389500Y-70082900D02*
X112546500Y-70082900D01*
X128396600Y-70084000D02*
X128389500Y-70082900D01*
X128401600Y-70088500D02*
X128396600Y-70084000D01*
X128403100Y-70096500D02*
X128401600Y-70088500D01*
X128405900Y-75635100D02*
X128403100Y-70096500D01*
X128410700Y-75732400D02*
X128405900Y-75635100D01*
X128425000Y-75828400D02*
X128410700Y-75732400D01*
X128448600Y-75922600D02*
X128425000Y-75828400D01*
X128481400Y-76014100D02*
X128448600Y-75922600D01*
X128522900Y-76101800D02*
X128481400Y-76014100D01*
X128572900Y-76185100D02*
X128522900Y-76101800D01*
X128630800Y-76263100D02*
X128572900Y-76185100D01*
X128696000Y-76335100D02*
X128630800Y-76263100D01*
X128768000Y-76400300D02*
X128696000Y-76335100D01*
X128846000Y-76458100D02*
X128768000Y-76400300D01*
X128929300Y-76508000D02*
X128846000Y-76458100D01*
X129017100Y-76549500D02*
X128929300Y-76508000D01*
X129108600Y-76582300D02*
X129017100Y-76549500D01*
X129202800Y-76605800D02*
X129108600Y-76582300D01*
X129298900Y-76620100D02*
X129202800Y-76605800D01*
X129396100Y-76624900D02*
X129298900Y-76620100D01*
X130416800Y-76624900D02*
X129396100Y-76624900D01*
X130514100Y-76620100D02*
X130416800Y-76624900D01*
X130610200Y-76605800D02*
X130514100Y-76620100D01*
X130704400Y-76582200D02*
X130610200Y-76605800D01*
X130795900Y-76549500D02*
X130704400Y-76582200D01*
X130883700Y-76508000D02*
X130795900Y-76549500D01*
X130967000Y-76458000D02*
X130883700Y-76508000D01*
X131045100Y-76400100D02*
X130967000Y-76458000D01*
X131117100Y-76334900D02*
X131045100Y-76400100D01*
X131182300Y-76262900D02*
X131117100Y-76334900D01*
X131240200Y-76184900D02*
X131182300Y-76262900D01*
X131290100Y-76101500D02*
X131240200Y-76184900D01*
X131331700Y-76013700D02*
X131290100Y-76101500D01*
X131364400Y-75922200D02*
X131331700Y-76013700D01*
X131388000Y-75828000D02*
X131364400Y-75922200D01*
X131402300Y-75731900D02*
X131388000Y-75828000D01*
X131407000Y-75634600D02*
X131402300Y-75731900D01*
X131407000Y-61533200D02*
X131407000Y-75634600D01*
X131402300Y-61435900D02*
X131407000Y-61533200D01*
X131388000Y-61339800D02*
X131402300Y-61435900D01*
X131364400Y-61245600D02*
X131388000Y-61339800D01*
X131331700Y-61154100D02*
X131364400Y-61245600D01*
X131290100Y-61066300D02*
X131331700Y-61154100D01*
X131240200Y-60982900D02*
X131290100Y-61066300D01*
X131182300Y-60904900D02*
X131240200Y-60982900D01*
X131117100Y-60832900D02*
X131182300Y-60904900D01*
X131045100Y-60767700D02*
X131117100Y-60832900D01*
X130967000Y-60709800D02*
X131045100Y-60767700D01*
X130883700Y-60659900D02*
X130967000Y-60709800D01*
X130795900Y-60618300D02*
X130883700Y-60659900D01*
X130704400Y-60585600D02*
X130795900Y-60618300D01*
X130610200Y-60562000D02*
X130704400Y-60585600D01*
X130514100Y-60547700D02*
X130610200Y-60562000D01*
X130416800Y-60543000D02*
X130514100Y-60547700D01*
X128863200Y-60543000D02*
X130416800Y-60543000D01*
X128770000Y-60547300D02*
X128863200Y-60543000D01*
X128677800Y-60560400D02*
X128770000Y-60547300D01*
X128587200Y-60582200D02*
X128677800Y-60560400D01*
X128499100Y-60612300D02*
X128587200Y-60582200D01*
X128414200Y-60650500D02*
X128499100Y-60612300D01*
X128333300Y-60696600D02*
X128414200Y-60650500D01*
X128257000Y-60750100D02*
X128333300Y-60696600D01*
X128186200Y-60810500D02*
X128257000Y-60750100D01*
X128121300Y-60877300D02*
X128186200Y-60810500D01*
X128062800Y-60950100D02*
X128121300Y-60877300D01*
X46974500Y-49999000D02*
X42010200Y-49999700D01*
X46989800Y-49999800D02*
X46974500Y-49999000D01*
X46995700Y-50003000D02*
X46989800Y-49999800D01*
X46998200Y-50008200D02*
X46995700Y-50003000D01*
X46999000Y-50023500D02*
X46998200Y-50008200D01*
X46999000Y-55550700D02*
X46999000Y-50023500D01*
X47003800Y-55648000D02*
X46999000Y-55550700D01*
X47018000Y-55744100D02*
X47003800Y-55648000D01*
X47041600Y-55838300D02*
X47018000Y-55744100D01*
X47074400Y-55929800D02*
X47041600Y-55838300D01*
X47115900Y-56017600D02*
X47074400Y-55929800D01*
X47165900Y-56101000D02*
X47115900Y-56017600D01*
X47223700Y-56179000D02*
X47165900Y-56101000D01*
X47289000Y-56251000D02*
X47223700Y-56179000D01*
X47361000Y-56316200D02*
X47289000Y-56251000D01*
X47439000Y-56374100D02*
X47361000Y-56316200D01*
X47522300Y-56424000D02*
X47439000Y-56374100D01*
X47610100Y-56465600D02*
X47522300Y-56424000D01*
X47701600Y-56498300D02*
X47610100Y-56465600D01*
X47795900Y-56521900D02*
X47701600Y-56498300D01*
X47892000Y-56536200D02*
X47795900Y-56521900D01*
X47989200Y-56541000D02*
X47892000Y-56536200D01*
X49009400Y-56541000D02*
X47989200Y-56541000D01*
X49106700Y-56536200D02*
X49009400Y-56541000D01*
X49202800Y-56521900D02*
X49106700Y-56536200D01*
X49297000Y-56498300D02*
X49202800Y-56521900D01*
X49388500Y-56465600D02*
X49297000Y-56498300D01*
X49476300Y-56424100D02*
X49388500Y-56465600D01*
X49559600Y-56374100D02*
X49476300Y-56424100D01*
X49637600Y-56316300D02*
X49559600Y-56374100D01*
X49709600Y-56251000D02*
X49637600Y-56316300D01*
X49774900Y-56179100D02*
X49709600Y-56251000D01*
X49832700Y-56101000D02*
X49774900Y-56179100D01*
X49882700Y-56017700D02*
X49832700Y-56101000D01*
X49924200Y-55929900D02*
X49882700Y-56017700D01*
X49957000Y-55838500D02*
X49924200Y-55929900D01*
X49980600Y-55744200D02*
X49957000Y-55838500D01*
X49994900Y-55648100D02*
X49980600Y-55744200D01*
X49999700Y-55550900D02*
X49994900Y-55648100D01*
X50000500Y-50012600D02*
X49999700Y-55550900D01*
X50001300Y-50006400D02*
X50000500Y-50012600D01*
X50003800Y-50002300D02*
X50001300Y-50006400D01*
X50007900Y-49999800D02*
X50003800Y-50002300D01*
X50013200Y-49999000D02*
X50007900Y-49999800D01*
X87691200Y-49999500D02*
X50013200Y-49999000D01*
X87697600Y-50003800D02*
X87691200Y-49999500D01*
X87699600Y-50012600D02*
X87697600Y-50003800D01*
X87702400Y-55551200D02*
X87699600Y-50012600D01*
X87707200Y-55648400D02*
X87702400Y-55551200D01*
X87721500Y-55744500D02*
X87707200Y-55648400D01*
X87745100Y-55838700D02*
X87721500Y-55744500D01*
X87777900Y-55930100D02*
X87745100Y-55838700D01*
X87819400Y-56017900D02*
X87777900Y-55930100D01*
X87869400Y-56101200D02*
X87819400Y-56017900D01*
X87927300Y-56179200D02*
X87869400Y-56101200D01*
X87992500Y-56251200D02*
X87927300Y-56179200D01*
X88064500Y-56316400D02*
X87992500Y-56251200D01*
X88142500Y-56374200D02*
X88064500Y-56316400D01*
X88225800Y-56424100D02*
X88142500Y-56374200D01*
X88313600Y-56465600D02*
X88225800Y-56424100D01*
X88405100Y-56498300D02*
X88313600Y-56465600D01*
X88499300Y-56521900D02*
X88405100Y-56498300D01*
X88595300Y-56536200D02*
X88499300Y-56521900D01*
X88692600Y-56541000D02*
X88595300Y-56536200D01*
X89712900Y-56541000D02*
X88692600Y-56541000D01*
X89810200Y-56536200D02*
X89712900Y-56541000D01*
X89906300Y-56521900D02*
X89810200Y-56536200D01*
X90000500Y-56498300D02*
X89906300Y-56521900D01*
X90092000Y-56465600D02*
X90000500Y-56498300D01*
X90179800Y-56424100D02*
X90092000Y-56465600D01*
X90263100Y-56374100D02*
X90179800Y-56424100D01*
X90341100Y-56316300D02*
X90263100Y-56374100D01*
X90413100Y-56251000D02*
X90341100Y-56316300D01*
X90478400Y-56179100D02*
X90413100Y-56251000D01*
X90536200Y-56101000D02*
X90478400Y-56179100D01*
X90586200Y-56017700D02*
X90536200Y-56101000D01*
X90627700Y-55929900D02*
X90586200Y-56017700D01*
X90660500Y-55838500D02*
X90627700Y-55929900D01*
X90684100Y-55744200D02*
X90660500Y-55838500D01*
X90698400Y-55648100D02*
X90684100Y-55744200D01*
X90703200Y-55550900D02*
X90698400Y-55648100D01*
X90704000Y-50012600D02*
X90703200Y-55550900D01*
X90706000Y-50003800D02*
X90704000Y-50012600D01*
X90713300Y-49999400D02*
X90706000Y-50003800D01*
X128394700Y-49999500D02*
X90713300Y-49999400D01*
X128401100Y-50003800D02*
X128394700Y-49999500D01*
X128403100Y-50012600D02*
X128401100Y-50003800D01*
X128405900Y-55551200D02*
X128403100Y-50012600D01*
X128410700Y-55648500D02*
X128405900Y-55551200D01*
X128425000Y-55744500D02*
X128410700Y-55648500D01*
X128448600Y-55838700D02*
X128425000Y-55744500D01*
X128481400Y-55930100D02*
X128448600Y-55838700D01*
X128522900Y-56017900D02*
X128481400Y-55930100D01*
X128572900Y-56101200D02*
X128522900Y-56017900D01*
X128630800Y-56179200D02*
X128572900Y-56101200D01*
X128696000Y-56251200D02*
X128630800Y-56179200D01*
X128768000Y-56316400D02*
X128696000Y-56251200D01*
X128846000Y-56374200D02*
X128768000Y-56316400D01*
X128929300Y-56424100D02*
X128846000Y-56374200D01*
X129017100Y-56465600D02*
X128929300Y-56424100D01*
X129108600Y-56498300D02*
X129017100Y-56465600D01*
X129202800Y-56521900D02*
X129108600Y-56498300D01*
X129298900Y-56536200D02*
X129202800Y-56521900D01*
X129396100Y-56541000D02*
X129298900Y-56536200D01*
X130416800Y-56541000D02*
X129396100Y-56541000D01*
X130514100Y-56536200D02*
X130416800Y-56541000D01*
X130610200Y-56521900D02*
X130514100Y-56536200D01*
X130704400Y-56498300D02*
X130610200Y-56521900D01*
X130795900Y-56465600D02*
X130704400Y-56498300D01*
X130883700Y-56424000D02*
X130795900Y-56465600D01*
X130967000Y-56374100D02*
X130883700Y-56424000D01*
X131045100Y-56316200D02*
X130967000Y-56374100D01*
X131117100Y-56251000D02*
X131045100Y-56316200D01*
X131182300Y-56179000D02*
X131117100Y-56251000D01*
X131240200Y-56101000D02*
X131182300Y-56179000D01*
X131290100Y-56017600D02*
X131240200Y-56101000D01*
X131331700Y-55929800D02*
X131290100Y-56017600D01*
X131364400Y-55838300D02*
X131331700Y-55929800D01*
X131388000Y-55744100D02*
X131364400Y-55838300D01*
X131402300Y-55648000D02*
X131388000Y-55744100D01*
X131407000Y-55550700D02*
X131402300Y-55648000D01*
X131407000Y-50023500D02*
X131407000Y-55550700D01*
X131407800Y-50008200D02*
X131407000Y-50023500D01*
X131411000Y-50002300D02*
X131407800Y-50008200D01*
X131416300Y-49999800D02*
X131411000Y-50002300D01*
X131431600Y-49999000D02*
X131416300Y-49999800D01*
X136383500Y-49999000D02*
X131431600Y-49999000D01*
X136400700Y-50000300D02*
X136383500Y-49999000D01*
X136406800Y-50006300D02*
X136400700Y-50000300D01*
X136408000Y-50023500D02*
X136406800Y-50006300D01*
X136408000Y-87144300D02*
X136408000Y-50023500D01*
X136406800Y-87161500D02*
X136408000Y-87144300D01*
X136400700Y-87167500D02*
X136406800Y-87161500D01*
X136383500Y-87168800D02*
X136400700Y-87167500D01*
X131431600Y-87168800D02*
X136383500Y-87168800D01*
X131416300Y-87168000D02*
X131431600Y-87168800D01*
X131410300Y-87164800D02*
X131416300Y-87168000D01*
X131407800Y-87159600D02*
X131410300Y-87164800D01*
X131407000Y-87144300D02*
X131407800Y-87159600D01*
X131407000Y-81617100D02*
X131407000Y-87144300D01*
X131402300Y-81519800D02*
X131407000Y-81617100D01*
X131388000Y-81423700D02*
X131402300Y-81519800D01*
X131364400Y-81329500D02*
X131388000Y-81423700D01*
X131331700Y-81238000D02*
X131364400Y-81329500D01*
X131290100Y-81150200D02*
X131331700Y-81238000D01*
X131240200Y-81066900D02*
X131290100Y-81150200D01*
X131182300Y-80988800D02*
X131240200Y-81066900D01*
X131117100Y-80916800D02*
X131182300Y-80988800D01*
X131045100Y-80851600D02*
X131117100Y-80916800D01*
X130967000Y-80793700D02*
X131045100Y-80851600D01*
X130883700Y-80743800D02*
X130967000Y-80793700D01*
X130795900Y-80702200D02*
X130883700Y-80743800D01*
X130704400Y-80669500D02*
X130795900Y-80702200D01*
X130610200Y-80645900D02*
X130704400Y-80669500D01*
X130514100Y-80631600D02*
X130610200Y-80645900D01*
X130416800Y-80626900D02*
X130514100Y-80631600D01*
X128863200Y-80626900D02*
X130416800Y-80626900D01*
X128770000Y-80631300D02*
X128863200Y-80626900D01*
X128677800Y-80644400D02*
X128770000Y-80631300D01*
X128587200Y-80666100D02*
X128677800Y-80644400D01*
X128499100Y-80696200D02*
X128587200Y-80666100D01*
X128414200Y-80734400D02*
X128499100Y-80696200D01*
X128333300Y-80780500D02*
X128414200Y-80734400D01*
X128257000Y-80834000D02*
X128333300Y-80780500D01*
X128186200Y-80894400D02*
X128257000Y-80834000D01*
X128121300Y-80961200D02*
X128186200Y-80894400D01*
X128062800Y-81034000D02*
X128121300Y-80961200D01*
X127958800Y-81176100D02*
X128062800Y-81034000D01*
X127811300Y-81338800D02*
X127958800Y-81176100D01*
X122571700Y-86578400D02*
X127811300Y-81338800D01*
X122431000Y-86706300D02*
X122571700Y-86578400D01*
X122411900Y-86722000D02*
X122431000Y-86706300D01*
X122274000Y-86824300D02*
X122411900Y-86722000D01*
X122253500Y-86838000D02*
X122274000Y-86824300D01*
X122095200Y-86932400D02*
X122253500Y-86838000D01*
X121929200Y-87011300D02*
X122095200Y-86932400D01*
X121906400Y-87020700D02*
X121929200Y-87011300D01*
X121732800Y-87082500D02*
X121906400Y-87020700D01*
X121542300Y-87130200D02*
X121732800Y-87082500D01*
X121348000Y-87158900D02*
X121542300Y-87130200D01*
X121146000Y-87168800D02*
X121348000Y-87158900D01*
X97956900Y-87165300D02*
X121146000Y-87168800D01*
X97726300Y-87152300D02*
X97956900Y-87165300D01*
X97518500Y-87117400D02*
X97726300Y-87152300D01*
X97491300Y-87111200D02*
X97518500Y-87117400D01*
X97289200Y-87052500D02*
X97491300Y-87111200D01*
X97095200Y-86972600D02*
X97289200Y-87052500D01*
X97069800Y-86960400D02*
X97095200Y-86972600D01*
X96886200Y-86858500D02*
X97069800Y-86960400D01*
X96714400Y-86737100D02*
X96886200Y-86858500D01*
X96692400Y-86719600D02*
X96714400Y-86737100D01*
X96535800Y-86579500D02*
X96692400Y-86719600D01*
X91293200Y-81339600D02*
X96535800Y-86579500D01*
X91157400Y-81189800D02*
X91293200Y-81339600D01*
X91036900Y-81027800D02*
X91157400Y-81189800D01*
X90978400Y-80956000D02*
X91036900Y-81027800D01*
X90913600Y-80890200D02*
X90978400Y-80956000D01*
X90843000Y-80830700D02*
X90913600Y-80890200D01*
X90767100Y-80778100D02*
X90843000Y-80830700D01*
X90686600Y-80732700D02*
X90767100Y-80778100D01*
X90602300Y-80695100D02*
X90686600Y-80732700D01*
X90514800Y-80665400D02*
X90602300Y-80695100D01*
X90425000Y-80644100D02*
X90514800Y-80665400D01*
X90333500Y-80631200D02*
X90425000Y-80644100D01*
X90241000Y-80626900D02*
X90333500Y-80631200D01*
X88159700Y-80626900D02*
X90241000Y-80626900D01*
X88066500Y-80631300D02*
X88159700Y-80626900D01*
X87974300Y-80644400D02*
X88066500Y-80631300D01*
X87883700Y-80666100D02*
X87974300Y-80644400D01*
X87795600Y-80696200D02*
X87883700Y-80666100D01*
X87710700Y-80734400D02*
X87795600Y-80696200D01*
X87629800Y-80780500D02*
X87710700Y-80734400D01*
X87553500Y-80834000D02*
X87629800Y-80780500D01*
X87482600Y-80894400D02*
X87553500Y-80834000D01*
X87417800Y-80961200D02*
X87482600Y-80894400D01*
X87359300Y-81034000D02*
X87417800Y-80961200D01*
X87255200Y-81176100D02*
X87359300Y-81034000D01*
X87107800Y-81338800D02*
X87255200Y-81176100D01*
X81868200Y-86578400D02*
X87107800Y-81338800D01*
X81718300Y-86714300D02*
X81868200Y-86578400D01*
X81560500Y-86831200D02*
X81718300Y-86714300D01*
X81392100Y-86932200D02*
X81560500Y-86831200D01*
X81214600Y-87016200D02*
X81392100Y-86932200D01*
X81041200Y-87078500D02*
X81214600Y-87016200D01*
X81017600Y-87085700D02*
X81041200Y-87078500D01*
X80851000Y-87127400D02*
X81017600Y-87085700D01*
X80826900Y-87132200D02*
X80851000Y-87127400D01*
X80644500Y-87158900D02*
X80826900Y-87132200D01*
X80442500Y-87168800D02*
X80644500Y-87158900D01*
X57253400Y-87165300D02*
X80442500Y-87168800D01*
X57022800Y-87152300D02*
X57253400Y-87165300D01*
X56801700Y-87114800D02*
X57022800Y-87152300D01*
X56585700Y-87052500D02*
X56801700Y-87114800D01*
X56391600Y-86972600D02*
X56585700Y-87052500D01*
X56366300Y-86960400D02*
X56391600Y-86972600D01*
X56182700Y-86858500D02*
X56366300Y-86960400D01*
X56010900Y-86737100D02*
X56182700Y-86858500D01*
X55988900Y-86719600D02*
X56010900Y-86737100D01*
X55832300Y-86579500D02*
X55988900Y-86719600D01*
X50589800Y-81339700D02*
X55832300Y-86579500D01*
X50453500Y-81189400D02*
X50589800Y-81339700D01*
X50338400Y-81034800D02*
X50453500Y-81189400D01*
X50288900Y-80972000D02*
X50338400Y-81034800D01*
X50223800Y-80903100D02*
X50288900Y-80972000D01*
X50152500Y-80840800D02*
X50223800Y-80903100D01*
X50075500Y-80785700D02*
X50152500Y-80840800D01*
X49993600Y-80738100D02*
X50075500Y-80785700D01*
X49907500Y-80698500D02*
X49993600Y-80738100D01*
X49818100Y-80667400D02*
X49907500Y-80698500D01*
X49726100Y-80645000D02*
X49818100Y-80667400D01*
X49632400Y-80631400D02*
X49726100Y-80645000D01*
X49537500Y-80626900D02*
X49632400Y-80631400D01*
X47989200Y-80626900D02*
X49537500Y-80626900D01*
X47892000Y-80631600D02*
X47989200Y-80626900D01*
X47795900Y-80645900D02*
X47892000Y-80631600D01*
X47701600Y-80669500D02*
X47795900Y-80645900D01*
X47610100Y-80702200D02*
X47701600Y-80669500D01*
X47522300Y-80743800D02*
X47610100Y-80702200D01*
X47439000Y-80793700D02*
X47522300Y-80743800D01*
X47361000Y-80851600D02*
X47439000Y-80793700D01*
X47289000Y-80916800D02*
X47361000Y-80851600D01*
X47223700Y-80988800D02*
X47289000Y-80916800D01*
X47165900Y-81066900D02*
X47223700Y-80988800D01*
X47115900Y-81150200D02*
X47165900Y-81066900D01*
X47074400Y-81238000D02*
X47115900Y-81150200D01*
X47041600Y-81329500D02*
X47074400Y-81238000D01*
X47018000Y-81423700D02*
X47041600Y-81329500D01*
X47003800Y-81519800D02*
X47018000Y-81423700D01*
X46999000Y-81617100D02*
X47003800Y-81519800D01*
X46999000Y-87144300D02*
X46999000Y-81617100D01*
X46998200Y-87159600D02*
X46999000Y-87144300D01*
X46995700Y-87164800D02*
X46998200Y-87159600D01*
X46989800Y-87168000D02*
X46995700Y-87164800D01*
X46974500Y-87168800D02*
X46989800Y-87168000D01*
X42024500Y-87168800D02*
X46974500Y-87168800D01*
X42007300Y-87167500D02*
X42024500Y-87168800D01*
X42001300Y-87161500D02*
X42007300Y-87167500D01*
X42000000Y-87144300D02*
X42001300Y-87161500D01*
X42000000Y-50023500D02*
X42000000Y-87144300D01*
X42001600Y-50005400D02*
X42000000Y-50023500D01*
X42004700Y-50001600D02*
X42001600Y-50005400D01*
X42010200Y-49999700D02*
X42004700Y-50001600D01*
D11*
G04 #@! TO.C,JP7*
G36*
X98918367Y-85836950D02*
G01*
X98908988Y-85834105D01*
X98900343Y-85829484D01*
X98892767Y-85823266D01*
X98886549Y-85815690D01*
X98881928Y-85807045D01*
X98879083Y-85797666D01*
X98878122Y-85787911D01*
X98878122Y-84287911D01*
X98879083Y-84278156D01*
X98881928Y-84268777D01*
X98886549Y-84260132D01*
X98892767Y-84252556D01*
X98900343Y-84246338D01*
X98908988Y-84241717D01*
X98918367Y-84238872D01*
X98928122Y-84237911D01*
X99428122Y-84237911D01*
X99434233Y-84238513D01*
X99452656Y-84238513D01*
X99457557Y-84238754D01*
X99506388Y-84243564D01*
X99511241Y-84244284D01*
X99559366Y-84253856D01*
X99564127Y-84255048D01*
X99611082Y-84269292D01*
X99615701Y-84270945D01*
X99661034Y-84289722D01*
X99665471Y-84291820D01*
X99708744Y-84314951D01*
X99712951Y-84317473D01*
X99753750Y-84344733D01*
X99757692Y-84347657D01*
X99795621Y-84378785D01*
X99799256Y-84382080D01*
X99833953Y-84416777D01*
X99837248Y-84420412D01*
X99868376Y-84458341D01*
X99871300Y-84462283D01*
X99898560Y-84503082D01*
X99901082Y-84507289D01*
X99924213Y-84550562D01*
X99926311Y-84554999D01*
X99945088Y-84600332D01*
X99946741Y-84604951D01*
X99960985Y-84651906D01*
X99962177Y-84656667D01*
X99971749Y-84704792D01*
X99972469Y-84709645D01*
X99977279Y-84758476D01*
X99977520Y-84763377D01*
X99977520Y-84781800D01*
X99978122Y-84787911D01*
X99978122Y-85287911D01*
X99977520Y-85294022D01*
X99977520Y-85312445D01*
X99977279Y-85317346D01*
X99972469Y-85366177D01*
X99971749Y-85371030D01*
X99962177Y-85419155D01*
X99960985Y-85423916D01*
X99946741Y-85470871D01*
X99945088Y-85475490D01*
X99926311Y-85520823D01*
X99924213Y-85525260D01*
X99901082Y-85568533D01*
X99898560Y-85572740D01*
X99871300Y-85613539D01*
X99868376Y-85617481D01*
X99837248Y-85655410D01*
X99833953Y-85659045D01*
X99799256Y-85693742D01*
X99795621Y-85697037D01*
X99757692Y-85728165D01*
X99753750Y-85731089D01*
X99712951Y-85758349D01*
X99708744Y-85760871D01*
X99665471Y-85784002D01*
X99661034Y-85786100D01*
X99615701Y-85804877D01*
X99611082Y-85806530D01*
X99564127Y-85820774D01*
X99559366Y-85821966D01*
X99511241Y-85831538D01*
X99506388Y-85832258D01*
X99457557Y-85837068D01*
X99452656Y-85837309D01*
X99434233Y-85837309D01*
X99428122Y-85837911D01*
X98928122Y-85837911D01*
X98918367Y-85836950D01*
G37*
G36*
X98122011Y-85837309D02*
G01*
X98103588Y-85837309D01*
X98098687Y-85837068D01*
X98049856Y-85832258D01*
X98045003Y-85831538D01*
X97996878Y-85821966D01*
X97992117Y-85820774D01*
X97945162Y-85806530D01*
X97940543Y-85804877D01*
X97895210Y-85786100D01*
X97890773Y-85784002D01*
X97847500Y-85760871D01*
X97843293Y-85758349D01*
X97802494Y-85731089D01*
X97798552Y-85728165D01*
X97760623Y-85697037D01*
X97756988Y-85693742D01*
X97722291Y-85659045D01*
X97718996Y-85655410D01*
X97687868Y-85617481D01*
X97684944Y-85613539D01*
X97657684Y-85572740D01*
X97655162Y-85568533D01*
X97632031Y-85525260D01*
X97629933Y-85520823D01*
X97611156Y-85475490D01*
X97609503Y-85470871D01*
X97595259Y-85423916D01*
X97594067Y-85419155D01*
X97584495Y-85371030D01*
X97583775Y-85366177D01*
X97578965Y-85317346D01*
X97578724Y-85312445D01*
X97578724Y-85294022D01*
X97578122Y-85287911D01*
X97578122Y-84787911D01*
X97578724Y-84781800D01*
X97578724Y-84763377D01*
X97578965Y-84758476D01*
X97583775Y-84709645D01*
X97584495Y-84704792D01*
X97594067Y-84656667D01*
X97595259Y-84651906D01*
X97609503Y-84604951D01*
X97611156Y-84600332D01*
X97629933Y-84554999D01*
X97632031Y-84550562D01*
X97655162Y-84507289D01*
X97657684Y-84503082D01*
X97684944Y-84462283D01*
X97687868Y-84458341D01*
X97718996Y-84420412D01*
X97722291Y-84416777D01*
X97756988Y-84382080D01*
X97760623Y-84378785D01*
X97798552Y-84347657D01*
X97802494Y-84344733D01*
X97843293Y-84317473D01*
X97847500Y-84314951D01*
X97890773Y-84291820D01*
X97895210Y-84289722D01*
X97940543Y-84270945D01*
X97945162Y-84269292D01*
X97992117Y-84255048D01*
X97996878Y-84253856D01*
X98045003Y-84244284D01*
X98049856Y-84243564D01*
X98098687Y-84238754D01*
X98103588Y-84238513D01*
X98122011Y-84238513D01*
X98128122Y-84237911D01*
X98628122Y-84237911D01*
X98637877Y-84238872D01*
X98647256Y-84241717D01*
X98655901Y-84246338D01*
X98663477Y-84252556D01*
X98669695Y-84260132D01*
X98674316Y-84268777D01*
X98677161Y-84278156D01*
X98678122Y-84287911D01*
X98678122Y-85787911D01*
X98677161Y-85797666D01*
X98674316Y-85807045D01*
X98669695Y-85815690D01*
X98663477Y-85823266D01*
X98655901Y-85829484D01*
X98647256Y-85834105D01*
X98637877Y-85836950D01*
X98628122Y-85837911D01*
X98128122Y-85837911D01*
X98122011Y-85837309D01*
G37*
G04 #@! TD*
D12*
G04 #@! TO.C,J1*
X116551022Y-83037911D03*
D13*
X116551022Y-85037911D03*
X114551022Y-83037911D03*
X114551022Y-85037911D03*
X112551022Y-83037911D03*
X112551022Y-85037911D03*
X110551022Y-83037911D03*
X110551022Y-85037911D03*
X108551022Y-83037911D03*
X108551022Y-85037911D03*
X106551022Y-83037911D03*
X106551022Y-85037911D03*
X104551022Y-83037911D03*
X104551022Y-85037911D03*
X102551022Y-83037911D03*
X102551022Y-85037911D03*
G04 #@! TD*
D11*
G04 #@! TO.C,R1*
G36*
X96800919Y-74669219D02*
G01*
X96827297Y-74673132D01*
X96853165Y-74679612D01*
X96878274Y-74688596D01*
X96902380Y-74699997D01*
X96925254Y-74713707D01*
X96946673Y-74729593D01*
X96966432Y-74747501D01*
X96984340Y-74767260D01*
X97000226Y-74788679D01*
X97013936Y-74811553D01*
X97025337Y-74835659D01*
X97034321Y-74860768D01*
X97040801Y-74886636D01*
X97044714Y-74913014D01*
X97046022Y-74939649D01*
X97046022Y-75896173D01*
X97044714Y-75922808D01*
X97040801Y-75949186D01*
X97034321Y-75975054D01*
X97025337Y-76000163D01*
X97013936Y-76024269D01*
X97000226Y-76047143D01*
X96984340Y-76068562D01*
X96966432Y-76088321D01*
X96946673Y-76106229D01*
X96925254Y-76122115D01*
X96902380Y-76135825D01*
X96878274Y-76147226D01*
X96853165Y-76156210D01*
X96827297Y-76162690D01*
X96800919Y-76166603D01*
X96774284Y-76167911D01*
X96067760Y-76167911D01*
X96041125Y-76166603D01*
X96014747Y-76162690D01*
X95988879Y-76156210D01*
X95963770Y-76147226D01*
X95939664Y-76135825D01*
X95916790Y-76122115D01*
X95895371Y-76106229D01*
X95875612Y-76088321D01*
X95857704Y-76068562D01*
X95841818Y-76047143D01*
X95828108Y-76024269D01*
X95816707Y-76000163D01*
X95807723Y-75975054D01*
X95801243Y-75949186D01*
X95797330Y-75922808D01*
X95796022Y-75896173D01*
X95796022Y-74939649D01*
X95797330Y-74913014D01*
X95801243Y-74886636D01*
X95807723Y-74860768D01*
X95816707Y-74835659D01*
X95828108Y-74811553D01*
X95841818Y-74788679D01*
X95857704Y-74767260D01*
X95875612Y-74747501D01*
X95895371Y-74729593D01*
X95916790Y-74713707D01*
X95939664Y-74699997D01*
X95963770Y-74688596D01*
X95988879Y-74679612D01*
X96014747Y-74673132D01*
X96041125Y-74669219D01*
X96067760Y-74667911D01*
X96774284Y-74667911D01*
X96800919Y-74669219D01*
G37*
G36*
X98850919Y-74669219D02*
G01*
X98877297Y-74673132D01*
X98903165Y-74679612D01*
X98928274Y-74688596D01*
X98952380Y-74699997D01*
X98975254Y-74713707D01*
X98996673Y-74729593D01*
X99016432Y-74747501D01*
X99034340Y-74767260D01*
X99050226Y-74788679D01*
X99063936Y-74811553D01*
X99075337Y-74835659D01*
X99084321Y-74860768D01*
X99090801Y-74886636D01*
X99094714Y-74913014D01*
X99096022Y-74939649D01*
X99096022Y-75896173D01*
X99094714Y-75922808D01*
X99090801Y-75949186D01*
X99084321Y-75975054D01*
X99075337Y-76000163D01*
X99063936Y-76024269D01*
X99050226Y-76047143D01*
X99034340Y-76068562D01*
X99016432Y-76088321D01*
X98996673Y-76106229D01*
X98975254Y-76122115D01*
X98952380Y-76135825D01*
X98928274Y-76147226D01*
X98903165Y-76156210D01*
X98877297Y-76162690D01*
X98850919Y-76166603D01*
X98824284Y-76167911D01*
X98117760Y-76167911D01*
X98091125Y-76166603D01*
X98064747Y-76162690D01*
X98038879Y-76156210D01*
X98013770Y-76147226D01*
X97989664Y-76135825D01*
X97966790Y-76122115D01*
X97945371Y-76106229D01*
X97925612Y-76088321D01*
X97907704Y-76068562D01*
X97891818Y-76047143D01*
X97878108Y-76024269D01*
X97866707Y-76000163D01*
X97857723Y-75975054D01*
X97851243Y-75949186D01*
X97847330Y-75922808D01*
X97846022Y-75896173D01*
X97846022Y-74939649D01*
X97847330Y-74913014D01*
X97851243Y-74886636D01*
X97857723Y-74860768D01*
X97866707Y-74835659D01*
X97878108Y-74811553D01*
X97891818Y-74788679D01*
X97907704Y-74767260D01*
X97925612Y-74747501D01*
X97945371Y-74729593D01*
X97966790Y-74713707D01*
X97989664Y-74699997D01*
X98013770Y-74688596D01*
X98038879Y-74679612D01*
X98064747Y-74673132D01*
X98091125Y-74669219D01*
X98117760Y-74667911D01*
X98824284Y-74667911D01*
X98850919Y-74669219D01*
G37*
G04 #@! TD*
G04 #@! TO.C,R2*
G36*
X123780919Y-74759219D02*
G01*
X123807297Y-74763132D01*
X123833165Y-74769612D01*
X123858274Y-74778596D01*
X123882380Y-74789997D01*
X123905254Y-74803707D01*
X123926673Y-74819593D01*
X123946432Y-74837501D01*
X123964340Y-74857260D01*
X123980226Y-74878679D01*
X123993936Y-74901553D01*
X124005337Y-74925659D01*
X124014321Y-74950768D01*
X124020801Y-74976636D01*
X124024714Y-75003014D01*
X124026022Y-75029649D01*
X124026022Y-75986173D01*
X124024714Y-76012808D01*
X124020801Y-76039186D01*
X124014321Y-76065054D01*
X124005337Y-76090163D01*
X123993936Y-76114269D01*
X123980226Y-76137143D01*
X123964340Y-76158562D01*
X123946432Y-76178321D01*
X123926673Y-76196229D01*
X123905254Y-76212115D01*
X123882380Y-76225825D01*
X123858274Y-76237226D01*
X123833165Y-76246210D01*
X123807297Y-76252690D01*
X123780919Y-76256603D01*
X123754284Y-76257911D01*
X123047760Y-76257911D01*
X123021125Y-76256603D01*
X122994747Y-76252690D01*
X122968879Y-76246210D01*
X122943770Y-76237226D01*
X122919664Y-76225825D01*
X122896790Y-76212115D01*
X122875371Y-76196229D01*
X122855612Y-76178321D01*
X122837704Y-76158562D01*
X122821818Y-76137143D01*
X122808108Y-76114269D01*
X122796707Y-76090163D01*
X122787723Y-76065054D01*
X122781243Y-76039186D01*
X122777330Y-76012808D01*
X122776022Y-75986173D01*
X122776022Y-75029649D01*
X122777330Y-75003014D01*
X122781243Y-74976636D01*
X122787723Y-74950768D01*
X122796707Y-74925659D01*
X122808108Y-74901553D01*
X122821818Y-74878679D01*
X122837704Y-74857260D01*
X122855612Y-74837501D01*
X122875371Y-74819593D01*
X122896790Y-74803707D01*
X122919664Y-74789997D01*
X122943770Y-74778596D01*
X122968879Y-74769612D01*
X122994747Y-74763132D01*
X123021125Y-74759219D01*
X123047760Y-74757911D01*
X123754284Y-74757911D01*
X123780919Y-74759219D01*
G37*
G36*
X125830919Y-74759219D02*
G01*
X125857297Y-74763132D01*
X125883165Y-74769612D01*
X125908274Y-74778596D01*
X125932380Y-74789997D01*
X125955254Y-74803707D01*
X125976673Y-74819593D01*
X125996432Y-74837501D01*
X126014340Y-74857260D01*
X126030226Y-74878679D01*
X126043936Y-74901553D01*
X126055337Y-74925659D01*
X126064321Y-74950768D01*
X126070801Y-74976636D01*
X126074714Y-75003014D01*
X126076022Y-75029649D01*
X126076022Y-75986173D01*
X126074714Y-76012808D01*
X126070801Y-76039186D01*
X126064321Y-76065054D01*
X126055337Y-76090163D01*
X126043936Y-76114269D01*
X126030226Y-76137143D01*
X126014340Y-76158562D01*
X125996432Y-76178321D01*
X125976673Y-76196229D01*
X125955254Y-76212115D01*
X125932380Y-76225825D01*
X125908274Y-76237226D01*
X125883165Y-76246210D01*
X125857297Y-76252690D01*
X125830919Y-76256603D01*
X125804284Y-76257911D01*
X125097760Y-76257911D01*
X125071125Y-76256603D01*
X125044747Y-76252690D01*
X125018879Y-76246210D01*
X124993770Y-76237226D01*
X124969664Y-76225825D01*
X124946790Y-76212115D01*
X124925371Y-76196229D01*
X124905612Y-76178321D01*
X124887704Y-76158562D01*
X124871818Y-76137143D01*
X124858108Y-76114269D01*
X124846707Y-76090163D01*
X124837723Y-76065054D01*
X124831243Y-76039186D01*
X124827330Y-76012808D01*
X124826022Y-75986173D01*
X124826022Y-75029649D01*
X124827330Y-75003014D01*
X124831243Y-74976636D01*
X124837723Y-74950768D01*
X124846707Y-74925659D01*
X124858108Y-74901553D01*
X124871818Y-74878679D01*
X124887704Y-74857260D01*
X124905612Y-74837501D01*
X124925371Y-74819593D01*
X124946790Y-74803707D01*
X124969664Y-74789997D01*
X124993770Y-74778596D01*
X125018879Y-74769612D01*
X125044747Y-74763132D01*
X125071125Y-74759219D01*
X125097760Y-74757911D01*
X125804284Y-74757911D01*
X125830919Y-74759219D01*
G37*
G04 #@! TD*
G04 #@! TO.C,R3*
G36*
X103683019Y-74759219D02*
G01*
X103709397Y-74763132D01*
X103735265Y-74769612D01*
X103760374Y-74778596D01*
X103784480Y-74789997D01*
X103807354Y-74803707D01*
X103828773Y-74819593D01*
X103848532Y-74837501D01*
X103866440Y-74857260D01*
X103882326Y-74878679D01*
X103896036Y-74901553D01*
X103907437Y-74925659D01*
X103916421Y-74950768D01*
X103922901Y-74976636D01*
X103926814Y-75003014D01*
X103928122Y-75029649D01*
X103928122Y-75986173D01*
X103926814Y-76012808D01*
X103922901Y-76039186D01*
X103916421Y-76065054D01*
X103907437Y-76090163D01*
X103896036Y-76114269D01*
X103882326Y-76137143D01*
X103866440Y-76158562D01*
X103848532Y-76178321D01*
X103828773Y-76196229D01*
X103807354Y-76212115D01*
X103784480Y-76225825D01*
X103760374Y-76237226D01*
X103735265Y-76246210D01*
X103709397Y-76252690D01*
X103683019Y-76256603D01*
X103656384Y-76257911D01*
X102949860Y-76257911D01*
X102923225Y-76256603D01*
X102896847Y-76252690D01*
X102870979Y-76246210D01*
X102845870Y-76237226D01*
X102821764Y-76225825D01*
X102798890Y-76212115D01*
X102777471Y-76196229D01*
X102757712Y-76178321D01*
X102739804Y-76158562D01*
X102723918Y-76137143D01*
X102710208Y-76114269D01*
X102698807Y-76090163D01*
X102689823Y-76065054D01*
X102683343Y-76039186D01*
X102679430Y-76012808D01*
X102678122Y-75986173D01*
X102678122Y-75029649D01*
X102679430Y-75003014D01*
X102683343Y-74976636D01*
X102689823Y-74950768D01*
X102698807Y-74925659D01*
X102710208Y-74901553D01*
X102723918Y-74878679D01*
X102739804Y-74857260D01*
X102757712Y-74837501D01*
X102777471Y-74819593D01*
X102798890Y-74803707D01*
X102821764Y-74789997D01*
X102845870Y-74778596D01*
X102870979Y-74769612D01*
X102896847Y-74763132D01*
X102923225Y-74759219D01*
X102949860Y-74757911D01*
X103656384Y-74757911D01*
X103683019Y-74759219D01*
G37*
G36*
X101633019Y-74759219D02*
G01*
X101659397Y-74763132D01*
X101685265Y-74769612D01*
X101710374Y-74778596D01*
X101734480Y-74789997D01*
X101757354Y-74803707D01*
X101778773Y-74819593D01*
X101798532Y-74837501D01*
X101816440Y-74857260D01*
X101832326Y-74878679D01*
X101846036Y-74901553D01*
X101857437Y-74925659D01*
X101866421Y-74950768D01*
X101872901Y-74976636D01*
X101876814Y-75003014D01*
X101878122Y-75029649D01*
X101878122Y-75986173D01*
X101876814Y-76012808D01*
X101872901Y-76039186D01*
X101866421Y-76065054D01*
X101857437Y-76090163D01*
X101846036Y-76114269D01*
X101832326Y-76137143D01*
X101816440Y-76158562D01*
X101798532Y-76178321D01*
X101778773Y-76196229D01*
X101757354Y-76212115D01*
X101734480Y-76225825D01*
X101710374Y-76237226D01*
X101685265Y-76246210D01*
X101659397Y-76252690D01*
X101633019Y-76256603D01*
X101606384Y-76257911D01*
X100899860Y-76257911D01*
X100873225Y-76256603D01*
X100846847Y-76252690D01*
X100820979Y-76246210D01*
X100795870Y-76237226D01*
X100771764Y-76225825D01*
X100748890Y-76212115D01*
X100727471Y-76196229D01*
X100707712Y-76178321D01*
X100689804Y-76158562D01*
X100673918Y-76137143D01*
X100660208Y-76114269D01*
X100648807Y-76090163D01*
X100639823Y-76065054D01*
X100633343Y-76039186D01*
X100629430Y-76012808D01*
X100628122Y-75986173D01*
X100628122Y-75029649D01*
X100629430Y-75003014D01*
X100633343Y-74976636D01*
X100639823Y-74950768D01*
X100648807Y-74925659D01*
X100660208Y-74901553D01*
X100673918Y-74878679D01*
X100689804Y-74857260D01*
X100707712Y-74837501D01*
X100727471Y-74819593D01*
X100748890Y-74803707D01*
X100771764Y-74789997D01*
X100795870Y-74778596D01*
X100820979Y-74769612D01*
X100846847Y-74763132D01*
X100873225Y-74759219D01*
X100899860Y-74757911D01*
X101606384Y-74757911D01*
X101633019Y-74759219D01*
G37*
G04 #@! TD*
G04 #@! TO.C,R4*
G36*
X121924019Y-76509219D02*
G01*
X121950397Y-76513132D01*
X121976265Y-76519612D01*
X122001374Y-76528596D01*
X122025480Y-76539997D01*
X122048354Y-76553707D01*
X122069773Y-76569593D01*
X122089532Y-76587501D01*
X122107440Y-76607260D01*
X122123326Y-76628679D01*
X122137036Y-76651553D01*
X122148437Y-76675659D01*
X122157421Y-76700768D01*
X122163901Y-76726636D01*
X122167814Y-76753014D01*
X122169122Y-76779649D01*
X122169122Y-77736173D01*
X122167814Y-77762808D01*
X122163901Y-77789186D01*
X122157421Y-77815054D01*
X122148437Y-77840163D01*
X122137036Y-77864269D01*
X122123326Y-77887143D01*
X122107440Y-77908562D01*
X122089532Y-77928321D01*
X122069773Y-77946229D01*
X122048354Y-77962115D01*
X122025480Y-77975825D01*
X122001374Y-77987226D01*
X121976265Y-77996210D01*
X121950397Y-78002690D01*
X121924019Y-78006603D01*
X121897384Y-78007911D01*
X121190860Y-78007911D01*
X121164225Y-78006603D01*
X121137847Y-78002690D01*
X121111979Y-77996210D01*
X121086870Y-77987226D01*
X121062764Y-77975825D01*
X121039890Y-77962115D01*
X121018471Y-77946229D01*
X120998712Y-77928321D01*
X120980804Y-77908562D01*
X120964918Y-77887143D01*
X120951208Y-77864269D01*
X120939807Y-77840163D01*
X120930823Y-77815054D01*
X120924343Y-77789186D01*
X120920430Y-77762808D01*
X120919122Y-77736173D01*
X120919122Y-76779649D01*
X120920430Y-76753014D01*
X120924343Y-76726636D01*
X120930823Y-76700768D01*
X120939807Y-76675659D01*
X120951208Y-76651553D01*
X120964918Y-76628679D01*
X120980804Y-76607260D01*
X120998712Y-76587501D01*
X121018471Y-76569593D01*
X121039890Y-76553707D01*
X121062764Y-76539997D01*
X121086870Y-76528596D01*
X121111979Y-76519612D01*
X121137847Y-76513132D01*
X121164225Y-76509219D01*
X121190860Y-76507911D01*
X121897384Y-76507911D01*
X121924019Y-76509219D01*
G37*
G36*
X123974019Y-76509219D02*
G01*
X124000397Y-76513132D01*
X124026265Y-76519612D01*
X124051374Y-76528596D01*
X124075480Y-76539997D01*
X124098354Y-76553707D01*
X124119773Y-76569593D01*
X124139532Y-76587501D01*
X124157440Y-76607260D01*
X124173326Y-76628679D01*
X124187036Y-76651553D01*
X124198437Y-76675659D01*
X124207421Y-76700768D01*
X124213901Y-76726636D01*
X124217814Y-76753014D01*
X124219122Y-76779649D01*
X124219122Y-77736173D01*
X124217814Y-77762808D01*
X124213901Y-77789186D01*
X124207421Y-77815054D01*
X124198437Y-77840163D01*
X124187036Y-77864269D01*
X124173326Y-77887143D01*
X124157440Y-77908562D01*
X124139532Y-77928321D01*
X124119773Y-77946229D01*
X124098354Y-77962115D01*
X124075480Y-77975825D01*
X124051374Y-77987226D01*
X124026265Y-77996210D01*
X124000397Y-78002690D01*
X123974019Y-78006603D01*
X123947384Y-78007911D01*
X123240860Y-78007911D01*
X123214225Y-78006603D01*
X123187847Y-78002690D01*
X123161979Y-77996210D01*
X123136870Y-77987226D01*
X123112764Y-77975825D01*
X123089890Y-77962115D01*
X123068471Y-77946229D01*
X123048712Y-77928321D01*
X123030804Y-77908562D01*
X123014918Y-77887143D01*
X123001208Y-77864269D01*
X122989807Y-77840163D01*
X122980823Y-77815054D01*
X122974343Y-77789186D01*
X122970430Y-77762808D01*
X122969122Y-77736173D01*
X122969122Y-76779649D01*
X122970430Y-76753014D01*
X122974343Y-76726636D01*
X122980823Y-76700768D01*
X122989807Y-76675659D01*
X123001208Y-76651553D01*
X123014918Y-76628679D01*
X123030804Y-76607260D01*
X123048712Y-76587501D01*
X123068471Y-76569593D01*
X123089890Y-76553707D01*
X123112764Y-76539997D01*
X123136870Y-76528596D01*
X123161979Y-76519612D01*
X123187847Y-76513132D01*
X123214225Y-76509219D01*
X123240860Y-76507911D01*
X123947384Y-76507911D01*
X123974019Y-76509219D01*
G37*
G04 #@! TD*
G04 #@! TO.C,R5*
G36*
X109383019Y-74759219D02*
G01*
X109409397Y-74763132D01*
X109435265Y-74769612D01*
X109460374Y-74778596D01*
X109484480Y-74789997D01*
X109507354Y-74803707D01*
X109528773Y-74819593D01*
X109548532Y-74837501D01*
X109566440Y-74857260D01*
X109582326Y-74878679D01*
X109596036Y-74901553D01*
X109607437Y-74925659D01*
X109616421Y-74950768D01*
X109622901Y-74976636D01*
X109626814Y-75003014D01*
X109628122Y-75029649D01*
X109628122Y-75986173D01*
X109626814Y-76012808D01*
X109622901Y-76039186D01*
X109616421Y-76065054D01*
X109607437Y-76090163D01*
X109596036Y-76114269D01*
X109582326Y-76137143D01*
X109566440Y-76158562D01*
X109548532Y-76178321D01*
X109528773Y-76196229D01*
X109507354Y-76212115D01*
X109484480Y-76225825D01*
X109460374Y-76237226D01*
X109435265Y-76246210D01*
X109409397Y-76252690D01*
X109383019Y-76256603D01*
X109356384Y-76257911D01*
X108649860Y-76257911D01*
X108623225Y-76256603D01*
X108596847Y-76252690D01*
X108570979Y-76246210D01*
X108545870Y-76237226D01*
X108521764Y-76225825D01*
X108498890Y-76212115D01*
X108477471Y-76196229D01*
X108457712Y-76178321D01*
X108439804Y-76158562D01*
X108423918Y-76137143D01*
X108410208Y-76114269D01*
X108398807Y-76090163D01*
X108389823Y-76065054D01*
X108383343Y-76039186D01*
X108379430Y-76012808D01*
X108378122Y-75986173D01*
X108378122Y-75029649D01*
X108379430Y-75003014D01*
X108383343Y-74976636D01*
X108389823Y-74950768D01*
X108398807Y-74925659D01*
X108410208Y-74901553D01*
X108423918Y-74878679D01*
X108439804Y-74857260D01*
X108457712Y-74837501D01*
X108477471Y-74819593D01*
X108498890Y-74803707D01*
X108521764Y-74789997D01*
X108545870Y-74778596D01*
X108570979Y-74769612D01*
X108596847Y-74763132D01*
X108623225Y-74759219D01*
X108649860Y-74757911D01*
X109356384Y-74757911D01*
X109383019Y-74759219D01*
G37*
G36*
X111433019Y-74759219D02*
G01*
X111459397Y-74763132D01*
X111485265Y-74769612D01*
X111510374Y-74778596D01*
X111534480Y-74789997D01*
X111557354Y-74803707D01*
X111578773Y-74819593D01*
X111598532Y-74837501D01*
X111616440Y-74857260D01*
X111632326Y-74878679D01*
X111646036Y-74901553D01*
X111657437Y-74925659D01*
X111666421Y-74950768D01*
X111672901Y-74976636D01*
X111676814Y-75003014D01*
X111678122Y-75029649D01*
X111678122Y-75986173D01*
X111676814Y-76012808D01*
X111672901Y-76039186D01*
X111666421Y-76065054D01*
X111657437Y-76090163D01*
X111646036Y-76114269D01*
X111632326Y-76137143D01*
X111616440Y-76158562D01*
X111598532Y-76178321D01*
X111578773Y-76196229D01*
X111557354Y-76212115D01*
X111534480Y-76225825D01*
X111510374Y-76237226D01*
X111485265Y-76246210D01*
X111459397Y-76252690D01*
X111433019Y-76256603D01*
X111406384Y-76257911D01*
X110699860Y-76257911D01*
X110673225Y-76256603D01*
X110646847Y-76252690D01*
X110620979Y-76246210D01*
X110595870Y-76237226D01*
X110571764Y-76225825D01*
X110548890Y-76212115D01*
X110527471Y-76196229D01*
X110507712Y-76178321D01*
X110489804Y-76158562D01*
X110473918Y-76137143D01*
X110460208Y-76114269D01*
X110448807Y-76090163D01*
X110439823Y-76065054D01*
X110433343Y-76039186D01*
X110429430Y-76012808D01*
X110428122Y-75986173D01*
X110428122Y-75029649D01*
X110429430Y-75003014D01*
X110433343Y-74976636D01*
X110439823Y-74950768D01*
X110448807Y-74925659D01*
X110460208Y-74901553D01*
X110473918Y-74878679D01*
X110489804Y-74857260D01*
X110507712Y-74837501D01*
X110527471Y-74819593D01*
X110548890Y-74803707D01*
X110571764Y-74789997D01*
X110595870Y-74778596D01*
X110620979Y-74769612D01*
X110646847Y-74763132D01*
X110673225Y-74759219D01*
X110699860Y-74757911D01*
X111406384Y-74757911D01*
X111433019Y-74759219D01*
G37*
G04 #@! TD*
G04 #@! TO.C,R6*
G36*
X118240919Y-74759219D02*
G01*
X118267297Y-74763132D01*
X118293165Y-74769612D01*
X118318274Y-74778596D01*
X118342380Y-74789997D01*
X118365254Y-74803707D01*
X118386673Y-74819593D01*
X118406432Y-74837501D01*
X118424340Y-74857260D01*
X118440226Y-74878679D01*
X118453936Y-74901553D01*
X118465337Y-74925659D01*
X118474321Y-74950768D01*
X118480801Y-74976636D01*
X118484714Y-75003014D01*
X118486022Y-75029649D01*
X118486022Y-75986173D01*
X118484714Y-76012808D01*
X118480801Y-76039186D01*
X118474321Y-76065054D01*
X118465337Y-76090163D01*
X118453936Y-76114269D01*
X118440226Y-76137143D01*
X118424340Y-76158562D01*
X118406432Y-76178321D01*
X118386673Y-76196229D01*
X118365254Y-76212115D01*
X118342380Y-76225825D01*
X118318274Y-76237226D01*
X118293165Y-76246210D01*
X118267297Y-76252690D01*
X118240919Y-76256603D01*
X118214284Y-76257911D01*
X117507760Y-76257911D01*
X117481125Y-76256603D01*
X117454747Y-76252690D01*
X117428879Y-76246210D01*
X117403770Y-76237226D01*
X117379664Y-76225825D01*
X117356790Y-76212115D01*
X117335371Y-76196229D01*
X117315612Y-76178321D01*
X117297704Y-76158562D01*
X117281818Y-76137143D01*
X117268108Y-76114269D01*
X117256707Y-76090163D01*
X117247723Y-76065054D01*
X117241243Y-76039186D01*
X117237330Y-76012808D01*
X117236022Y-75986173D01*
X117236022Y-75029649D01*
X117237330Y-75003014D01*
X117241243Y-74976636D01*
X117247723Y-74950768D01*
X117256707Y-74925659D01*
X117268108Y-74901553D01*
X117281818Y-74878679D01*
X117297704Y-74857260D01*
X117315612Y-74837501D01*
X117335371Y-74819593D01*
X117356790Y-74803707D01*
X117379664Y-74789997D01*
X117403770Y-74778596D01*
X117428879Y-74769612D01*
X117454747Y-74763132D01*
X117481125Y-74759219D01*
X117507760Y-74757911D01*
X118214284Y-74757911D01*
X118240919Y-74759219D01*
G37*
G36*
X120290919Y-74759219D02*
G01*
X120317297Y-74763132D01*
X120343165Y-74769612D01*
X120368274Y-74778596D01*
X120392380Y-74789997D01*
X120415254Y-74803707D01*
X120436673Y-74819593D01*
X120456432Y-74837501D01*
X120474340Y-74857260D01*
X120490226Y-74878679D01*
X120503936Y-74901553D01*
X120515337Y-74925659D01*
X120524321Y-74950768D01*
X120530801Y-74976636D01*
X120534714Y-75003014D01*
X120536022Y-75029649D01*
X120536022Y-75986173D01*
X120534714Y-76012808D01*
X120530801Y-76039186D01*
X120524321Y-76065054D01*
X120515337Y-76090163D01*
X120503936Y-76114269D01*
X120490226Y-76137143D01*
X120474340Y-76158562D01*
X120456432Y-76178321D01*
X120436673Y-76196229D01*
X120415254Y-76212115D01*
X120392380Y-76225825D01*
X120368274Y-76237226D01*
X120343165Y-76246210D01*
X120317297Y-76252690D01*
X120290919Y-76256603D01*
X120264284Y-76257911D01*
X119557760Y-76257911D01*
X119531125Y-76256603D01*
X119504747Y-76252690D01*
X119478879Y-76246210D01*
X119453770Y-76237226D01*
X119429664Y-76225825D01*
X119406790Y-76212115D01*
X119385371Y-76196229D01*
X119365612Y-76178321D01*
X119347704Y-76158562D01*
X119331818Y-76137143D01*
X119318108Y-76114269D01*
X119306707Y-76090163D01*
X119297723Y-76065054D01*
X119291243Y-76039186D01*
X119287330Y-76012808D01*
X119286022Y-75986173D01*
X119286022Y-75029649D01*
X119287330Y-75003014D01*
X119291243Y-74976636D01*
X119297723Y-74950768D01*
X119306707Y-74925659D01*
X119318108Y-74901553D01*
X119331818Y-74878679D01*
X119347704Y-74857260D01*
X119365612Y-74837501D01*
X119385371Y-74819593D01*
X119406790Y-74803707D01*
X119429664Y-74789997D01*
X119453770Y-74778596D01*
X119478879Y-74769612D01*
X119504747Y-74763132D01*
X119531125Y-74759219D01*
X119557760Y-74757911D01*
X120264284Y-74757911D01*
X120290919Y-74759219D01*
G37*
G04 #@! TD*
G04 #@! TO.C,R7*
G36*
X113420919Y-74759219D02*
G01*
X113447297Y-74763132D01*
X113473165Y-74769612D01*
X113498274Y-74778596D01*
X113522380Y-74789997D01*
X113545254Y-74803707D01*
X113566673Y-74819593D01*
X113586432Y-74837501D01*
X113604340Y-74857260D01*
X113620226Y-74878679D01*
X113633936Y-74901553D01*
X113645337Y-74925659D01*
X113654321Y-74950768D01*
X113660801Y-74976636D01*
X113664714Y-75003014D01*
X113666022Y-75029649D01*
X113666022Y-75986173D01*
X113664714Y-76012808D01*
X113660801Y-76039186D01*
X113654321Y-76065054D01*
X113645337Y-76090163D01*
X113633936Y-76114269D01*
X113620226Y-76137143D01*
X113604340Y-76158562D01*
X113586432Y-76178321D01*
X113566673Y-76196229D01*
X113545254Y-76212115D01*
X113522380Y-76225825D01*
X113498274Y-76237226D01*
X113473165Y-76246210D01*
X113447297Y-76252690D01*
X113420919Y-76256603D01*
X113394284Y-76257911D01*
X112687760Y-76257911D01*
X112661125Y-76256603D01*
X112634747Y-76252690D01*
X112608879Y-76246210D01*
X112583770Y-76237226D01*
X112559664Y-76225825D01*
X112536790Y-76212115D01*
X112515371Y-76196229D01*
X112495612Y-76178321D01*
X112477704Y-76158562D01*
X112461818Y-76137143D01*
X112448108Y-76114269D01*
X112436707Y-76090163D01*
X112427723Y-76065054D01*
X112421243Y-76039186D01*
X112417330Y-76012808D01*
X112416022Y-75986173D01*
X112416022Y-75029649D01*
X112417330Y-75003014D01*
X112421243Y-74976636D01*
X112427723Y-74950768D01*
X112436707Y-74925659D01*
X112448108Y-74901553D01*
X112461818Y-74878679D01*
X112477704Y-74857260D01*
X112495612Y-74837501D01*
X112515371Y-74819593D01*
X112536790Y-74803707D01*
X112559664Y-74789997D01*
X112583770Y-74778596D01*
X112608879Y-74769612D01*
X112634747Y-74763132D01*
X112661125Y-74759219D01*
X112687760Y-74757911D01*
X113394284Y-74757911D01*
X113420919Y-74759219D01*
G37*
G36*
X115470919Y-74759219D02*
G01*
X115497297Y-74763132D01*
X115523165Y-74769612D01*
X115548274Y-74778596D01*
X115572380Y-74789997D01*
X115595254Y-74803707D01*
X115616673Y-74819593D01*
X115636432Y-74837501D01*
X115654340Y-74857260D01*
X115670226Y-74878679D01*
X115683936Y-74901553D01*
X115695337Y-74925659D01*
X115704321Y-74950768D01*
X115710801Y-74976636D01*
X115714714Y-75003014D01*
X115716022Y-75029649D01*
X115716022Y-75986173D01*
X115714714Y-76012808D01*
X115710801Y-76039186D01*
X115704321Y-76065054D01*
X115695337Y-76090163D01*
X115683936Y-76114269D01*
X115670226Y-76137143D01*
X115654340Y-76158562D01*
X115636432Y-76178321D01*
X115616673Y-76196229D01*
X115595254Y-76212115D01*
X115572380Y-76225825D01*
X115548274Y-76237226D01*
X115523165Y-76246210D01*
X115497297Y-76252690D01*
X115470919Y-76256603D01*
X115444284Y-76257911D01*
X114737760Y-76257911D01*
X114711125Y-76256603D01*
X114684747Y-76252690D01*
X114658879Y-76246210D01*
X114633770Y-76237226D01*
X114609664Y-76225825D01*
X114586790Y-76212115D01*
X114565371Y-76196229D01*
X114545612Y-76178321D01*
X114527704Y-76158562D01*
X114511818Y-76137143D01*
X114498108Y-76114269D01*
X114486707Y-76090163D01*
X114477723Y-76065054D01*
X114471243Y-76039186D01*
X114467330Y-76012808D01*
X114466022Y-75986173D01*
X114466022Y-75029649D01*
X114467330Y-75003014D01*
X114471243Y-74976636D01*
X114477723Y-74950768D01*
X114486707Y-74925659D01*
X114498108Y-74901553D01*
X114511818Y-74878679D01*
X114527704Y-74857260D01*
X114545612Y-74837501D01*
X114565371Y-74819593D01*
X114586790Y-74803707D01*
X114609664Y-74789997D01*
X114633770Y-74778596D01*
X114658879Y-74769612D01*
X114684747Y-74763132D01*
X114711125Y-74759219D01*
X114737760Y-74757911D01*
X115444284Y-74757911D01*
X115470919Y-74759219D01*
G37*
G04 #@! TD*
D14*
G04 #@! TO.C,J2*
X124786022Y-72115911D03*
X122016022Y-72115911D03*
X119246022Y-72115911D03*
X116476022Y-72115911D03*
X113706022Y-72115911D03*
X110936022Y-72115911D03*
X108166022Y-72115911D03*
X105396022Y-72115911D03*
X102626022Y-72115911D03*
X99856022Y-72115911D03*
X97086022Y-72115911D03*
X94316022Y-72115911D03*
G04 #@! TD*
D11*
G04 #@! TO.C,JP7*
G36*
X58214846Y-85836950D02*
G01*
X58205467Y-85834105D01*
X58196822Y-85829484D01*
X58189246Y-85823266D01*
X58183028Y-85815690D01*
X58178407Y-85807045D01*
X58175562Y-85797666D01*
X58174601Y-85787911D01*
X58174601Y-84287911D01*
X58175562Y-84278156D01*
X58178407Y-84268777D01*
X58183028Y-84260132D01*
X58189246Y-84252556D01*
X58196822Y-84246338D01*
X58205467Y-84241717D01*
X58214846Y-84238872D01*
X58224601Y-84237911D01*
X58724601Y-84237911D01*
X58730712Y-84238513D01*
X58749135Y-84238513D01*
X58754036Y-84238754D01*
X58802867Y-84243564D01*
X58807720Y-84244284D01*
X58855845Y-84253856D01*
X58860606Y-84255048D01*
X58907561Y-84269292D01*
X58912180Y-84270945D01*
X58957513Y-84289722D01*
X58961950Y-84291820D01*
X59005223Y-84314951D01*
X59009430Y-84317473D01*
X59050229Y-84344733D01*
X59054171Y-84347657D01*
X59092100Y-84378785D01*
X59095735Y-84382080D01*
X59130432Y-84416777D01*
X59133727Y-84420412D01*
X59164855Y-84458341D01*
X59167779Y-84462283D01*
X59195039Y-84503082D01*
X59197561Y-84507289D01*
X59220692Y-84550562D01*
X59222790Y-84554999D01*
X59241567Y-84600332D01*
X59243220Y-84604951D01*
X59257464Y-84651906D01*
X59258656Y-84656667D01*
X59268228Y-84704792D01*
X59268948Y-84709645D01*
X59273758Y-84758476D01*
X59273999Y-84763377D01*
X59273999Y-84781800D01*
X59274601Y-84787911D01*
X59274601Y-85287911D01*
X59273999Y-85294022D01*
X59273999Y-85312445D01*
X59273758Y-85317346D01*
X59268948Y-85366177D01*
X59268228Y-85371030D01*
X59258656Y-85419155D01*
X59257464Y-85423916D01*
X59243220Y-85470871D01*
X59241567Y-85475490D01*
X59222790Y-85520823D01*
X59220692Y-85525260D01*
X59197561Y-85568533D01*
X59195039Y-85572740D01*
X59167779Y-85613539D01*
X59164855Y-85617481D01*
X59133727Y-85655410D01*
X59130432Y-85659045D01*
X59095735Y-85693742D01*
X59092100Y-85697037D01*
X59054171Y-85728165D01*
X59050229Y-85731089D01*
X59009430Y-85758349D01*
X59005223Y-85760871D01*
X58961950Y-85784002D01*
X58957513Y-85786100D01*
X58912180Y-85804877D01*
X58907561Y-85806530D01*
X58860606Y-85820774D01*
X58855845Y-85821966D01*
X58807720Y-85831538D01*
X58802867Y-85832258D01*
X58754036Y-85837068D01*
X58749135Y-85837309D01*
X58730712Y-85837309D01*
X58724601Y-85837911D01*
X58224601Y-85837911D01*
X58214846Y-85836950D01*
G37*
G36*
X57418490Y-85837309D02*
G01*
X57400067Y-85837309D01*
X57395166Y-85837068D01*
X57346335Y-85832258D01*
X57341482Y-85831538D01*
X57293357Y-85821966D01*
X57288596Y-85820774D01*
X57241641Y-85806530D01*
X57237022Y-85804877D01*
X57191689Y-85786100D01*
X57187252Y-85784002D01*
X57143979Y-85760871D01*
X57139772Y-85758349D01*
X57098973Y-85731089D01*
X57095031Y-85728165D01*
X57057102Y-85697037D01*
X57053467Y-85693742D01*
X57018770Y-85659045D01*
X57015475Y-85655410D01*
X56984347Y-85617481D01*
X56981423Y-85613539D01*
X56954163Y-85572740D01*
X56951641Y-85568533D01*
X56928510Y-85525260D01*
X56926412Y-85520823D01*
X56907635Y-85475490D01*
X56905982Y-85470871D01*
X56891738Y-85423916D01*
X56890546Y-85419155D01*
X56880974Y-85371030D01*
X56880254Y-85366177D01*
X56875444Y-85317346D01*
X56875203Y-85312445D01*
X56875203Y-85294022D01*
X56874601Y-85287911D01*
X56874601Y-84787911D01*
X56875203Y-84781800D01*
X56875203Y-84763377D01*
X56875444Y-84758476D01*
X56880254Y-84709645D01*
X56880974Y-84704792D01*
X56890546Y-84656667D01*
X56891738Y-84651906D01*
X56905982Y-84604951D01*
X56907635Y-84600332D01*
X56926412Y-84554999D01*
X56928510Y-84550562D01*
X56951641Y-84507289D01*
X56954163Y-84503082D01*
X56981423Y-84462283D01*
X56984347Y-84458341D01*
X57015475Y-84420412D01*
X57018770Y-84416777D01*
X57053467Y-84382080D01*
X57057102Y-84378785D01*
X57095031Y-84347657D01*
X57098973Y-84344733D01*
X57139772Y-84317473D01*
X57143979Y-84314951D01*
X57187252Y-84291820D01*
X57191689Y-84289722D01*
X57237022Y-84270945D01*
X57241641Y-84269292D01*
X57288596Y-84255048D01*
X57293357Y-84253856D01*
X57341482Y-84244284D01*
X57346335Y-84243564D01*
X57395166Y-84238754D01*
X57400067Y-84238513D01*
X57418490Y-84238513D01*
X57424601Y-84237911D01*
X57924601Y-84237911D01*
X57934356Y-84238872D01*
X57943735Y-84241717D01*
X57952380Y-84246338D01*
X57959956Y-84252556D01*
X57966174Y-84260132D01*
X57970795Y-84268777D01*
X57973640Y-84278156D01*
X57974601Y-84287911D01*
X57974601Y-85787911D01*
X57973640Y-85797666D01*
X57970795Y-85807045D01*
X57966174Y-85815690D01*
X57959956Y-85823266D01*
X57952380Y-85829484D01*
X57943735Y-85834105D01*
X57934356Y-85836950D01*
X57924601Y-85837911D01*
X57424601Y-85837911D01*
X57418490Y-85837309D01*
G37*
G04 #@! TD*
D12*
G04 #@! TO.C,J1*
X75847501Y-83037911D03*
D13*
X75847501Y-85037911D03*
X73847501Y-83037911D03*
X73847501Y-85037911D03*
X71847501Y-83037911D03*
X71847501Y-85037911D03*
X69847501Y-83037911D03*
X69847501Y-85037911D03*
X67847501Y-83037911D03*
X67847501Y-85037911D03*
X65847501Y-83037911D03*
X65847501Y-85037911D03*
X63847501Y-83037911D03*
X63847501Y-85037911D03*
X61847501Y-83037911D03*
X61847501Y-85037911D03*
G04 #@! TD*
D11*
G04 #@! TO.C,R1*
G36*
X56097398Y-74669219D02*
G01*
X56123776Y-74673132D01*
X56149644Y-74679612D01*
X56174753Y-74688596D01*
X56198859Y-74699997D01*
X56221733Y-74713707D01*
X56243152Y-74729593D01*
X56262911Y-74747501D01*
X56280819Y-74767260D01*
X56296705Y-74788679D01*
X56310415Y-74811553D01*
X56321816Y-74835659D01*
X56330800Y-74860768D01*
X56337280Y-74886636D01*
X56341193Y-74913014D01*
X56342501Y-74939649D01*
X56342501Y-75896173D01*
X56341193Y-75922808D01*
X56337280Y-75949186D01*
X56330800Y-75975054D01*
X56321816Y-76000163D01*
X56310415Y-76024269D01*
X56296705Y-76047143D01*
X56280819Y-76068562D01*
X56262911Y-76088321D01*
X56243152Y-76106229D01*
X56221733Y-76122115D01*
X56198859Y-76135825D01*
X56174753Y-76147226D01*
X56149644Y-76156210D01*
X56123776Y-76162690D01*
X56097398Y-76166603D01*
X56070763Y-76167911D01*
X55364239Y-76167911D01*
X55337604Y-76166603D01*
X55311226Y-76162690D01*
X55285358Y-76156210D01*
X55260249Y-76147226D01*
X55236143Y-76135825D01*
X55213269Y-76122115D01*
X55191850Y-76106229D01*
X55172091Y-76088321D01*
X55154183Y-76068562D01*
X55138297Y-76047143D01*
X55124587Y-76024269D01*
X55113186Y-76000163D01*
X55104202Y-75975054D01*
X55097722Y-75949186D01*
X55093809Y-75922808D01*
X55092501Y-75896173D01*
X55092501Y-74939649D01*
X55093809Y-74913014D01*
X55097722Y-74886636D01*
X55104202Y-74860768D01*
X55113186Y-74835659D01*
X55124587Y-74811553D01*
X55138297Y-74788679D01*
X55154183Y-74767260D01*
X55172091Y-74747501D01*
X55191850Y-74729593D01*
X55213269Y-74713707D01*
X55236143Y-74699997D01*
X55260249Y-74688596D01*
X55285358Y-74679612D01*
X55311226Y-74673132D01*
X55337604Y-74669219D01*
X55364239Y-74667911D01*
X56070763Y-74667911D01*
X56097398Y-74669219D01*
G37*
G36*
X58147398Y-74669219D02*
G01*
X58173776Y-74673132D01*
X58199644Y-74679612D01*
X58224753Y-74688596D01*
X58248859Y-74699997D01*
X58271733Y-74713707D01*
X58293152Y-74729593D01*
X58312911Y-74747501D01*
X58330819Y-74767260D01*
X58346705Y-74788679D01*
X58360415Y-74811553D01*
X58371816Y-74835659D01*
X58380800Y-74860768D01*
X58387280Y-74886636D01*
X58391193Y-74913014D01*
X58392501Y-74939649D01*
X58392501Y-75896173D01*
X58391193Y-75922808D01*
X58387280Y-75949186D01*
X58380800Y-75975054D01*
X58371816Y-76000163D01*
X58360415Y-76024269D01*
X58346705Y-76047143D01*
X58330819Y-76068562D01*
X58312911Y-76088321D01*
X58293152Y-76106229D01*
X58271733Y-76122115D01*
X58248859Y-76135825D01*
X58224753Y-76147226D01*
X58199644Y-76156210D01*
X58173776Y-76162690D01*
X58147398Y-76166603D01*
X58120763Y-76167911D01*
X57414239Y-76167911D01*
X57387604Y-76166603D01*
X57361226Y-76162690D01*
X57335358Y-76156210D01*
X57310249Y-76147226D01*
X57286143Y-76135825D01*
X57263269Y-76122115D01*
X57241850Y-76106229D01*
X57222091Y-76088321D01*
X57204183Y-76068562D01*
X57188297Y-76047143D01*
X57174587Y-76024269D01*
X57163186Y-76000163D01*
X57154202Y-75975054D01*
X57147722Y-75949186D01*
X57143809Y-75922808D01*
X57142501Y-75896173D01*
X57142501Y-74939649D01*
X57143809Y-74913014D01*
X57147722Y-74886636D01*
X57154202Y-74860768D01*
X57163186Y-74835659D01*
X57174587Y-74811553D01*
X57188297Y-74788679D01*
X57204183Y-74767260D01*
X57222091Y-74747501D01*
X57241850Y-74729593D01*
X57263269Y-74713707D01*
X57286143Y-74699997D01*
X57310249Y-74688596D01*
X57335358Y-74679612D01*
X57361226Y-74673132D01*
X57387604Y-74669219D01*
X57414239Y-74667911D01*
X58120763Y-74667911D01*
X58147398Y-74669219D01*
G37*
G04 #@! TD*
G04 #@! TO.C,R2*
G36*
X83077398Y-74759219D02*
G01*
X83103776Y-74763132D01*
X83129644Y-74769612D01*
X83154753Y-74778596D01*
X83178859Y-74789997D01*
X83201733Y-74803707D01*
X83223152Y-74819593D01*
X83242911Y-74837501D01*
X83260819Y-74857260D01*
X83276705Y-74878679D01*
X83290415Y-74901553D01*
X83301816Y-74925659D01*
X83310800Y-74950768D01*
X83317280Y-74976636D01*
X83321193Y-75003014D01*
X83322501Y-75029649D01*
X83322501Y-75986173D01*
X83321193Y-76012808D01*
X83317280Y-76039186D01*
X83310800Y-76065054D01*
X83301816Y-76090163D01*
X83290415Y-76114269D01*
X83276705Y-76137143D01*
X83260819Y-76158562D01*
X83242911Y-76178321D01*
X83223152Y-76196229D01*
X83201733Y-76212115D01*
X83178859Y-76225825D01*
X83154753Y-76237226D01*
X83129644Y-76246210D01*
X83103776Y-76252690D01*
X83077398Y-76256603D01*
X83050763Y-76257911D01*
X82344239Y-76257911D01*
X82317604Y-76256603D01*
X82291226Y-76252690D01*
X82265358Y-76246210D01*
X82240249Y-76237226D01*
X82216143Y-76225825D01*
X82193269Y-76212115D01*
X82171850Y-76196229D01*
X82152091Y-76178321D01*
X82134183Y-76158562D01*
X82118297Y-76137143D01*
X82104587Y-76114269D01*
X82093186Y-76090163D01*
X82084202Y-76065054D01*
X82077722Y-76039186D01*
X82073809Y-76012808D01*
X82072501Y-75986173D01*
X82072501Y-75029649D01*
X82073809Y-75003014D01*
X82077722Y-74976636D01*
X82084202Y-74950768D01*
X82093186Y-74925659D01*
X82104587Y-74901553D01*
X82118297Y-74878679D01*
X82134183Y-74857260D01*
X82152091Y-74837501D01*
X82171850Y-74819593D01*
X82193269Y-74803707D01*
X82216143Y-74789997D01*
X82240249Y-74778596D01*
X82265358Y-74769612D01*
X82291226Y-74763132D01*
X82317604Y-74759219D01*
X82344239Y-74757911D01*
X83050763Y-74757911D01*
X83077398Y-74759219D01*
G37*
G36*
X85127398Y-74759219D02*
G01*
X85153776Y-74763132D01*
X85179644Y-74769612D01*
X85204753Y-74778596D01*
X85228859Y-74789997D01*
X85251733Y-74803707D01*
X85273152Y-74819593D01*
X85292911Y-74837501D01*
X85310819Y-74857260D01*
X85326705Y-74878679D01*
X85340415Y-74901553D01*
X85351816Y-74925659D01*
X85360800Y-74950768D01*
X85367280Y-74976636D01*
X85371193Y-75003014D01*
X85372501Y-75029649D01*
X85372501Y-75986173D01*
X85371193Y-76012808D01*
X85367280Y-76039186D01*
X85360800Y-76065054D01*
X85351816Y-76090163D01*
X85340415Y-76114269D01*
X85326705Y-76137143D01*
X85310819Y-76158562D01*
X85292911Y-76178321D01*
X85273152Y-76196229D01*
X85251733Y-76212115D01*
X85228859Y-76225825D01*
X85204753Y-76237226D01*
X85179644Y-76246210D01*
X85153776Y-76252690D01*
X85127398Y-76256603D01*
X85100763Y-76257911D01*
X84394239Y-76257911D01*
X84367604Y-76256603D01*
X84341226Y-76252690D01*
X84315358Y-76246210D01*
X84290249Y-76237226D01*
X84266143Y-76225825D01*
X84243269Y-76212115D01*
X84221850Y-76196229D01*
X84202091Y-76178321D01*
X84184183Y-76158562D01*
X84168297Y-76137143D01*
X84154587Y-76114269D01*
X84143186Y-76090163D01*
X84134202Y-76065054D01*
X84127722Y-76039186D01*
X84123809Y-76012808D01*
X84122501Y-75986173D01*
X84122501Y-75029649D01*
X84123809Y-75003014D01*
X84127722Y-74976636D01*
X84134202Y-74950768D01*
X84143186Y-74925659D01*
X84154587Y-74901553D01*
X84168297Y-74878679D01*
X84184183Y-74857260D01*
X84202091Y-74837501D01*
X84221850Y-74819593D01*
X84243269Y-74803707D01*
X84266143Y-74789997D01*
X84290249Y-74778596D01*
X84315358Y-74769612D01*
X84341226Y-74763132D01*
X84367604Y-74759219D01*
X84394239Y-74757911D01*
X85100763Y-74757911D01*
X85127398Y-74759219D01*
G37*
G04 #@! TD*
G04 #@! TO.C,R3*
G36*
X62979498Y-74759219D02*
G01*
X63005876Y-74763132D01*
X63031744Y-74769612D01*
X63056853Y-74778596D01*
X63080959Y-74789997D01*
X63103833Y-74803707D01*
X63125252Y-74819593D01*
X63145011Y-74837501D01*
X63162919Y-74857260D01*
X63178805Y-74878679D01*
X63192515Y-74901553D01*
X63203916Y-74925659D01*
X63212900Y-74950768D01*
X63219380Y-74976636D01*
X63223293Y-75003014D01*
X63224601Y-75029649D01*
X63224601Y-75986173D01*
X63223293Y-76012808D01*
X63219380Y-76039186D01*
X63212900Y-76065054D01*
X63203916Y-76090163D01*
X63192515Y-76114269D01*
X63178805Y-76137143D01*
X63162919Y-76158562D01*
X63145011Y-76178321D01*
X63125252Y-76196229D01*
X63103833Y-76212115D01*
X63080959Y-76225825D01*
X63056853Y-76237226D01*
X63031744Y-76246210D01*
X63005876Y-76252690D01*
X62979498Y-76256603D01*
X62952863Y-76257911D01*
X62246339Y-76257911D01*
X62219704Y-76256603D01*
X62193326Y-76252690D01*
X62167458Y-76246210D01*
X62142349Y-76237226D01*
X62118243Y-76225825D01*
X62095369Y-76212115D01*
X62073950Y-76196229D01*
X62054191Y-76178321D01*
X62036283Y-76158562D01*
X62020397Y-76137143D01*
X62006687Y-76114269D01*
X61995286Y-76090163D01*
X61986302Y-76065054D01*
X61979822Y-76039186D01*
X61975909Y-76012808D01*
X61974601Y-75986173D01*
X61974601Y-75029649D01*
X61975909Y-75003014D01*
X61979822Y-74976636D01*
X61986302Y-74950768D01*
X61995286Y-74925659D01*
X62006687Y-74901553D01*
X62020397Y-74878679D01*
X62036283Y-74857260D01*
X62054191Y-74837501D01*
X62073950Y-74819593D01*
X62095369Y-74803707D01*
X62118243Y-74789997D01*
X62142349Y-74778596D01*
X62167458Y-74769612D01*
X62193326Y-74763132D01*
X62219704Y-74759219D01*
X62246339Y-74757911D01*
X62952863Y-74757911D01*
X62979498Y-74759219D01*
G37*
G36*
X60929498Y-74759219D02*
G01*
X60955876Y-74763132D01*
X60981744Y-74769612D01*
X61006853Y-74778596D01*
X61030959Y-74789997D01*
X61053833Y-74803707D01*
X61075252Y-74819593D01*
X61095011Y-74837501D01*
X61112919Y-74857260D01*
X61128805Y-74878679D01*
X61142515Y-74901553D01*
X61153916Y-74925659D01*
X61162900Y-74950768D01*
X61169380Y-74976636D01*
X61173293Y-75003014D01*
X61174601Y-75029649D01*
X61174601Y-75986173D01*
X61173293Y-76012808D01*
X61169380Y-76039186D01*
X61162900Y-76065054D01*
X61153916Y-76090163D01*
X61142515Y-76114269D01*
X61128805Y-76137143D01*
X61112919Y-76158562D01*
X61095011Y-76178321D01*
X61075252Y-76196229D01*
X61053833Y-76212115D01*
X61030959Y-76225825D01*
X61006853Y-76237226D01*
X60981744Y-76246210D01*
X60955876Y-76252690D01*
X60929498Y-76256603D01*
X60902863Y-76257911D01*
X60196339Y-76257911D01*
X60169704Y-76256603D01*
X60143326Y-76252690D01*
X60117458Y-76246210D01*
X60092349Y-76237226D01*
X60068243Y-76225825D01*
X60045369Y-76212115D01*
X60023950Y-76196229D01*
X60004191Y-76178321D01*
X59986283Y-76158562D01*
X59970397Y-76137143D01*
X59956687Y-76114269D01*
X59945286Y-76090163D01*
X59936302Y-76065054D01*
X59929822Y-76039186D01*
X59925909Y-76012808D01*
X59924601Y-75986173D01*
X59924601Y-75029649D01*
X59925909Y-75003014D01*
X59929822Y-74976636D01*
X59936302Y-74950768D01*
X59945286Y-74925659D01*
X59956687Y-74901553D01*
X59970397Y-74878679D01*
X59986283Y-74857260D01*
X60004191Y-74837501D01*
X60023950Y-74819593D01*
X60045369Y-74803707D01*
X60068243Y-74789997D01*
X60092349Y-74778596D01*
X60117458Y-74769612D01*
X60143326Y-74763132D01*
X60169704Y-74759219D01*
X60196339Y-74757911D01*
X60902863Y-74757911D01*
X60929498Y-74759219D01*
G37*
G04 #@! TD*
G04 #@! TO.C,R4*
G36*
X81220498Y-76509219D02*
G01*
X81246876Y-76513132D01*
X81272744Y-76519612D01*
X81297853Y-76528596D01*
X81321959Y-76539997D01*
X81344833Y-76553707D01*
X81366252Y-76569593D01*
X81386011Y-76587501D01*
X81403919Y-76607260D01*
X81419805Y-76628679D01*
X81433515Y-76651553D01*
X81444916Y-76675659D01*
X81453900Y-76700768D01*
X81460380Y-76726636D01*
X81464293Y-76753014D01*
X81465601Y-76779649D01*
X81465601Y-77736173D01*
X81464293Y-77762808D01*
X81460380Y-77789186D01*
X81453900Y-77815054D01*
X81444916Y-77840163D01*
X81433515Y-77864269D01*
X81419805Y-77887143D01*
X81403919Y-77908562D01*
X81386011Y-77928321D01*
X81366252Y-77946229D01*
X81344833Y-77962115D01*
X81321959Y-77975825D01*
X81297853Y-77987226D01*
X81272744Y-77996210D01*
X81246876Y-78002690D01*
X81220498Y-78006603D01*
X81193863Y-78007911D01*
X80487339Y-78007911D01*
X80460704Y-78006603D01*
X80434326Y-78002690D01*
X80408458Y-77996210D01*
X80383349Y-77987226D01*
X80359243Y-77975825D01*
X80336369Y-77962115D01*
X80314950Y-77946229D01*
X80295191Y-77928321D01*
X80277283Y-77908562D01*
X80261397Y-77887143D01*
X80247687Y-77864269D01*
X80236286Y-77840163D01*
X80227302Y-77815054D01*
X80220822Y-77789186D01*
X80216909Y-77762808D01*
X80215601Y-77736173D01*
X80215601Y-76779649D01*
X80216909Y-76753014D01*
X80220822Y-76726636D01*
X80227302Y-76700768D01*
X80236286Y-76675659D01*
X80247687Y-76651553D01*
X80261397Y-76628679D01*
X80277283Y-76607260D01*
X80295191Y-76587501D01*
X80314950Y-76569593D01*
X80336369Y-76553707D01*
X80359243Y-76539997D01*
X80383349Y-76528596D01*
X80408458Y-76519612D01*
X80434326Y-76513132D01*
X80460704Y-76509219D01*
X80487339Y-76507911D01*
X81193863Y-76507911D01*
X81220498Y-76509219D01*
G37*
G36*
X83270498Y-76509219D02*
G01*
X83296876Y-76513132D01*
X83322744Y-76519612D01*
X83347853Y-76528596D01*
X83371959Y-76539997D01*
X83394833Y-76553707D01*
X83416252Y-76569593D01*
X83436011Y-76587501D01*
X83453919Y-76607260D01*
X83469805Y-76628679D01*
X83483515Y-76651553D01*
X83494916Y-76675659D01*
X83503900Y-76700768D01*
X83510380Y-76726636D01*
X83514293Y-76753014D01*
X83515601Y-76779649D01*
X83515601Y-77736173D01*
X83514293Y-77762808D01*
X83510380Y-77789186D01*
X83503900Y-77815054D01*
X83494916Y-77840163D01*
X83483515Y-77864269D01*
X83469805Y-77887143D01*
X83453919Y-77908562D01*
X83436011Y-77928321D01*
X83416252Y-77946229D01*
X83394833Y-77962115D01*
X83371959Y-77975825D01*
X83347853Y-77987226D01*
X83322744Y-77996210D01*
X83296876Y-78002690D01*
X83270498Y-78006603D01*
X83243863Y-78007911D01*
X82537339Y-78007911D01*
X82510704Y-78006603D01*
X82484326Y-78002690D01*
X82458458Y-77996210D01*
X82433349Y-77987226D01*
X82409243Y-77975825D01*
X82386369Y-77962115D01*
X82364950Y-77946229D01*
X82345191Y-77928321D01*
X82327283Y-77908562D01*
X82311397Y-77887143D01*
X82297687Y-77864269D01*
X82286286Y-77840163D01*
X82277302Y-77815054D01*
X82270822Y-77789186D01*
X82266909Y-77762808D01*
X82265601Y-77736173D01*
X82265601Y-76779649D01*
X82266909Y-76753014D01*
X82270822Y-76726636D01*
X82277302Y-76700768D01*
X82286286Y-76675659D01*
X82297687Y-76651553D01*
X82311397Y-76628679D01*
X82327283Y-76607260D01*
X82345191Y-76587501D01*
X82364950Y-76569593D01*
X82386369Y-76553707D01*
X82409243Y-76539997D01*
X82433349Y-76528596D01*
X82458458Y-76519612D01*
X82484326Y-76513132D01*
X82510704Y-76509219D01*
X82537339Y-76507911D01*
X83243863Y-76507911D01*
X83270498Y-76509219D01*
G37*
G04 #@! TD*
G04 #@! TO.C,R5*
G36*
X68679498Y-74759219D02*
G01*
X68705876Y-74763132D01*
X68731744Y-74769612D01*
X68756853Y-74778596D01*
X68780959Y-74789997D01*
X68803833Y-74803707D01*
X68825252Y-74819593D01*
X68845011Y-74837501D01*
X68862919Y-74857260D01*
X68878805Y-74878679D01*
X68892515Y-74901553D01*
X68903916Y-74925659D01*
X68912900Y-74950768D01*
X68919380Y-74976636D01*
X68923293Y-75003014D01*
X68924601Y-75029649D01*
X68924601Y-75986173D01*
X68923293Y-76012808D01*
X68919380Y-76039186D01*
X68912900Y-76065054D01*
X68903916Y-76090163D01*
X68892515Y-76114269D01*
X68878805Y-76137143D01*
X68862919Y-76158562D01*
X68845011Y-76178321D01*
X68825252Y-76196229D01*
X68803833Y-76212115D01*
X68780959Y-76225825D01*
X68756853Y-76237226D01*
X68731744Y-76246210D01*
X68705876Y-76252690D01*
X68679498Y-76256603D01*
X68652863Y-76257911D01*
X67946339Y-76257911D01*
X67919704Y-76256603D01*
X67893326Y-76252690D01*
X67867458Y-76246210D01*
X67842349Y-76237226D01*
X67818243Y-76225825D01*
X67795369Y-76212115D01*
X67773950Y-76196229D01*
X67754191Y-76178321D01*
X67736283Y-76158562D01*
X67720397Y-76137143D01*
X67706687Y-76114269D01*
X67695286Y-76090163D01*
X67686302Y-76065054D01*
X67679822Y-76039186D01*
X67675909Y-76012808D01*
X67674601Y-75986173D01*
X67674601Y-75029649D01*
X67675909Y-75003014D01*
X67679822Y-74976636D01*
X67686302Y-74950768D01*
X67695286Y-74925659D01*
X67706687Y-74901553D01*
X67720397Y-74878679D01*
X67736283Y-74857260D01*
X67754191Y-74837501D01*
X67773950Y-74819593D01*
X67795369Y-74803707D01*
X67818243Y-74789997D01*
X67842349Y-74778596D01*
X67867458Y-74769612D01*
X67893326Y-74763132D01*
X67919704Y-74759219D01*
X67946339Y-74757911D01*
X68652863Y-74757911D01*
X68679498Y-74759219D01*
G37*
G36*
X70729498Y-74759219D02*
G01*
X70755876Y-74763132D01*
X70781744Y-74769612D01*
X70806853Y-74778596D01*
X70830959Y-74789997D01*
X70853833Y-74803707D01*
X70875252Y-74819593D01*
X70895011Y-74837501D01*
X70912919Y-74857260D01*
X70928805Y-74878679D01*
X70942515Y-74901553D01*
X70953916Y-74925659D01*
X70962900Y-74950768D01*
X70969380Y-74976636D01*
X70973293Y-75003014D01*
X70974601Y-75029649D01*
X70974601Y-75986173D01*
X70973293Y-76012808D01*
X70969380Y-76039186D01*
X70962900Y-76065054D01*
X70953916Y-76090163D01*
X70942515Y-76114269D01*
X70928805Y-76137143D01*
X70912919Y-76158562D01*
X70895011Y-76178321D01*
X70875252Y-76196229D01*
X70853833Y-76212115D01*
X70830959Y-76225825D01*
X70806853Y-76237226D01*
X70781744Y-76246210D01*
X70755876Y-76252690D01*
X70729498Y-76256603D01*
X70702863Y-76257911D01*
X69996339Y-76257911D01*
X69969704Y-76256603D01*
X69943326Y-76252690D01*
X69917458Y-76246210D01*
X69892349Y-76237226D01*
X69868243Y-76225825D01*
X69845369Y-76212115D01*
X69823950Y-76196229D01*
X69804191Y-76178321D01*
X69786283Y-76158562D01*
X69770397Y-76137143D01*
X69756687Y-76114269D01*
X69745286Y-76090163D01*
X69736302Y-76065054D01*
X69729822Y-76039186D01*
X69725909Y-76012808D01*
X69724601Y-75986173D01*
X69724601Y-75029649D01*
X69725909Y-75003014D01*
X69729822Y-74976636D01*
X69736302Y-74950768D01*
X69745286Y-74925659D01*
X69756687Y-74901553D01*
X69770397Y-74878679D01*
X69786283Y-74857260D01*
X69804191Y-74837501D01*
X69823950Y-74819593D01*
X69845369Y-74803707D01*
X69868243Y-74789997D01*
X69892349Y-74778596D01*
X69917458Y-74769612D01*
X69943326Y-74763132D01*
X69969704Y-74759219D01*
X69996339Y-74757911D01*
X70702863Y-74757911D01*
X70729498Y-74759219D01*
G37*
G04 #@! TD*
G04 #@! TO.C,R6*
G36*
X77537398Y-74759219D02*
G01*
X77563776Y-74763132D01*
X77589644Y-74769612D01*
X77614753Y-74778596D01*
X77638859Y-74789997D01*
X77661733Y-74803707D01*
X77683152Y-74819593D01*
X77702911Y-74837501D01*
X77720819Y-74857260D01*
X77736705Y-74878679D01*
X77750415Y-74901553D01*
X77761816Y-74925659D01*
X77770800Y-74950768D01*
X77777280Y-74976636D01*
X77781193Y-75003014D01*
X77782501Y-75029649D01*
X77782501Y-75986173D01*
X77781193Y-76012808D01*
X77777280Y-76039186D01*
X77770800Y-76065054D01*
X77761816Y-76090163D01*
X77750415Y-76114269D01*
X77736705Y-76137143D01*
X77720819Y-76158562D01*
X77702911Y-76178321D01*
X77683152Y-76196229D01*
X77661733Y-76212115D01*
X77638859Y-76225825D01*
X77614753Y-76237226D01*
X77589644Y-76246210D01*
X77563776Y-76252690D01*
X77537398Y-76256603D01*
X77510763Y-76257911D01*
X76804239Y-76257911D01*
X76777604Y-76256603D01*
X76751226Y-76252690D01*
X76725358Y-76246210D01*
X76700249Y-76237226D01*
X76676143Y-76225825D01*
X76653269Y-76212115D01*
X76631850Y-76196229D01*
X76612091Y-76178321D01*
X76594183Y-76158562D01*
X76578297Y-76137143D01*
X76564587Y-76114269D01*
X76553186Y-76090163D01*
X76544202Y-76065054D01*
X76537722Y-76039186D01*
X76533809Y-76012808D01*
X76532501Y-75986173D01*
X76532501Y-75029649D01*
X76533809Y-75003014D01*
X76537722Y-74976636D01*
X76544202Y-74950768D01*
X76553186Y-74925659D01*
X76564587Y-74901553D01*
X76578297Y-74878679D01*
X76594183Y-74857260D01*
X76612091Y-74837501D01*
X76631850Y-74819593D01*
X76653269Y-74803707D01*
X76676143Y-74789997D01*
X76700249Y-74778596D01*
X76725358Y-74769612D01*
X76751226Y-74763132D01*
X76777604Y-74759219D01*
X76804239Y-74757911D01*
X77510763Y-74757911D01*
X77537398Y-74759219D01*
G37*
G36*
X79587398Y-74759219D02*
G01*
X79613776Y-74763132D01*
X79639644Y-74769612D01*
X79664753Y-74778596D01*
X79688859Y-74789997D01*
X79711733Y-74803707D01*
X79733152Y-74819593D01*
X79752911Y-74837501D01*
X79770819Y-74857260D01*
X79786705Y-74878679D01*
X79800415Y-74901553D01*
X79811816Y-74925659D01*
X79820800Y-74950768D01*
X79827280Y-74976636D01*
X79831193Y-75003014D01*
X79832501Y-75029649D01*
X79832501Y-75986173D01*
X79831193Y-76012808D01*
X79827280Y-76039186D01*
X79820800Y-76065054D01*
X79811816Y-76090163D01*
X79800415Y-76114269D01*
X79786705Y-76137143D01*
X79770819Y-76158562D01*
X79752911Y-76178321D01*
X79733152Y-76196229D01*
X79711733Y-76212115D01*
X79688859Y-76225825D01*
X79664753Y-76237226D01*
X79639644Y-76246210D01*
X79613776Y-76252690D01*
X79587398Y-76256603D01*
X79560763Y-76257911D01*
X78854239Y-76257911D01*
X78827604Y-76256603D01*
X78801226Y-76252690D01*
X78775358Y-76246210D01*
X78750249Y-76237226D01*
X78726143Y-76225825D01*
X78703269Y-76212115D01*
X78681850Y-76196229D01*
X78662091Y-76178321D01*
X78644183Y-76158562D01*
X78628297Y-76137143D01*
X78614587Y-76114269D01*
X78603186Y-76090163D01*
X78594202Y-76065054D01*
X78587722Y-76039186D01*
X78583809Y-76012808D01*
X78582501Y-75986173D01*
X78582501Y-75029649D01*
X78583809Y-75003014D01*
X78587722Y-74976636D01*
X78594202Y-74950768D01*
X78603186Y-74925659D01*
X78614587Y-74901553D01*
X78628297Y-74878679D01*
X78644183Y-74857260D01*
X78662091Y-74837501D01*
X78681850Y-74819593D01*
X78703269Y-74803707D01*
X78726143Y-74789997D01*
X78750249Y-74778596D01*
X78775358Y-74769612D01*
X78801226Y-74763132D01*
X78827604Y-74759219D01*
X78854239Y-74757911D01*
X79560763Y-74757911D01*
X79587398Y-74759219D01*
G37*
G04 #@! TD*
G04 #@! TO.C,R7*
G36*
X72717398Y-74759219D02*
G01*
X72743776Y-74763132D01*
X72769644Y-74769612D01*
X72794753Y-74778596D01*
X72818859Y-74789997D01*
X72841733Y-74803707D01*
X72863152Y-74819593D01*
X72882911Y-74837501D01*
X72900819Y-74857260D01*
X72916705Y-74878679D01*
X72930415Y-74901553D01*
X72941816Y-74925659D01*
X72950800Y-74950768D01*
X72957280Y-74976636D01*
X72961193Y-75003014D01*
X72962501Y-75029649D01*
X72962501Y-75986173D01*
X72961193Y-76012808D01*
X72957280Y-76039186D01*
X72950800Y-76065054D01*
X72941816Y-76090163D01*
X72930415Y-76114269D01*
X72916705Y-76137143D01*
X72900819Y-76158562D01*
X72882911Y-76178321D01*
X72863152Y-76196229D01*
X72841733Y-76212115D01*
X72818859Y-76225825D01*
X72794753Y-76237226D01*
X72769644Y-76246210D01*
X72743776Y-76252690D01*
X72717398Y-76256603D01*
X72690763Y-76257911D01*
X71984239Y-76257911D01*
X71957604Y-76256603D01*
X71931226Y-76252690D01*
X71905358Y-76246210D01*
X71880249Y-76237226D01*
X71856143Y-76225825D01*
X71833269Y-76212115D01*
X71811850Y-76196229D01*
X71792091Y-76178321D01*
X71774183Y-76158562D01*
X71758297Y-76137143D01*
X71744587Y-76114269D01*
X71733186Y-76090163D01*
X71724202Y-76065054D01*
X71717722Y-76039186D01*
X71713809Y-76012808D01*
X71712501Y-75986173D01*
X71712501Y-75029649D01*
X71713809Y-75003014D01*
X71717722Y-74976636D01*
X71724202Y-74950768D01*
X71733186Y-74925659D01*
X71744587Y-74901553D01*
X71758297Y-74878679D01*
X71774183Y-74857260D01*
X71792091Y-74837501D01*
X71811850Y-74819593D01*
X71833269Y-74803707D01*
X71856143Y-74789997D01*
X71880249Y-74778596D01*
X71905358Y-74769612D01*
X71931226Y-74763132D01*
X71957604Y-74759219D01*
X71984239Y-74757911D01*
X72690763Y-74757911D01*
X72717398Y-74759219D01*
G37*
G36*
X74767398Y-74759219D02*
G01*
X74793776Y-74763132D01*
X74819644Y-74769612D01*
X74844753Y-74778596D01*
X74868859Y-74789997D01*
X74891733Y-74803707D01*
X74913152Y-74819593D01*
X74932911Y-74837501D01*
X74950819Y-74857260D01*
X74966705Y-74878679D01*
X74980415Y-74901553D01*
X74991816Y-74925659D01*
X75000800Y-74950768D01*
X75007280Y-74976636D01*
X75011193Y-75003014D01*
X75012501Y-75029649D01*
X75012501Y-75986173D01*
X75011193Y-76012808D01*
X75007280Y-76039186D01*
X75000800Y-76065054D01*
X74991816Y-76090163D01*
X74980415Y-76114269D01*
X74966705Y-76137143D01*
X74950819Y-76158562D01*
X74932911Y-76178321D01*
X74913152Y-76196229D01*
X74891733Y-76212115D01*
X74868859Y-76225825D01*
X74844753Y-76237226D01*
X74819644Y-76246210D01*
X74793776Y-76252690D01*
X74767398Y-76256603D01*
X74740763Y-76257911D01*
X74034239Y-76257911D01*
X74007604Y-76256603D01*
X73981226Y-76252690D01*
X73955358Y-76246210D01*
X73930249Y-76237226D01*
X73906143Y-76225825D01*
X73883269Y-76212115D01*
X73861850Y-76196229D01*
X73842091Y-76178321D01*
X73824183Y-76158562D01*
X73808297Y-76137143D01*
X73794587Y-76114269D01*
X73783186Y-76090163D01*
X73774202Y-76065054D01*
X73767722Y-76039186D01*
X73763809Y-76012808D01*
X73762501Y-75986173D01*
X73762501Y-75029649D01*
X73763809Y-75003014D01*
X73767722Y-74976636D01*
X73774202Y-74950768D01*
X73783186Y-74925659D01*
X73794587Y-74901553D01*
X73808297Y-74878679D01*
X73824183Y-74857260D01*
X73842091Y-74837501D01*
X73861850Y-74819593D01*
X73883269Y-74803707D01*
X73906143Y-74789997D01*
X73930249Y-74778596D01*
X73955358Y-74769612D01*
X73981226Y-74763132D01*
X74007604Y-74759219D01*
X74034239Y-74757911D01*
X74740763Y-74757911D01*
X74767398Y-74759219D01*
G37*
G04 #@! TD*
D14*
G04 #@! TO.C,J2*
X84082501Y-72115911D03*
X81312501Y-72115911D03*
X78542501Y-72115911D03*
X75772501Y-72115911D03*
X73002501Y-72115911D03*
X70232501Y-72115911D03*
X67462501Y-72115911D03*
X64692501Y-72115911D03*
X61922501Y-72115911D03*
X59152501Y-72115911D03*
X56382501Y-72115911D03*
X53612501Y-72115911D03*
G04 #@! TD*
D11*
G04 #@! TO.C,JP7*
G36*
X98918367Y-65753040D02*
G01*
X98908988Y-65750195D01*
X98900343Y-65745574D01*
X98892767Y-65739356D01*
X98886549Y-65731780D01*
X98881928Y-65723135D01*
X98879083Y-65713756D01*
X98878122Y-65704001D01*
X98878122Y-64204001D01*
X98879083Y-64194246D01*
X98881928Y-64184867D01*
X98886549Y-64176222D01*
X98892767Y-64168646D01*
X98900343Y-64162428D01*
X98908988Y-64157807D01*
X98918367Y-64154962D01*
X98928122Y-64154001D01*
X99428122Y-64154001D01*
X99434233Y-64154603D01*
X99452656Y-64154603D01*
X99457557Y-64154844D01*
X99506388Y-64159654D01*
X99511241Y-64160374D01*
X99559366Y-64169946D01*
X99564127Y-64171138D01*
X99611082Y-64185382D01*
X99615701Y-64187035D01*
X99661034Y-64205812D01*
X99665471Y-64207910D01*
X99708744Y-64231041D01*
X99712951Y-64233563D01*
X99753750Y-64260823D01*
X99757692Y-64263747D01*
X99795621Y-64294875D01*
X99799256Y-64298170D01*
X99833953Y-64332867D01*
X99837248Y-64336502D01*
X99868376Y-64374431D01*
X99871300Y-64378373D01*
X99898560Y-64419172D01*
X99901082Y-64423379D01*
X99924213Y-64466652D01*
X99926311Y-64471089D01*
X99945088Y-64516422D01*
X99946741Y-64521041D01*
X99960985Y-64567996D01*
X99962177Y-64572757D01*
X99971749Y-64620882D01*
X99972469Y-64625735D01*
X99977279Y-64674566D01*
X99977520Y-64679467D01*
X99977520Y-64697890D01*
X99978122Y-64704001D01*
X99978122Y-65204001D01*
X99977520Y-65210112D01*
X99977520Y-65228535D01*
X99977279Y-65233436D01*
X99972469Y-65282267D01*
X99971749Y-65287120D01*
X99962177Y-65335245D01*
X99960985Y-65340006D01*
X99946741Y-65386961D01*
X99945088Y-65391580D01*
X99926311Y-65436913D01*
X99924213Y-65441350D01*
X99901082Y-65484623D01*
X99898560Y-65488830D01*
X99871300Y-65529629D01*
X99868376Y-65533571D01*
X99837248Y-65571500D01*
X99833953Y-65575135D01*
X99799256Y-65609832D01*
X99795621Y-65613127D01*
X99757692Y-65644255D01*
X99753750Y-65647179D01*
X99712951Y-65674439D01*
X99708744Y-65676961D01*
X99665471Y-65700092D01*
X99661034Y-65702190D01*
X99615701Y-65720967D01*
X99611082Y-65722620D01*
X99564127Y-65736864D01*
X99559366Y-65738056D01*
X99511241Y-65747628D01*
X99506388Y-65748348D01*
X99457557Y-65753158D01*
X99452656Y-65753399D01*
X99434233Y-65753399D01*
X99428122Y-65754001D01*
X98928122Y-65754001D01*
X98918367Y-65753040D01*
G37*
G36*
X98122011Y-65753399D02*
G01*
X98103588Y-65753399D01*
X98098687Y-65753158D01*
X98049856Y-65748348D01*
X98045003Y-65747628D01*
X97996878Y-65738056D01*
X97992117Y-65736864D01*
X97945162Y-65722620D01*
X97940543Y-65720967D01*
X97895210Y-65702190D01*
X97890773Y-65700092D01*
X97847500Y-65676961D01*
X97843293Y-65674439D01*
X97802494Y-65647179D01*
X97798552Y-65644255D01*
X97760623Y-65613127D01*
X97756988Y-65609832D01*
X97722291Y-65575135D01*
X97718996Y-65571500D01*
X97687868Y-65533571D01*
X97684944Y-65529629D01*
X97657684Y-65488830D01*
X97655162Y-65484623D01*
X97632031Y-65441350D01*
X97629933Y-65436913D01*
X97611156Y-65391580D01*
X97609503Y-65386961D01*
X97595259Y-65340006D01*
X97594067Y-65335245D01*
X97584495Y-65287120D01*
X97583775Y-65282267D01*
X97578965Y-65233436D01*
X97578724Y-65228535D01*
X97578724Y-65210112D01*
X97578122Y-65204001D01*
X97578122Y-64704001D01*
X97578724Y-64697890D01*
X97578724Y-64679467D01*
X97578965Y-64674566D01*
X97583775Y-64625735D01*
X97584495Y-64620882D01*
X97594067Y-64572757D01*
X97595259Y-64567996D01*
X97609503Y-64521041D01*
X97611156Y-64516422D01*
X97629933Y-64471089D01*
X97632031Y-64466652D01*
X97655162Y-64423379D01*
X97657684Y-64419172D01*
X97684944Y-64378373D01*
X97687868Y-64374431D01*
X97718996Y-64336502D01*
X97722291Y-64332867D01*
X97756988Y-64298170D01*
X97760623Y-64294875D01*
X97798552Y-64263747D01*
X97802494Y-64260823D01*
X97843293Y-64233563D01*
X97847500Y-64231041D01*
X97890773Y-64207910D01*
X97895210Y-64205812D01*
X97940543Y-64187035D01*
X97945162Y-64185382D01*
X97992117Y-64171138D01*
X97996878Y-64169946D01*
X98045003Y-64160374D01*
X98049856Y-64159654D01*
X98098687Y-64154844D01*
X98103588Y-64154603D01*
X98122011Y-64154603D01*
X98128122Y-64154001D01*
X98628122Y-64154001D01*
X98637877Y-64154962D01*
X98647256Y-64157807D01*
X98655901Y-64162428D01*
X98663477Y-64168646D01*
X98669695Y-64176222D01*
X98674316Y-64184867D01*
X98677161Y-64194246D01*
X98678122Y-64204001D01*
X98678122Y-65704001D01*
X98677161Y-65713756D01*
X98674316Y-65723135D01*
X98669695Y-65731780D01*
X98663477Y-65739356D01*
X98655901Y-65745574D01*
X98647256Y-65750195D01*
X98637877Y-65753040D01*
X98628122Y-65754001D01*
X98128122Y-65754001D01*
X98122011Y-65753399D01*
G37*
G04 #@! TD*
D12*
G04 #@! TO.C,J1*
X116551022Y-62954001D03*
D13*
X116551022Y-64954001D03*
X114551022Y-62954001D03*
X114551022Y-64954001D03*
X112551022Y-62954001D03*
X112551022Y-64954001D03*
X110551022Y-62954001D03*
X110551022Y-64954001D03*
X108551022Y-62954001D03*
X108551022Y-64954001D03*
X106551022Y-62954001D03*
X106551022Y-64954001D03*
X104551022Y-62954001D03*
X104551022Y-64954001D03*
X102551022Y-62954001D03*
X102551022Y-64954001D03*
G04 #@! TD*
D11*
G04 #@! TO.C,R1*
G36*
X96800919Y-54585309D02*
G01*
X96827297Y-54589222D01*
X96853165Y-54595702D01*
X96878274Y-54604686D01*
X96902380Y-54616087D01*
X96925254Y-54629797D01*
X96946673Y-54645683D01*
X96966432Y-54663591D01*
X96984340Y-54683350D01*
X97000226Y-54704769D01*
X97013936Y-54727643D01*
X97025337Y-54751749D01*
X97034321Y-54776858D01*
X97040801Y-54802726D01*
X97044714Y-54829104D01*
X97046022Y-54855739D01*
X97046022Y-55812263D01*
X97044714Y-55838898D01*
X97040801Y-55865276D01*
X97034321Y-55891144D01*
X97025337Y-55916253D01*
X97013936Y-55940359D01*
X97000226Y-55963233D01*
X96984340Y-55984652D01*
X96966432Y-56004411D01*
X96946673Y-56022319D01*
X96925254Y-56038205D01*
X96902380Y-56051915D01*
X96878274Y-56063316D01*
X96853165Y-56072300D01*
X96827297Y-56078780D01*
X96800919Y-56082693D01*
X96774284Y-56084001D01*
X96067760Y-56084001D01*
X96041125Y-56082693D01*
X96014747Y-56078780D01*
X95988879Y-56072300D01*
X95963770Y-56063316D01*
X95939664Y-56051915D01*
X95916790Y-56038205D01*
X95895371Y-56022319D01*
X95875612Y-56004411D01*
X95857704Y-55984652D01*
X95841818Y-55963233D01*
X95828108Y-55940359D01*
X95816707Y-55916253D01*
X95807723Y-55891144D01*
X95801243Y-55865276D01*
X95797330Y-55838898D01*
X95796022Y-55812263D01*
X95796022Y-54855739D01*
X95797330Y-54829104D01*
X95801243Y-54802726D01*
X95807723Y-54776858D01*
X95816707Y-54751749D01*
X95828108Y-54727643D01*
X95841818Y-54704769D01*
X95857704Y-54683350D01*
X95875612Y-54663591D01*
X95895371Y-54645683D01*
X95916790Y-54629797D01*
X95939664Y-54616087D01*
X95963770Y-54604686D01*
X95988879Y-54595702D01*
X96014747Y-54589222D01*
X96041125Y-54585309D01*
X96067760Y-54584001D01*
X96774284Y-54584001D01*
X96800919Y-54585309D01*
G37*
G36*
X98850919Y-54585309D02*
G01*
X98877297Y-54589222D01*
X98903165Y-54595702D01*
X98928274Y-54604686D01*
X98952380Y-54616087D01*
X98975254Y-54629797D01*
X98996673Y-54645683D01*
X99016432Y-54663591D01*
X99034340Y-54683350D01*
X99050226Y-54704769D01*
X99063936Y-54727643D01*
X99075337Y-54751749D01*
X99084321Y-54776858D01*
X99090801Y-54802726D01*
X99094714Y-54829104D01*
X99096022Y-54855739D01*
X99096022Y-55812263D01*
X99094714Y-55838898D01*
X99090801Y-55865276D01*
X99084321Y-55891144D01*
X99075337Y-55916253D01*
X99063936Y-55940359D01*
X99050226Y-55963233D01*
X99034340Y-55984652D01*
X99016432Y-56004411D01*
X98996673Y-56022319D01*
X98975254Y-56038205D01*
X98952380Y-56051915D01*
X98928274Y-56063316D01*
X98903165Y-56072300D01*
X98877297Y-56078780D01*
X98850919Y-56082693D01*
X98824284Y-56084001D01*
X98117760Y-56084001D01*
X98091125Y-56082693D01*
X98064747Y-56078780D01*
X98038879Y-56072300D01*
X98013770Y-56063316D01*
X97989664Y-56051915D01*
X97966790Y-56038205D01*
X97945371Y-56022319D01*
X97925612Y-56004411D01*
X97907704Y-55984652D01*
X97891818Y-55963233D01*
X97878108Y-55940359D01*
X97866707Y-55916253D01*
X97857723Y-55891144D01*
X97851243Y-55865276D01*
X97847330Y-55838898D01*
X97846022Y-55812263D01*
X97846022Y-54855739D01*
X97847330Y-54829104D01*
X97851243Y-54802726D01*
X97857723Y-54776858D01*
X97866707Y-54751749D01*
X97878108Y-54727643D01*
X97891818Y-54704769D01*
X97907704Y-54683350D01*
X97925612Y-54663591D01*
X97945371Y-54645683D01*
X97966790Y-54629797D01*
X97989664Y-54616087D01*
X98013770Y-54604686D01*
X98038879Y-54595702D01*
X98064747Y-54589222D01*
X98091125Y-54585309D01*
X98117760Y-54584001D01*
X98824284Y-54584001D01*
X98850919Y-54585309D01*
G37*
G04 #@! TD*
G04 #@! TO.C,R2*
G36*
X123780919Y-54675309D02*
G01*
X123807297Y-54679222D01*
X123833165Y-54685702D01*
X123858274Y-54694686D01*
X123882380Y-54706087D01*
X123905254Y-54719797D01*
X123926673Y-54735683D01*
X123946432Y-54753591D01*
X123964340Y-54773350D01*
X123980226Y-54794769D01*
X123993936Y-54817643D01*
X124005337Y-54841749D01*
X124014321Y-54866858D01*
X124020801Y-54892726D01*
X124024714Y-54919104D01*
X124026022Y-54945739D01*
X124026022Y-55902263D01*
X124024714Y-55928898D01*
X124020801Y-55955276D01*
X124014321Y-55981144D01*
X124005337Y-56006253D01*
X123993936Y-56030359D01*
X123980226Y-56053233D01*
X123964340Y-56074652D01*
X123946432Y-56094411D01*
X123926673Y-56112319D01*
X123905254Y-56128205D01*
X123882380Y-56141915D01*
X123858274Y-56153316D01*
X123833165Y-56162300D01*
X123807297Y-56168780D01*
X123780919Y-56172693D01*
X123754284Y-56174001D01*
X123047760Y-56174001D01*
X123021125Y-56172693D01*
X122994747Y-56168780D01*
X122968879Y-56162300D01*
X122943770Y-56153316D01*
X122919664Y-56141915D01*
X122896790Y-56128205D01*
X122875371Y-56112319D01*
X122855612Y-56094411D01*
X122837704Y-56074652D01*
X122821818Y-56053233D01*
X122808108Y-56030359D01*
X122796707Y-56006253D01*
X122787723Y-55981144D01*
X122781243Y-55955276D01*
X122777330Y-55928898D01*
X122776022Y-55902263D01*
X122776022Y-54945739D01*
X122777330Y-54919104D01*
X122781243Y-54892726D01*
X122787723Y-54866858D01*
X122796707Y-54841749D01*
X122808108Y-54817643D01*
X122821818Y-54794769D01*
X122837704Y-54773350D01*
X122855612Y-54753591D01*
X122875371Y-54735683D01*
X122896790Y-54719797D01*
X122919664Y-54706087D01*
X122943770Y-54694686D01*
X122968879Y-54685702D01*
X122994747Y-54679222D01*
X123021125Y-54675309D01*
X123047760Y-54674001D01*
X123754284Y-54674001D01*
X123780919Y-54675309D01*
G37*
G36*
X125830919Y-54675309D02*
G01*
X125857297Y-54679222D01*
X125883165Y-54685702D01*
X125908274Y-54694686D01*
X125932380Y-54706087D01*
X125955254Y-54719797D01*
X125976673Y-54735683D01*
X125996432Y-54753591D01*
X126014340Y-54773350D01*
X126030226Y-54794769D01*
X126043936Y-54817643D01*
X126055337Y-54841749D01*
X126064321Y-54866858D01*
X126070801Y-54892726D01*
X126074714Y-54919104D01*
X126076022Y-54945739D01*
X126076022Y-55902263D01*
X126074714Y-55928898D01*
X126070801Y-55955276D01*
X126064321Y-55981144D01*
X126055337Y-56006253D01*
X126043936Y-56030359D01*
X126030226Y-56053233D01*
X126014340Y-56074652D01*
X125996432Y-56094411D01*
X125976673Y-56112319D01*
X125955254Y-56128205D01*
X125932380Y-56141915D01*
X125908274Y-56153316D01*
X125883165Y-56162300D01*
X125857297Y-56168780D01*
X125830919Y-56172693D01*
X125804284Y-56174001D01*
X125097760Y-56174001D01*
X125071125Y-56172693D01*
X125044747Y-56168780D01*
X125018879Y-56162300D01*
X124993770Y-56153316D01*
X124969664Y-56141915D01*
X124946790Y-56128205D01*
X124925371Y-56112319D01*
X124905612Y-56094411D01*
X124887704Y-56074652D01*
X124871818Y-56053233D01*
X124858108Y-56030359D01*
X124846707Y-56006253D01*
X124837723Y-55981144D01*
X124831243Y-55955276D01*
X124827330Y-55928898D01*
X124826022Y-55902263D01*
X124826022Y-54945739D01*
X124827330Y-54919104D01*
X124831243Y-54892726D01*
X124837723Y-54866858D01*
X124846707Y-54841749D01*
X124858108Y-54817643D01*
X124871818Y-54794769D01*
X124887704Y-54773350D01*
X124905612Y-54753591D01*
X124925371Y-54735683D01*
X124946790Y-54719797D01*
X124969664Y-54706087D01*
X124993770Y-54694686D01*
X125018879Y-54685702D01*
X125044747Y-54679222D01*
X125071125Y-54675309D01*
X125097760Y-54674001D01*
X125804284Y-54674001D01*
X125830919Y-54675309D01*
G37*
G04 #@! TD*
G04 #@! TO.C,R3*
G36*
X103683019Y-54675309D02*
G01*
X103709397Y-54679222D01*
X103735265Y-54685702D01*
X103760374Y-54694686D01*
X103784480Y-54706087D01*
X103807354Y-54719797D01*
X103828773Y-54735683D01*
X103848532Y-54753591D01*
X103866440Y-54773350D01*
X103882326Y-54794769D01*
X103896036Y-54817643D01*
X103907437Y-54841749D01*
X103916421Y-54866858D01*
X103922901Y-54892726D01*
X103926814Y-54919104D01*
X103928122Y-54945739D01*
X103928122Y-55902263D01*
X103926814Y-55928898D01*
X103922901Y-55955276D01*
X103916421Y-55981144D01*
X103907437Y-56006253D01*
X103896036Y-56030359D01*
X103882326Y-56053233D01*
X103866440Y-56074652D01*
X103848532Y-56094411D01*
X103828773Y-56112319D01*
X103807354Y-56128205D01*
X103784480Y-56141915D01*
X103760374Y-56153316D01*
X103735265Y-56162300D01*
X103709397Y-56168780D01*
X103683019Y-56172693D01*
X103656384Y-56174001D01*
X102949860Y-56174001D01*
X102923225Y-56172693D01*
X102896847Y-56168780D01*
X102870979Y-56162300D01*
X102845870Y-56153316D01*
X102821764Y-56141915D01*
X102798890Y-56128205D01*
X102777471Y-56112319D01*
X102757712Y-56094411D01*
X102739804Y-56074652D01*
X102723918Y-56053233D01*
X102710208Y-56030359D01*
X102698807Y-56006253D01*
X102689823Y-55981144D01*
X102683343Y-55955276D01*
X102679430Y-55928898D01*
X102678122Y-55902263D01*
X102678122Y-54945739D01*
X102679430Y-54919104D01*
X102683343Y-54892726D01*
X102689823Y-54866858D01*
X102698807Y-54841749D01*
X102710208Y-54817643D01*
X102723918Y-54794769D01*
X102739804Y-54773350D01*
X102757712Y-54753591D01*
X102777471Y-54735683D01*
X102798890Y-54719797D01*
X102821764Y-54706087D01*
X102845870Y-54694686D01*
X102870979Y-54685702D01*
X102896847Y-54679222D01*
X102923225Y-54675309D01*
X102949860Y-54674001D01*
X103656384Y-54674001D01*
X103683019Y-54675309D01*
G37*
G36*
X101633019Y-54675309D02*
G01*
X101659397Y-54679222D01*
X101685265Y-54685702D01*
X101710374Y-54694686D01*
X101734480Y-54706087D01*
X101757354Y-54719797D01*
X101778773Y-54735683D01*
X101798532Y-54753591D01*
X101816440Y-54773350D01*
X101832326Y-54794769D01*
X101846036Y-54817643D01*
X101857437Y-54841749D01*
X101866421Y-54866858D01*
X101872901Y-54892726D01*
X101876814Y-54919104D01*
X101878122Y-54945739D01*
X101878122Y-55902263D01*
X101876814Y-55928898D01*
X101872901Y-55955276D01*
X101866421Y-55981144D01*
X101857437Y-56006253D01*
X101846036Y-56030359D01*
X101832326Y-56053233D01*
X101816440Y-56074652D01*
X101798532Y-56094411D01*
X101778773Y-56112319D01*
X101757354Y-56128205D01*
X101734480Y-56141915D01*
X101710374Y-56153316D01*
X101685265Y-56162300D01*
X101659397Y-56168780D01*
X101633019Y-56172693D01*
X101606384Y-56174001D01*
X100899860Y-56174001D01*
X100873225Y-56172693D01*
X100846847Y-56168780D01*
X100820979Y-56162300D01*
X100795870Y-56153316D01*
X100771764Y-56141915D01*
X100748890Y-56128205D01*
X100727471Y-56112319D01*
X100707712Y-56094411D01*
X100689804Y-56074652D01*
X100673918Y-56053233D01*
X100660208Y-56030359D01*
X100648807Y-56006253D01*
X100639823Y-55981144D01*
X100633343Y-55955276D01*
X100629430Y-55928898D01*
X100628122Y-55902263D01*
X100628122Y-54945739D01*
X100629430Y-54919104D01*
X100633343Y-54892726D01*
X100639823Y-54866858D01*
X100648807Y-54841749D01*
X100660208Y-54817643D01*
X100673918Y-54794769D01*
X100689804Y-54773350D01*
X100707712Y-54753591D01*
X100727471Y-54735683D01*
X100748890Y-54719797D01*
X100771764Y-54706087D01*
X100795870Y-54694686D01*
X100820979Y-54685702D01*
X100846847Y-54679222D01*
X100873225Y-54675309D01*
X100899860Y-54674001D01*
X101606384Y-54674001D01*
X101633019Y-54675309D01*
G37*
G04 #@! TD*
G04 #@! TO.C,R4*
G36*
X121924019Y-56425309D02*
G01*
X121950397Y-56429222D01*
X121976265Y-56435702D01*
X122001374Y-56444686D01*
X122025480Y-56456087D01*
X122048354Y-56469797D01*
X122069773Y-56485683D01*
X122089532Y-56503591D01*
X122107440Y-56523350D01*
X122123326Y-56544769D01*
X122137036Y-56567643D01*
X122148437Y-56591749D01*
X122157421Y-56616858D01*
X122163901Y-56642726D01*
X122167814Y-56669104D01*
X122169122Y-56695739D01*
X122169122Y-57652263D01*
X122167814Y-57678898D01*
X122163901Y-57705276D01*
X122157421Y-57731144D01*
X122148437Y-57756253D01*
X122137036Y-57780359D01*
X122123326Y-57803233D01*
X122107440Y-57824652D01*
X122089532Y-57844411D01*
X122069773Y-57862319D01*
X122048354Y-57878205D01*
X122025480Y-57891915D01*
X122001374Y-57903316D01*
X121976265Y-57912300D01*
X121950397Y-57918780D01*
X121924019Y-57922693D01*
X121897384Y-57924001D01*
X121190860Y-57924001D01*
X121164225Y-57922693D01*
X121137847Y-57918780D01*
X121111979Y-57912300D01*
X121086870Y-57903316D01*
X121062764Y-57891915D01*
X121039890Y-57878205D01*
X121018471Y-57862319D01*
X120998712Y-57844411D01*
X120980804Y-57824652D01*
X120964918Y-57803233D01*
X120951208Y-57780359D01*
X120939807Y-57756253D01*
X120930823Y-57731144D01*
X120924343Y-57705276D01*
X120920430Y-57678898D01*
X120919122Y-57652263D01*
X120919122Y-56695739D01*
X120920430Y-56669104D01*
X120924343Y-56642726D01*
X120930823Y-56616858D01*
X120939807Y-56591749D01*
X120951208Y-56567643D01*
X120964918Y-56544769D01*
X120980804Y-56523350D01*
X120998712Y-56503591D01*
X121018471Y-56485683D01*
X121039890Y-56469797D01*
X121062764Y-56456087D01*
X121086870Y-56444686D01*
X121111979Y-56435702D01*
X121137847Y-56429222D01*
X121164225Y-56425309D01*
X121190860Y-56424001D01*
X121897384Y-56424001D01*
X121924019Y-56425309D01*
G37*
G36*
X123974019Y-56425309D02*
G01*
X124000397Y-56429222D01*
X124026265Y-56435702D01*
X124051374Y-56444686D01*
X124075480Y-56456087D01*
X124098354Y-56469797D01*
X124119773Y-56485683D01*
X124139532Y-56503591D01*
X124157440Y-56523350D01*
X124173326Y-56544769D01*
X124187036Y-56567643D01*
X124198437Y-56591749D01*
X124207421Y-56616858D01*
X124213901Y-56642726D01*
X124217814Y-56669104D01*
X124219122Y-56695739D01*
X124219122Y-57652263D01*
X124217814Y-57678898D01*
X124213901Y-57705276D01*
X124207421Y-57731144D01*
X124198437Y-57756253D01*
X124187036Y-57780359D01*
X124173326Y-57803233D01*
X124157440Y-57824652D01*
X124139532Y-57844411D01*
X124119773Y-57862319D01*
X124098354Y-57878205D01*
X124075480Y-57891915D01*
X124051374Y-57903316D01*
X124026265Y-57912300D01*
X124000397Y-57918780D01*
X123974019Y-57922693D01*
X123947384Y-57924001D01*
X123240860Y-57924001D01*
X123214225Y-57922693D01*
X123187847Y-57918780D01*
X123161979Y-57912300D01*
X123136870Y-57903316D01*
X123112764Y-57891915D01*
X123089890Y-57878205D01*
X123068471Y-57862319D01*
X123048712Y-57844411D01*
X123030804Y-57824652D01*
X123014918Y-57803233D01*
X123001208Y-57780359D01*
X122989807Y-57756253D01*
X122980823Y-57731144D01*
X122974343Y-57705276D01*
X122970430Y-57678898D01*
X122969122Y-57652263D01*
X122969122Y-56695739D01*
X122970430Y-56669104D01*
X122974343Y-56642726D01*
X122980823Y-56616858D01*
X122989807Y-56591749D01*
X123001208Y-56567643D01*
X123014918Y-56544769D01*
X123030804Y-56523350D01*
X123048712Y-56503591D01*
X123068471Y-56485683D01*
X123089890Y-56469797D01*
X123112764Y-56456087D01*
X123136870Y-56444686D01*
X123161979Y-56435702D01*
X123187847Y-56429222D01*
X123214225Y-56425309D01*
X123240860Y-56424001D01*
X123947384Y-56424001D01*
X123974019Y-56425309D01*
G37*
G04 #@! TD*
G04 #@! TO.C,R5*
G36*
X109383019Y-54675309D02*
G01*
X109409397Y-54679222D01*
X109435265Y-54685702D01*
X109460374Y-54694686D01*
X109484480Y-54706087D01*
X109507354Y-54719797D01*
X109528773Y-54735683D01*
X109548532Y-54753591D01*
X109566440Y-54773350D01*
X109582326Y-54794769D01*
X109596036Y-54817643D01*
X109607437Y-54841749D01*
X109616421Y-54866858D01*
X109622901Y-54892726D01*
X109626814Y-54919104D01*
X109628122Y-54945739D01*
X109628122Y-55902263D01*
X109626814Y-55928898D01*
X109622901Y-55955276D01*
X109616421Y-55981144D01*
X109607437Y-56006253D01*
X109596036Y-56030359D01*
X109582326Y-56053233D01*
X109566440Y-56074652D01*
X109548532Y-56094411D01*
X109528773Y-56112319D01*
X109507354Y-56128205D01*
X109484480Y-56141915D01*
X109460374Y-56153316D01*
X109435265Y-56162300D01*
X109409397Y-56168780D01*
X109383019Y-56172693D01*
X109356384Y-56174001D01*
X108649860Y-56174001D01*
X108623225Y-56172693D01*
X108596847Y-56168780D01*
X108570979Y-56162300D01*
X108545870Y-56153316D01*
X108521764Y-56141915D01*
X108498890Y-56128205D01*
X108477471Y-56112319D01*
X108457712Y-56094411D01*
X108439804Y-56074652D01*
X108423918Y-56053233D01*
X108410208Y-56030359D01*
X108398807Y-56006253D01*
X108389823Y-55981144D01*
X108383343Y-55955276D01*
X108379430Y-55928898D01*
X108378122Y-55902263D01*
X108378122Y-54945739D01*
X108379430Y-54919104D01*
X108383343Y-54892726D01*
X108389823Y-54866858D01*
X108398807Y-54841749D01*
X108410208Y-54817643D01*
X108423918Y-54794769D01*
X108439804Y-54773350D01*
X108457712Y-54753591D01*
X108477471Y-54735683D01*
X108498890Y-54719797D01*
X108521764Y-54706087D01*
X108545870Y-54694686D01*
X108570979Y-54685702D01*
X108596847Y-54679222D01*
X108623225Y-54675309D01*
X108649860Y-54674001D01*
X109356384Y-54674001D01*
X109383019Y-54675309D01*
G37*
G36*
X111433019Y-54675309D02*
G01*
X111459397Y-54679222D01*
X111485265Y-54685702D01*
X111510374Y-54694686D01*
X111534480Y-54706087D01*
X111557354Y-54719797D01*
X111578773Y-54735683D01*
X111598532Y-54753591D01*
X111616440Y-54773350D01*
X111632326Y-54794769D01*
X111646036Y-54817643D01*
X111657437Y-54841749D01*
X111666421Y-54866858D01*
X111672901Y-54892726D01*
X111676814Y-54919104D01*
X111678122Y-54945739D01*
X111678122Y-55902263D01*
X111676814Y-55928898D01*
X111672901Y-55955276D01*
X111666421Y-55981144D01*
X111657437Y-56006253D01*
X111646036Y-56030359D01*
X111632326Y-56053233D01*
X111616440Y-56074652D01*
X111598532Y-56094411D01*
X111578773Y-56112319D01*
X111557354Y-56128205D01*
X111534480Y-56141915D01*
X111510374Y-56153316D01*
X111485265Y-56162300D01*
X111459397Y-56168780D01*
X111433019Y-56172693D01*
X111406384Y-56174001D01*
X110699860Y-56174001D01*
X110673225Y-56172693D01*
X110646847Y-56168780D01*
X110620979Y-56162300D01*
X110595870Y-56153316D01*
X110571764Y-56141915D01*
X110548890Y-56128205D01*
X110527471Y-56112319D01*
X110507712Y-56094411D01*
X110489804Y-56074652D01*
X110473918Y-56053233D01*
X110460208Y-56030359D01*
X110448807Y-56006253D01*
X110439823Y-55981144D01*
X110433343Y-55955276D01*
X110429430Y-55928898D01*
X110428122Y-55902263D01*
X110428122Y-54945739D01*
X110429430Y-54919104D01*
X110433343Y-54892726D01*
X110439823Y-54866858D01*
X110448807Y-54841749D01*
X110460208Y-54817643D01*
X110473918Y-54794769D01*
X110489804Y-54773350D01*
X110507712Y-54753591D01*
X110527471Y-54735683D01*
X110548890Y-54719797D01*
X110571764Y-54706087D01*
X110595870Y-54694686D01*
X110620979Y-54685702D01*
X110646847Y-54679222D01*
X110673225Y-54675309D01*
X110699860Y-54674001D01*
X111406384Y-54674001D01*
X111433019Y-54675309D01*
G37*
G04 #@! TD*
G04 #@! TO.C,R6*
G36*
X118240919Y-54675309D02*
G01*
X118267297Y-54679222D01*
X118293165Y-54685702D01*
X118318274Y-54694686D01*
X118342380Y-54706087D01*
X118365254Y-54719797D01*
X118386673Y-54735683D01*
X118406432Y-54753591D01*
X118424340Y-54773350D01*
X118440226Y-54794769D01*
X118453936Y-54817643D01*
X118465337Y-54841749D01*
X118474321Y-54866858D01*
X118480801Y-54892726D01*
X118484714Y-54919104D01*
X118486022Y-54945739D01*
X118486022Y-55902263D01*
X118484714Y-55928898D01*
X118480801Y-55955276D01*
X118474321Y-55981144D01*
X118465337Y-56006253D01*
X118453936Y-56030359D01*
X118440226Y-56053233D01*
X118424340Y-56074652D01*
X118406432Y-56094411D01*
X118386673Y-56112319D01*
X118365254Y-56128205D01*
X118342380Y-56141915D01*
X118318274Y-56153316D01*
X118293165Y-56162300D01*
X118267297Y-56168780D01*
X118240919Y-56172693D01*
X118214284Y-56174001D01*
X117507760Y-56174001D01*
X117481125Y-56172693D01*
X117454747Y-56168780D01*
X117428879Y-56162300D01*
X117403770Y-56153316D01*
X117379664Y-56141915D01*
X117356790Y-56128205D01*
X117335371Y-56112319D01*
X117315612Y-56094411D01*
X117297704Y-56074652D01*
X117281818Y-56053233D01*
X117268108Y-56030359D01*
X117256707Y-56006253D01*
X117247723Y-55981144D01*
X117241243Y-55955276D01*
X117237330Y-55928898D01*
X117236022Y-55902263D01*
X117236022Y-54945739D01*
X117237330Y-54919104D01*
X117241243Y-54892726D01*
X117247723Y-54866858D01*
X117256707Y-54841749D01*
X117268108Y-54817643D01*
X117281818Y-54794769D01*
X117297704Y-54773350D01*
X117315612Y-54753591D01*
X117335371Y-54735683D01*
X117356790Y-54719797D01*
X117379664Y-54706087D01*
X117403770Y-54694686D01*
X117428879Y-54685702D01*
X117454747Y-54679222D01*
X117481125Y-54675309D01*
X117507760Y-54674001D01*
X118214284Y-54674001D01*
X118240919Y-54675309D01*
G37*
G36*
X120290919Y-54675309D02*
G01*
X120317297Y-54679222D01*
X120343165Y-54685702D01*
X120368274Y-54694686D01*
X120392380Y-54706087D01*
X120415254Y-54719797D01*
X120436673Y-54735683D01*
X120456432Y-54753591D01*
X120474340Y-54773350D01*
X120490226Y-54794769D01*
X120503936Y-54817643D01*
X120515337Y-54841749D01*
X120524321Y-54866858D01*
X120530801Y-54892726D01*
X120534714Y-54919104D01*
X120536022Y-54945739D01*
X120536022Y-55902263D01*
X120534714Y-55928898D01*
X120530801Y-55955276D01*
X120524321Y-55981144D01*
X120515337Y-56006253D01*
X120503936Y-56030359D01*
X120490226Y-56053233D01*
X120474340Y-56074652D01*
X120456432Y-56094411D01*
X120436673Y-56112319D01*
X120415254Y-56128205D01*
X120392380Y-56141915D01*
X120368274Y-56153316D01*
X120343165Y-56162300D01*
X120317297Y-56168780D01*
X120290919Y-56172693D01*
X120264284Y-56174001D01*
X119557760Y-56174001D01*
X119531125Y-56172693D01*
X119504747Y-56168780D01*
X119478879Y-56162300D01*
X119453770Y-56153316D01*
X119429664Y-56141915D01*
X119406790Y-56128205D01*
X119385371Y-56112319D01*
X119365612Y-56094411D01*
X119347704Y-56074652D01*
X119331818Y-56053233D01*
X119318108Y-56030359D01*
X119306707Y-56006253D01*
X119297723Y-55981144D01*
X119291243Y-55955276D01*
X119287330Y-55928898D01*
X119286022Y-55902263D01*
X119286022Y-54945739D01*
X119287330Y-54919104D01*
X119291243Y-54892726D01*
X119297723Y-54866858D01*
X119306707Y-54841749D01*
X119318108Y-54817643D01*
X119331818Y-54794769D01*
X119347704Y-54773350D01*
X119365612Y-54753591D01*
X119385371Y-54735683D01*
X119406790Y-54719797D01*
X119429664Y-54706087D01*
X119453770Y-54694686D01*
X119478879Y-54685702D01*
X119504747Y-54679222D01*
X119531125Y-54675309D01*
X119557760Y-54674001D01*
X120264284Y-54674001D01*
X120290919Y-54675309D01*
G37*
G04 #@! TD*
G04 #@! TO.C,R7*
G36*
X113420919Y-54675309D02*
G01*
X113447297Y-54679222D01*
X113473165Y-54685702D01*
X113498274Y-54694686D01*
X113522380Y-54706087D01*
X113545254Y-54719797D01*
X113566673Y-54735683D01*
X113586432Y-54753591D01*
X113604340Y-54773350D01*
X113620226Y-54794769D01*
X113633936Y-54817643D01*
X113645337Y-54841749D01*
X113654321Y-54866858D01*
X113660801Y-54892726D01*
X113664714Y-54919104D01*
X113666022Y-54945739D01*
X113666022Y-55902263D01*
X113664714Y-55928898D01*
X113660801Y-55955276D01*
X113654321Y-55981144D01*
X113645337Y-56006253D01*
X113633936Y-56030359D01*
X113620226Y-56053233D01*
X113604340Y-56074652D01*
X113586432Y-56094411D01*
X113566673Y-56112319D01*
X113545254Y-56128205D01*
X113522380Y-56141915D01*
X113498274Y-56153316D01*
X113473165Y-56162300D01*
X113447297Y-56168780D01*
X113420919Y-56172693D01*
X113394284Y-56174001D01*
X112687760Y-56174001D01*
X112661125Y-56172693D01*
X112634747Y-56168780D01*
X112608879Y-56162300D01*
X112583770Y-56153316D01*
X112559664Y-56141915D01*
X112536790Y-56128205D01*
X112515371Y-56112319D01*
X112495612Y-56094411D01*
X112477704Y-56074652D01*
X112461818Y-56053233D01*
X112448108Y-56030359D01*
X112436707Y-56006253D01*
X112427723Y-55981144D01*
X112421243Y-55955276D01*
X112417330Y-55928898D01*
X112416022Y-55902263D01*
X112416022Y-54945739D01*
X112417330Y-54919104D01*
X112421243Y-54892726D01*
X112427723Y-54866858D01*
X112436707Y-54841749D01*
X112448108Y-54817643D01*
X112461818Y-54794769D01*
X112477704Y-54773350D01*
X112495612Y-54753591D01*
X112515371Y-54735683D01*
X112536790Y-54719797D01*
X112559664Y-54706087D01*
X112583770Y-54694686D01*
X112608879Y-54685702D01*
X112634747Y-54679222D01*
X112661125Y-54675309D01*
X112687760Y-54674001D01*
X113394284Y-54674001D01*
X113420919Y-54675309D01*
G37*
G36*
X115470919Y-54675309D02*
G01*
X115497297Y-54679222D01*
X115523165Y-54685702D01*
X115548274Y-54694686D01*
X115572380Y-54706087D01*
X115595254Y-54719797D01*
X115616673Y-54735683D01*
X115636432Y-54753591D01*
X115654340Y-54773350D01*
X115670226Y-54794769D01*
X115683936Y-54817643D01*
X115695337Y-54841749D01*
X115704321Y-54866858D01*
X115710801Y-54892726D01*
X115714714Y-54919104D01*
X115716022Y-54945739D01*
X115716022Y-55902263D01*
X115714714Y-55928898D01*
X115710801Y-55955276D01*
X115704321Y-55981144D01*
X115695337Y-56006253D01*
X115683936Y-56030359D01*
X115670226Y-56053233D01*
X115654340Y-56074652D01*
X115636432Y-56094411D01*
X115616673Y-56112319D01*
X115595254Y-56128205D01*
X115572380Y-56141915D01*
X115548274Y-56153316D01*
X115523165Y-56162300D01*
X115497297Y-56168780D01*
X115470919Y-56172693D01*
X115444284Y-56174001D01*
X114737760Y-56174001D01*
X114711125Y-56172693D01*
X114684747Y-56168780D01*
X114658879Y-56162300D01*
X114633770Y-56153316D01*
X114609664Y-56141915D01*
X114586790Y-56128205D01*
X114565371Y-56112319D01*
X114545612Y-56094411D01*
X114527704Y-56074652D01*
X114511818Y-56053233D01*
X114498108Y-56030359D01*
X114486707Y-56006253D01*
X114477723Y-55981144D01*
X114471243Y-55955276D01*
X114467330Y-55928898D01*
X114466022Y-55902263D01*
X114466022Y-54945739D01*
X114467330Y-54919104D01*
X114471243Y-54892726D01*
X114477723Y-54866858D01*
X114486707Y-54841749D01*
X114498108Y-54817643D01*
X114511818Y-54794769D01*
X114527704Y-54773350D01*
X114545612Y-54753591D01*
X114565371Y-54735683D01*
X114586790Y-54719797D01*
X114609664Y-54706087D01*
X114633770Y-54694686D01*
X114658879Y-54685702D01*
X114684747Y-54679222D01*
X114711125Y-54675309D01*
X114737760Y-54674001D01*
X115444284Y-54674001D01*
X115470919Y-54675309D01*
G37*
G04 #@! TD*
D14*
G04 #@! TO.C,J2*
X124786022Y-52032001D03*
X122016022Y-52032001D03*
X119246022Y-52032001D03*
X116476022Y-52032001D03*
X113706022Y-52032001D03*
X110936022Y-52032001D03*
X108166022Y-52032001D03*
X105396022Y-52032001D03*
X102626022Y-52032001D03*
X99856022Y-52032001D03*
X97086022Y-52032001D03*
X94316022Y-52032001D03*
G04 #@! TD*
D11*
G04 #@! TO.C,JP7*
G36*
X58214846Y-65753040D02*
G01*
X58205467Y-65750195D01*
X58196822Y-65745574D01*
X58189246Y-65739356D01*
X58183028Y-65731780D01*
X58178407Y-65723135D01*
X58175562Y-65713756D01*
X58174601Y-65704001D01*
X58174601Y-64204001D01*
X58175562Y-64194246D01*
X58178407Y-64184867D01*
X58183028Y-64176222D01*
X58189246Y-64168646D01*
X58196822Y-64162428D01*
X58205467Y-64157807D01*
X58214846Y-64154962D01*
X58224601Y-64154001D01*
X58724601Y-64154001D01*
X58730712Y-64154603D01*
X58749135Y-64154603D01*
X58754036Y-64154844D01*
X58802867Y-64159654D01*
X58807720Y-64160374D01*
X58855845Y-64169946D01*
X58860606Y-64171138D01*
X58907561Y-64185382D01*
X58912180Y-64187035D01*
X58957513Y-64205812D01*
X58961950Y-64207910D01*
X59005223Y-64231041D01*
X59009430Y-64233563D01*
X59050229Y-64260823D01*
X59054171Y-64263747D01*
X59092100Y-64294875D01*
X59095735Y-64298170D01*
X59130432Y-64332867D01*
X59133727Y-64336502D01*
X59164855Y-64374431D01*
X59167779Y-64378373D01*
X59195039Y-64419172D01*
X59197561Y-64423379D01*
X59220692Y-64466652D01*
X59222790Y-64471089D01*
X59241567Y-64516422D01*
X59243220Y-64521041D01*
X59257464Y-64567996D01*
X59258656Y-64572757D01*
X59268228Y-64620882D01*
X59268948Y-64625735D01*
X59273758Y-64674566D01*
X59273999Y-64679467D01*
X59273999Y-64697890D01*
X59274601Y-64704001D01*
X59274601Y-65204001D01*
X59273999Y-65210112D01*
X59273999Y-65228535D01*
X59273758Y-65233436D01*
X59268948Y-65282267D01*
X59268228Y-65287120D01*
X59258656Y-65335245D01*
X59257464Y-65340006D01*
X59243220Y-65386961D01*
X59241567Y-65391580D01*
X59222790Y-65436913D01*
X59220692Y-65441350D01*
X59197561Y-65484623D01*
X59195039Y-65488830D01*
X59167779Y-65529629D01*
X59164855Y-65533571D01*
X59133727Y-65571500D01*
X59130432Y-65575135D01*
X59095735Y-65609832D01*
X59092100Y-65613127D01*
X59054171Y-65644255D01*
X59050229Y-65647179D01*
X59009430Y-65674439D01*
X59005223Y-65676961D01*
X58961950Y-65700092D01*
X58957513Y-65702190D01*
X58912180Y-65720967D01*
X58907561Y-65722620D01*
X58860606Y-65736864D01*
X58855845Y-65738056D01*
X58807720Y-65747628D01*
X58802867Y-65748348D01*
X58754036Y-65753158D01*
X58749135Y-65753399D01*
X58730712Y-65753399D01*
X58724601Y-65754001D01*
X58224601Y-65754001D01*
X58214846Y-65753040D01*
G37*
G36*
X57418490Y-65753399D02*
G01*
X57400067Y-65753399D01*
X57395166Y-65753158D01*
X57346335Y-65748348D01*
X57341482Y-65747628D01*
X57293357Y-65738056D01*
X57288596Y-65736864D01*
X57241641Y-65722620D01*
X57237022Y-65720967D01*
X57191689Y-65702190D01*
X57187252Y-65700092D01*
X57143979Y-65676961D01*
X57139772Y-65674439D01*
X57098973Y-65647179D01*
X57095031Y-65644255D01*
X57057102Y-65613127D01*
X57053467Y-65609832D01*
X57018770Y-65575135D01*
X57015475Y-65571500D01*
X56984347Y-65533571D01*
X56981423Y-65529629D01*
X56954163Y-65488830D01*
X56951641Y-65484623D01*
X56928510Y-65441350D01*
X56926412Y-65436913D01*
X56907635Y-65391580D01*
X56905982Y-65386961D01*
X56891738Y-65340006D01*
X56890546Y-65335245D01*
X56880974Y-65287120D01*
X56880254Y-65282267D01*
X56875444Y-65233436D01*
X56875203Y-65228535D01*
X56875203Y-65210112D01*
X56874601Y-65204001D01*
X56874601Y-64704001D01*
X56875203Y-64697890D01*
X56875203Y-64679467D01*
X56875444Y-64674566D01*
X56880254Y-64625735D01*
X56880974Y-64620882D01*
X56890546Y-64572757D01*
X56891738Y-64567996D01*
X56905982Y-64521041D01*
X56907635Y-64516422D01*
X56926412Y-64471089D01*
X56928510Y-64466652D01*
X56951641Y-64423379D01*
X56954163Y-64419172D01*
X56981423Y-64378373D01*
X56984347Y-64374431D01*
X57015475Y-64336502D01*
X57018770Y-64332867D01*
X57053467Y-64298170D01*
X57057102Y-64294875D01*
X57095031Y-64263747D01*
X57098973Y-64260823D01*
X57139772Y-64233563D01*
X57143979Y-64231041D01*
X57187252Y-64207910D01*
X57191689Y-64205812D01*
X57237022Y-64187035D01*
X57241641Y-64185382D01*
X57288596Y-64171138D01*
X57293357Y-64169946D01*
X57341482Y-64160374D01*
X57346335Y-64159654D01*
X57395166Y-64154844D01*
X57400067Y-64154603D01*
X57418490Y-64154603D01*
X57424601Y-64154001D01*
X57924601Y-64154001D01*
X57934356Y-64154962D01*
X57943735Y-64157807D01*
X57952380Y-64162428D01*
X57959956Y-64168646D01*
X57966174Y-64176222D01*
X57970795Y-64184867D01*
X57973640Y-64194246D01*
X57974601Y-64204001D01*
X57974601Y-65704001D01*
X57973640Y-65713756D01*
X57970795Y-65723135D01*
X57966174Y-65731780D01*
X57959956Y-65739356D01*
X57952380Y-65745574D01*
X57943735Y-65750195D01*
X57934356Y-65753040D01*
X57924601Y-65754001D01*
X57424601Y-65754001D01*
X57418490Y-65753399D01*
G37*
G04 #@! TD*
D12*
G04 #@! TO.C,J1*
X75847501Y-62954001D03*
D13*
X75847501Y-64954001D03*
X73847501Y-62954001D03*
X73847501Y-64954001D03*
X71847501Y-62954001D03*
X71847501Y-64954001D03*
X69847501Y-62954001D03*
X69847501Y-64954001D03*
X67847501Y-62954001D03*
X67847501Y-64954001D03*
X65847501Y-62954001D03*
X65847501Y-64954001D03*
X63847501Y-62954001D03*
X63847501Y-64954001D03*
X61847501Y-62954001D03*
X61847501Y-64954001D03*
G04 #@! TD*
D11*
G04 #@! TO.C,R1*
G36*
X56097398Y-54585309D02*
G01*
X56123776Y-54589222D01*
X56149644Y-54595702D01*
X56174753Y-54604686D01*
X56198859Y-54616087D01*
X56221733Y-54629797D01*
X56243152Y-54645683D01*
X56262911Y-54663591D01*
X56280819Y-54683350D01*
X56296705Y-54704769D01*
X56310415Y-54727643D01*
X56321816Y-54751749D01*
X56330800Y-54776858D01*
X56337280Y-54802726D01*
X56341193Y-54829104D01*
X56342501Y-54855739D01*
X56342501Y-55812263D01*
X56341193Y-55838898D01*
X56337280Y-55865276D01*
X56330800Y-55891144D01*
X56321816Y-55916253D01*
X56310415Y-55940359D01*
X56296705Y-55963233D01*
X56280819Y-55984652D01*
X56262911Y-56004411D01*
X56243152Y-56022319D01*
X56221733Y-56038205D01*
X56198859Y-56051915D01*
X56174753Y-56063316D01*
X56149644Y-56072300D01*
X56123776Y-56078780D01*
X56097398Y-56082693D01*
X56070763Y-56084001D01*
X55364239Y-56084001D01*
X55337604Y-56082693D01*
X55311226Y-56078780D01*
X55285358Y-56072300D01*
X55260249Y-56063316D01*
X55236143Y-56051915D01*
X55213269Y-56038205D01*
X55191850Y-56022319D01*
X55172091Y-56004411D01*
X55154183Y-55984652D01*
X55138297Y-55963233D01*
X55124587Y-55940359D01*
X55113186Y-55916253D01*
X55104202Y-55891144D01*
X55097722Y-55865276D01*
X55093809Y-55838898D01*
X55092501Y-55812263D01*
X55092501Y-54855739D01*
X55093809Y-54829104D01*
X55097722Y-54802726D01*
X55104202Y-54776858D01*
X55113186Y-54751749D01*
X55124587Y-54727643D01*
X55138297Y-54704769D01*
X55154183Y-54683350D01*
X55172091Y-54663591D01*
X55191850Y-54645683D01*
X55213269Y-54629797D01*
X55236143Y-54616087D01*
X55260249Y-54604686D01*
X55285358Y-54595702D01*
X55311226Y-54589222D01*
X55337604Y-54585309D01*
X55364239Y-54584001D01*
X56070763Y-54584001D01*
X56097398Y-54585309D01*
G37*
G36*
X58147398Y-54585309D02*
G01*
X58173776Y-54589222D01*
X58199644Y-54595702D01*
X58224753Y-54604686D01*
X58248859Y-54616087D01*
X58271733Y-54629797D01*
X58293152Y-54645683D01*
X58312911Y-54663591D01*
X58330819Y-54683350D01*
X58346705Y-54704769D01*
X58360415Y-54727643D01*
X58371816Y-54751749D01*
X58380800Y-54776858D01*
X58387280Y-54802726D01*
X58391193Y-54829104D01*
X58392501Y-54855739D01*
X58392501Y-55812263D01*
X58391193Y-55838898D01*
X58387280Y-55865276D01*
X58380800Y-55891144D01*
X58371816Y-55916253D01*
X58360415Y-55940359D01*
X58346705Y-55963233D01*
X58330819Y-55984652D01*
X58312911Y-56004411D01*
X58293152Y-56022319D01*
X58271733Y-56038205D01*
X58248859Y-56051915D01*
X58224753Y-56063316D01*
X58199644Y-56072300D01*
X58173776Y-56078780D01*
X58147398Y-56082693D01*
X58120763Y-56084001D01*
X57414239Y-56084001D01*
X57387604Y-56082693D01*
X57361226Y-56078780D01*
X57335358Y-56072300D01*
X57310249Y-56063316D01*
X57286143Y-56051915D01*
X57263269Y-56038205D01*
X57241850Y-56022319D01*
X57222091Y-56004411D01*
X57204183Y-55984652D01*
X57188297Y-55963233D01*
X57174587Y-55940359D01*
X57163186Y-55916253D01*
X57154202Y-55891144D01*
X57147722Y-55865276D01*
X57143809Y-55838898D01*
X57142501Y-55812263D01*
X57142501Y-54855739D01*
X57143809Y-54829104D01*
X57147722Y-54802726D01*
X57154202Y-54776858D01*
X57163186Y-54751749D01*
X57174587Y-54727643D01*
X57188297Y-54704769D01*
X57204183Y-54683350D01*
X57222091Y-54663591D01*
X57241850Y-54645683D01*
X57263269Y-54629797D01*
X57286143Y-54616087D01*
X57310249Y-54604686D01*
X57335358Y-54595702D01*
X57361226Y-54589222D01*
X57387604Y-54585309D01*
X57414239Y-54584001D01*
X58120763Y-54584001D01*
X58147398Y-54585309D01*
G37*
G04 #@! TD*
G04 #@! TO.C,R2*
G36*
X83077398Y-54675309D02*
G01*
X83103776Y-54679222D01*
X83129644Y-54685702D01*
X83154753Y-54694686D01*
X83178859Y-54706087D01*
X83201733Y-54719797D01*
X83223152Y-54735683D01*
X83242911Y-54753591D01*
X83260819Y-54773350D01*
X83276705Y-54794769D01*
X83290415Y-54817643D01*
X83301816Y-54841749D01*
X83310800Y-54866858D01*
X83317280Y-54892726D01*
X83321193Y-54919104D01*
X83322501Y-54945739D01*
X83322501Y-55902263D01*
X83321193Y-55928898D01*
X83317280Y-55955276D01*
X83310800Y-55981144D01*
X83301816Y-56006253D01*
X83290415Y-56030359D01*
X83276705Y-56053233D01*
X83260819Y-56074652D01*
X83242911Y-56094411D01*
X83223152Y-56112319D01*
X83201733Y-56128205D01*
X83178859Y-56141915D01*
X83154753Y-56153316D01*
X83129644Y-56162300D01*
X83103776Y-56168780D01*
X83077398Y-56172693D01*
X83050763Y-56174001D01*
X82344239Y-56174001D01*
X82317604Y-56172693D01*
X82291226Y-56168780D01*
X82265358Y-56162300D01*
X82240249Y-56153316D01*
X82216143Y-56141915D01*
X82193269Y-56128205D01*
X82171850Y-56112319D01*
X82152091Y-56094411D01*
X82134183Y-56074652D01*
X82118297Y-56053233D01*
X82104587Y-56030359D01*
X82093186Y-56006253D01*
X82084202Y-55981144D01*
X82077722Y-55955276D01*
X82073809Y-55928898D01*
X82072501Y-55902263D01*
X82072501Y-54945739D01*
X82073809Y-54919104D01*
X82077722Y-54892726D01*
X82084202Y-54866858D01*
X82093186Y-54841749D01*
X82104587Y-54817643D01*
X82118297Y-54794769D01*
X82134183Y-54773350D01*
X82152091Y-54753591D01*
X82171850Y-54735683D01*
X82193269Y-54719797D01*
X82216143Y-54706087D01*
X82240249Y-54694686D01*
X82265358Y-54685702D01*
X82291226Y-54679222D01*
X82317604Y-54675309D01*
X82344239Y-54674001D01*
X83050763Y-54674001D01*
X83077398Y-54675309D01*
G37*
G36*
X85127398Y-54675309D02*
G01*
X85153776Y-54679222D01*
X85179644Y-54685702D01*
X85204753Y-54694686D01*
X85228859Y-54706087D01*
X85251733Y-54719797D01*
X85273152Y-54735683D01*
X85292911Y-54753591D01*
X85310819Y-54773350D01*
X85326705Y-54794769D01*
X85340415Y-54817643D01*
X85351816Y-54841749D01*
X85360800Y-54866858D01*
X85367280Y-54892726D01*
X85371193Y-54919104D01*
X85372501Y-54945739D01*
X85372501Y-55902263D01*
X85371193Y-55928898D01*
X85367280Y-55955276D01*
X85360800Y-55981144D01*
X85351816Y-56006253D01*
X85340415Y-56030359D01*
X85326705Y-56053233D01*
X85310819Y-56074652D01*
X85292911Y-56094411D01*
X85273152Y-56112319D01*
X85251733Y-56128205D01*
X85228859Y-56141915D01*
X85204753Y-56153316D01*
X85179644Y-56162300D01*
X85153776Y-56168780D01*
X85127398Y-56172693D01*
X85100763Y-56174001D01*
X84394239Y-56174001D01*
X84367604Y-56172693D01*
X84341226Y-56168780D01*
X84315358Y-56162300D01*
X84290249Y-56153316D01*
X84266143Y-56141915D01*
X84243269Y-56128205D01*
X84221850Y-56112319D01*
X84202091Y-56094411D01*
X84184183Y-56074652D01*
X84168297Y-56053233D01*
X84154587Y-56030359D01*
X84143186Y-56006253D01*
X84134202Y-55981144D01*
X84127722Y-55955276D01*
X84123809Y-55928898D01*
X84122501Y-55902263D01*
X84122501Y-54945739D01*
X84123809Y-54919104D01*
X84127722Y-54892726D01*
X84134202Y-54866858D01*
X84143186Y-54841749D01*
X84154587Y-54817643D01*
X84168297Y-54794769D01*
X84184183Y-54773350D01*
X84202091Y-54753591D01*
X84221850Y-54735683D01*
X84243269Y-54719797D01*
X84266143Y-54706087D01*
X84290249Y-54694686D01*
X84315358Y-54685702D01*
X84341226Y-54679222D01*
X84367604Y-54675309D01*
X84394239Y-54674001D01*
X85100763Y-54674001D01*
X85127398Y-54675309D01*
G37*
G04 #@! TD*
G04 #@! TO.C,R3*
G36*
X62979498Y-54675309D02*
G01*
X63005876Y-54679222D01*
X63031744Y-54685702D01*
X63056853Y-54694686D01*
X63080959Y-54706087D01*
X63103833Y-54719797D01*
X63125252Y-54735683D01*
X63145011Y-54753591D01*
X63162919Y-54773350D01*
X63178805Y-54794769D01*
X63192515Y-54817643D01*
X63203916Y-54841749D01*
X63212900Y-54866858D01*
X63219380Y-54892726D01*
X63223293Y-54919104D01*
X63224601Y-54945739D01*
X63224601Y-55902263D01*
X63223293Y-55928898D01*
X63219380Y-55955276D01*
X63212900Y-55981144D01*
X63203916Y-56006253D01*
X63192515Y-56030359D01*
X63178805Y-56053233D01*
X63162919Y-56074652D01*
X63145011Y-56094411D01*
X63125252Y-56112319D01*
X63103833Y-56128205D01*
X63080959Y-56141915D01*
X63056853Y-56153316D01*
X63031744Y-56162300D01*
X63005876Y-56168780D01*
X62979498Y-56172693D01*
X62952863Y-56174001D01*
X62246339Y-56174001D01*
X62219704Y-56172693D01*
X62193326Y-56168780D01*
X62167458Y-56162300D01*
X62142349Y-56153316D01*
X62118243Y-56141915D01*
X62095369Y-56128205D01*
X62073950Y-56112319D01*
X62054191Y-56094411D01*
X62036283Y-56074652D01*
X62020397Y-56053233D01*
X62006687Y-56030359D01*
X61995286Y-56006253D01*
X61986302Y-55981144D01*
X61979822Y-55955276D01*
X61975909Y-55928898D01*
X61974601Y-55902263D01*
X61974601Y-54945739D01*
X61975909Y-54919104D01*
X61979822Y-54892726D01*
X61986302Y-54866858D01*
X61995286Y-54841749D01*
X62006687Y-54817643D01*
X62020397Y-54794769D01*
X62036283Y-54773350D01*
X62054191Y-54753591D01*
X62073950Y-54735683D01*
X62095369Y-54719797D01*
X62118243Y-54706087D01*
X62142349Y-54694686D01*
X62167458Y-54685702D01*
X62193326Y-54679222D01*
X62219704Y-54675309D01*
X62246339Y-54674001D01*
X62952863Y-54674001D01*
X62979498Y-54675309D01*
G37*
G36*
X60929498Y-54675309D02*
G01*
X60955876Y-54679222D01*
X60981744Y-54685702D01*
X61006853Y-54694686D01*
X61030959Y-54706087D01*
X61053833Y-54719797D01*
X61075252Y-54735683D01*
X61095011Y-54753591D01*
X61112919Y-54773350D01*
X61128805Y-54794769D01*
X61142515Y-54817643D01*
X61153916Y-54841749D01*
X61162900Y-54866858D01*
X61169380Y-54892726D01*
X61173293Y-54919104D01*
X61174601Y-54945739D01*
X61174601Y-55902263D01*
X61173293Y-55928898D01*
X61169380Y-55955276D01*
X61162900Y-55981144D01*
X61153916Y-56006253D01*
X61142515Y-56030359D01*
X61128805Y-56053233D01*
X61112919Y-56074652D01*
X61095011Y-56094411D01*
X61075252Y-56112319D01*
X61053833Y-56128205D01*
X61030959Y-56141915D01*
X61006853Y-56153316D01*
X60981744Y-56162300D01*
X60955876Y-56168780D01*
X60929498Y-56172693D01*
X60902863Y-56174001D01*
X60196339Y-56174001D01*
X60169704Y-56172693D01*
X60143326Y-56168780D01*
X60117458Y-56162300D01*
X60092349Y-56153316D01*
X60068243Y-56141915D01*
X60045369Y-56128205D01*
X60023950Y-56112319D01*
X60004191Y-56094411D01*
X59986283Y-56074652D01*
X59970397Y-56053233D01*
X59956687Y-56030359D01*
X59945286Y-56006253D01*
X59936302Y-55981144D01*
X59929822Y-55955276D01*
X59925909Y-55928898D01*
X59924601Y-55902263D01*
X59924601Y-54945739D01*
X59925909Y-54919104D01*
X59929822Y-54892726D01*
X59936302Y-54866858D01*
X59945286Y-54841749D01*
X59956687Y-54817643D01*
X59970397Y-54794769D01*
X59986283Y-54773350D01*
X60004191Y-54753591D01*
X60023950Y-54735683D01*
X60045369Y-54719797D01*
X60068243Y-54706087D01*
X60092349Y-54694686D01*
X60117458Y-54685702D01*
X60143326Y-54679222D01*
X60169704Y-54675309D01*
X60196339Y-54674001D01*
X60902863Y-54674001D01*
X60929498Y-54675309D01*
G37*
G04 #@! TD*
G04 #@! TO.C,R4*
G36*
X81220498Y-56425309D02*
G01*
X81246876Y-56429222D01*
X81272744Y-56435702D01*
X81297853Y-56444686D01*
X81321959Y-56456087D01*
X81344833Y-56469797D01*
X81366252Y-56485683D01*
X81386011Y-56503591D01*
X81403919Y-56523350D01*
X81419805Y-56544769D01*
X81433515Y-56567643D01*
X81444916Y-56591749D01*
X81453900Y-56616858D01*
X81460380Y-56642726D01*
X81464293Y-56669104D01*
X81465601Y-56695739D01*
X81465601Y-57652263D01*
X81464293Y-57678898D01*
X81460380Y-57705276D01*
X81453900Y-57731144D01*
X81444916Y-57756253D01*
X81433515Y-57780359D01*
X81419805Y-57803233D01*
X81403919Y-57824652D01*
X81386011Y-57844411D01*
X81366252Y-57862319D01*
X81344833Y-57878205D01*
X81321959Y-57891915D01*
X81297853Y-57903316D01*
X81272744Y-57912300D01*
X81246876Y-57918780D01*
X81220498Y-57922693D01*
X81193863Y-57924001D01*
X80487339Y-57924001D01*
X80460704Y-57922693D01*
X80434326Y-57918780D01*
X80408458Y-57912300D01*
X80383349Y-57903316D01*
X80359243Y-57891915D01*
X80336369Y-57878205D01*
X80314950Y-57862319D01*
X80295191Y-57844411D01*
X80277283Y-57824652D01*
X80261397Y-57803233D01*
X80247687Y-57780359D01*
X80236286Y-57756253D01*
X80227302Y-57731144D01*
X80220822Y-57705276D01*
X80216909Y-57678898D01*
X80215601Y-57652263D01*
X80215601Y-56695739D01*
X80216909Y-56669104D01*
X80220822Y-56642726D01*
X80227302Y-56616858D01*
X80236286Y-56591749D01*
X80247687Y-56567643D01*
X80261397Y-56544769D01*
X80277283Y-56523350D01*
X80295191Y-56503591D01*
X80314950Y-56485683D01*
X80336369Y-56469797D01*
X80359243Y-56456087D01*
X80383349Y-56444686D01*
X80408458Y-56435702D01*
X80434326Y-56429222D01*
X80460704Y-56425309D01*
X80487339Y-56424001D01*
X81193863Y-56424001D01*
X81220498Y-56425309D01*
G37*
G36*
X83270498Y-56425309D02*
G01*
X83296876Y-56429222D01*
X83322744Y-56435702D01*
X83347853Y-56444686D01*
X83371959Y-56456087D01*
X83394833Y-56469797D01*
X83416252Y-56485683D01*
X83436011Y-56503591D01*
X83453919Y-56523350D01*
X83469805Y-56544769D01*
X83483515Y-56567643D01*
X83494916Y-56591749D01*
X83503900Y-56616858D01*
X83510380Y-56642726D01*
X83514293Y-56669104D01*
X83515601Y-56695739D01*
X83515601Y-57652263D01*
X83514293Y-57678898D01*
X83510380Y-57705276D01*
X83503900Y-57731144D01*
X83494916Y-57756253D01*
X83483515Y-57780359D01*
X83469805Y-57803233D01*
X83453919Y-57824652D01*
X83436011Y-57844411D01*
X83416252Y-57862319D01*
X83394833Y-57878205D01*
X83371959Y-57891915D01*
X83347853Y-57903316D01*
X83322744Y-57912300D01*
X83296876Y-57918780D01*
X83270498Y-57922693D01*
X83243863Y-57924001D01*
X82537339Y-57924001D01*
X82510704Y-57922693D01*
X82484326Y-57918780D01*
X82458458Y-57912300D01*
X82433349Y-57903316D01*
X82409243Y-57891915D01*
X82386369Y-57878205D01*
X82364950Y-57862319D01*
X82345191Y-57844411D01*
X82327283Y-57824652D01*
X82311397Y-57803233D01*
X82297687Y-57780359D01*
X82286286Y-57756253D01*
X82277302Y-57731144D01*
X82270822Y-57705276D01*
X82266909Y-57678898D01*
X82265601Y-57652263D01*
X82265601Y-56695739D01*
X82266909Y-56669104D01*
X82270822Y-56642726D01*
X82277302Y-56616858D01*
X82286286Y-56591749D01*
X82297687Y-56567643D01*
X82311397Y-56544769D01*
X82327283Y-56523350D01*
X82345191Y-56503591D01*
X82364950Y-56485683D01*
X82386369Y-56469797D01*
X82409243Y-56456087D01*
X82433349Y-56444686D01*
X82458458Y-56435702D01*
X82484326Y-56429222D01*
X82510704Y-56425309D01*
X82537339Y-56424001D01*
X83243863Y-56424001D01*
X83270498Y-56425309D01*
G37*
G04 #@! TD*
G04 #@! TO.C,R5*
G36*
X68679498Y-54675309D02*
G01*
X68705876Y-54679222D01*
X68731744Y-54685702D01*
X68756853Y-54694686D01*
X68780959Y-54706087D01*
X68803833Y-54719797D01*
X68825252Y-54735683D01*
X68845011Y-54753591D01*
X68862919Y-54773350D01*
X68878805Y-54794769D01*
X68892515Y-54817643D01*
X68903916Y-54841749D01*
X68912900Y-54866858D01*
X68919380Y-54892726D01*
X68923293Y-54919104D01*
X68924601Y-54945739D01*
X68924601Y-55902263D01*
X68923293Y-55928898D01*
X68919380Y-55955276D01*
X68912900Y-55981144D01*
X68903916Y-56006253D01*
X68892515Y-56030359D01*
X68878805Y-56053233D01*
X68862919Y-56074652D01*
X68845011Y-56094411D01*
X68825252Y-56112319D01*
X68803833Y-56128205D01*
X68780959Y-56141915D01*
X68756853Y-56153316D01*
X68731744Y-56162300D01*
X68705876Y-56168780D01*
X68679498Y-56172693D01*
X68652863Y-56174001D01*
X67946339Y-56174001D01*
X67919704Y-56172693D01*
X67893326Y-56168780D01*
X67867458Y-56162300D01*
X67842349Y-56153316D01*
X67818243Y-56141915D01*
X67795369Y-56128205D01*
X67773950Y-56112319D01*
X67754191Y-56094411D01*
X67736283Y-56074652D01*
X67720397Y-56053233D01*
X67706687Y-56030359D01*
X67695286Y-56006253D01*
X67686302Y-55981144D01*
X67679822Y-55955276D01*
X67675909Y-55928898D01*
X67674601Y-55902263D01*
X67674601Y-54945739D01*
X67675909Y-54919104D01*
X67679822Y-54892726D01*
X67686302Y-54866858D01*
X67695286Y-54841749D01*
X67706687Y-54817643D01*
X67720397Y-54794769D01*
X67736283Y-54773350D01*
X67754191Y-54753591D01*
X67773950Y-54735683D01*
X67795369Y-54719797D01*
X67818243Y-54706087D01*
X67842349Y-54694686D01*
X67867458Y-54685702D01*
X67893326Y-54679222D01*
X67919704Y-54675309D01*
X67946339Y-54674001D01*
X68652863Y-54674001D01*
X68679498Y-54675309D01*
G37*
G36*
X70729498Y-54675309D02*
G01*
X70755876Y-54679222D01*
X70781744Y-54685702D01*
X70806853Y-54694686D01*
X70830959Y-54706087D01*
X70853833Y-54719797D01*
X70875252Y-54735683D01*
X70895011Y-54753591D01*
X70912919Y-54773350D01*
X70928805Y-54794769D01*
X70942515Y-54817643D01*
X70953916Y-54841749D01*
X70962900Y-54866858D01*
X70969380Y-54892726D01*
X70973293Y-54919104D01*
X70974601Y-54945739D01*
X70974601Y-55902263D01*
X70973293Y-55928898D01*
X70969380Y-55955276D01*
X70962900Y-55981144D01*
X70953916Y-56006253D01*
X70942515Y-56030359D01*
X70928805Y-56053233D01*
X70912919Y-56074652D01*
X70895011Y-56094411D01*
X70875252Y-56112319D01*
X70853833Y-56128205D01*
X70830959Y-56141915D01*
X70806853Y-56153316D01*
X70781744Y-56162300D01*
X70755876Y-56168780D01*
X70729498Y-56172693D01*
X70702863Y-56174001D01*
X69996339Y-56174001D01*
X69969704Y-56172693D01*
X69943326Y-56168780D01*
X69917458Y-56162300D01*
X69892349Y-56153316D01*
X69868243Y-56141915D01*
X69845369Y-56128205D01*
X69823950Y-56112319D01*
X69804191Y-56094411D01*
X69786283Y-56074652D01*
X69770397Y-56053233D01*
X69756687Y-56030359D01*
X69745286Y-56006253D01*
X69736302Y-55981144D01*
X69729822Y-55955276D01*
X69725909Y-55928898D01*
X69724601Y-55902263D01*
X69724601Y-54945739D01*
X69725909Y-54919104D01*
X69729822Y-54892726D01*
X69736302Y-54866858D01*
X69745286Y-54841749D01*
X69756687Y-54817643D01*
X69770397Y-54794769D01*
X69786283Y-54773350D01*
X69804191Y-54753591D01*
X69823950Y-54735683D01*
X69845369Y-54719797D01*
X69868243Y-54706087D01*
X69892349Y-54694686D01*
X69917458Y-54685702D01*
X69943326Y-54679222D01*
X69969704Y-54675309D01*
X69996339Y-54674001D01*
X70702863Y-54674001D01*
X70729498Y-54675309D01*
G37*
G04 #@! TD*
G04 #@! TO.C,R6*
G36*
X77537398Y-54675309D02*
G01*
X77563776Y-54679222D01*
X77589644Y-54685702D01*
X77614753Y-54694686D01*
X77638859Y-54706087D01*
X77661733Y-54719797D01*
X77683152Y-54735683D01*
X77702911Y-54753591D01*
X77720819Y-54773350D01*
X77736705Y-54794769D01*
X77750415Y-54817643D01*
X77761816Y-54841749D01*
X77770800Y-54866858D01*
X77777280Y-54892726D01*
X77781193Y-54919104D01*
X77782501Y-54945739D01*
X77782501Y-55902263D01*
X77781193Y-55928898D01*
X77777280Y-55955276D01*
X77770800Y-55981144D01*
X77761816Y-56006253D01*
X77750415Y-56030359D01*
X77736705Y-56053233D01*
X77720819Y-56074652D01*
X77702911Y-56094411D01*
X77683152Y-56112319D01*
X77661733Y-56128205D01*
X77638859Y-56141915D01*
X77614753Y-56153316D01*
X77589644Y-56162300D01*
X77563776Y-56168780D01*
X77537398Y-56172693D01*
X77510763Y-56174001D01*
X76804239Y-56174001D01*
X76777604Y-56172693D01*
X76751226Y-56168780D01*
X76725358Y-56162300D01*
X76700249Y-56153316D01*
X76676143Y-56141915D01*
X76653269Y-56128205D01*
X76631850Y-56112319D01*
X76612091Y-56094411D01*
X76594183Y-56074652D01*
X76578297Y-56053233D01*
X76564587Y-56030359D01*
X76553186Y-56006253D01*
X76544202Y-55981144D01*
X76537722Y-55955276D01*
X76533809Y-55928898D01*
X76532501Y-55902263D01*
X76532501Y-54945739D01*
X76533809Y-54919104D01*
X76537722Y-54892726D01*
X76544202Y-54866858D01*
X76553186Y-54841749D01*
X76564587Y-54817643D01*
X76578297Y-54794769D01*
X76594183Y-54773350D01*
X76612091Y-54753591D01*
X76631850Y-54735683D01*
X76653269Y-54719797D01*
X76676143Y-54706087D01*
X76700249Y-54694686D01*
X76725358Y-54685702D01*
X76751226Y-54679222D01*
X76777604Y-54675309D01*
X76804239Y-54674001D01*
X77510763Y-54674001D01*
X77537398Y-54675309D01*
G37*
G36*
X79587398Y-54675309D02*
G01*
X79613776Y-54679222D01*
X79639644Y-54685702D01*
X79664753Y-54694686D01*
X79688859Y-54706087D01*
X79711733Y-54719797D01*
X79733152Y-54735683D01*
X79752911Y-54753591D01*
X79770819Y-54773350D01*
X79786705Y-54794769D01*
X79800415Y-54817643D01*
X79811816Y-54841749D01*
X79820800Y-54866858D01*
X79827280Y-54892726D01*
X79831193Y-54919104D01*
X79832501Y-54945739D01*
X79832501Y-55902263D01*
X79831193Y-55928898D01*
X79827280Y-55955276D01*
X79820800Y-55981144D01*
X79811816Y-56006253D01*
X79800415Y-56030359D01*
X79786705Y-56053233D01*
X79770819Y-56074652D01*
X79752911Y-56094411D01*
X79733152Y-56112319D01*
X79711733Y-56128205D01*
X79688859Y-56141915D01*
X79664753Y-56153316D01*
X79639644Y-56162300D01*
X79613776Y-56168780D01*
X79587398Y-56172693D01*
X79560763Y-56174001D01*
X78854239Y-56174001D01*
X78827604Y-56172693D01*
X78801226Y-56168780D01*
X78775358Y-56162300D01*
X78750249Y-56153316D01*
X78726143Y-56141915D01*
X78703269Y-56128205D01*
X78681850Y-56112319D01*
X78662091Y-56094411D01*
X78644183Y-56074652D01*
X78628297Y-56053233D01*
X78614587Y-56030359D01*
X78603186Y-56006253D01*
X78594202Y-55981144D01*
X78587722Y-55955276D01*
X78583809Y-55928898D01*
X78582501Y-55902263D01*
X78582501Y-54945739D01*
X78583809Y-54919104D01*
X78587722Y-54892726D01*
X78594202Y-54866858D01*
X78603186Y-54841749D01*
X78614587Y-54817643D01*
X78628297Y-54794769D01*
X78644183Y-54773350D01*
X78662091Y-54753591D01*
X78681850Y-54735683D01*
X78703269Y-54719797D01*
X78726143Y-54706087D01*
X78750249Y-54694686D01*
X78775358Y-54685702D01*
X78801226Y-54679222D01*
X78827604Y-54675309D01*
X78854239Y-54674001D01*
X79560763Y-54674001D01*
X79587398Y-54675309D01*
G37*
G04 #@! TD*
G04 #@! TO.C,R7*
G36*
X72717398Y-54675309D02*
G01*
X72743776Y-54679222D01*
X72769644Y-54685702D01*
X72794753Y-54694686D01*
X72818859Y-54706087D01*
X72841733Y-54719797D01*
X72863152Y-54735683D01*
X72882911Y-54753591D01*
X72900819Y-54773350D01*
X72916705Y-54794769D01*
X72930415Y-54817643D01*
X72941816Y-54841749D01*
X72950800Y-54866858D01*
X72957280Y-54892726D01*
X72961193Y-54919104D01*
X72962501Y-54945739D01*
X72962501Y-55902263D01*
X72961193Y-55928898D01*
X72957280Y-55955276D01*
X72950800Y-55981144D01*
X72941816Y-56006253D01*
X72930415Y-56030359D01*
X72916705Y-56053233D01*
X72900819Y-56074652D01*
X72882911Y-56094411D01*
X72863152Y-56112319D01*
X72841733Y-56128205D01*
X72818859Y-56141915D01*
X72794753Y-56153316D01*
X72769644Y-56162300D01*
X72743776Y-56168780D01*
X72717398Y-56172693D01*
X72690763Y-56174001D01*
X71984239Y-56174001D01*
X71957604Y-56172693D01*
X71931226Y-56168780D01*
X71905358Y-56162300D01*
X71880249Y-56153316D01*
X71856143Y-56141915D01*
X71833269Y-56128205D01*
X71811850Y-56112319D01*
X71792091Y-56094411D01*
X71774183Y-56074652D01*
X71758297Y-56053233D01*
X71744587Y-56030359D01*
X71733186Y-56006253D01*
X71724202Y-55981144D01*
X71717722Y-55955276D01*
X71713809Y-55928898D01*
X71712501Y-55902263D01*
X71712501Y-54945739D01*
X71713809Y-54919104D01*
X71717722Y-54892726D01*
X71724202Y-54866858D01*
X71733186Y-54841749D01*
X71744587Y-54817643D01*
X71758297Y-54794769D01*
X71774183Y-54773350D01*
X71792091Y-54753591D01*
X71811850Y-54735683D01*
X71833269Y-54719797D01*
X71856143Y-54706087D01*
X71880249Y-54694686D01*
X71905358Y-54685702D01*
X71931226Y-54679222D01*
X71957604Y-54675309D01*
X71984239Y-54674001D01*
X72690763Y-54674001D01*
X72717398Y-54675309D01*
G37*
G36*
X74767398Y-54675309D02*
G01*
X74793776Y-54679222D01*
X74819644Y-54685702D01*
X74844753Y-54694686D01*
X74868859Y-54706087D01*
X74891733Y-54719797D01*
X74913152Y-54735683D01*
X74932911Y-54753591D01*
X74950819Y-54773350D01*
X74966705Y-54794769D01*
X74980415Y-54817643D01*
X74991816Y-54841749D01*
X75000800Y-54866858D01*
X75007280Y-54892726D01*
X75011193Y-54919104D01*
X75012501Y-54945739D01*
X75012501Y-55902263D01*
X75011193Y-55928898D01*
X75007280Y-55955276D01*
X75000800Y-55981144D01*
X74991816Y-56006253D01*
X74980415Y-56030359D01*
X74966705Y-56053233D01*
X74950819Y-56074652D01*
X74932911Y-56094411D01*
X74913152Y-56112319D01*
X74891733Y-56128205D01*
X74868859Y-56141915D01*
X74844753Y-56153316D01*
X74819644Y-56162300D01*
X74793776Y-56168780D01*
X74767398Y-56172693D01*
X74740763Y-56174001D01*
X74034239Y-56174001D01*
X74007604Y-56172693D01*
X73981226Y-56168780D01*
X73955358Y-56162300D01*
X73930249Y-56153316D01*
X73906143Y-56141915D01*
X73883269Y-56128205D01*
X73861850Y-56112319D01*
X73842091Y-56094411D01*
X73824183Y-56074652D01*
X73808297Y-56053233D01*
X73794587Y-56030359D01*
X73783186Y-56006253D01*
X73774202Y-55981144D01*
X73767722Y-55955276D01*
X73763809Y-55928898D01*
X73762501Y-55902263D01*
X73762501Y-54945739D01*
X73763809Y-54919104D01*
X73767722Y-54892726D01*
X73774202Y-54866858D01*
X73783186Y-54841749D01*
X73794587Y-54817643D01*
X73808297Y-54794769D01*
X73824183Y-54773350D01*
X73842091Y-54753591D01*
X73861850Y-54735683D01*
X73883269Y-54719797D01*
X73906143Y-54706087D01*
X73930249Y-54694686D01*
X73955358Y-54685702D01*
X73981226Y-54679222D01*
X74007604Y-54675309D01*
X74034239Y-54674001D01*
X74740763Y-54674001D01*
X74767398Y-54675309D01*
G37*
G04 #@! TD*
D14*
G04 #@! TO.C,J2*
X84082501Y-52032001D03*
X81312501Y-52032001D03*
X78542501Y-52032001D03*
X75772501Y-52032001D03*
X73002501Y-52032001D03*
X70232501Y-52032001D03*
X67462501Y-52032001D03*
X64692501Y-52032001D03*
X61922501Y-52032001D03*
X59152501Y-52032001D03*
X56382501Y-52032001D03*
X53612501Y-52032001D03*
G04 #@! TD*
M02*
