G04 #@! TF.GenerationSoftware,KiCad,Pcbnew,5.1.5+dfsg1-2build2*
G04 #@! TF.CreationDate,2021-02-18T17:25:55-08:00*
G04 #@! TF.ProjectId,panel,70616e65-6c2e-46b6-9963-61645f706362,rev?*
G04 #@! TF.SameCoordinates,Original*
G04 #@! TF.FileFunction,Profile,NP*
%FSLAX46Y46*%
G04 Gerber Fmt 4.6, Leading zero omitted, Abs format (unit mm)*
G04 Created by KiCad (PCBNEW 5.1.5+dfsg1-2build2) date 2021-02-18 17:25:55*
%MOMM*%
%LPD*%
G04 APERTURE LIST*
G04 #@! TA.AperFunction,Profile*
%ADD10C,0.100000*%
G04 #@! TD*
G04 APERTURE END LIST*
D10*
X72644400Y-70082900D02*
X65059100Y-70082900D01*
X72741700Y-70078100D02*
X72644400Y-70082900D01*
X72837800Y-70063900D02*
X72741700Y-70078100D01*
X72932100Y-70040300D02*
X72837800Y-70063900D01*
X73023500Y-70007500D02*
X72932100Y-70040300D01*
X73111400Y-69966000D02*
X73023500Y-70007500D01*
X73194700Y-69916000D02*
X73111400Y-69966000D01*
X73272700Y-69858200D02*
X73194700Y-69916000D01*
X73344700Y-69792900D02*
X73272700Y-69858200D01*
X73410000Y-69720900D02*
X73344700Y-69792900D01*
X73467800Y-69642900D02*
X73410000Y-69720900D01*
X73517800Y-69559600D02*
X73467800Y-69642900D01*
X73559300Y-69471800D02*
X73517800Y-69559600D01*
X73592000Y-69380300D02*
X73559300Y-69471800D01*
X73615600Y-69286000D02*
X73592000Y-69380300D01*
X73629900Y-69189900D02*
X73615600Y-69286000D01*
X73634700Y-69092700D02*
X73629900Y-69189900D01*
X73634700Y-68074000D02*
X73634700Y-69092700D01*
X73629900Y-67976700D02*
X73634700Y-68074000D01*
X73615600Y-67880600D02*
X73629900Y-67976700D01*
X73592000Y-67786400D02*
X73615600Y-67880600D01*
X73559300Y-67694900D02*
X73592000Y-67786400D01*
X73517800Y-67607100D02*
X73559300Y-67694900D01*
X73467900Y-67523800D02*
X73517800Y-67607100D01*
X73410000Y-67445700D02*
X73467900Y-67523800D01*
X73344800Y-67373700D02*
X73410000Y-67445700D01*
X73272800Y-67308500D02*
X73344800Y-67373700D01*
X73194800Y-67250600D02*
X73272800Y-67308500D01*
X73111400Y-67200700D02*
X73194800Y-67250600D01*
X73023600Y-67159100D02*
X73111400Y-67200700D01*
X72932200Y-67126400D02*
X73023600Y-67159100D01*
X72837900Y-67102800D02*
X72932200Y-67126400D01*
X72741900Y-67088500D02*
X72837900Y-67102800D01*
X72644600Y-67083700D02*
X72741900Y-67088500D01*
X65059200Y-67082600D02*
X72644600Y-67083700D01*
X64961900Y-67087300D02*
X65059200Y-67082600D01*
X64865800Y-67101600D02*
X64961900Y-67087300D01*
X64771600Y-67125200D02*
X64865800Y-67101600D01*
X64680100Y-67157900D02*
X64771600Y-67125200D01*
X64592300Y-67199400D02*
X64680100Y-67157900D01*
X64508900Y-67249400D02*
X64592300Y-67199400D01*
X64430900Y-67307200D02*
X64508900Y-67249400D01*
X64358900Y-67372500D02*
X64430900Y-67307200D01*
X64293600Y-67444500D02*
X64358900Y-67372500D01*
X64235700Y-67522500D02*
X64293600Y-67444500D01*
X64185800Y-67605800D02*
X64235700Y-67522500D01*
X64144200Y-67693700D02*
X64185800Y-67605800D01*
X64111500Y-67785200D02*
X64144200Y-67693700D01*
X64087900Y-67879400D02*
X64111500Y-67785200D01*
X64073600Y-67975500D02*
X64087900Y-67879400D01*
X64068800Y-68072800D02*
X64073600Y-67975500D01*
X64068800Y-69092700D02*
X64068800Y-68072800D01*
X64073600Y-69189900D02*
X64068800Y-69092700D01*
X64087900Y-69286000D02*
X64073600Y-69189900D01*
X64111500Y-69380300D02*
X64087900Y-69286000D01*
X64144200Y-69471800D02*
X64111500Y-69380300D01*
X64185700Y-69559600D02*
X64144200Y-69471800D01*
X64235700Y-69642900D02*
X64185700Y-69559600D01*
X64293600Y-69720900D02*
X64235700Y-69642900D01*
X64358800Y-69792900D02*
X64293600Y-69720900D01*
X64430800Y-69858200D02*
X64358800Y-69792900D01*
X64508800Y-69916000D02*
X64430800Y-69858200D01*
X64592200Y-69966000D02*
X64508800Y-69916000D01*
X64680000Y-70007500D02*
X64592200Y-69966000D01*
X64771500Y-70040300D02*
X64680000Y-70007500D01*
X64865700Y-70063900D02*
X64771500Y-70040300D01*
X64961800Y-70078100D02*
X64865700Y-70063900D01*
X65059100Y-70082900D02*
X64961800Y-70078100D01*
X87488100Y-60734200D02*
X87533600Y-60632300D01*
X87381200Y-60919400D02*
X87488100Y-60734200D01*
X87255200Y-61092200D02*
X87381200Y-60919400D01*
X87107900Y-61254900D02*
X87255200Y-61092200D01*
X81868200Y-66494500D02*
X87107900Y-61254900D01*
X81718300Y-66630300D02*
X81868200Y-66494500D01*
X81560100Y-66747600D02*
X81718300Y-66630300D01*
X81402700Y-66842300D02*
X81560100Y-66747600D01*
X81380900Y-66853900D02*
X81402700Y-66842300D01*
X81214600Y-66932300D02*
X81380900Y-66853900D01*
X81041200Y-66994600D02*
X81214600Y-66932300D01*
X81017600Y-67001800D02*
X81041200Y-66994600D01*
X80839200Y-67046200D02*
X81017600Y-67001800D01*
X80645000Y-67075000D02*
X80839200Y-67046200D01*
X80442500Y-67084900D02*
X80645000Y-67075000D01*
X77627100Y-67084500D02*
X80442500Y-67084900D01*
X77529800Y-67089200D02*
X77627100Y-67084500D01*
X77433700Y-67103500D02*
X77529800Y-67089200D01*
X77339400Y-67127100D02*
X77433700Y-67103500D01*
X77247900Y-67159800D02*
X77339400Y-67127100D01*
X77160100Y-67201300D02*
X77247900Y-67159800D01*
X77076800Y-67251300D02*
X77160100Y-67201300D01*
X76998700Y-67309100D02*
X77076800Y-67251300D01*
X76926700Y-67374400D02*
X76998700Y-67309100D01*
X76861500Y-67446400D02*
X76926700Y-67374400D01*
X76803600Y-67524400D02*
X76861500Y-67446400D01*
X76753600Y-67607800D02*
X76803600Y-67524400D01*
X76712100Y-67695600D02*
X76753600Y-67607800D01*
X76679300Y-67787100D02*
X76712100Y-67695600D01*
X76655700Y-67881300D02*
X76679300Y-67787100D01*
X76641500Y-67977400D02*
X76655700Y-67881300D01*
X76636700Y-68074700D02*
X76641500Y-67977400D01*
X76636700Y-69092700D02*
X76636700Y-68074700D01*
X76641500Y-69189900D02*
X76636700Y-69092700D01*
X76655700Y-69286000D02*
X76641500Y-69189900D01*
X76679300Y-69380300D02*
X76655700Y-69286000D01*
X76712100Y-69471800D02*
X76679300Y-69380300D01*
X76753600Y-69559600D02*
X76712100Y-69471800D01*
X76803500Y-69642900D02*
X76753600Y-69559600D01*
X76861400Y-69720900D02*
X76803500Y-69642900D01*
X76926700Y-69792900D02*
X76861400Y-69720900D01*
X76998600Y-69858200D02*
X76926700Y-69792900D01*
X77076700Y-69916000D02*
X76998600Y-69858200D01*
X77160000Y-69966000D02*
X77076700Y-69916000D01*
X77247800Y-70007500D02*
X77160000Y-69966000D01*
X77339300Y-70040300D02*
X77247800Y-70007500D01*
X77433500Y-70063900D02*
X77339300Y-70040300D01*
X77529600Y-70078100D02*
X77433500Y-70063900D01*
X77626900Y-70082900D02*
X77529600Y-70078100D01*
X87686000Y-70082900D02*
X77626900Y-70082900D01*
X87694000Y-70084400D02*
X87686000Y-70082900D01*
X87698500Y-70089400D02*
X87694000Y-70084400D01*
X87699600Y-70096500D02*
X87698500Y-70089400D01*
X87702600Y-76135100D02*
X87699600Y-70096500D01*
X87707400Y-76232400D02*
X87702600Y-76135100D01*
X87721700Y-76328400D02*
X87707400Y-76232400D01*
X87745400Y-76422600D02*
X87721700Y-76328400D01*
X87778100Y-76514100D02*
X87745400Y-76422600D01*
X87819700Y-76601800D02*
X87778100Y-76514100D01*
X87869600Y-76685100D02*
X87819700Y-76601800D01*
X87927500Y-76763100D02*
X87869600Y-76685100D01*
X87992700Y-76835100D02*
X87927500Y-76763100D01*
X88064700Y-76900300D02*
X87992700Y-76835100D01*
X88142700Y-76958100D02*
X88064700Y-76900300D01*
X88226100Y-77008000D02*
X88142700Y-76958100D01*
X88313900Y-77049500D02*
X88226100Y-77008000D01*
X88405300Y-77082300D02*
X88313900Y-77049500D01*
X88499500Y-77105800D02*
X88405300Y-77082300D01*
X88595600Y-77120100D02*
X88499500Y-77105800D01*
X88692800Y-77124900D02*
X88595600Y-77120100D01*
X89712800Y-77124900D02*
X88692800Y-77124900D01*
X89810100Y-77120100D02*
X89712800Y-77124900D01*
X89906200Y-77105800D02*
X89810100Y-77120100D01*
X90000400Y-77082200D02*
X89906200Y-77105800D01*
X90091900Y-77049500D02*
X90000400Y-77082200D01*
X90179700Y-77008000D02*
X90091900Y-77049500D01*
X90263000Y-76958000D02*
X90179700Y-77008000D01*
X90341100Y-76900200D02*
X90263000Y-76958000D01*
X90413100Y-76834900D02*
X90341100Y-76900200D01*
X90478300Y-76763000D02*
X90413100Y-76834900D01*
X90536200Y-76685000D02*
X90478300Y-76763000D01*
X90586100Y-76601600D02*
X90536200Y-76685000D01*
X90627700Y-76513800D02*
X90586100Y-76601600D01*
X90660400Y-76422400D02*
X90627700Y-76513800D01*
X90684000Y-76328100D02*
X90660400Y-76422400D01*
X90698300Y-76232000D02*
X90684000Y-76328100D01*
X90703100Y-76134800D02*
X90698300Y-76232000D01*
X90704000Y-70096500D02*
X90703100Y-76134800D01*
X90705100Y-70089400D02*
X90704000Y-70096500D01*
X90708800Y-70084900D02*
X90705100Y-70089400D01*
X90717600Y-70082900D02*
X90708800Y-70084900D01*
X100780100Y-70082900D02*
X90717600Y-70082900D01*
X100877400Y-70078100D02*
X100780100Y-70082900D01*
X100973500Y-70063900D02*
X100877400Y-70078100D01*
X101067700Y-70040300D02*
X100973500Y-70063900D01*
X101159200Y-70007500D02*
X101067700Y-70040300D01*
X101247000Y-69966000D02*
X101159200Y-70007500D01*
X101330400Y-69916000D02*
X101247000Y-69966000D01*
X101408400Y-69858200D02*
X101330400Y-69916000D01*
X101480400Y-69792900D02*
X101408400Y-69858200D01*
X101545600Y-69720900D02*
X101480400Y-69792900D01*
X101603500Y-69642900D02*
X101545600Y-69720900D01*
X101653500Y-69559600D02*
X101603500Y-69642900D01*
X101695000Y-69471800D02*
X101653500Y-69559600D01*
X101727700Y-69380300D02*
X101695000Y-69471800D01*
X101751300Y-69286000D02*
X101727700Y-69380300D01*
X101765600Y-69189900D02*
X101751300Y-69286000D01*
X101770400Y-69092700D02*
X101765600Y-69189900D01*
X101770400Y-68072100D02*
X101770400Y-69092700D01*
X101765600Y-67974800D02*
X101770400Y-68072100D01*
X101751300Y-67878700D02*
X101765600Y-67974800D01*
X101727700Y-67784500D02*
X101751300Y-67878700D01*
X101695000Y-67693000D02*
X101727700Y-67784500D01*
X101653500Y-67605200D02*
X101695000Y-67693000D01*
X101603500Y-67521900D02*
X101653500Y-67605200D01*
X101545700Y-67443800D02*
X101603500Y-67521900D01*
X101480400Y-67371800D02*
X101545700Y-67443800D01*
X101408500Y-67306600D02*
X101480400Y-67371800D01*
X101330400Y-67248700D02*
X101408500Y-67306600D01*
X101247100Y-67198800D02*
X101330400Y-67248700D01*
X101159300Y-67157200D02*
X101247100Y-67198800D01*
X101067900Y-67124500D02*
X101159300Y-67157200D01*
X100973600Y-67100900D02*
X101067900Y-67124500D01*
X100877500Y-67086600D02*
X100973600Y-67100900D01*
X100780300Y-67081800D02*
X100877500Y-67086600D01*
X97956900Y-67081400D02*
X100780300Y-67081800D01*
X97725700Y-67068300D02*
X97956900Y-67081400D01*
X97504700Y-67030700D02*
X97725700Y-67068300D01*
X97289200Y-66968600D02*
X97504700Y-67030700D01*
X97082000Y-66882800D02*
X97289200Y-66968600D01*
X96885800Y-66774300D02*
X97082000Y-66882800D01*
X96702900Y-66644500D02*
X96885800Y-66774300D01*
X96530600Y-66490600D02*
X96702900Y-66644500D01*
X91289100Y-61251500D02*
X96530600Y-66490600D01*
X91157000Y-61105500D02*
X91289100Y-61251500D01*
X91040000Y-60947700D02*
X91157000Y-61105500D01*
X90939300Y-60779700D02*
X91040000Y-60947700D01*
X90858600Y-60609800D02*
X90939300Y-60779700D01*
X90810400Y-60520200D02*
X90858600Y-60609800D01*
X90753400Y-60436100D02*
X90810400Y-60520200D01*
X90688100Y-60358300D02*
X90753400Y-60436100D01*
X90615100Y-60287600D02*
X90688100Y-60358300D01*
X90535400Y-60224800D02*
X90615100Y-60287600D01*
X90449500Y-60170500D02*
X90535400Y-60224800D01*
X90358600Y-60125200D02*
X90449500Y-60170500D01*
X90263600Y-60089500D02*
X90358600Y-60125200D01*
X90165300Y-60063800D02*
X90263600Y-60089500D01*
X90065000Y-60048200D02*
X90165300Y-60063800D01*
X89963300Y-60043000D02*
X90065000Y-60048200D01*
X88439200Y-60043000D02*
X89963300Y-60043000D01*
X88343900Y-60047500D02*
X88439200Y-60043000D01*
X88249700Y-60061200D02*
X88343900Y-60047500D01*
X88157300Y-60083900D02*
X88249700Y-60061200D01*
X88067400Y-60115300D02*
X88157300Y-60083900D01*
X87981000Y-60155200D02*
X88067400Y-60115300D01*
X87898900Y-60203200D02*
X87981000Y-60155200D01*
X87821700Y-60258900D02*
X87898900Y-60203200D01*
X87750200Y-60321800D02*
X87821700Y-60258900D01*
X87685100Y-60391200D02*
X87750200Y-60321800D01*
X87627000Y-60466500D02*
X87685100Y-60391200D01*
X87576400Y-60547100D02*
X87627000Y-60466500D01*
X87533600Y-60632300D02*
X87576400Y-60547100D01*
X113348000Y-70082900D02*
X105762600Y-70082900D01*
X113445200Y-70078100D02*
X113348000Y-70082900D01*
X113541300Y-70063900D02*
X113445200Y-70078100D01*
X113635600Y-70040300D02*
X113541300Y-70063900D01*
X113727100Y-70007500D02*
X113635600Y-70040300D01*
X113814900Y-69966000D02*
X113727100Y-70007500D01*
X113898200Y-69916000D02*
X113814900Y-69966000D01*
X113976200Y-69858200D02*
X113898200Y-69916000D01*
X114048200Y-69792900D02*
X113976200Y-69858200D01*
X114113500Y-69720900D02*
X114048200Y-69792900D01*
X114171300Y-69642900D02*
X114113500Y-69720900D01*
X114221300Y-69559600D02*
X114171300Y-69642900D01*
X114262800Y-69471800D02*
X114221300Y-69559600D01*
X114295600Y-69380300D02*
X114262800Y-69471800D01*
X114319200Y-69286000D02*
X114295600Y-69380300D01*
X114333400Y-69189900D02*
X114319200Y-69286000D01*
X114338200Y-69092700D02*
X114333400Y-69189900D01*
X114338200Y-68074000D02*
X114338200Y-69092700D01*
X114333400Y-67976700D02*
X114338200Y-68074000D01*
X114319200Y-67880600D02*
X114333400Y-67976700D01*
X114295600Y-67786400D02*
X114319200Y-67880600D01*
X114262800Y-67694900D02*
X114295600Y-67786400D01*
X114221300Y-67607100D02*
X114262800Y-67694900D01*
X114171400Y-67523800D02*
X114221300Y-67607100D01*
X114113500Y-67445700D02*
X114171400Y-67523800D01*
X114048300Y-67373700D02*
X114113500Y-67445700D01*
X113976300Y-67308500D02*
X114048300Y-67373700D01*
X113898300Y-67250600D02*
X113976300Y-67308500D01*
X113815000Y-67200700D02*
X113898300Y-67250600D01*
X113727200Y-67159100D02*
X113815000Y-67200700D01*
X113635700Y-67126400D02*
X113727200Y-67159100D01*
X113541500Y-67102800D02*
X113635700Y-67126400D01*
X113445400Y-67088500D02*
X113541500Y-67102800D01*
X113348100Y-67083700D02*
X113445400Y-67088500D01*
X105762800Y-67082600D02*
X113348100Y-67083700D01*
X105665500Y-67087300D02*
X105762800Y-67082600D01*
X105569400Y-67101600D02*
X105665500Y-67087300D01*
X105475100Y-67125200D02*
X105569400Y-67101600D01*
X105383600Y-67157900D02*
X105475100Y-67125200D01*
X105295800Y-67199400D02*
X105383600Y-67157900D01*
X105212400Y-67249400D02*
X105295800Y-67199400D01*
X105134400Y-67307200D02*
X105212400Y-67249400D01*
X105062400Y-67372500D02*
X105134400Y-67307200D01*
X104997100Y-67444500D02*
X105062400Y-67372500D01*
X104939200Y-67522500D02*
X104997100Y-67444500D01*
X104889300Y-67605800D02*
X104939200Y-67522500D01*
X104847700Y-67693700D02*
X104889300Y-67605800D01*
X104815000Y-67785200D02*
X104847700Y-67693700D01*
X104791400Y-67879400D02*
X104815000Y-67785200D01*
X104777100Y-67975500D02*
X104791400Y-67879400D01*
X104772400Y-68072800D02*
X104777100Y-67975500D01*
X104772400Y-69092700D02*
X104772400Y-68072800D01*
X104777100Y-69189900D02*
X104772400Y-69092700D01*
X104791400Y-69286000D02*
X104777100Y-69189900D01*
X104815000Y-69380300D02*
X104791400Y-69286000D01*
X104847700Y-69471800D02*
X104815000Y-69380300D01*
X104889300Y-69559600D02*
X104847700Y-69471800D01*
X104939200Y-69642900D02*
X104889300Y-69559600D01*
X104997100Y-69720900D02*
X104939200Y-69642900D01*
X105062300Y-69792900D02*
X104997100Y-69720900D01*
X105134300Y-69858200D02*
X105062300Y-69792900D01*
X105212400Y-69916000D02*
X105134300Y-69858200D01*
X105295700Y-69966000D02*
X105212400Y-69916000D01*
X105383500Y-70007500D02*
X105295700Y-69966000D01*
X105475000Y-70040300D02*
X105383500Y-70007500D01*
X105569200Y-70063900D02*
X105475000Y-70040300D01*
X105665300Y-70078100D02*
X105569200Y-70063900D01*
X105762600Y-70082900D02*
X105665300Y-70078100D01*
X50001300Y-50006400D02*
X50000500Y-50011600D01*
X50003800Y-50002300D02*
X50001300Y-50006400D01*
X50007900Y-49999800D02*
X50003800Y-50002300D01*
X50014100Y-49999000D02*
X50007900Y-49999800D01*
X87691200Y-49999500D02*
X50014100Y-49999000D01*
X87697600Y-50003800D02*
X87691200Y-49999500D01*
X87699600Y-50012600D02*
X87697600Y-50003800D01*
X87702600Y-56051200D02*
X87699600Y-50012600D01*
X87707400Y-56148400D02*
X87702600Y-56051200D01*
X87721700Y-56244500D02*
X87707400Y-56148400D01*
X87745400Y-56338700D02*
X87721700Y-56244500D01*
X87778100Y-56430100D02*
X87745400Y-56338700D01*
X87819700Y-56517900D02*
X87778100Y-56430100D01*
X87869600Y-56601200D02*
X87819700Y-56517900D01*
X87927500Y-56679200D02*
X87869600Y-56601200D01*
X87992700Y-56751200D02*
X87927500Y-56679200D01*
X88064700Y-56816400D02*
X87992700Y-56751200D01*
X88142700Y-56874200D02*
X88064700Y-56816400D01*
X88226100Y-56924100D02*
X88142700Y-56874200D01*
X88313900Y-56965600D02*
X88226100Y-56924100D01*
X88405300Y-56998300D02*
X88313900Y-56965600D01*
X88499500Y-57021900D02*
X88405300Y-56998300D01*
X88595600Y-57036200D02*
X88499500Y-57021900D01*
X88692800Y-57041000D02*
X88595600Y-57036200D01*
X89712800Y-57041000D02*
X88692800Y-57041000D01*
X89810100Y-57036200D02*
X89712800Y-57041000D01*
X89906200Y-57021900D02*
X89810100Y-57036200D01*
X90000400Y-56998300D02*
X89906200Y-57021900D01*
X90091900Y-56965600D02*
X90000400Y-56998300D01*
X90179700Y-56924100D02*
X90091900Y-56965600D01*
X90263000Y-56874100D02*
X90179700Y-56924100D01*
X90341100Y-56816300D02*
X90263000Y-56874100D01*
X90413100Y-56751000D02*
X90341100Y-56816300D01*
X90478300Y-56679100D02*
X90413100Y-56751000D01*
X90536200Y-56601000D02*
X90478300Y-56679100D01*
X90586100Y-56517700D02*
X90536200Y-56601000D01*
X90627700Y-56429900D02*
X90586100Y-56517700D01*
X90660400Y-56338500D02*
X90627700Y-56429900D01*
X90684000Y-56244200D02*
X90660400Y-56338500D01*
X90698300Y-56148100D02*
X90684000Y-56244200D01*
X90703100Y-56050900D02*
X90698300Y-56148100D01*
X90704000Y-50012600D02*
X90703100Y-56050900D01*
X90706000Y-50003800D02*
X90704000Y-50012600D01*
X90712400Y-49999500D02*
X90706000Y-50003800D01*
X128389500Y-49999000D02*
X90712400Y-49999500D01*
X128396600Y-50000100D02*
X128389500Y-49999000D01*
X128401600Y-50004600D02*
X128396600Y-50000100D01*
X128403100Y-50012600D02*
X128401600Y-50004600D01*
X128407700Y-59912500D02*
X128403100Y-50012600D01*
X128386800Y-60125800D02*
X128407700Y-59912500D01*
X128346700Y-60321800D02*
X128386800Y-60125800D01*
X128339900Y-60347700D02*
X128346700Y-60321800D01*
X128278400Y-60538200D02*
X128339900Y-60347700D01*
X128197500Y-60721900D02*
X128278400Y-60538200D01*
X128185400Y-60745700D02*
X128197500Y-60721900D01*
X128091700Y-60908000D02*
X128185400Y-60745700D01*
X128077300Y-60930100D02*
X128091700Y-60908000D01*
X127959100Y-61091700D02*
X128077300Y-60930100D01*
X127811300Y-61254900D02*
X127959100Y-61091700D01*
X122571700Y-66494500D02*
X127811300Y-61254900D01*
X122421800Y-66630300D02*
X122571700Y-66494500D01*
X122263700Y-66747600D02*
X122421800Y-66630300D01*
X122106200Y-66842300D02*
X122263700Y-66747600D01*
X122084400Y-66853900D02*
X122106200Y-66842300D01*
X121918100Y-66932300D02*
X122084400Y-66853900D01*
X121744700Y-66994600D02*
X121918100Y-66932300D01*
X121721100Y-67001800D02*
X121744700Y-66994600D01*
X121542700Y-67046200D02*
X121721100Y-67001800D01*
X121348000Y-67075000D02*
X121542700Y-67046200D01*
X121146000Y-67084900D02*
X121348000Y-67075000D01*
X118330600Y-67084500D02*
X121146000Y-67084900D01*
X118233300Y-67089200D02*
X118330600Y-67084500D01*
X118137200Y-67103500D02*
X118233300Y-67089200D01*
X118042900Y-67127100D02*
X118137200Y-67103500D01*
X117951500Y-67159800D02*
X118042900Y-67127100D01*
X117863600Y-67201300D02*
X117951500Y-67159800D01*
X117780300Y-67251300D02*
X117863600Y-67201300D01*
X117702200Y-67309100D02*
X117780300Y-67251300D01*
X117630200Y-67374400D02*
X117702200Y-67309100D01*
X117565000Y-67446400D02*
X117630200Y-67374400D01*
X117507100Y-67524400D02*
X117565000Y-67446400D01*
X117457100Y-67607800D02*
X117507100Y-67524400D01*
X117415600Y-67695600D02*
X117457100Y-67607800D01*
X117382800Y-67787100D02*
X117415600Y-67695600D01*
X117359200Y-67881300D02*
X117382800Y-67787100D01*
X117345000Y-67977400D02*
X117359200Y-67881300D01*
X117340200Y-68074700D02*
X117345000Y-67977400D01*
X117340200Y-69092700D02*
X117340200Y-68074700D01*
X117345000Y-69189900D02*
X117340200Y-69092700D01*
X117359200Y-69286000D02*
X117345000Y-69189900D01*
X117382800Y-69380300D02*
X117359200Y-69286000D01*
X117415600Y-69471800D02*
X117382800Y-69380300D01*
X117457100Y-69559600D02*
X117415600Y-69471800D01*
X117507100Y-69642900D02*
X117457100Y-69559600D01*
X117564900Y-69720900D02*
X117507100Y-69642900D01*
X117630200Y-69792900D02*
X117564900Y-69720900D01*
X117702200Y-69858200D02*
X117630200Y-69792900D01*
X117780200Y-69916000D02*
X117702200Y-69858200D01*
X117863500Y-69966000D02*
X117780200Y-69916000D01*
X117951300Y-70007500D02*
X117863500Y-69966000D01*
X118042800Y-70040300D02*
X117951300Y-70007500D01*
X118137100Y-70063900D02*
X118042800Y-70040300D01*
X118233200Y-70078100D02*
X118137100Y-70063900D01*
X118330400Y-70082900D02*
X118233200Y-70078100D01*
X128389500Y-70082900D02*
X118330400Y-70082900D01*
X128396600Y-70084000D02*
X128389500Y-70082900D01*
X128400500Y-70086900D02*
X128396600Y-70084000D01*
X128403100Y-70096500D02*
X128400500Y-70086900D01*
X128408000Y-79984300D02*
X128403100Y-70096500D01*
X128406800Y-80008900D02*
X128408000Y-79984300D01*
X128388500Y-80196100D02*
X128406800Y-80008900D01*
X128384500Y-80222500D02*
X128388500Y-80196100D01*
X128343500Y-80419100D02*
X128384500Y-80222500D01*
X128278200Y-80622600D02*
X128343500Y-80419100D01*
X128191800Y-80817700D02*
X128278200Y-80622600D01*
X128085000Y-81002900D02*
X128191800Y-80817700D01*
X127959100Y-81175700D02*
X128085000Y-81002900D01*
X127815500Y-81334500D02*
X127959100Y-81175700D01*
X122567200Y-86582800D02*
X127815500Y-81334500D01*
X122421400Y-86714600D02*
X122567200Y-86582800D01*
X122264100Y-86831200D02*
X122421400Y-86714600D01*
X122095600Y-86932200D02*
X122264100Y-86831200D01*
X121929200Y-87011300D02*
X122095600Y-86932200D01*
X121906400Y-87020700D02*
X121929200Y-87011300D01*
X121744700Y-87078500D02*
X121906400Y-87020700D01*
X121721100Y-87085700D02*
X121744700Y-87078500D01*
X121542300Y-87130200D02*
X121721100Y-87085700D01*
X121348000Y-87158900D02*
X121542300Y-87130200D01*
X121146000Y-87168800D02*
X121348000Y-87158900D01*
X97956900Y-87165300D02*
X121146000Y-87168800D01*
X97726300Y-87152300D02*
X97956900Y-87165300D01*
X97505200Y-87114800D02*
X97726300Y-87152300D01*
X97289200Y-87052500D02*
X97505200Y-87114800D01*
X97095200Y-86972600D02*
X97289200Y-87052500D01*
X97069800Y-86960400D02*
X97095200Y-86972600D01*
X96886200Y-86858500D02*
X97069800Y-86960400D01*
X96714400Y-86737100D02*
X96886200Y-86858500D01*
X96692400Y-86719600D02*
X96714400Y-86737100D01*
X96535800Y-86579500D02*
X96692400Y-86719600D01*
X91289100Y-81335400D02*
X96535800Y-86579500D01*
X91157000Y-81189400D02*
X91289100Y-81335400D01*
X91040300Y-81032100D02*
X91157000Y-81189400D01*
X90939300Y-80863600D02*
X91040300Y-81032100D01*
X90858600Y-80693800D02*
X90939300Y-80863600D01*
X90810400Y-80604100D02*
X90858600Y-80693800D01*
X90753400Y-80520000D02*
X90810400Y-80604100D01*
X90688100Y-80442200D02*
X90753400Y-80520000D01*
X90615100Y-80371600D02*
X90688100Y-80442200D01*
X90535400Y-80308700D02*
X90615100Y-80371600D01*
X90449500Y-80254400D02*
X90535400Y-80308700D01*
X90358600Y-80209100D02*
X90449500Y-80254400D01*
X90263600Y-80173400D02*
X90358600Y-80209100D01*
X90165300Y-80147700D02*
X90263600Y-80173400D01*
X90065000Y-80132100D02*
X90165300Y-80147700D01*
X89963300Y-80126900D02*
X90065000Y-80132100D01*
X88439200Y-80126900D02*
X89963300Y-80126900D01*
X88343900Y-80131500D02*
X88439200Y-80126900D01*
X88249700Y-80145100D02*
X88343900Y-80131500D01*
X88157300Y-80167800D02*
X88249700Y-80145100D01*
X88067400Y-80199200D02*
X88157300Y-80167800D01*
X87981000Y-80239100D02*
X88067400Y-80199200D01*
X87898900Y-80287100D02*
X87981000Y-80239100D01*
X87821700Y-80342800D02*
X87898900Y-80287100D01*
X87750200Y-80405700D02*
X87821700Y-80342800D01*
X87685100Y-80475100D02*
X87750200Y-80405700D01*
X87627000Y-80550400D02*
X87685100Y-80475100D01*
X87576400Y-80631000D02*
X87627000Y-80550400D01*
X87533600Y-80716300D02*
X87576400Y-80631000D01*
X87488100Y-80818100D02*
X87533600Y-80716300D01*
X87381200Y-81003300D02*
X87488100Y-80818100D01*
X87255600Y-81175700D02*
X87381200Y-81003300D01*
X87112000Y-81334500D02*
X87255600Y-81175700D01*
X81863800Y-86582600D02*
X87112000Y-81334500D01*
X81718300Y-86714300D02*
X81863800Y-86582600D01*
X81570500Y-86824300D02*
X81718300Y-86714300D01*
X81550000Y-86838000D02*
X81570500Y-86824300D01*
X81391700Y-86932400D02*
X81550000Y-86838000D01*
X81214600Y-87016200D02*
X81391700Y-86932400D01*
X81041200Y-87078500D02*
X81214600Y-87016200D01*
X81017600Y-87085700D02*
X81041200Y-87078500D01*
X80839200Y-87130100D02*
X81017600Y-87085700D01*
X80644500Y-87158900D02*
X80839200Y-87130100D01*
X80442500Y-87168800D02*
X80644500Y-87158900D01*
X57253400Y-87165300D02*
X80442500Y-87168800D01*
X57022800Y-87152300D02*
X57253400Y-87165300D01*
X56815300Y-87117500D02*
X57022800Y-87152300D01*
X56787800Y-87111200D02*
X56815300Y-87117500D01*
X56599400Y-87056900D02*
X56787800Y-87111200D01*
X56573100Y-87047700D02*
X56599400Y-87056900D01*
X56378500Y-86966700D02*
X56573100Y-87047700D01*
X56182200Y-86858200D02*
X56378500Y-86966700D01*
X55999400Y-86728400D02*
X56182200Y-86858200D01*
X55827100Y-86574600D02*
X55999400Y-86728400D01*
X50585500Y-81335400D02*
X55827100Y-86574600D01*
X50453500Y-81189400D02*
X50585500Y-81335400D01*
X50336500Y-81031700D02*
X50453500Y-81189400D01*
X50235500Y-80863200D02*
X50336500Y-81031700D01*
X50151500Y-80685600D02*
X50235500Y-80863200D01*
X50085500Y-80501100D02*
X50151500Y-80685600D01*
X50037800Y-80310500D02*
X50085500Y-80501100D01*
X50008900Y-80116200D02*
X50037800Y-80310500D01*
X49999100Y-79919700D02*
X50008900Y-80116200D01*
X50001000Y-70091300D02*
X49999100Y-79919700D01*
X50005300Y-70084900D02*
X50001000Y-70091300D01*
X50014100Y-70082900D02*
X50005300Y-70084900D01*
X60076600Y-70082900D02*
X50014100Y-70082900D01*
X60173900Y-70078100D02*
X60076600Y-70082900D01*
X60270000Y-70063900D02*
X60173900Y-70078100D01*
X60364200Y-70040300D02*
X60270000Y-70063900D01*
X60455700Y-70007500D02*
X60364200Y-70040300D01*
X60543500Y-69966000D02*
X60455700Y-70007500D01*
X60626800Y-69916000D02*
X60543500Y-69966000D01*
X60704900Y-69858200D02*
X60626800Y-69916000D01*
X60776900Y-69792900D02*
X60704900Y-69858200D01*
X60842100Y-69720900D02*
X60776900Y-69792900D01*
X60900000Y-69642900D02*
X60842100Y-69720900D01*
X60949900Y-69559600D02*
X60900000Y-69642900D01*
X60991500Y-69471800D02*
X60949900Y-69559600D01*
X61024200Y-69380300D02*
X60991500Y-69471800D01*
X61047800Y-69286000D02*
X61024200Y-69380300D01*
X61062100Y-69189900D02*
X61047800Y-69286000D01*
X61066800Y-69092700D02*
X61062100Y-69189900D01*
X61066800Y-68072100D02*
X61066800Y-69092700D01*
X61062100Y-67974800D02*
X61066800Y-68072100D01*
X61047800Y-67878700D02*
X61062100Y-67974800D01*
X61024200Y-67784500D02*
X61047800Y-67878700D01*
X60991500Y-67693000D02*
X61024200Y-67784500D01*
X60950000Y-67605200D02*
X60991500Y-67693000D01*
X60900000Y-67521900D02*
X60950000Y-67605200D01*
X60842200Y-67443800D02*
X60900000Y-67521900D01*
X60776900Y-67371800D02*
X60842200Y-67443800D01*
X60704900Y-67306600D02*
X60776900Y-67371800D01*
X60626900Y-67248700D02*
X60704900Y-67306600D01*
X60543600Y-67198800D02*
X60626900Y-67248700D01*
X60455800Y-67157200D02*
X60543600Y-67198800D01*
X60364300Y-67124500D02*
X60455800Y-67157200D01*
X60270100Y-67100900D02*
X60364300Y-67124500D01*
X60174000Y-67086600D02*
X60270100Y-67100900D01*
X60076700Y-67081800D02*
X60174000Y-67086600D01*
X57253400Y-67081400D02*
X60076700Y-67081800D01*
X57036300Y-67069600D02*
X57253400Y-67081400D01*
X57008600Y-67066400D02*
X57036300Y-67069600D01*
X56801700Y-67030900D02*
X57008600Y-67066400D01*
X56586200Y-66968800D02*
X56801700Y-67030900D01*
X56379000Y-66883000D02*
X56586200Y-66968800D01*
X56182200Y-66774300D02*
X56379000Y-66883000D01*
X55999400Y-66644500D02*
X56182200Y-66774300D01*
X55827100Y-66490700D02*
X55999400Y-66644500D01*
X50589800Y-61255800D02*
X55827100Y-66490700D01*
X50453500Y-61105500D02*
X50589800Y-61255800D01*
X50343800Y-60958100D02*
X50453500Y-61105500D01*
X50330200Y-60937800D02*
X50343800Y-60958100D01*
X50235700Y-60779700D02*
X50330200Y-60937800D01*
X50156600Y-60613200D02*
X50235700Y-60779700D01*
X50147200Y-60590400D02*
X50156600Y-60613200D01*
X50085400Y-60416700D02*
X50147200Y-60590400D01*
X50040400Y-60238500D02*
X50085400Y-60416700D01*
X50035600Y-60214300D02*
X50040400Y-60238500D01*
X50008900Y-60031800D02*
X50035600Y-60214300D01*
X49999100Y-59836000D02*
X50008900Y-60031800D01*
X50000500Y-50011600D02*
X49999100Y-59836000D01*
M02*
