G04 #@! TF.GenerationSoftware,KiCad,Pcbnew,5.1.5+dfsg1-2build2*
G04 #@! TF.CreationDate,2021-02-18T17:25:55-08:00*
G04 #@! TF.ProjectId,panel,70616e65-6c2e-46b6-9963-61645f706362,rev?*
G04 #@! TF.SameCoordinates,Original*
G04 #@! TF.FileFunction,Paste,Bot*
G04 #@! TF.FilePolarity,Positive*
%FSLAX46Y46*%
G04 Gerber Fmt 4.6, Leading zero omitted, Abs format (unit mm)*
G04 Created by KiCad (PCBNEW 5.1.5+dfsg1-2build2) date 2021-02-18 17:25:55*
%MOMM*%
%LPD*%
G04 APERTURE LIST*
G04 #@! TA.AperFunction,Profile*
%ADD10C,0.100000*%
G04 #@! TD*
%ADD11C,0.350000*%
%ADD12R,1.846667X3.480000*%
G04 APERTURE END LIST*
D10*
X72644400Y-70082900D02*
X65059100Y-70082900D01*
X72741700Y-70078100D02*
X72644400Y-70082900D01*
X72837800Y-70063900D02*
X72741700Y-70078100D01*
X72932100Y-70040300D02*
X72837800Y-70063900D01*
X73023500Y-70007500D02*
X72932100Y-70040300D01*
X73111400Y-69966000D02*
X73023500Y-70007500D01*
X73194700Y-69916000D02*
X73111400Y-69966000D01*
X73272700Y-69858200D02*
X73194700Y-69916000D01*
X73344700Y-69792900D02*
X73272700Y-69858200D01*
X73410000Y-69720900D02*
X73344700Y-69792900D01*
X73467800Y-69642900D02*
X73410000Y-69720900D01*
X73517800Y-69559600D02*
X73467800Y-69642900D01*
X73559300Y-69471800D02*
X73517800Y-69559600D01*
X73592000Y-69380300D02*
X73559300Y-69471800D01*
X73615600Y-69286000D02*
X73592000Y-69380300D01*
X73629900Y-69189900D02*
X73615600Y-69286000D01*
X73634700Y-69092700D02*
X73629900Y-69189900D01*
X73634700Y-68074000D02*
X73634700Y-69092700D01*
X73629900Y-67976700D02*
X73634700Y-68074000D01*
X73615600Y-67880600D02*
X73629900Y-67976700D01*
X73592000Y-67786400D02*
X73615600Y-67880600D01*
X73559300Y-67694900D02*
X73592000Y-67786400D01*
X73517800Y-67607100D02*
X73559300Y-67694900D01*
X73467900Y-67523800D02*
X73517800Y-67607100D01*
X73410000Y-67445700D02*
X73467900Y-67523800D01*
X73344800Y-67373700D02*
X73410000Y-67445700D01*
X73272800Y-67308500D02*
X73344800Y-67373700D01*
X73194800Y-67250600D02*
X73272800Y-67308500D01*
X73111400Y-67200700D02*
X73194800Y-67250600D01*
X73023600Y-67159100D02*
X73111400Y-67200700D01*
X72932200Y-67126400D02*
X73023600Y-67159100D01*
X72837900Y-67102800D02*
X72932200Y-67126400D01*
X72741900Y-67088500D02*
X72837900Y-67102800D01*
X72644600Y-67083700D02*
X72741900Y-67088500D01*
X65059200Y-67082600D02*
X72644600Y-67083700D01*
X64961900Y-67087300D02*
X65059200Y-67082600D01*
X64865800Y-67101600D02*
X64961900Y-67087300D01*
X64771600Y-67125200D02*
X64865800Y-67101600D01*
X64680100Y-67157900D02*
X64771600Y-67125200D01*
X64592300Y-67199400D02*
X64680100Y-67157900D01*
X64508900Y-67249400D02*
X64592300Y-67199400D01*
X64430900Y-67307200D02*
X64508900Y-67249400D01*
X64358900Y-67372500D02*
X64430900Y-67307200D01*
X64293600Y-67444500D02*
X64358900Y-67372500D01*
X64235700Y-67522500D02*
X64293600Y-67444500D01*
X64185800Y-67605800D02*
X64235700Y-67522500D01*
X64144200Y-67693700D02*
X64185800Y-67605800D01*
X64111500Y-67785200D02*
X64144200Y-67693700D01*
X64087900Y-67879400D02*
X64111500Y-67785200D01*
X64073600Y-67975500D02*
X64087900Y-67879400D01*
X64068800Y-68072800D02*
X64073600Y-67975500D01*
X64068800Y-69092700D02*
X64068800Y-68072800D01*
X64073600Y-69189900D02*
X64068800Y-69092700D01*
X64087900Y-69286000D02*
X64073600Y-69189900D01*
X64111500Y-69380300D02*
X64087900Y-69286000D01*
X64144200Y-69471800D02*
X64111500Y-69380300D01*
X64185700Y-69559600D02*
X64144200Y-69471800D01*
X64235700Y-69642900D02*
X64185700Y-69559600D01*
X64293600Y-69720900D02*
X64235700Y-69642900D01*
X64358800Y-69792900D02*
X64293600Y-69720900D01*
X64430800Y-69858200D02*
X64358800Y-69792900D01*
X64508800Y-69916000D02*
X64430800Y-69858200D01*
X64592200Y-69966000D02*
X64508800Y-69916000D01*
X64680000Y-70007500D02*
X64592200Y-69966000D01*
X64771500Y-70040300D02*
X64680000Y-70007500D01*
X64865700Y-70063900D02*
X64771500Y-70040300D01*
X64961800Y-70078100D02*
X64865700Y-70063900D01*
X65059100Y-70082900D02*
X64961800Y-70078100D01*
X87488100Y-60734200D02*
X87533600Y-60632300D01*
X87381200Y-60919400D02*
X87488100Y-60734200D01*
X87255200Y-61092200D02*
X87381200Y-60919400D01*
X87107900Y-61254900D02*
X87255200Y-61092200D01*
X81868200Y-66494500D02*
X87107900Y-61254900D01*
X81718300Y-66630300D02*
X81868200Y-66494500D01*
X81560100Y-66747600D02*
X81718300Y-66630300D01*
X81402700Y-66842300D02*
X81560100Y-66747600D01*
X81380900Y-66853900D02*
X81402700Y-66842300D01*
X81214600Y-66932300D02*
X81380900Y-66853900D01*
X81041200Y-66994600D02*
X81214600Y-66932300D01*
X81017600Y-67001800D02*
X81041200Y-66994600D01*
X80839200Y-67046200D02*
X81017600Y-67001800D01*
X80645000Y-67075000D02*
X80839200Y-67046200D01*
X80442500Y-67084900D02*
X80645000Y-67075000D01*
X77627100Y-67084500D02*
X80442500Y-67084900D01*
X77529800Y-67089200D02*
X77627100Y-67084500D01*
X77433700Y-67103500D02*
X77529800Y-67089200D01*
X77339400Y-67127100D02*
X77433700Y-67103500D01*
X77247900Y-67159800D02*
X77339400Y-67127100D01*
X77160100Y-67201300D02*
X77247900Y-67159800D01*
X77076800Y-67251300D02*
X77160100Y-67201300D01*
X76998700Y-67309100D02*
X77076800Y-67251300D01*
X76926700Y-67374400D02*
X76998700Y-67309100D01*
X76861500Y-67446400D02*
X76926700Y-67374400D01*
X76803600Y-67524400D02*
X76861500Y-67446400D01*
X76753600Y-67607800D02*
X76803600Y-67524400D01*
X76712100Y-67695600D02*
X76753600Y-67607800D01*
X76679300Y-67787100D02*
X76712100Y-67695600D01*
X76655700Y-67881300D02*
X76679300Y-67787100D01*
X76641500Y-67977400D02*
X76655700Y-67881300D01*
X76636700Y-68074700D02*
X76641500Y-67977400D01*
X76636700Y-69092700D02*
X76636700Y-68074700D01*
X76641500Y-69189900D02*
X76636700Y-69092700D01*
X76655700Y-69286000D02*
X76641500Y-69189900D01*
X76679300Y-69380300D02*
X76655700Y-69286000D01*
X76712100Y-69471800D02*
X76679300Y-69380300D01*
X76753600Y-69559600D02*
X76712100Y-69471800D01*
X76803500Y-69642900D02*
X76753600Y-69559600D01*
X76861400Y-69720900D02*
X76803500Y-69642900D01*
X76926700Y-69792900D02*
X76861400Y-69720900D01*
X76998600Y-69858200D02*
X76926700Y-69792900D01*
X77076700Y-69916000D02*
X76998600Y-69858200D01*
X77160000Y-69966000D02*
X77076700Y-69916000D01*
X77247800Y-70007500D02*
X77160000Y-69966000D01*
X77339300Y-70040300D02*
X77247800Y-70007500D01*
X77433500Y-70063900D02*
X77339300Y-70040300D01*
X77529600Y-70078100D02*
X77433500Y-70063900D01*
X77626900Y-70082900D02*
X77529600Y-70078100D01*
X87686000Y-70082900D02*
X77626900Y-70082900D01*
X87694000Y-70084400D02*
X87686000Y-70082900D01*
X87698500Y-70089400D02*
X87694000Y-70084400D01*
X87699600Y-70096500D02*
X87698500Y-70089400D01*
X87702600Y-76135100D02*
X87699600Y-70096500D01*
X87707400Y-76232400D02*
X87702600Y-76135100D01*
X87721700Y-76328400D02*
X87707400Y-76232400D01*
X87745400Y-76422600D02*
X87721700Y-76328400D01*
X87778100Y-76514100D02*
X87745400Y-76422600D01*
X87819700Y-76601800D02*
X87778100Y-76514100D01*
X87869600Y-76685100D02*
X87819700Y-76601800D01*
X87927500Y-76763100D02*
X87869600Y-76685100D01*
X87992700Y-76835100D02*
X87927500Y-76763100D01*
X88064700Y-76900300D02*
X87992700Y-76835100D01*
X88142700Y-76958100D02*
X88064700Y-76900300D01*
X88226100Y-77008000D02*
X88142700Y-76958100D01*
X88313900Y-77049500D02*
X88226100Y-77008000D01*
X88405300Y-77082300D02*
X88313900Y-77049500D01*
X88499500Y-77105800D02*
X88405300Y-77082300D01*
X88595600Y-77120100D02*
X88499500Y-77105800D01*
X88692800Y-77124900D02*
X88595600Y-77120100D01*
X89712800Y-77124900D02*
X88692800Y-77124900D01*
X89810100Y-77120100D02*
X89712800Y-77124900D01*
X89906200Y-77105800D02*
X89810100Y-77120100D01*
X90000400Y-77082200D02*
X89906200Y-77105800D01*
X90091900Y-77049500D02*
X90000400Y-77082200D01*
X90179700Y-77008000D02*
X90091900Y-77049500D01*
X90263000Y-76958000D02*
X90179700Y-77008000D01*
X90341100Y-76900200D02*
X90263000Y-76958000D01*
X90413100Y-76834900D02*
X90341100Y-76900200D01*
X90478300Y-76763000D02*
X90413100Y-76834900D01*
X90536200Y-76685000D02*
X90478300Y-76763000D01*
X90586100Y-76601600D02*
X90536200Y-76685000D01*
X90627700Y-76513800D02*
X90586100Y-76601600D01*
X90660400Y-76422400D02*
X90627700Y-76513800D01*
X90684000Y-76328100D02*
X90660400Y-76422400D01*
X90698300Y-76232000D02*
X90684000Y-76328100D01*
X90703100Y-76134800D02*
X90698300Y-76232000D01*
X90704000Y-70096500D02*
X90703100Y-76134800D01*
X90705100Y-70089400D02*
X90704000Y-70096500D01*
X90708800Y-70084900D02*
X90705100Y-70089400D01*
X90717600Y-70082900D02*
X90708800Y-70084900D01*
X100780100Y-70082900D02*
X90717600Y-70082900D01*
X100877400Y-70078100D02*
X100780100Y-70082900D01*
X100973500Y-70063900D02*
X100877400Y-70078100D01*
X101067700Y-70040300D02*
X100973500Y-70063900D01*
X101159200Y-70007500D02*
X101067700Y-70040300D01*
X101247000Y-69966000D02*
X101159200Y-70007500D01*
X101330400Y-69916000D02*
X101247000Y-69966000D01*
X101408400Y-69858200D02*
X101330400Y-69916000D01*
X101480400Y-69792900D02*
X101408400Y-69858200D01*
X101545600Y-69720900D02*
X101480400Y-69792900D01*
X101603500Y-69642900D02*
X101545600Y-69720900D01*
X101653500Y-69559600D02*
X101603500Y-69642900D01*
X101695000Y-69471800D02*
X101653500Y-69559600D01*
X101727700Y-69380300D02*
X101695000Y-69471800D01*
X101751300Y-69286000D02*
X101727700Y-69380300D01*
X101765600Y-69189900D02*
X101751300Y-69286000D01*
X101770400Y-69092700D02*
X101765600Y-69189900D01*
X101770400Y-68072100D02*
X101770400Y-69092700D01*
X101765600Y-67974800D02*
X101770400Y-68072100D01*
X101751300Y-67878700D02*
X101765600Y-67974800D01*
X101727700Y-67784500D02*
X101751300Y-67878700D01*
X101695000Y-67693000D02*
X101727700Y-67784500D01*
X101653500Y-67605200D02*
X101695000Y-67693000D01*
X101603500Y-67521900D02*
X101653500Y-67605200D01*
X101545700Y-67443800D02*
X101603500Y-67521900D01*
X101480400Y-67371800D02*
X101545700Y-67443800D01*
X101408500Y-67306600D02*
X101480400Y-67371800D01*
X101330400Y-67248700D02*
X101408500Y-67306600D01*
X101247100Y-67198800D02*
X101330400Y-67248700D01*
X101159300Y-67157200D02*
X101247100Y-67198800D01*
X101067900Y-67124500D02*
X101159300Y-67157200D01*
X100973600Y-67100900D02*
X101067900Y-67124500D01*
X100877500Y-67086600D02*
X100973600Y-67100900D01*
X100780300Y-67081800D02*
X100877500Y-67086600D01*
X97956900Y-67081400D02*
X100780300Y-67081800D01*
X97725700Y-67068300D02*
X97956900Y-67081400D01*
X97504700Y-67030700D02*
X97725700Y-67068300D01*
X97289200Y-66968600D02*
X97504700Y-67030700D01*
X97082000Y-66882800D02*
X97289200Y-66968600D01*
X96885800Y-66774300D02*
X97082000Y-66882800D01*
X96702900Y-66644500D02*
X96885800Y-66774300D01*
X96530600Y-66490600D02*
X96702900Y-66644500D01*
X91289100Y-61251500D02*
X96530600Y-66490600D01*
X91157000Y-61105500D02*
X91289100Y-61251500D01*
X91040000Y-60947700D02*
X91157000Y-61105500D01*
X90939300Y-60779700D02*
X91040000Y-60947700D01*
X90858600Y-60609800D02*
X90939300Y-60779700D01*
X90810400Y-60520200D02*
X90858600Y-60609800D01*
X90753400Y-60436100D02*
X90810400Y-60520200D01*
X90688100Y-60358300D02*
X90753400Y-60436100D01*
X90615100Y-60287600D02*
X90688100Y-60358300D01*
X90535400Y-60224800D02*
X90615100Y-60287600D01*
X90449500Y-60170500D02*
X90535400Y-60224800D01*
X90358600Y-60125200D02*
X90449500Y-60170500D01*
X90263600Y-60089500D02*
X90358600Y-60125200D01*
X90165300Y-60063800D02*
X90263600Y-60089500D01*
X90065000Y-60048200D02*
X90165300Y-60063800D01*
X89963300Y-60043000D02*
X90065000Y-60048200D01*
X88439200Y-60043000D02*
X89963300Y-60043000D01*
X88343900Y-60047500D02*
X88439200Y-60043000D01*
X88249700Y-60061200D02*
X88343900Y-60047500D01*
X88157300Y-60083900D02*
X88249700Y-60061200D01*
X88067400Y-60115300D02*
X88157300Y-60083900D01*
X87981000Y-60155200D02*
X88067400Y-60115300D01*
X87898900Y-60203200D02*
X87981000Y-60155200D01*
X87821700Y-60258900D02*
X87898900Y-60203200D01*
X87750200Y-60321800D02*
X87821700Y-60258900D01*
X87685100Y-60391200D02*
X87750200Y-60321800D01*
X87627000Y-60466500D02*
X87685100Y-60391200D01*
X87576400Y-60547100D02*
X87627000Y-60466500D01*
X87533600Y-60632300D02*
X87576400Y-60547100D01*
X113348000Y-70082900D02*
X105762600Y-70082900D01*
X113445200Y-70078100D02*
X113348000Y-70082900D01*
X113541300Y-70063900D02*
X113445200Y-70078100D01*
X113635600Y-70040300D02*
X113541300Y-70063900D01*
X113727100Y-70007500D02*
X113635600Y-70040300D01*
X113814900Y-69966000D02*
X113727100Y-70007500D01*
X113898200Y-69916000D02*
X113814900Y-69966000D01*
X113976200Y-69858200D02*
X113898200Y-69916000D01*
X114048200Y-69792900D02*
X113976200Y-69858200D01*
X114113500Y-69720900D02*
X114048200Y-69792900D01*
X114171300Y-69642900D02*
X114113500Y-69720900D01*
X114221300Y-69559600D02*
X114171300Y-69642900D01*
X114262800Y-69471800D02*
X114221300Y-69559600D01*
X114295600Y-69380300D02*
X114262800Y-69471800D01*
X114319200Y-69286000D02*
X114295600Y-69380300D01*
X114333400Y-69189900D02*
X114319200Y-69286000D01*
X114338200Y-69092700D02*
X114333400Y-69189900D01*
X114338200Y-68074000D02*
X114338200Y-69092700D01*
X114333400Y-67976700D02*
X114338200Y-68074000D01*
X114319200Y-67880600D02*
X114333400Y-67976700D01*
X114295600Y-67786400D02*
X114319200Y-67880600D01*
X114262800Y-67694900D02*
X114295600Y-67786400D01*
X114221300Y-67607100D02*
X114262800Y-67694900D01*
X114171400Y-67523800D02*
X114221300Y-67607100D01*
X114113500Y-67445700D02*
X114171400Y-67523800D01*
X114048300Y-67373700D02*
X114113500Y-67445700D01*
X113976300Y-67308500D02*
X114048300Y-67373700D01*
X113898300Y-67250600D02*
X113976300Y-67308500D01*
X113815000Y-67200700D02*
X113898300Y-67250600D01*
X113727200Y-67159100D02*
X113815000Y-67200700D01*
X113635700Y-67126400D02*
X113727200Y-67159100D01*
X113541500Y-67102800D02*
X113635700Y-67126400D01*
X113445400Y-67088500D02*
X113541500Y-67102800D01*
X113348100Y-67083700D02*
X113445400Y-67088500D01*
X105762800Y-67082600D02*
X113348100Y-67083700D01*
X105665500Y-67087300D02*
X105762800Y-67082600D01*
X105569400Y-67101600D02*
X105665500Y-67087300D01*
X105475100Y-67125200D02*
X105569400Y-67101600D01*
X105383600Y-67157900D02*
X105475100Y-67125200D01*
X105295800Y-67199400D02*
X105383600Y-67157900D01*
X105212400Y-67249400D02*
X105295800Y-67199400D01*
X105134400Y-67307200D02*
X105212400Y-67249400D01*
X105062400Y-67372500D02*
X105134400Y-67307200D01*
X104997100Y-67444500D02*
X105062400Y-67372500D01*
X104939200Y-67522500D02*
X104997100Y-67444500D01*
X104889300Y-67605800D02*
X104939200Y-67522500D01*
X104847700Y-67693700D02*
X104889300Y-67605800D01*
X104815000Y-67785200D02*
X104847700Y-67693700D01*
X104791400Y-67879400D02*
X104815000Y-67785200D01*
X104777100Y-67975500D02*
X104791400Y-67879400D01*
X104772400Y-68072800D02*
X104777100Y-67975500D01*
X104772400Y-69092700D02*
X104772400Y-68072800D01*
X104777100Y-69189900D02*
X104772400Y-69092700D01*
X104791400Y-69286000D02*
X104777100Y-69189900D01*
X104815000Y-69380300D02*
X104791400Y-69286000D01*
X104847700Y-69471800D02*
X104815000Y-69380300D01*
X104889300Y-69559600D02*
X104847700Y-69471800D01*
X104939200Y-69642900D02*
X104889300Y-69559600D01*
X104997100Y-69720900D02*
X104939200Y-69642900D01*
X105062300Y-69792900D02*
X104997100Y-69720900D01*
X105134300Y-69858200D02*
X105062300Y-69792900D01*
X105212400Y-69916000D02*
X105134300Y-69858200D01*
X105295700Y-69966000D02*
X105212400Y-69916000D01*
X105383500Y-70007500D02*
X105295700Y-69966000D01*
X105475000Y-70040300D02*
X105383500Y-70007500D01*
X105569200Y-70063900D02*
X105475000Y-70040300D01*
X105665300Y-70078100D02*
X105569200Y-70063900D01*
X105762600Y-70082900D02*
X105665300Y-70078100D01*
X50001300Y-50006400D02*
X50000500Y-50011600D01*
X50003800Y-50002300D02*
X50001300Y-50006400D01*
X50007900Y-49999800D02*
X50003800Y-50002300D01*
X50014100Y-49999000D02*
X50007900Y-49999800D01*
X87691200Y-49999500D02*
X50014100Y-49999000D01*
X87697600Y-50003800D02*
X87691200Y-49999500D01*
X87699600Y-50012600D02*
X87697600Y-50003800D01*
X87702600Y-56051200D02*
X87699600Y-50012600D01*
X87707400Y-56148400D02*
X87702600Y-56051200D01*
X87721700Y-56244500D02*
X87707400Y-56148400D01*
X87745400Y-56338700D02*
X87721700Y-56244500D01*
X87778100Y-56430100D02*
X87745400Y-56338700D01*
X87819700Y-56517900D02*
X87778100Y-56430100D01*
X87869600Y-56601200D02*
X87819700Y-56517900D01*
X87927500Y-56679200D02*
X87869600Y-56601200D01*
X87992700Y-56751200D02*
X87927500Y-56679200D01*
X88064700Y-56816400D02*
X87992700Y-56751200D01*
X88142700Y-56874200D02*
X88064700Y-56816400D01*
X88226100Y-56924100D02*
X88142700Y-56874200D01*
X88313900Y-56965600D02*
X88226100Y-56924100D01*
X88405300Y-56998300D02*
X88313900Y-56965600D01*
X88499500Y-57021900D02*
X88405300Y-56998300D01*
X88595600Y-57036200D02*
X88499500Y-57021900D01*
X88692800Y-57041000D02*
X88595600Y-57036200D01*
X89712800Y-57041000D02*
X88692800Y-57041000D01*
X89810100Y-57036200D02*
X89712800Y-57041000D01*
X89906200Y-57021900D02*
X89810100Y-57036200D01*
X90000400Y-56998300D02*
X89906200Y-57021900D01*
X90091900Y-56965600D02*
X90000400Y-56998300D01*
X90179700Y-56924100D02*
X90091900Y-56965600D01*
X90263000Y-56874100D02*
X90179700Y-56924100D01*
X90341100Y-56816300D02*
X90263000Y-56874100D01*
X90413100Y-56751000D02*
X90341100Y-56816300D01*
X90478300Y-56679100D02*
X90413100Y-56751000D01*
X90536200Y-56601000D02*
X90478300Y-56679100D01*
X90586100Y-56517700D02*
X90536200Y-56601000D01*
X90627700Y-56429900D02*
X90586100Y-56517700D01*
X90660400Y-56338500D02*
X90627700Y-56429900D01*
X90684000Y-56244200D02*
X90660400Y-56338500D01*
X90698300Y-56148100D02*
X90684000Y-56244200D01*
X90703100Y-56050900D02*
X90698300Y-56148100D01*
X90704000Y-50012600D02*
X90703100Y-56050900D01*
X90706000Y-50003800D02*
X90704000Y-50012600D01*
X90712400Y-49999500D02*
X90706000Y-50003800D01*
X128389500Y-49999000D02*
X90712400Y-49999500D01*
X128396600Y-50000100D02*
X128389500Y-49999000D01*
X128401600Y-50004600D02*
X128396600Y-50000100D01*
X128403100Y-50012600D02*
X128401600Y-50004600D01*
X128407700Y-59912500D02*
X128403100Y-50012600D01*
X128386800Y-60125800D02*
X128407700Y-59912500D01*
X128346700Y-60321800D02*
X128386800Y-60125800D01*
X128339900Y-60347700D02*
X128346700Y-60321800D01*
X128278400Y-60538200D02*
X128339900Y-60347700D01*
X128197500Y-60721900D02*
X128278400Y-60538200D01*
X128185400Y-60745700D02*
X128197500Y-60721900D01*
X128091700Y-60908000D02*
X128185400Y-60745700D01*
X128077300Y-60930100D02*
X128091700Y-60908000D01*
X127959100Y-61091700D02*
X128077300Y-60930100D01*
X127811300Y-61254900D02*
X127959100Y-61091700D01*
X122571700Y-66494500D02*
X127811300Y-61254900D01*
X122421800Y-66630300D02*
X122571700Y-66494500D01*
X122263700Y-66747600D02*
X122421800Y-66630300D01*
X122106200Y-66842300D02*
X122263700Y-66747600D01*
X122084400Y-66853900D02*
X122106200Y-66842300D01*
X121918100Y-66932300D02*
X122084400Y-66853900D01*
X121744700Y-66994600D02*
X121918100Y-66932300D01*
X121721100Y-67001800D02*
X121744700Y-66994600D01*
X121542700Y-67046200D02*
X121721100Y-67001800D01*
X121348000Y-67075000D02*
X121542700Y-67046200D01*
X121146000Y-67084900D02*
X121348000Y-67075000D01*
X118330600Y-67084500D02*
X121146000Y-67084900D01*
X118233300Y-67089200D02*
X118330600Y-67084500D01*
X118137200Y-67103500D02*
X118233300Y-67089200D01*
X118042900Y-67127100D02*
X118137200Y-67103500D01*
X117951500Y-67159800D02*
X118042900Y-67127100D01*
X117863600Y-67201300D02*
X117951500Y-67159800D01*
X117780300Y-67251300D02*
X117863600Y-67201300D01*
X117702200Y-67309100D02*
X117780300Y-67251300D01*
X117630200Y-67374400D02*
X117702200Y-67309100D01*
X117565000Y-67446400D02*
X117630200Y-67374400D01*
X117507100Y-67524400D02*
X117565000Y-67446400D01*
X117457100Y-67607800D02*
X117507100Y-67524400D01*
X117415600Y-67695600D02*
X117457100Y-67607800D01*
X117382800Y-67787100D02*
X117415600Y-67695600D01*
X117359200Y-67881300D02*
X117382800Y-67787100D01*
X117345000Y-67977400D02*
X117359200Y-67881300D01*
X117340200Y-68074700D02*
X117345000Y-67977400D01*
X117340200Y-69092700D02*
X117340200Y-68074700D01*
X117345000Y-69189900D02*
X117340200Y-69092700D01*
X117359200Y-69286000D02*
X117345000Y-69189900D01*
X117382800Y-69380300D02*
X117359200Y-69286000D01*
X117415600Y-69471800D02*
X117382800Y-69380300D01*
X117457100Y-69559600D02*
X117415600Y-69471800D01*
X117507100Y-69642900D02*
X117457100Y-69559600D01*
X117564900Y-69720900D02*
X117507100Y-69642900D01*
X117630200Y-69792900D02*
X117564900Y-69720900D01*
X117702200Y-69858200D02*
X117630200Y-69792900D01*
X117780200Y-69916000D02*
X117702200Y-69858200D01*
X117863500Y-69966000D02*
X117780200Y-69916000D01*
X117951300Y-70007500D02*
X117863500Y-69966000D01*
X118042800Y-70040300D02*
X117951300Y-70007500D01*
X118137100Y-70063900D02*
X118042800Y-70040300D01*
X118233200Y-70078100D02*
X118137100Y-70063900D01*
X118330400Y-70082900D02*
X118233200Y-70078100D01*
X128389500Y-70082900D02*
X118330400Y-70082900D01*
X128396600Y-70084000D02*
X128389500Y-70082900D01*
X128400500Y-70086900D02*
X128396600Y-70084000D01*
X128403100Y-70096500D02*
X128400500Y-70086900D01*
X128408000Y-79984300D02*
X128403100Y-70096500D01*
X128406800Y-80008900D02*
X128408000Y-79984300D01*
X128388500Y-80196100D02*
X128406800Y-80008900D01*
X128384500Y-80222500D02*
X128388500Y-80196100D01*
X128343500Y-80419100D02*
X128384500Y-80222500D01*
X128278200Y-80622600D02*
X128343500Y-80419100D01*
X128191800Y-80817700D02*
X128278200Y-80622600D01*
X128085000Y-81002900D02*
X128191800Y-80817700D01*
X127959100Y-81175700D02*
X128085000Y-81002900D01*
X127815500Y-81334500D02*
X127959100Y-81175700D01*
X122567200Y-86582800D02*
X127815500Y-81334500D01*
X122421400Y-86714600D02*
X122567200Y-86582800D01*
X122264100Y-86831200D02*
X122421400Y-86714600D01*
X122095600Y-86932200D02*
X122264100Y-86831200D01*
X121929200Y-87011300D02*
X122095600Y-86932200D01*
X121906400Y-87020700D02*
X121929200Y-87011300D01*
X121744700Y-87078500D02*
X121906400Y-87020700D01*
X121721100Y-87085700D02*
X121744700Y-87078500D01*
X121542300Y-87130200D02*
X121721100Y-87085700D01*
X121348000Y-87158900D02*
X121542300Y-87130200D01*
X121146000Y-87168800D02*
X121348000Y-87158900D01*
X97956900Y-87165300D02*
X121146000Y-87168800D01*
X97726300Y-87152300D02*
X97956900Y-87165300D01*
X97505200Y-87114800D02*
X97726300Y-87152300D01*
X97289200Y-87052500D02*
X97505200Y-87114800D01*
X97095200Y-86972600D02*
X97289200Y-87052500D01*
X97069800Y-86960400D02*
X97095200Y-86972600D01*
X96886200Y-86858500D02*
X97069800Y-86960400D01*
X96714400Y-86737100D02*
X96886200Y-86858500D01*
X96692400Y-86719600D02*
X96714400Y-86737100D01*
X96535800Y-86579500D02*
X96692400Y-86719600D01*
X91289100Y-81335400D02*
X96535800Y-86579500D01*
X91157000Y-81189400D02*
X91289100Y-81335400D01*
X91040300Y-81032100D02*
X91157000Y-81189400D01*
X90939300Y-80863600D02*
X91040300Y-81032100D01*
X90858600Y-80693800D02*
X90939300Y-80863600D01*
X90810400Y-80604100D02*
X90858600Y-80693800D01*
X90753400Y-80520000D02*
X90810400Y-80604100D01*
X90688100Y-80442200D02*
X90753400Y-80520000D01*
X90615100Y-80371600D02*
X90688100Y-80442200D01*
X90535400Y-80308700D02*
X90615100Y-80371600D01*
X90449500Y-80254400D02*
X90535400Y-80308700D01*
X90358600Y-80209100D02*
X90449500Y-80254400D01*
X90263600Y-80173400D02*
X90358600Y-80209100D01*
X90165300Y-80147700D02*
X90263600Y-80173400D01*
X90065000Y-80132100D02*
X90165300Y-80147700D01*
X89963300Y-80126900D02*
X90065000Y-80132100D01*
X88439200Y-80126900D02*
X89963300Y-80126900D01*
X88343900Y-80131500D02*
X88439200Y-80126900D01*
X88249700Y-80145100D02*
X88343900Y-80131500D01*
X88157300Y-80167800D02*
X88249700Y-80145100D01*
X88067400Y-80199200D02*
X88157300Y-80167800D01*
X87981000Y-80239100D02*
X88067400Y-80199200D01*
X87898900Y-80287100D02*
X87981000Y-80239100D01*
X87821700Y-80342800D02*
X87898900Y-80287100D01*
X87750200Y-80405700D02*
X87821700Y-80342800D01*
X87685100Y-80475100D02*
X87750200Y-80405700D01*
X87627000Y-80550400D02*
X87685100Y-80475100D01*
X87576400Y-80631000D02*
X87627000Y-80550400D01*
X87533600Y-80716300D02*
X87576400Y-80631000D01*
X87488100Y-80818100D02*
X87533600Y-80716300D01*
X87381200Y-81003300D02*
X87488100Y-80818100D01*
X87255600Y-81175700D02*
X87381200Y-81003300D01*
X87112000Y-81334500D02*
X87255600Y-81175700D01*
X81863800Y-86582600D02*
X87112000Y-81334500D01*
X81718300Y-86714300D02*
X81863800Y-86582600D01*
X81570500Y-86824300D02*
X81718300Y-86714300D01*
X81550000Y-86838000D02*
X81570500Y-86824300D01*
X81391700Y-86932400D02*
X81550000Y-86838000D01*
X81214600Y-87016200D02*
X81391700Y-86932400D01*
X81041200Y-87078500D02*
X81214600Y-87016200D01*
X81017600Y-87085700D02*
X81041200Y-87078500D01*
X80839200Y-87130100D02*
X81017600Y-87085700D01*
X80644500Y-87158900D02*
X80839200Y-87130100D01*
X80442500Y-87168800D02*
X80644500Y-87158900D01*
X57253400Y-87165300D02*
X80442500Y-87168800D01*
X57022800Y-87152300D02*
X57253400Y-87165300D01*
X56815300Y-87117500D02*
X57022800Y-87152300D01*
X56787800Y-87111200D02*
X56815300Y-87117500D01*
X56599400Y-87056900D02*
X56787800Y-87111200D01*
X56573100Y-87047700D02*
X56599400Y-87056900D01*
X56378500Y-86966700D02*
X56573100Y-87047700D01*
X56182200Y-86858200D02*
X56378500Y-86966700D01*
X55999400Y-86728400D02*
X56182200Y-86858200D01*
X55827100Y-86574600D02*
X55999400Y-86728400D01*
X50585500Y-81335400D02*
X55827100Y-86574600D01*
X50453500Y-81189400D02*
X50585500Y-81335400D01*
X50336500Y-81031700D02*
X50453500Y-81189400D01*
X50235500Y-80863200D02*
X50336500Y-81031700D01*
X50151500Y-80685600D02*
X50235500Y-80863200D01*
X50085500Y-80501100D02*
X50151500Y-80685600D01*
X50037800Y-80310500D02*
X50085500Y-80501100D01*
X50008900Y-80116200D02*
X50037800Y-80310500D01*
X49999100Y-79919700D02*
X50008900Y-80116200D01*
X50001000Y-70091300D02*
X49999100Y-79919700D01*
X50005300Y-70084900D02*
X50001000Y-70091300D01*
X50014100Y-70082900D02*
X50005300Y-70084900D01*
X60076600Y-70082900D02*
X50014100Y-70082900D01*
X60173900Y-70078100D02*
X60076600Y-70082900D01*
X60270000Y-70063900D02*
X60173900Y-70078100D01*
X60364200Y-70040300D02*
X60270000Y-70063900D01*
X60455700Y-70007500D02*
X60364200Y-70040300D01*
X60543500Y-69966000D02*
X60455700Y-70007500D01*
X60626800Y-69916000D02*
X60543500Y-69966000D01*
X60704900Y-69858200D02*
X60626800Y-69916000D01*
X60776900Y-69792900D02*
X60704900Y-69858200D01*
X60842100Y-69720900D02*
X60776900Y-69792900D01*
X60900000Y-69642900D02*
X60842100Y-69720900D01*
X60949900Y-69559600D02*
X60900000Y-69642900D01*
X60991500Y-69471800D02*
X60949900Y-69559600D01*
X61024200Y-69380300D02*
X60991500Y-69471800D01*
X61047800Y-69286000D02*
X61024200Y-69380300D01*
X61062100Y-69189900D02*
X61047800Y-69286000D01*
X61066800Y-69092700D02*
X61062100Y-69189900D01*
X61066800Y-68072100D02*
X61066800Y-69092700D01*
X61062100Y-67974800D02*
X61066800Y-68072100D01*
X61047800Y-67878700D02*
X61062100Y-67974800D01*
X61024200Y-67784500D02*
X61047800Y-67878700D01*
X60991500Y-67693000D02*
X61024200Y-67784500D01*
X60950000Y-67605200D02*
X60991500Y-67693000D01*
X60900000Y-67521900D02*
X60950000Y-67605200D01*
X60842200Y-67443800D02*
X60900000Y-67521900D01*
X60776900Y-67371800D02*
X60842200Y-67443800D01*
X60704900Y-67306600D02*
X60776900Y-67371800D01*
X60626900Y-67248700D02*
X60704900Y-67306600D01*
X60543600Y-67198800D02*
X60626900Y-67248700D01*
X60455800Y-67157200D02*
X60543600Y-67198800D01*
X60364300Y-67124500D02*
X60455800Y-67157200D01*
X60270100Y-67100900D02*
X60364300Y-67124500D01*
X60174000Y-67086600D02*
X60270100Y-67100900D01*
X60076700Y-67081800D02*
X60174000Y-67086600D01*
X57253400Y-67081400D02*
X60076700Y-67081800D01*
X57036300Y-67069600D02*
X57253400Y-67081400D01*
X57008600Y-67066400D02*
X57036300Y-67069600D01*
X56801700Y-67030900D02*
X57008600Y-67066400D01*
X56586200Y-66968800D02*
X56801700Y-67030900D01*
X56379000Y-66883000D02*
X56586200Y-66968800D01*
X56182200Y-66774300D02*
X56379000Y-66883000D01*
X55999400Y-66644500D02*
X56182200Y-66774300D01*
X55827100Y-66490700D02*
X55999400Y-66644500D01*
X50589800Y-61255800D02*
X55827100Y-66490700D01*
X50453500Y-61105500D02*
X50589800Y-61255800D01*
X50343800Y-60958100D02*
X50453500Y-61105500D01*
X50330200Y-60937800D02*
X50343800Y-60958100D01*
X50235700Y-60779700D02*
X50330200Y-60937800D01*
X50156600Y-60613200D02*
X50235700Y-60779700D01*
X50147200Y-60590400D02*
X50156600Y-60613200D01*
X50085400Y-60416700D02*
X50147200Y-60590400D01*
X50040400Y-60238500D02*
X50085400Y-60416700D01*
X50035600Y-60214300D02*
X50040400Y-60238500D01*
X50008900Y-60031800D02*
X50035600Y-60214300D01*
X49999100Y-59836000D02*
X50008900Y-60031800D01*
X50000500Y-50011600D02*
X49999100Y-59836000D01*
D11*
G04 #@! TO.C,R1*
G36*
X96770527Y-74719115D02*
G01*
X96794795Y-74722715D01*
X96818594Y-74728676D01*
X96841693Y-74736941D01*
X96863872Y-74747431D01*
X96884915Y-74760043D01*
X96904621Y-74774658D01*
X96922799Y-74791134D01*
X96939275Y-74809312D01*
X96953890Y-74829018D01*
X96966502Y-74850061D01*
X96976992Y-74872240D01*
X96985257Y-74895339D01*
X96991218Y-74919138D01*
X96994818Y-74943406D01*
X96996022Y-74967910D01*
X96996022Y-75867912D01*
X96994818Y-75892416D01*
X96991218Y-75916684D01*
X96985257Y-75940483D01*
X96976992Y-75963582D01*
X96966502Y-75985761D01*
X96953890Y-76006804D01*
X96939275Y-76026510D01*
X96922799Y-76044688D01*
X96904621Y-76061164D01*
X96884915Y-76075779D01*
X96863872Y-76088391D01*
X96841693Y-76098881D01*
X96818594Y-76107146D01*
X96794795Y-76113107D01*
X96770527Y-76116707D01*
X96746023Y-76117911D01*
X96096021Y-76117911D01*
X96071517Y-76116707D01*
X96047249Y-76113107D01*
X96023450Y-76107146D01*
X96000351Y-76098881D01*
X95978172Y-76088391D01*
X95957129Y-76075779D01*
X95937423Y-76061164D01*
X95919245Y-76044688D01*
X95902769Y-76026510D01*
X95888154Y-76006804D01*
X95875542Y-75985761D01*
X95865052Y-75963582D01*
X95856787Y-75940483D01*
X95850826Y-75916684D01*
X95847226Y-75892416D01*
X95846022Y-75867912D01*
X95846022Y-74967910D01*
X95847226Y-74943406D01*
X95850826Y-74919138D01*
X95856787Y-74895339D01*
X95865052Y-74872240D01*
X95875542Y-74850061D01*
X95888154Y-74829018D01*
X95902769Y-74809312D01*
X95919245Y-74791134D01*
X95937423Y-74774658D01*
X95957129Y-74760043D01*
X95978172Y-74747431D01*
X96000351Y-74736941D01*
X96023450Y-74728676D01*
X96047249Y-74722715D01*
X96071517Y-74719115D01*
X96096021Y-74717911D01*
X96746023Y-74717911D01*
X96770527Y-74719115D01*
G37*
G36*
X98820527Y-74719115D02*
G01*
X98844795Y-74722715D01*
X98868594Y-74728676D01*
X98891693Y-74736941D01*
X98913872Y-74747431D01*
X98934915Y-74760043D01*
X98954621Y-74774658D01*
X98972799Y-74791134D01*
X98989275Y-74809312D01*
X99003890Y-74829018D01*
X99016502Y-74850061D01*
X99026992Y-74872240D01*
X99035257Y-74895339D01*
X99041218Y-74919138D01*
X99044818Y-74943406D01*
X99046022Y-74967910D01*
X99046022Y-75867912D01*
X99044818Y-75892416D01*
X99041218Y-75916684D01*
X99035257Y-75940483D01*
X99026992Y-75963582D01*
X99016502Y-75985761D01*
X99003890Y-76006804D01*
X98989275Y-76026510D01*
X98972799Y-76044688D01*
X98954621Y-76061164D01*
X98934915Y-76075779D01*
X98913872Y-76088391D01*
X98891693Y-76098881D01*
X98868594Y-76107146D01*
X98844795Y-76113107D01*
X98820527Y-76116707D01*
X98796023Y-76117911D01*
X98146021Y-76117911D01*
X98121517Y-76116707D01*
X98097249Y-76113107D01*
X98073450Y-76107146D01*
X98050351Y-76098881D01*
X98028172Y-76088391D01*
X98007129Y-76075779D01*
X97987423Y-76061164D01*
X97969245Y-76044688D01*
X97952769Y-76026510D01*
X97938154Y-76006804D01*
X97925542Y-75985761D01*
X97915052Y-75963582D01*
X97906787Y-75940483D01*
X97900826Y-75916684D01*
X97897226Y-75892416D01*
X97896022Y-75867912D01*
X97896022Y-74967910D01*
X97897226Y-74943406D01*
X97900826Y-74919138D01*
X97906787Y-74895339D01*
X97915052Y-74872240D01*
X97925542Y-74850061D01*
X97938154Y-74829018D01*
X97952769Y-74809312D01*
X97969245Y-74791134D01*
X97987423Y-74774658D01*
X98007129Y-74760043D01*
X98028172Y-74747431D01*
X98050351Y-74736941D01*
X98073450Y-74728676D01*
X98097249Y-74722715D01*
X98121517Y-74719115D01*
X98146021Y-74717911D01*
X98796023Y-74717911D01*
X98820527Y-74719115D01*
G37*
G04 #@! TD*
G04 #@! TO.C,R2*
G36*
X123750527Y-74809115D02*
G01*
X123774795Y-74812715D01*
X123798594Y-74818676D01*
X123821693Y-74826941D01*
X123843872Y-74837431D01*
X123864915Y-74850043D01*
X123884621Y-74864658D01*
X123902799Y-74881134D01*
X123919275Y-74899312D01*
X123933890Y-74919018D01*
X123946502Y-74940061D01*
X123956992Y-74962240D01*
X123965257Y-74985339D01*
X123971218Y-75009138D01*
X123974818Y-75033406D01*
X123976022Y-75057910D01*
X123976022Y-75957912D01*
X123974818Y-75982416D01*
X123971218Y-76006684D01*
X123965257Y-76030483D01*
X123956992Y-76053582D01*
X123946502Y-76075761D01*
X123933890Y-76096804D01*
X123919275Y-76116510D01*
X123902799Y-76134688D01*
X123884621Y-76151164D01*
X123864915Y-76165779D01*
X123843872Y-76178391D01*
X123821693Y-76188881D01*
X123798594Y-76197146D01*
X123774795Y-76203107D01*
X123750527Y-76206707D01*
X123726023Y-76207911D01*
X123076021Y-76207911D01*
X123051517Y-76206707D01*
X123027249Y-76203107D01*
X123003450Y-76197146D01*
X122980351Y-76188881D01*
X122958172Y-76178391D01*
X122937129Y-76165779D01*
X122917423Y-76151164D01*
X122899245Y-76134688D01*
X122882769Y-76116510D01*
X122868154Y-76096804D01*
X122855542Y-76075761D01*
X122845052Y-76053582D01*
X122836787Y-76030483D01*
X122830826Y-76006684D01*
X122827226Y-75982416D01*
X122826022Y-75957912D01*
X122826022Y-75057910D01*
X122827226Y-75033406D01*
X122830826Y-75009138D01*
X122836787Y-74985339D01*
X122845052Y-74962240D01*
X122855542Y-74940061D01*
X122868154Y-74919018D01*
X122882769Y-74899312D01*
X122899245Y-74881134D01*
X122917423Y-74864658D01*
X122937129Y-74850043D01*
X122958172Y-74837431D01*
X122980351Y-74826941D01*
X123003450Y-74818676D01*
X123027249Y-74812715D01*
X123051517Y-74809115D01*
X123076021Y-74807911D01*
X123726023Y-74807911D01*
X123750527Y-74809115D01*
G37*
G36*
X125800527Y-74809115D02*
G01*
X125824795Y-74812715D01*
X125848594Y-74818676D01*
X125871693Y-74826941D01*
X125893872Y-74837431D01*
X125914915Y-74850043D01*
X125934621Y-74864658D01*
X125952799Y-74881134D01*
X125969275Y-74899312D01*
X125983890Y-74919018D01*
X125996502Y-74940061D01*
X126006992Y-74962240D01*
X126015257Y-74985339D01*
X126021218Y-75009138D01*
X126024818Y-75033406D01*
X126026022Y-75057910D01*
X126026022Y-75957912D01*
X126024818Y-75982416D01*
X126021218Y-76006684D01*
X126015257Y-76030483D01*
X126006992Y-76053582D01*
X125996502Y-76075761D01*
X125983890Y-76096804D01*
X125969275Y-76116510D01*
X125952799Y-76134688D01*
X125934621Y-76151164D01*
X125914915Y-76165779D01*
X125893872Y-76178391D01*
X125871693Y-76188881D01*
X125848594Y-76197146D01*
X125824795Y-76203107D01*
X125800527Y-76206707D01*
X125776023Y-76207911D01*
X125126021Y-76207911D01*
X125101517Y-76206707D01*
X125077249Y-76203107D01*
X125053450Y-76197146D01*
X125030351Y-76188881D01*
X125008172Y-76178391D01*
X124987129Y-76165779D01*
X124967423Y-76151164D01*
X124949245Y-76134688D01*
X124932769Y-76116510D01*
X124918154Y-76096804D01*
X124905542Y-76075761D01*
X124895052Y-76053582D01*
X124886787Y-76030483D01*
X124880826Y-76006684D01*
X124877226Y-75982416D01*
X124876022Y-75957912D01*
X124876022Y-75057910D01*
X124877226Y-75033406D01*
X124880826Y-75009138D01*
X124886787Y-74985339D01*
X124895052Y-74962240D01*
X124905542Y-74940061D01*
X124918154Y-74919018D01*
X124932769Y-74899312D01*
X124949245Y-74881134D01*
X124967423Y-74864658D01*
X124987129Y-74850043D01*
X125008172Y-74837431D01*
X125030351Y-74826941D01*
X125053450Y-74818676D01*
X125077249Y-74812715D01*
X125101517Y-74809115D01*
X125126021Y-74807911D01*
X125776023Y-74807911D01*
X125800527Y-74809115D01*
G37*
G04 #@! TD*
G04 #@! TO.C,R3*
G36*
X103652627Y-74809115D02*
G01*
X103676895Y-74812715D01*
X103700694Y-74818676D01*
X103723793Y-74826941D01*
X103745972Y-74837431D01*
X103767015Y-74850043D01*
X103786721Y-74864658D01*
X103804899Y-74881134D01*
X103821375Y-74899312D01*
X103835990Y-74919018D01*
X103848602Y-74940061D01*
X103859092Y-74962240D01*
X103867357Y-74985339D01*
X103873318Y-75009138D01*
X103876918Y-75033406D01*
X103878122Y-75057910D01*
X103878122Y-75957912D01*
X103876918Y-75982416D01*
X103873318Y-76006684D01*
X103867357Y-76030483D01*
X103859092Y-76053582D01*
X103848602Y-76075761D01*
X103835990Y-76096804D01*
X103821375Y-76116510D01*
X103804899Y-76134688D01*
X103786721Y-76151164D01*
X103767015Y-76165779D01*
X103745972Y-76178391D01*
X103723793Y-76188881D01*
X103700694Y-76197146D01*
X103676895Y-76203107D01*
X103652627Y-76206707D01*
X103628123Y-76207911D01*
X102978121Y-76207911D01*
X102953617Y-76206707D01*
X102929349Y-76203107D01*
X102905550Y-76197146D01*
X102882451Y-76188881D01*
X102860272Y-76178391D01*
X102839229Y-76165779D01*
X102819523Y-76151164D01*
X102801345Y-76134688D01*
X102784869Y-76116510D01*
X102770254Y-76096804D01*
X102757642Y-76075761D01*
X102747152Y-76053582D01*
X102738887Y-76030483D01*
X102732926Y-76006684D01*
X102729326Y-75982416D01*
X102728122Y-75957912D01*
X102728122Y-75057910D01*
X102729326Y-75033406D01*
X102732926Y-75009138D01*
X102738887Y-74985339D01*
X102747152Y-74962240D01*
X102757642Y-74940061D01*
X102770254Y-74919018D01*
X102784869Y-74899312D01*
X102801345Y-74881134D01*
X102819523Y-74864658D01*
X102839229Y-74850043D01*
X102860272Y-74837431D01*
X102882451Y-74826941D01*
X102905550Y-74818676D01*
X102929349Y-74812715D01*
X102953617Y-74809115D01*
X102978121Y-74807911D01*
X103628123Y-74807911D01*
X103652627Y-74809115D01*
G37*
G36*
X101602627Y-74809115D02*
G01*
X101626895Y-74812715D01*
X101650694Y-74818676D01*
X101673793Y-74826941D01*
X101695972Y-74837431D01*
X101717015Y-74850043D01*
X101736721Y-74864658D01*
X101754899Y-74881134D01*
X101771375Y-74899312D01*
X101785990Y-74919018D01*
X101798602Y-74940061D01*
X101809092Y-74962240D01*
X101817357Y-74985339D01*
X101823318Y-75009138D01*
X101826918Y-75033406D01*
X101828122Y-75057910D01*
X101828122Y-75957912D01*
X101826918Y-75982416D01*
X101823318Y-76006684D01*
X101817357Y-76030483D01*
X101809092Y-76053582D01*
X101798602Y-76075761D01*
X101785990Y-76096804D01*
X101771375Y-76116510D01*
X101754899Y-76134688D01*
X101736721Y-76151164D01*
X101717015Y-76165779D01*
X101695972Y-76178391D01*
X101673793Y-76188881D01*
X101650694Y-76197146D01*
X101626895Y-76203107D01*
X101602627Y-76206707D01*
X101578123Y-76207911D01*
X100928121Y-76207911D01*
X100903617Y-76206707D01*
X100879349Y-76203107D01*
X100855550Y-76197146D01*
X100832451Y-76188881D01*
X100810272Y-76178391D01*
X100789229Y-76165779D01*
X100769523Y-76151164D01*
X100751345Y-76134688D01*
X100734869Y-76116510D01*
X100720254Y-76096804D01*
X100707642Y-76075761D01*
X100697152Y-76053582D01*
X100688887Y-76030483D01*
X100682926Y-76006684D01*
X100679326Y-75982416D01*
X100678122Y-75957912D01*
X100678122Y-75057910D01*
X100679326Y-75033406D01*
X100682926Y-75009138D01*
X100688887Y-74985339D01*
X100697152Y-74962240D01*
X100707642Y-74940061D01*
X100720254Y-74919018D01*
X100734869Y-74899312D01*
X100751345Y-74881134D01*
X100769523Y-74864658D01*
X100789229Y-74850043D01*
X100810272Y-74837431D01*
X100832451Y-74826941D01*
X100855550Y-74818676D01*
X100879349Y-74812715D01*
X100903617Y-74809115D01*
X100928121Y-74807911D01*
X101578123Y-74807911D01*
X101602627Y-74809115D01*
G37*
G04 #@! TD*
G04 #@! TO.C,R4*
G36*
X121893627Y-76559115D02*
G01*
X121917895Y-76562715D01*
X121941694Y-76568676D01*
X121964793Y-76576941D01*
X121986972Y-76587431D01*
X122008015Y-76600043D01*
X122027721Y-76614658D01*
X122045899Y-76631134D01*
X122062375Y-76649312D01*
X122076990Y-76669018D01*
X122089602Y-76690061D01*
X122100092Y-76712240D01*
X122108357Y-76735339D01*
X122114318Y-76759138D01*
X122117918Y-76783406D01*
X122119122Y-76807910D01*
X122119122Y-77707912D01*
X122117918Y-77732416D01*
X122114318Y-77756684D01*
X122108357Y-77780483D01*
X122100092Y-77803582D01*
X122089602Y-77825761D01*
X122076990Y-77846804D01*
X122062375Y-77866510D01*
X122045899Y-77884688D01*
X122027721Y-77901164D01*
X122008015Y-77915779D01*
X121986972Y-77928391D01*
X121964793Y-77938881D01*
X121941694Y-77947146D01*
X121917895Y-77953107D01*
X121893627Y-77956707D01*
X121869123Y-77957911D01*
X121219121Y-77957911D01*
X121194617Y-77956707D01*
X121170349Y-77953107D01*
X121146550Y-77947146D01*
X121123451Y-77938881D01*
X121101272Y-77928391D01*
X121080229Y-77915779D01*
X121060523Y-77901164D01*
X121042345Y-77884688D01*
X121025869Y-77866510D01*
X121011254Y-77846804D01*
X120998642Y-77825761D01*
X120988152Y-77803582D01*
X120979887Y-77780483D01*
X120973926Y-77756684D01*
X120970326Y-77732416D01*
X120969122Y-77707912D01*
X120969122Y-76807910D01*
X120970326Y-76783406D01*
X120973926Y-76759138D01*
X120979887Y-76735339D01*
X120988152Y-76712240D01*
X120998642Y-76690061D01*
X121011254Y-76669018D01*
X121025869Y-76649312D01*
X121042345Y-76631134D01*
X121060523Y-76614658D01*
X121080229Y-76600043D01*
X121101272Y-76587431D01*
X121123451Y-76576941D01*
X121146550Y-76568676D01*
X121170349Y-76562715D01*
X121194617Y-76559115D01*
X121219121Y-76557911D01*
X121869123Y-76557911D01*
X121893627Y-76559115D01*
G37*
G36*
X123943627Y-76559115D02*
G01*
X123967895Y-76562715D01*
X123991694Y-76568676D01*
X124014793Y-76576941D01*
X124036972Y-76587431D01*
X124058015Y-76600043D01*
X124077721Y-76614658D01*
X124095899Y-76631134D01*
X124112375Y-76649312D01*
X124126990Y-76669018D01*
X124139602Y-76690061D01*
X124150092Y-76712240D01*
X124158357Y-76735339D01*
X124164318Y-76759138D01*
X124167918Y-76783406D01*
X124169122Y-76807910D01*
X124169122Y-77707912D01*
X124167918Y-77732416D01*
X124164318Y-77756684D01*
X124158357Y-77780483D01*
X124150092Y-77803582D01*
X124139602Y-77825761D01*
X124126990Y-77846804D01*
X124112375Y-77866510D01*
X124095899Y-77884688D01*
X124077721Y-77901164D01*
X124058015Y-77915779D01*
X124036972Y-77928391D01*
X124014793Y-77938881D01*
X123991694Y-77947146D01*
X123967895Y-77953107D01*
X123943627Y-77956707D01*
X123919123Y-77957911D01*
X123269121Y-77957911D01*
X123244617Y-77956707D01*
X123220349Y-77953107D01*
X123196550Y-77947146D01*
X123173451Y-77938881D01*
X123151272Y-77928391D01*
X123130229Y-77915779D01*
X123110523Y-77901164D01*
X123092345Y-77884688D01*
X123075869Y-77866510D01*
X123061254Y-77846804D01*
X123048642Y-77825761D01*
X123038152Y-77803582D01*
X123029887Y-77780483D01*
X123023926Y-77756684D01*
X123020326Y-77732416D01*
X123019122Y-77707912D01*
X123019122Y-76807910D01*
X123020326Y-76783406D01*
X123023926Y-76759138D01*
X123029887Y-76735339D01*
X123038152Y-76712240D01*
X123048642Y-76690061D01*
X123061254Y-76669018D01*
X123075869Y-76649312D01*
X123092345Y-76631134D01*
X123110523Y-76614658D01*
X123130229Y-76600043D01*
X123151272Y-76587431D01*
X123173451Y-76576941D01*
X123196550Y-76568676D01*
X123220349Y-76562715D01*
X123244617Y-76559115D01*
X123269121Y-76557911D01*
X123919123Y-76557911D01*
X123943627Y-76559115D01*
G37*
G04 #@! TD*
G04 #@! TO.C,R5*
G36*
X109352627Y-74809115D02*
G01*
X109376895Y-74812715D01*
X109400694Y-74818676D01*
X109423793Y-74826941D01*
X109445972Y-74837431D01*
X109467015Y-74850043D01*
X109486721Y-74864658D01*
X109504899Y-74881134D01*
X109521375Y-74899312D01*
X109535990Y-74919018D01*
X109548602Y-74940061D01*
X109559092Y-74962240D01*
X109567357Y-74985339D01*
X109573318Y-75009138D01*
X109576918Y-75033406D01*
X109578122Y-75057910D01*
X109578122Y-75957912D01*
X109576918Y-75982416D01*
X109573318Y-76006684D01*
X109567357Y-76030483D01*
X109559092Y-76053582D01*
X109548602Y-76075761D01*
X109535990Y-76096804D01*
X109521375Y-76116510D01*
X109504899Y-76134688D01*
X109486721Y-76151164D01*
X109467015Y-76165779D01*
X109445972Y-76178391D01*
X109423793Y-76188881D01*
X109400694Y-76197146D01*
X109376895Y-76203107D01*
X109352627Y-76206707D01*
X109328123Y-76207911D01*
X108678121Y-76207911D01*
X108653617Y-76206707D01*
X108629349Y-76203107D01*
X108605550Y-76197146D01*
X108582451Y-76188881D01*
X108560272Y-76178391D01*
X108539229Y-76165779D01*
X108519523Y-76151164D01*
X108501345Y-76134688D01*
X108484869Y-76116510D01*
X108470254Y-76096804D01*
X108457642Y-76075761D01*
X108447152Y-76053582D01*
X108438887Y-76030483D01*
X108432926Y-76006684D01*
X108429326Y-75982416D01*
X108428122Y-75957912D01*
X108428122Y-75057910D01*
X108429326Y-75033406D01*
X108432926Y-75009138D01*
X108438887Y-74985339D01*
X108447152Y-74962240D01*
X108457642Y-74940061D01*
X108470254Y-74919018D01*
X108484869Y-74899312D01*
X108501345Y-74881134D01*
X108519523Y-74864658D01*
X108539229Y-74850043D01*
X108560272Y-74837431D01*
X108582451Y-74826941D01*
X108605550Y-74818676D01*
X108629349Y-74812715D01*
X108653617Y-74809115D01*
X108678121Y-74807911D01*
X109328123Y-74807911D01*
X109352627Y-74809115D01*
G37*
G36*
X111402627Y-74809115D02*
G01*
X111426895Y-74812715D01*
X111450694Y-74818676D01*
X111473793Y-74826941D01*
X111495972Y-74837431D01*
X111517015Y-74850043D01*
X111536721Y-74864658D01*
X111554899Y-74881134D01*
X111571375Y-74899312D01*
X111585990Y-74919018D01*
X111598602Y-74940061D01*
X111609092Y-74962240D01*
X111617357Y-74985339D01*
X111623318Y-75009138D01*
X111626918Y-75033406D01*
X111628122Y-75057910D01*
X111628122Y-75957912D01*
X111626918Y-75982416D01*
X111623318Y-76006684D01*
X111617357Y-76030483D01*
X111609092Y-76053582D01*
X111598602Y-76075761D01*
X111585990Y-76096804D01*
X111571375Y-76116510D01*
X111554899Y-76134688D01*
X111536721Y-76151164D01*
X111517015Y-76165779D01*
X111495972Y-76178391D01*
X111473793Y-76188881D01*
X111450694Y-76197146D01*
X111426895Y-76203107D01*
X111402627Y-76206707D01*
X111378123Y-76207911D01*
X110728121Y-76207911D01*
X110703617Y-76206707D01*
X110679349Y-76203107D01*
X110655550Y-76197146D01*
X110632451Y-76188881D01*
X110610272Y-76178391D01*
X110589229Y-76165779D01*
X110569523Y-76151164D01*
X110551345Y-76134688D01*
X110534869Y-76116510D01*
X110520254Y-76096804D01*
X110507642Y-76075761D01*
X110497152Y-76053582D01*
X110488887Y-76030483D01*
X110482926Y-76006684D01*
X110479326Y-75982416D01*
X110478122Y-75957912D01*
X110478122Y-75057910D01*
X110479326Y-75033406D01*
X110482926Y-75009138D01*
X110488887Y-74985339D01*
X110497152Y-74962240D01*
X110507642Y-74940061D01*
X110520254Y-74919018D01*
X110534869Y-74899312D01*
X110551345Y-74881134D01*
X110569523Y-74864658D01*
X110589229Y-74850043D01*
X110610272Y-74837431D01*
X110632451Y-74826941D01*
X110655550Y-74818676D01*
X110679349Y-74812715D01*
X110703617Y-74809115D01*
X110728121Y-74807911D01*
X111378123Y-74807911D01*
X111402627Y-74809115D01*
G37*
G04 #@! TD*
G04 #@! TO.C,R6*
G36*
X118210527Y-74809115D02*
G01*
X118234795Y-74812715D01*
X118258594Y-74818676D01*
X118281693Y-74826941D01*
X118303872Y-74837431D01*
X118324915Y-74850043D01*
X118344621Y-74864658D01*
X118362799Y-74881134D01*
X118379275Y-74899312D01*
X118393890Y-74919018D01*
X118406502Y-74940061D01*
X118416992Y-74962240D01*
X118425257Y-74985339D01*
X118431218Y-75009138D01*
X118434818Y-75033406D01*
X118436022Y-75057910D01*
X118436022Y-75957912D01*
X118434818Y-75982416D01*
X118431218Y-76006684D01*
X118425257Y-76030483D01*
X118416992Y-76053582D01*
X118406502Y-76075761D01*
X118393890Y-76096804D01*
X118379275Y-76116510D01*
X118362799Y-76134688D01*
X118344621Y-76151164D01*
X118324915Y-76165779D01*
X118303872Y-76178391D01*
X118281693Y-76188881D01*
X118258594Y-76197146D01*
X118234795Y-76203107D01*
X118210527Y-76206707D01*
X118186023Y-76207911D01*
X117536021Y-76207911D01*
X117511517Y-76206707D01*
X117487249Y-76203107D01*
X117463450Y-76197146D01*
X117440351Y-76188881D01*
X117418172Y-76178391D01*
X117397129Y-76165779D01*
X117377423Y-76151164D01*
X117359245Y-76134688D01*
X117342769Y-76116510D01*
X117328154Y-76096804D01*
X117315542Y-76075761D01*
X117305052Y-76053582D01*
X117296787Y-76030483D01*
X117290826Y-76006684D01*
X117287226Y-75982416D01*
X117286022Y-75957912D01*
X117286022Y-75057910D01*
X117287226Y-75033406D01*
X117290826Y-75009138D01*
X117296787Y-74985339D01*
X117305052Y-74962240D01*
X117315542Y-74940061D01*
X117328154Y-74919018D01*
X117342769Y-74899312D01*
X117359245Y-74881134D01*
X117377423Y-74864658D01*
X117397129Y-74850043D01*
X117418172Y-74837431D01*
X117440351Y-74826941D01*
X117463450Y-74818676D01*
X117487249Y-74812715D01*
X117511517Y-74809115D01*
X117536021Y-74807911D01*
X118186023Y-74807911D01*
X118210527Y-74809115D01*
G37*
G36*
X120260527Y-74809115D02*
G01*
X120284795Y-74812715D01*
X120308594Y-74818676D01*
X120331693Y-74826941D01*
X120353872Y-74837431D01*
X120374915Y-74850043D01*
X120394621Y-74864658D01*
X120412799Y-74881134D01*
X120429275Y-74899312D01*
X120443890Y-74919018D01*
X120456502Y-74940061D01*
X120466992Y-74962240D01*
X120475257Y-74985339D01*
X120481218Y-75009138D01*
X120484818Y-75033406D01*
X120486022Y-75057910D01*
X120486022Y-75957912D01*
X120484818Y-75982416D01*
X120481218Y-76006684D01*
X120475257Y-76030483D01*
X120466992Y-76053582D01*
X120456502Y-76075761D01*
X120443890Y-76096804D01*
X120429275Y-76116510D01*
X120412799Y-76134688D01*
X120394621Y-76151164D01*
X120374915Y-76165779D01*
X120353872Y-76178391D01*
X120331693Y-76188881D01*
X120308594Y-76197146D01*
X120284795Y-76203107D01*
X120260527Y-76206707D01*
X120236023Y-76207911D01*
X119586021Y-76207911D01*
X119561517Y-76206707D01*
X119537249Y-76203107D01*
X119513450Y-76197146D01*
X119490351Y-76188881D01*
X119468172Y-76178391D01*
X119447129Y-76165779D01*
X119427423Y-76151164D01*
X119409245Y-76134688D01*
X119392769Y-76116510D01*
X119378154Y-76096804D01*
X119365542Y-76075761D01*
X119355052Y-76053582D01*
X119346787Y-76030483D01*
X119340826Y-76006684D01*
X119337226Y-75982416D01*
X119336022Y-75957912D01*
X119336022Y-75057910D01*
X119337226Y-75033406D01*
X119340826Y-75009138D01*
X119346787Y-74985339D01*
X119355052Y-74962240D01*
X119365542Y-74940061D01*
X119378154Y-74919018D01*
X119392769Y-74899312D01*
X119409245Y-74881134D01*
X119427423Y-74864658D01*
X119447129Y-74850043D01*
X119468172Y-74837431D01*
X119490351Y-74826941D01*
X119513450Y-74818676D01*
X119537249Y-74812715D01*
X119561517Y-74809115D01*
X119586021Y-74807911D01*
X120236023Y-74807911D01*
X120260527Y-74809115D01*
G37*
G04 #@! TD*
G04 #@! TO.C,R7*
G36*
X113390527Y-74809115D02*
G01*
X113414795Y-74812715D01*
X113438594Y-74818676D01*
X113461693Y-74826941D01*
X113483872Y-74837431D01*
X113504915Y-74850043D01*
X113524621Y-74864658D01*
X113542799Y-74881134D01*
X113559275Y-74899312D01*
X113573890Y-74919018D01*
X113586502Y-74940061D01*
X113596992Y-74962240D01*
X113605257Y-74985339D01*
X113611218Y-75009138D01*
X113614818Y-75033406D01*
X113616022Y-75057910D01*
X113616022Y-75957912D01*
X113614818Y-75982416D01*
X113611218Y-76006684D01*
X113605257Y-76030483D01*
X113596992Y-76053582D01*
X113586502Y-76075761D01*
X113573890Y-76096804D01*
X113559275Y-76116510D01*
X113542799Y-76134688D01*
X113524621Y-76151164D01*
X113504915Y-76165779D01*
X113483872Y-76178391D01*
X113461693Y-76188881D01*
X113438594Y-76197146D01*
X113414795Y-76203107D01*
X113390527Y-76206707D01*
X113366023Y-76207911D01*
X112716021Y-76207911D01*
X112691517Y-76206707D01*
X112667249Y-76203107D01*
X112643450Y-76197146D01*
X112620351Y-76188881D01*
X112598172Y-76178391D01*
X112577129Y-76165779D01*
X112557423Y-76151164D01*
X112539245Y-76134688D01*
X112522769Y-76116510D01*
X112508154Y-76096804D01*
X112495542Y-76075761D01*
X112485052Y-76053582D01*
X112476787Y-76030483D01*
X112470826Y-76006684D01*
X112467226Y-75982416D01*
X112466022Y-75957912D01*
X112466022Y-75057910D01*
X112467226Y-75033406D01*
X112470826Y-75009138D01*
X112476787Y-74985339D01*
X112485052Y-74962240D01*
X112495542Y-74940061D01*
X112508154Y-74919018D01*
X112522769Y-74899312D01*
X112539245Y-74881134D01*
X112557423Y-74864658D01*
X112577129Y-74850043D01*
X112598172Y-74837431D01*
X112620351Y-74826941D01*
X112643450Y-74818676D01*
X112667249Y-74812715D01*
X112691517Y-74809115D01*
X112716021Y-74807911D01*
X113366023Y-74807911D01*
X113390527Y-74809115D01*
G37*
G36*
X115440527Y-74809115D02*
G01*
X115464795Y-74812715D01*
X115488594Y-74818676D01*
X115511693Y-74826941D01*
X115533872Y-74837431D01*
X115554915Y-74850043D01*
X115574621Y-74864658D01*
X115592799Y-74881134D01*
X115609275Y-74899312D01*
X115623890Y-74919018D01*
X115636502Y-74940061D01*
X115646992Y-74962240D01*
X115655257Y-74985339D01*
X115661218Y-75009138D01*
X115664818Y-75033406D01*
X115666022Y-75057910D01*
X115666022Y-75957912D01*
X115664818Y-75982416D01*
X115661218Y-76006684D01*
X115655257Y-76030483D01*
X115646992Y-76053582D01*
X115636502Y-76075761D01*
X115623890Y-76096804D01*
X115609275Y-76116510D01*
X115592799Y-76134688D01*
X115574621Y-76151164D01*
X115554915Y-76165779D01*
X115533872Y-76178391D01*
X115511693Y-76188881D01*
X115488594Y-76197146D01*
X115464795Y-76203107D01*
X115440527Y-76206707D01*
X115416023Y-76207911D01*
X114766021Y-76207911D01*
X114741517Y-76206707D01*
X114717249Y-76203107D01*
X114693450Y-76197146D01*
X114670351Y-76188881D01*
X114648172Y-76178391D01*
X114627129Y-76165779D01*
X114607423Y-76151164D01*
X114589245Y-76134688D01*
X114572769Y-76116510D01*
X114558154Y-76096804D01*
X114545542Y-76075761D01*
X114535052Y-76053582D01*
X114526787Y-76030483D01*
X114520826Y-76006684D01*
X114517226Y-75982416D01*
X114516022Y-75957912D01*
X114516022Y-75057910D01*
X114517226Y-75033406D01*
X114520826Y-75009138D01*
X114526787Y-74985339D01*
X114535052Y-74962240D01*
X114545542Y-74940061D01*
X114558154Y-74919018D01*
X114572769Y-74899312D01*
X114589245Y-74881134D01*
X114607423Y-74864658D01*
X114627129Y-74850043D01*
X114648172Y-74837431D01*
X114670351Y-74826941D01*
X114693450Y-74818676D01*
X114717249Y-74812715D01*
X114741517Y-74809115D01*
X114766021Y-74807911D01*
X115416023Y-74807911D01*
X115440527Y-74809115D01*
G37*
G04 #@! TD*
D12*
G04 #@! TO.C,J2*
X124786022Y-72115911D03*
X122016022Y-72115911D03*
X119246022Y-72115911D03*
X116476022Y-72115911D03*
X113706022Y-72115911D03*
X110936022Y-72115911D03*
X108166022Y-72115911D03*
X105396022Y-72115911D03*
X102626022Y-72115911D03*
X99856022Y-72115911D03*
X97086022Y-72115911D03*
X94316022Y-72115911D03*
G04 #@! TD*
D11*
G04 #@! TO.C,R1*
G36*
X56067006Y-74719115D02*
G01*
X56091274Y-74722715D01*
X56115073Y-74728676D01*
X56138172Y-74736941D01*
X56160351Y-74747431D01*
X56181394Y-74760043D01*
X56201100Y-74774658D01*
X56219278Y-74791134D01*
X56235754Y-74809312D01*
X56250369Y-74829018D01*
X56262981Y-74850061D01*
X56273471Y-74872240D01*
X56281736Y-74895339D01*
X56287697Y-74919138D01*
X56291297Y-74943406D01*
X56292501Y-74967910D01*
X56292501Y-75867912D01*
X56291297Y-75892416D01*
X56287697Y-75916684D01*
X56281736Y-75940483D01*
X56273471Y-75963582D01*
X56262981Y-75985761D01*
X56250369Y-76006804D01*
X56235754Y-76026510D01*
X56219278Y-76044688D01*
X56201100Y-76061164D01*
X56181394Y-76075779D01*
X56160351Y-76088391D01*
X56138172Y-76098881D01*
X56115073Y-76107146D01*
X56091274Y-76113107D01*
X56067006Y-76116707D01*
X56042502Y-76117911D01*
X55392500Y-76117911D01*
X55367996Y-76116707D01*
X55343728Y-76113107D01*
X55319929Y-76107146D01*
X55296830Y-76098881D01*
X55274651Y-76088391D01*
X55253608Y-76075779D01*
X55233902Y-76061164D01*
X55215724Y-76044688D01*
X55199248Y-76026510D01*
X55184633Y-76006804D01*
X55172021Y-75985761D01*
X55161531Y-75963582D01*
X55153266Y-75940483D01*
X55147305Y-75916684D01*
X55143705Y-75892416D01*
X55142501Y-75867912D01*
X55142501Y-74967910D01*
X55143705Y-74943406D01*
X55147305Y-74919138D01*
X55153266Y-74895339D01*
X55161531Y-74872240D01*
X55172021Y-74850061D01*
X55184633Y-74829018D01*
X55199248Y-74809312D01*
X55215724Y-74791134D01*
X55233902Y-74774658D01*
X55253608Y-74760043D01*
X55274651Y-74747431D01*
X55296830Y-74736941D01*
X55319929Y-74728676D01*
X55343728Y-74722715D01*
X55367996Y-74719115D01*
X55392500Y-74717911D01*
X56042502Y-74717911D01*
X56067006Y-74719115D01*
G37*
G36*
X58117006Y-74719115D02*
G01*
X58141274Y-74722715D01*
X58165073Y-74728676D01*
X58188172Y-74736941D01*
X58210351Y-74747431D01*
X58231394Y-74760043D01*
X58251100Y-74774658D01*
X58269278Y-74791134D01*
X58285754Y-74809312D01*
X58300369Y-74829018D01*
X58312981Y-74850061D01*
X58323471Y-74872240D01*
X58331736Y-74895339D01*
X58337697Y-74919138D01*
X58341297Y-74943406D01*
X58342501Y-74967910D01*
X58342501Y-75867912D01*
X58341297Y-75892416D01*
X58337697Y-75916684D01*
X58331736Y-75940483D01*
X58323471Y-75963582D01*
X58312981Y-75985761D01*
X58300369Y-76006804D01*
X58285754Y-76026510D01*
X58269278Y-76044688D01*
X58251100Y-76061164D01*
X58231394Y-76075779D01*
X58210351Y-76088391D01*
X58188172Y-76098881D01*
X58165073Y-76107146D01*
X58141274Y-76113107D01*
X58117006Y-76116707D01*
X58092502Y-76117911D01*
X57442500Y-76117911D01*
X57417996Y-76116707D01*
X57393728Y-76113107D01*
X57369929Y-76107146D01*
X57346830Y-76098881D01*
X57324651Y-76088391D01*
X57303608Y-76075779D01*
X57283902Y-76061164D01*
X57265724Y-76044688D01*
X57249248Y-76026510D01*
X57234633Y-76006804D01*
X57222021Y-75985761D01*
X57211531Y-75963582D01*
X57203266Y-75940483D01*
X57197305Y-75916684D01*
X57193705Y-75892416D01*
X57192501Y-75867912D01*
X57192501Y-74967910D01*
X57193705Y-74943406D01*
X57197305Y-74919138D01*
X57203266Y-74895339D01*
X57211531Y-74872240D01*
X57222021Y-74850061D01*
X57234633Y-74829018D01*
X57249248Y-74809312D01*
X57265724Y-74791134D01*
X57283902Y-74774658D01*
X57303608Y-74760043D01*
X57324651Y-74747431D01*
X57346830Y-74736941D01*
X57369929Y-74728676D01*
X57393728Y-74722715D01*
X57417996Y-74719115D01*
X57442500Y-74717911D01*
X58092502Y-74717911D01*
X58117006Y-74719115D01*
G37*
G04 #@! TD*
G04 #@! TO.C,R2*
G36*
X83047006Y-74809115D02*
G01*
X83071274Y-74812715D01*
X83095073Y-74818676D01*
X83118172Y-74826941D01*
X83140351Y-74837431D01*
X83161394Y-74850043D01*
X83181100Y-74864658D01*
X83199278Y-74881134D01*
X83215754Y-74899312D01*
X83230369Y-74919018D01*
X83242981Y-74940061D01*
X83253471Y-74962240D01*
X83261736Y-74985339D01*
X83267697Y-75009138D01*
X83271297Y-75033406D01*
X83272501Y-75057910D01*
X83272501Y-75957912D01*
X83271297Y-75982416D01*
X83267697Y-76006684D01*
X83261736Y-76030483D01*
X83253471Y-76053582D01*
X83242981Y-76075761D01*
X83230369Y-76096804D01*
X83215754Y-76116510D01*
X83199278Y-76134688D01*
X83181100Y-76151164D01*
X83161394Y-76165779D01*
X83140351Y-76178391D01*
X83118172Y-76188881D01*
X83095073Y-76197146D01*
X83071274Y-76203107D01*
X83047006Y-76206707D01*
X83022502Y-76207911D01*
X82372500Y-76207911D01*
X82347996Y-76206707D01*
X82323728Y-76203107D01*
X82299929Y-76197146D01*
X82276830Y-76188881D01*
X82254651Y-76178391D01*
X82233608Y-76165779D01*
X82213902Y-76151164D01*
X82195724Y-76134688D01*
X82179248Y-76116510D01*
X82164633Y-76096804D01*
X82152021Y-76075761D01*
X82141531Y-76053582D01*
X82133266Y-76030483D01*
X82127305Y-76006684D01*
X82123705Y-75982416D01*
X82122501Y-75957912D01*
X82122501Y-75057910D01*
X82123705Y-75033406D01*
X82127305Y-75009138D01*
X82133266Y-74985339D01*
X82141531Y-74962240D01*
X82152021Y-74940061D01*
X82164633Y-74919018D01*
X82179248Y-74899312D01*
X82195724Y-74881134D01*
X82213902Y-74864658D01*
X82233608Y-74850043D01*
X82254651Y-74837431D01*
X82276830Y-74826941D01*
X82299929Y-74818676D01*
X82323728Y-74812715D01*
X82347996Y-74809115D01*
X82372500Y-74807911D01*
X83022502Y-74807911D01*
X83047006Y-74809115D01*
G37*
G36*
X85097006Y-74809115D02*
G01*
X85121274Y-74812715D01*
X85145073Y-74818676D01*
X85168172Y-74826941D01*
X85190351Y-74837431D01*
X85211394Y-74850043D01*
X85231100Y-74864658D01*
X85249278Y-74881134D01*
X85265754Y-74899312D01*
X85280369Y-74919018D01*
X85292981Y-74940061D01*
X85303471Y-74962240D01*
X85311736Y-74985339D01*
X85317697Y-75009138D01*
X85321297Y-75033406D01*
X85322501Y-75057910D01*
X85322501Y-75957912D01*
X85321297Y-75982416D01*
X85317697Y-76006684D01*
X85311736Y-76030483D01*
X85303471Y-76053582D01*
X85292981Y-76075761D01*
X85280369Y-76096804D01*
X85265754Y-76116510D01*
X85249278Y-76134688D01*
X85231100Y-76151164D01*
X85211394Y-76165779D01*
X85190351Y-76178391D01*
X85168172Y-76188881D01*
X85145073Y-76197146D01*
X85121274Y-76203107D01*
X85097006Y-76206707D01*
X85072502Y-76207911D01*
X84422500Y-76207911D01*
X84397996Y-76206707D01*
X84373728Y-76203107D01*
X84349929Y-76197146D01*
X84326830Y-76188881D01*
X84304651Y-76178391D01*
X84283608Y-76165779D01*
X84263902Y-76151164D01*
X84245724Y-76134688D01*
X84229248Y-76116510D01*
X84214633Y-76096804D01*
X84202021Y-76075761D01*
X84191531Y-76053582D01*
X84183266Y-76030483D01*
X84177305Y-76006684D01*
X84173705Y-75982416D01*
X84172501Y-75957912D01*
X84172501Y-75057910D01*
X84173705Y-75033406D01*
X84177305Y-75009138D01*
X84183266Y-74985339D01*
X84191531Y-74962240D01*
X84202021Y-74940061D01*
X84214633Y-74919018D01*
X84229248Y-74899312D01*
X84245724Y-74881134D01*
X84263902Y-74864658D01*
X84283608Y-74850043D01*
X84304651Y-74837431D01*
X84326830Y-74826941D01*
X84349929Y-74818676D01*
X84373728Y-74812715D01*
X84397996Y-74809115D01*
X84422500Y-74807911D01*
X85072502Y-74807911D01*
X85097006Y-74809115D01*
G37*
G04 #@! TD*
G04 #@! TO.C,R3*
G36*
X62949106Y-74809115D02*
G01*
X62973374Y-74812715D01*
X62997173Y-74818676D01*
X63020272Y-74826941D01*
X63042451Y-74837431D01*
X63063494Y-74850043D01*
X63083200Y-74864658D01*
X63101378Y-74881134D01*
X63117854Y-74899312D01*
X63132469Y-74919018D01*
X63145081Y-74940061D01*
X63155571Y-74962240D01*
X63163836Y-74985339D01*
X63169797Y-75009138D01*
X63173397Y-75033406D01*
X63174601Y-75057910D01*
X63174601Y-75957912D01*
X63173397Y-75982416D01*
X63169797Y-76006684D01*
X63163836Y-76030483D01*
X63155571Y-76053582D01*
X63145081Y-76075761D01*
X63132469Y-76096804D01*
X63117854Y-76116510D01*
X63101378Y-76134688D01*
X63083200Y-76151164D01*
X63063494Y-76165779D01*
X63042451Y-76178391D01*
X63020272Y-76188881D01*
X62997173Y-76197146D01*
X62973374Y-76203107D01*
X62949106Y-76206707D01*
X62924602Y-76207911D01*
X62274600Y-76207911D01*
X62250096Y-76206707D01*
X62225828Y-76203107D01*
X62202029Y-76197146D01*
X62178930Y-76188881D01*
X62156751Y-76178391D01*
X62135708Y-76165779D01*
X62116002Y-76151164D01*
X62097824Y-76134688D01*
X62081348Y-76116510D01*
X62066733Y-76096804D01*
X62054121Y-76075761D01*
X62043631Y-76053582D01*
X62035366Y-76030483D01*
X62029405Y-76006684D01*
X62025805Y-75982416D01*
X62024601Y-75957912D01*
X62024601Y-75057910D01*
X62025805Y-75033406D01*
X62029405Y-75009138D01*
X62035366Y-74985339D01*
X62043631Y-74962240D01*
X62054121Y-74940061D01*
X62066733Y-74919018D01*
X62081348Y-74899312D01*
X62097824Y-74881134D01*
X62116002Y-74864658D01*
X62135708Y-74850043D01*
X62156751Y-74837431D01*
X62178930Y-74826941D01*
X62202029Y-74818676D01*
X62225828Y-74812715D01*
X62250096Y-74809115D01*
X62274600Y-74807911D01*
X62924602Y-74807911D01*
X62949106Y-74809115D01*
G37*
G36*
X60899106Y-74809115D02*
G01*
X60923374Y-74812715D01*
X60947173Y-74818676D01*
X60970272Y-74826941D01*
X60992451Y-74837431D01*
X61013494Y-74850043D01*
X61033200Y-74864658D01*
X61051378Y-74881134D01*
X61067854Y-74899312D01*
X61082469Y-74919018D01*
X61095081Y-74940061D01*
X61105571Y-74962240D01*
X61113836Y-74985339D01*
X61119797Y-75009138D01*
X61123397Y-75033406D01*
X61124601Y-75057910D01*
X61124601Y-75957912D01*
X61123397Y-75982416D01*
X61119797Y-76006684D01*
X61113836Y-76030483D01*
X61105571Y-76053582D01*
X61095081Y-76075761D01*
X61082469Y-76096804D01*
X61067854Y-76116510D01*
X61051378Y-76134688D01*
X61033200Y-76151164D01*
X61013494Y-76165779D01*
X60992451Y-76178391D01*
X60970272Y-76188881D01*
X60947173Y-76197146D01*
X60923374Y-76203107D01*
X60899106Y-76206707D01*
X60874602Y-76207911D01*
X60224600Y-76207911D01*
X60200096Y-76206707D01*
X60175828Y-76203107D01*
X60152029Y-76197146D01*
X60128930Y-76188881D01*
X60106751Y-76178391D01*
X60085708Y-76165779D01*
X60066002Y-76151164D01*
X60047824Y-76134688D01*
X60031348Y-76116510D01*
X60016733Y-76096804D01*
X60004121Y-76075761D01*
X59993631Y-76053582D01*
X59985366Y-76030483D01*
X59979405Y-76006684D01*
X59975805Y-75982416D01*
X59974601Y-75957912D01*
X59974601Y-75057910D01*
X59975805Y-75033406D01*
X59979405Y-75009138D01*
X59985366Y-74985339D01*
X59993631Y-74962240D01*
X60004121Y-74940061D01*
X60016733Y-74919018D01*
X60031348Y-74899312D01*
X60047824Y-74881134D01*
X60066002Y-74864658D01*
X60085708Y-74850043D01*
X60106751Y-74837431D01*
X60128930Y-74826941D01*
X60152029Y-74818676D01*
X60175828Y-74812715D01*
X60200096Y-74809115D01*
X60224600Y-74807911D01*
X60874602Y-74807911D01*
X60899106Y-74809115D01*
G37*
G04 #@! TD*
G04 #@! TO.C,R4*
G36*
X81190106Y-76559115D02*
G01*
X81214374Y-76562715D01*
X81238173Y-76568676D01*
X81261272Y-76576941D01*
X81283451Y-76587431D01*
X81304494Y-76600043D01*
X81324200Y-76614658D01*
X81342378Y-76631134D01*
X81358854Y-76649312D01*
X81373469Y-76669018D01*
X81386081Y-76690061D01*
X81396571Y-76712240D01*
X81404836Y-76735339D01*
X81410797Y-76759138D01*
X81414397Y-76783406D01*
X81415601Y-76807910D01*
X81415601Y-77707912D01*
X81414397Y-77732416D01*
X81410797Y-77756684D01*
X81404836Y-77780483D01*
X81396571Y-77803582D01*
X81386081Y-77825761D01*
X81373469Y-77846804D01*
X81358854Y-77866510D01*
X81342378Y-77884688D01*
X81324200Y-77901164D01*
X81304494Y-77915779D01*
X81283451Y-77928391D01*
X81261272Y-77938881D01*
X81238173Y-77947146D01*
X81214374Y-77953107D01*
X81190106Y-77956707D01*
X81165602Y-77957911D01*
X80515600Y-77957911D01*
X80491096Y-77956707D01*
X80466828Y-77953107D01*
X80443029Y-77947146D01*
X80419930Y-77938881D01*
X80397751Y-77928391D01*
X80376708Y-77915779D01*
X80357002Y-77901164D01*
X80338824Y-77884688D01*
X80322348Y-77866510D01*
X80307733Y-77846804D01*
X80295121Y-77825761D01*
X80284631Y-77803582D01*
X80276366Y-77780483D01*
X80270405Y-77756684D01*
X80266805Y-77732416D01*
X80265601Y-77707912D01*
X80265601Y-76807910D01*
X80266805Y-76783406D01*
X80270405Y-76759138D01*
X80276366Y-76735339D01*
X80284631Y-76712240D01*
X80295121Y-76690061D01*
X80307733Y-76669018D01*
X80322348Y-76649312D01*
X80338824Y-76631134D01*
X80357002Y-76614658D01*
X80376708Y-76600043D01*
X80397751Y-76587431D01*
X80419930Y-76576941D01*
X80443029Y-76568676D01*
X80466828Y-76562715D01*
X80491096Y-76559115D01*
X80515600Y-76557911D01*
X81165602Y-76557911D01*
X81190106Y-76559115D01*
G37*
G36*
X83240106Y-76559115D02*
G01*
X83264374Y-76562715D01*
X83288173Y-76568676D01*
X83311272Y-76576941D01*
X83333451Y-76587431D01*
X83354494Y-76600043D01*
X83374200Y-76614658D01*
X83392378Y-76631134D01*
X83408854Y-76649312D01*
X83423469Y-76669018D01*
X83436081Y-76690061D01*
X83446571Y-76712240D01*
X83454836Y-76735339D01*
X83460797Y-76759138D01*
X83464397Y-76783406D01*
X83465601Y-76807910D01*
X83465601Y-77707912D01*
X83464397Y-77732416D01*
X83460797Y-77756684D01*
X83454836Y-77780483D01*
X83446571Y-77803582D01*
X83436081Y-77825761D01*
X83423469Y-77846804D01*
X83408854Y-77866510D01*
X83392378Y-77884688D01*
X83374200Y-77901164D01*
X83354494Y-77915779D01*
X83333451Y-77928391D01*
X83311272Y-77938881D01*
X83288173Y-77947146D01*
X83264374Y-77953107D01*
X83240106Y-77956707D01*
X83215602Y-77957911D01*
X82565600Y-77957911D01*
X82541096Y-77956707D01*
X82516828Y-77953107D01*
X82493029Y-77947146D01*
X82469930Y-77938881D01*
X82447751Y-77928391D01*
X82426708Y-77915779D01*
X82407002Y-77901164D01*
X82388824Y-77884688D01*
X82372348Y-77866510D01*
X82357733Y-77846804D01*
X82345121Y-77825761D01*
X82334631Y-77803582D01*
X82326366Y-77780483D01*
X82320405Y-77756684D01*
X82316805Y-77732416D01*
X82315601Y-77707912D01*
X82315601Y-76807910D01*
X82316805Y-76783406D01*
X82320405Y-76759138D01*
X82326366Y-76735339D01*
X82334631Y-76712240D01*
X82345121Y-76690061D01*
X82357733Y-76669018D01*
X82372348Y-76649312D01*
X82388824Y-76631134D01*
X82407002Y-76614658D01*
X82426708Y-76600043D01*
X82447751Y-76587431D01*
X82469930Y-76576941D01*
X82493029Y-76568676D01*
X82516828Y-76562715D01*
X82541096Y-76559115D01*
X82565600Y-76557911D01*
X83215602Y-76557911D01*
X83240106Y-76559115D01*
G37*
G04 #@! TD*
G04 #@! TO.C,R5*
G36*
X68649106Y-74809115D02*
G01*
X68673374Y-74812715D01*
X68697173Y-74818676D01*
X68720272Y-74826941D01*
X68742451Y-74837431D01*
X68763494Y-74850043D01*
X68783200Y-74864658D01*
X68801378Y-74881134D01*
X68817854Y-74899312D01*
X68832469Y-74919018D01*
X68845081Y-74940061D01*
X68855571Y-74962240D01*
X68863836Y-74985339D01*
X68869797Y-75009138D01*
X68873397Y-75033406D01*
X68874601Y-75057910D01*
X68874601Y-75957912D01*
X68873397Y-75982416D01*
X68869797Y-76006684D01*
X68863836Y-76030483D01*
X68855571Y-76053582D01*
X68845081Y-76075761D01*
X68832469Y-76096804D01*
X68817854Y-76116510D01*
X68801378Y-76134688D01*
X68783200Y-76151164D01*
X68763494Y-76165779D01*
X68742451Y-76178391D01*
X68720272Y-76188881D01*
X68697173Y-76197146D01*
X68673374Y-76203107D01*
X68649106Y-76206707D01*
X68624602Y-76207911D01*
X67974600Y-76207911D01*
X67950096Y-76206707D01*
X67925828Y-76203107D01*
X67902029Y-76197146D01*
X67878930Y-76188881D01*
X67856751Y-76178391D01*
X67835708Y-76165779D01*
X67816002Y-76151164D01*
X67797824Y-76134688D01*
X67781348Y-76116510D01*
X67766733Y-76096804D01*
X67754121Y-76075761D01*
X67743631Y-76053582D01*
X67735366Y-76030483D01*
X67729405Y-76006684D01*
X67725805Y-75982416D01*
X67724601Y-75957912D01*
X67724601Y-75057910D01*
X67725805Y-75033406D01*
X67729405Y-75009138D01*
X67735366Y-74985339D01*
X67743631Y-74962240D01*
X67754121Y-74940061D01*
X67766733Y-74919018D01*
X67781348Y-74899312D01*
X67797824Y-74881134D01*
X67816002Y-74864658D01*
X67835708Y-74850043D01*
X67856751Y-74837431D01*
X67878930Y-74826941D01*
X67902029Y-74818676D01*
X67925828Y-74812715D01*
X67950096Y-74809115D01*
X67974600Y-74807911D01*
X68624602Y-74807911D01*
X68649106Y-74809115D01*
G37*
G36*
X70699106Y-74809115D02*
G01*
X70723374Y-74812715D01*
X70747173Y-74818676D01*
X70770272Y-74826941D01*
X70792451Y-74837431D01*
X70813494Y-74850043D01*
X70833200Y-74864658D01*
X70851378Y-74881134D01*
X70867854Y-74899312D01*
X70882469Y-74919018D01*
X70895081Y-74940061D01*
X70905571Y-74962240D01*
X70913836Y-74985339D01*
X70919797Y-75009138D01*
X70923397Y-75033406D01*
X70924601Y-75057910D01*
X70924601Y-75957912D01*
X70923397Y-75982416D01*
X70919797Y-76006684D01*
X70913836Y-76030483D01*
X70905571Y-76053582D01*
X70895081Y-76075761D01*
X70882469Y-76096804D01*
X70867854Y-76116510D01*
X70851378Y-76134688D01*
X70833200Y-76151164D01*
X70813494Y-76165779D01*
X70792451Y-76178391D01*
X70770272Y-76188881D01*
X70747173Y-76197146D01*
X70723374Y-76203107D01*
X70699106Y-76206707D01*
X70674602Y-76207911D01*
X70024600Y-76207911D01*
X70000096Y-76206707D01*
X69975828Y-76203107D01*
X69952029Y-76197146D01*
X69928930Y-76188881D01*
X69906751Y-76178391D01*
X69885708Y-76165779D01*
X69866002Y-76151164D01*
X69847824Y-76134688D01*
X69831348Y-76116510D01*
X69816733Y-76096804D01*
X69804121Y-76075761D01*
X69793631Y-76053582D01*
X69785366Y-76030483D01*
X69779405Y-76006684D01*
X69775805Y-75982416D01*
X69774601Y-75957912D01*
X69774601Y-75057910D01*
X69775805Y-75033406D01*
X69779405Y-75009138D01*
X69785366Y-74985339D01*
X69793631Y-74962240D01*
X69804121Y-74940061D01*
X69816733Y-74919018D01*
X69831348Y-74899312D01*
X69847824Y-74881134D01*
X69866002Y-74864658D01*
X69885708Y-74850043D01*
X69906751Y-74837431D01*
X69928930Y-74826941D01*
X69952029Y-74818676D01*
X69975828Y-74812715D01*
X70000096Y-74809115D01*
X70024600Y-74807911D01*
X70674602Y-74807911D01*
X70699106Y-74809115D01*
G37*
G04 #@! TD*
G04 #@! TO.C,R6*
G36*
X77507006Y-74809115D02*
G01*
X77531274Y-74812715D01*
X77555073Y-74818676D01*
X77578172Y-74826941D01*
X77600351Y-74837431D01*
X77621394Y-74850043D01*
X77641100Y-74864658D01*
X77659278Y-74881134D01*
X77675754Y-74899312D01*
X77690369Y-74919018D01*
X77702981Y-74940061D01*
X77713471Y-74962240D01*
X77721736Y-74985339D01*
X77727697Y-75009138D01*
X77731297Y-75033406D01*
X77732501Y-75057910D01*
X77732501Y-75957912D01*
X77731297Y-75982416D01*
X77727697Y-76006684D01*
X77721736Y-76030483D01*
X77713471Y-76053582D01*
X77702981Y-76075761D01*
X77690369Y-76096804D01*
X77675754Y-76116510D01*
X77659278Y-76134688D01*
X77641100Y-76151164D01*
X77621394Y-76165779D01*
X77600351Y-76178391D01*
X77578172Y-76188881D01*
X77555073Y-76197146D01*
X77531274Y-76203107D01*
X77507006Y-76206707D01*
X77482502Y-76207911D01*
X76832500Y-76207911D01*
X76807996Y-76206707D01*
X76783728Y-76203107D01*
X76759929Y-76197146D01*
X76736830Y-76188881D01*
X76714651Y-76178391D01*
X76693608Y-76165779D01*
X76673902Y-76151164D01*
X76655724Y-76134688D01*
X76639248Y-76116510D01*
X76624633Y-76096804D01*
X76612021Y-76075761D01*
X76601531Y-76053582D01*
X76593266Y-76030483D01*
X76587305Y-76006684D01*
X76583705Y-75982416D01*
X76582501Y-75957912D01*
X76582501Y-75057910D01*
X76583705Y-75033406D01*
X76587305Y-75009138D01*
X76593266Y-74985339D01*
X76601531Y-74962240D01*
X76612021Y-74940061D01*
X76624633Y-74919018D01*
X76639248Y-74899312D01*
X76655724Y-74881134D01*
X76673902Y-74864658D01*
X76693608Y-74850043D01*
X76714651Y-74837431D01*
X76736830Y-74826941D01*
X76759929Y-74818676D01*
X76783728Y-74812715D01*
X76807996Y-74809115D01*
X76832500Y-74807911D01*
X77482502Y-74807911D01*
X77507006Y-74809115D01*
G37*
G36*
X79557006Y-74809115D02*
G01*
X79581274Y-74812715D01*
X79605073Y-74818676D01*
X79628172Y-74826941D01*
X79650351Y-74837431D01*
X79671394Y-74850043D01*
X79691100Y-74864658D01*
X79709278Y-74881134D01*
X79725754Y-74899312D01*
X79740369Y-74919018D01*
X79752981Y-74940061D01*
X79763471Y-74962240D01*
X79771736Y-74985339D01*
X79777697Y-75009138D01*
X79781297Y-75033406D01*
X79782501Y-75057910D01*
X79782501Y-75957912D01*
X79781297Y-75982416D01*
X79777697Y-76006684D01*
X79771736Y-76030483D01*
X79763471Y-76053582D01*
X79752981Y-76075761D01*
X79740369Y-76096804D01*
X79725754Y-76116510D01*
X79709278Y-76134688D01*
X79691100Y-76151164D01*
X79671394Y-76165779D01*
X79650351Y-76178391D01*
X79628172Y-76188881D01*
X79605073Y-76197146D01*
X79581274Y-76203107D01*
X79557006Y-76206707D01*
X79532502Y-76207911D01*
X78882500Y-76207911D01*
X78857996Y-76206707D01*
X78833728Y-76203107D01*
X78809929Y-76197146D01*
X78786830Y-76188881D01*
X78764651Y-76178391D01*
X78743608Y-76165779D01*
X78723902Y-76151164D01*
X78705724Y-76134688D01*
X78689248Y-76116510D01*
X78674633Y-76096804D01*
X78662021Y-76075761D01*
X78651531Y-76053582D01*
X78643266Y-76030483D01*
X78637305Y-76006684D01*
X78633705Y-75982416D01*
X78632501Y-75957912D01*
X78632501Y-75057910D01*
X78633705Y-75033406D01*
X78637305Y-75009138D01*
X78643266Y-74985339D01*
X78651531Y-74962240D01*
X78662021Y-74940061D01*
X78674633Y-74919018D01*
X78689248Y-74899312D01*
X78705724Y-74881134D01*
X78723902Y-74864658D01*
X78743608Y-74850043D01*
X78764651Y-74837431D01*
X78786830Y-74826941D01*
X78809929Y-74818676D01*
X78833728Y-74812715D01*
X78857996Y-74809115D01*
X78882500Y-74807911D01*
X79532502Y-74807911D01*
X79557006Y-74809115D01*
G37*
G04 #@! TD*
G04 #@! TO.C,R7*
G36*
X72687006Y-74809115D02*
G01*
X72711274Y-74812715D01*
X72735073Y-74818676D01*
X72758172Y-74826941D01*
X72780351Y-74837431D01*
X72801394Y-74850043D01*
X72821100Y-74864658D01*
X72839278Y-74881134D01*
X72855754Y-74899312D01*
X72870369Y-74919018D01*
X72882981Y-74940061D01*
X72893471Y-74962240D01*
X72901736Y-74985339D01*
X72907697Y-75009138D01*
X72911297Y-75033406D01*
X72912501Y-75057910D01*
X72912501Y-75957912D01*
X72911297Y-75982416D01*
X72907697Y-76006684D01*
X72901736Y-76030483D01*
X72893471Y-76053582D01*
X72882981Y-76075761D01*
X72870369Y-76096804D01*
X72855754Y-76116510D01*
X72839278Y-76134688D01*
X72821100Y-76151164D01*
X72801394Y-76165779D01*
X72780351Y-76178391D01*
X72758172Y-76188881D01*
X72735073Y-76197146D01*
X72711274Y-76203107D01*
X72687006Y-76206707D01*
X72662502Y-76207911D01*
X72012500Y-76207911D01*
X71987996Y-76206707D01*
X71963728Y-76203107D01*
X71939929Y-76197146D01*
X71916830Y-76188881D01*
X71894651Y-76178391D01*
X71873608Y-76165779D01*
X71853902Y-76151164D01*
X71835724Y-76134688D01*
X71819248Y-76116510D01*
X71804633Y-76096804D01*
X71792021Y-76075761D01*
X71781531Y-76053582D01*
X71773266Y-76030483D01*
X71767305Y-76006684D01*
X71763705Y-75982416D01*
X71762501Y-75957912D01*
X71762501Y-75057910D01*
X71763705Y-75033406D01*
X71767305Y-75009138D01*
X71773266Y-74985339D01*
X71781531Y-74962240D01*
X71792021Y-74940061D01*
X71804633Y-74919018D01*
X71819248Y-74899312D01*
X71835724Y-74881134D01*
X71853902Y-74864658D01*
X71873608Y-74850043D01*
X71894651Y-74837431D01*
X71916830Y-74826941D01*
X71939929Y-74818676D01*
X71963728Y-74812715D01*
X71987996Y-74809115D01*
X72012500Y-74807911D01*
X72662502Y-74807911D01*
X72687006Y-74809115D01*
G37*
G36*
X74737006Y-74809115D02*
G01*
X74761274Y-74812715D01*
X74785073Y-74818676D01*
X74808172Y-74826941D01*
X74830351Y-74837431D01*
X74851394Y-74850043D01*
X74871100Y-74864658D01*
X74889278Y-74881134D01*
X74905754Y-74899312D01*
X74920369Y-74919018D01*
X74932981Y-74940061D01*
X74943471Y-74962240D01*
X74951736Y-74985339D01*
X74957697Y-75009138D01*
X74961297Y-75033406D01*
X74962501Y-75057910D01*
X74962501Y-75957912D01*
X74961297Y-75982416D01*
X74957697Y-76006684D01*
X74951736Y-76030483D01*
X74943471Y-76053582D01*
X74932981Y-76075761D01*
X74920369Y-76096804D01*
X74905754Y-76116510D01*
X74889278Y-76134688D01*
X74871100Y-76151164D01*
X74851394Y-76165779D01*
X74830351Y-76178391D01*
X74808172Y-76188881D01*
X74785073Y-76197146D01*
X74761274Y-76203107D01*
X74737006Y-76206707D01*
X74712502Y-76207911D01*
X74062500Y-76207911D01*
X74037996Y-76206707D01*
X74013728Y-76203107D01*
X73989929Y-76197146D01*
X73966830Y-76188881D01*
X73944651Y-76178391D01*
X73923608Y-76165779D01*
X73903902Y-76151164D01*
X73885724Y-76134688D01*
X73869248Y-76116510D01*
X73854633Y-76096804D01*
X73842021Y-76075761D01*
X73831531Y-76053582D01*
X73823266Y-76030483D01*
X73817305Y-76006684D01*
X73813705Y-75982416D01*
X73812501Y-75957912D01*
X73812501Y-75057910D01*
X73813705Y-75033406D01*
X73817305Y-75009138D01*
X73823266Y-74985339D01*
X73831531Y-74962240D01*
X73842021Y-74940061D01*
X73854633Y-74919018D01*
X73869248Y-74899312D01*
X73885724Y-74881134D01*
X73903902Y-74864658D01*
X73923608Y-74850043D01*
X73944651Y-74837431D01*
X73966830Y-74826941D01*
X73989929Y-74818676D01*
X74013728Y-74812715D01*
X74037996Y-74809115D01*
X74062500Y-74807911D01*
X74712502Y-74807911D01*
X74737006Y-74809115D01*
G37*
G04 #@! TD*
D12*
G04 #@! TO.C,J2*
X84082501Y-72115911D03*
X81312501Y-72115911D03*
X78542501Y-72115911D03*
X75772501Y-72115911D03*
X73002501Y-72115911D03*
X70232501Y-72115911D03*
X67462501Y-72115911D03*
X64692501Y-72115911D03*
X61922501Y-72115911D03*
X59152501Y-72115911D03*
X56382501Y-72115911D03*
X53612501Y-72115911D03*
G04 #@! TD*
D11*
G04 #@! TO.C,R1*
G36*
X96770527Y-54635205D02*
G01*
X96794795Y-54638805D01*
X96818594Y-54644766D01*
X96841693Y-54653031D01*
X96863872Y-54663521D01*
X96884915Y-54676133D01*
X96904621Y-54690748D01*
X96922799Y-54707224D01*
X96939275Y-54725402D01*
X96953890Y-54745108D01*
X96966502Y-54766151D01*
X96976992Y-54788330D01*
X96985257Y-54811429D01*
X96991218Y-54835228D01*
X96994818Y-54859496D01*
X96996022Y-54884000D01*
X96996022Y-55784002D01*
X96994818Y-55808506D01*
X96991218Y-55832774D01*
X96985257Y-55856573D01*
X96976992Y-55879672D01*
X96966502Y-55901851D01*
X96953890Y-55922894D01*
X96939275Y-55942600D01*
X96922799Y-55960778D01*
X96904621Y-55977254D01*
X96884915Y-55991869D01*
X96863872Y-56004481D01*
X96841693Y-56014971D01*
X96818594Y-56023236D01*
X96794795Y-56029197D01*
X96770527Y-56032797D01*
X96746023Y-56034001D01*
X96096021Y-56034001D01*
X96071517Y-56032797D01*
X96047249Y-56029197D01*
X96023450Y-56023236D01*
X96000351Y-56014971D01*
X95978172Y-56004481D01*
X95957129Y-55991869D01*
X95937423Y-55977254D01*
X95919245Y-55960778D01*
X95902769Y-55942600D01*
X95888154Y-55922894D01*
X95875542Y-55901851D01*
X95865052Y-55879672D01*
X95856787Y-55856573D01*
X95850826Y-55832774D01*
X95847226Y-55808506D01*
X95846022Y-55784002D01*
X95846022Y-54884000D01*
X95847226Y-54859496D01*
X95850826Y-54835228D01*
X95856787Y-54811429D01*
X95865052Y-54788330D01*
X95875542Y-54766151D01*
X95888154Y-54745108D01*
X95902769Y-54725402D01*
X95919245Y-54707224D01*
X95937423Y-54690748D01*
X95957129Y-54676133D01*
X95978172Y-54663521D01*
X96000351Y-54653031D01*
X96023450Y-54644766D01*
X96047249Y-54638805D01*
X96071517Y-54635205D01*
X96096021Y-54634001D01*
X96746023Y-54634001D01*
X96770527Y-54635205D01*
G37*
G36*
X98820527Y-54635205D02*
G01*
X98844795Y-54638805D01*
X98868594Y-54644766D01*
X98891693Y-54653031D01*
X98913872Y-54663521D01*
X98934915Y-54676133D01*
X98954621Y-54690748D01*
X98972799Y-54707224D01*
X98989275Y-54725402D01*
X99003890Y-54745108D01*
X99016502Y-54766151D01*
X99026992Y-54788330D01*
X99035257Y-54811429D01*
X99041218Y-54835228D01*
X99044818Y-54859496D01*
X99046022Y-54884000D01*
X99046022Y-55784002D01*
X99044818Y-55808506D01*
X99041218Y-55832774D01*
X99035257Y-55856573D01*
X99026992Y-55879672D01*
X99016502Y-55901851D01*
X99003890Y-55922894D01*
X98989275Y-55942600D01*
X98972799Y-55960778D01*
X98954621Y-55977254D01*
X98934915Y-55991869D01*
X98913872Y-56004481D01*
X98891693Y-56014971D01*
X98868594Y-56023236D01*
X98844795Y-56029197D01*
X98820527Y-56032797D01*
X98796023Y-56034001D01*
X98146021Y-56034001D01*
X98121517Y-56032797D01*
X98097249Y-56029197D01*
X98073450Y-56023236D01*
X98050351Y-56014971D01*
X98028172Y-56004481D01*
X98007129Y-55991869D01*
X97987423Y-55977254D01*
X97969245Y-55960778D01*
X97952769Y-55942600D01*
X97938154Y-55922894D01*
X97925542Y-55901851D01*
X97915052Y-55879672D01*
X97906787Y-55856573D01*
X97900826Y-55832774D01*
X97897226Y-55808506D01*
X97896022Y-55784002D01*
X97896022Y-54884000D01*
X97897226Y-54859496D01*
X97900826Y-54835228D01*
X97906787Y-54811429D01*
X97915052Y-54788330D01*
X97925542Y-54766151D01*
X97938154Y-54745108D01*
X97952769Y-54725402D01*
X97969245Y-54707224D01*
X97987423Y-54690748D01*
X98007129Y-54676133D01*
X98028172Y-54663521D01*
X98050351Y-54653031D01*
X98073450Y-54644766D01*
X98097249Y-54638805D01*
X98121517Y-54635205D01*
X98146021Y-54634001D01*
X98796023Y-54634001D01*
X98820527Y-54635205D01*
G37*
G04 #@! TD*
G04 #@! TO.C,R2*
G36*
X123750527Y-54725205D02*
G01*
X123774795Y-54728805D01*
X123798594Y-54734766D01*
X123821693Y-54743031D01*
X123843872Y-54753521D01*
X123864915Y-54766133D01*
X123884621Y-54780748D01*
X123902799Y-54797224D01*
X123919275Y-54815402D01*
X123933890Y-54835108D01*
X123946502Y-54856151D01*
X123956992Y-54878330D01*
X123965257Y-54901429D01*
X123971218Y-54925228D01*
X123974818Y-54949496D01*
X123976022Y-54974000D01*
X123976022Y-55874002D01*
X123974818Y-55898506D01*
X123971218Y-55922774D01*
X123965257Y-55946573D01*
X123956992Y-55969672D01*
X123946502Y-55991851D01*
X123933890Y-56012894D01*
X123919275Y-56032600D01*
X123902799Y-56050778D01*
X123884621Y-56067254D01*
X123864915Y-56081869D01*
X123843872Y-56094481D01*
X123821693Y-56104971D01*
X123798594Y-56113236D01*
X123774795Y-56119197D01*
X123750527Y-56122797D01*
X123726023Y-56124001D01*
X123076021Y-56124001D01*
X123051517Y-56122797D01*
X123027249Y-56119197D01*
X123003450Y-56113236D01*
X122980351Y-56104971D01*
X122958172Y-56094481D01*
X122937129Y-56081869D01*
X122917423Y-56067254D01*
X122899245Y-56050778D01*
X122882769Y-56032600D01*
X122868154Y-56012894D01*
X122855542Y-55991851D01*
X122845052Y-55969672D01*
X122836787Y-55946573D01*
X122830826Y-55922774D01*
X122827226Y-55898506D01*
X122826022Y-55874002D01*
X122826022Y-54974000D01*
X122827226Y-54949496D01*
X122830826Y-54925228D01*
X122836787Y-54901429D01*
X122845052Y-54878330D01*
X122855542Y-54856151D01*
X122868154Y-54835108D01*
X122882769Y-54815402D01*
X122899245Y-54797224D01*
X122917423Y-54780748D01*
X122937129Y-54766133D01*
X122958172Y-54753521D01*
X122980351Y-54743031D01*
X123003450Y-54734766D01*
X123027249Y-54728805D01*
X123051517Y-54725205D01*
X123076021Y-54724001D01*
X123726023Y-54724001D01*
X123750527Y-54725205D01*
G37*
G36*
X125800527Y-54725205D02*
G01*
X125824795Y-54728805D01*
X125848594Y-54734766D01*
X125871693Y-54743031D01*
X125893872Y-54753521D01*
X125914915Y-54766133D01*
X125934621Y-54780748D01*
X125952799Y-54797224D01*
X125969275Y-54815402D01*
X125983890Y-54835108D01*
X125996502Y-54856151D01*
X126006992Y-54878330D01*
X126015257Y-54901429D01*
X126021218Y-54925228D01*
X126024818Y-54949496D01*
X126026022Y-54974000D01*
X126026022Y-55874002D01*
X126024818Y-55898506D01*
X126021218Y-55922774D01*
X126015257Y-55946573D01*
X126006992Y-55969672D01*
X125996502Y-55991851D01*
X125983890Y-56012894D01*
X125969275Y-56032600D01*
X125952799Y-56050778D01*
X125934621Y-56067254D01*
X125914915Y-56081869D01*
X125893872Y-56094481D01*
X125871693Y-56104971D01*
X125848594Y-56113236D01*
X125824795Y-56119197D01*
X125800527Y-56122797D01*
X125776023Y-56124001D01*
X125126021Y-56124001D01*
X125101517Y-56122797D01*
X125077249Y-56119197D01*
X125053450Y-56113236D01*
X125030351Y-56104971D01*
X125008172Y-56094481D01*
X124987129Y-56081869D01*
X124967423Y-56067254D01*
X124949245Y-56050778D01*
X124932769Y-56032600D01*
X124918154Y-56012894D01*
X124905542Y-55991851D01*
X124895052Y-55969672D01*
X124886787Y-55946573D01*
X124880826Y-55922774D01*
X124877226Y-55898506D01*
X124876022Y-55874002D01*
X124876022Y-54974000D01*
X124877226Y-54949496D01*
X124880826Y-54925228D01*
X124886787Y-54901429D01*
X124895052Y-54878330D01*
X124905542Y-54856151D01*
X124918154Y-54835108D01*
X124932769Y-54815402D01*
X124949245Y-54797224D01*
X124967423Y-54780748D01*
X124987129Y-54766133D01*
X125008172Y-54753521D01*
X125030351Y-54743031D01*
X125053450Y-54734766D01*
X125077249Y-54728805D01*
X125101517Y-54725205D01*
X125126021Y-54724001D01*
X125776023Y-54724001D01*
X125800527Y-54725205D01*
G37*
G04 #@! TD*
G04 #@! TO.C,R3*
G36*
X103652627Y-54725205D02*
G01*
X103676895Y-54728805D01*
X103700694Y-54734766D01*
X103723793Y-54743031D01*
X103745972Y-54753521D01*
X103767015Y-54766133D01*
X103786721Y-54780748D01*
X103804899Y-54797224D01*
X103821375Y-54815402D01*
X103835990Y-54835108D01*
X103848602Y-54856151D01*
X103859092Y-54878330D01*
X103867357Y-54901429D01*
X103873318Y-54925228D01*
X103876918Y-54949496D01*
X103878122Y-54974000D01*
X103878122Y-55874002D01*
X103876918Y-55898506D01*
X103873318Y-55922774D01*
X103867357Y-55946573D01*
X103859092Y-55969672D01*
X103848602Y-55991851D01*
X103835990Y-56012894D01*
X103821375Y-56032600D01*
X103804899Y-56050778D01*
X103786721Y-56067254D01*
X103767015Y-56081869D01*
X103745972Y-56094481D01*
X103723793Y-56104971D01*
X103700694Y-56113236D01*
X103676895Y-56119197D01*
X103652627Y-56122797D01*
X103628123Y-56124001D01*
X102978121Y-56124001D01*
X102953617Y-56122797D01*
X102929349Y-56119197D01*
X102905550Y-56113236D01*
X102882451Y-56104971D01*
X102860272Y-56094481D01*
X102839229Y-56081869D01*
X102819523Y-56067254D01*
X102801345Y-56050778D01*
X102784869Y-56032600D01*
X102770254Y-56012894D01*
X102757642Y-55991851D01*
X102747152Y-55969672D01*
X102738887Y-55946573D01*
X102732926Y-55922774D01*
X102729326Y-55898506D01*
X102728122Y-55874002D01*
X102728122Y-54974000D01*
X102729326Y-54949496D01*
X102732926Y-54925228D01*
X102738887Y-54901429D01*
X102747152Y-54878330D01*
X102757642Y-54856151D01*
X102770254Y-54835108D01*
X102784869Y-54815402D01*
X102801345Y-54797224D01*
X102819523Y-54780748D01*
X102839229Y-54766133D01*
X102860272Y-54753521D01*
X102882451Y-54743031D01*
X102905550Y-54734766D01*
X102929349Y-54728805D01*
X102953617Y-54725205D01*
X102978121Y-54724001D01*
X103628123Y-54724001D01*
X103652627Y-54725205D01*
G37*
G36*
X101602627Y-54725205D02*
G01*
X101626895Y-54728805D01*
X101650694Y-54734766D01*
X101673793Y-54743031D01*
X101695972Y-54753521D01*
X101717015Y-54766133D01*
X101736721Y-54780748D01*
X101754899Y-54797224D01*
X101771375Y-54815402D01*
X101785990Y-54835108D01*
X101798602Y-54856151D01*
X101809092Y-54878330D01*
X101817357Y-54901429D01*
X101823318Y-54925228D01*
X101826918Y-54949496D01*
X101828122Y-54974000D01*
X101828122Y-55874002D01*
X101826918Y-55898506D01*
X101823318Y-55922774D01*
X101817357Y-55946573D01*
X101809092Y-55969672D01*
X101798602Y-55991851D01*
X101785990Y-56012894D01*
X101771375Y-56032600D01*
X101754899Y-56050778D01*
X101736721Y-56067254D01*
X101717015Y-56081869D01*
X101695972Y-56094481D01*
X101673793Y-56104971D01*
X101650694Y-56113236D01*
X101626895Y-56119197D01*
X101602627Y-56122797D01*
X101578123Y-56124001D01*
X100928121Y-56124001D01*
X100903617Y-56122797D01*
X100879349Y-56119197D01*
X100855550Y-56113236D01*
X100832451Y-56104971D01*
X100810272Y-56094481D01*
X100789229Y-56081869D01*
X100769523Y-56067254D01*
X100751345Y-56050778D01*
X100734869Y-56032600D01*
X100720254Y-56012894D01*
X100707642Y-55991851D01*
X100697152Y-55969672D01*
X100688887Y-55946573D01*
X100682926Y-55922774D01*
X100679326Y-55898506D01*
X100678122Y-55874002D01*
X100678122Y-54974000D01*
X100679326Y-54949496D01*
X100682926Y-54925228D01*
X100688887Y-54901429D01*
X100697152Y-54878330D01*
X100707642Y-54856151D01*
X100720254Y-54835108D01*
X100734869Y-54815402D01*
X100751345Y-54797224D01*
X100769523Y-54780748D01*
X100789229Y-54766133D01*
X100810272Y-54753521D01*
X100832451Y-54743031D01*
X100855550Y-54734766D01*
X100879349Y-54728805D01*
X100903617Y-54725205D01*
X100928121Y-54724001D01*
X101578123Y-54724001D01*
X101602627Y-54725205D01*
G37*
G04 #@! TD*
G04 #@! TO.C,R4*
G36*
X121893627Y-56475205D02*
G01*
X121917895Y-56478805D01*
X121941694Y-56484766D01*
X121964793Y-56493031D01*
X121986972Y-56503521D01*
X122008015Y-56516133D01*
X122027721Y-56530748D01*
X122045899Y-56547224D01*
X122062375Y-56565402D01*
X122076990Y-56585108D01*
X122089602Y-56606151D01*
X122100092Y-56628330D01*
X122108357Y-56651429D01*
X122114318Y-56675228D01*
X122117918Y-56699496D01*
X122119122Y-56724000D01*
X122119122Y-57624002D01*
X122117918Y-57648506D01*
X122114318Y-57672774D01*
X122108357Y-57696573D01*
X122100092Y-57719672D01*
X122089602Y-57741851D01*
X122076990Y-57762894D01*
X122062375Y-57782600D01*
X122045899Y-57800778D01*
X122027721Y-57817254D01*
X122008015Y-57831869D01*
X121986972Y-57844481D01*
X121964793Y-57854971D01*
X121941694Y-57863236D01*
X121917895Y-57869197D01*
X121893627Y-57872797D01*
X121869123Y-57874001D01*
X121219121Y-57874001D01*
X121194617Y-57872797D01*
X121170349Y-57869197D01*
X121146550Y-57863236D01*
X121123451Y-57854971D01*
X121101272Y-57844481D01*
X121080229Y-57831869D01*
X121060523Y-57817254D01*
X121042345Y-57800778D01*
X121025869Y-57782600D01*
X121011254Y-57762894D01*
X120998642Y-57741851D01*
X120988152Y-57719672D01*
X120979887Y-57696573D01*
X120973926Y-57672774D01*
X120970326Y-57648506D01*
X120969122Y-57624002D01*
X120969122Y-56724000D01*
X120970326Y-56699496D01*
X120973926Y-56675228D01*
X120979887Y-56651429D01*
X120988152Y-56628330D01*
X120998642Y-56606151D01*
X121011254Y-56585108D01*
X121025869Y-56565402D01*
X121042345Y-56547224D01*
X121060523Y-56530748D01*
X121080229Y-56516133D01*
X121101272Y-56503521D01*
X121123451Y-56493031D01*
X121146550Y-56484766D01*
X121170349Y-56478805D01*
X121194617Y-56475205D01*
X121219121Y-56474001D01*
X121869123Y-56474001D01*
X121893627Y-56475205D01*
G37*
G36*
X123943627Y-56475205D02*
G01*
X123967895Y-56478805D01*
X123991694Y-56484766D01*
X124014793Y-56493031D01*
X124036972Y-56503521D01*
X124058015Y-56516133D01*
X124077721Y-56530748D01*
X124095899Y-56547224D01*
X124112375Y-56565402D01*
X124126990Y-56585108D01*
X124139602Y-56606151D01*
X124150092Y-56628330D01*
X124158357Y-56651429D01*
X124164318Y-56675228D01*
X124167918Y-56699496D01*
X124169122Y-56724000D01*
X124169122Y-57624002D01*
X124167918Y-57648506D01*
X124164318Y-57672774D01*
X124158357Y-57696573D01*
X124150092Y-57719672D01*
X124139602Y-57741851D01*
X124126990Y-57762894D01*
X124112375Y-57782600D01*
X124095899Y-57800778D01*
X124077721Y-57817254D01*
X124058015Y-57831869D01*
X124036972Y-57844481D01*
X124014793Y-57854971D01*
X123991694Y-57863236D01*
X123967895Y-57869197D01*
X123943627Y-57872797D01*
X123919123Y-57874001D01*
X123269121Y-57874001D01*
X123244617Y-57872797D01*
X123220349Y-57869197D01*
X123196550Y-57863236D01*
X123173451Y-57854971D01*
X123151272Y-57844481D01*
X123130229Y-57831869D01*
X123110523Y-57817254D01*
X123092345Y-57800778D01*
X123075869Y-57782600D01*
X123061254Y-57762894D01*
X123048642Y-57741851D01*
X123038152Y-57719672D01*
X123029887Y-57696573D01*
X123023926Y-57672774D01*
X123020326Y-57648506D01*
X123019122Y-57624002D01*
X123019122Y-56724000D01*
X123020326Y-56699496D01*
X123023926Y-56675228D01*
X123029887Y-56651429D01*
X123038152Y-56628330D01*
X123048642Y-56606151D01*
X123061254Y-56585108D01*
X123075869Y-56565402D01*
X123092345Y-56547224D01*
X123110523Y-56530748D01*
X123130229Y-56516133D01*
X123151272Y-56503521D01*
X123173451Y-56493031D01*
X123196550Y-56484766D01*
X123220349Y-56478805D01*
X123244617Y-56475205D01*
X123269121Y-56474001D01*
X123919123Y-56474001D01*
X123943627Y-56475205D01*
G37*
G04 #@! TD*
G04 #@! TO.C,R5*
G36*
X109352627Y-54725205D02*
G01*
X109376895Y-54728805D01*
X109400694Y-54734766D01*
X109423793Y-54743031D01*
X109445972Y-54753521D01*
X109467015Y-54766133D01*
X109486721Y-54780748D01*
X109504899Y-54797224D01*
X109521375Y-54815402D01*
X109535990Y-54835108D01*
X109548602Y-54856151D01*
X109559092Y-54878330D01*
X109567357Y-54901429D01*
X109573318Y-54925228D01*
X109576918Y-54949496D01*
X109578122Y-54974000D01*
X109578122Y-55874002D01*
X109576918Y-55898506D01*
X109573318Y-55922774D01*
X109567357Y-55946573D01*
X109559092Y-55969672D01*
X109548602Y-55991851D01*
X109535990Y-56012894D01*
X109521375Y-56032600D01*
X109504899Y-56050778D01*
X109486721Y-56067254D01*
X109467015Y-56081869D01*
X109445972Y-56094481D01*
X109423793Y-56104971D01*
X109400694Y-56113236D01*
X109376895Y-56119197D01*
X109352627Y-56122797D01*
X109328123Y-56124001D01*
X108678121Y-56124001D01*
X108653617Y-56122797D01*
X108629349Y-56119197D01*
X108605550Y-56113236D01*
X108582451Y-56104971D01*
X108560272Y-56094481D01*
X108539229Y-56081869D01*
X108519523Y-56067254D01*
X108501345Y-56050778D01*
X108484869Y-56032600D01*
X108470254Y-56012894D01*
X108457642Y-55991851D01*
X108447152Y-55969672D01*
X108438887Y-55946573D01*
X108432926Y-55922774D01*
X108429326Y-55898506D01*
X108428122Y-55874002D01*
X108428122Y-54974000D01*
X108429326Y-54949496D01*
X108432926Y-54925228D01*
X108438887Y-54901429D01*
X108447152Y-54878330D01*
X108457642Y-54856151D01*
X108470254Y-54835108D01*
X108484869Y-54815402D01*
X108501345Y-54797224D01*
X108519523Y-54780748D01*
X108539229Y-54766133D01*
X108560272Y-54753521D01*
X108582451Y-54743031D01*
X108605550Y-54734766D01*
X108629349Y-54728805D01*
X108653617Y-54725205D01*
X108678121Y-54724001D01*
X109328123Y-54724001D01*
X109352627Y-54725205D01*
G37*
G36*
X111402627Y-54725205D02*
G01*
X111426895Y-54728805D01*
X111450694Y-54734766D01*
X111473793Y-54743031D01*
X111495972Y-54753521D01*
X111517015Y-54766133D01*
X111536721Y-54780748D01*
X111554899Y-54797224D01*
X111571375Y-54815402D01*
X111585990Y-54835108D01*
X111598602Y-54856151D01*
X111609092Y-54878330D01*
X111617357Y-54901429D01*
X111623318Y-54925228D01*
X111626918Y-54949496D01*
X111628122Y-54974000D01*
X111628122Y-55874002D01*
X111626918Y-55898506D01*
X111623318Y-55922774D01*
X111617357Y-55946573D01*
X111609092Y-55969672D01*
X111598602Y-55991851D01*
X111585990Y-56012894D01*
X111571375Y-56032600D01*
X111554899Y-56050778D01*
X111536721Y-56067254D01*
X111517015Y-56081869D01*
X111495972Y-56094481D01*
X111473793Y-56104971D01*
X111450694Y-56113236D01*
X111426895Y-56119197D01*
X111402627Y-56122797D01*
X111378123Y-56124001D01*
X110728121Y-56124001D01*
X110703617Y-56122797D01*
X110679349Y-56119197D01*
X110655550Y-56113236D01*
X110632451Y-56104971D01*
X110610272Y-56094481D01*
X110589229Y-56081869D01*
X110569523Y-56067254D01*
X110551345Y-56050778D01*
X110534869Y-56032600D01*
X110520254Y-56012894D01*
X110507642Y-55991851D01*
X110497152Y-55969672D01*
X110488887Y-55946573D01*
X110482926Y-55922774D01*
X110479326Y-55898506D01*
X110478122Y-55874002D01*
X110478122Y-54974000D01*
X110479326Y-54949496D01*
X110482926Y-54925228D01*
X110488887Y-54901429D01*
X110497152Y-54878330D01*
X110507642Y-54856151D01*
X110520254Y-54835108D01*
X110534869Y-54815402D01*
X110551345Y-54797224D01*
X110569523Y-54780748D01*
X110589229Y-54766133D01*
X110610272Y-54753521D01*
X110632451Y-54743031D01*
X110655550Y-54734766D01*
X110679349Y-54728805D01*
X110703617Y-54725205D01*
X110728121Y-54724001D01*
X111378123Y-54724001D01*
X111402627Y-54725205D01*
G37*
G04 #@! TD*
G04 #@! TO.C,R6*
G36*
X118210527Y-54725205D02*
G01*
X118234795Y-54728805D01*
X118258594Y-54734766D01*
X118281693Y-54743031D01*
X118303872Y-54753521D01*
X118324915Y-54766133D01*
X118344621Y-54780748D01*
X118362799Y-54797224D01*
X118379275Y-54815402D01*
X118393890Y-54835108D01*
X118406502Y-54856151D01*
X118416992Y-54878330D01*
X118425257Y-54901429D01*
X118431218Y-54925228D01*
X118434818Y-54949496D01*
X118436022Y-54974000D01*
X118436022Y-55874002D01*
X118434818Y-55898506D01*
X118431218Y-55922774D01*
X118425257Y-55946573D01*
X118416992Y-55969672D01*
X118406502Y-55991851D01*
X118393890Y-56012894D01*
X118379275Y-56032600D01*
X118362799Y-56050778D01*
X118344621Y-56067254D01*
X118324915Y-56081869D01*
X118303872Y-56094481D01*
X118281693Y-56104971D01*
X118258594Y-56113236D01*
X118234795Y-56119197D01*
X118210527Y-56122797D01*
X118186023Y-56124001D01*
X117536021Y-56124001D01*
X117511517Y-56122797D01*
X117487249Y-56119197D01*
X117463450Y-56113236D01*
X117440351Y-56104971D01*
X117418172Y-56094481D01*
X117397129Y-56081869D01*
X117377423Y-56067254D01*
X117359245Y-56050778D01*
X117342769Y-56032600D01*
X117328154Y-56012894D01*
X117315542Y-55991851D01*
X117305052Y-55969672D01*
X117296787Y-55946573D01*
X117290826Y-55922774D01*
X117287226Y-55898506D01*
X117286022Y-55874002D01*
X117286022Y-54974000D01*
X117287226Y-54949496D01*
X117290826Y-54925228D01*
X117296787Y-54901429D01*
X117305052Y-54878330D01*
X117315542Y-54856151D01*
X117328154Y-54835108D01*
X117342769Y-54815402D01*
X117359245Y-54797224D01*
X117377423Y-54780748D01*
X117397129Y-54766133D01*
X117418172Y-54753521D01*
X117440351Y-54743031D01*
X117463450Y-54734766D01*
X117487249Y-54728805D01*
X117511517Y-54725205D01*
X117536021Y-54724001D01*
X118186023Y-54724001D01*
X118210527Y-54725205D01*
G37*
G36*
X120260527Y-54725205D02*
G01*
X120284795Y-54728805D01*
X120308594Y-54734766D01*
X120331693Y-54743031D01*
X120353872Y-54753521D01*
X120374915Y-54766133D01*
X120394621Y-54780748D01*
X120412799Y-54797224D01*
X120429275Y-54815402D01*
X120443890Y-54835108D01*
X120456502Y-54856151D01*
X120466992Y-54878330D01*
X120475257Y-54901429D01*
X120481218Y-54925228D01*
X120484818Y-54949496D01*
X120486022Y-54974000D01*
X120486022Y-55874002D01*
X120484818Y-55898506D01*
X120481218Y-55922774D01*
X120475257Y-55946573D01*
X120466992Y-55969672D01*
X120456502Y-55991851D01*
X120443890Y-56012894D01*
X120429275Y-56032600D01*
X120412799Y-56050778D01*
X120394621Y-56067254D01*
X120374915Y-56081869D01*
X120353872Y-56094481D01*
X120331693Y-56104971D01*
X120308594Y-56113236D01*
X120284795Y-56119197D01*
X120260527Y-56122797D01*
X120236023Y-56124001D01*
X119586021Y-56124001D01*
X119561517Y-56122797D01*
X119537249Y-56119197D01*
X119513450Y-56113236D01*
X119490351Y-56104971D01*
X119468172Y-56094481D01*
X119447129Y-56081869D01*
X119427423Y-56067254D01*
X119409245Y-56050778D01*
X119392769Y-56032600D01*
X119378154Y-56012894D01*
X119365542Y-55991851D01*
X119355052Y-55969672D01*
X119346787Y-55946573D01*
X119340826Y-55922774D01*
X119337226Y-55898506D01*
X119336022Y-55874002D01*
X119336022Y-54974000D01*
X119337226Y-54949496D01*
X119340826Y-54925228D01*
X119346787Y-54901429D01*
X119355052Y-54878330D01*
X119365542Y-54856151D01*
X119378154Y-54835108D01*
X119392769Y-54815402D01*
X119409245Y-54797224D01*
X119427423Y-54780748D01*
X119447129Y-54766133D01*
X119468172Y-54753521D01*
X119490351Y-54743031D01*
X119513450Y-54734766D01*
X119537249Y-54728805D01*
X119561517Y-54725205D01*
X119586021Y-54724001D01*
X120236023Y-54724001D01*
X120260527Y-54725205D01*
G37*
G04 #@! TD*
G04 #@! TO.C,R7*
G36*
X113390527Y-54725205D02*
G01*
X113414795Y-54728805D01*
X113438594Y-54734766D01*
X113461693Y-54743031D01*
X113483872Y-54753521D01*
X113504915Y-54766133D01*
X113524621Y-54780748D01*
X113542799Y-54797224D01*
X113559275Y-54815402D01*
X113573890Y-54835108D01*
X113586502Y-54856151D01*
X113596992Y-54878330D01*
X113605257Y-54901429D01*
X113611218Y-54925228D01*
X113614818Y-54949496D01*
X113616022Y-54974000D01*
X113616022Y-55874002D01*
X113614818Y-55898506D01*
X113611218Y-55922774D01*
X113605257Y-55946573D01*
X113596992Y-55969672D01*
X113586502Y-55991851D01*
X113573890Y-56012894D01*
X113559275Y-56032600D01*
X113542799Y-56050778D01*
X113524621Y-56067254D01*
X113504915Y-56081869D01*
X113483872Y-56094481D01*
X113461693Y-56104971D01*
X113438594Y-56113236D01*
X113414795Y-56119197D01*
X113390527Y-56122797D01*
X113366023Y-56124001D01*
X112716021Y-56124001D01*
X112691517Y-56122797D01*
X112667249Y-56119197D01*
X112643450Y-56113236D01*
X112620351Y-56104971D01*
X112598172Y-56094481D01*
X112577129Y-56081869D01*
X112557423Y-56067254D01*
X112539245Y-56050778D01*
X112522769Y-56032600D01*
X112508154Y-56012894D01*
X112495542Y-55991851D01*
X112485052Y-55969672D01*
X112476787Y-55946573D01*
X112470826Y-55922774D01*
X112467226Y-55898506D01*
X112466022Y-55874002D01*
X112466022Y-54974000D01*
X112467226Y-54949496D01*
X112470826Y-54925228D01*
X112476787Y-54901429D01*
X112485052Y-54878330D01*
X112495542Y-54856151D01*
X112508154Y-54835108D01*
X112522769Y-54815402D01*
X112539245Y-54797224D01*
X112557423Y-54780748D01*
X112577129Y-54766133D01*
X112598172Y-54753521D01*
X112620351Y-54743031D01*
X112643450Y-54734766D01*
X112667249Y-54728805D01*
X112691517Y-54725205D01*
X112716021Y-54724001D01*
X113366023Y-54724001D01*
X113390527Y-54725205D01*
G37*
G36*
X115440527Y-54725205D02*
G01*
X115464795Y-54728805D01*
X115488594Y-54734766D01*
X115511693Y-54743031D01*
X115533872Y-54753521D01*
X115554915Y-54766133D01*
X115574621Y-54780748D01*
X115592799Y-54797224D01*
X115609275Y-54815402D01*
X115623890Y-54835108D01*
X115636502Y-54856151D01*
X115646992Y-54878330D01*
X115655257Y-54901429D01*
X115661218Y-54925228D01*
X115664818Y-54949496D01*
X115666022Y-54974000D01*
X115666022Y-55874002D01*
X115664818Y-55898506D01*
X115661218Y-55922774D01*
X115655257Y-55946573D01*
X115646992Y-55969672D01*
X115636502Y-55991851D01*
X115623890Y-56012894D01*
X115609275Y-56032600D01*
X115592799Y-56050778D01*
X115574621Y-56067254D01*
X115554915Y-56081869D01*
X115533872Y-56094481D01*
X115511693Y-56104971D01*
X115488594Y-56113236D01*
X115464795Y-56119197D01*
X115440527Y-56122797D01*
X115416023Y-56124001D01*
X114766021Y-56124001D01*
X114741517Y-56122797D01*
X114717249Y-56119197D01*
X114693450Y-56113236D01*
X114670351Y-56104971D01*
X114648172Y-56094481D01*
X114627129Y-56081869D01*
X114607423Y-56067254D01*
X114589245Y-56050778D01*
X114572769Y-56032600D01*
X114558154Y-56012894D01*
X114545542Y-55991851D01*
X114535052Y-55969672D01*
X114526787Y-55946573D01*
X114520826Y-55922774D01*
X114517226Y-55898506D01*
X114516022Y-55874002D01*
X114516022Y-54974000D01*
X114517226Y-54949496D01*
X114520826Y-54925228D01*
X114526787Y-54901429D01*
X114535052Y-54878330D01*
X114545542Y-54856151D01*
X114558154Y-54835108D01*
X114572769Y-54815402D01*
X114589245Y-54797224D01*
X114607423Y-54780748D01*
X114627129Y-54766133D01*
X114648172Y-54753521D01*
X114670351Y-54743031D01*
X114693450Y-54734766D01*
X114717249Y-54728805D01*
X114741517Y-54725205D01*
X114766021Y-54724001D01*
X115416023Y-54724001D01*
X115440527Y-54725205D01*
G37*
G04 #@! TD*
D12*
G04 #@! TO.C,J2*
X124786022Y-52032001D03*
X122016022Y-52032001D03*
X119246022Y-52032001D03*
X116476022Y-52032001D03*
X113706022Y-52032001D03*
X110936022Y-52032001D03*
X108166022Y-52032001D03*
X105396022Y-52032001D03*
X102626022Y-52032001D03*
X99856022Y-52032001D03*
X97086022Y-52032001D03*
X94316022Y-52032001D03*
G04 #@! TD*
D11*
G04 #@! TO.C,R1*
G36*
X56067006Y-54635205D02*
G01*
X56091274Y-54638805D01*
X56115073Y-54644766D01*
X56138172Y-54653031D01*
X56160351Y-54663521D01*
X56181394Y-54676133D01*
X56201100Y-54690748D01*
X56219278Y-54707224D01*
X56235754Y-54725402D01*
X56250369Y-54745108D01*
X56262981Y-54766151D01*
X56273471Y-54788330D01*
X56281736Y-54811429D01*
X56287697Y-54835228D01*
X56291297Y-54859496D01*
X56292501Y-54884000D01*
X56292501Y-55784002D01*
X56291297Y-55808506D01*
X56287697Y-55832774D01*
X56281736Y-55856573D01*
X56273471Y-55879672D01*
X56262981Y-55901851D01*
X56250369Y-55922894D01*
X56235754Y-55942600D01*
X56219278Y-55960778D01*
X56201100Y-55977254D01*
X56181394Y-55991869D01*
X56160351Y-56004481D01*
X56138172Y-56014971D01*
X56115073Y-56023236D01*
X56091274Y-56029197D01*
X56067006Y-56032797D01*
X56042502Y-56034001D01*
X55392500Y-56034001D01*
X55367996Y-56032797D01*
X55343728Y-56029197D01*
X55319929Y-56023236D01*
X55296830Y-56014971D01*
X55274651Y-56004481D01*
X55253608Y-55991869D01*
X55233902Y-55977254D01*
X55215724Y-55960778D01*
X55199248Y-55942600D01*
X55184633Y-55922894D01*
X55172021Y-55901851D01*
X55161531Y-55879672D01*
X55153266Y-55856573D01*
X55147305Y-55832774D01*
X55143705Y-55808506D01*
X55142501Y-55784002D01*
X55142501Y-54884000D01*
X55143705Y-54859496D01*
X55147305Y-54835228D01*
X55153266Y-54811429D01*
X55161531Y-54788330D01*
X55172021Y-54766151D01*
X55184633Y-54745108D01*
X55199248Y-54725402D01*
X55215724Y-54707224D01*
X55233902Y-54690748D01*
X55253608Y-54676133D01*
X55274651Y-54663521D01*
X55296830Y-54653031D01*
X55319929Y-54644766D01*
X55343728Y-54638805D01*
X55367996Y-54635205D01*
X55392500Y-54634001D01*
X56042502Y-54634001D01*
X56067006Y-54635205D01*
G37*
G36*
X58117006Y-54635205D02*
G01*
X58141274Y-54638805D01*
X58165073Y-54644766D01*
X58188172Y-54653031D01*
X58210351Y-54663521D01*
X58231394Y-54676133D01*
X58251100Y-54690748D01*
X58269278Y-54707224D01*
X58285754Y-54725402D01*
X58300369Y-54745108D01*
X58312981Y-54766151D01*
X58323471Y-54788330D01*
X58331736Y-54811429D01*
X58337697Y-54835228D01*
X58341297Y-54859496D01*
X58342501Y-54884000D01*
X58342501Y-55784002D01*
X58341297Y-55808506D01*
X58337697Y-55832774D01*
X58331736Y-55856573D01*
X58323471Y-55879672D01*
X58312981Y-55901851D01*
X58300369Y-55922894D01*
X58285754Y-55942600D01*
X58269278Y-55960778D01*
X58251100Y-55977254D01*
X58231394Y-55991869D01*
X58210351Y-56004481D01*
X58188172Y-56014971D01*
X58165073Y-56023236D01*
X58141274Y-56029197D01*
X58117006Y-56032797D01*
X58092502Y-56034001D01*
X57442500Y-56034001D01*
X57417996Y-56032797D01*
X57393728Y-56029197D01*
X57369929Y-56023236D01*
X57346830Y-56014971D01*
X57324651Y-56004481D01*
X57303608Y-55991869D01*
X57283902Y-55977254D01*
X57265724Y-55960778D01*
X57249248Y-55942600D01*
X57234633Y-55922894D01*
X57222021Y-55901851D01*
X57211531Y-55879672D01*
X57203266Y-55856573D01*
X57197305Y-55832774D01*
X57193705Y-55808506D01*
X57192501Y-55784002D01*
X57192501Y-54884000D01*
X57193705Y-54859496D01*
X57197305Y-54835228D01*
X57203266Y-54811429D01*
X57211531Y-54788330D01*
X57222021Y-54766151D01*
X57234633Y-54745108D01*
X57249248Y-54725402D01*
X57265724Y-54707224D01*
X57283902Y-54690748D01*
X57303608Y-54676133D01*
X57324651Y-54663521D01*
X57346830Y-54653031D01*
X57369929Y-54644766D01*
X57393728Y-54638805D01*
X57417996Y-54635205D01*
X57442500Y-54634001D01*
X58092502Y-54634001D01*
X58117006Y-54635205D01*
G37*
G04 #@! TD*
G04 #@! TO.C,R2*
G36*
X83047006Y-54725205D02*
G01*
X83071274Y-54728805D01*
X83095073Y-54734766D01*
X83118172Y-54743031D01*
X83140351Y-54753521D01*
X83161394Y-54766133D01*
X83181100Y-54780748D01*
X83199278Y-54797224D01*
X83215754Y-54815402D01*
X83230369Y-54835108D01*
X83242981Y-54856151D01*
X83253471Y-54878330D01*
X83261736Y-54901429D01*
X83267697Y-54925228D01*
X83271297Y-54949496D01*
X83272501Y-54974000D01*
X83272501Y-55874002D01*
X83271297Y-55898506D01*
X83267697Y-55922774D01*
X83261736Y-55946573D01*
X83253471Y-55969672D01*
X83242981Y-55991851D01*
X83230369Y-56012894D01*
X83215754Y-56032600D01*
X83199278Y-56050778D01*
X83181100Y-56067254D01*
X83161394Y-56081869D01*
X83140351Y-56094481D01*
X83118172Y-56104971D01*
X83095073Y-56113236D01*
X83071274Y-56119197D01*
X83047006Y-56122797D01*
X83022502Y-56124001D01*
X82372500Y-56124001D01*
X82347996Y-56122797D01*
X82323728Y-56119197D01*
X82299929Y-56113236D01*
X82276830Y-56104971D01*
X82254651Y-56094481D01*
X82233608Y-56081869D01*
X82213902Y-56067254D01*
X82195724Y-56050778D01*
X82179248Y-56032600D01*
X82164633Y-56012894D01*
X82152021Y-55991851D01*
X82141531Y-55969672D01*
X82133266Y-55946573D01*
X82127305Y-55922774D01*
X82123705Y-55898506D01*
X82122501Y-55874002D01*
X82122501Y-54974000D01*
X82123705Y-54949496D01*
X82127305Y-54925228D01*
X82133266Y-54901429D01*
X82141531Y-54878330D01*
X82152021Y-54856151D01*
X82164633Y-54835108D01*
X82179248Y-54815402D01*
X82195724Y-54797224D01*
X82213902Y-54780748D01*
X82233608Y-54766133D01*
X82254651Y-54753521D01*
X82276830Y-54743031D01*
X82299929Y-54734766D01*
X82323728Y-54728805D01*
X82347996Y-54725205D01*
X82372500Y-54724001D01*
X83022502Y-54724001D01*
X83047006Y-54725205D01*
G37*
G36*
X85097006Y-54725205D02*
G01*
X85121274Y-54728805D01*
X85145073Y-54734766D01*
X85168172Y-54743031D01*
X85190351Y-54753521D01*
X85211394Y-54766133D01*
X85231100Y-54780748D01*
X85249278Y-54797224D01*
X85265754Y-54815402D01*
X85280369Y-54835108D01*
X85292981Y-54856151D01*
X85303471Y-54878330D01*
X85311736Y-54901429D01*
X85317697Y-54925228D01*
X85321297Y-54949496D01*
X85322501Y-54974000D01*
X85322501Y-55874002D01*
X85321297Y-55898506D01*
X85317697Y-55922774D01*
X85311736Y-55946573D01*
X85303471Y-55969672D01*
X85292981Y-55991851D01*
X85280369Y-56012894D01*
X85265754Y-56032600D01*
X85249278Y-56050778D01*
X85231100Y-56067254D01*
X85211394Y-56081869D01*
X85190351Y-56094481D01*
X85168172Y-56104971D01*
X85145073Y-56113236D01*
X85121274Y-56119197D01*
X85097006Y-56122797D01*
X85072502Y-56124001D01*
X84422500Y-56124001D01*
X84397996Y-56122797D01*
X84373728Y-56119197D01*
X84349929Y-56113236D01*
X84326830Y-56104971D01*
X84304651Y-56094481D01*
X84283608Y-56081869D01*
X84263902Y-56067254D01*
X84245724Y-56050778D01*
X84229248Y-56032600D01*
X84214633Y-56012894D01*
X84202021Y-55991851D01*
X84191531Y-55969672D01*
X84183266Y-55946573D01*
X84177305Y-55922774D01*
X84173705Y-55898506D01*
X84172501Y-55874002D01*
X84172501Y-54974000D01*
X84173705Y-54949496D01*
X84177305Y-54925228D01*
X84183266Y-54901429D01*
X84191531Y-54878330D01*
X84202021Y-54856151D01*
X84214633Y-54835108D01*
X84229248Y-54815402D01*
X84245724Y-54797224D01*
X84263902Y-54780748D01*
X84283608Y-54766133D01*
X84304651Y-54753521D01*
X84326830Y-54743031D01*
X84349929Y-54734766D01*
X84373728Y-54728805D01*
X84397996Y-54725205D01*
X84422500Y-54724001D01*
X85072502Y-54724001D01*
X85097006Y-54725205D01*
G37*
G04 #@! TD*
G04 #@! TO.C,R3*
G36*
X62949106Y-54725205D02*
G01*
X62973374Y-54728805D01*
X62997173Y-54734766D01*
X63020272Y-54743031D01*
X63042451Y-54753521D01*
X63063494Y-54766133D01*
X63083200Y-54780748D01*
X63101378Y-54797224D01*
X63117854Y-54815402D01*
X63132469Y-54835108D01*
X63145081Y-54856151D01*
X63155571Y-54878330D01*
X63163836Y-54901429D01*
X63169797Y-54925228D01*
X63173397Y-54949496D01*
X63174601Y-54974000D01*
X63174601Y-55874002D01*
X63173397Y-55898506D01*
X63169797Y-55922774D01*
X63163836Y-55946573D01*
X63155571Y-55969672D01*
X63145081Y-55991851D01*
X63132469Y-56012894D01*
X63117854Y-56032600D01*
X63101378Y-56050778D01*
X63083200Y-56067254D01*
X63063494Y-56081869D01*
X63042451Y-56094481D01*
X63020272Y-56104971D01*
X62997173Y-56113236D01*
X62973374Y-56119197D01*
X62949106Y-56122797D01*
X62924602Y-56124001D01*
X62274600Y-56124001D01*
X62250096Y-56122797D01*
X62225828Y-56119197D01*
X62202029Y-56113236D01*
X62178930Y-56104971D01*
X62156751Y-56094481D01*
X62135708Y-56081869D01*
X62116002Y-56067254D01*
X62097824Y-56050778D01*
X62081348Y-56032600D01*
X62066733Y-56012894D01*
X62054121Y-55991851D01*
X62043631Y-55969672D01*
X62035366Y-55946573D01*
X62029405Y-55922774D01*
X62025805Y-55898506D01*
X62024601Y-55874002D01*
X62024601Y-54974000D01*
X62025805Y-54949496D01*
X62029405Y-54925228D01*
X62035366Y-54901429D01*
X62043631Y-54878330D01*
X62054121Y-54856151D01*
X62066733Y-54835108D01*
X62081348Y-54815402D01*
X62097824Y-54797224D01*
X62116002Y-54780748D01*
X62135708Y-54766133D01*
X62156751Y-54753521D01*
X62178930Y-54743031D01*
X62202029Y-54734766D01*
X62225828Y-54728805D01*
X62250096Y-54725205D01*
X62274600Y-54724001D01*
X62924602Y-54724001D01*
X62949106Y-54725205D01*
G37*
G36*
X60899106Y-54725205D02*
G01*
X60923374Y-54728805D01*
X60947173Y-54734766D01*
X60970272Y-54743031D01*
X60992451Y-54753521D01*
X61013494Y-54766133D01*
X61033200Y-54780748D01*
X61051378Y-54797224D01*
X61067854Y-54815402D01*
X61082469Y-54835108D01*
X61095081Y-54856151D01*
X61105571Y-54878330D01*
X61113836Y-54901429D01*
X61119797Y-54925228D01*
X61123397Y-54949496D01*
X61124601Y-54974000D01*
X61124601Y-55874002D01*
X61123397Y-55898506D01*
X61119797Y-55922774D01*
X61113836Y-55946573D01*
X61105571Y-55969672D01*
X61095081Y-55991851D01*
X61082469Y-56012894D01*
X61067854Y-56032600D01*
X61051378Y-56050778D01*
X61033200Y-56067254D01*
X61013494Y-56081869D01*
X60992451Y-56094481D01*
X60970272Y-56104971D01*
X60947173Y-56113236D01*
X60923374Y-56119197D01*
X60899106Y-56122797D01*
X60874602Y-56124001D01*
X60224600Y-56124001D01*
X60200096Y-56122797D01*
X60175828Y-56119197D01*
X60152029Y-56113236D01*
X60128930Y-56104971D01*
X60106751Y-56094481D01*
X60085708Y-56081869D01*
X60066002Y-56067254D01*
X60047824Y-56050778D01*
X60031348Y-56032600D01*
X60016733Y-56012894D01*
X60004121Y-55991851D01*
X59993631Y-55969672D01*
X59985366Y-55946573D01*
X59979405Y-55922774D01*
X59975805Y-55898506D01*
X59974601Y-55874002D01*
X59974601Y-54974000D01*
X59975805Y-54949496D01*
X59979405Y-54925228D01*
X59985366Y-54901429D01*
X59993631Y-54878330D01*
X60004121Y-54856151D01*
X60016733Y-54835108D01*
X60031348Y-54815402D01*
X60047824Y-54797224D01*
X60066002Y-54780748D01*
X60085708Y-54766133D01*
X60106751Y-54753521D01*
X60128930Y-54743031D01*
X60152029Y-54734766D01*
X60175828Y-54728805D01*
X60200096Y-54725205D01*
X60224600Y-54724001D01*
X60874602Y-54724001D01*
X60899106Y-54725205D01*
G37*
G04 #@! TD*
G04 #@! TO.C,R4*
G36*
X81190106Y-56475205D02*
G01*
X81214374Y-56478805D01*
X81238173Y-56484766D01*
X81261272Y-56493031D01*
X81283451Y-56503521D01*
X81304494Y-56516133D01*
X81324200Y-56530748D01*
X81342378Y-56547224D01*
X81358854Y-56565402D01*
X81373469Y-56585108D01*
X81386081Y-56606151D01*
X81396571Y-56628330D01*
X81404836Y-56651429D01*
X81410797Y-56675228D01*
X81414397Y-56699496D01*
X81415601Y-56724000D01*
X81415601Y-57624002D01*
X81414397Y-57648506D01*
X81410797Y-57672774D01*
X81404836Y-57696573D01*
X81396571Y-57719672D01*
X81386081Y-57741851D01*
X81373469Y-57762894D01*
X81358854Y-57782600D01*
X81342378Y-57800778D01*
X81324200Y-57817254D01*
X81304494Y-57831869D01*
X81283451Y-57844481D01*
X81261272Y-57854971D01*
X81238173Y-57863236D01*
X81214374Y-57869197D01*
X81190106Y-57872797D01*
X81165602Y-57874001D01*
X80515600Y-57874001D01*
X80491096Y-57872797D01*
X80466828Y-57869197D01*
X80443029Y-57863236D01*
X80419930Y-57854971D01*
X80397751Y-57844481D01*
X80376708Y-57831869D01*
X80357002Y-57817254D01*
X80338824Y-57800778D01*
X80322348Y-57782600D01*
X80307733Y-57762894D01*
X80295121Y-57741851D01*
X80284631Y-57719672D01*
X80276366Y-57696573D01*
X80270405Y-57672774D01*
X80266805Y-57648506D01*
X80265601Y-57624002D01*
X80265601Y-56724000D01*
X80266805Y-56699496D01*
X80270405Y-56675228D01*
X80276366Y-56651429D01*
X80284631Y-56628330D01*
X80295121Y-56606151D01*
X80307733Y-56585108D01*
X80322348Y-56565402D01*
X80338824Y-56547224D01*
X80357002Y-56530748D01*
X80376708Y-56516133D01*
X80397751Y-56503521D01*
X80419930Y-56493031D01*
X80443029Y-56484766D01*
X80466828Y-56478805D01*
X80491096Y-56475205D01*
X80515600Y-56474001D01*
X81165602Y-56474001D01*
X81190106Y-56475205D01*
G37*
G36*
X83240106Y-56475205D02*
G01*
X83264374Y-56478805D01*
X83288173Y-56484766D01*
X83311272Y-56493031D01*
X83333451Y-56503521D01*
X83354494Y-56516133D01*
X83374200Y-56530748D01*
X83392378Y-56547224D01*
X83408854Y-56565402D01*
X83423469Y-56585108D01*
X83436081Y-56606151D01*
X83446571Y-56628330D01*
X83454836Y-56651429D01*
X83460797Y-56675228D01*
X83464397Y-56699496D01*
X83465601Y-56724000D01*
X83465601Y-57624002D01*
X83464397Y-57648506D01*
X83460797Y-57672774D01*
X83454836Y-57696573D01*
X83446571Y-57719672D01*
X83436081Y-57741851D01*
X83423469Y-57762894D01*
X83408854Y-57782600D01*
X83392378Y-57800778D01*
X83374200Y-57817254D01*
X83354494Y-57831869D01*
X83333451Y-57844481D01*
X83311272Y-57854971D01*
X83288173Y-57863236D01*
X83264374Y-57869197D01*
X83240106Y-57872797D01*
X83215602Y-57874001D01*
X82565600Y-57874001D01*
X82541096Y-57872797D01*
X82516828Y-57869197D01*
X82493029Y-57863236D01*
X82469930Y-57854971D01*
X82447751Y-57844481D01*
X82426708Y-57831869D01*
X82407002Y-57817254D01*
X82388824Y-57800778D01*
X82372348Y-57782600D01*
X82357733Y-57762894D01*
X82345121Y-57741851D01*
X82334631Y-57719672D01*
X82326366Y-57696573D01*
X82320405Y-57672774D01*
X82316805Y-57648506D01*
X82315601Y-57624002D01*
X82315601Y-56724000D01*
X82316805Y-56699496D01*
X82320405Y-56675228D01*
X82326366Y-56651429D01*
X82334631Y-56628330D01*
X82345121Y-56606151D01*
X82357733Y-56585108D01*
X82372348Y-56565402D01*
X82388824Y-56547224D01*
X82407002Y-56530748D01*
X82426708Y-56516133D01*
X82447751Y-56503521D01*
X82469930Y-56493031D01*
X82493029Y-56484766D01*
X82516828Y-56478805D01*
X82541096Y-56475205D01*
X82565600Y-56474001D01*
X83215602Y-56474001D01*
X83240106Y-56475205D01*
G37*
G04 #@! TD*
G04 #@! TO.C,R5*
G36*
X68649106Y-54725205D02*
G01*
X68673374Y-54728805D01*
X68697173Y-54734766D01*
X68720272Y-54743031D01*
X68742451Y-54753521D01*
X68763494Y-54766133D01*
X68783200Y-54780748D01*
X68801378Y-54797224D01*
X68817854Y-54815402D01*
X68832469Y-54835108D01*
X68845081Y-54856151D01*
X68855571Y-54878330D01*
X68863836Y-54901429D01*
X68869797Y-54925228D01*
X68873397Y-54949496D01*
X68874601Y-54974000D01*
X68874601Y-55874002D01*
X68873397Y-55898506D01*
X68869797Y-55922774D01*
X68863836Y-55946573D01*
X68855571Y-55969672D01*
X68845081Y-55991851D01*
X68832469Y-56012894D01*
X68817854Y-56032600D01*
X68801378Y-56050778D01*
X68783200Y-56067254D01*
X68763494Y-56081869D01*
X68742451Y-56094481D01*
X68720272Y-56104971D01*
X68697173Y-56113236D01*
X68673374Y-56119197D01*
X68649106Y-56122797D01*
X68624602Y-56124001D01*
X67974600Y-56124001D01*
X67950096Y-56122797D01*
X67925828Y-56119197D01*
X67902029Y-56113236D01*
X67878930Y-56104971D01*
X67856751Y-56094481D01*
X67835708Y-56081869D01*
X67816002Y-56067254D01*
X67797824Y-56050778D01*
X67781348Y-56032600D01*
X67766733Y-56012894D01*
X67754121Y-55991851D01*
X67743631Y-55969672D01*
X67735366Y-55946573D01*
X67729405Y-55922774D01*
X67725805Y-55898506D01*
X67724601Y-55874002D01*
X67724601Y-54974000D01*
X67725805Y-54949496D01*
X67729405Y-54925228D01*
X67735366Y-54901429D01*
X67743631Y-54878330D01*
X67754121Y-54856151D01*
X67766733Y-54835108D01*
X67781348Y-54815402D01*
X67797824Y-54797224D01*
X67816002Y-54780748D01*
X67835708Y-54766133D01*
X67856751Y-54753521D01*
X67878930Y-54743031D01*
X67902029Y-54734766D01*
X67925828Y-54728805D01*
X67950096Y-54725205D01*
X67974600Y-54724001D01*
X68624602Y-54724001D01*
X68649106Y-54725205D01*
G37*
G36*
X70699106Y-54725205D02*
G01*
X70723374Y-54728805D01*
X70747173Y-54734766D01*
X70770272Y-54743031D01*
X70792451Y-54753521D01*
X70813494Y-54766133D01*
X70833200Y-54780748D01*
X70851378Y-54797224D01*
X70867854Y-54815402D01*
X70882469Y-54835108D01*
X70895081Y-54856151D01*
X70905571Y-54878330D01*
X70913836Y-54901429D01*
X70919797Y-54925228D01*
X70923397Y-54949496D01*
X70924601Y-54974000D01*
X70924601Y-55874002D01*
X70923397Y-55898506D01*
X70919797Y-55922774D01*
X70913836Y-55946573D01*
X70905571Y-55969672D01*
X70895081Y-55991851D01*
X70882469Y-56012894D01*
X70867854Y-56032600D01*
X70851378Y-56050778D01*
X70833200Y-56067254D01*
X70813494Y-56081869D01*
X70792451Y-56094481D01*
X70770272Y-56104971D01*
X70747173Y-56113236D01*
X70723374Y-56119197D01*
X70699106Y-56122797D01*
X70674602Y-56124001D01*
X70024600Y-56124001D01*
X70000096Y-56122797D01*
X69975828Y-56119197D01*
X69952029Y-56113236D01*
X69928930Y-56104971D01*
X69906751Y-56094481D01*
X69885708Y-56081869D01*
X69866002Y-56067254D01*
X69847824Y-56050778D01*
X69831348Y-56032600D01*
X69816733Y-56012894D01*
X69804121Y-55991851D01*
X69793631Y-55969672D01*
X69785366Y-55946573D01*
X69779405Y-55922774D01*
X69775805Y-55898506D01*
X69774601Y-55874002D01*
X69774601Y-54974000D01*
X69775805Y-54949496D01*
X69779405Y-54925228D01*
X69785366Y-54901429D01*
X69793631Y-54878330D01*
X69804121Y-54856151D01*
X69816733Y-54835108D01*
X69831348Y-54815402D01*
X69847824Y-54797224D01*
X69866002Y-54780748D01*
X69885708Y-54766133D01*
X69906751Y-54753521D01*
X69928930Y-54743031D01*
X69952029Y-54734766D01*
X69975828Y-54728805D01*
X70000096Y-54725205D01*
X70024600Y-54724001D01*
X70674602Y-54724001D01*
X70699106Y-54725205D01*
G37*
G04 #@! TD*
G04 #@! TO.C,R6*
G36*
X77507006Y-54725205D02*
G01*
X77531274Y-54728805D01*
X77555073Y-54734766D01*
X77578172Y-54743031D01*
X77600351Y-54753521D01*
X77621394Y-54766133D01*
X77641100Y-54780748D01*
X77659278Y-54797224D01*
X77675754Y-54815402D01*
X77690369Y-54835108D01*
X77702981Y-54856151D01*
X77713471Y-54878330D01*
X77721736Y-54901429D01*
X77727697Y-54925228D01*
X77731297Y-54949496D01*
X77732501Y-54974000D01*
X77732501Y-55874002D01*
X77731297Y-55898506D01*
X77727697Y-55922774D01*
X77721736Y-55946573D01*
X77713471Y-55969672D01*
X77702981Y-55991851D01*
X77690369Y-56012894D01*
X77675754Y-56032600D01*
X77659278Y-56050778D01*
X77641100Y-56067254D01*
X77621394Y-56081869D01*
X77600351Y-56094481D01*
X77578172Y-56104971D01*
X77555073Y-56113236D01*
X77531274Y-56119197D01*
X77507006Y-56122797D01*
X77482502Y-56124001D01*
X76832500Y-56124001D01*
X76807996Y-56122797D01*
X76783728Y-56119197D01*
X76759929Y-56113236D01*
X76736830Y-56104971D01*
X76714651Y-56094481D01*
X76693608Y-56081869D01*
X76673902Y-56067254D01*
X76655724Y-56050778D01*
X76639248Y-56032600D01*
X76624633Y-56012894D01*
X76612021Y-55991851D01*
X76601531Y-55969672D01*
X76593266Y-55946573D01*
X76587305Y-55922774D01*
X76583705Y-55898506D01*
X76582501Y-55874002D01*
X76582501Y-54974000D01*
X76583705Y-54949496D01*
X76587305Y-54925228D01*
X76593266Y-54901429D01*
X76601531Y-54878330D01*
X76612021Y-54856151D01*
X76624633Y-54835108D01*
X76639248Y-54815402D01*
X76655724Y-54797224D01*
X76673902Y-54780748D01*
X76693608Y-54766133D01*
X76714651Y-54753521D01*
X76736830Y-54743031D01*
X76759929Y-54734766D01*
X76783728Y-54728805D01*
X76807996Y-54725205D01*
X76832500Y-54724001D01*
X77482502Y-54724001D01*
X77507006Y-54725205D01*
G37*
G36*
X79557006Y-54725205D02*
G01*
X79581274Y-54728805D01*
X79605073Y-54734766D01*
X79628172Y-54743031D01*
X79650351Y-54753521D01*
X79671394Y-54766133D01*
X79691100Y-54780748D01*
X79709278Y-54797224D01*
X79725754Y-54815402D01*
X79740369Y-54835108D01*
X79752981Y-54856151D01*
X79763471Y-54878330D01*
X79771736Y-54901429D01*
X79777697Y-54925228D01*
X79781297Y-54949496D01*
X79782501Y-54974000D01*
X79782501Y-55874002D01*
X79781297Y-55898506D01*
X79777697Y-55922774D01*
X79771736Y-55946573D01*
X79763471Y-55969672D01*
X79752981Y-55991851D01*
X79740369Y-56012894D01*
X79725754Y-56032600D01*
X79709278Y-56050778D01*
X79691100Y-56067254D01*
X79671394Y-56081869D01*
X79650351Y-56094481D01*
X79628172Y-56104971D01*
X79605073Y-56113236D01*
X79581274Y-56119197D01*
X79557006Y-56122797D01*
X79532502Y-56124001D01*
X78882500Y-56124001D01*
X78857996Y-56122797D01*
X78833728Y-56119197D01*
X78809929Y-56113236D01*
X78786830Y-56104971D01*
X78764651Y-56094481D01*
X78743608Y-56081869D01*
X78723902Y-56067254D01*
X78705724Y-56050778D01*
X78689248Y-56032600D01*
X78674633Y-56012894D01*
X78662021Y-55991851D01*
X78651531Y-55969672D01*
X78643266Y-55946573D01*
X78637305Y-55922774D01*
X78633705Y-55898506D01*
X78632501Y-55874002D01*
X78632501Y-54974000D01*
X78633705Y-54949496D01*
X78637305Y-54925228D01*
X78643266Y-54901429D01*
X78651531Y-54878330D01*
X78662021Y-54856151D01*
X78674633Y-54835108D01*
X78689248Y-54815402D01*
X78705724Y-54797224D01*
X78723902Y-54780748D01*
X78743608Y-54766133D01*
X78764651Y-54753521D01*
X78786830Y-54743031D01*
X78809929Y-54734766D01*
X78833728Y-54728805D01*
X78857996Y-54725205D01*
X78882500Y-54724001D01*
X79532502Y-54724001D01*
X79557006Y-54725205D01*
G37*
G04 #@! TD*
G04 #@! TO.C,R7*
G36*
X72687006Y-54725205D02*
G01*
X72711274Y-54728805D01*
X72735073Y-54734766D01*
X72758172Y-54743031D01*
X72780351Y-54753521D01*
X72801394Y-54766133D01*
X72821100Y-54780748D01*
X72839278Y-54797224D01*
X72855754Y-54815402D01*
X72870369Y-54835108D01*
X72882981Y-54856151D01*
X72893471Y-54878330D01*
X72901736Y-54901429D01*
X72907697Y-54925228D01*
X72911297Y-54949496D01*
X72912501Y-54974000D01*
X72912501Y-55874002D01*
X72911297Y-55898506D01*
X72907697Y-55922774D01*
X72901736Y-55946573D01*
X72893471Y-55969672D01*
X72882981Y-55991851D01*
X72870369Y-56012894D01*
X72855754Y-56032600D01*
X72839278Y-56050778D01*
X72821100Y-56067254D01*
X72801394Y-56081869D01*
X72780351Y-56094481D01*
X72758172Y-56104971D01*
X72735073Y-56113236D01*
X72711274Y-56119197D01*
X72687006Y-56122797D01*
X72662502Y-56124001D01*
X72012500Y-56124001D01*
X71987996Y-56122797D01*
X71963728Y-56119197D01*
X71939929Y-56113236D01*
X71916830Y-56104971D01*
X71894651Y-56094481D01*
X71873608Y-56081869D01*
X71853902Y-56067254D01*
X71835724Y-56050778D01*
X71819248Y-56032600D01*
X71804633Y-56012894D01*
X71792021Y-55991851D01*
X71781531Y-55969672D01*
X71773266Y-55946573D01*
X71767305Y-55922774D01*
X71763705Y-55898506D01*
X71762501Y-55874002D01*
X71762501Y-54974000D01*
X71763705Y-54949496D01*
X71767305Y-54925228D01*
X71773266Y-54901429D01*
X71781531Y-54878330D01*
X71792021Y-54856151D01*
X71804633Y-54835108D01*
X71819248Y-54815402D01*
X71835724Y-54797224D01*
X71853902Y-54780748D01*
X71873608Y-54766133D01*
X71894651Y-54753521D01*
X71916830Y-54743031D01*
X71939929Y-54734766D01*
X71963728Y-54728805D01*
X71987996Y-54725205D01*
X72012500Y-54724001D01*
X72662502Y-54724001D01*
X72687006Y-54725205D01*
G37*
G36*
X74737006Y-54725205D02*
G01*
X74761274Y-54728805D01*
X74785073Y-54734766D01*
X74808172Y-54743031D01*
X74830351Y-54753521D01*
X74851394Y-54766133D01*
X74871100Y-54780748D01*
X74889278Y-54797224D01*
X74905754Y-54815402D01*
X74920369Y-54835108D01*
X74932981Y-54856151D01*
X74943471Y-54878330D01*
X74951736Y-54901429D01*
X74957697Y-54925228D01*
X74961297Y-54949496D01*
X74962501Y-54974000D01*
X74962501Y-55874002D01*
X74961297Y-55898506D01*
X74957697Y-55922774D01*
X74951736Y-55946573D01*
X74943471Y-55969672D01*
X74932981Y-55991851D01*
X74920369Y-56012894D01*
X74905754Y-56032600D01*
X74889278Y-56050778D01*
X74871100Y-56067254D01*
X74851394Y-56081869D01*
X74830351Y-56094481D01*
X74808172Y-56104971D01*
X74785073Y-56113236D01*
X74761274Y-56119197D01*
X74737006Y-56122797D01*
X74712502Y-56124001D01*
X74062500Y-56124001D01*
X74037996Y-56122797D01*
X74013728Y-56119197D01*
X73989929Y-56113236D01*
X73966830Y-56104971D01*
X73944651Y-56094481D01*
X73923608Y-56081869D01*
X73903902Y-56067254D01*
X73885724Y-56050778D01*
X73869248Y-56032600D01*
X73854633Y-56012894D01*
X73842021Y-55991851D01*
X73831531Y-55969672D01*
X73823266Y-55946573D01*
X73817305Y-55922774D01*
X73813705Y-55898506D01*
X73812501Y-55874002D01*
X73812501Y-54974000D01*
X73813705Y-54949496D01*
X73817305Y-54925228D01*
X73823266Y-54901429D01*
X73831531Y-54878330D01*
X73842021Y-54856151D01*
X73854633Y-54835108D01*
X73869248Y-54815402D01*
X73885724Y-54797224D01*
X73903902Y-54780748D01*
X73923608Y-54766133D01*
X73944651Y-54753521D01*
X73966830Y-54743031D01*
X73989929Y-54734766D01*
X74013728Y-54728805D01*
X74037996Y-54725205D01*
X74062500Y-54724001D01*
X74712502Y-54724001D01*
X74737006Y-54725205D01*
G37*
G04 #@! TD*
D12*
G04 #@! TO.C,J2*
X84082501Y-52032001D03*
X81312501Y-52032001D03*
X78542501Y-52032001D03*
X75772501Y-52032001D03*
X73002501Y-52032001D03*
X70232501Y-52032001D03*
X67462501Y-52032001D03*
X64692501Y-52032001D03*
X61922501Y-52032001D03*
X59152501Y-52032001D03*
X56382501Y-52032001D03*
X53612501Y-52032001D03*
G04 #@! TD*
M02*
