M48
; DRILL file {KiCad 5.1.5+dfsg1-2build2} date Thu Feb 18 17:25:55 2021
; FORMAT={-:-/ absolute / metric / decimal}
; #@! TF.CreationDate,2021-02-18T17:25:55-08:00
; #@! TF.GenerationSoftware,Kicad,Pcbnew,5.1.5+dfsg1-2build2
FMAT,2
METRIC
T1C0.300
T2C0.800
T3C0.500
%
G90
G05
T1
X51.377Y-55.08
X51.377Y-56.096
X51.377Y-75.164
X51.377Y-76.18
X52.393Y-55.08
X52.393Y-56.096
X52.393Y-75.164
X52.393Y-76.18
X54.273Y-54.572
X54.273Y-74.656
X55.325Y-58.186
X55.325Y-78.27
X56.718Y-54.359
X56.718Y-74.442
X57.075Y-60.174
X57.075Y-80.258
X57.727Y-54.318
X57.727Y-74.402
X59.075Y-57.924
X59.075Y-78.008
X59.175Y-54.424
X59.175Y-74.508
X60.521Y-54.318
X60.521Y-74.402
X63.675Y-61.524
X63.675Y-81.608
X63.827Y-54.577
X63.827Y-74.66
X64.839Y-54.572
X64.839Y-74.656
X65.375Y-61.224
X65.375Y-81.308
X66.575Y-57.424
X66.575Y-77.508
X67.125Y-55.969
X67.125Y-76.053
X67.825Y-61.174
X67.825Y-81.258
X69.575Y-56.624
X69.575Y-76.708
X70.775Y-57.624
X70.775Y-77.708
X71.443Y-54.318
X71.443Y-74.402
X71.697Y-56.604
X71.697Y-76.688
X71.975Y-58.324
X71.975Y-60.824
X71.975Y-78.408
X71.975Y-80.908
X73.175Y-57.524
X73.175Y-77.608
X74.375Y-57.224
X74.375Y-77.308
X74.491Y-54.318
X74.491Y-74.402
X74.794Y-60.293
X74.794Y-80.377
X75.639Y-59.434
X75.639Y-79.518
X77.276Y-60.048
X77.276Y-80.132
X77.285Y-54.318
X77.285Y-74.402
X79.275Y-56.824
X79.275Y-76.908
X80.841Y-55.334
X80.841Y-75.418
X81.575Y-54.624
X81.575Y-74.708
X82.619Y-54.318
X82.619Y-74.402
X83.075Y-58.424
X83.075Y-78.508
X84.143Y-56.858
X84.143Y-76.942
X84.275Y-58.324
X84.275Y-59.324
X84.275Y-78.408
X84.275Y-79.408
X92.08Y-55.08
X92.08Y-56.096
X92.08Y-75.164
X92.08Y-76.18
X93.096Y-55.08
X93.096Y-56.096
X93.096Y-75.164
X93.096Y-76.18
X94.976Y-54.572
X94.976Y-74.656
X96.028Y-58.186
X96.028Y-78.27
X97.421Y-54.359
X97.421Y-74.442
X97.778Y-60.174
X97.778Y-80.258
X98.43Y-54.318
X98.43Y-74.402
X99.778Y-57.924
X99.778Y-78.008
X99.878Y-54.424
X99.878Y-74.508
X101.224Y-54.318
X101.224Y-74.402
X104.378Y-61.524
X104.378Y-81.608
X104.531Y-54.577
X104.531Y-74.66
X105.542Y-54.572
X105.542Y-74.656
X106.078Y-61.224
X106.078Y-81.308
X107.278Y-57.424
X107.278Y-77.508
X107.828Y-55.969
X107.828Y-76.053
X108.528Y-61.174
X108.528Y-81.258
X110.278Y-56.624
X110.278Y-76.708
X111.478Y-57.624
X111.478Y-77.708
X112.146Y-54.318
X112.146Y-74.402
X112.4Y-56.604
X112.4Y-76.688
X112.678Y-58.324
X112.678Y-60.824
X112.678Y-78.408
X112.678Y-80.908
X113.878Y-57.524
X113.878Y-77.608
X115.078Y-57.224
X115.078Y-77.308
X115.194Y-54.318
X115.194Y-74.402
X115.497Y-60.293
X115.497Y-80.377
X116.343Y-59.434
X116.343Y-79.518
X117.979Y-60.048
X117.979Y-80.132
X117.988Y-54.318
X117.988Y-74.402
X119.978Y-56.824
X119.978Y-76.908
X121.544Y-55.334
X121.544Y-75.418
X122.278Y-54.624
X122.278Y-74.708
X123.322Y-54.318
X123.322Y-74.402
X123.778Y-58.424
X123.778Y-78.508
X124.846Y-56.858
X124.846Y-76.942
X124.978Y-58.324
X124.978Y-59.324
X124.978Y-78.408
X124.978Y-79.408
T2
X61.848Y-62.954
X61.848Y-64.954
X63.848Y-62.954
X63.848Y-64.954
X65.848Y-62.954
X65.848Y-64.954
X67.848Y-62.954
X67.848Y-64.954
X69.848Y-62.954
X69.848Y-64.954
X71.848Y-62.954
X71.848Y-64.954
X73.848Y-62.954
X73.848Y-64.954
X75.848Y-62.954
X75.848Y-64.954
X102.551Y-62.954
X102.551Y-64.954
X104.551Y-62.954
X104.551Y-64.954
X106.551Y-62.954
X106.551Y-64.954
X108.551Y-62.954
X108.551Y-64.954
X110.551Y-62.954
X110.551Y-64.954
X112.551Y-62.954
X112.551Y-64.954
X114.551Y-62.954
X114.551Y-64.954
X116.551Y-62.954
X116.551Y-64.954
X61.848Y-83.038
X61.848Y-85.038
X63.848Y-83.038
X63.848Y-85.038
X65.848Y-83.038
X65.848Y-85.038
X67.848Y-83.038
X67.848Y-85.038
X69.848Y-83.038
X69.848Y-85.038
X71.848Y-83.038
X71.848Y-85.038
X73.848Y-83.038
X73.848Y-85.038
X75.848Y-83.038
X75.848Y-85.038
X102.551Y-83.038
X102.551Y-85.038
X104.551Y-83.038
X104.551Y-85.038
X106.551Y-83.038
X106.551Y-85.038
X108.551Y-83.038
X108.551Y-85.038
X110.551Y-83.038
X110.551Y-85.038
X112.551Y-83.038
X112.551Y-85.038
X114.551Y-83.038
X114.551Y-85.038
X116.551Y-83.038
X116.551Y-85.038
T3
X102.771Y-70.333
X75.636Y-70.333
X90.953Y-58.535
X64.068Y-70.333
X61.068Y-70.333
X87.454Y-58.53
X116.339Y-70.333
X87.454Y-78.614
X116.339Y-66.834
X102.771Y-66.832
X73.636Y-66.834
X76.636Y-66.834
X63.068Y-66.832
X104.771Y-70.333
X101.771Y-70.333
X74.636Y-70.333
X87.453Y-77.126
X90.963Y-60.029
X87.443Y-80.102
X90.963Y-80.112
X63.068Y-70.333
X114.339Y-66.834
X87.453Y-57.042
X115.339Y-70.333
X90.953Y-77.126
X117.339Y-66.834
X103.771Y-66.832
X74.636Y-66.834
X61.068Y-66.832
X64.068Y-66.832
X103.771Y-70.333
X76.636Y-70.333
X73.636Y-70.333
X90.953Y-57.042
X62.068Y-70.333
X87.443Y-60.018
X117.339Y-70.333
X114.339Y-70.333
X90.953Y-78.619
X115.339Y-66.834
X101.771Y-66.832
X104.771Y-66.832
X75.636Y-66.834
X62.068Y-66.832
T0
M30
