G04 #@! TF.GenerationSoftware,KiCad,Pcbnew,5.1.5+dfsg1-2build2*
G04 #@! TF.CreationDate,2021-02-18T17:25:55-08:00*
G04 #@! TF.ProjectId,panel,70616e65-6c2e-46b6-9963-61645f706362,rev?*
G04 #@! TF.SameCoordinates,Original*
G04 #@! TF.FileFunction,Paste,Top*
G04 #@! TF.FilePolarity,Positive*
%FSLAX46Y46*%
G04 Gerber Fmt 4.6, Leading zero omitted, Abs format (unit mm)*
G04 Created by KiCad (PCBNEW 5.1.5+dfsg1-2build2) date 2021-02-18 17:25:55*
%MOMM*%
%LPD*%
G04 APERTURE LIST*
G04 #@! TA.AperFunction,Profile*
%ADD10C,0.100000*%
G04 #@! TD*
%ADD11C,0.350000*%
%ADD12R,1.846667X3.480000*%
G04 APERTURE END LIST*
D10*
X72644400Y-70082900D02*
X65059100Y-70082900D01*
X72741700Y-70078100D02*
X72644400Y-70082900D01*
X72837800Y-70063900D02*
X72741700Y-70078100D01*
X72932100Y-70040300D02*
X72837800Y-70063900D01*
X73023500Y-70007500D02*
X72932100Y-70040300D01*
X73111400Y-69966000D02*
X73023500Y-70007500D01*
X73194700Y-69916000D02*
X73111400Y-69966000D01*
X73272700Y-69858200D02*
X73194700Y-69916000D01*
X73344700Y-69792900D02*
X73272700Y-69858200D01*
X73410000Y-69720900D02*
X73344700Y-69792900D01*
X73467800Y-69642900D02*
X73410000Y-69720900D01*
X73517800Y-69559600D02*
X73467800Y-69642900D01*
X73559300Y-69471800D02*
X73517800Y-69559600D01*
X73592000Y-69380300D02*
X73559300Y-69471800D01*
X73615600Y-69286000D02*
X73592000Y-69380300D01*
X73629900Y-69189900D02*
X73615600Y-69286000D01*
X73634700Y-69092700D02*
X73629900Y-69189900D01*
X73634700Y-68074000D02*
X73634700Y-69092700D01*
X73629900Y-67976700D02*
X73634700Y-68074000D01*
X73615600Y-67880600D02*
X73629900Y-67976700D01*
X73592000Y-67786400D02*
X73615600Y-67880600D01*
X73559300Y-67694900D02*
X73592000Y-67786400D01*
X73517800Y-67607100D02*
X73559300Y-67694900D01*
X73467900Y-67523800D02*
X73517800Y-67607100D01*
X73410000Y-67445700D02*
X73467900Y-67523800D01*
X73344800Y-67373700D02*
X73410000Y-67445700D01*
X73272800Y-67308500D02*
X73344800Y-67373700D01*
X73194800Y-67250600D02*
X73272800Y-67308500D01*
X73111400Y-67200700D02*
X73194800Y-67250600D01*
X73023600Y-67159100D02*
X73111400Y-67200700D01*
X72932200Y-67126400D02*
X73023600Y-67159100D01*
X72837900Y-67102800D02*
X72932200Y-67126400D01*
X72741900Y-67088500D02*
X72837900Y-67102800D01*
X72644600Y-67083700D02*
X72741900Y-67088500D01*
X65059200Y-67082600D02*
X72644600Y-67083700D01*
X64961900Y-67087300D02*
X65059200Y-67082600D01*
X64865800Y-67101600D02*
X64961900Y-67087300D01*
X64771600Y-67125200D02*
X64865800Y-67101600D01*
X64680100Y-67157900D02*
X64771600Y-67125200D01*
X64592300Y-67199400D02*
X64680100Y-67157900D01*
X64508900Y-67249400D02*
X64592300Y-67199400D01*
X64430900Y-67307200D02*
X64508900Y-67249400D01*
X64358900Y-67372500D02*
X64430900Y-67307200D01*
X64293600Y-67444500D02*
X64358900Y-67372500D01*
X64235700Y-67522500D02*
X64293600Y-67444500D01*
X64185800Y-67605800D02*
X64235700Y-67522500D01*
X64144200Y-67693700D02*
X64185800Y-67605800D01*
X64111500Y-67785200D02*
X64144200Y-67693700D01*
X64087900Y-67879400D02*
X64111500Y-67785200D01*
X64073600Y-67975500D02*
X64087900Y-67879400D01*
X64068800Y-68072800D02*
X64073600Y-67975500D01*
X64068800Y-69092700D02*
X64068800Y-68072800D01*
X64073600Y-69189900D02*
X64068800Y-69092700D01*
X64087900Y-69286000D02*
X64073600Y-69189900D01*
X64111500Y-69380300D02*
X64087900Y-69286000D01*
X64144200Y-69471800D02*
X64111500Y-69380300D01*
X64185700Y-69559600D02*
X64144200Y-69471800D01*
X64235700Y-69642900D02*
X64185700Y-69559600D01*
X64293600Y-69720900D02*
X64235700Y-69642900D01*
X64358800Y-69792900D02*
X64293600Y-69720900D01*
X64430800Y-69858200D02*
X64358800Y-69792900D01*
X64508800Y-69916000D02*
X64430800Y-69858200D01*
X64592200Y-69966000D02*
X64508800Y-69916000D01*
X64680000Y-70007500D02*
X64592200Y-69966000D01*
X64771500Y-70040300D02*
X64680000Y-70007500D01*
X64865700Y-70063900D02*
X64771500Y-70040300D01*
X64961800Y-70078100D02*
X64865700Y-70063900D01*
X65059100Y-70082900D02*
X64961800Y-70078100D01*
X87488100Y-60734200D02*
X87533600Y-60632300D01*
X87381200Y-60919400D02*
X87488100Y-60734200D01*
X87255200Y-61092200D02*
X87381200Y-60919400D01*
X87107900Y-61254900D02*
X87255200Y-61092200D01*
X81868200Y-66494500D02*
X87107900Y-61254900D01*
X81718300Y-66630300D02*
X81868200Y-66494500D01*
X81560100Y-66747600D02*
X81718300Y-66630300D01*
X81402700Y-66842300D02*
X81560100Y-66747600D01*
X81380900Y-66853900D02*
X81402700Y-66842300D01*
X81214600Y-66932300D02*
X81380900Y-66853900D01*
X81041200Y-66994600D02*
X81214600Y-66932300D01*
X81017600Y-67001800D02*
X81041200Y-66994600D01*
X80839200Y-67046200D02*
X81017600Y-67001800D01*
X80645000Y-67075000D02*
X80839200Y-67046200D01*
X80442500Y-67084900D02*
X80645000Y-67075000D01*
X77627100Y-67084500D02*
X80442500Y-67084900D01*
X77529800Y-67089200D02*
X77627100Y-67084500D01*
X77433700Y-67103500D02*
X77529800Y-67089200D01*
X77339400Y-67127100D02*
X77433700Y-67103500D01*
X77247900Y-67159800D02*
X77339400Y-67127100D01*
X77160100Y-67201300D02*
X77247900Y-67159800D01*
X77076800Y-67251300D02*
X77160100Y-67201300D01*
X76998700Y-67309100D02*
X77076800Y-67251300D01*
X76926700Y-67374400D02*
X76998700Y-67309100D01*
X76861500Y-67446400D02*
X76926700Y-67374400D01*
X76803600Y-67524400D02*
X76861500Y-67446400D01*
X76753600Y-67607800D02*
X76803600Y-67524400D01*
X76712100Y-67695600D02*
X76753600Y-67607800D01*
X76679300Y-67787100D02*
X76712100Y-67695600D01*
X76655700Y-67881300D02*
X76679300Y-67787100D01*
X76641500Y-67977400D02*
X76655700Y-67881300D01*
X76636700Y-68074700D02*
X76641500Y-67977400D01*
X76636700Y-69092700D02*
X76636700Y-68074700D01*
X76641500Y-69189900D02*
X76636700Y-69092700D01*
X76655700Y-69286000D02*
X76641500Y-69189900D01*
X76679300Y-69380300D02*
X76655700Y-69286000D01*
X76712100Y-69471800D02*
X76679300Y-69380300D01*
X76753600Y-69559600D02*
X76712100Y-69471800D01*
X76803500Y-69642900D02*
X76753600Y-69559600D01*
X76861400Y-69720900D02*
X76803500Y-69642900D01*
X76926700Y-69792900D02*
X76861400Y-69720900D01*
X76998600Y-69858200D02*
X76926700Y-69792900D01*
X77076700Y-69916000D02*
X76998600Y-69858200D01*
X77160000Y-69966000D02*
X77076700Y-69916000D01*
X77247800Y-70007500D02*
X77160000Y-69966000D01*
X77339300Y-70040300D02*
X77247800Y-70007500D01*
X77433500Y-70063900D02*
X77339300Y-70040300D01*
X77529600Y-70078100D02*
X77433500Y-70063900D01*
X77626900Y-70082900D02*
X77529600Y-70078100D01*
X87686000Y-70082900D02*
X77626900Y-70082900D01*
X87694000Y-70084400D02*
X87686000Y-70082900D01*
X87698500Y-70089400D02*
X87694000Y-70084400D01*
X87699600Y-70096500D02*
X87698500Y-70089400D01*
X87702600Y-76135100D02*
X87699600Y-70096500D01*
X87707400Y-76232400D02*
X87702600Y-76135100D01*
X87721700Y-76328400D02*
X87707400Y-76232400D01*
X87745400Y-76422600D02*
X87721700Y-76328400D01*
X87778100Y-76514100D02*
X87745400Y-76422600D01*
X87819700Y-76601800D02*
X87778100Y-76514100D01*
X87869600Y-76685100D02*
X87819700Y-76601800D01*
X87927500Y-76763100D02*
X87869600Y-76685100D01*
X87992700Y-76835100D02*
X87927500Y-76763100D01*
X88064700Y-76900300D02*
X87992700Y-76835100D01*
X88142700Y-76958100D02*
X88064700Y-76900300D01*
X88226100Y-77008000D02*
X88142700Y-76958100D01*
X88313900Y-77049500D02*
X88226100Y-77008000D01*
X88405300Y-77082300D02*
X88313900Y-77049500D01*
X88499500Y-77105800D02*
X88405300Y-77082300D01*
X88595600Y-77120100D02*
X88499500Y-77105800D01*
X88692800Y-77124900D02*
X88595600Y-77120100D01*
X89712800Y-77124900D02*
X88692800Y-77124900D01*
X89810100Y-77120100D02*
X89712800Y-77124900D01*
X89906200Y-77105800D02*
X89810100Y-77120100D01*
X90000400Y-77082200D02*
X89906200Y-77105800D01*
X90091900Y-77049500D02*
X90000400Y-77082200D01*
X90179700Y-77008000D02*
X90091900Y-77049500D01*
X90263000Y-76958000D02*
X90179700Y-77008000D01*
X90341100Y-76900200D02*
X90263000Y-76958000D01*
X90413100Y-76834900D02*
X90341100Y-76900200D01*
X90478300Y-76763000D02*
X90413100Y-76834900D01*
X90536200Y-76685000D02*
X90478300Y-76763000D01*
X90586100Y-76601600D02*
X90536200Y-76685000D01*
X90627700Y-76513800D02*
X90586100Y-76601600D01*
X90660400Y-76422400D02*
X90627700Y-76513800D01*
X90684000Y-76328100D02*
X90660400Y-76422400D01*
X90698300Y-76232000D02*
X90684000Y-76328100D01*
X90703100Y-76134800D02*
X90698300Y-76232000D01*
X90704000Y-70096500D02*
X90703100Y-76134800D01*
X90705100Y-70089400D02*
X90704000Y-70096500D01*
X90708800Y-70084900D02*
X90705100Y-70089400D01*
X90717600Y-70082900D02*
X90708800Y-70084900D01*
X100780100Y-70082900D02*
X90717600Y-70082900D01*
X100877400Y-70078100D02*
X100780100Y-70082900D01*
X100973500Y-70063900D02*
X100877400Y-70078100D01*
X101067700Y-70040300D02*
X100973500Y-70063900D01*
X101159200Y-70007500D02*
X101067700Y-70040300D01*
X101247000Y-69966000D02*
X101159200Y-70007500D01*
X101330400Y-69916000D02*
X101247000Y-69966000D01*
X101408400Y-69858200D02*
X101330400Y-69916000D01*
X101480400Y-69792900D02*
X101408400Y-69858200D01*
X101545600Y-69720900D02*
X101480400Y-69792900D01*
X101603500Y-69642900D02*
X101545600Y-69720900D01*
X101653500Y-69559600D02*
X101603500Y-69642900D01*
X101695000Y-69471800D02*
X101653500Y-69559600D01*
X101727700Y-69380300D02*
X101695000Y-69471800D01*
X101751300Y-69286000D02*
X101727700Y-69380300D01*
X101765600Y-69189900D02*
X101751300Y-69286000D01*
X101770400Y-69092700D02*
X101765600Y-69189900D01*
X101770400Y-68072100D02*
X101770400Y-69092700D01*
X101765600Y-67974800D02*
X101770400Y-68072100D01*
X101751300Y-67878700D02*
X101765600Y-67974800D01*
X101727700Y-67784500D02*
X101751300Y-67878700D01*
X101695000Y-67693000D02*
X101727700Y-67784500D01*
X101653500Y-67605200D02*
X101695000Y-67693000D01*
X101603500Y-67521900D02*
X101653500Y-67605200D01*
X101545700Y-67443800D02*
X101603500Y-67521900D01*
X101480400Y-67371800D02*
X101545700Y-67443800D01*
X101408500Y-67306600D02*
X101480400Y-67371800D01*
X101330400Y-67248700D02*
X101408500Y-67306600D01*
X101247100Y-67198800D02*
X101330400Y-67248700D01*
X101159300Y-67157200D02*
X101247100Y-67198800D01*
X101067900Y-67124500D02*
X101159300Y-67157200D01*
X100973600Y-67100900D02*
X101067900Y-67124500D01*
X100877500Y-67086600D02*
X100973600Y-67100900D01*
X100780300Y-67081800D02*
X100877500Y-67086600D01*
X97956900Y-67081400D02*
X100780300Y-67081800D01*
X97725700Y-67068300D02*
X97956900Y-67081400D01*
X97504700Y-67030700D02*
X97725700Y-67068300D01*
X97289200Y-66968600D02*
X97504700Y-67030700D01*
X97082000Y-66882800D02*
X97289200Y-66968600D01*
X96885800Y-66774300D02*
X97082000Y-66882800D01*
X96702900Y-66644500D02*
X96885800Y-66774300D01*
X96530600Y-66490600D02*
X96702900Y-66644500D01*
X91289100Y-61251500D02*
X96530600Y-66490600D01*
X91157000Y-61105500D02*
X91289100Y-61251500D01*
X91040000Y-60947700D02*
X91157000Y-61105500D01*
X90939300Y-60779700D02*
X91040000Y-60947700D01*
X90858600Y-60609800D02*
X90939300Y-60779700D01*
X90810400Y-60520200D02*
X90858600Y-60609800D01*
X90753400Y-60436100D02*
X90810400Y-60520200D01*
X90688100Y-60358300D02*
X90753400Y-60436100D01*
X90615100Y-60287600D02*
X90688100Y-60358300D01*
X90535400Y-60224800D02*
X90615100Y-60287600D01*
X90449500Y-60170500D02*
X90535400Y-60224800D01*
X90358600Y-60125200D02*
X90449500Y-60170500D01*
X90263600Y-60089500D02*
X90358600Y-60125200D01*
X90165300Y-60063800D02*
X90263600Y-60089500D01*
X90065000Y-60048200D02*
X90165300Y-60063800D01*
X89963300Y-60043000D02*
X90065000Y-60048200D01*
X88439200Y-60043000D02*
X89963300Y-60043000D01*
X88343900Y-60047500D02*
X88439200Y-60043000D01*
X88249700Y-60061200D02*
X88343900Y-60047500D01*
X88157300Y-60083900D02*
X88249700Y-60061200D01*
X88067400Y-60115300D02*
X88157300Y-60083900D01*
X87981000Y-60155200D02*
X88067400Y-60115300D01*
X87898900Y-60203200D02*
X87981000Y-60155200D01*
X87821700Y-60258900D02*
X87898900Y-60203200D01*
X87750200Y-60321800D02*
X87821700Y-60258900D01*
X87685100Y-60391200D02*
X87750200Y-60321800D01*
X87627000Y-60466500D02*
X87685100Y-60391200D01*
X87576400Y-60547100D02*
X87627000Y-60466500D01*
X87533600Y-60632300D02*
X87576400Y-60547100D01*
X113348000Y-70082900D02*
X105762600Y-70082900D01*
X113445200Y-70078100D02*
X113348000Y-70082900D01*
X113541300Y-70063900D02*
X113445200Y-70078100D01*
X113635600Y-70040300D02*
X113541300Y-70063900D01*
X113727100Y-70007500D02*
X113635600Y-70040300D01*
X113814900Y-69966000D02*
X113727100Y-70007500D01*
X113898200Y-69916000D02*
X113814900Y-69966000D01*
X113976200Y-69858200D02*
X113898200Y-69916000D01*
X114048200Y-69792900D02*
X113976200Y-69858200D01*
X114113500Y-69720900D02*
X114048200Y-69792900D01*
X114171300Y-69642900D02*
X114113500Y-69720900D01*
X114221300Y-69559600D02*
X114171300Y-69642900D01*
X114262800Y-69471800D02*
X114221300Y-69559600D01*
X114295600Y-69380300D02*
X114262800Y-69471800D01*
X114319200Y-69286000D02*
X114295600Y-69380300D01*
X114333400Y-69189900D02*
X114319200Y-69286000D01*
X114338200Y-69092700D02*
X114333400Y-69189900D01*
X114338200Y-68074000D02*
X114338200Y-69092700D01*
X114333400Y-67976700D02*
X114338200Y-68074000D01*
X114319200Y-67880600D02*
X114333400Y-67976700D01*
X114295600Y-67786400D02*
X114319200Y-67880600D01*
X114262800Y-67694900D02*
X114295600Y-67786400D01*
X114221300Y-67607100D02*
X114262800Y-67694900D01*
X114171400Y-67523800D02*
X114221300Y-67607100D01*
X114113500Y-67445700D02*
X114171400Y-67523800D01*
X114048300Y-67373700D02*
X114113500Y-67445700D01*
X113976300Y-67308500D02*
X114048300Y-67373700D01*
X113898300Y-67250600D02*
X113976300Y-67308500D01*
X113815000Y-67200700D02*
X113898300Y-67250600D01*
X113727200Y-67159100D02*
X113815000Y-67200700D01*
X113635700Y-67126400D02*
X113727200Y-67159100D01*
X113541500Y-67102800D02*
X113635700Y-67126400D01*
X113445400Y-67088500D02*
X113541500Y-67102800D01*
X113348100Y-67083700D02*
X113445400Y-67088500D01*
X105762800Y-67082600D02*
X113348100Y-67083700D01*
X105665500Y-67087300D02*
X105762800Y-67082600D01*
X105569400Y-67101600D02*
X105665500Y-67087300D01*
X105475100Y-67125200D02*
X105569400Y-67101600D01*
X105383600Y-67157900D02*
X105475100Y-67125200D01*
X105295800Y-67199400D02*
X105383600Y-67157900D01*
X105212400Y-67249400D02*
X105295800Y-67199400D01*
X105134400Y-67307200D02*
X105212400Y-67249400D01*
X105062400Y-67372500D02*
X105134400Y-67307200D01*
X104997100Y-67444500D02*
X105062400Y-67372500D01*
X104939200Y-67522500D02*
X104997100Y-67444500D01*
X104889300Y-67605800D02*
X104939200Y-67522500D01*
X104847700Y-67693700D02*
X104889300Y-67605800D01*
X104815000Y-67785200D02*
X104847700Y-67693700D01*
X104791400Y-67879400D02*
X104815000Y-67785200D01*
X104777100Y-67975500D02*
X104791400Y-67879400D01*
X104772400Y-68072800D02*
X104777100Y-67975500D01*
X104772400Y-69092700D02*
X104772400Y-68072800D01*
X104777100Y-69189900D02*
X104772400Y-69092700D01*
X104791400Y-69286000D02*
X104777100Y-69189900D01*
X104815000Y-69380300D02*
X104791400Y-69286000D01*
X104847700Y-69471800D02*
X104815000Y-69380300D01*
X104889300Y-69559600D02*
X104847700Y-69471800D01*
X104939200Y-69642900D02*
X104889300Y-69559600D01*
X104997100Y-69720900D02*
X104939200Y-69642900D01*
X105062300Y-69792900D02*
X104997100Y-69720900D01*
X105134300Y-69858200D02*
X105062300Y-69792900D01*
X105212400Y-69916000D02*
X105134300Y-69858200D01*
X105295700Y-69966000D02*
X105212400Y-69916000D01*
X105383500Y-70007500D02*
X105295700Y-69966000D01*
X105475000Y-70040300D02*
X105383500Y-70007500D01*
X105569200Y-70063900D02*
X105475000Y-70040300D01*
X105665300Y-70078100D02*
X105569200Y-70063900D01*
X105762600Y-70082900D02*
X105665300Y-70078100D01*
X50001300Y-50006400D02*
X50000500Y-50011600D01*
X50003800Y-50002300D02*
X50001300Y-50006400D01*
X50007900Y-49999800D02*
X50003800Y-50002300D01*
X50014100Y-49999000D02*
X50007900Y-49999800D01*
X87691200Y-49999500D02*
X50014100Y-49999000D01*
X87697600Y-50003800D02*
X87691200Y-49999500D01*
X87699600Y-50012600D02*
X87697600Y-50003800D01*
X87702600Y-56051200D02*
X87699600Y-50012600D01*
X87707400Y-56148400D02*
X87702600Y-56051200D01*
X87721700Y-56244500D02*
X87707400Y-56148400D01*
X87745400Y-56338700D02*
X87721700Y-56244500D01*
X87778100Y-56430100D02*
X87745400Y-56338700D01*
X87819700Y-56517900D02*
X87778100Y-56430100D01*
X87869600Y-56601200D02*
X87819700Y-56517900D01*
X87927500Y-56679200D02*
X87869600Y-56601200D01*
X87992700Y-56751200D02*
X87927500Y-56679200D01*
X88064700Y-56816400D02*
X87992700Y-56751200D01*
X88142700Y-56874200D02*
X88064700Y-56816400D01*
X88226100Y-56924100D02*
X88142700Y-56874200D01*
X88313900Y-56965600D02*
X88226100Y-56924100D01*
X88405300Y-56998300D02*
X88313900Y-56965600D01*
X88499500Y-57021900D02*
X88405300Y-56998300D01*
X88595600Y-57036200D02*
X88499500Y-57021900D01*
X88692800Y-57041000D02*
X88595600Y-57036200D01*
X89712800Y-57041000D02*
X88692800Y-57041000D01*
X89810100Y-57036200D02*
X89712800Y-57041000D01*
X89906200Y-57021900D02*
X89810100Y-57036200D01*
X90000400Y-56998300D02*
X89906200Y-57021900D01*
X90091900Y-56965600D02*
X90000400Y-56998300D01*
X90179700Y-56924100D02*
X90091900Y-56965600D01*
X90263000Y-56874100D02*
X90179700Y-56924100D01*
X90341100Y-56816300D02*
X90263000Y-56874100D01*
X90413100Y-56751000D02*
X90341100Y-56816300D01*
X90478300Y-56679100D02*
X90413100Y-56751000D01*
X90536200Y-56601000D02*
X90478300Y-56679100D01*
X90586100Y-56517700D02*
X90536200Y-56601000D01*
X90627700Y-56429900D02*
X90586100Y-56517700D01*
X90660400Y-56338500D02*
X90627700Y-56429900D01*
X90684000Y-56244200D02*
X90660400Y-56338500D01*
X90698300Y-56148100D02*
X90684000Y-56244200D01*
X90703100Y-56050900D02*
X90698300Y-56148100D01*
X90704000Y-50012600D02*
X90703100Y-56050900D01*
X90706000Y-50003800D02*
X90704000Y-50012600D01*
X90712400Y-49999500D02*
X90706000Y-50003800D01*
X128389500Y-49999000D02*
X90712400Y-49999500D01*
X128396600Y-50000100D02*
X128389500Y-49999000D01*
X128401600Y-50004600D02*
X128396600Y-50000100D01*
X128403100Y-50012600D02*
X128401600Y-50004600D01*
X128407700Y-59912500D02*
X128403100Y-50012600D01*
X128386800Y-60125800D02*
X128407700Y-59912500D01*
X128346700Y-60321800D02*
X128386800Y-60125800D01*
X128339900Y-60347700D02*
X128346700Y-60321800D01*
X128278400Y-60538200D02*
X128339900Y-60347700D01*
X128197500Y-60721900D02*
X128278400Y-60538200D01*
X128185400Y-60745700D02*
X128197500Y-60721900D01*
X128091700Y-60908000D02*
X128185400Y-60745700D01*
X128077300Y-60930100D02*
X128091700Y-60908000D01*
X127959100Y-61091700D02*
X128077300Y-60930100D01*
X127811300Y-61254900D02*
X127959100Y-61091700D01*
X122571700Y-66494500D02*
X127811300Y-61254900D01*
X122421800Y-66630300D02*
X122571700Y-66494500D01*
X122263700Y-66747600D02*
X122421800Y-66630300D01*
X122106200Y-66842300D02*
X122263700Y-66747600D01*
X122084400Y-66853900D02*
X122106200Y-66842300D01*
X121918100Y-66932300D02*
X122084400Y-66853900D01*
X121744700Y-66994600D02*
X121918100Y-66932300D01*
X121721100Y-67001800D02*
X121744700Y-66994600D01*
X121542700Y-67046200D02*
X121721100Y-67001800D01*
X121348000Y-67075000D02*
X121542700Y-67046200D01*
X121146000Y-67084900D02*
X121348000Y-67075000D01*
X118330600Y-67084500D02*
X121146000Y-67084900D01*
X118233300Y-67089200D02*
X118330600Y-67084500D01*
X118137200Y-67103500D02*
X118233300Y-67089200D01*
X118042900Y-67127100D02*
X118137200Y-67103500D01*
X117951500Y-67159800D02*
X118042900Y-67127100D01*
X117863600Y-67201300D02*
X117951500Y-67159800D01*
X117780300Y-67251300D02*
X117863600Y-67201300D01*
X117702200Y-67309100D02*
X117780300Y-67251300D01*
X117630200Y-67374400D02*
X117702200Y-67309100D01*
X117565000Y-67446400D02*
X117630200Y-67374400D01*
X117507100Y-67524400D02*
X117565000Y-67446400D01*
X117457100Y-67607800D02*
X117507100Y-67524400D01*
X117415600Y-67695600D02*
X117457100Y-67607800D01*
X117382800Y-67787100D02*
X117415600Y-67695600D01*
X117359200Y-67881300D02*
X117382800Y-67787100D01*
X117345000Y-67977400D02*
X117359200Y-67881300D01*
X117340200Y-68074700D02*
X117345000Y-67977400D01*
X117340200Y-69092700D02*
X117340200Y-68074700D01*
X117345000Y-69189900D02*
X117340200Y-69092700D01*
X117359200Y-69286000D02*
X117345000Y-69189900D01*
X117382800Y-69380300D02*
X117359200Y-69286000D01*
X117415600Y-69471800D02*
X117382800Y-69380300D01*
X117457100Y-69559600D02*
X117415600Y-69471800D01*
X117507100Y-69642900D02*
X117457100Y-69559600D01*
X117564900Y-69720900D02*
X117507100Y-69642900D01*
X117630200Y-69792900D02*
X117564900Y-69720900D01*
X117702200Y-69858200D02*
X117630200Y-69792900D01*
X117780200Y-69916000D02*
X117702200Y-69858200D01*
X117863500Y-69966000D02*
X117780200Y-69916000D01*
X117951300Y-70007500D02*
X117863500Y-69966000D01*
X118042800Y-70040300D02*
X117951300Y-70007500D01*
X118137100Y-70063900D02*
X118042800Y-70040300D01*
X118233200Y-70078100D02*
X118137100Y-70063900D01*
X118330400Y-70082900D02*
X118233200Y-70078100D01*
X128389500Y-70082900D02*
X118330400Y-70082900D01*
X128396600Y-70084000D02*
X128389500Y-70082900D01*
X128400500Y-70086900D02*
X128396600Y-70084000D01*
X128403100Y-70096500D02*
X128400500Y-70086900D01*
X128408000Y-79984300D02*
X128403100Y-70096500D01*
X128406800Y-80008900D02*
X128408000Y-79984300D01*
X128388500Y-80196100D02*
X128406800Y-80008900D01*
X128384500Y-80222500D02*
X128388500Y-80196100D01*
X128343500Y-80419100D02*
X128384500Y-80222500D01*
X128278200Y-80622600D02*
X128343500Y-80419100D01*
X128191800Y-80817700D02*
X128278200Y-80622600D01*
X128085000Y-81002900D02*
X128191800Y-80817700D01*
X127959100Y-81175700D02*
X128085000Y-81002900D01*
X127815500Y-81334500D02*
X127959100Y-81175700D01*
X122567200Y-86582800D02*
X127815500Y-81334500D01*
X122421400Y-86714600D02*
X122567200Y-86582800D01*
X122264100Y-86831200D02*
X122421400Y-86714600D01*
X122095600Y-86932200D02*
X122264100Y-86831200D01*
X121929200Y-87011300D02*
X122095600Y-86932200D01*
X121906400Y-87020700D02*
X121929200Y-87011300D01*
X121744700Y-87078500D02*
X121906400Y-87020700D01*
X121721100Y-87085700D02*
X121744700Y-87078500D01*
X121542300Y-87130200D02*
X121721100Y-87085700D01*
X121348000Y-87158900D02*
X121542300Y-87130200D01*
X121146000Y-87168800D02*
X121348000Y-87158900D01*
X97956900Y-87165300D02*
X121146000Y-87168800D01*
X97726300Y-87152300D02*
X97956900Y-87165300D01*
X97505200Y-87114800D02*
X97726300Y-87152300D01*
X97289200Y-87052500D02*
X97505200Y-87114800D01*
X97095200Y-86972600D02*
X97289200Y-87052500D01*
X97069800Y-86960400D02*
X97095200Y-86972600D01*
X96886200Y-86858500D02*
X97069800Y-86960400D01*
X96714400Y-86737100D02*
X96886200Y-86858500D01*
X96692400Y-86719600D02*
X96714400Y-86737100D01*
X96535800Y-86579500D02*
X96692400Y-86719600D01*
X91289100Y-81335400D02*
X96535800Y-86579500D01*
X91157000Y-81189400D02*
X91289100Y-81335400D01*
X91040300Y-81032100D02*
X91157000Y-81189400D01*
X90939300Y-80863600D02*
X91040300Y-81032100D01*
X90858600Y-80693800D02*
X90939300Y-80863600D01*
X90810400Y-80604100D02*
X90858600Y-80693800D01*
X90753400Y-80520000D02*
X90810400Y-80604100D01*
X90688100Y-80442200D02*
X90753400Y-80520000D01*
X90615100Y-80371600D02*
X90688100Y-80442200D01*
X90535400Y-80308700D02*
X90615100Y-80371600D01*
X90449500Y-80254400D02*
X90535400Y-80308700D01*
X90358600Y-80209100D02*
X90449500Y-80254400D01*
X90263600Y-80173400D02*
X90358600Y-80209100D01*
X90165300Y-80147700D02*
X90263600Y-80173400D01*
X90065000Y-80132100D02*
X90165300Y-80147700D01*
X89963300Y-80126900D02*
X90065000Y-80132100D01*
X88439200Y-80126900D02*
X89963300Y-80126900D01*
X88343900Y-80131500D02*
X88439200Y-80126900D01*
X88249700Y-80145100D02*
X88343900Y-80131500D01*
X88157300Y-80167800D02*
X88249700Y-80145100D01*
X88067400Y-80199200D02*
X88157300Y-80167800D01*
X87981000Y-80239100D02*
X88067400Y-80199200D01*
X87898900Y-80287100D02*
X87981000Y-80239100D01*
X87821700Y-80342800D02*
X87898900Y-80287100D01*
X87750200Y-80405700D02*
X87821700Y-80342800D01*
X87685100Y-80475100D02*
X87750200Y-80405700D01*
X87627000Y-80550400D02*
X87685100Y-80475100D01*
X87576400Y-80631000D02*
X87627000Y-80550400D01*
X87533600Y-80716300D02*
X87576400Y-80631000D01*
X87488100Y-80818100D02*
X87533600Y-80716300D01*
X87381200Y-81003300D02*
X87488100Y-80818100D01*
X87255600Y-81175700D02*
X87381200Y-81003300D01*
X87112000Y-81334500D02*
X87255600Y-81175700D01*
X81863800Y-86582600D02*
X87112000Y-81334500D01*
X81718300Y-86714300D02*
X81863800Y-86582600D01*
X81570500Y-86824300D02*
X81718300Y-86714300D01*
X81550000Y-86838000D02*
X81570500Y-86824300D01*
X81391700Y-86932400D02*
X81550000Y-86838000D01*
X81214600Y-87016200D02*
X81391700Y-86932400D01*
X81041200Y-87078500D02*
X81214600Y-87016200D01*
X81017600Y-87085700D02*
X81041200Y-87078500D01*
X80839200Y-87130100D02*
X81017600Y-87085700D01*
X80644500Y-87158900D02*
X80839200Y-87130100D01*
X80442500Y-87168800D02*
X80644500Y-87158900D01*
X57253400Y-87165300D02*
X80442500Y-87168800D01*
X57022800Y-87152300D02*
X57253400Y-87165300D01*
X56815300Y-87117500D02*
X57022800Y-87152300D01*
X56787800Y-87111200D02*
X56815300Y-87117500D01*
X56599400Y-87056900D02*
X56787800Y-87111200D01*
X56573100Y-87047700D02*
X56599400Y-87056900D01*
X56378500Y-86966700D02*
X56573100Y-87047700D01*
X56182200Y-86858200D02*
X56378500Y-86966700D01*
X55999400Y-86728400D02*
X56182200Y-86858200D01*
X55827100Y-86574600D02*
X55999400Y-86728400D01*
X50585500Y-81335400D02*
X55827100Y-86574600D01*
X50453500Y-81189400D02*
X50585500Y-81335400D01*
X50336500Y-81031700D02*
X50453500Y-81189400D01*
X50235500Y-80863200D02*
X50336500Y-81031700D01*
X50151500Y-80685600D02*
X50235500Y-80863200D01*
X50085500Y-80501100D02*
X50151500Y-80685600D01*
X50037800Y-80310500D02*
X50085500Y-80501100D01*
X50008900Y-80116200D02*
X50037800Y-80310500D01*
X49999100Y-79919700D02*
X50008900Y-80116200D01*
X50001000Y-70091300D02*
X49999100Y-79919700D01*
X50005300Y-70084900D02*
X50001000Y-70091300D01*
X50014100Y-70082900D02*
X50005300Y-70084900D01*
X60076600Y-70082900D02*
X50014100Y-70082900D01*
X60173900Y-70078100D02*
X60076600Y-70082900D01*
X60270000Y-70063900D02*
X60173900Y-70078100D01*
X60364200Y-70040300D02*
X60270000Y-70063900D01*
X60455700Y-70007500D02*
X60364200Y-70040300D01*
X60543500Y-69966000D02*
X60455700Y-70007500D01*
X60626800Y-69916000D02*
X60543500Y-69966000D01*
X60704900Y-69858200D02*
X60626800Y-69916000D01*
X60776900Y-69792900D02*
X60704900Y-69858200D01*
X60842100Y-69720900D02*
X60776900Y-69792900D01*
X60900000Y-69642900D02*
X60842100Y-69720900D01*
X60949900Y-69559600D02*
X60900000Y-69642900D01*
X60991500Y-69471800D02*
X60949900Y-69559600D01*
X61024200Y-69380300D02*
X60991500Y-69471800D01*
X61047800Y-69286000D02*
X61024200Y-69380300D01*
X61062100Y-69189900D02*
X61047800Y-69286000D01*
X61066800Y-69092700D02*
X61062100Y-69189900D01*
X61066800Y-68072100D02*
X61066800Y-69092700D01*
X61062100Y-67974800D02*
X61066800Y-68072100D01*
X61047800Y-67878700D02*
X61062100Y-67974800D01*
X61024200Y-67784500D02*
X61047800Y-67878700D01*
X60991500Y-67693000D02*
X61024200Y-67784500D01*
X60950000Y-67605200D02*
X60991500Y-67693000D01*
X60900000Y-67521900D02*
X60950000Y-67605200D01*
X60842200Y-67443800D02*
X60900000Y-67521900D01*
X60776900Y-67371800D02*
X60842200Y-67443800D01*
X60704900Y-67306600D02*
X60776900Y-67371800D01*
X60626900Y-67248700D02*
X60704900Y-67306600D01*
X60543600Y-67198800D02*
X60626900Y-67248700D01*
X60455800Y-67157200D02*
X60543600Y-67198800D01*
X60364300Y-67124500D02*
X60455800Y-67157200D01*
X60270100Y-67100900D02*
X60364300Y-67124500D01*
X60174000Y-67086600D02*
X60270100Y-67100900D01*
X60076700Y-67081800D02*
X60174000Y-67086600D01*
X57253400Y-67081400D02*
X60076700Y-67081800D01*
X57036300Y-67069600D02*
X57253400Y-67081400D01*
X57008600Y-67066400D02*
X57036300Y-67069600D01*
X56801700Y-67030900D02*
X57008600Y-67066400D01*
X56586200Y-66968800D02*
X56801700Y-67030900D01*
X56379000Y-66883000D02*
X56586200Y-66968800D01*
X56182200Y-66774300D02*
X56379000Y-66883000D01*
X55999400Y-66644500D02*
X56182200Y-66774300D01*
X55827100Y-66490700D02*
X55999400Y-66644500D01*
X50589800Y-61255800D02*
X55827100Y-66490700D01*
X50453500Y-61105500D02*
X50589800Y-61255800D01*
X50343800Y-60958100D02*
X50453500Y-61105500D01*
X50330200Y-60937800D02*
X50343800Y-60958100D01*
X50235700Y-60779700D02*
X50330200Y-60937800D01*
X50156600Y-60613200D02*
X50235700Y-60779700D01*
X50147200Y-60590400D02*
X50156600Y-60613200D01*
X50085400Y-60416700D02*
X50147200Y-60590400D01*
X50040400Y-60238500D02*
X50085400Y-60416700D01*
X50035600Y-60214300D02*
X50040400Y-60238500D01*
X50008900Y-60031800D02*
X50035600Y-60214300D01*
X49999100Y-59836000D02*
X50008900Y-60031800D01*
X50000500Y-50011600D02*
X49999100Y-59836000D01*
D11*
G04 #@! TO.C,U1*
G36*
X120687924Y-80183393D02*
G01*
X120697631Y-80184832D01*
X120707150Y-80187217D01*
X120716390Y-80190523D01*
X120725262Y-80194719D01*
X120733679Y-80199764D01*
X120741561Y-80205610D01*
X120748833Y-80212200D01*
X120755423Y-80219472D01*
X120761269Y-80227354D01*
X120766314Y-80235771D01*
X120770510Y-80244643D01*
X120773816Y-80253883D01*
X120776201Y-80263402D01*
X120777640Y-80273109D01*
X120778122Y-80282911D01*
X120778122Y-80482911D01*
X120777640Y-80492713D01*
X120776201Y-80502420D01*
X120773816Y-80511939D01*
X120770510Y-80521179D01*
X120766314Y-80530051D01*
X120761269Y-80538468D01*
X120755423Y-80546350D01*
X120748833Y-80553622D01*
X120741561Y-80560212D01*
X120733679Y-80566058D01*
X120725262Y-80571103D01*
X120716390Y-80575299D01*
X120707150Y-80578605D01*
X120697631Y-80580990D01*
X120687924Y-80582429D01*
X120678122Y-80582911D01*
X119403122Y-80582911D01*
X119393320Y-80582429D01*
X119383613Y-80580990D01*
X119374094Y-80578605D01*
X119364854Y-80575299D01*
X119355982Y-80571103D01*
X119347565Y-80566058D01*
X119339683Y-80560212D01*
X119332411Y-80553622D01*
X119325821Y-80546350D01*
X119319975Y-80538468D01*
X119314930Y-80530051D01*
X119310734Y-80521179D01*
X119307428Y-80511939D01*
X119305043Y-80502420D01*
X119303604Y-80492713D01*
X119303122Y-80482911D01*
X119303122Y-80282911D01*
X119303604Y-80273109D01*
X119305043Y-80263402D01*
X119307428Y-80253883D01*
X119310734Y-80244643D01*
X119314930Y-80235771D01*
X119319975Y-80227354D01*
X119325821Y-80219472D01*
X119332411Y-80212200D01*
X119339683Y-80205610D01*
X119347565Y-80199764D01*
X119355982Y-80194719D01*
X119364854Y-80190523D01*
X119374094Y-80187217D01*
X119383613Y-80184832D01*
X119393320Y-80183393D01*
X119403122Y-80182911D01*
X120678122Y-80182911D01*
X120687924Y-80183393D01*
G37*
G36*
X120687924Y-79533393D02*
G01*
X120697631Y-79534832D01*
X120707150Y-79537217D01*
X120716390Y-79540523D01*
X120725262Y-79544719D01*
X120733679Y-79549764D01*
X120741561Y-79555610D01*
X120748833Y-79562200D01*
X120755423Y-79569472D01*
X120761269Y-79577354D01*
X120766314Y-79585771D01*
X120770510Y-79594643D01*
X120773816Y-79603883D01*
X120776201Y-79613402D01*
X120777640Y-79623109D01*
X120778122Y-79632911D01*
X120778122Y-79832911D01*
X120777640Y-79842713D01*
X120776201Y-79852420D01*
X120773816Y-79861939D01*
X120770510Y-79871179D01*
X120766314Y-79880051D01*
X120761269Y-79888468D01*
X120755423Y-79896350D01*
X120748833Y-79903622D01*
X120741561Y-79910212D01*
X120733679Y-79916058D01*
X120725262Y-79921103D01*
X120716390Y-79925299D01*
X120707150Y-79928605D01*
X120697631Y-79930990D01*
X120687924Y-79932429D01*
X120678122Y-79932911D01*
X119403122Y-79932911D01*
X119393320Y-79932429D01*
X119383613Y-79930990D01*
X119374094Y-79928605D01*
X119364854Y-79925299D01*
X119355982Y-79921103D01*
X119347565Y-79916058D01*
X119339683Y-79910212D01*
X119332411Y-79903622D01*
X119325821Y-79896350D01*
X119319975Y-79888468D01*
X119314930Y-79880051D01*
X119310734Y-79871179D01*
X119307428Y-79861939D01*
X119305043Y-79852420D01*
X119303604Y-79842713D01*
X119303122Y-79832911D01*
X119303122Y-79632911D01*
X119303604Y-79623109D01*
X119305043Y-79613402D01*
X119307428Y-79603883D01*
X119310734Y-79594643D01*
X119314930Y-79585771D01*
X119319975Y-79577354D01*
X119325821Y-79569472D01*
X119332411Y-79562200D01*
X119339683Y-79555610D01*
X119347565Y-79549764D01*
X119355982Y-79544719D01*
X119364854Y-79540523D01*
X119374094Y-79537217D01*
X119383613Y-79534832D01*
X119393320Y-79533393D01*
X119403122Y-79532911D01*
X120678122Y-79532911D01*
X120687924Y-79533393D01*
G37*
G36*
X120687924Y-78883393D02*
G01*
X120697631Y-78884832D01*
X120707150Y-78887217D01*
X120716390Y-78890523D01*
X120725262Y-78894719D01*
X120733679Y-78899764D01*
X120741561Y-78905610D01*
X120748833Y-78912200D01*
X120755423Y-78919472D01*
X120761269Y-78927354D01*
X120766314Y-78935771D01*
X120770510Y-78944643D01*
X120773816Y-78953883D01*
X120776201Y-78963402D01*
X120777640Y-78973109D01*
X120778122Y-78982911D01*
X120778122Y-79182911D01*
X120777640Y-79192713D01*
X120776201Y-79202420D01*
X120773816Y-79211939D01*
X120770510Y-79221179D01*
X120766314Y-79230051D01*
X120761269Y-79238468D01*
X120755423Y-79246350D01*
X120748833Y-79253622D01*
X120741561Y-79260212D01*
X120733679Y-79266058D01*
X120725262Y-79271103D01*
X120716390Y-79275299D01*
X120707150Y-79278605D01*
X120697631Y-79280990D01*
X120687924Y-79282429D01*
X120678122Y-79282911D01*
X119403122Y-79282911D01*
X119393320Y-79282429D01*
X119383613Y-79280990D01*
X119374094Y-79278605D01*
X119364854Y-79275299D01*
X119355982Y-79271103D01*
X119347565Y-79266058D01*
X119339683Y-79260212D01*
X119332411Y-79253622D01*
X119325821Y-79246350D01*
X119319975Y-79238468D01*
X119314930Y-79230051D01*
X119310734Y-79221179D01*
X119307428Y-79211939D01*
X119305043Y-79202420D01*
X119303604Y-79192713D01*
X119303122Y-79182911D01*
X119303122Y-78982911D01*
X119303604Y-78973109D01*
X119305043Y-78963402D01*
X119307428Y-78953883D01*
X119310734Y-78944643D01*
X119314930Y-78935771D01*
X119319975Y-78927354D01*
X119325821Y-78919472D01*
X119332411Y-78912200D01*
X119339683Y-78905610D01*
X119347565Y-78899764D01*
X119355982Y-78894719D01*
X119364854Y-78890523D01*
X119374094Y-78887217D01*
X119383613Y-78884832D01*
X119393320Y-78883393D01*
X119403122Y-78882911D01*
X120678122Y-78882911D01*
X120687924Y-78883393D01*
G37*
G36*
X120687924Y-78233393D02*
G01*
X120697631Y-78234832D01*
X120707150Y-78237217D01*
X120716390Y-78240523D01*
X120725262Y-78244719D01*
X120733679Y-78249764D01*
X120741561Y-78255610D01*
X120748833Y-78262200D01*
X120755423Y-78269472D01*
X120761269Y-78277354D01*
X120766314Y-78285771D01*
X120770510Y-78294643D01*
X120773816Y-78303883D01*
X120776201Y-78313402D01*
X120777640Y-78323109D01*
X120778122Y-78332911D01*
X120778122Y-78532911D01*
X120777640Y-78542713D01*
X120776201Y-78552420D01*
X120773816Y-78561939D01*
X120770510Y-78571179D01*
X120766314Y-78580051D01*
X120761269Y-78588468D01*
X120755423Y-78596350D01*
X120748833Y-78603622D01*
X120741561Y-78610212D01*
X120733679Y-78616058D01*
X120725262Y-78621103D01*
X120716390Y-78625299D01*
X120707150Y-78628605D01*
X120697631Y-78630990D01*
X120687924Y-78632429D01*
X120678122Y-78632911D01*
X119403122Y-78632911D01*
X119393320Y-78632429D01*
X119383613Y-78630990D01*
X119374094Y-78628605D01*
X119364854Y-78625299D01*
X119355982Y-78621103D01*
X119347565Y-78616058D01*
X119339683Y-78610212D01*
X119332411Y-78603622D01*
X119325821Y-78596350D01*
X119319975Y-78588468D01*
X119314930Y-78580051D01*
X119310734Y-78571179D01*
X119307428Y-78561939D01*
X119305043Y-78552420D01*
X119303604Y-78542713D01*
X119303122Y-78532911D01*
X119303122Y-78332911D01*
X119303604Y-78323109D01*
X119305043Y-78313402D01*
X119307428Y-78303883D01*
X119310734Y-78294643D01*
X119314930Y-78285771D01*
X119319975Y-78277354D01*
X119325821Y-78269472D01*
X119332411Y-78262200D01*
X119339683Y-78255610D01*
X119347565Y-78249764D01*
X119355982Y-78244719D01*
X119364854Y-78240523D01*
X119374094Y-78237217D01*
X119383613Y-78234832D01*
X119393320Y-78233393D01*
X119403122Y-78232911D01*
X120678122Y-78232911D01*
X120687924Y-78233393D01*
G37*
G36*
X114962924Y-78233393D02*
G01*
X114972631Y-78234832D01*
X114982150Y-78237217D01*
X114991390Y-78240523D01*
X115000262Y-78244719D01*
X115008679Y-78249764D01*
X115016561Y-78255610D01*
X115023833Y-78262200D01*
X115030423Y-78269472D01*
X115036269Y-78277354D01*
X115041314Y-78285771D01*
X115045510Y-78294643D01*
X115048816Y-78303883D01*
X115051201Y-78313402D01*
X115052640Y-78323109D01*
X115053122Y-78332911D01*
X115053122Y-78532911D01*
X115052640Y-78542713D01*
X115051201Y-78552420D01*
X115048816Y-78561939D01*
X115045510Y-78571179D01*
X115041314Y-78580051D01*
X115036269Y-78588468D01*
X115030423Y-78596350D01*
X115023833Y-78603622D01*
X115016561Y-78610212D01*
X115008679Y-78616058D01*
X115000262Y-78621103D01*
X114991390Y-78625299D01*
X114982150Y-78628605D01*
X114972631Y-78630990D01*
X114962924Y-78632429D01*
X114953122Y-78632911D01*
X113678122Y-78632911D01*
X113668320Y-78632429D01*
X113658613Y-78630990D01*
X113649094Y-78628605D01*
X113639854Y-78625299D01*
X113630982Y-78621103D01*
X113622565Y-78616058D01*
X113614683Y-78610212D01*
X113607411Y-78603622D01*
X113600821Y-78596350D01*
X113594975Y-78588468D01*
X113589930Y-78580051D01*
X113585734Y-78571179D01*
X113582428Y-78561939D01*
X113580043Y-78552420D01*
X113578604Y-78542713D01*
X113578122Y-78532911D01*
X113578122Y-78332911D01*
X113578604Y-78323109D01*
X113580043Y-78313402D01*
X113582428Y-78303883D01*
X113585734Y-78294643D01*
X113589930Y-78285771D01*
X113594975Y-78277354D01*
X113600821Y-78269472D01*
X113607411Y-78262200D01*
X113614683Y-78255610D01*
X113622565Y-78249764D01*
X113630982Y-78244719D01*
X113639854Y-78240523D01*
X113649094Y-78237217D01*
X113658613Y-78234832D01*
X113668320Y-78233393D01*
X113678122Y-78232911D01*
X114953122Y-78232911D01*
X114962924Y-78233393D01*
G37*
G36*
X114962924Y-78883393D02*
G01*
X114972631Y-78884832D01*
X114982150Y-78887217D01*
X114991390Y-78890523D01*
X115000262Y-78894719D01*
X115008679Y-78899764D01*
X115016561Y-78905610D01*
X115023833Y-78912200D01*
X115030423Y-78919472D01*
X115036269Y-78927354D01*
X115041314Y-78935771D01*
X115045510Y-78944643D01*
X115048816Y-78953883D01*
X115051201Y-78963402D01*
X115052640Y-78973109D01*
X115053122Y-78982911D01*
X115053122Y-79182911D01*
X115052640Y-79192713D01*
X115051201Y-79202420D01*
X115048816Y-79211939D01*
X115045510Y-79221179D01*
X115041314Y-79230051D01*
X115036269Y-79238468D01*
X115030423Y-79246350D01*
X115023833Y-79253622D01*
X115016561Y-79260212D01*
X115008679Y-79266058D01*
X115000262Y-79271103D01*
X114991390Y-79275299D01*
X114982150Y-79278605D01*
X114972631Y-79280990D01*
X114962924Y-79282429D01*
X114953122Y-79282911D01*
X113678122Y-79282911D01*
X113668320Y-79282429D01*
X113658613Y-79280990D01*
X113649094Y-79278605D01*
X113639854Y-79275299D01*
X113630982Y-79271103D01*
X113622565Y-79266058D01*
X113614683Y-79260212D01*
X113607411Y-79253622D01*
X113600821Y-79246350D01*
X113594975Y-79238468D01*
X113589930Y-79230051D01*
X113585734Y-79221179D01*
X113582428Y-79211939D01*
X113580043Y-79202420D01*
X113578604Y-79192713D01*
X113578122Y-79182911D01*
X113578122Y-78982911D01*
X113578604Y-78973109D01*
X113580043Y-78963402D01*
X113582428Y-78953883D01*
X113585734Y-78944643D01*
X113589930Y-78935771D01*
X113594975Y-78927354D01*
X113600821Y-78919472D01*
X113607411Y-78912200D01*
X113614683Y-78905610D01*
X113622565Y-78899764D01*
X113630982Y-78894719D01*
X113639854Y-78890523D01*
X113649094Y-78887217D01*
X113658613Y-78884832D01*
X113668320Y-78883393D01*
X113678122Y-78882911D01*
X114953122Y-78882911D01*
X114962924Y-78883393D01*
G37*
G36*
X114962924Y-79533393D02*
G01*
X114972631Y-79534832D01*
X114982150Y-79537217D01*
X114991390Y-79540523D01*
X115000262Y-79544719D01*
X115008679Y-79549764D01*
X115016561Y-79555610D01*
X115023833Y-79562200D01*
X115030423Y-79569472D01*
X115036269Y-79577354D01*
X115041314Y-79585771D01*
X115045510Y-79594643D01*
X115048816Y-79603883D01*
X115051201Y-79613402D01*
X115052640Y-79623109D01*
X115053122Y-79632911D01*
X115053122Y-79832911D01*
X115052640Y-79842713D01*
X115051201Y-79852420D01*
X115048816Y-79861939D01*
X115045510Y-79871179D01*
X115041314Y-79880051D01*
X115036269Y-79888468D01*
X115030423Y-79896350D01*
X115023833Y-79903622D01*
X115016561Y-79910212D01*
X115008679Y-79916058D01*
X115000262Y-79921103D01*
X114991390Y-79925299D01*
X114982150Y-79928605D01*
X114972631Y-79930990D01*
X114962924Y-79932429D01*
X114953122Y-79932911D01*
X113678122Y-79932911D01*
X113668320Y-79932429D01*
X113658613Y-79930990D01*
X113649094Y-79928605D01*
X113639854Y-79925299D01*
X113630982Y-79921103D01*
X113622565Y-79916058D01*
X113614683Y-79910212D01*
X113607411Y-79903622D01*
X113600821Y-79896350D01*
X113594975Y-79888468D01*
X113589930Y-79880051D01*
X113585734Y-79871179D01*
X113582428Y-79861939D01*
X113580043Y-79852420D01*
X113578604Y-79842713D01*
X113578122Y-79832911D01*
X113578122Y-79632911D01*
X113578604Y-79623109D01*
X113580043Y-79613402D01*
X113582428Y-79603883D01*
X113585734Y-79594643D01*
X113589930Y-79585771D01*
X113594975Y-79577354D01*
X113600821Y-79569472D01*
X113607411Y-79562200D01*
X113614683Y-79555610D01*
X113622565Y-79549764D01*
X113630982Y-79544719D01*
X113639854Y-79540523D01*
X113649094Y-79537217D01*
X113658613Y-79534832D01*
X113668320Y-79533393D01*
X113678122Y-79532911D01*
X114953122Y-79532911D01*
X114962924Y-79533393D01*
G37*
G36*
X114962924Y-80183393D02*
G01*
X114972631Y-80184832D01*
X114982150Y-80187217D01*
X114991390Y-80190523D01*
X115000262Y-80194719D01*
X115008679Y-80199764D01*
X115016561Y-80205610D01*
X115023833Y-80212200D01*
X115030423Y-80219472D01*
X115036269Y-80227354D01*
X115041314Y-80235771D01*
X115045510Y-80244643D01*
X115048816Y-80253883D01*
X115051201Y-80263402D01*
X115052640Y-80273109D01*
X115053122Y-80282911D01*
X115053122Y-80482911D01*
X115052640Y-80492713D01*
X115051201Y-80502420D01*
X115048816Y-80511939D01*
X115045510Y-80521179D01*
X115041314Y-80530051D01*
X115036269Y-80538468D01*
X115030423Y-80546350D01*
X115023833Y-80553622D01*
X115016561Y-80560212D01*
X115008679Y-80566058D01*
X115000262Y-80571103D01*
X114991390Y-80575299D01*
X114982150Y-80578605D01*
X114972631Y-80580990D01*
X114962924Y-80582429D01*
X114953122Y-80582911D01*
X113678122Y-80582911D01*
X113668320Y-80582429D01*
X113658613Y-80580990D01*
X113649094Y-80578605D01*
X113639854Y-80575299D01*
X113630982Y-80571103D01*
X113622565Y-80566058D01*
X113614683Y-80560212D01*
X113607411Y-80553622D01*
X113600821Y-80546350D01*
X113594975Y-80538468D01*
X113589930Y-80530051D01*
X113585734Y-80521179D01*
X113582428Y-80511939D01*
X113580043Y-80502420D01*
X113578604Y-80492713D01*
X113578122Y-80482911D01*
X113578122Y-80282911D01*
X113578604Y-80273109D01*
X113580043Y-80263402D01*
X113582428Y-80253883D01*
X113585734Y-80244643D01*
X113589930Y-80235771D01*
X113594975Y-80227354D01*
X113600821Y-80219472D01*
X113607411Y-80212200D01*
X113614683Y-80205610D01*
X113622565Y-80199764D01*
X113630982Y-80194719D01*
X113639854Y-80190523D01*
X113649094Y-80187217D01*
X113658613Y-80184832D01*
X113668320Y-80183393D01*
X113678122Y-80182911D01*
X114953122Y-80182911D01*
X114962924Y-80183393D01*
G37*
G04 #@! TD*
G04 #@! TO.C,C1*
G36*
X112865080Y-78928621D02*
G01*
X112879398Y-78930745D01*
X112893439Y-78934262D01*
X112907068Y-78939139D01*
X112920153Y-78945328D01*
X112932569Y-78952769D01*
X112944195Y-78961392D01*
X112954920Y-78971113D01*
X112964641Y-78981838D01*
X112973264Y-78993464D01*
X112980705Y-79005880D01*
X112986894Y-79018965D01*
X112991771Y-79032594D01*
X112995288Y-79046635D01*
X112997412Y-79060953D01*
X112998122Y-79075411D01*
X112998122Y-79370411D01*
X112997412Y-79384869D01*
X112995288Y-79399187D01*
X112991771Y-79413228D01*
X112986894Y-79426857D01*
X112980705Y-79439942D01*
X112973264Y-79452358D01*
X112964641Y-79463984D01*
X112954920Y-79474709D01*
X112944195Y-79484430D01*
X112932569Y-79493053D01*
X112920153Y-79500494D01*
X112907068Y-79506683D01*
X112893439Y-79511560D01*
X112879398Y-79515077D01*
X112865080Y-79517201D01*
X112850622Y-79517911D01*
X112505622Y-79517911D01*
X112491164Y-79517201D01*
X112476846Y-79515077D01*
X112462805Y-79511560D01*
X112449176Y-79506683D01*
X112436091Y-79500494D01*
X112423675Y-79493053D01*
X112412049Y-79484430D01*
X112401324Y-79474709D01*
X112391603Y-79463984D01*
X112382980Y-79452358D01*
X112375539Y-79439942D01*
X112369350Y-79426857D01*
X112364473Y-79413228D01*
X112360956Y-79399187D01*
X112358832Y-79384869D01*
X112358122Y-79370411D01*
X112358122Y-79075411D01*
X112358832Y-79060953D01*
X112360956Y-79046635D01*
X112364473Y-79032594D01*
X112369350Y-79018965D01*
X112375539Y-79005880D01*
X112382980Y-78993464D01*
X112391603Y-78981838D01*
X112401324Y-78971113D01*
X112412049Y-78961392D01*
X112423675Y-78952769D01*
X112436091Y-78945328D01*
X112449176Y-78939139D01*
X112462805Y-78934262D01*
X112476846Y-78930745D01*
X112491164Y-78928621D01*
X112505622Y-78927911D01*
X112850622Y-78927911D01*
X112865080Y-78928621D01*
G37*
G36*
X112865080Y-79898621D02*
G01*
X112879398Y-79900745D01*
X112893439Y-79904262D01*
X112907068Y-79909139D01*
X112920153Y-79915328D01*
X112932569Y-79922769D01*
X112944195Y-79931392D01*
X112954920Y-79941113D01*
X112964641Y-79951838D01*
X112973264Y-79963464D01*
X112980705Y-79975880D01*
X112986894Y-79988965D01*
X112991771Y-80002594D01*
X112995288Y-80016635D01*
X112997412Y-80030953D01*
X112998122Y-80045411D01*
X112998122Y-80340411D01*
X112997412Y-80354869D01*
X112995288Y-80369187D01*
X112991771Y-80383228D01*
X112986894Y-80396857D01*
X112980705Y-80409942D01*
X112973264Y-80422358D01*
X112964641Y-80433984D01*
X112954920Y-80444709D01*
X112944195Y-80454430D01*
X112932569Y-80463053D01*
X112920153Y-80470494D01*
X112907068Y-80476683D01*
X112893439Y-80481560D01*
X112879398Y-80485077D01*
X112865080Y-80487201D01*
X112850622Y-80487911D01*
X112505622Y-80487911D01*
X112491164Y-80487201D01*
X112476846Y-80485077D01*
X112462805Y-80481560D01*
X112449176Y-80476683D01*
X112436091Y-80470494D01*
X112423675Y-80463053D01*
X112412049Y-80454430D01*
X112401324Y-80444709D01*
X112391603Y-80433984D01*
X112382980Y-80422358D01*
X112375539Y-80409942D01*
X112369350Y-80396857D01*
X112364473Y-80383228D01*
X112360956Y-80369187D01*
X112358832Y-80354869D01*
X112358122Y-80340411D01*
X112358122Y-80045411D01*
X112358832Y-80030953D01*
X112360956Y-80016635D01*
X112364473Y-80002594D01*
X112369350Y-79988965D01*
X112375539Y-79975880D01*
X112382980Y-79963464D01*
X112391603Y-79951838D01*
X112401324Y-79941113D01*
X112412049Y-79931392D01*
X112423675Y-79922769D01*
X112436091Y-79915328D01*
X112449176Y-79909139D01*
X112462805Y-79904262D01*
X112476846Y-79900745D01*
X112491164Y-79898621D01*
X112505622Y-79897911D01*
X112850622Y-79897911D01*
X112865080Y-79898621D01*
G37*
G04 #@! TD*
G04 #@! TO.C,R8*
G36*
X126645527Y-76885115D02*
G01*
X126669795Y-76888715D01*
X126693594Y-76894676D01*
X126716693Y-76902941D01*
X126738872Y-76913431D01*
X126759915Y-76926043D01*
X126779621Y-76940658D01*
X126797799Y-76957134D01*
X126814275Y-76975312D01*
X126828890Y-76995018D01*
X126841502Y-77016061D01*
X126851992Y-77038240D01*
X126860257Y-77061339D01*
X126866218Y-77085138D01*
X126869818Y-77109406D01*
X126871022Y-77133910D01*
X126871022Y-77783912D01*
X126869818Y-77808416D01*
X126866218Y-77832684D01*
X126860257Y-77856483D01*
X126851992Y-77879582D01*
X126841502Y-77901761D01*
X126828890Y-77922804D01*
X126814275Y-77942510D01*
X126797799Y-77960688D01*
X126779621Y-77977164D01*
X126759915Y-77991779D01*
X126738872Y-78004391D01*
X126716693Y-78014881D01*
X126693594Y-78023146D01*
X126669795Y-78029107D01*
X126645527Y-78032707D01*
X126621023Y-78033911D01*
X125721021Y-78033911D01*
X125696517Y-78032707D01*
X125672249Y-78029107D01*
X125648450Y-78023146D01*
X125625351Y-78014881D01*
X125603172Y-78004391D01*
X125582129Y-77991779D01*
X125562423Y-77977164D01*
X125544245Y-77960688D01*
X125527769Y-77942510D01*
X125513154Y-77922804D01*
X125500542Y-77901761D01*
X125490052Y-77879582D01*
X125481787Y-77856483D01*
X125475826Y-77832684D01*
X125472226Y-77808416D01*
X125471022Y-77783912D01*
X125471022Y-77133910D01*
X125472226Y-77109406D01*
X125475826Y-77085138D01*
X125481787Y-77061339D01*
X125490052Y-77038240D01*
X125500542Y-77016061D01*
X125513154Y-76995018D01*
X125527769Y-76975312D01*
X125544245Y-76957134D01*
X125562423Y-76940658D01*
X125582129Y-76926043D01*
X125603172Y-76913431D01*
X125625351Y-76902941D01*
X125648450Y-76894676D01*
X125672249Y-76888715D01*
X125696517Y-76885115D01*
X125721021Y-76883911D01*
X126621023Y-76883911D01*
X126645527Y-76885115D01*
G37*
G36*
X126645527Y-74835115D02*
G01*
X126669795Y-74838715D01*
X126693594Y-74844676D01*
X126716693Y-74852941D01*
X126738872Y-74863431D01*
X126759915Y-74876043D01*
X126779621Y-74890658D01*
X126797799Y-74907134D01*
X126814275Y-74925312D01*
X126828890Y-74945018D01*
X126841502Y-74966061D01*
X126851992Y-74988240D01*
X126860257Y-75011339D01*
X126866218Y-75035138D01*
X126869818Y-75059406D01*
X126871022Y-75083910D01*
X126871022Y-75733912D01*
X126869818Y-75758416D01*
X126866218Y-75782684D01*
X126860257Y-75806483D01*
X126851992Y-75829582D01*
X126841502Y-75851761D01*
X126828890Y-75872804D01*
X126814275Y-75892510D01*
X126797799Y-75910688D01*
X126779621Y-75927164D01*
X126759915Y-75941779D01*
X126738872Y-75954391D01*
X126716693Y-75964881D01*
X126693594Y-75973146D01*
X126669795Y-75979107D01*
X126645527Y-75982707D01*
X126621023Y-75983911D01*
X125721021Y-75983911D01*
X125696517Y-75982707D01*
X125672249Y-75979107D01*
X125648450Y-75973146D01*
X125625351Y-75964881D01*
X125603172Y-75954391D01*
X125582129Y-75941779D01*
X125562423Y-75927164D01*
X125544245Y-75910688D01*
X125527769Y-75892510D01*
X125513154Y-75872804D01*
X125500542Y-75851761D01*
X125490052Y-75829582D01*
X125481787Y-75806483D01*
X125475826Y-75782684D01*
X125472226Y-75758416D01*
X125471022Y-75733912D01*
X125471022Y-75083910D01*
X125472226Y-75059406D01*
X125475826Y-75035138D01*
X125481787Y-75011339D01*
X125490052Y-74988240D01*
X125500542Y-74966061D01*
X125513154Y-74945018D01*
X125527769Y-74925312D01*
X125544245Y-74907134D01*
X125562423Y-74890658D01*
X125582129Y-74876043D01*
X125603172Y-74863431D01*
X125625351Y-74852941D01*
X125648450Y-74844676D01*
X125672249Y-74838715D01*
X125696517Y-74835115D01*
X125721021Y-74833911D01*
X126621023Y-74833911D01*
X126645527Y-74835115D01*
G37*
G04 #@! TD*
G04 #@! TO.C,R9*
G36*
X111477627Y-78264115D02*
G01*
X111501895Y-78267715D01*
X111525694Y-78273676D01*
X111548793Y-78281941D01*
X111570972Y-78292431D01*
X111592015Y-78305043D01*
X111611721Y-78319658D01*
X111629899Y-78336134D01*
X111646375Y-78354312D01*
X111660990Y-78374018D01*
X111673602Y-78395061D01*
X111684092Y-78417240D01*
X111692357Y-78440339D01*
X111698318Y-78464138D01*
X111701918Y-78488406D01*
X111703122Y-78512910D01*
X111703122Y-79162912D01*
X111701918Y-79187416D01*
X111698318Y-79211684D01*
X111692357Y-79235483D01*
X111684092Y-79258582D01*
X111673602Y-79280761D01*
X111660990Y-79301804D01*
X111646375Y-79321510D01*
X111629899Y-79339688D01*
X111611721Y-79356164D01*
X111592015Y-79370779D01*
X111570972Y-79383391D01*
X111548793Y-79393881D01*
X111525694Y-79402146D01*
X111501895Y-79408107D01*
X111477627Y-79411707D01*
X111453123Y-79412911D01*
X110553121Y-79412911D01*
X110528617Y-79411707D01*
X110504349Y-79408107D01*
X110480550Y-79402146D01*
X110457451Y-79393881D01*
X110435272Y-79383391D01*
X110414229Y-79370779D01*
X110394523Y-79356164D01*
X110376345Y-79339688D01*
X110359869Y-79321510D01*
X110345254Y-79301804D01*
X110332642Y-79280761D01*
X110322152Y-79258582D01*
X110313887Y-79235483D01*
X110307926Y-79211684D01*
X110304326Y-79187416D01*
X110303122Y-79162912D01*
X110303122Y-78512910D01*
X110304326Y-78488406D01*
X110307926Y-78464138D01*
X110313887Y-78440339D01*
X110322152Y-78417240D01*
X110332642Y-78395061D01*
X110345254Y-78374018D01*
X110359869Y-78354312D01*
X110376345Y-78336134D01*
X110394523Y-78319658D01*
X110414229Y-78305043D01*
X110435272Y-78292431D01*
X110457451Y-78281941D01*
X110480550Y-78273676D01*
X110504349Y-78267715D01*
X110528617Y-78264115D01*
X110553121Y-78262911D01*
X111453123Y-78262911D01*
X111477627Y-78264115D01*
G37*
G36*
X111477627Y-80314115D02*
G01*
X111501895Y-80317715D01*
X111525694Y-80323676D01*
X111548793Y-80331941D01*
X111570972Y-80342431D01*
X111592015Y-80355043D01*
X111611721Y-80369658D01*
X111629899Y-80386134D01*
X111646375Y-80404312D01*
X111660990Y-80424018D01*
X111673602Y-80445061D01*
X111684092Y-80467240D01*
X111692357Y-80490339D01*
X111698318Y-80514138D01*
X111701918Y-80538406D01*
X111703122Y-80562910D01*
X111703122Y-81212912D01*
X111701918Y-81237416D01*
X111698318Y-81261684D01*
X111692357Y-81285483D01*
X111684092Y-81308582D01*
X111673602Y-81330761D01*
X111660990Y-81351804D01*
X111646375Y-81371510D01*
X111629899Y-81389688D01*
X111611721Y-81406164D01*
X111592015Y-81420779D01*
X111570972Y-81433391D01*
X111548793Y-81443881D01*
X111525694Y-81452146D01*
X111501895Y-81458107D01*
X111477627Y-81461707D01*
X111453123Y-81462911D01*
X110553121Y-81462911D01*
X110528617Y-81461707D01*
X110504349Y-81458107D01*
X110480550Y-81452146D01*
X110457451Y-81443881D01*
X110435272Y-81433391D01*
X110414229Y-81420779D01*
X110394523Y-81406164D01*
X110376345Y-81389688D01*
X110359869Y-81371510D01*
X110345254Y-81351804D01*
X110332642Y-81330761D01*
X110322152Y-81308582D01*
X110313887Y-81285483D01*
X110307926Y-81261684D01*
X110304326Y-81237416D01*
X110303122Y-81212912D01*
X110303122Y-80562910D01*
X110304326Y-80538406D01*
X110307926Y-80514138D01*
X110313887Y-80490339D01*
X110322152Y-80467240D01*
X110332642Y-80445061D01*
X110345254Y-80424018D01*
X110359869Y-80404312D01*
X110376345Y-80386134D01*
X110394523Y-80369658D01*
X110414229Y-80355043D01*
X110435272Y-80342431D01*
X110457451Y-80331941D01*
X110480550Y-80323676D01*
X110504349Y-80317715D01*
X110528617Y-80314115D01*
X110553121Y-80312911D01*
X111453123Y-80312911D01*
X111477627Y-80314115D01*
G37*
G04 #@! TD*
G04 #@! TO.C,R10*
G36*
X107667627Y-78264115D02*
G01*
X107691895Y-78267715D01*
X107715694Y-78273676D01*
X107738793Y-78281941D01*
X107760972Y-78292431D01*
X107782015Y-78305043D01*
X107801721Y-78319658D01*
X107819899Y-78336134D01*
X107836375Y-78354312D01*
X107850990Y-78374018D01*
X107863602Y-78395061D01*
X107874092Y-78417240D01*
X107882357Y-78440339D01*
X107888318Y-78464138D01*
X107891918Y-78488406D01*
X107893122Y-78512910D01*
X107893122Y-79162912D01*
X107891918Y-79187416D01*
X107888318Y-79211684D01*
X107882357Y-79235483D01*
X107874092Y-79258582D01*
X107863602Y-79280761D01*
X107850990Y-79301804D01*
X107836375Y-79321510D01*
X107819899Y-79339688D01*
X107801721Y-79356164D01*
X107782015Y-79370779D01*
X107760972Y-79383391D01*
X107738793Y-79393881D01*
X107715694Y-79402146D01*
X107691895Y-79408107D01*
X107667627Y-79411707D01*
X107643123Y-79412911D01*
X106743121Y-79412911D01*
X106718617Y-79411707D01*
X106694349Y-79408107D01*
X106670550Y-79402146D01*
X106647451Y-79393881D01*
X106625272Y-79383391D01*
X106604229Y-79370779D01*
X106584523Y-79356164D01*
X106566345Y-79339688D01*
X106549869Y-79321510D01*
X106535254Y-79301804D01*
X106522642Y-79280761D01*
X106512152Y-79258582D01*
X106503887Y-79235483D01*
X106497926Y-79211684D01*
X106494326Y-79187416D01*
X106493122Y-79162912D01*
X106493122Y-78512910D01*
X106494326Y-78488406D01*
X106497926Y-78464138D01*
X106503887Y-78440339D01*
X106512152Y-78417240D01*
X106522642Y-78395061D01*
X106535254Y-78374018D01*
X106549869Y-78354312D01*
X106566345Y-78336134D01*
X106584523Y-78319658D01*
X106604229Y-78305043D01*
X106625272Y-78292431D01*
X106647451Y-78281941D01*
X106670550Y-78273676D01*
X106694349Y-78267715D01*
X106718617Y-78264115D01*
X106743121Y-78262911D01*
X107643123Y-78262911D01*
X107667627Y-78264115D01*
G37*
G36*
X107667627Y-80314115D02*
G01*
X107691895Y-80317715D01*
X107715694Y-80323676D01*
X107738793Y-80331941D01*
X107760972Y-80342431D01*
X107782015Y-80355043D01*
X107801721Y-80369658D01*
X107819899Y-80386134D01*
X107836375Y-80404312D01*
X107850990Y-80424018D01*
X107863602Y-80445061D01*
X107874092Y-80467240D01*
X107882357Y-80490339D01*
X107888318Y-80514138D01*
X107891918Y-80538406D01*
X107893122Y-80562910D01*
X107893122Y-81212912D01*
X107891918Y-81237416D01*
X107888318Y-81261684D01*
X107882357Y-81285483D01*
X107874092Y-81308582D01*
X107863602Y-81330761D01*
X107850990Y-81351804D01*
X107836375Y-81371510D01*
X107819899Y-81389688D01*
X107801721Y-81406164D01*
X107782015Y-81420779D01*
X107760972Y-81433391D01*
X107738793Y-81443881D01*
X107715694Y-81452146D01*
X107691895Y-81458107D01*
X107667627Y-81461707D01*
X107643123Y-81462911D01*
X106743121Y-81462911D01*
X106718617Y-81461707D01*
X106694349Y-81458107D01*
X106670550Y-81452146D01*
X106647451Y-81443881D01*
X106625272Y-81433391D01*
X106604229Y-81420779D01*
X106584523Y-81406164D01*
X106566345Y-81389688D01*
X106549869Y-81371510D01*
X106535254Y-81351804D01*
X106522642Y-81330761D01*
X106512152Y-81308582D01*
X106503887Y-81285483D01*
X106497926Y-81261684D01*
X106494326Y-81237416D01*
X106493122Y-81212912D01*
X106493122Y-80562910D01*
X106494326Y-80538406D01*
X106497926Y-80514138D01*
X106503887Y-80490339D01*
X106512152Y-80467240D01*
X106522642Y-80445061D01*
X106535254Y-80424018D01*
X106549869Y-80404312D01*
X106566345Y-80386134D01*
X106584523Y-80369658D01*
X106604229Y-80355043D01*
X106625272Y-80342431D01*
X106647451Y-80331941D01*
X106670550Y-80323676D01*
X106694349Y-80317715D01*
X106718617Y-80314115D01*
X106743121Y-80312911D01*
X107643123Y-80312911D01*
X107667627Y-80314115D01*
G37*
G04 #@! TD*
G04 #@! TO.C,C2*
G36*
X105402627Y-78059115D02*
G01*
X105426895Y-78062715D01*
X105450694Y-78068676D01*
X105473793Y-78076941D01*
X105495972Y-78087431D01*
X105517015Y-78100043D01*
X105536721Y-78114658D01*
X105554899Y-78131134D01*
X105571375Y-78149312D01*
X105585990Y-78169018D01*
X105598602Y-78190061D01*
X105609092Y-78212240D01*
X105617357Y-78235339D01*
X105623318Y-78259138D01*
X105626918Y-78283406D01*
X105628122Y-78307910D01*
X105628122Y-79207912D01*
X105626918Y-79232416D01*
X105623318Y-79256684D01*
X105617357Y-79280483D01*
X105609092Y-79303582D01*
X105598602Y-79325761D01*
X105585990Y-79346804D01*
X105571375Y-79366510D01*
X105554899Y-79384688D01*
X105536721Y-79401164D01*
X105517015Y-79415779D01*
X105495972Y-79428391D01*
X105473793Y-79438881D01*
X105450694Y-79447146D01*
X105426895Y-79453107D01*
X105402627Y-79456707D01*
X105378123Y-79457911D01*
X104728121Y-79457911D01*
X104703617Y-79456707D01*
X104679349Y-79453107D01*
X104655550Y-79447146D01*
X104632451Y-79438881D01*
X104610272Y-79428391D01*
X104589229Y-79415779D01*
X104569523Y-79401164D01*
X104551345Y-79384688D01*
X104534869Y-79366510D01*
X104520254Y-79346804D01*
X104507642Y-79325761D01*
X104497152Y-79303582D01*
X104488887Y-79280483D01*
X104482926Y-79256684D01*
X104479326Y-79232416D01*
X104478122Y-79207912D01*
X104478122Y-78307910D01*
X104479326Y-78283406D01*
X104482926Y-78259138D01*
X104488887Y-78235339D01*
X104497152Y-78212240D01*
X104507642Y-78190061D01*
X104520254Y-78169018D01*
X104534869Y-78149312D01*
X104551345Y-78131134D01*
X104569523Y-78114658D01*
X104589229Y-78100043D01*
X104610272Y-78087431D01*
X104632451Y-78076941D01*
X104655550Y-78068676D01*
X104679349Y-78062715D01*
X104703617Y-78059115D01*
X104728121Y-78057911D01*
X105378123Y-78057911D01*
X105402627Y-78059115D01*
G37*
G36*
X103352627Y-78059115D02*
G01*
X103376895Y-78062715D01*
X103400694Y-78068676D01*
X103423793Y-78076941D01*
X103445972Y-78087431D01*
X103467015Y-78100043D01*
X103486721Y-78114658D01*
X103504899Y-78131134D01*
X103521375Y-78149312D01*
X103535990Y-78169018D01*
X103548602Y-78190061D01*
X103559092Y-78212240D01*
X103567357Y-78235339D01*
X103573318Y-78259138D01*
X103576918Y-78283406D01*
X103578122Y-78307910D01*
X103578122Y-79207912D01*
X103576918Y-79232416D01*
X103573318Y-79256684D01*
X103567357Y-79280483D01*
X103559092Y-79303582D01*
X103548602Y-79325761D01*
X103535990Y-79346804D01*
X103521375Y-79366510D01*
X103504899Y-79384688D01*
X103486721Y-79401164D01*
X103467015Y-79415779D01*
X103445972Y-79428391D01*
X103423793Y-79438881D01*
X103400694Y-79447146D01*
X103376895Y-79453107D01*
X103352627Y-79456707D01*
X103328123Y-79457911D01*
X102678121Y-79457911D01*
X102653617Y-79456707D01*
X102629349Y-79453107D01*
X102605550Y-79447146D01*
X102582451Y-79438881D01*
X102560272Y-79428391D01*
X102539229Y-79415779D01*
X102519523Y-79401164D01*
X102501345Y-79384688D01*
X102484869Y-79366510D01*
X102470254Y-79346804D01*
X102457642Y-79325761D01*
X102447152Y-79303582D01*
X102438887Y-79280483D01*
X102432926Y-79256684D01*
X102429326Y-79232416D01*
X102428122Y-79207912D01*
X102428122Y-78307910D01*
X102429326Y-78283406D01*
X102432926Y-78259138D01*
X102438887Y-78235339D01*
X102447152Y-78212240D01*
X102457642Y-78190061D01*
X102470254Y-78169018D01*
X102484869Y-78149312D01*
X102501345Y-78131134D01*
X102519523Y-78114658D01*
X102539229Y-78100043D01*
X102560272Y-78087431D01*
X102582451Y-78076941D01*
X102605550Y-78068676D01*
X102629349Y-78062715D01*
X102653617Y-78059115D01*
X102678121Y-78057911D01*
X103328123Y-78057911D01*
X103352627Y-78059115D01*
G37*
G04 #@! TD*
G04 #@! TO.C,R11*
G36*
X103352627Y-79709115D02*
G01*
X103376895Y-79712715D01*
X103400694Y-79718676D01*
X103423793Y-79726941D01*
X103445972Y-79737431D01*
X103467015Y-79750043D01*
X103486721Y-79764658D01*
X103504899Y-79781134D01*
X103521375Y-79799312D01*
X103535990Y-79819018D01*
X103548602Y-79840061D01*
X103559092Y-79862240D01*
X103567357Y-79885339D01*
X103573318Y-79909138D01*
X103576918Y-79933406D01*
X103578122Y-79957910D01*
X103578122Y-80857912D01*
X103576918Y-80882416D01*
X103573318Y-80906684D01*
X103567357Y-80930483D01*
X103559092Y-80953582D01*
X103548602Y-80975761D01*
X103535990Y-80996804D01*
X103521375Y-81016510D01*
X103504899Y-81034688D01*
X103486721Y-81051164D01*
X103467015Y-81065779D01*
X103445972Y-81078391D01*
X103423793Y-81088881D01*
X103400694Y-81097146D01*
X103376895Y-81103107D01*
X103352627Y-81106707D01*
X103328123Y-81107911D01*
X102678121Y-81107911D01*
X102653617Y-81106707D01*
X102629349Y-81103107D01*
X102605550Y-81097146D01*
X102582451Y-81088881D01*
X102560272Y-81078391D01*
X102539229Y-81065779D01*
X102519523Y-81051164D01*
X102501345Y-81034688D01*
X102484869Y-81016510D01*
X102470254Y-80996804D01*
X102457642Y-80975761D01*
X102447152Y-80953582D01*
X102438887Y-80930483D01*
X102432926Y-80906684D01*
X102429326Y-80882416D01*
X102428122Y-80857912D01*
X102428122Y-79957910D01*
X102429326Y-79933406D01*
X102432926Y-79909138D01*
X102438887Y-79885339D01*
X102447152Y-79862240D01*
X102457642Y-79840061D01*
X102470254Y-79819018D01*
X102484869Y-79799312D01*
X102501345Y-79781134D01*
X102519523Y-79764658D01*
X102539229Y-79750043D01*
X102560272Y-79737431D01*
X102582451Y-79726941D01*
X102605550Y-79718676D01*
X102629349Y-79712715D01*
X102653617Y-79709115D01*
X102678121Y-79707911D01*
X103328123Y-79707911D01*
X103352627Y-79709115D01*
G37*
G36*
X105402627Y-79709115D02*
G01*
X105426895Y-79712715D01*
X105450694Y-79718676D01*
X105473793Y-79726941D01*
X105495972Y-79737431D01*
X105517015Y-79750043D01*
X105536721Y-79764658D01*
X105554899Y-79781134D01*
X105571375Y-79799312D01*
X105585990Y-79819018D01*
X105598602Y-79840061D01*
X105609092Y-79862240D01*
X105617357Y-79885339D01*
X105623318Y-79909138D01*
X105626918Y-79933406D01*
X105628122Y-79957910D01*
X105628122Y-80857912D01*
X105626918Y-80882416D01*
X105623318Y-80906684D01*
X105617357Y-80930483D01*
X105609092Y-80953582D01*
X105598602Y-80975761D01*
X105585990Y-80996804D01*
X105571375Y-81016510D01*
X105554899Y-81034688D01*
X105536721Y-81051164D01*
X105517015Y-81065779D01*
X105495972Y-81078391D01*
X105473793Y-81088881D01*
X105450694Y-81097146D01*
X105426895Y-81103107D01*
X105402627Y-81106707D01*
X105378123Y-81107911D01*
X104728121Y-81107911D01*
X104703617Y-81106707D01*
X104679349Y-81103107D01*
X104655550Y-81097146D01*
X104632451Y-81088881D01*
X104610272Y-81078391D01*
X104589229Y-81065779D01*
X104569523Y-81051164D01*
X104551345Y-81034688D01*
X104534869Y-81016510D01*
X104520254Y-80996804D01*
X104507642Y-80975761D01*
X104497152Y-80953582D01*
X104488887Y-80930483D01*
X104482926Y-80906684D01*
X104479326Y-80882416D01*
X104478122Y-80857912D01*
X104478122Y-79957910D01*
X104479326Y-79933406D01*
X104482926Y-79909138D01*
X104488887Y-79885339D01*
X104497152Y-79862240D01*
X104507642Y-79840061D01*
X104520254Y-79819018D01*
X104534869Y-79799312D01*
X104551345Y-79781134D01*
X104569523Y-79764658D01*
X104589229Y-79750043D01*
X104610272Y-79737431D01*
X104632451Y-79726941D01*
X104655550Y-79718676D01*
X104679349Y-79712715D01*
X104703617Y-79709115D01*
X104728121Y-79707911D01*
X105378123Y-79707911D01*
X105402627Y-79709115D01*
G37*
G04 #@! TD*
G04 #@! TO.C,R12*
G36*
X99702627Y-79709115D02*
G01*
X99726895Y-79712715D01*
X99750694Y-79718676D01*
X99773793Y-79726941D01*
X99795972Y-79737431D01*
X99817015Y-79750043D01*
X99836721Y-79764658D01*
X99854899Y-79781134D01*
X99871375Y-79799312D01*
X99885990Y-79819018D01*
X99898602Y-79840061D01*
X99909092Y-79862240D01*
X99917357Y-79885339D01*
X99923318Y-79909138D01*
X99926918Y-79933406D01*
X99928122Y-79957910D01*
X99928122Y-80857912D01*
X99926918Y-80882416D01*
X99923318Y-80906684D01*
X99917357Y-80930483D01*
X99909092Y-80953582D01*
X99898602Y-80975761D01*
X99885990Y-80996804D01*
X99871375Y-81016510D01*
X99854899Y-81034688D01*
X99836721Y-81051164D01*
X99817015Y-81065779D01*
X99795972Y-81078391D01*
X99773793Y-81088881D01*
X99750694Y-81097146D01*
X99726895Y-81103107D01*
X99702627Y-81106707D01*
X99678123Y-81107911D01*
X99028121Y-81107911D01*
X99003617Y-81106707D01*
X98979349Y-81103107D01*
X98955550Y-81097146D01*
X98932451Y-81088881D01*
X98910272Y-81078391D01*
X98889229Y-81065779D01*
X98869523Y-81051164D01*
X98851345Y-81034688D01*
X98834869Y-81016510D01*
X98820254Y-80996804D01*
X98807642Y-80975761D01*
X98797152Y-80953582D01*
X98788887Y-80930483D01*
X98782926Y-80906684D01*
X98779326Y-80882416D01*
X98778122Y-80857912D01*
X98778122Y-79957910D01*
X98779326Y-79933406D01*
X98782926Y-79909138D01*
X98788887Y-79885339D01*
X98797152Y-79862240D01*
X98807642Y-79840061D01*
X98820254Y-79819018D01*
X98834869Y-79799312D01*
X98851345Y-79781134D01*
X98869523Y-79764658D01*
X98889229Y-79750043D01*
X98910272Y-79737431D01*
X98932451Y-79726941D01*
X98955550Y-79718676D01*
X98979349Y-79712715D01*
X99003617Y-79709115D01*
X99028121Y-79707911D01*
X99678123Y-79707911D01*
X99702627Y-79709115D01*
G37*
G36*
X101752627Y-79709115D02*
G01*
X101776895Y-79712715D01*
X101800694Y-79718676D01*
X101823793Y-79726941D01*
X101845972Y-79737431D01*
X101867015Y-79750043D01*
X101886721Y-79764658D01*
X101904899Y-79781134D01*
X101921375Y-79799312D01*
X101935990Y-79819018D01*
X101948602Y-79840061D01*
X101959092Y-79862240D01*
X101967357Y-79885339D01*
X101973318Y-79909138D01*
X101976918Y-79933406D01*
X101978122Y-79957910D01*
X101978122Y-80857912D01*
X101976918Y-80882416D01*
X101973318Y-80906684D01*
X101967357Y-80930483D01*
X101959092Y-80953582D01*
X101948602Y-80975761D01*
X101935990Y-80996804D01*
X101921375Y-81016510D01*
X101904899Y-81034688D01*
X101886721Y-81051164D01*
X101867015Y-81065779D01*
X101845972Y-81078391D01*
X101823793Y-81088881D01*
X101800694Y-81097146D01*
X101776895Y-81103107D01*
X101752627Y-81106707D01*
X101728123Y-81107911D01*
X101078121Y-81107911D01*
X101053617Y-81106707D01*
X101029349Y-81103107D01*
X101005550Y-81097146D01*
X100982451Y-81088881D01*
X100960272Y-81078391D01*
X100939229Y-81065779D01*
X100919523Y-81051164D01*
X100901345Y-81034688D01*
X100884869Y-81016510D01*
X100870254Y-80996804D01*
X100857642Y-80975761D01*
X100847152Y-80953582D01*
X100838887Y-80930483D01*
X100832926Y-80906684D01*
X100829326Y-80882416D01*
X100828122Y-80857912D01*
X100828122Y-79957910D01*
X100829326Y-79933406D01*
X100832926Y-79909138D01*
X100838887Y-79885339D01*
X100847152Y-79862240D01*
X100857642Y-79840061D01*
X100870254Y-79819018D01*
X100884869Y-79799312D01*
X100901345Y-79781134D01*
X100919523Y-79764658D01*
X100939229Y-79750043D01*
X100960272Y-79737431D01*
X100982451Y-79726941D01*
X101005550Y-79718676D01*
X101029349Y-79712715D01*
X101053617Y-79709115D01*
X101078121Y-79707911D01*
X101728123Y-79707911D01*
X101752627Y-79709115D01*
G37*
G04 #@! TD*
D12*
G04 #@! TO.C,J2*
X126171022Y-72115911D03*
X123401022Y-72115911D03*
X120631022Y-72115911D03*
X117861022Y-72115911D03*
X115091022Y-72115911D03*
X112321022Y-72115911D03*
X109551022Y-72115911D03*
X106781022Y-72115911D03*
X104011022Y-72115911D03*
X101241022Y-72115911D03*
X98471022Y-72115911D03*
X95701022Y-72115911D03*
X92931022Y-72115911D03*
G04 #@! TD*
D11*
G04 #@! TO.C,U1*
G36*
X79984403Y-80183393D02*
G01*
X79994110Y-80184832D01*
X80003629Y-80187217D01*
X80012869Y-80190523D01*
X80021741Y-80194719D01*
X80030158Y-80199764D01*
X80038040Y-80205610D01*
X80045312Y-80212200D01*
X80051902Y-80219472D01*
X80057748Y-80227354D01*
X80062793Y-80235771D01*
X80066989Y-80244643D01*
X80070295Y-80253883D01*
X80072680Y-80263402D01*
X80074119Y-80273109D01*
X80074601Y-80282911D01*
X80074601Y-80482911D01*
X80074119Y-80492713D01*
X80072680Y-80502420D01*
X80070295Y-80511939D01*
X80066989Y-80521179D01*
X80062793Y-80530051D01*
X80057748Y-80538468D01*
X80051902Y-80546350D01*
X80045312Y-80553622D01*
X80038040Y-80560212D01*
X80030158Y-80566058D01*
X80021741Y-80571103D01*
X80012869Y-80575299D01*
X80003629Y-80578605D01*
X79994110Y-80580990D01*
X79984403Y-80582429D01*
X79974601Y-80582911D01*
X78699601Y-80582911D01*
X78689799Y-80582429D01*
X78680092Y-80580990D01*
X78670573Y-80578605D01*
X78661333Y-80575299D01*
X78652461Y-80571103D01*
X78644044Y-80566058D01*
X78636162Y-80560212D01*
X78628890Y-80553622D01*
X78622300Y-80546350D01*
X78616454Y-80538468D01*
X78611409Y-80530051D01*
X78607213Y-80521179D01*
X78603907Y-80511939D01*
X78601522Y-80502420D01*
X78600083Y-80492713D01*
X78599601Y-80482911D01*
X78599601Y-80282911D01*
X78600083Y-80273109D01*
X78601522Y-80263402D01*
X78603907Y-80253883D01*
X78607213Y-80244643D01*
X78611409Y-80235771D01*
X78616454Y-80227354D01*
X78622300Y-80219472D01*
X78628890Y-80212200D01*
X78636162Y-80205610D01*
X78644044Y-80199764D01*
X78652461Y-80194719D01*
X78661333Y-80190523D01*
X78670573Y-80187217D01*
X78680092Y-80184832D01*
X78689799Y-80183393D01*
X78699601Y-80182911D01*
X79974601Y-80182911D01*
X79984403Y-80183393D01*
G37*
G36*
X79984403Y-79533393D02*
G01*
X79994110Y-79534832D01*
X80003629Y-79537217D01*
X80012869Y-79540523D01*
X80021741Y-79544719D01*
X80030158Y-79549764D01*
X80038040Y-79555610D01*
X80045312Y-79562200D01*
X80051902Y-79569472D01*
X80057748Y-79577354D01*
X80062793Y-79585771D01*
X80066989Y-79594643D01*
X80070295Y-79603883D01*
X80072680Y-79613402D01*
X80074119Y-79623109D01*
X80074601Y-79632911D01*
X80074601Y-79832911D01*
X80074119Y-79842713D01*
X80072680Y-79852420D01*
X80070295Y-79861939D01*
X80066989Y-79871179D01*
X80062793Y-79880051D01*
X80057748Y-79888468D01*
X80051902Y-79896350D01*
X80045312Y-79903622D01*
X80038040Y-79910212D01*
X80030158Y-79916058D01*
X80021741Y-79921103D01*
X80012869Y-79925299D01*
X80003629Y-79928605D01*
X79994110Y-79930990D01*
X79984403Y-79932429D01*
X79974601Y-79932911D01*
X78699601Y-79932911D01*
X78689799Y-79932429D01*
X78680092Y-79930990D01*
X78670573Y-79928605D01*
X78661333Y-79925299D01*
X78652461Y-79921103D01*
X78644044Y-79916058D01*
X78636162Y-79910212D01*
X78628890Y-79903622D01*
X78622300Y-79896350D01*
X78616454Y-79888468D01*
X78611409Y-79880051D01*
X78607213Y-79871179D01*
X78603907Y-79861939D01*
X78601522Y-79852420D01*
X78600083Y-79842713D01*
X78599601Y-79832911D01*
X78599601Y-79632911D01*
X78600083Y-79623109D01*
X78601522Y-79613402D01*
X78603907Y-79603883D01*
X78607213Y-79594643D01*
X78611409Y-79585771D01*
X78616454Y-79577354D01*
X78622300Y-79569472D01*
X78628890Y-79562200D01*
X78636162Y-79555610D01*
X78644044Y-79549764D01*
X78652461Y-79544719D01*
X78661333Y-79540523D01*
X78670573Y-79537217D01*
X78680092Y-79534832D01*
X78689799Y-79533393D01*
X78699601Y-79532911D01*
X79974601Y-79532911D01*
X79984403Y-79533393D01*
G37*
G36*
X79984403Y-78883393D02*
G01*
X79994110Y-78884832D01*
X80003629Y-78887217D01*
X80012869Y-78890523D01*
X80021741Y-78894719D01*
X80030158Y-78899764D01*
X80038040Y-78905610D01*
X80045312Y-78912200D01*
X80051902Y-78919472D01*
X80057748Y-78927354D01*
X80062793Y-78935771D01*
X80066989Y-78944643D01*
X80070295Y-78953883D01*
X80072680Y-78963402D01*
X80074119Y-78973109D01*
X80074601Y-78982911D01*
X80074601Y-79182911D01*
X80074119Y-79192713D01*
X80072680Y-79202420D01*
X80070295Y-79211939D01*
X80066989Y-79221179D01*
X80062793Y-79230051D01*
X80057748Y-79238468D01*
X80051902Y-79246350D01*
X80045312Y-79253622D01*
X80038040Y-79260212D01*
X80030158Y-79266058D01*
X80021741Y-79271103D01*
X80012869Y-79275299D01*
X80003629Y-79278605D01*
X79994110Y-79280990D01*
X79984403Y-79282429D01*
X79974601Y-79282911D01*
X78699601Y-79282911D01*
X78689799Y-79282429D01*
X78680092Y-79280990D01*
X78670573Y-79278605D01*
X78661333Y-79275299D01*
X78652461Y-79271103D01*
X78644044Y-79266058D01*
X78636162Y-79260212D01*
X78628890Y-79253622D01*
X78622300Y-79246350D01*
X78616454Y-79238468D01*
X78611409Y-79230051D01*
X78607213Y-79221179D01*
X78603907Y-79211939D01*
X78601522Y-79202420D01*
X78600083Y-79192713D01*
X78599601Y-79182911D01*
X78599601Y-78982911D01*
X78600083Y-78973109D01*
X78601522Y-78963402D01*
X78603907Y-78953883D01*
X78607213Y-78944643D01*
X78611409Y-78935771D01*
X78616454Y-78927354D01*
X78622300Y-78919472D01*
X78628890Y-78912200D01*
X78636162Y-78905610D01*
X78644044Y-78899764D01*
X78652461Y-78894719D01*
X78661333Y-78890523D01*
X78670573Y-78887217D01*
X78680092Y-78884832D01*
X78689799Y-78883393D01*
X78699601Y-78882911D01*
X79974601Y-78882911D01*
X79984403Y-78883393D01*
G37*
G36*
X79984403Y-78233393D02*
G01*
X79994110Y-78234832D01*
X80003629Y-78237217D01*
X80012869Y-78240523D01*
X80021741Y-78244719D01*
X80030158Y-78249764D01*
X80038040Y-78255610D01*
X80045312Y-78262200D01*
X80051902Y-78269472D01*
X80057748Y-78277354D01*
X80062793Y-78285771D01*
X80066989Y-78294643D01*
X80070295Y-78303883D01*
X80072680Y-78313402D01*
X80074119Y-78323109D01*
X80074601Y-78332911D01*
X80074601Y-78532911D01*
X80074119Y-78542713D01*
X80072680Y-78552420D01*
X80070295Y-78561939D01*
X80066989Y-78571179D01*
X80062793Y-78580051D01*
X80057748Y-78588468D01*
X80051902Y-78596350D01*
X80045312Y-78603622D01*
X80038040Y-78610212D01*
X80030158Y-78616058D01*
X80021741Y-78621103D01*
X80012869Y-78625299D01*
X80003629Y-78628605D01*
X79994110Y-78630990D01*
X79984403Y-78632429D01*
X79974601Y-78632911D01*
X78699601Y-78632911D01*
X78689799Y-78632429D01*
X78680092Y-78630990D01*
X78670573Y-78628605D01*
X78661333Y-78625299D01*
X78652461Y-78621103D01*
X78644044Y-78616058D01*
X78636162Y-78610212D01*
X78628890Y-78603622D01*
X78622300Y-78596350D01*
X78616454Y-78588468D01*
X78611409Y-78580051D01*
X78607213Y-78571179D01*
X78603907Y-78561939D01*
X78601522Y-78552420D01*
X78600083Y-78542713D01*
X78599601Y-78532911D01*
X78599601Y-78332911D01*
X78600083Y-78323109D01*
X78601522Y-78313402D01*
X78603907Y-78303883D01*
X78607213Y-78294643D01*
X78611409Y-78285771D01*
X78616454Y-78277354D01*
X78622300Y-78269472D01*
X78628890Y-78262200D01*
X78636162Y-78255610D01*
X78644044Y-78249764D01*
X78652461Y-78244719D01*
X78661333Y-78240523D01*
X78670573Y-78237217D01*
X78680092Y-78234832D01*
X78689799Y-78233393D01*
X78699601Y-78232911D01*
X79974601Y-78232911D01*
X79984403Y-78233393D01*
G37*
G36*
X74259403Y-78233393D02*
G01*
X74269110Y-78234832D01*
X74278629Y-78237217D01*
X74287869Y-78240523D01*
X74296741Y-78244719D01*
X74305158Y-78249764D01*
X74313040Y-78255610D01*
X74320312Y-78262200D01*
X74326902Y-78269472D01*
X74332748Y-78277354D01*
X74337793Y-78285771D01*
X74341989Y-78294643D01*
X74345295Y-78303883D01*
X74347680Y-78313402D01*
X74349119Y-78323109D01*
X74349601Y-78332911D01*
X74349601Y-78532911D01*
X74349119Y-78542713D01*
X74347680Y-78552420D01*
X74345295Y-78561939D01*
X74341989Y-78571179D01*
X74337793Y-78580051D01*
X74332748Y-78588468D01*
X74326902Y-78596350D01*
X74320312Y-78603622D01*
X74313040Y-78610212D01*
X74305158Y-78616058D01*
X74296741Y-78621103D01*
X74287869Y-78625299D01*
X74278629Y-78628605D01*
X74269110Y-78630990D01*
X74259403Y-78632429D01*
X74249601Y-78632911D01*
X72974601Y-78632911D01*
X72964799Y-78632429D01*
X72955092Y-78630990D01*
X72945573Y-78628605D01*
X72936333Y-78625299D01*
X72927461Y-78621103D01*
X72919044Y-78616058D01*
X72911162Y-78610212D01*
X72903890Y-78603622D01*
X72897300Y-78596350D01*
X72891454Y-78588468D01*
X72886409Y-78580051D01*
X72882213Y-78571179D01*
X72878907Y-78561939D01*
X72876522Y-78552420D01*
X72875083Y-78542713D01*
X72874601Y-78532911D01*
X72874601Y-78332911D01*
X72875083Y-78323109D01*
X72876522Y-78313402D01*
X72878907Y-78303883D01*
X72882213Y-78294643D01*
X72886409Y-78285771D01*
X72891454Y-78277354D01*
X72897300Y-78269472D01*
X72903890Y-78262200D01*
X72911162Y-78255610D01*
X72919044Y-78249764D01*
X72927461Y-78244719D01*
X72936333Y-78240523D01*
X72945573Y-78237217D01*
X72955092Y-78234832D01*
X72964799Y-78233393D01*
X72974601Y-78232911D01*
X74249601Y-78232911D01*
X74259403Y-78233393D01*
G37*
G36*
X74259403Y-78883393D02*
G01*
X74269110Y-78884832D01*
X74278629Y-78887217D01*
X74287869Y-78890523D01*
X74296741Y-78894719D01*
X74305158Y-78899764D01*
X74313040Y-78905610D01*
X74320312Y-78912200D01*
X74326902Y-78919472D01*
X74332748Y-78927354D01*
X74337793Y-78935771D01*
X74341989Y-78944643D01*
X74345295Y-78953883D01*
X74347680Y-78963402D01*
X74349119Y-78973109D01*
X74349601Y-78982911D01*
X74349601Y-79182911D01*
X74349119Y-79192713D01*
X74347680Y-79202420D01*
X74345295Y-79211939D01*
X74341989Y-79221179D01*
X74337793Y-79230051D01*
X74332748Y-79238468D01*
X74326902Y-79246350D01*
X74320312Y-79253622D01*
X74313040Y-79260212D01*
X74305158Y-79266058D01*
X74296741Y-79271103D01*
X74287869Y-79275299D01*
X74278629Y-79278605D01*
X74269110Y-79280990D01*
X74259403Y-79282429D01*
X74249601Y-79282911D01*
X72974601Y-79282911D01*
X72964799Y-79282429D01*
X72955092Y-79280990D01*
X72945573Y-79278605D01*
X72936333Y-79275299D01*
X72927461Y-79271103D01*
X72919044Y-79266058D01*
X72911162Y-79260212D01*
X72903890Y-79253622D01*
X72897300Y-79246350D01*
X72891454Y-79238468D01*
X72886409Y-79230051D01*
X72882213Y-79221179D01*
X72878907Y-79211939D01*
X72876522Y-79202420D01*
X72875083Y-79192713D01*
X72874601Y-79182911D01*
X72874601Y-78982911D01*
X72875083Y-78973109D01*
X72876522Y-78963402D01*
X72878907Y-78953883D01*
X72882213Y-78944643D01*
X72886409Y-78935771D01*
X72891454Y-78927354D01*
X72897300Y-78919472D01*
X72903890Y-78912200D01*
X72911162Y-78905610D01*
X72919044Y-78899764D01*
X72927461Y-78894719D01*
X72936333Y-78890523D01*
X72945573Y-78887217D01*
X72955092Y-78884832D01*
X72964799Y-78883393D01*
X72974601Y-78882911D01*
X74249601Y-78882911D01*
X74259403Y-78883393D01*
G37*
G36*
X74259403Y-79533393D02*
G01*
X74269110Y-79534832D01*
X74278629Y-79537217D01*
X74287869Y-79540523D01*
X74296741Y-79544719D01*
X74305158Y-79549764D01*
X74313040Y-79555610D01*
X74320312Y-79562200D01*
X74326902Y-79569472D01*
X74332748Y-79577354D01*
X74337793Y-79585771D01*
X74341989Y-79594643D01*
X74345295Y-79603883D01*
X74347680Y-79613402D01*
X74349119Y-79623109D01*
X74349601Y-79632911D01*
X74349601Y-79832911D01*
X74349119Y-79842713D01*
X74347680Y-79852420D01*
X74345295Y-79861939D01*
X74341989Y-79871179D01*
X74337793Y-79880051D01*
X74332748Y-79888468D01*
X74326902Y-79896350D01*
X74320312Y-79903622D01*
X74313040Y-79910212D01*
X74305158Y-79916058D01*
X74296741Y-79921103D01*
X74287869Y-79925299D01*
X74278629Y-79928605D01*
X74269110Y-79930990D01*
X74259403Y-79932429D01*
X74249601Y-79932911D01*
X72974601Y-79932911D01*
X72964799Y-79932429D01*
X72955092Y-79930990D01*
X72945573Y-79928605D01*
X72936333Y-79925299D01*
X72927461Y-79921103D01*
X72919044Y-79916058D01*
X72911162Y-79910212D01*
X72903890Y-79903622D01*
X72897300Y-79896350D01*
X72891454Y-79888468D01*
X72886409Y-79880051D01*
X72882213Y-79871179D01*
X72878907Y-79861939D01*
X72876522Y-79852420D01*
X72875083Y-79842713D01*
X72874601Y-79832911D01*
X72874601Y-79632911D01*
X72875083Y-79623109D01*
X72876522Y-79613402D01*
X72878907Y-79603883D01*
X72882213Y-79594643D01*
X72886409Y-79585771D01*
X72891454Y-79577354D01*
X72897300Y-79569472D01*
X72903890Y-79562200D01*
X72911162Y-79555610D01*
X72919044Y-79549764D01*
X72927461Y-79544719D01*
X72936333Y-79540523D01*
X72945573Y-79537217D01*
X72955092Y-79534832D01*
X72964799Y-79533393D01*
X72974601Y-79532911D01*
X74249601Y-79532911D01*
X74259403Y-79533393D01*
G37*
G36*
X74259403Y-80183393D02*
G01*
X74269110Y-80184832D01*
X74278629Y-80187217D01*
X74287869Y-80190523D01*
X74296741Y-80194719D01*
X74305158Y-80199764D01*
X74313040Y-80205610D01*
X74320312Y-80212200D01*
X74326902Y-80219472D01*
X74332748Y-80227354D01*
X74337793Y-80235771D01*
X74341989Y-80244643D01*
X74345295Y-80253883D01*
X74347680Y-80263402D01*
X74349119Y-80273109D01*
X74349601Y-80282911D01*
X74349601Y-80482911D01*
X74349119Y-80492713D01*
X74347680Y-80502420D01*
X74345295Y-80511939D01*
X74341989Y-80521179D01*
X74337793Y-80530051D01*
X74332748Y-80538468D01*
X74326902Y-80546350D01*
X74320312Y-80553622D01*
X74313040Y-80560212D01*
X74305158Y-80566058D01*
X74296741Y-80571103D01*
X74287869Y-80575299D01*
X74278629Y-80578605D01*
X74269110Y-80580990D01*
X74259403Y-80582429D01*
X74249601Y-80582911D01*
X72974601Y-80582911D01*
X72964799Y-80582429D01*
X72955092Y-80580990D01*
X72945573Y-80578605D01*
X72936333Y-80575299D01*
X72927461Y-80571103D01*
X72919044Y-80566058D01*
X72911162Y-80560212D01*
X72903890Y-80553622D01*
X72897300Y-80546350D01*
X72891454Y-80538468D01*
X72886409Y-80530051D01*
X72882213Y-80521179D01*
X72878907Y-80511939D01*
X72876522Y-80502420D01*
X72875083Y-80492713D01*
X72874601Y-80482911D01*
X72874601Y-80282911D01*
X72875083Y-80273109D01*
X72876522Y-80263402D01*
X72878907Y-80253883D01*
X72882213Y-80244643D01*
X72886409Y-80235771D01*
X72891454Y-80227354D01*
X72897300Y-80219472D01*
X72903890Y-80212200D01*
X72911162Y-80205610D01*
X72919044Y-80199764D01*
X72927461Y-80194719D01*
X72936333Y-80190523D01*
X72945573Y-80187217D01*
X72955092Y-80184832D01*
X72964799Y-80183393D01*
X72974601Y-80182911D01*
X74249601Y-80182911D01*
X74259403Y-80183393D01*
G37*
G04 #@! TD*
G04 #@! TO.C,C1*
G36*
X72161559Y-78928621D02*
G01*
X72175877Y-78930745D01*
X72189918Y-78934262D01*
X72203547Y-78939139D01*
X72216632Y-78945328D01*
X72229048Y-78952769D01*
X72240674Y-78961392D01*
X72251399Y-78971113D01*
X72261120Y-78981838D01*
X72269743Y-78993464D01*
X72277184Y-79005880D01*
X72283373Y-79018965D01*
X72288250Y-79032594D01*
X72291767Y-79046635D01*
X72293891Y-79060953D01*
X72294601Y-79075411D01*
X72294601Y-79370411D01*
X72293891Y-79384869D01*
X72291767Y-79399187D01*
X72288250Y-79413228D01*
X72283373Y-79426857D01*
X72277184Y-79439942D01*
X72269743Y-79452358D01*
X72261120Y-79463984D01*
X72251399Y-79474709D01*
X72240674Y-79484430D01*
X72229048Y-79493053D01*
X72216632Y-79500494D01*
X72203547Y-79506683D01*
X72189918Y-79511560D01*
X72175877Y-79515077D01*
X72161559Y-79517201D01*
X72147101Y-79517911D01*
X71802101Y-79517911D01*
X71787643Y-79517201D01*
X71773325Y-79515077D01*
X71759284Y-79511560D01*
X71745655Y-79506683D01*
X71732570Y-79500494D01*
X71720154Y-79493053D01*
X71708528Y-79484430D01*
X71697803Y-79474709D01*
X71688082Y-79463984D01*
X71679459Y-79452358D01*
X71672018Y-79439942D01*
X71665829Y-79426857D01*
X71660952Y-79413228D01*
X71657435Y-79399187D01*
X71655311Y-79384869D01*
X71654601Y-79370411D01*
X71654601Y-79075411D01*
X71655311Y-79060953D01*
X71657435Y-79046635D01*
X71660952Y-79032594D01*
X71665829Y-79018965D01*
X71672018Y-79005880D01*
X71679459Y-78993464D01*
X71688082Y-78981838D01*
X71697803Y-78971113D01*
X71708528Y-78961392D01*
X71720154Y-78952769D01*
X71732570Y-78945328D01*
X71745655Y-78939139D01*
X71759284Y-78934262D01*
X71773325Y-78930745D01*
X71787643Y-78928621D01*
X71802101Y-78927911D01*
X72147101Y-78927911D01*
X72161559Y-78928621D01*
G37*
G36*
X72161559Y-79898621D02*
G01*
X72175877Y-79900745D01*
X72189918Y-79904262D01*
X72203547Y-79909139D01*
X72216632Y-79915328D01*
X72229048Y-79922769D01*
X72240674Y-79931392D01*
X72251399Y-79941113D01*
X72261120Y-79951838D01*
X72269743Y-79963464D01*
X72277184Y-79975880D01*
X72283373Y-79988965D01*
X72288250Y-80002594D01*
X72291767Y-80016635D01*
X72293891Y-80030953D01*
X72294601Y-80045411D01*
X72294601Y-80340411D01*
X72293891Y-80354869D01*
X72291767Y-80369187D01*
X72288250Y-80383228D01*
X72283373Y-80396857D01*
X72277184Y-80409942D01*
X72269743Y-80422358D01*
X72261120Y-80433984D01*
X72251399Y-80444709D01*
X72240674Y-80454430D01*
X72229048Y-80463053D01*
X72216632Y-80470494D01*
X72203547Y-80476683D01*
X72189918Y-80481560D01*
X72175877Y-80485077D01*
X72161559Y-80487201D01*
X72147101Y-80487911D01*
X71802101Y-80487911D01*
X71787643Y-80487201D01*
X71773325Y-80485077D01*
X71759284Y-80481560D01*
X71745655Y-80476683D01*
X71732570Y-80470494D01*
X71720154Y-80463053D01*
X71708528Y-80454430D01*
X71697803Y-80444709D01*
X71688082Y-80433984D01*
X71679459Y-80422358D01*
X71672018Y-80409942D01*
X71665829Y-80396857D01*
X71660952Y-80383228D01*
X71657435Y-80369187D01*
X71655311Y-80354869D01*
X71654601Y-80340411D01*
X71654601Y-80045411D01*
X71655311Y-80030953D01*
X71657435Y-80016635D01*
X71660952Y-80002594D01*
X71665829Y-79988965D01*
X71672018Y-79975880D01*
X71679459Y-79963464D01*
X71688082Y-79951838D01*
X71697803Y-79941113D01*
X71708528Y-79931392D01*
X71720154Y-79922769D01*
X71732570Y-79915328D01*
X71745655Y-79909139D01*
X71759284Y-79904262D01*
X71773325Y-79900745D01*
X71787643Y-79898621D01*
X71802101Y-79897911D01*
X72147101Y-79897911D01*
X72161559Y-79898621D01*
G37*
G04 #@! TD*
G04 #@! TO.C,R8*
G36*
X85942006Y-76885115D02*
G01*
X85966274Y-76888715D01*
X85990073Y-76894676D01*
X86013172Y-76902941D01*
X86035351Y-76913431D01*
X86056394Y-76926043D01*
X86076100Y-76940658D01*
X86094278Y-76957134D01*
X86110754Y-76975312D01*
X86125369Y-76995018D01*
X86137981Y-77016061D01*
X86148471Y-77038240D01*
X86156736Y-77061339D01*
X86162697Y-77085138D01*
X86166297Y-77109406D01*
X86167501Y-77133910D01*
X86167501Y-77783912D01*
X86166297Y-77808416D01*
X86162697Y-77832684D01*
X86156736Y-77856483D01*
X86148471Y-77879582D01*
X86137981Y-77901761D01*
X86125369Y-77922804D01*
X86110754Y-77942510D01*
X86094278Y-77960688D01*
X86076100Y-77977164D01*
X86056394Y-77991779D01*
X86035351Y-78004391D01*
X86013172Y-78014881D01*
X85990073Y-78023146D01*
X85966274Y-78029107D01*
X85942006Y-78032707D01*
X85917502Y-78033911D01*
X85017500Y-78033911D01*
X84992996Y-78032707D01*
X84968728Y-78029107D01*
X84944929Y-78023146D01*
X84921830Y-78014881D01*
X84899651Y-78004391D01*
X84878608Y-77991779D01*
X84858902Y-77977164D01*
X84840724Y-77960688D01*
X84824248Y-77942510D01*
X84809633Y-77922804D01*
X84797021Y-77901761D01*
X84786531Y-77879582D01*
X84778266Y-77856483D01*
X84772305Y-77832684D01*
X84768705Y-77808416D01*
X84767501Y-77783912D01*
X84767501Y-77133910D01*
X84768705Y-77109406D01*
X84772305Y-77085138D01*
X84778266Y-77061339D01*
X84786531Y-77038240D01*
X84797021Y-77016061D01*
X84809633Y-76995018D01*
X84824248Y-76975312D01*
X84840724Y-76957134D01*
X84858902Y-76940658D01*
X84878608Y-76926043D01*
X84899651Y-76913431D01*
X84921830Y-76902941D01*
X84944929Y-76894676D01*
X84968728Y-76888715D01*
X84992996Y-76885115D01*
X85017500Y-76883911D01*
X85917502Y-76883911D01*
X85942006Y-76885115D01*
G37*
G36*
X85942006Y-74835115D02*
G01*
X85966274Y-74838715D01*
X85990073Y-74844676D01*
X86013172Y-74852941D01*
X86035351Y-74863431D01*
X86056394Y-74876043D01*
X86076100Y-74890658D01*
X86094278Y-74907134D01*
X86110754Y-74925312D01*
X86125369Y-74945018D01*
X86137981Y-74966061D01*
X86148471Y-74988240D01*
X86156736Y-75011339D01*
X86162697Y-75035138D01*
X86166297Y-75059406D01*
X86167501Y-75083910D01*
X86167501Y-75733912D01*
X86166297Y-75758416D01*
X86162697Y-75782684D01*
X86156736Y-75806483D01*
X86148471Y-75829582D01*
X86137981Y-75851761D01*
X86125369Y-75872804D01*
X86110754Y-75892510D01*
X86094278Y-75910688D01*
X86076100Y-75927164D01*
X86056394Y-75941779D01*
X86035351Y-75954391D01*
X86013172Y-75964881D01*
X85990073Y-75973146D01*
X85966274Y-75979107D01*
X85942006Y-75982707D01*
X85917502Y-75983911D01*
X85017500Y-75983911D01*
X84992996Y-75982707D01*
X84968728Y-75979107D01*
X84944929Y-75973146D01*
X84921830Y-75964881D01*
X84899651Y-75954391D01*
X84878608Y-75941779D01*
X84858902Y-75927164D01*
X84840724Y-75910688D01*
X84824248Y-75892510D01*
X84809633Y-75872804D01*
X84797021Y-75851761D01*
X84786531Y-75829582D01*
X84778266Y-75806483D01*
X84772305Y-75782684D01*
X84768705Y-75758416D01*
X84767501Y-75733912D01*
X84767501Y-75083910D01*
X84768705Y-75059406D01*
X84772305Y-75035138D01*
X84778266Y-75011339D01*
X84786531Y-74988240D01*
X84797021Y-74966061D01*
X84809633Y-74945018D01*
X84824248Y-74925312D01*
X84840724Y-74907134D01*
X84858902Y-74890658D01*
X84878608Y-74876043D01*
X84899651Y-74863431D01*
X84921830Y-74852941D01*
X84944929Y-74844676D01*
X84968728Y-74838715D01*
X84992996Y-74835115D01*
X85017500Y-74833911D01*
X85917502Y-74833911D01*
X85942006Y-74835115D01*
G37*
G04 #@! TD*
G04 #@! TO.C,R9*
G36*
X70774106Y-78264115D02*
G01*
X70798374Y-78267715D01*
X70822173Y-78273676D01*
X70845272Y-78281941D01*
X70867451Y-78292431D01*
X70888494Y-78305043D01*
X70908200Y-78319658D01*
X70926378Y-78336134D01*
X70942854Y-78354312D01*
X70957469Y-78374018D01*
X70970081Y-78395061D01*
X70980571Y-78417240D01*
X70988836Y-78440339D01*
X70994797Y-78464138D01*
X70998397Y-78488406D01*
X70999601Y-78512910D01*
X70999601Y-79162912D01*
X70998397Y-79187416D01*
X70994797Y-79211684D01*
X70988836Y-79235483D01*
X70980571Y-79258582D01*
X70970081Y-79280761D01*
X70957469Y-79301804D01*
X70942854Y-79321510D01*
X70926378Y-79339688D01*
X70908200Y-79356164D01*
X70888494Y-79370779D01*
X70867451Y-79383391D01*
X70845272Y-79393881D01*
X70822173Y-79402146D01*
X70798374Y-79408107D01*
X70774106Y-79411707D01*
X70749602Y-79412911D01*
X69849600Y-79412911D01*
X69825096Y-79411707D01*
X69800828Y-79408107D01*
X69777029Y-79402146D01*
X69753930Y-79393881D01*
X69731751Y-79383391D01*
X69710708Y-79370779D01*
X69691002Y-79356164D01*
X69672824Y-79339688D01*
X69656348Y-79321510D01*
X69641733Y-79301804D01*
X69629121Y-79280761D01*
X69618631Y-79258582D01*
X69610366Y-79235483D01*
X69604405Y-79211684D01*
X69600805Y-79187416D01*
X69599601Y-79162912D01*
X69599601Y-78512910D01*
X69600805Y-78488406D01*
X69604405Y-78464138D01*
X69610366Y-78440339D01*
X69618631Y-78417240D01*
X69629121Y-78395061D01*
X69641733Y-78374018D01*
X69656348Y-78354312D01*
X69672824Y-78336134D01*
X69691002Y-78319658D01*
X69710708Y-78305043D01*
X69731751Y-78292431D01*
X69753930Y-78281941D01*
X69777029Y-78273676D01*
X69800828Y-78267715D01*
X69825096Y-78264115D01*
X69849600Y-78262911D01*
X70749602Y-78262911D01*
X70774106Y-78264115D01*
G37*
G36*
X70774106Y-80314115D02*
G01*
X70798374Y-80317715D01*
X70822173Y-80323676D01*
X70845272Y-80331941D01*
X70867451Y-80342431D01*
X70888494Y-80355043D01*
X70908200Y-80369658D01*
X70926378Y-80386134D01*
X70942854Y-80404312D01*
X70957469Y-80424018D01*
X70970081Y-80445061D01*
X70980571Y-80467240D01*
X70988836Y-80490339D01*
X70994797Y-80514138D01*
X70998397Y-80538406D01*
X70999601Y-80562910D01*
X70999601Y-81212912D01*
X70998397Y-81237416D01*
X70994797Y-81261684D01*
X70988836Y-81285483D01*
X70980571Y-81308582D01*
X70970081Y-81330761D01*
X70957469Y-81351804D01*
X70942854Y-81371510D01*
X70926378Y-81389688D01*
X70908200Y-81406164D01*
X70888494Y-81420779D01*
X70867451Y-81433391D01*
X70845272Y-81443881D01*
X70822173Y-81452146D01*
X70798374Y-81458107D01*
X70774106Y-81461707D01*
X70749602Y-81462911D01*
X69849600Y-81462911D01*
X69825096Y-81461707D01*
X69800828Y-81458107D01*
X69777029Y-81452146D01*
X69753930Y-81443881D01*
X69731751Y-81433391D01*
X69710708Y-81420779D01*
X69691002Y-81406164D01*
X69672824Y-81389688D01*
X69656348Y-81371510D01*
X69641733Y-81351804D01*
X69629121Y-81330761D01*
X69618631Y-81308582D01*
X69610366Y-81285483D01*
X69604405Y-81261684D01*
X69600805Y-81237416D01*
X69599601Y-81212912D01*
X69599601Y-80562910D01*
X69600805Y-80538406D01*
X69604405Y-80514138D01*
X69610366Y-80490339D01*
X69618631Y-80467240D01*
X69629121Y-80445061D01*
X69641733Y-80424018D01*
X69656348Y-80404312D01*
X69672824Y-80386134D01*
X69691002Y-80369658D01*
X69710708Y-80355043D01*
X69731751Y-80342431D01*
X69753930Y-80331941D01*
X69777029Y-80323676D01*
X69800828Y-80317715D01*
X69825096Y-80314115D01*
X69849600Y-80312911D01*
X70749602Y-80312911D01*
X70774106Y-80314115D01*
G37*
G04 #@! TD*
G04 #@! TO.C,R10*
G36*
X66964106Y-78264115D02*
G01*
X66988374Y-78267715D01*
X67012173Y-78273676D01*
X67035272Y-78281941D01*
X67057451Y-78292431D01*
X67078494Y-78305043D01*
X67098200Y-78319658D01*
X67116378Y-78336134D01*
X67132854Y-78354312D01*
X67147469Y-78374018D01*
X67160081Y-78395061D01*
X67170571Y-78417240D01*
X67178836Y-78440339D01*
X67184797Y-78464138D01*
X67188397Y-78488406D01*
X67189601Y-78512910D01*
X67189601Y-79162912D01*
X67188397Y-79187416D01*
X67184797Y-79211684D01*
X67178836Y-79235483D01*
X67170571Y-79258582D01*
X67160081Y-79280761D01*
X67147469Y-79301804D01*
X67132854Y-79321510D01*
X67116378Y-79339688D01*
X67098200Y-79356164D01*
X67078494Y-79370779D01*
X67057451Y-79383391D01*
X67035272Y-79393881D01*
X67012173Y-79402146D01*
X66988374Y-79408107D01*
X66964106Y-79411707D01*
X66939602Y-79412911D01*
X66039600Y-79412911D01*
X66015096Y-79411707D01*
X65990828Y-79408107D01*
X65967029Y-79402146D01*
X65943930Y-79393881D01*
X65921751Y-79383391D01*
X65900708Y-79370779D01*
X65881002Y-79356164D01*
X65862824Y-79339688D01*
X65846348Y-79321510D01*
X65831733Y-79301804D01*
X65819121Y-79280761D01*
X65808631Y-79258582D01*
X65800366Y-79235483D01*
X65794405Y-79211684D01*
X65790805Y-79187416D01*
X65789601Y-79162912D01*
X65789601Y-78512910D01*
X65790805Y-78488406D01*
X65794405Y-78464138D01*
X65800366Y-78440339D01*
X65808631Y-78417240D01*
X65819121Y-78395061D01*
X65831733Y-78374018D01*
X65846348Y-78354312D01*
X65862824Y-78336134D01*
X65881002Y-78319658D01*
X65900708Y-78305043D01*
X65921751Y-78292431D01*
X65943930Y-78281941D01*
X65967029Y-78273676D01*
X65990828Y-78267715D01*
X66015096Y-78264115D01*
X66039600Y-78262911D01*
X66939602Y-78262911D01*
X66964106Y-78264115D01*
G37*
G36*
X66964106Y-80314115D02*
G01*
X66988374Y-80317715D01*
X67012173Y-80323676D01*
X67035272Y-80331941D01*
X67057451Y-80342431D01*
X67078494Y-80355043D01*
X67098200Y-80369658D01*
X67116378Y-80386134D01*
X67132854Y-80404312D01*
X67147469Y-80424018D01*
X67160081Y-80445061D01*
X67170571Y-80467240D01*
X67178836Y-80490339D01*
X67184797Y-80514138D01*
X67188397Y-80538406D01*
X67189601Y-80562910D01*
X67189601Y-81212912D01*
X67188397Y-81237416D01*
X67184797Y-81261684D01*
X67178836Y-81285483D01*
X67170571Y-81308582D01*
X67160081Y-81330761D01*
X67147469Y-81351804D01*
X67132854Y-81371510D01*
X67116378Y-81389688D01*
X67098200Y-81406164D01*
X67078494Y-81420779D01*
X67057451Y-81433391D01*
X67035272Y-81443881D01*
X67012173Y-81452146D01*
X66988374Y-81458107D01*
X66964106Y-81461707D01*
X66939602Y-81462911D01*
X66039600Y-81462911D01*
X66015096Y-81461707D01*
X65990828Y-81458107D01*
X65967029Y-81452146D01*
X65943930Y-81443881D01*
X65921751Y-81433391D01*
X65900708Y-81420779D01*
X65881002Y-81406164D01*
X65862824Y-81389688D01*
X65846348Y-81371510D01*
X65831733Y-81351804D01*
X65819121Y-81330761D01*
X65808631Y-81308582D01*
X65800366Y-81285483D01*
X65794405Y-81261684D01*
X65790805Y-81237416D01*
X65789601Y-81212912D01*
X65789601Y-80562910D01*
X65790805Y-80538406D01*
X65794405Y-80514138D01*
X65800366Y-80490339D01*
X65808631Y-80467240D01*
X65819121Y-80445061D01*
X65831733Y-80424018D01*
X65846348Y-80404312D01*
X65862824Y-80386134D01*
X65881002Y-80369658D01*
X65900708Y-80355043D01*
X65921751Y-80342431D01*
X65943930Y-80331941D01*
X65967029Y-80323676D01*
X65990828Y-80317715D01*
X66015096Y-80314115D01*
X66039600Y-80312911D01*
X66939602Y-80312911D01*
X66964106Y-80314115D01*
G37*
G04 #@! TD*
G04 #@! TO.C,C2*
G36*
X64699106Y-78059115D02*
G01*
X64723374Y-78062715D01*
X64747173Y-78068676D01*
X64770272Y-78076941D01*
X64792451Y-78087431D01*
X64813494Y-78100043D01*
X64833200Y-78114658D01*
X64851378Y-78131134D01*
X64867854Y-78149312D01*
X64882469Y-78169018D01*
X64895081Y-78190061D01*
X64905571Y-78212240D01*
X64913836Y-78235339D01*
X64919797Y-78259138D01*
X64923397Y-78283406D01*
X64924601Y-78307910D01*
X64924601Y-79207912D01*
X64923397Y-79232416D01*
X64919797Y-79256684D01*
X64913836Y-79280483D01*
X64905571Y-79303582D01*
X64895081Y-79325761D01*
X64882469Y-79346804D01*
X64867854Y-79366510D01*
X64851378Y-79384688D01*
X64833200Y-79401164D01*
X64813494Y-79415779D01*
X64792451Y-79428391D01*
X64770272Y-79438881D01*
X64747173Y-79447146D01*
X64723374Y-79453107D01*
X64699106Y-79456707D01*
X64674602Y-79457911D01*
X64024600Y-79457911D01*
X64000096Y-79456707D01*
X63975828Y-79453107D01*
X63952029Y-79447146D01*
X63928930Y-79438881D01*
X63906751Y-79428391D01*
X63885708Y-79415779D01*
X63866002Y-79401164D01*
X63847824Y-79384688D01*
X63831348Y-79366510D01*
X63816733Y-79346804D01*
X63804121Y-79325761D01*
X63793631Y-79303582D01*
X63785366Y-79280483D01*
X63779405Y-79256684D01*
X63775805Y-79232416D01*
X63774601Y-79207912D01*
X63774601Y-78307910D01*
X63775805Y-78283406D01*
X63779405Y-78259138D01*
X63785366Y-78235339D01*
X63793631Y-78212240D01*
X63804121Y-78190061D01*
X63816733Y-78169018D01*
X63831348Y-78149312D01*
X63847824Y-78131134D01*
X63866002Y-78114658D01*
X63885708Y-78100043D01*
X63906751Y-78087431D01*
X63928930Y-78076941D01*
X63952029Y-78068676D01*
X63975828Y-78062715D01*
X64000096Y-78059115D01*
X64024600Y-78057911D01*
X64674602Y-78057911D01*
X64699106Y-78059115D01*
G37*
G36*
X62649106Y-78059115D02*
G01*
X62673374Y-78062715D01*
X62697173Y-78068676D01*
X62720272Y-78076941D01*
X62742451Y-78087431D01*
X62763494Y-78100043D01*
X62783200Y-78114658D01*
X62801378Y-78131134D01*
X62817854Y-78149312D01*
X62832469Y-78169018D01*
X62845081Y-78190061D01*
X62855571Y-78212240D01*
X62863836Y-78235339D01*
X62869797Y-78259138D01*
X62873397Y-78283406D01*
X62874601Y-78307910D01*
X62874601Y-79207912D01*
X62873397Y-79232416D01*
X62869797Y-79256684D01*
X62863836Y-79280483D01*
X62855571Y-79303582D01*
X62845081Y-79325761D01*
X62832469Y-79346804D01*
X62817854Y-79366510D01*
X62801378Y-79384688D01*
X62783200Y-79401164D01*
X62763494Y-79415779D01*
X62742451Y-79428391D01*
X62720272Y-79438881D01*
X62697173Y-79447146D01*
X62673374Y-79453107D01*
X62649106Y-79456707D01*
X62624602Y-79457911D01*
X61974600Y-79457911D01*
X61950096Y-79456707D01*
X61925828Y-79453107D01*
X61902029Y-79447146D01*
X61878930Y-79438881D01*
X61856751Y-79428391D01*
X61835708Y-79415779D01*
X61816002Y-79401164D01*
X61797824Y-79384688D01*
X61781348Y-79366510D01*
X61766733Y-79346804D01*
X61754121Y-79325761D01*
X61743631Y-79303582D01*
X61735366Y-79280483D01*
X61729405Y-79256684D01*
X61725805Y-79232416D01*
X61724601Y-79207912D01*
X61724601Y-78307910D01*
X61725805Y-78283406D01*
X61729405Y-78259138D01*
X61735366Y-78235339D01*
X61743631Y-78212240D01*
X61754121Y-78190061D01*
X61766733Y-78169018D01*
X61781348Y-78149312D01*
X61797824Y-78131134D01*
X61816002Y-78114658D01*
X61835708Y-78100043D01*
X61856751Y-78087431D01*
X61878930Y-78076941D01*
X61902029Y-78068676D01*
X61925828Y-78062715D01*
X61950096Y-78059115D01*
X61974600Y-78057911D01*
X62624602Y-78057911D01*
X62649106Y-78059115D01*
G37*
G04 #@! TD*
G04 #@! TO.C,R11*
G36*
X62649106Y-79709115D02*
G01*
X62673374Y-79712715D01*
X62697173Y-79718676D01*
X62720272Y-79726941D01*
X62742451Y-79737431D01*
X62763494Y-79750043D01*
X62783200Y-79764658D01*
X62801378Y-79781134D01*
X62817854Y-79799312D01*
X62832469Y-79819018D01*
X62845081Y-79840061D01*
X62855571Y-79862240D01*
X62863836Y-79885339D01*
X62869797Y-79909138D01*
X62873397Y-79933406D01*
X62874601Y-79957910D01*
X62874601Y-80857912D01*
X62873397Y-80882416D01*
X62869797Y-80906684D01*
X62863836Y-80930483D01*
X62855571Y-80953582D01*
X62845081Y-80975761D01*
X62832469Y-80996804D01*
X62817854Y-81016510D01*
X62801378Y-81034688D01*
X62783200Y-81051164D01*
X62763494Y-81065779D01*
X62742451Y-81078391D01*
X62720272Y-81088881D01*
X62697173Y-81097146D01*
X62673374Y-81103107D01*
X62649106Y-81106707D01*
X62624602Y-81107911D01*
X61974600Y-81107911D01*
X61950096Y-81106707D01*
X61925828Y-81103107D01*
X61902029Y-81097146D01*
X61878930Y-81088881D01*
X61856751Y-81078391D01*
X61835708Y-81065779D01*
X61816002Y-81051164D01*
X61797824Y-81034688D01*
X61781348Y-81016510D01*
X61766733Y-80996804D01*
X61754121Y-80975761D01*
X61743631Y-80953582D01*
X61735366Y-80930483D01*
X61729405Y-80906684D01*
X61725805Y-80882416D01*
X61724601Y-80857912D01*
X61724601Y-79957910D01*
X61725805Y-79933406D01*
X61729405Y-79909138D01*
X61735366Y-79885339D01*
X61743631Y-79862240D01*
X61754121Y-79840061D01*
X61766733Y-79819018D01*
X61781348Y-79799312D01*
X61797824Y-79781134D01*
X61816002Y-79764658D01*
X61835708Y-79750043D01*
X61856751Y-79737431D01*
X61878930Y-79726941D01*
X61902029Y-79718676D01*
X61925828Y-79712715D01*
X61950096Y-79709115D01*
X61974600Y-79707911D01*
X62624602Y-79707911D01*
X62649106Y-79709115D01*
G37*
G36*
X64699106Y-79709115D02*
G01*
X64723374Y-79712715D01*
X64747173Y-79718676D01*
X64770272Y-79726941D01*
X64792451Y-79737431D01*
X64813494Y-79750043D01*
X64833200Y-79764658D01*
X64851378Y-79781134D01*
X64867854Y-79799312D01*
X64882469Y-79819018D01*
X64895081Y-79840061D01*
X64905571Y-79862240D01*
X64913836Y-79885339D01*
X64919797Y-79909138D01*
X64923397Y-79933406D01*
X64924601Y-79957910D01*
X64924601Y-80857912D01*
X64923397Y-80882416D01*
X64919797Y-80906684D01*
X64913836Y-80930483D01*
X64905571Y-80953582D01*
X64895081Y-80975761D01*
X64882469Y-80996804D01*
X64867854Y-81016510D01*
X64851378Y-81034688D01*
X64833200Y-81051164D01*
X64813494Y-81065779D01*
X64792451Y-81078391D01*
X64770272Y-81088881D01*
X64747173Y-81097146D01*
X64723374Y-81103107D01*
X64699106Y-81106707D01*
X64674602Y-81107911D01*
X64024600Y-81107911D01*
X64000096Y-81106707D01*
X63975828Y-81103107D01*
X63952029Y-81097146D01*
X63928930Y-81088881D01*
X63906751Y-81078391D01*
X63885708Y-81065779D01*
X63866002Y-81051164D01*
X63847824Y-81034688D01*
X63831348Y-81016510D01*
X63816733Y-80996804D01*
X63804121Y-80975761D01*
X63793631Y-80953582D01*
X63785366Y-80930483D01*
X63779405Y-80906684D01*
X63775805Y-80882416D01*
X63774601Y-80857912D01*
X63774601Y-79957910D01*
X63775805Y-79933406D01*
X63779405Y-79909138D01*
X63785366Y-79885339D01*
X63793631Y-79862240D01*
X63804121Y-79840061D01*
X63816733Y-79819018D01*
X63831348Y-79799312D01*
X63847824Y-79781134D01*
X63866002Y-79764658D01*
X63885708Y-79750043D01*
X63906751Y-79737431D01*
X63928930Y-79726941D01*
X63952029Y-79718676D01*
X63975828Y-79712715D01*
X64000096Y-79709115D01*
X64024600Y-79707911D01*
X64674602Y-79707911D01*
X64699106Y-79709115D01*
G37*
G04 #@! TD*
G04 #@! TO.C,R12*
G36*
X58999106Y-79709115D02*
G01*
X59023374Y-79712715D01*
X59047173Y-79718676D01*
X59070272Y-79726941D01*
X59092451Y-79737431D01*
X59113494Y-79750043D01*
X59133200Y-79764658D01*
X59151378Y-79781134D01*
X59167854Y-79799312D01*
X59182469Y-79819018D01*
X59195081Y-79840061D01*
X59205571Y-79862240D01*
X59213836Y-79885339D01*
X59219797Y-79909138D01*
X59223397Y-79933406D01*
X59224601Y-79957910D01*
X59224601Y-80857912D01*
X59223397Y-80882416D01*
X59219797Y-80906684D01*
X59213836Y-80930483D01*
X59205571Y-80953582D01*
X59195081Y-80975761D01*
X59182469Y-80996804D01*
X59167854Y-81016510D01*
X59151378Y-81034688D01*
X59133200Y-81051164D01*
X59113494Y-81065779D01*
X59092451Y-81078391D01*
X59070272Y-81088881D01*
X59047173Y-81097146D01*
X59023374Y-81103107D01*
X58999106Y-81106707D01*
X58974602Y-81107911D01*
X58324600Y-81107911D01*
X58300096Y-81106707D01*
X58275828Y-81103107D01*
X58252029Y-81097146D01*
X58228930Y-81088881D01*
X58206751Y-81078391D01*
X58185708Y-81065779D01*
X58166002Y-81051164D01*
X58147824Y-81034688D01*
X58131348Y-81016510D01*
X58116733Y-80996804D01*
X58104121Y-80975761D01*
X58093631Y-80953582D01*
X58085366Y-80930483D01*
X58079405Y-80906684D01*
X58075805Y-80882416D01*
X58074601Y-80857912D01*
X58074601Y-79957910D01*
X58075805Y-79933406D01*
X58079405Y-79909138D01*
X58085366Y-79885339D01*
X58093631Y-79862240D01*
X58104121Y-79840061D01*
X58116733Y-79819018D01*
X58131348Y-79799312D01*
X58147824Y-79781134D01*
X58166002Y-79764658D01*
X58185708Y-79750043D01*
X58206751Y-79737431D01*
X58228930Y-79726941D01*
X58252029Y-79718676D01*
X58275828Y-79712715D01*
X58300096Y-79709115D01*
X58324600Y-79707911D01*
X58974602Y-79707911D01*
X58999106Y-79709115D01*
G37*
G36*
X61049106Y-79709115D02*
G01*
X61073374Y-79712715D01*
X61097173Y-79718676D01*
X61120272Y-79726941D01*
X61142451Y-79737431D01*
X61163494Y-79750043D01*
X61183200Y-79764658D01*
X61201378Y-79781134D01*
X61217854Y-79799312D01*
X61232469Y-79819018D01*
X61245081Y-79840061D01*
X61255571Y-79862240D01*
X61263836Y-79885339D01*
X61269797Y-79909138D01*
X61273397Y-79933406D01*
X61274601Y-79957910D01*
X61274601Y-80857912D01*
X61273397Y-80882416D01*
X61269797Y-80906684D01*
X61263836Y-80930483D01*
X61255571Y-80953582D01*
X61245081Y-80975761D01*
X61232469Y-80996804D01*
X61217854Y-81016510D01*
X61201378Y-81034688D01*
X61183200Y-81051164D01*
X61163494Y-81065779D01*
X61142451Y-81078391D01*
X61120272Y-81088881D01*
X61097173Y-81097146D01*
X61073374Y-81103107D01*
X61049106Y-81106707D01*
X61024602Y-81107911D01*
X60374600Y-81107911D01*
X60350096Y-81106707D01*
X60325828Y-81103107D01*
X60302029Y-81097146D01*
X60278930Y-81088881D01*
X60256751Y-81078391D01*
X60235708Y-81065779D01*
X60216002Y-81051164D01*
X60197824Y-81034688D01*
X60181348Y-81016510D01*
X60166733Y-80996804D01*
X60154121Y-80975761D01*
X60143631Y-80953582D01*
X60135366Y-80930483D01*
X60129405Y-80906684D01*
X60125805Y-80882416D01*
X60124601Y-80857912D01*
X60124601Y-79957910D01*
X60125805Y-79933406D01*
X60129405Y-79909138D01*
X60135366Y-79885339D01*
X60143631Y-79862240D01*
X60154121Y-79840061D01*
X60166733Y-79819018D01*
X60181348Y-79799312D01*
X60197824Y-79781134D01*
X60216002Y-79764658D01*
X60235708Y-79750043D01*
X60256751Y-79737431D01*
X60278930Y-79726941D01*
X60302029Y-79718676D01*
X60325828Y-79712715D01*
X60350096Y-79709115D01*
X60374600Y-79707911D01*
X61024602Y-79707911D01*
X61049106Y-79709115D01*
G37*
G04 #@! TD*
D12*
G04 #@! TO.C,J2*
X85467501Y-72115911D03*
X82697501Y-72115911D03*
X79927501Y-72115911D03*
X77157501Y-72115911D03*
X74387501Y-72115911D03*
X71617501Y-72115911D03*
X68847501Y-72115911D03*
X66077501Y-72115911D03*
X63307501Y-72115911D03*
X60537501Y-72115911D03*
X57767501Y-72115911D03*
X54997501Y-72115911D03*
X52227501Y-72115911D03*
G04 #@! TD*
D11*
G04 #@! TO.C,U1*
G36*
X120687924Y-60099483D02*
G01*
X120697631Y-60100922D01*
X120707150Y-60103307D01*
X120716390Y-60106613D01*
X120725262Y-60110809D01*
X120733679Y-60115854D01*
X120741561Y-60121700D01*
X120748833Y-60128290D01*
X120755423Y-60135562D01*
X120761269Y-60143444D01*
X120766314Y-60151861D01*
X120770510Y-60160733D01*
X120773816Y-60169973D01*
X120776201Y-60179492D01*
X120777640Y-60189199D01*
X120778122Y-60199001D01*
X120778122Y-60399001D01*
X120777640Y-60408803D01*
X120776201Y-60418510D01*
X120773816Y-60428029D01*
X120770510Y-60437269D01*
X120766314Y-60446141D01*
X120761269Y-60454558D01*
X120755423Y-60462440D01*
X120748833Y-60469712D01*
X120741561Y-60476302D01*
X120733679Y-60482148D01*
X120725262Y-60487193D01*
X120716390Y-60491389D01*
X120707150Y-60494695D01*
X120697631Y-60497080D01*
X120687924Y-60498519D01*
X120678122Y-60499001D01*
X119403122Y-60499001D01*
X119393320Y-60498519D01*
X119383613Y-60497080D01*
X119374094Y-60494695D01*
X119364854Y-60491389D01*
X119355982Y-60487193D01*
X119347565Y-60482148D01*
X119339683Y-60476302D01*
X119332411Y-60469712D01*
X119325821Y-60462440D01*
X119319975Y-60454558D01*
X119314930Y-60446141D01*
X119310734Y-60437269D01*
X119307428Y-60428029D01*
X119305043Y-60418510D01*
X119303604Y-60408803D01*
X119303122Y-60399001D01*
X119303122Y-60199001D01*
X119303604Y-60189199D01*
X119305043Y-60179492D01*
X119307428Y-60169973D01*
X119310734Y-60160733D01*
X119314930Y-60151861D01*
X119319975Y-60143444D01*
X119325821Y-60135562D01*
X119332411Y-60128290D01*
X119339683Y-60121700D01*
X119347565Y-60115854D01*
X119355982Y-60110809D01*
X119364854Y-60106613D01*
X119374094Y-60103307D01*
X119383613Y-60100922D01*
X119393320Y-60099483D01*
X119403122Y-60099001D01*
X120678122Y-60099001D01*
X120687924Y-60099483D01*
G37*
G36*
X120687924Y-59449483D02*
G01*
X120697631Y-59450922D01*
X120707150Y-59453307D01*
X120716390Y-59456613D01*
X120725262Y-59460809D01*
X120733679Y-59465854D01*
X120741561Y-59471700D01*
X120748833Y-59478290D01*
X120755423Y-59485562D01*
X120761269Y-59493444D01*
X120766314Y-59501861D01*
X120770510Y-59510733D01*
X120773816Y-59519973D01*
X120776201Y-59529492D01*
X120777640Y-59539199D01*
X120778122Y-59549001D01*
X120778122Y-59749001D01*
X120777640Y-59758803D01*
X120776201Y-59768510D01*
X120773816Y-59778029D01*
X120770510Y-59787269D01*
X120766314Y-59796141D01*
X120761269Y-59804558D01*
X120755423Y-59812440D01*
X120748833Y-59819712D01*
X120741561Y-59826302D01*
X120733679Y-59832148D01*
X120725262Y-59837193D01*
X120716390Y-59841389D01*
X120707150Y-59844695D01*
X120697631Y-59847080D01*
X120687924Y-59848519D01*
X120678122Y-59849001D01*
X119403122Y-59849001D01*
X119393320Y-59848519D01*
X119383613Y-59847080D01*
X119374094Y-59844695D01*
X119364854Y-59841389D01*
X119355982Y-59837193D01*
X119347565Y-59832148D01*
X119339683Y-59826302D01*
X119332411Y-59819712D01*
X119325821Y-59812440D01*
X119319975Y-59804558D01*
X119314930Y-59796141D01*
X119310734Y-59787269D01*
X119307428Y-59778029D01*
X119305043Y-59768510D01*
X119303604Y-59758803D01*
X119303122Y-59749001D01*
X119303122Y-59549001D01*
X119303604Y-59539199D01*
X119305043Y-59529492D01*
X119307428Y-59519973D01*
X119310734Y-59510733D01*
X119314930Y-59501861D01*
X119319975Y-59493444D01*
X119325821Y-59485562D01*
X119332411Y-59478290D01*
X119339683Y-59471700D01*
X119347565Y-59465854D01*
X119355982Y-59460809D01*
X119364854Y-59456613D01*
X119374094Y-59453307D01*
X119383613Y-59450922D01*
X119393320Y-59449483D01*
X119403122Y-59449001D01*
X120678122Y-59449001D01*
X120687924Y-59449483D01*
G37*
G36*
X120687924Y-58799483D02*
G01*
X120697631Y-58800922D01*
X120707150Y-58803307D01*
X120716390Y-58806613D01*
X120725262Y-58810809D01*
X120733679Y-58815854D01*
X120741561Y-58821700D01*
X120748833Y-58828290D01*
X120755423Y-58835562D01*
X120761269Y-58843444D01*
X120766314Y-58851861D01*
X120770510Y-58860733D01*
X120773816Y-58869973D01*
X120776201Y-58879492D01*
X120777640Y-58889199D01*
X120778122Y-58899001D01*
X120778122Y-59099001D01*
X120777640Y-59108803D01*
X120776201Y-59118510D01*
X120773816Y-59128029D01*
X120770510Y-59137269D01*
X120766314Y-59146141D01*
X120761269Y-59154558D01*
X120755423Y-59162440D01*
X120748833Y-59169712D01*
X120741561Y-59176302D01*
X120733679Y-59182148D01*
X120725262Y-59187193D01*
X120716390Y-59191389D01*
X120707150Y-59194695D01*
X120697631Y-59197080D01*
X120687924Y-59198519D01*
X120678122Y-59199001D01*
X119403122Y-59199001D01*
X119393320Y-59198519D01*
X119383613Y-59197080D01*
X119374094Y-59194695D01*
X119364854Y-59191389D01*
X119355982Y-59187193D01*
X119347565Y-59182148D01*
X119339683Y-59176302D01*
X119332411Y-59169712D01*
X119325821Y-59162440D01*
X119319975Y-59154558D01*
X119314930Y-59146141D01*
X119310734Y-59137269D01*
X119307428Y-59128029D01*
X119305043Y-59118510D01*
X119303604Y-59108803D01*
X119303122Y-59099001D01*
X119303122Y-58899001D01*
X119303604Y-58889199D01*
X119305043Y-58879492D01*
X119307428Y-58869973D01*
X119310734Y-58860733D01*
X119314930Y-58851861D01*
X119319975Y-58843444D01*
X119325821Y-58835562D01*
X119332411Y-58828290D01*
X119339683Y-58821700D01*
X119347565Y-58815854D01*
X119355982Y-58810809D01*
X119364854Y-58806613D01*
X119374094Y-58803307D01*
X119383613Y-58800922D01*
X119393320Y-58799483D01*
X119403122Y-58799001D01*
X120678122Y-58799001D01*
X120687924Y-58799483D01*
G37*
G36*
X120687924Y-58149483D02*
G01*
X120697631Y-58150922D01*
X120707150Y-58153307D01*
X120716390Y-58156613D01*
X120725262Y-58160809D01*
X120733679Y-58165854D01*
X120741561Y-58171700D01*
X120748833Y-58178290D01*
X120755423Y-58185562D01*
X120761269Y-58193444D01*
X120766314Y-58201861D01*
X120770510Y-58210733D01*
X120773816Y-58219973D01*
X120776201Y-58229492D01*
X120777640Y-58239199D01*
X120778122Y-58249001D01*
X120778122Y-58449001D01*
X120777640Y-58458803D01*
X120776201Y-58468510D01*
X120773816Y-58478029D01*
X120770510Y-58487269D01*
X120766314Y-58496141D01*
X120761269Y-58504558D01*
X120755423Y-58512440D01*
X120748833Y-58519712D01*
X120741561Y-58526302D01*
X120733679Y-58532148D01*
X120725262Y-58537193D01*
X120716390Y-58541389D01*
X120707150Y-58544695D01*
X120697631Y-58547080D01*
X120687924Y-58548519D01*
X120678122Y-58549001D01*
X119403122Y-58549001D01*
X119393320Y-58548519D01*
X119383613Y-58547080D01*
X119374094Y-58544695D01*
X119364854Y-58541389D01*
X119355982Y-58537193D01*
X119347565Y-58532148D01*
X119339683Y-58526302D01*
X119332411Y-58519712D01*
X119325821Y-58512440D01*
X119319975Y-58504558D01*
X119314930Y-58496141D01*
X119310734Y-58487269D01*
X119307428Y-58478029D01*
X119305043Y-58468510D01*
X119303604Y-58458803D01*
X119303122Y-58449001D01*
X119303122Y-58249001D01*
X119303604Y-58239199D01*
X119305043Y-58229492D01*
X119307428Y-58219973D01*
X119310734Y-58210733D01*
X119314930Y-58201861D01*
X119319975Y-58193444D01*
X119325821Y-58185562D01*
X119332411Y-58178290D01*
X119339683Y-58171700D01*
X119347565Y-58165854D01*
X119355982Y-58160809D01*
X119364854Y-58156613D01*
X119374094Y-58153307D01*
X119383613Y-58150922D01*
X119393320Y-58149483D01*
X119403122Y-58149001D01*
X120678122Y-58149001D01*
X120687924Y-58149483D01*
G37*
G36*
X114962924Y-58149483D02*
G01*
X114972631Y-58150922D01*
X114982150Y-58153307D01*
X114991390Y-58156613D01*
X115000262Y-58160809D01*
X115008679Y-58165854D01*
X115016561Y-58171700D01*
X115023833Y-58178290D01*
X115030423Y-58185562D01*
X115036269Y-58193444D01*
X115041314Y-58201861D01*
X115045510Y-58210733D01*
X115048816Y-58219973D01*
X115051201Y-58229492D01*
X115052640Y-58239199D01*
X115053122Y-58249001D01*
X115053122Y-58449001D01*
X115052640Y-58458803D01*
X115051201Y-58468510D01*
X115048816Y-58478029D01*
X115045510Y-58487269D01*
X115041314Y-58496141D01*
X115036269Y-58504558D01*
X115030423Y-58512440D01*
X115023833Y-58519712D01*
X115016561Y-58526302D01*
X115008679Y-58532148D01*
X115000262Y-58537193D01*
X114991390Y-58541389D01*
X114982150Y-58544695D01*
X114972631Y-58547080D01*
X114962924Y-58548519D01*
X114953122Y-58549001D01*
X113678122Y-58549001D01*
X113668320Y-58548519D01*
X113658613Y-58547080D01*
X113649094Y-58544695D01*
X113639854Y-58541389D01*
X113630982Y-58537193D01*
X113622565Y-58532148D01*
X113614683Y-58526302D01*
X113607411Y-58519712D01*
X113600821Y-58512440D01*
X113594975Y-58504558D01*
X113589930Y-58496141D01*
X113585734Y-58487269D01*
X113582428Y-58478029D01*
X113580043Y-58468510D01*
X113578604Y-58458803D01*
X113578122Y-58449001D01*
X113578122Y-58249001D01*
X113578604Y-58239199D01*
X113580043Y-58229492D01*
X113582428Y-58219973D01*
X113585734Y-58210733D01*
X113589930Y-58201861D01*
X113594975Y-58193444D01*
X113600821Y-58185562D01*
X113607411Y-58178290D01*
X113614683Y-58171700D01*
X113622565Y-58165854D01*
X113630982Y-58160809D01*
X113639854Y-58156613D01*
X113649094Y-58153307D01*
X113658613Y-58150922D01*
X113668320Y-58149483D01*
X113678122Y-58149001D01*
X114953122Y-58149001D01*
X114962924Y-58149483D01*
G37*
G36*
X114962924Y-58799483D02*
G01*
X114972631Y-58800922D01*
X114982150Y-58803307D01*
X114991390Y-58806613D01*
X115000262Y-58810809D01*
X115008679Y-58815854D01*
X115016561Y-58821700D01*
X115023833Y-58828290D01*
X115030423Y-58835562D01*
X115036269Y-58843444D01*
X115041314Y-58851861D01*
X115045510Y-58860733D01*
X115048816Y-58869973D01*
X115051201Y-58879492D01*
X115052640Y-58889199D01*
X115053122Y-58899001D01*
X115053122Y-59099001D01*
X115052640Y-59108803D01*
X115051201Y-59118510D01*
X115048816Y-59128029D01*
X115045510Y-59137269D01*
X115041314Y-59146141D01*
X115036269Y-59154558D01*
X115030423Y-59162440D01*
X115023833Y-59169712D01*
X115016561Y-59176302D01*
X115008679Y-59182148D01*
X115000262Y-59187193D01*
X114991390Y-59191389D01*
X114982150Y-59194695D01*
X114972631Y-59197080D01*
X114962924Y-59198519D01*
X114953122Y-59199001D01*
X113678122Y-59199001D01*
X113668320Y-59198519D01*
X113658613Y-59197080D01*
X113649094Y-59194695D01*
X113639854Y-59191389D01*
X113630982Y-59187193D01*
X113622565Y-59182148D01*
X113614683Y-59176302D01*
X113607411Y-59169712D01*
X113600821Y-59162440D01*
X113594975Y-59154558D01*
X113589930Y-59146141D01*
X113585734Y-59137269D01*
X113582428Y-59128029D01*
X113580043Y-59118510D01*
X113578604Y-59108803D01*
X113578122Y-59099001D01*
X113578122Y-58899001D01*
X113578604Y-58889199D01*
X113580043Y-58879492D01*
X113582428Y-58869973D01*
X113585734Y-58860733D01*
X113589930Y-58851861D01*
X113594975Y-58843444D01*
X113600821Y-58835562D01*
X113607411Y-58828290D01*
X113614683Y-58821700D01*
X113622565Y-58815854D01*
X113630982Y-58810809D01*
X113639854Y-58806613D01*
X113649094Y-58803307D01*
X113658613Y-58800922D01*
X113668320Y-58799483D01*
X113678122Y-58799001D01*
X114953122Y-58799001D01*
X114962924Y-58799483D01*
G37*
G36*
X114962924Y-59449483D02*
G01*
X114972631Y-59450922D01*
X114982150Y-59453307D01*
X114991390Y-59456613D01*
X115000262Y-59460809D01*
X115008679Y-59465854D01*
X115016561Y-59471700D01*
X115023833Y-59478290D01*
X115030423Y-59485562D01*
X115036269Y-59493444D01*
X115041314Y-59501861D01*
X115045510Y-59510733D01*
X115048816Y-59519973D01*
X115051201Y-59529492D01*
X115052640Y-59539199D01*
X115053122Y-59549001D01*
X115053122Y-59749001D01*
X115052640Y-59758803D01*
X115051201Y-59768510D01*
X115048816Y-59778029D01*
X115045510Y-59787269D01*
X115041314Y-59796141D01*
X115036269Y-59804558D01*
X115030423Y-59812440D01*
X115023833Y-59819712D01*
X115016561Y-59826302D01*
X115008679Y-59832148D01*
X115000262Y-59837193D01*
X114991390Y-59841389D01*
X114982150Y-59844695D01*
X114972631Y-59847080D01*
X114962924Y-59848519D01*
X114953122Y-59849001D01*
X113678122Y-59849001D01*
X113668320Y-59848519D01*
X113658613Y-59847080D01*
X113649094Y-59844695D01*
X113639854Y-59841389D01*
X113630982Y-59837193D01*
X113622565Y-59832148D01*
X113614683Y-59826302D01*
X113607411Y-59819712D01*
X113600821Y-59812440D01*
X113594975Y-59804558D01*
X113589930Y-59796141D01*
X113585734Y-59787269D01*
X113582428Y-59778029D01*
X113580043Y-59768510D01*
X113578604Y-59758803D01*
X113578122Y-59749001D01*
X113578122Y-59549001D01*
X113578604Y-59539199D01*
X113580043Y-59529492D01*
X113582428Y-59519973D01*
X113585734Y-59510733D01*
X113589930Y-59501861D01*
X113594975Y-59493444D01*
X113600821Y-59485562D01*
X113607411Y-59478290D01*
X113614683Y-59471700D01*
X113622565Y-59465854D01*
X113630982Y-59460809D01*
X113639854Y-59456613D01*
X113649094Y-59453307D01*
X113658613Y-59450922D01*
X113668320Y-59449483D01*
X113678122Y-59449001D01*
X114953122Y-59449001D01*
X114962924Y-59449483D01*
G37*
G36*
X114962924Y-60099483D02*
G01*
X114972631Y-60100922D01*
X114982150Y-60103307D01*
X114991390Y-60106613D01*
X115000262Y-60110809D01*
X115008679Y-60115854D01*
X115016561Y-60121700D01*
X115023833Y-60128290D01*
X115030423Y-60135562D01*
X115036269Y-60143444D01*
X115041314Y-60151861D01*
X115045510Y-60160733D01*
X115048816Y-60169973D01*
X115051201Y-60179492D01*
X115052640Y-60189199D01*
X115053122Y-60199001D01*
X115053122Y-60399001D01*
X115052640Y-60408803D01*
X115051201Y-60418510D01*
X115048816Y-60428029D01*
X115045510Y-60437269D01*
X115041314Y-60446141D01*
X115036269Y-60454558D01*
X115030423Y-60462440D01*
X115023833Y-60469712D01*
X115016561Y-60476302D01*
X115008679Y-60482148D01*
X115000262Y-60487193D01*
X114991390Y-60491389D01*
X114982150Y-60494695D01*
X114972631Y-60497080D01*
X114962924Y-60498519D01*
X114953122Y-60499001D01*
X113678122Y-60499001D01*
X113668320Y-60498519D01*
X113658613Y-60497080D01*
X113649094Y-60494695D01*
X113639854Y-60491389D01*
X113630982Y-60487193D01*
X113622565Y-60482148D01*
X113614683Y-60476302D01*
X113607411Y-60469712D01*
X113600821Y-60462440D01*
X113594975Y-60454558D01*
X113589930Y-60446141D01*
X113585734Y-60437269D01*
X113582428Y-60428029D01*
X113580043Y-60418510D01*
X113578604Y-60408803D01*
X113578122Y-60399001D01*
X113578122Y-60199001D01*
X113578604Y-60189199D01*
X113580043Y-60179492D01*
X113582428Y-60169973D01*
X113585734Y-60160733D01*
X113589930Y-60151861D01*
X113594975Y-60143444D01*
X113600821Y-60135562D01*
X113607411Y-60128290D01*
X113614683Y-60121700D01*
X113622565Y-60115854D01*
X113630982Y-60110809D01*
X113639854Y-60106613D01*
X113649094Y-60103307D01*
X113658613Y-60100922D01*
X113668320Y-60099483D01*
X113678122Y-60099001D01*
X114953122Y-60099001D01*
X114962924Y-60099483D01*
G37*
G04 #@! TD*
G04 #@! TO.C,C1*
G36*
X112865080Y-58844711D02*
G01*
X112879398Y-58846835D01*
X112893439Y-58850352D01*
X112907068Y-58855229D01*
X112920153Y-58861418D01*
X112932569Y-58868859D01*
X112944195Y-58877482D01*
X112954920Y-58887203D01*
X112964641Y-58897928D01*
X112973264Y-58909554D01*
X112980705Y-58921970D01*
X112986894Y-58935055D01*
X112991771Y-58948684D01*
X112995288Y-58962725D01*
X112997412Y-58977043D01*
X112998122Y-58991501D01*
X112998122Y-59286501D01*
X112997412Y-59300959D01*
X112995288Y-59315277D01*
X112991771Y-59329318D01*
X112986894Y-59342947D01*
X112980705Y-59356032D01*
X112973264Y-59368448D01*
X112964641Y-59380074D01*
X112954920Y-59390799D01*
X112944195Y-59400520D01*
X112932569Y-59409143D01*
X112920153Y-59416584D01*
X112907068Y-59422773D01*
X112893439Y-59427650D01*
X112879398Y-59431167D01*
X112865080Y-59433291D01*
X112850622Y-59434001D01*
X112505622Y-59434001D01*
X112491164Y-59433291D01*
X112476846Y-59431167D01*
X112462805Y-59427650D01*
X112449176Y-59422773D01*
X112436091Y-59416584D01*
X112423675Y-59409143D01*
X112412049Y-59400520D01*
X112401324Y-59390799D01*
X112391603Y-59380074D01*
X112382980Y-59368448D01*
X112375539Y-59356032D01*
X112369350Y-59342947D01*
X112364473Y-59329318D01*
X112360956Y-59315277D01*
X112358832Y-59300959D01*
X112358122Y-59286501D01*
X112358122Y-58991501D01*
X112358832Y-58977043D01*
X112360956Y-58962725D01*
X112364473Y-58948684D01*
X112369350Y-58935055D01*
X112375539Y-58921970D01*
X112382980Y-58909554D01*
X112391603Y-58897928D01*
X112401324Y-58887203D01*
X112412049Y-58877482D01*
X112423675Y-58868859D01*
X112436091Y-58861418D01*
X112449176Y-58855229D01*
X112462805Y-58850352D01*
X112476846Y-58846835D01*
X112491164Y-58844711D01*
X112505622Y-58844001D01*
X112850622Y-58844001D01*
X112865080Y-58844711D01*
G37*
G36*
X112865080Y-59814711D02*
G01*
X112879398Y-59816835D01*
X112893439Y-59820352D01*
X112907068Y-59825229D01*
X112920153Y-59831418D01*
X112932569Y-59838859D01*
X112944195Y-59847482D01*
X112954920Y-59857203D01*
X112964641Y-59867928D01*
X112973264Y-59879554D01*
X112980705Y-59891970D01*
X112986894Y-59905055D01*
X112991771Y-59918684D01*
X112995288Y-59932725D01*
X112997412Y-59947043D01*
X112998122Y-59961501D01*
X112998122Y-60256501D01*
X112997412Y-60270959D01*
X112995288Y-60285277D01*
X112991771Y-60299318D01*
X112986894Y-60312947D01*
X112980705Y-60326032D01*
X112973264Y-60338448D01*
X112964641Y-60350074D01*
X112954920Y-60360799D01*
X112944195Y-60370520D01*
X112932569Y-60379143D01*
X112920153Y-60386584D01*
X112907068Y-60392773D01*
X112893439Y-60397650D01*
X112879398Y-60401167D01*
X112865080Y-60403291D01*
X112850622Y-60404001D01*
X112505622Y-60404001D01*
X112491164Y-60403291D01*
X112476846Y-60401167D01*
X112462805Y-60397650D01*
X112449176Y-60392773D01*
X112436091Y-60386584D01*
X112423675Y-60379143D01*
X112412049Y-60370520D01*
X112401324Y-60360799D01*
X112391603Y-60350074D01*
X112382980Y-60338448D01*
X112375539Y-60326032D01*
X112369350Y-60312947D01*
X112364473Y-60299318D01*
X112360956Y-60285277D01*
X112358832Y-60270959D01*
X112358122Y-60256501D01*
X112358122Y-59961501D01*
X112358832Y-59947043D01*
X112360956Y-59932725D01*
X112364473Y-59918684D01*
X112369350Y-59905055D01*
X112375539Y-59891970D01*
X112382980Y-59879554D01*
X112391603Y-59867928D01*
X112401324Y-59857203D01*
X112412049Y-59847482D01*
X112423675Y-59838859D01*
X112436091Y-59831418D01*
X112449176Y-59825229D01*
X112462805Y-59820352D01*
X112476846Y-59816835D01*
X112491164Y-59814711D01*
X112505622Y-59814001D01*
X112850622Y-59814001D01*
X112865080Y-59814711D01*
G37*
G04 #@! TD*
G04 #@! TO.C,R8*
G36*
X126645527Y-56801205D02*
G01*
X126669795Y-56804805D01*
X126693594Y-56810766D01*
X126716693Y-56819031D01*
X126738872Y-56829521D01*
X126759915Y-56842133D01*
X126779621Y-56856748D01*
X126797799Y-56873224D01*
X126814275Y-56891402D01*
X126828890Y-56911108D01*
X126841502Y-56932151D01*
X126851992Y-56954330D01*
X126860257Y-56977429D01*
X126866218Y-57001228D01*
X126869818Y-57025496D01*
X126871022Y-57050000D01*
X126871022Y-57700002D01*
X126869818Y-57724506D01*
X126866218Y-57748774D01*
X126860257Y-57772573D01*
X126851992Y-57795672D01*
X126841502Y-57817851D01*
X126828890Y-57838894D01*
X126814275Y-57858600D01*
X126797799Y-57876778D01*
X126779621Y-57893254D01*
X126759915Y-57907869D01*
X126738872Y-57920481D01*
X126716693Y-57930971D01*
X126693594Y-57939236D01*
X126669795Y-57945197D01*
X126645527Y-57948797D01*
X126621023Y-57950001D01*
X125721021Y-57950001D01*
X125696517Y-57948797D01*
X125672249Y-57945197D01*
X125648450Y-57939236D01*
X125625351Y-57930971D01*
X125603172Y-57920481D01*
X125582129Y-57907869D01*
X125562423Y-57893254D01*
X125544245Y-57876778D01*
X125527769Y-57858600D01*
X125513154Y-57838894D01*
X125500542Y-57817851D01*
X125490052Y-57795672D01*
X125481787Y-57772573D01*
X125475826Y-57748774D01*
X125472226Y-57724506D01*
X125471022Y-57700002D01*
X125471022Y-57050000D01*
X125472226Y-57025496D01*
X125475826Y-57001228D01*
X125481787Y-56977429D01*
X125490052Y-56954330D01*
X125500542Y-56932151D01*
X125513154Y-56911108D01*
X125527769Y-56891402D01*
X125544245Y-56873224D01*
X125562423Y-56856748D01*
X125582129Y-56842133D01*
X125603172Y-56829521D01*
X125625351Y-56819031D01*
X125648450Y-56810766D01*
X125672249Y-56804805D01*
X125696517Y-56801205D01*
X125721021Y-56800001D01*
X126621023Y-56800001D01*
X126645527Y-56801205D01*
G37*
G36*
X126645527Y-54751205D02*
G01*
X126669795Y-54754805D01*
X126693594Y-54760766D01*
X126716693Y-54769031D01*
X126738872Y-54779521D01*
X126759915Y-54792133D01*
X126779621Y-54806748D01*
X126797799Y-54823224D01*
X126814275Y-54841402D01*
X126828890Y-54861108D01*
X126841502Y-54882151D01*
X126851992Y-54904330D01*
X126860257Y-54927429D01*
X126866218Y-54951228D01*
X126869818Y-54975496D01*
X126871022Y-55000000D01*
X126871022Y-55650002D01*
X126869818Y-55674506D01*
X126866218Y-55698774D01*
X126860257Y-55722573D01*
X126851992Y-55745672D01*
X126841502Y-55767851D01*
X126828890Y-55788894D01*
X126814275Y-55808600D01*
X126797799Y-55826778D01*
X126779621Y-55843254D01*
X126759915Y-55857869D01*
X126738872Y-55870481D01*
X126716693Y-55880971D01*
X126693594Y-55889236D01*
X126669795Y-55895197D01*
X126645527Y-55898797D01*
X126621023Y-55900001D01*
X125721021Y-55900001D01*
X125696517Y-55898797D01*
X125672249Y-55895197D01*
X125648450Y-55889236D01*
X125625351Y-55880971D01*
X125603172Y-55870481D01*
X125582129Y-55857869D01*
X125562423Y-55843254D01*
X125544245Y-55826778D01*
X125527769Y-55808600D01*
X125513154Y-55788894D01*
X125500542Y-55767851D01*
X125490052Y-55745672D01*
X125481787Y-55722573D01*
X125475826Y-55698774D01*
X125472226Y-55674506D01*
X125471022Y-55650002D01*
X125471022Y-55000000D01*
X125472226Y-54975496D01*
X125475826Y-54951228D01*
X125481787Y-54927429D01*
X125490052Y-54904330D01*
X125500542Y-54882151D01*
X125513154Y-54861108D01*
X125527769Y-54841402D01*
X125544245Y-54823224D01*
X125562423Y-54806748D01*
X125582129Y-54792133D01*
X125603172Y-54779521D01*
X125625351Y-54769031D01*
X125648450Y-54760766D01*
X125672249Y-54754805D01*
X125696517Y-54751205D01*
X125721021Y-54750001D01*
X126621023Y-54750001D01*
X126645527Y-54751205D01*
G37*
G04 #@! TD*
G04 #@! TO.C,R9*
G36*
X111477627Y-58180205D02*
G01*
X111501895Y-58183805D01*
X111525694Y-58189766D01*
X111548793Y-58198031D01*
X111570972Y-58208521D01*
X111592015Y-58221133D01*
X111611721Y-58235748D01*
X111629899Y-58252224D01*
X111646375Y-58270402D01*
X111660990Y-58290108D01*
X111673602Y-58311151D01*
X111684092Y-58333330D01*
X111692357Y-58356429D01*
X111698318Y-58380228D01*
X111701918Y-58404496D01*
X111703122Y-58429000D01*
X111703122Y-59079002D01*
X111701918Y-59103506D01*
X111698318Y-59127774D01*
X111692357Y-59151573D01*
X111684092Y-59174672D01*
X111673602Y-59196851D01*
X111660990Y-59217894D01*
X111646375Y-59237600D01*
X111629899Y-59255778D01*
X111611721Y-59272254D01*
X111592015Y-59286869D01*
X111570972Y-59299481D01*
X111548793Y-59309971D01*
X111525694Y-59318236D01*
X111501895Y-59324197D01*
X111477627Y-59327797D01*
X111453123Y-59329001D01*
X110553121Y-59329001D01*
X110528617Y-59327797D01*
X110504349Y-59324197D01*
X110480550Y-59318236D01*
X110457451Y-59309971D01*
X110435272Y-59299481D01*
X110414229Y-59286869D01*
X110394523Y-59272254D01*
X110376345Y-59255778D01*
X110359869Y-59237600D01*
X110345254Y-59217894D01*
X110332642Y-59196851D01*
X110322152Y-59174672D01*
X110313887Y-59151573D01*
X110307926Y-59127774D01*
X110304326Y-59103506D01*
X110303122Y-59079002D01*
X110303122Y-58429000D01*
X110304326Y-58404496D01*
X110307926Y-58380228D01*
X110313887Y-58356429D01*
X110322152Y-58333330D01*
X110332642Y-58311151D01*
X110345254Y-58290108D01*
X110359869Y-58270402D01*
X110376345Y-58252224D01*
X110394523Y-58235748D01*
X110414229Y-58221133D01*
X110435272Y-58208521D01*
X110457451Y-58198031D01*
X110480550Y-58189766D01*
X110504349Y-58183805D01*
X110528617Y-58180205D01*
X110553121Y-58179001D01*
X111453123Y-58179001D01*
X111477627Y-58180205D01*
G37*
G36*
X111477627Y-60230205D02*
G01*
X111501895Y-60233805D01*
X111525694Y-60239766D01*
X111548793Y-60248031D01*
X111570972Y-60258521D01*
X111592015Y-60271133D01*
X111611721Y-60285748D01*
X111629899Y-60302224D01*
X111646375Y-60320402D01*
X111660990Y-60340108D01*
X111673602Y-60361151D01*
X111684092Y-60383330D01*
X111692357Y-60406429D01*
X111698318Y-60430228D01*
X111701918Y-60454496D01*
X111703122Y-60479000D01*
X111703122Y-61129002D01*
X111701918Y-61153506D01*
X111698318Y-61177774D01*
X111692357Y-61201573D01*
X111684092Y-61224672D01*
X111673602Y-61246851D01*
X111660990Y-61267894D01*
X111646375Y-61287600D01*
X111629899Y-61305778D01*
X111611721Y-61322254D01*
X111592015Y-61336869D01*
X111570972Y-61349481D01*
X111548793Y-61359971D01*
X111525694Y-61368236D01*
X111501895Y-61374197D01*
X111477627Y-61377797D01*
X111453123Y-61379001D01*
X110553121Y-61379001D01*
X110528617Y-61377797D01*
X110504349Y-61374197D01*
X110480550Y-61368236D01*
X110457451Y-61359971D01*
X110435272Y-61349481D01*
X110414229Y-61336869D01*
X110394523Y-61322254D01*
X110376345Y-61305778D01*
X110359869Y-61287600D01*
X110345254Y-61267894D01*
X110332642Y-61246851D01*
X110322152Y-61224672D01*
X110313887Y-61201573D01*
X110307926Y-61177774D01*
X110304326Y-61153506D01*
X110303122Y-61129002D01*
X110303122Y-60479000D01*
X110304326Y-60454496D01*
X110307926Y-60430228D01*
X110313887Y-60406429D01*
X110322152Y-60383330D01*
X110332642Y-60361151D01*
X110345254Y-60340108D01*
X110359869Y-60320402D01*
X110376345Y-60302224D01*
X110394523Y-60285748D01*
X110414229Y-60271133D01*
X110435272Y-60258521D01*
X110457451Y-60248031D01*
X110480550Y-60239766D01*
X110504349Y-60233805D01*
X110528617Y-60230205D01*
X110553121Y-60229001D01*
X111453123Y-60229001D01*
X111477627Y-60230205D01*
G37*
G04 #@! TD*
G04 #@! TO.C,R10*
G36*
X107667627Y-58180205D02*
G01*
X107691895Y-58183805D01*
X107715694Y-58189766D01*
X107738793Y-58198031D01*
X107760972Y-58208521D01*
X107782015Y-58221133D01*
X107801721Y-58235748D01*
X107819899Y-58252224D01*
X107836375Y-58270402D01*
X107850990Y-58290108D01*
X107863602Y-58311151D01*
X107874092Y-58333330D01*
X107882357Y-58356429D01*
X107888318Y-58380228D01*
X107891918Y-58404496D01*
X107893122Y-58429000D01*
X107893122Y-59079002D01*
X107891918Y-59103506D01*
X107888318Y-59127774D01*
X107882357Y-59151573D01*
X107874092Y-59174672D01*
X107863602Y-59196851D01*
X107850990Y-59217894D01*
X107836375Y-59237600D01*
X107819899Y-59255778D01*
X107801721Y-59272254D01*
X107782015Y-59286869D01*
X107760972Y-59299481D01*
X107738793Y-59309971D01*
X107715694Y-59318236D01*
X107691895Y-59324197D01*
X107667627Y-59327797D01*
X107643123Y-59329001D01*
X106743121Y-59329001D01*
X106718617Y-59327797D01*
X106694349Y-59324197D01*
X106670550Y-59318236D01*
X106647451Y-59309971D01*
X106625272Y-59299481D01*
X106604229Y-59286869D01*
X106584523Y-59272254D01*
X106566345Y-59255778D01*
X106549869Y-59237600D01*
X106535254Y-59217894D01*
X106522642Y-59196851D01*
X106512152Y-59174672D01*
X106503887Y-59151573D01*
X106497926Y-59127774D01*
X106494326Y-59103506D01*
X106493122Y-59079002D01*
X106493122Y-58429000D01*
X106494326Y-58404496D01*
X106497926Y-58380228D01*
X106503887Y-58356429D01*
X106512152Y-58333330D01*
X106522642Y-58311151D01*
X106535254Y-58290108D01*
X106549869Y-58270402D01*
X106566345Y-58252224D01*
X106584523Y-58235748D01*
X106604229Y-58221133D01*
X106625272Y-58208521D01*
X106647451Y-58198031D01*
X106670550Y-58189766D01*
X106694349Y-58183805D01*
X106718617Y-58180205D01*
X106743121Y-58179001D01*
X107643123Y-58179001D01*
X107667627Y-58180205D01*
G37*
G36*
X107667627Y-60230205D02*
G01*
X107691895Y-60233805D01*
X107715694Y-60239766D01*
X107738793Y-60248031D01*
X107760972Y-60258521D01*
X107782015Y-60271133D01*
X107801721Y-60285748D01*
X107819899Y-60302224D01*
X107836375Y-60320402D01*
X107850990Y-60340108D01*
X107863602Y-60361151D01*
X107874092Y-60383330D01*
X107882357Y-60406429D01*
X107888318Y-60430228D01*
X107891918Y-60454496D01*
X107893122Y-60479000D01*
X107893122Y-61129002D01*
X107891918Y-61153506D01*
X107888318Y-61177774D01*
X107882357Y-61201573D01*
X107874092Y-61224672D01*
X107863602Y-61246851D01*
X107850990Y-61267894D01*
X107836375Y-61287600D01*
X107819899Y-61305778D01*
X107801721Y-61322254D01*
X107782015Y-61336869D01*
X107760972Y-61349481D01*
X107738793Y-61359971D01*
X107715694Y-61368236D01*
X107691895Y-61374197D01*
X107667627Y-61377797D01*
X107643123Y-61379001D01*
X106743121Y-61379001D01*
X106718617Y-61377797D01*
X106694349Y-61374197D01*
X106670550Y-61368236D01*
X106647451Y-61359971D01*
X106625272Y-61349481D01*
X106604229Y-61336869D01*
X106584523Y-61322254D01*
X106566345Y-61305778D01*
X106549869Y-61287600D01*
X106535254Y-61267894D01*
X106522642Y-61246851D01*
X106512152Y-61224672D01*
X106503887Y-61201573D01*
X106497926Y-61177774D01*
X106494326Y-61153506D01*
X106493122Y-61129002D01*
X106493122Y-60479000D01*
X106494326Y-60454496D01*
X106497926Y-60430228D01*
X106503887Y-60406429D01*
X106512152Y-60383330D01*
X106522642Y-60361151D01*
X106535254Y-60340108D01*
X106549869Y-60320402D01*
X106566345Y-60302224D01*
X106584523Y-60285748D01*
X106604229Y-60271133D01*
X106625272Y-60258521D01*
X106647451Y-60248031D01*
X106670550Y-60239766D01*
X106694349Y-60233805D01*
X106718617Y-60230205D01*
X106743121Y-60229001D01*
X107643123Y-60229001D01*
X107667627Y-60230205D01*
G37*
G04 #@! TD*
G04 #@! TO.C,C2*
G36*
X105402627Y-57975205D02*
G01*
X105426895Y-57978805D01*
X105450694Y-57984766D01*
X105473793Y-57993031D01*
X105495972Y-58003521D01*
X105517015Y-58016133D01*
X105536721Y-58030748D01*
X105554899Y-58047224D01*
X105571375Y-58065402D01*
X105585990Y-58085108D01*
X105598602Y-58106151D01*
X105609092Y-58128330D01*
X105617357Y-58151429D01*
X105623318Y-58175228D01*
X105626918Y-58199496D01*
X105628122Y-58224000D01*
X105628122Y-59124002D01*
X105626918Y-59148506D01*
X105623318Y-59172774D01*
X105617357Y-59196573D01*
X105609092Y-59219672D01*
X105598602Y-59241851D01*
X105585990Y-59262894D01*
X105571375Y-59282600D01*
X105554899Y-59300778D01*
X105536721Y-59317254D01*
X105517015Y-59331869D01*
X105495972Y-59344481D01*
X105473793Y-59354971D01*
X105450694Y-59363236D01*
X105426895Y-59369197D01*
X105402627Y-59372797D01*
X105378123Y-59374001D01*
X104728121Y-59374001D01*
X104703617Y-59372797D01*
X104679349Y-59369197D01*
X104655550Y-59363236D01*
X104632451Y-59354971D01*
X104610272Y-59344481D01*
X104589229Y-59331869D01*
X104569523Y-59317254D01*
X104551345Y-59300778D01*
X104534869Y-59282600D01*
X104520254Y-59262894D01*
X104507642Y-59241851D01*
X104497152Y-59219672D01*
X104488887Y-59196573D01*
X104482926Y-59172774D01*
X104479326Y-59148506D01*
X104478122Y-59124002D01*
X104478122Y-58224000D01*
X104479326Y-58199496D01*
X104482926Y-58175228D01*
X104488887Y-58151429D01*
X104497152Y-58128330D01*
X104507642Y-58106151D01*
X104520254Y-58085108D01*
X104534869Y-58065402D01*
X104551345Y-58047224D01*
X104569523Y-58030748D01*
X104589229Y-58016133D01*
X104610272Y-58003521D01*
X104632451Y-57993031D01*
X104655550Y-57984766D01*
X104679349Y-57978805D01*
X104703617Y-57975205D01*
X104728121Y-57974001D01*
X105378123Y-57974001D01*
X105402627Y-57975205D01*
G37*
G36*
X103352627Y-57975205D02*
G01*
X103376895Y-57978805D01*
X103400694Y-57984766D01*
X103423793Y-57993031D01*
X103445972Y-58003521D01*
X103467015Y-58016133D01*
X103486721Y-58030748D01*
X103504899Y-58047224D01*
X103521375Y-58065402D01*
X103535990Y-58085108D01*
X103548602Y-58106151D01*
X103559092Y-58128330D01*
X103567357Y-58151429D01*
X103573318Y-58175228D01*
X103576918Y-58199496D01*
X103578122Y-58224000D01*
X103578122Y-59124002D01*
X103576918Y-59148506D01*
X103573318Y-59172774D01*
X103567357Y-59196573D01*
X103559092Y-59219672D01*
X103548602Y-59241851D01*
X103535990Y-59262894D01*
X103521375Y-59282600D01*
X103504899Y-59300778D01*
X103486721Y-59317254D01*
X103467015Y-59331869D01*
X103445972Y-59344481D01*
X103423793Y-59354971D01*
X103400694Y-59363236D01*
X103376895Y-59369197D01*
X103352627Y-59372797D01*
X103328123Y-59374001D01*
X102678121Y-59374001D01*
X102653617Y-59372797D01*
X102629349Y-59369197D01*
X102605550Y-59363236D01*
X102582451Y-59354971D01*
X102560272Y-59344481D01*
X102539229Y-59331869D01*
X102519523Y-59317254D01*
X102501345Y-59300778D01*
X102484869Y-59282600D01*
X102470254Y-59262894D01*
X102457642Y-59241851D01*
X102447152Y-59219672D01*
X102438887Y-59196573D01*
X102432926Y-59172774D01*
X102429326Y-59148506D01*
X102428122Y-59124002D01*
X102428122Y-58224000D01*
X102429326Y-58199496D01*
X102432926Y-58175228D01*
X102438887Y-58151429D01*
X102447152Y-58128330D01*
X102457642Y-58106151D01*
X102470254Y-58085108D01*
X102484869Y-58065402D01*
X102501345Y-58047224D01*
X102519523Y-58030748D01*
X102539229Y-58016133D01*
X102560272Y-58003521D01*
X102582451Y-57993031D01*
X102605550Y-57984766D01*
X102629349Y-57978805D01*
X102653617Y-57975205D01*
X102678121Y-57974001D01*
X103328123Y-57974001D01*
X103352627Y-57975205D01*
G37*
G04 #@! TD*
G04 #@! TO.C,R11*
G36*
X103352627Y-59625205D02*
G01*
X103376895Y-59628805D01*
X103400694Y-59634766D01*
X103423793Y-59643031D01*
X103445972Y-59653521D01*
X103467015Y-59666133D01*
X103486721Y-59680748D01*
X103504899Y-59697224D01*
X103521375Y-59715402D01*
X103535990Y-59735108D01*
X103548602Y-59756151D01*
X103559092Y-59778330D01*
X103567357Y-59801429D01*
X103573318Y-59825228D01*
X103576918Y-59849496D01*
X103578122Y-59874000D01*
X103578122Y-60774002D01*
X103576918Y-60798506D01*
X103573318Y-60822774D01*
X103567357Y-60846573D01*
X103559092Y-60869672D01*
X103548602Y-60891851D01*
X103535990Y-60912894D01*
X103521375Y-60932600D01*
X103504899Y-60950778D01*
X103486721Y-60967254D01*
X103467015Y-60981869D01*
X103445972Y-60994481D01*
X103423793Y-61004971D01*
X103400694Y-61013236D01*
X103376895Y-61019197D01*
X103352627Y-61022797D01*
X103328123Y-61024001D01*
X102678121Y-61024001D01*
X102653617Y-61022797D01*
X102629349Y-61019197D01*
X102605550Y-61013236D01*
X102582451Y-61004971D01*
X102560272Y-60994481D01*
X102539229Y-60981869D01*
X102519523Y-60967254D01*
X102501345Y-60950778D01*
X102484869Y-60932600D01*
X102470254Y-60912894D01*
X102457642Y-60891851D01*
X102447152Y-60869672D01*
X102438887Y-60846573D01*
X102432926Y-60822774D01*
X102429326Y-60798506D01*
X102428122Y-60774002D01*
X102428122Y-59874000D01*
X102429326Y-59849496D01*
X102432926Y-59825228D01*
X102438887Y-59801429D01*
X102447152Y-59778330D01*
X102457642Y-59756151D01*
X102470254Y-59735108D01*
X102484869Y-59715402D01*
X102501345Y-59697224D01*
X102519523Y-59680748D01*
X102539229Y-59666133D01*
X102560272Y-59653521D01*
X102582451Y-59643031D01*
X102605550Y-59634766D01*
X102629349Y-59628805D01*
X102653617Y-59625205D01*
X102678121Y-59624001D01*
X103328123Y-59624001D01*
X103352627Y-59625205D01*
G37*
G36*
X105402627Y-59625205D02*
G01*
X105426895Y-59628805D01*
X105450694Y-59634766D01*
X105473793Y-59643031D01*
X105495972Y-59653521D01*
X105517015Y-59666133D01*
X105536721Y-59680748D01*
X105554899Y-59697224D01*
X105571375Y-59715402D01*
X105585990Y-59735108D01*
X105598602Y-59756151D01*
X105609092Y-59778330D01*
X105617357Y-59801429D01*
X105623318Y-59825228D01*
X105626918Y-59849496D01*
X105628122Y-59874000D01*
X105628122Y-60774002D01*
X105626918Y-60798506D01*
X105623318Y-60822774D01*
X105617357Y-60846573D01*
X105609092Y-60869672D01*
X105598602Y-60891851D01*
X105585990Y-60912894D01*
X105571375Y-60932600D01*
X105554899Y-60950778D01*
X105536721Y-60967254D01*
X105517015Y-60981869D01*
X105495972Y-60994481D01*
X105473793Y-61004971D01*
X105450694Y-61013236D01*
X105426895Y-61019197D01*
X105402627Y-61022797D01*
X105378123Y-61024001D01*
X104728121Y-61024001D01*
X104703617Y-61022797D01*
X104679349Y-61019197D01*
X104655550Y-61013236D01*
X104632451Y-61004971D01*
X104610272Y-60994481D01*
X104589229Y-60981869D01*
X104569523Y-60967254D01*
X104551345Y-60950778D01*
X104534869Y-60932600D01*
X104520254Y-60912894D01*
X104507642Y-60891851D01*
X104497152Y-60869672D01*
X104488887Y-60846573D01*
X104482926Y-60822774D01*
X104479326Y-60798506D01*
X104478122Y-60774002D01*
X104478122Y-59874000D01*
X104479326Y-59849496D01*
X104482926Y-59825228D01*
X104488887Y-59801429D01*
X104497152Y-59778330D01*
X104507642Y-59756151D01*
X104520254Y-59735108D01*
X104534869Y-59715402D01*
X104551345Y-59697224D01*
X104569523Y-59680748D01*
X104589229Y-59666133D01*
X104610272Y-59653521D01*
X104632451Y-59643031D01*
X104655550Y-59634766D01*
X104679349Y-59628805D01*
X104703617Y-59625205D01*
X104728121Y-59624001D01*
X105378123Y-59624001D01*
X105402627Y-59625205D01*
G37*
G04 #@! TD*
G04 #@! TO.C,R12*
G36*
X99702627Y-59625205D02*
G01*
X99726895Y-59628805D01*
X99750694Y-59634766D01*
X99773793Y-59643031D01*
X99795972Y-59653521D01*
X99817015Y-59666133D01*
X99836721Y-59680748D01*
X99854899Y-59697224D01*
X99871375Y-59715402D01*
X99885990Y-59735108D01*
X99898602Y-59756151D01*
X99909092Y-59778330D01*
X99917357Y-59801429D01*
X99923318Y-59825228D01*
X99926918Y-59849496D01*
X99928122Y-59874000D01*
X99928122Y-60774002D01*
X99926918Y-60798506D01*
X99923318Y-60822774D01*
X99917357Y-60846573D01*
X99909092Y-60869672D01*
X99898602Y-60891851D01*
X99885990Y-60912894D01*
X99871375Y-60932600D01*
X99854899Y-60950778D01*
X99836721Y-60967254D01*
X99817015Y-60981869D01*
X99795972Y-60994481D01*
X99773793Y-61004971D01*
X99750694Y-61013236D01*
X99726895Y-61019197D01*
X99702627Y-61022797D01*
X99678123Y-61024001D01*
X99028121Y-61024001D01*
X99003617Y-61022797D01*
X98979349Y-61019197D01*
X98955550Y-61013236D01*
X98932451Y-61004971D01*
X98910272Y-60994481D01*
X98889229Y-60981869D01*
X98869523Y-60967254D01*
X98851345Y-60950778D01*
X98834869Y-60932600D01*
X98820254Y-60912894D01*
X98807642Y-60891851D01*
X98797152Y-60869672D01*
X98788887Y-60846573D01*
X98782926Y-60822774D01*
X98779326Y-60798506D01*
X98778122Y-60774002D01*
X98778122Y-59874000D01*
X98779326Y-59849496D01*
X98782926Y-59825228D01*
X98788887Y-59801429D01*
X98797152Y-59778330D01*
X98807642Y-59756151D01*
X98820254Y-59735108D01*
X98834869Y-59715402D01*
X98851345Y-59697224D01*
X98869523Y-59680748D01*
X98889229Y-59666133D01*
X98910272Y-59653521D01*
X98932451Y-59643031D01*
X98955550Y-59634766D01*
X98979349Y-59628805D01*
X99003617Y-59625205D01*
X99028121Y-59624001D01*
X99678123Y-59624001D01*
X99702627Y-59625205D01*
G37*
G36*
X101752627Y-59625205D02*
G01*
X101776895Y-59628805D01*
X101800694Y-59634766D01*
X101823793Y-59643031D01*
X101845972Y-59653521D01*
X101867015Y-59666133D01*
X101886721Y-59680748D01*
X101904899Y-59697224D01*
X101921375Y-59715402D01*
X101935990Y-59735108D01*
X101948602Y-59756151D01*
X101959092Y-59778330D01*
X101967357Y-59801429D01*
X101973318Y-59825228D01*
X101976918Y-59849496D01*
X101978122Y-59874000D01*
X101978122Y-60774002D01*
X101976918Y-60798506D01*
X101973318Y-60822774D01*
X101967357Y-60846573D01*
X101959092Y-60869672D01*
X101948602Y-60891851D01*
X101935990Y-60912894D01*
X101921375Y-60932600D01*
X101904899Y-60950778D01*
X101886721Y-60967254D01*
X101867015Y-60981869D01*
X101845972Y-60994481D01*
X101823793Y-61004971D01*
X101800694Y-61013236D01*
X101776895Y-61019197D01*
X101752627Y-61022797D01*
X101728123Y-61024001D01*
X101078121Y-61024001D01*
X101053617Y-61022797D01*
X101029349Y-61019197D01*
X101005550Y-61013236D01*
X100982451Y-61004971D01*
X100960272Y-60994481D01*
X100939229Y-60981869D01*
X100919523Y-60967254D01*
X100901345Y-60950778D01*
X100884869Y-60932600D01*
X100870254Y-60912894D01*
X100857642Y-60891851D01*
X100847152Y-60869672D01*
X100838887Y-60846573D01*
X100832926Y-60822774D01*
X100829326Y-60798506D01*
X100828122Y-60774002D01*
X100828122Y-59874000D01*
X100829326Y-59849496D01*
X100832926Y-59825228D01*
X100838887Y-59801429D01*
X100847152Y-59778330D01*
X100857642Y-59756151D01*
X100870254Y-59735108D01*
X100884869Y-59715402D01*
X100901345Y-59697224D01*
X100919523Y-59680748D01*
X100939229Y-59666133D01*
X100960272Y-59653521D01*
X100982451Y-59643031D01*
X101005550Y-59634766D01*
X101029349Y-59628805D01*
X101053617Y-59625205D01*
X101078121Y-59624001D01*
X101728123Y-59624001D01*
X101752627Y-59625205D01*
G37*
G04 #@! TD*
D12*
G04 #@! TO.C,J2*
X126171022Y-52032001D03*
X123401022Y-52032001D03*
X120631022Y-52032001D03*
X117861022Y-52032001D03*
X115091022Y-52032001D03*
X112321022Y-52032001D03*
X109551022Y-52032001D03*
X106781022Y-52032001D03*
X104011022Y-52032001D03*
X101241022Y-52032001D03*
X98471022Y-52032001D03*
X95701022Y-52032001D03*
X92931022Y-52032001D03*
G04 #@! TD*
D11*
G04 #@! TO.C,U1*
G36*
X79984403Y-60099483D02*
G01*
X79994110Y-60100922D01*
X80003629Y-60103307D01*
X80012869Y-60106613D01*
X80021741Y-60110809D01*
X80030158Y-60115854D01*
X80038040Y-60121700D01*
X80045312Y-60128290D01*
X80051902Y-60135562D01*
X80057748Y-60143444D01*
X80062793Y-60151861D01*
X80066989Y-60160733D01*
X80070295Y-60169973D01*
X80072680Y-60179492D01*
X80074119Y-60189199D01*
X80074601Y-60199001D01*
X80074601Y-60399001D01*
X80074119Y-60408803D01*
X80072680Y-60418510D01*
X80070295Y-60428029D01*
X80066989Y-60437269D01*
X80062793Y-60446141D01*
X80057748Y-60454558D01*
X80051902Y-60462440D01*
X80045312Y-60469712D01*
X80038040Y-60476302D01*
X80030158Y-60482148D01*
X80021741Y-60487193D01*
X80012869Y-60491389D01*
X80003629Y-60494695D01*
X79994110Y-60497080D01*
X79984403Y-60498519D01*
X79974601Y-60499001D01*
X78699601Y-60499001D01*
X78689799Y-60498519D01*
X78680092Y-60497080D01*
X78670573Y-60494695D01*
X78661333Y-60491389D01*
X78652461Y-60487193D01*
X78644044Y-60482148D01*
X78636162Y-60476302D01*
X78628890Y-60469712D01*
X78622300Y-60462440D01*
X78616454Y-60454558D01*
X78611409Y-60446141D01*
X78607213Y-60437269D01*
X78603907Y-60428029D01*
X78601522Y-60418510D01*
X78600083Y-60408803D01*
X78599601Y-60399001D01*
X78599601Y-60199001D01*
X78600083Y-60189199D01*
X78601522Y-60179492D01*
X78603907Y-60169973D01*
X78607213Y-60160733D01*
X78611409Y-60151861D01*
X78616454Y-60143444D01*
X78622300Y-60135562D01*
X78628890Y-60128290D01*
X78636162Y-60121700D01*
X78644044Y-60115854D01*
X78652461Y-60110809D01*
X78661333Y-60106613D01*
X78670573Y-60103307D01*
X78680092Y-60100922D01*
X78689799Y-60099483D01*
X78699601Y-60099001D01*
X79974601Y-60099001D01*
X79984403Y-60099483D01*
G37*
G36*
X79984403Y-59449483D02*
G01*
X79994110Y-59450922D01*
X80003629Y-59453307D01*
X80012869Y-59456613D01*
X80021741Y-59460809D01*
X80030158Y-59465854D01*
X80038040Y-59471700D01*
X80045312Y-59478290D01*
X80051902Y-59485562D01*
X80057748Y-59493444D01*
X80062793Y-59501861D01*
X80066989Y-59510733D01*
X80070295Y-59519973D01*
X80072680Y-59529492D01*
X80074119Y-59539199D01*
X80074601Y-59549001D01*
X80074601Y-59749001D01*
X80074119Y-59758803D01*
X80072680Y-59768510D01*
X80070295Y-59778029D01*
X80066989Y-59787269D01*
X80062793Y-59796141D01*
X80057748Y-59804558D01*
X80051902Y-59812440D01*
X80045312Y-59819712D01*
X80038040Y-59826302D01*
X80030158Y-59832148D01*
X80021741Y-59837193D01*
X80012869Y-59841389D01*
X80003629Y-59844695D01*
X79994110Y-59847080D01*
X79984403Y-59848519D01*
X79974601Y-59849001D01*
X78699601Y-59849001D01*
X78689799Y-59848519D01*
X78680092Y-59847080D01*
X78670573Y-59844695D01*
X78661333Y-59841389D01*
X78652461Y-59837193D01*
X78644044Y-59832148D01*
X78636162Y-59826302D01*
X78628890Y-59819712D01*
X78622300Y-59812440D01*
X78616454Y-59804558D01*
X78611409Y-59796141D01*
X78607213Y-59787269D01*
X78603907Y-59778029D01*
X78601522Y-59768510D01*
X78600083Y-59758803D01*
X78599601Y-59749001D01*
X78599601Y-59549001D01*
X78600083Y-59539199D01*
X78601522Y-59529492D01*
X78603907Y-59519973D01*
X78607213Y-59510733D01*
X78611409Y-59501861D01*
X78616454Y-59493444D01*
X78622300Y-59485562D01*
X78628890Y-59478290D01*
X78636162Y-59471700D01*
X78644044Y-59465854D01*
X78652461Y-59460809D01*
X78661333Y-59456613D01*
X78670573Y-59453307D01*
X78680092Y-59450922D01*
X78689799Y-59449483D01*
X78699601Y-59449001D01*
X79974601Y-59449001D01*
X79984403Y-59449483D01*
G37*
G36*
X79984403Y-58799483D02*
G01*
X79994110Y-58800922D01*
X80003629Y-58803307D01*
X80012869Y-58806613D01*
X80021741Y-58810809D01*
X80030158Y-58815854D01*
X80038040Y-58821700D01*
X80045312Y-58828290D01*
X80051902Y-58835562D01*
X80057748Y-58843444D01*
X80062793Y-58851861D01*
X80066989Y-58860733D01*
X80070295Y-58869973D01*
X80072680Y-58879492D01*
X80074119Y-58889199D01*
X80074601Y-58899001D01*
X80074601Y-59099001D01*
X80074119Y-59108803D01*
X80072680Y-59118510D01*
X80070295Y-59128029D01*
X80066989Y-59137269D01*
X80062793Y-59146141D01*
X80057748Y-59154558D01*
X80051902Y-59162440D01*
X80045312Y-59169712D01*
X80038040Y-59176302D01*
X80030158Y-59182148D01*
X80021741Y-59187193D01*
X80012869Y-59191389D01*
X80003629Y-59194695D01*
X79994110Y-59197080D01*
X79984403Y-59198519D01*
X79974601Y-59199001D01*
X78699601Y-59199001D01*
X78689799Y-59198519D01*
X78680092Y-59197080D01*
X78670573Y-59194695D01*
X78661333Y-59191389D01*
X78652461Y-59187193D01*
X78644044Y-59182148D01*
X78636162Y-59176302D01*
X78628890Y-59169712D01*
X78622300Y-59162440D01*
X78616454Y-59154558D01*
X78611409Y-59146141D01*
X78607213Y-59137269D01*
X78603907Y-59128029D01*
X78601522Y-59118510D01*
X78600083Y-59108803D01*
X78599601Y-59099001D01*
X78599601Y-58899001D01*
X78600083Y-58889199D01*
X78601522Y-58879492D01*
X78603907Y-58869973D01*
X78607213Y-58860733D01*
X78611409Y-58851861D01*
X78616454Y-58843444D01*
X78622300Y-58835562D01*
X78628890Y-58828290D01*
X78636162Y-58821700D01*
X78644044Y-58815854D01*
X78652461Y-58810809D01*
X78661333Y-58806613D01*
X78670573Y-58803307D01*
X78680092Y-58800922D01*
X78689799Y-58799483D01*
X78699601Y-58799001D01*
X79974601Y-58799001D01*
X79984403Y-58799483D01*
G37*
G36*
X79984403Y-58149483D02*
G01*
X79994110Y-58150922D01*
X80003629Y-58153307D01*
X80012869Y-58156613D01*
X80021741Y-58160809D01*
X80030158Y-58165854D01*
X80038040Y-58171700D01*
X80045312Y-58178290D01*
X80051902Y-58185562D01*
X80057748Y-58193444D01*
X80062793Y-58201861D01*
X80066989Y-58210733D01*
X80070295Y-58219973D01*
X80072680Y-58229492D01*
X80074119Y-58239199D01*
X80074601Y-58249001D01*
X80074601Y-58449001D01*
X80074119Y-58458803D01*
X80072680Y-58468510D01*
X80070295Y-58478029D01*
X80066989Y-58487269D01*
X80062793Y-58496141D01*
X80057748Y-58504558D01*
X80051902Y-58512440D01*
X80045312Y-58519712D01*
X80038040Y-58526302D01*
X80030158Y-58532148D01*
X80021741Y-58537193D01*
X80012869Y-58541389D01*
X80003629Y-58544695D01*
X79994110Y-58547080D01*
X79984403Y-58548519D01*
X79974601Y-58549001D01*
X78699601Y-58549001D01*
X78689799Y-58548519D01*
X78680092Y-58547080D01*
X78670573Y-58544695D01*
X78661333Y-58541389D01*
X78652461Y-58537193D01*
X78644044Y-58532148D01*
X78636162Y-58526302D01*
X78628890Y-58519712D01*
X78622300Y-58512440D01*
X78616454Y-58504558D01*
X78611409Y-58496141D01*
X78607213Y-58487269D01*
X78603907Y-58478029D01*
X78601522Y-58468510D01*
X78600083Y-58458803D01*
X78599601Y-58449001D01*
X78599601Y-58249001D01*
X78600083Y-58239199D01*
X78601522Y-58229492D01*
X78603907Y-58219973D01*
X78607213Y-58210733D01*
X78611409Y-58201861D01*
X78616454Y-58193444D01*
X78622300Y-58185562D01*
X78628890Y-58178290D01*
X78636162Y-58171700D01*
X78644044Y-58165854D01*
X78652461Y-58160809D01*
X78661333Y-58156613D01*
X78670573Y-58153307D01*
X78680092Y-58150922D01*
X78689799Y-58149483D01*
X78699601Y-58149001D01*
X79974601Y-58149001D01*
X79984403Y-58149483D01*
G37*
G36*
X74259403Y-58149483D02*
G01*
X74269110Y-58150922D01*
X74278629Y-58153307D01*
X74287869Y-58156613D01*
X74296741Y-58160809D01*
X74305158Y-58165854D01*
X74313040Y-58171700D01*
X74320312Y-58178290D01*
X74326902Y-58185562D01*
X74332748Y-58193444D01*
X74337793Y-58201861D01*
X74341989Y-58210733D01*
X74345295Y-58219973D01*
X74347680Y-58229492D01*
X74349119Y-58239199D01*
X74349601Y-58249001D01*
X74349601Y-58449001D01*
X74349119Y-58458803D01*
X74347680Y-58468510D01*
X74345295Y-58478029D01*
X74341989Y-58487269D01*
X74337793Y-58496141D01*
X74332748Y-58504558D01*
X74326902Y-58512440D01*
X74320312Y-58519712D01*
X74313040Y-58526302D01*
X74305158Y-58532148D01*
X74296741Y-58537193D01*
X74287869Y-58541389D01*
X74278629Y-58544695D01*
X74269110Y-58547080D01*
X74259403Y-58548519D01*
X74249601Y-58549001D01*
X72974601Y-58549001D01*
X72964799Y-58548519D01*
X72955092Y-58547080D01*
X72945573Y-58544695D01*
X72936333Y-58541389D01*
X72927461Y-58537193D01*
X72919044Y-58532148D01*
X72911162Y-58526302D01*
X72903890Y-58519712D01*
X72897300Y-58512440D01*
X72891454Y-58504558D01*
X72886409Y-58496141D01*
X72882213Y-58487269D01*
X72878907Y-58478029D01*
X72876522Y-58468510D01*
X72875083Y-58458803D01*
X72874601Y-58449001D01*
X72874601Y-58249001D01*
X72875083Y-58239199D01*
X72876522Y-58229492D01*
X72878907Y-58219973D01*
X72882213Y-58210733D01*
X72886409Y-58201861D01*
X72891454Y-58193444D01*
X72897300Y-58185562D01*
X72903890Y-58178290D01*
X72911162Y-58171700D01*
X72919044Y-58165854D01*
X72927461Y-58160809D01*
X72936333Y-58156613D01*
X72945573Y-58153307D01*
X72955092Y-58150922D01*
X72964799Y-58149483D01*
X72974601Y-58149001D01*
X74249601Y-58149001D01*
X74259403Y-58149483D01*
G37*
G36*
X74259403Y-58799483D02*
G01*
X74269110Y-58800922D01*
X74278629Y-58803307D01*
X74287869Y-58806613D01*
X74296741Y-58810809D01*
X74305158Y-58815854D01*
X74313040Y-58821700D01*
X74320312Y-58828290D01*
X74326902Y-58835562D01*
X74332748Y-58843444D01*
X74337793Y-58851861D01*
X74341989Y-58860733D01*
X74345295Y-58869973D01*
X74347680Y-58879492D01*
X74349119Y-58889199D01*
X74349601Y-58899001D01*
X74349601Y-59099001D01*
X74349119Y-59108803D01*
X74347680Y-59118510D01*
X74345295Y-59128029D01*
X74341989Y-59137269D01*
X74337793Y-59146141D01*
X74332748Y-59154558D01*
X74326902Y-59162440D01*
X74320312Y-59169712D01*
X74313040Y-59176302D01*
X74305158Y-59182148D01*
X74296741Y-59187193D01*
X74287869Y-59191389D01*
X74278629Y-59194695D01*
X74269110Y-59197080D01*
X74259403Y-59198519D01*
X74249601Y-59199001D01*
X72974601Y-59199001D01*
X72964799Y-59198519D01*
X72955092Y-59197080D01*
X72945573Y-59194695D01*
X72936333Y-59191389D01*
X72927461Y-59187193D01*
X72919044Y-59182148D01*
X72911162Y-59176302D01*
X72903890Y-59169712D01*
X72897300Y-59162440D01*
X72891454Y-59154558D01*
X72886409Y-59146141D01*
X72882213Y-59137269D01*
X72878907Y-59128029D01*
X72876522Y-59118510D01*
X72875083Y-59108803D01*
X72874601Y-59099001D01*
X72874601Y-58899001D01*
X72875083Y-58889199D01*
X72876522Y-58879492D01*
X72878907Y-58869973D01*
X72882213Y-58860733D01*
X72886409Y-58851861D01*
X72891454Y-58843444D01*
X72897300Y-58835562D01*
X72903890Y-58828290D01*
X72911162Y-58821700D01*
X72919044Y-58815854D01*
X72927461Y-58810809D01*
X72936333Y-58806613D01*
X72945573Y-58803307D01*
X72955092Y-58800922D01*
X72964799Y-58799483D01*
X72974601Y-58799001D01*
X74249601Y-58799001D01*
X74259403Y-58799483D01*
G37*
G36*
X74259403Y-59449483D02*
G01*
X74269110Y-59450922D01*
X74278629Y-59453307D01*
X74287869Y-59456613D01*
X74296741Y-59460809D01*
X74305158Y-59465854D01*
X74313040Y-59471700D01*
X74320312Y-59478290D01*
X74326902Y-59485562D01*
X74332748Y-59493444D01*
X74337793Y-59501861D01*
X74341989Y-59510733D01*
X74345295Y-59519973D01*
X74347680Y-59529492D01*
X74349119Y-59539199D01*
X74349601Y-59549001D01*
X74349601Y-59749001D01*
X74349119Y-59758803D01*
X74347680Y-59768510D01*
X74345295Y-59778029D01*
X74341989Y-59787269D01*
X74337793Y-59796141D01*
X74332748Y-59804558D01*
X74326902Y-59812440D01*
X74320312Y-59819712D01*
X74313040Y-59826302D01*
X74305158Y-59832148D01*
X74296741Y-59837193D01*
X74287869Y-59841389D01*
X74278629Y-59844695D01*
X74269110Y-59847080D01*
X74259403Y-59848519D01*
X74249601Y-59849001D01*
X72974601Y-59849001D01*
X72964799Y-59848519D01*
X72955092Y-59847080D01*
X72945573Y-59844695D01*
X72936333Y-59841389D01*
X72927461Y-59837193D01*
X72919044Y-59832148D01*
X72911162Y-59826302D01*
X72903890Y-59819712D01*
X72897300Y-59812440D01*
X72891454Y-59804558D01*
X72886409Y-59796141D01*
X72882213Y-59787269D01*
X72878907Y-59778029D01*
X72876522Y-59768510D01*
X72875083Y-59758803D01*
X72874601Y-59749001D01*
X72874601Y-59549001D01*
X72875083Y-59539199D01*
X72876522Y-59529492D01*
X72878907Y-59519973D01*
X72882213Y-59510733D01*
X72886409Y-59501861D01*
X72891454Y-59493444D01*
X72897300Y-59485562D01*
X72903890Y-59478290D01*
X72911162Y-59471700D01*
X72919044Y-59465854D01*
X72927461Y-59460809D01*
X72936333Y-59456613D01*
X72945573Y-59453307D01*
X72955092Y-59450922D01*
X72964799Y-59449483D01*
X72974601Y-59449001D01*
X74249601Y-59449001D01*
X74259403Y-59449483D01*
G37*
G36*
X74259403Y-60099483D02*
G01*
X74269110Y-60100922D01*
X74278629Y-60103307D01*
X74287869Y-60106613D01*
X74296741Y-60110809D01*
X74305158Y-60115854D01*
X74313040Y-60121700D01*
X74320312Y-60128290D01*
X74326902Y-60135562D01*
X74332748Y-60143444D01*
X74337793Y-60151861D01*
X74341989Y-60160733D01*
X74345295Y-60169973D01*
X74347680Y-60179492D01*
X74349119Y-60189199D01*
X74349601Y-60199001D01*
X74349601Y-60399001D01*
X74349119Y-60408803D01*
X74347680Y-60418510D01*
X74345295Y-60428029D01*
X74341989Y-60437269D01*
X74337793Y-60446141D01*
X74332748Y-60454558D01*
X74326902Y-60462440D01*
X74320312Y-60469712D01*
X74313040Y-60476302D01*
X74305158Y-60482148D01*
X74296741Y-60487193D01*
X74287869Y-60491389D01*
X74278629Y-60494695D01*
X74269110Y-60497080D01*
X74259403Y-60498519D01*
X74249601Y-60499001D01*
X72974601Y-60499001D01*
X72964799Y-60498519D01*
X72955092Y-60497080D01*
X72945573Y-60494695D01*
X72936333Y-60491389D01*
X72927461Y-60487193D01*
X72919044Y-60482148D01*
X72911162Y-60476302D01*
X72903890Y-60469712D01*
X72897300Y-60462440D01*
X72891454Y-60454558D01*
X72886409Y-60446141D01*
X72882213Y-60437269D01*
X72878907Y-60428029D01*
X72876522Y-60418510D01*
X72875083Y-60408803D01*
X72874601Y-60399001D01*
X72874601Y-60199001D01*
X72875083Y-60189199D01*
X72876522Y-60179492D01*
X72878907Y-60169973D01*
X72882213Y-60160733D01*
X72886409Y-60151861D01*
X72891454Y-60143444D01*
X72897300Y-60135562D01*
X72903890Y-60128290D01*
X72911162Y-60121700D01*
X72919044Y-60115854D01*
X72927461Y-60110809D01*
X72936333Y-60106613D01*
X72945573Y-60103307D01*
X72955092Y-60100922D01*
X72964799Y-60099483D01*
X72974601Y-60099001D01*
X74249601Y-60099001D01*
X74259403Y-60099483D01*
G37*
G04 #@! TD*
G04 #@! TO.C,C1*
G36*
X72161559Y-58844711D02*
G01*
X72175877Y-58846835D01*
X72189918Y-58850352D01*
X72203547Y-58855229D01*
X72216632Y-58861418D01*
X72229048Y-58868859D01*
X72240674Y-58877482D01*
X72251399Y-58887203D01*
X72261120Y-58897928D01*
X72269743Y-58909554D01*
X72277184Y-58921970D01*
X72283373Y-58935055D01*
X72288250Y-58948684D01*
X72291767Y-58962725D01*
X72293891Y-58977043D01*
X72294601Y-58991501D01*
X72294601Y-59286501D01*
X72293891Y-59300959D01*
X72291767Y-59315277D01*
X72288250Y-59329318D01*
X72283373Y-59342947D01*
X72277184Y-59356032D01*
X72269743Y-59368448D01*
X72261120Y-59380074D01*
X72251399Y-59390799D01*
X72240674Y-59400520D01*
X72229048Y-59409143D01*
X72216632Y-59416584D01*
X72203547Y-59422773D01*
X72189918Y-59427650D01*
X72175877Y-59431167D01*
X72161559Y-59433291D01*
X72147101Y-59434001D01*
X71802101Y-59434001D01*
X71787643Y-59433291D01*
X71773325Y-59431167D01*
X71759284Y-59427650D01*
X71745655Y-59422773D01*
X71732570Y-59416584D01*
X71720154Y-59409143D01*
X71708528Y-59400520D01*
X71697803Y-59390799D01*
X71688082Y-59380074D01*
X71679459Y-59368448D01*
X71672018Y-59356032D01*
X71665829Y-59342947D01*
X71660952Y-59329318D01*
X71657435Y-59315277D01*
X71655311Y-59300959D01*
X71654601Y-59286501D01*
X71654601Y-58991501D01*
X71655311Y-58977043D01*
X71657435Y-58962725D01*
X71660952Y-58948684D01*
X71665829Y-58935055D01*
X71672018Y-58921970D01*
X71679459Y-58909554D01*
X71688082Y-58897928D01*
X71697803Y-58887203D01*
X71708528Y-58877482D01*
X71720154Y-58868859D01*
X71732570Y-58861418D01*
X71745655Y-58855229D01*
X71759284Y-58850352D01*
X71773325Y-58846835D01*
X71787643Y-58844711D01*
X71802101Y-58844001D01*
X72147101Y-58844001D01*
X72161559Y-58844711D01*
G37*
G36*
X72161559Y-59814711D02*
G01*
X72175877Y-59816835D01*
X72189918Y-59820352D01*
X72203547Y-59825229D01*
X72216632Y-59831418D01*
X72229048Y-59838859D01*
X72240674Y-59847482D01*
X72251399Y-59857203D01*
X72261120Y-59867928D01*
X72269743Y-59879554D01*
X72277184Y-59891970D01*
X72283373Y-59905055D01*
X72288250Y-59918684D01*
X72291767Y-59932725D01*
X72293891Y-59947043D01*
X72294601Y-59961501D01*
X72294601Y-60256501D01*
X72293891Y-60270959D01*
X72291767Y-60285277D01*
X72288250Y-60299318D01*
X72283373Y-60312947D01*
X72277184Y-60326032D01*
X72269743Y-60338448D01*
X72261120Y-60350074D01*
X72251399Y-60360799D01*
X72240674Y-60370520D01*
X72229048Y-60379143D01*
X72216632Y-60386584D01*
X72203547Y-60392773D01*
X72189918Y-60397650D01*
X72175877Y-60401167D01*
X72161559Y-60403291D01*
X72147101Y-60404001D01*
X71802101Y-60404001D01*
X71787643Y-60403291D01*
X71773325Y-60401167D01*
X71759284Y-60397650D01*
X71745655Y-60392773D01*
X71732570Y-60386584D01*
X71720154Y-60379143D01*
X71708528Y-60370520D01*
X71697803Y-60360799D01*
X71688082Y-60350074D01*
X71679459Y-60338448D01*
X71672018Y-60326032D01*
X71665829Y-60312947D01*
X71660952Y-60299318D01*
X71657435Y-60285277D01*
X71655311Y-60270959D01*
X71654601Y-60256501D01*
X71654601Y-59961501D01*
X71655311Y-59947043D01*
X71657435Y-59932725D01*
X71660952Y-59918684D01*
X71665829Y-59905055D01*
X71672018Y-59891970D01*
X71679459Y-59879554D01*
X71688082Y-59867928D01*
X71697803Y-59857203D01*
X71708528Y-59847482D01*
X71720154Y-59838859D01*
X71732570Y-59831418D01*
X71745655Y-59825229D01*
X71759284Y-59820352D01*
X71773325Y-59816835D01*
X71787643Y-59814711D01*
X71802101Y-59814001D01*
X72147101Y-59814001D01*
X72161559Y-59814711D01*
G37*
G04 #@! TD*
G04 #@! TO.C,R8*
G36*
X85942006Y-56801205D02*
G01*
X85966274Y-56804805D01*
X85990073Y-56810766D01*
X86013172Y-56819031D01*
X86035351Y-56829521D01*
X86056394Y-56842133D01*
X86076100Y-56856748D01*
X86094278Y-56873224D01*
X86110754Y-56891402D01*
X86125369Y-56911108D01*
X86137981Y-56932151D01*
X86148471Y-56954330D01*
X86156736Y-56977429D01*
X86162697Y-57001228D01*
X86166297Y-57025496D01*
X86167501Y-57050000D01*
X86167501Y-57700002D01*
X86166297Y-57724506D01*
X86162697Y-57748774D01*
X86156736Y-57772573D01*
X86148471Y-57795672D01*
X86137981Y-57817851D01*
X86125369Y-57838894D01*
X86110754Y-57858600D01*
X86094278Y-57876778D01*
X86076100Y-57893254D01*
X86056394Y-57907869D01*
X86035351Y-57920481D01*
X86013172Y-57930971D01*
X85990073Y-57939236D01*
X85966274Y-57945197D01*
X85942006Y-57948797D01*
X85917502Y-57950001D01*
X85017500Y-57950001D01*
X84992996Y-57948797D01*
X84968728Y-57945197D01*
X84944929Y-57939236D01*
X84921830Y-57930971D01*
X84899651Y-57920481D01*
X84878608Y-57907869D01*
X84858902Y-57893254D01*
X84840724Y-57876778D01*
X84824248Y-57858600D01*
X84809633Y-57838894D01*
X84797021Y-57817851D01*
X84786531Y-57795672D01*
X84778266Y-57772573D01*
X84772305Y-57748774D01*
X84768705Y-57724506D01*
X84767501Y-57700002D01*
X84767501Y-57050000D01*
X84768705Y-57025496D01*
X84772305Y-57001228D01*
X84778266Y-56977429D01*
X84786531Y-56954330D01*
X84797021Y-56932151D01*
X84809633Y-56911108D01*
X84824248Y-56891402D01*
X84840724Y-56873224D01*
X84858902Y-56856748D01*
X84878608Y-56842133D01*
X84899651Y-56829521D01*
X84921830Y-56819031D01*
X84944929Y-56810766D01*
X84968728Y-56804805D01*
X84992996Y-56801205D01*
X85017500Y-56800001D01*
X85917502Y-56800001D01*
X85942006Y-56801205D01*
G37*
G36*
X85942006Y-54751205D02*
G01*
X85966274Y-54754805D01*
X85990073Y-54760766D01*
X86013172Y-54769031D01*
X86035351Y-54779521D01*
X86056394Y-54792133D01*
X86076100Y-54806748D01*
X86094278Y-54823224D01*
X86110754Y-54841402D01*
X86125369Y-54861108D01*
X86137981Y-54882151D01*
X86148471Y-54904330D01*
X86156736Y-54927429D01*
X86162697Y-54951228D01*
X86166297Y-54975496D01*
X86167501Y-55000000D01*
X86167501Y-55650002D01*
X86166297Y-55674506D01*
X86162697Y-55698774D01*
X86156736Y-55722573D01*
X86148471Y-55745672D01*
X86137981Y-55767851D01*
X86125369Y-55788894D01*
X86110754Y-55808600D01*
X86094278Y-55826778D01*
X86076100Y-55843254D01*
X86056394Y-55857869D01*
X86035351Y-55870481D01*
X86013172Y-55880971D01*
X85990073Y-55889236D01*
X85966274Y-55895197D01*
X85942006Y-55898797D01*
X85917502Y-55900001D01*
X85017500Y-55900001D01*
X84992996Y-55898797D01*
X84968728Y-55895197D01*
X84944929Y-55889236D01*
X84921830Y-55880971D01*
X84899651Y-55870481D01*
X84878608Y-55857869D01*
X84858902Y-55843254D01*
X84840724Y-55826778D01*
X84824248Y-55808600D01*
X84809633Y-55788894D01*
X84797021Y-55767851D01*
X84786531Y-55745672D01*
X84778266Y-55722573D01*
X84772305Y-55698774D01*
X84768705Y-55674506D01*
X84767501Y-55650002D01*
X84767501Y-55000000D01*
X84768705Y-54975496D01*
X84772305Y-54951228D01*
X84778266Y-54927429D01*
X84786531Y-54904330D01*
X84797021Y-54882151D01*
X84809633Y-54861108D01*
X84824248Y-54841402D01*
X84840724Y-54823224D01*
X84858902Y-54806748D01*
X84878608Y-54792133D01*
X84899651Y-54779521D01*
X84921830Y-54769031D01*
X84944929Y-54760766D01*
X84968728Y-54754805D01*
X84992996Y-54751205D01*
X85017500Y-54750001D01*
X85917502Y-54750001D01*
X85942006Y-54751205D01*
G37*
G04 #@! TD*
G04 #@! TO.C,R9*
G36*
X70774106Y-58180205D02*
G01*
X70798374Y-58183805D01*
X70822173Y-58189766D01*
X70845272Y-58198031D01*
X70867451Y-58208521D01*
X70888494Y-58221133D01*
X70908200Y-58235748D01*
X70926378Y-58252224D01*
X70942854Y-58270402D01*
X70957469Y-58290108D01*
X70970081Y-58311151D01*
X70980571Y-58333330D01*
X70988836Y-58356429D01*
X70994797Y-58380228D01*
X70998397Y-58404496D01*
X70999601Y-58429000D01*
X70999601Y-59079002D01*
X70998397Y-59103506D01*
X70994797Y-59127774D01*
X70988836Y-59151573D01*
X70980571Y-59174672D01*
X70970081Y-59196851D01*
X70957469Y-59217894D01*
X70942854Y-59237600D01*
X70926378Y-59255778D01*
X70908200Y-59272254D01*
X70888494Y-59286869D01*
X70867451Y-59299481D01*
X70845272Y-59309971D01*
X70822173Y-59318236D01*
X70798374Y-59324197D01*
X70774106Y-59327797D01*
X70749602Y-59329001D01*
X69849600Y-59329001D01*
X69825096Y-59327797D01*
X69800828Y-59324197D01*
X69777029Y-59318236D01*
X69753930Y-59309971D01*
X69731751Y-59299481D01*
X69710708Y-59286869D01*
X69691002Y-59272254D01*
X69672824Y-59255778D01*
X69656348Y-59237600D01*
X69641733Y-59217894D01*
X69629121Y-59196851D01*
X69618631Y-59174672D01*
X69610366Y-59151573D01*
X69604405Y-59127774D01*
X69600805Y-59103506D01*
X69599601Y-59079002D01*
X69599601Y-58429000D01*
X69600805Y-58404496D01*
X69604405Y-58380228D01*
X69610366Y-58356429D01*
X69618631Y-58333330D01*
X69629121Y-58311151D01*
X69641733Y-58290108D01*
X69656348Y-58270402D01*
X69672824Y-58252224D01*
X69691002Y-58235748D01*
X69710708Y-58221133D01*
X69731751Y-58208521D01*
X69753930Y-58198031D01*
X69777029Y-58189766D01*
X69800828Y-58183805D01*
X69825096Y-58180205D01*
X69849600Y-58179001D01*
X70749602Y-58179001D01*
X70774106Y-58180205D01*
G37*
G36*
X70774106Y-60230205D02*
G01*
X70798374Y-60233805D01*
X70822173Y-60239766D01*
X70845272Y-60248031D01*
X70867451Y-60258521D01*
X70888494Y-60271133D01*
X70908200Y-60285748D01*
X70926378Y-60302224D01*
X70942854Y-60320402D01*
X70957469Y-60340108D01*
X70970081Y-60361151D01*
X70980571Y-60383330D01*
X70988836Y-60406429D01*
X70994797Y-60430228D01*
X70998397Y-60454496D01*
X70999601Y-60479000D01*
X70999601Y-61129002D01*
X70998397Y-61153506D01*
X70994797Y-61177774D01*
X70988836Y-61201573D01*
X70980571Y-61224672D01*
X70970081Y-61246851D01*
X70957469Y-61267894D01*
X70942854Y-61287600D01*
X70926378Y-61305778D01*
X70908200Y-61322254D01*
X70888494Y-61336869D01*
X70867451Y-61349481D01*
X70845272Y-61359971D01*
X70822173Y-61368236D01*
X70798374Y-61374197D01*
X70774106Y-61377797D01*
X70749602Y-61379001D01*
X69849600Y-61379001D01*
X69825096Y-61377797D01*
X69800828Y-61374197D01*
X69777029Y-61368236D01*
X69753930Y-61359971D01*
X69731751Y-61349481D01*
X69710708Y-61336869D01*
X69691002Y-61322254D01*
X69672824Y-61305778D01*
X69656348Y-61287600D01*
X69641733Y-61267894D01*
X69629121Y-61246851D01*
X69618631Y-61224672D01*
X69610366Y-61201573D01*
X69604405Y-61177774D01*
X69600805Y-61153506D01*
X69599601Y-61129002D01*
X69599601Y-60479000D01*
X69600805Y-60454496D01*
X69604405Y-60430228D01*
X69610366Y-60406429D01*
X69618631Y-60383330D01*
X69629121Y-60361151D01*
X69641733Y-60340108D01*
X69656348Y-60320402D01*
X69672824Y-60302224D01*
X69691002Y-60285748D01*
X69710708Y-60271133D01*
X69731751Y-60258521D01*
X69753930Y-60248031D01*
X69777029Y-60239766D01*
X69800828Y-60233805D01*
X69825096Y-60230205D01*
X69849600Y-60229001D01*
X70749602Y-60229001D01*
X70774106Y-60230205D01*
G37*
G04 #@! TD*
G04 #@! TO.C,R10*
G36*
X66964106Y-58180205D02*
G01*
X66988374Y-58183805D01*
X67012173Y-58189766D01*
X67035272Y-58198031D01*
X67057451Y-58208521D01*
X67078494Y-58221133D01*
X67098200Y-58235748D01*
X67116378Y-58252224D01*
X67132854Y-58270402D01*
X67147469Y-58290108D01*
X67160081Y-58311151D01*
X67170571Y-58333330D01*
X67178836Y-58356429D01*
X67184797Y-58380228D01*
X67188397Y-58404496D01*
X67189601Y-58429000D01*
X67189601Y-59079002D01*
X67188397Y-59103506D01*
X67184797Y-59127774D01*
X67178836Y-59151573D01*
X67170571Y-59174672D01*
X67160081Y-59196851D01*
X67147469Y-59217894D01*
X67132854Y-59237600D01*
X67116378Y-59255778D01*
X67098200Y-59272254D01*
X67078494Y-59286869D01*
X67057451Y-59299481D01*
X67035272Y-59309971D01*
X67012173Y-59318236D01*
X66988374Y-59324197D01*
X66964106Y-59327797D01*
X66939602Y-59329001D01*
X66039600Y-59329001D01*
X66015096Y-59327797D01*
X65990828Y-59324197D01*
X65967029Y-59318236D01*
X65943930Y-59309971D01*
X65921751Y-59299481D01*
X65900708Y-59286869D01*
X65881002Y-59272254D01*
X65862824Y-59255778D01*
X65846348Y-59237600D01*
X65831733Y-59217894D01*
X65819121Y-59196851D01*
X65808631Y-59174672D01*
X65800366Y-59151573D01*
X65794405Y-59127774D01*
X65790805Y-59103506D01*
X65789601Y-59079002D01*
X65789601Y-58429000D01*
X65790805Y-58404496D01*
X65794405Y-58380228D01*
X65800366Y-58356429D01*
X65808631Y-58333330D01*
X65819121Y-58311151D01*
X65831733Y-58290108D01*
X65846348Y-58270402D01*
X65862824Y-58252224D01*
X65881002Y-58235748D01*
X65900708Y-58221133D01*
X65921751Y-58208521D01*
X65943930Y-58198031D01*
X65967029Y-58189766D01*
X65990828Y-58183805D01*
X66015096Y-58180205D01*
X66039600Y-58179001D01*
X66939602Y-58179001D01*
X66964106Y-58180205D01*
G37*
G36*
X66964106Y-60230205D02*
G01*
X66988374Y-60233805D01*
X67012173Y-60239766D01*
X67035272Y-60248031D01*
X67057451Y-60258521D01*
X67078494Y-60271133D01*
X67098200Y-60285748D01*
X67116378Y-60302224D01*
X67132854Y-60320402D01*
X67147469Y-60340108D01*
X67160081Y-60361151D01*
X67170571Y-60383330D01*
X67178836Y-60406429D01*
X67184797Y-60430228D01*
X67188397Y-60454496D01*
X67189601Y-60479000D01*
X67189601Y-61129002D01*
X67188397Y-61153506D01*
X67184797Y-61177774D01*
X67178836Y-61201573D01*
X67170571Y-61224672D01*
X67160081Y-61246851D01*
X67147469Y-61267894D01*
X67132854Y-61287600D01*
X67116378Y-61305778D01*
X67098200Y-61322254D01*
X67078494Y-61336869D01*
X67057451Y-61349481D01*
X67035272Y-61359971D01*
X67012173Y-61368236D01*
X66988374Y-61374197D01*
X66964106Y-61377797D01*
X66939602Y-61379001D01*
X66039600Y-61379001D01*
X66015096Y-61377797D01*
X65990828Y-61374197D01*
X65967029Y-61368236D01*
X65943930Y-61359971D01*
X65921751Y-61349481D01*
X65900708Y-61336869D01*
X65881002Y-61322254D01*
X65862824Y-61305778D01*
X65846348Y-61287600D01*
X65831733Y-61267894D01*
X65819121Y-61246851D01*
X65808631Y-61224672D01*
X65800366Y-61201573D01*
X65794405Y-61177774D01*
X65790805Y-61153506D01*
X65789601Y-61129002D01*
X65789601Y-60479000D01*
X65790805Y-60454496D01*
X65794405Y-60430228D01*
X65800366Y-60406429D01*
X65808631Y-60383330D01*
X65819121Y-60361151D01*
X65831733Y-60340108D01*
X65846348Y-60320402D01*
X65862824Y-60302224D01*
X65881002Y-60285748D01*
X65900708Y-60271133D01*
X65921751Y-60258521D01*
X65943930Y-60248031D01*
X65967029Y-60239766D01*
X65990828Y-60233805D01*
X66015096Y-60230205D01*
X66039600Y-60229001D01*
X66939602Y-60229001D01*
X66964106Y-60230205D01*
G37*
G04 #@! TD*
G04 #@! TO.C,C2*
G36*
X64699106Y-57975205D02*
G01*
X64723374Y-57978805D01*
X64747173Y-57984766D01*
X64770272Y-57993031D01*
X64792451Y-58003521D01*
X64813494Y-58016133D01*
X64833200Y-58030748D01*
X64851378Y-58047224D01*
X64867854Y-58065402D01*
X64882469Y-58085108D01*
X64895081Y-58106151D01*
X64905571Y-58128330D01*
X64913836Y-58151429D01*
X64919797Y-58175228D01*
X64923397Y-58199496D01*
X64924601Y-58224000D01*
X64924601Y-59124002D01*
X64923397Y-59148506D01*
X64919797Y-59172774D01*
X64913836Y-59196573D01*
X64905571Y-59219672D01*
X64895081Y-59241851D01*
X64882469Y-59262894D01*
X64867854Y-59282600D01*
X64851378Y-59300778D01*
X64833200Y-59317254D01*
X64813494Y-59331869D01*
X64792451Y-59344481D01*
X64770272Y-59354971D01*
X64747173Y-59363236D01*
X64723374Y-59369197D01*
X64699106Y-59372797D01*
X64674602Y-59374001D01*
X64024600Y-59374001D01*
X64000096Y-59372797D01*
X63975828Y-59369197D01*
X63952029Y-59363236D01*
X63928930Y-59354971D01*
X63906751Y-59344481D01*
X63885708Y-59331869D01*
X63866002Y-59317254D01*
X63847824Y-59300778D01*
X63831348Y-59282600D01*
X63816733Y-59262894D01*
X63804121Y-59241851D01*
X63793631Y-59219672D01*
X63785366Y-59196573D01*
X63779405Y-59172774D01*
X63775805Y-59148506D01*
X63774601Y-59124002D01*
X63774601Y-58224000D01*
X63775805Y-58199496D01*
X63779405Y-58175228D01*
X63785366Y-58151429D01*
X63793631Y-58128330D01*
X63804121Y-58106151D01*
X63816733Y-58085108D01*
X63831348Y-58065402D01*
X63847824Y-58047224D01*
X63866002Y-58030748D01*
X63885708Y-58016133D01*
X63906751Y-58003521D01*
X63928930Y-57993031D01*
X63952029Y-57984766D01*
X63975828Y-57978805D01*
X64000096Y-57975205D01*
X64024600Y-57974001D01*
X64674602Y-57974001D01*
X64699106Y-57975205D01*
G37*
G36*
X62649106Y-57975205D02*
G01*
X62673374Y-57978805D01*
X62697173Y-57984766D01*
X62720272Y-57993031D01*
X62742451Y-58003521D01*
X62763494Y-58016133D01*
X62783200Y-58030748D01*
X62801378Y-58047224D01*
X62817854Y-58065402D01*
X62832469Y-58085108D01*
X62845081Y-58106151D01*
X62855571Y-58128330D01*
X62863836Y-58151429D01*
X62869797Y-58175228D01*
X62873397Y-58199496D01*
X62874601Y-58224000D01*
X62874601Y-59124002D01*
X62873397Y-59148506D01*
X62869797Y-59172774D01*
X62863836Y-59196573D01*
X62855571Y-59219672D01*
X62845081Y-59241851D01*
X62832469Y-59262894D01*
X62817854Y-59282600D01*
X62801378Y-59300778D01*
X62783200Y-59317254D01*
X62763494Y-59331869D01*
X62742451Y-59344481D01*
X62720272Y-59354971D01*
X62697173Y-59363236D01*
X62673374Y-59369197D01*
X62649106Y-59372797D01*
X62624602Y-59374001D01*
X61974600Y-59374001D01*
X61950096Y-59372797D01*
X61925828Y-59369197D01*
X61902029Y-59363236D01*
X61878930Y-59354971D01*
X61856751Y-59344481D01*
X61835708Y-59331869D01*
X61816002Y-59317254D01*
X61797824Y-59300778D01*
X61781348Y-59282600D01*
X61766733Y-59262894D01*
X61754121Y-59241851D01*
X61743631Y-59219672D01*
X61735366Y-59196573D01*
X61729405Y-59172774D01*
X61725805Y-59148506D01*
X61724601Y-59124002D01*
X61724601Y-58224000D01*
X61725805Y-58199496D01*
X61729405Y-58175228D01*
X61735366Y-58151429D01*
X61743631Y-58128330D01*
X61754121Y-58106151D01*
X61766733Y-58085108D01*
X61781348Y-58065402D01*
X61797824Y-58047224D01*
X61816002Y-58030748D01*
X61835708Y-58016133D01*
X61856751Y-58003521D01*
X61878930Y-57993031D01*
X61902029Y-57984766D01*
X61925828Y-57978805D01*
X61950096Y-57975205D01*
X61974600Y-57974001D01*
X62624602Y-57974001D01*
X62649106Y-57975205D01*
G37*
G04 #@! TD*
G04 #@! TO.C,R11*
G36*
X62649106Y-59625205D02*
G01*
X62673374Y-59628805D01*
X62697173Y-59634766D01*
X62720272Y-59643031D01*
X62742451Y-59653521D01*
X62763494Y-59666133D01*
X62783200Y-59680748D01*
X62801378Y-59697224D01*
X62817854Y-59715402D01*
X62832469Y-59735108D01*
X62845081Y-59756151D01*
X62855571Y-59778330D01*
X62863836Y-59801429D01*
X62869797Y-59825228D01*
X62873397Y-59849496D01*
X62874601Y-59874000D01*
X62874601Y-60774002D01*
X62873397Y-60798506D01*
X62869797Y-60822774D01*
X62863836Y-60846573D01*
X62855571Y-60869672D01*
X62845081Y-60891851D01*
X62832469Y-60912894D01*
X62817854Y-60932600D01*
X62801378Y-60950778D01*
X62783200Y-60967254D01*
X62763494Y-60981869D01*
X62742451Y-60994481D01*
X62720272Y-61004971D01*
X62697173Y-61013236D01*
X62673374Y-61019197D01*
X62649106Y-61022797D01*
X62624602Y-61024001D01*
X61974600Y-61024001D01*
X61950096Y-61022797D01*
X61925828Y-61019197D01*
X61902029Y-61013236D01*
X61878930Y-61004971D01*
X61856751Y-60994481D01*
X61835708Y-60981869D01*
X61816002Y-60967254D01*
X61797824Y-60950778D01*
X61781348Y-60932600D01*
X61766733Y-60912894D01*
X61754121Y-60891851D01*
X61743631Y-60869672D01*
X61735366Y-60846573D01*
X61729405Y-60822774D01*
X61725805Y-60798506D01*
X61724601Y-60774002D01*
X61724601Y-59874000D01*
X61725805Y-59849496D01*
X61729405Y-59825228D01*
X61735366Y-59801429D01*
X61743631Y-59778330D01*
X61754121Y-59756151D01*
X61766733Y-59735108D01*
X61781348Y-59715402D01*
X61797824Y-59697224D01*
X61816002Y-59680748D01*
X61835708Y-59666133D01*
X61856751Y-59653521D01*
X61878930Y-59643031D01*
X61902029Y-59634766D01*
X61925828Y-59628805D01*
X61950096Y-59625205D01*
X61974600Y-59624001D01*
X62624602Y-59624001D01*
X62649106Y-59625205D01*
G37*
G36*
X64699106Y-59625205D02*
G01*
X64723374Y-59628805D01*
X64747173Y-59634766D01*
X64770272Y-59643031D01*
X64792451Y-59653521D01*
X64813494Y-59666133D01*
X64833200Y-59680748D01*
X64851378Y-59697224D01*
X64867854Y-59715402D01*
X64882469Y-59735108D01*
X64895081Y-59756151D01*
X64905571Y-59778330D01*
X64913836Y-59801429D01*
X64919797Y-59825228D01*
X64923397Y-59849496D01*
X64924601Y-59874000D01*
X64924601Y-60774002D01*
X64923397Y-60798506D01*
X64919797Y-60822774D01*
X64913836Y-60846573D01*
X64905571Y-60869672D01*
X64895081Y-60891851D01*
X64882469Y-60912894D01*
X64867854Y-60932600D01*
X64851378Y-60950778D01*
X64833200Y-60967254D01*
X64813494Y-60981869D01*
X64792451Y-60994481D01*
X64770272Y-61004971D01*
X64747173Y-61013236D01*
X64723374Y-61019197D01*
X64699106Y-61022797D01*
X64674602Y-61024001D01*
X64024600Y-61024001D01*
X64000096Y-61022797D01*
X63975828Y-61019197D01*
X63952029Y-61013236D01*
X63928930Y-61004971D01*
X63906751Y-60994481D01*
X63885708Y-60981869D01*
X63866002Y-60967254D01*
X63847824Y-60950778D01*
X63831348Y-60932600D01*
X63816733Y-60912894D01*
X63804121Y-60891851D01*
X63793631Y-60869672D01*
X63785366Y-60846573D01*
X63779405Y-60822774D01*
X63775805Y-60798506D01*
X63774601Y-60774002D01*
X63774601Y-59874000D01*
X63775805Y-59849496D01*
X63779405Y-59825228D01*
X63785366Y-59801429D01*
X63793631Y-59778330D01*
X63804121Y-59756151D01*
X63816733Y-59735108D01*
X63831348Y-59715402D01*
X63847824Y-59697224D01*
X63866002Y-59680748D01*
X63885708Y-59666133D01*
X63906751Y-59653521D01*
X63928930Y-59643031D01*
X63952029Y-59634766D01*
X63975828Y-59628805D01*
X64000096Y-59625205D01*
X64024600Y-59624001D01*
X64674602Y-59624001D01*
X64699106Y-59625205D01*
G37*
G04 #@! TD*
G04 #@! TO.C,R12*
G36*
X58999106Y-59625205D02*
G01*
X59023374Y-59628805D01*
X59047173Y-59634766D01*
X59070272Y-59643031D01*
X59092451Y-59653521D01*
X59113494Y-59666133D01*
X59133200Y-59680748D01*
X59151378Y-59697224D01*
X59167854Y-59715402D01*
X59182469Y-59735108D01*
X59195081Y-59756151D01*
X59205571Y-59778330D01*
X59213836Y-59801429D01*
X59219797Y-59825228D01*
X59223397Y-59849496D01*
X59224601Y-59874000D01*
X59224601Y-60774002D01*
X59223397Y-60798506D01*
X59219797Y-60822774D01*
X59213836Y-60846573D01*
X59205571Y-60869672D01*
X59195081Y-60891851D01*
X59182469Y-60912894D01*
X59167854Y-60932600D01*
X59151378Y-60950778D01*
X59133200Y-60967254D01*
X59113494Y-60981869D01*
X59092451Y-60994481D01*
X59070272Y-61004971D01*
X59047173Y-61013236D01*
X59023374Y-61019197D01*
X58999106Y-61022797D01*
X58974602Y-61024001D01*
X58324600Y-61024001D01*
X58300096Y-61022797D01*
X58275828Y-61019197D01*
X58252029Y-61013236D01*
X58228930Y-61004971D01*
X58206751Y-60994481D01*
X58185708Y-60981869D01*
X58166002Y-60967254D01*
X58147824Y-60950778D01*
X58131348Y-60932600D01*
X58116733Y-60912894D01*
X58104121Y-60891851D01*
X58093631Y-60869672D01*
X58085366Y-60846573D01*
X58079405Y-60822774D01*
X58075805Y-60798506D01*
X58074601Y-60774002D01*
X58074601Y-59874000D01*
X58075805Y-59849496D01*
X58079405Y-59825228D01*
X58085366Y-59801429D01*
X58093631Y-59778330D01*
X58104121Y-59756151D01*
X58116733Y-59735108D01*
X58131348Y-59715402D01*
X58147824Y-59697224D01*
X58166002Y-59680748D01*
X58185708Y-59666133D01*
X58206751Y-59653521D01*
X58228930Y-59643031D01*
X58252029Y-59634766D01*
X58275828Y-59628805D01*
X58300096Y-59625205D01*
X58324600Y-59624001D01*
X58974602Y-59624001D01*
X58999106Y-59625205D01*
G37*
G36*
X61049106Y-59625205D02*
G01*
X61073374Y-59628805D01*
X61097173Y-59634766D01*
X61120272Y-59643031D01*
X61142451Y-59653521D01*
X61163494Y-59666133D01*
X61183200Y-59680748D01*
X61201378Y-59697224D01*
X61217854Y-59715402D01*
X61232469Y-59735108D01*
X61245081Y-59756151D01*
X61255571Y-59778330D01*
X61263836Y-59801429D01*
X61269797Y-59825228D01*
X61273397Y-59849496D01*
X61274601Y-59874000D01*
X61274601Y-60774002D01*
X61273397Y-60798506D01*
X61269797Y-60822774D01*
X61263836Y-60846573D01*
X61255571Y-60869672D01*
X61245081Y-60891851D01*
X61232469Y-60912894D01*
X61217854Y-60932600D01*
X61201378Y-60950778D01*
X61183200Y-60967254D01*
X61163494Y-60981869D01*
X61142451Y-60994481D01*
X61120272Y-61004971D01*
X61097173Y-61013236D01*
X61073374Y-61019197D01*
X61049106Y-61022797D01*
X61024602Y-61024001D01*
X60374600Y-61024001D01*
X60350096Y-61022797D01*
X60325828Y-61019197D01*
X60302029Y-61013236D01*
X60278930Y-61004971D01*
X60256751Y-60994481D01*
X60235708Y-60981869D01*
X60216002Y-60967254D01*
X60197824Y-60950778D01*
X60181348Y-60932600D01*
X60166733Y-60912894D01*
X60154121Y-60891851D01*
X60143631Y-60869672D01*
X60135366Y-60846573D01*
X60129405Y-60822774D01*
X60125805Y-60798506D01*
X60124601Y-60774002D01*
X60124601Y-59874000D01*
X60125805Y-59849496D01*
X60129405Y-59825228D01*
X60135366Y-59801429D01*
X60143631Y-59778330D01*
X60154121Y-59756151D01*
X60166733Y-59735108D01*
X60181348Y-59715402D01*
X60197824Y-59697224D01*
X60216002Y-59680748D01*
X60235708Y-59666133D01*
X60256751Y-59653521D01*
X60278930Y-59643031D01*
X60302029Y-59634766D01*
X60325828Y-59628805D01*
X60350096Y-59625205D01*
X60374600Y-59624001D01*
X61024602Y-59624001D01*
X61049106Y-59625205D01*
G37*
G04 #@! TD*
D12*
G04 #@! TO.C,J2*
X85467501Y-52032001D03*
X82697501Y-52032001D03*
X79927501Y-52032001D03*
X77157501Y-52032001D03*
X74387501Y-52032001D03*
X71617501Y-52032001D03*
X68847501Y-52032001D03*
X66077501Y-52032001D03*
X63307501Y-52032001D03*
X60537501Y-52032001D03*
X57767501Y-52032001D03*
X54997501Y-52032001D03*
X52227501Y-52032001D03*
G04 #@! TD*
M02*
